%TF.GenerationSoftware,KiCad,Pcbnew,(6.0.2)*%
%TF.CreationDate,2022-04-19T04:36:19+10:00*%
%TF.ProjectId,adapter,61646170-7465-4722-9e6b-696361645f70,1.2*%
%TF.SameCoordinates,Original*%
%TF.FileFunction,Profile,NP*%
%FSLAX46Y46*%
G04 Gerber Fmt 4.6, Leading zero omitted, Abs format (unit mm)*
G04 Created by KiCad (PCBNEW (6.0.2)) date 2022-04-19 04:36:19*
%MOMM*%
%LPD*%
G01*
G04 APERTURE LIST*
%TA.AperFunction,Profile*%
%ADD10C,0.200000*%
%TD*%
%TA.AperFunction,Profile*%
%ADD11C,0.120000*%
%TD*%
G04 APERTURE END LIST*
D10*
X72500000Y-54600000D02*
X62750000Y-59850000D01*
X62750000Y-27350000D02*
X72500000Y-32600000D01*
X62750000Y-27350000D02*
G75*
G03*
X33049743Y-43600000I-10404671J-16249999D01*
G01*
X33049743Y-43600000D02*
G75*
G03*
X62750000Y-59850000I19295586J-1D01*
G01*
X72500000Y-54600000D02*
G75*
G03*
X76500000Y-48100000I-3629166J6714102D01*
G01*
X76500000Y-39100000D02*
G75*
G03*
X72500000Y-32600000I-7629166J-214102D01*
G01*
X76500000Y-39100000D02*
X76500000Y-48100000D01*
D11*
%TO.C,REF\u002A\u002A*%
X47349038Y-54477757D02*
X45649038Y-57422243D01*
X44750962Y-52977757D02*
X47349038Y-54477757D01*
X45649038Y-57422243D02*
X43050962Y-55922243D01*
X43050962Y-55922243D02*
X44750962Y-52977757D01*
X61549038Y-55922243D02*
X58950962Y-57422243D01*
X58950962Y-57422243D02*
X57250962Y-54477757D01*
X57250962Y-54477757D02*
X59849038Y-52977757D01*
X59849038Y-52977757D02*
X61549038Y-55922243D01*
X50990000Y-31855000D02*
X50990000Y-28455000D01*
X53990000Y-28455000D02*
X53990000Y-31855000D01*
X50990000Y-28455000D02*
X53990000Y-28455000D01*
X53990000Y-31855000D02*
X50990000Y-31855000D01*
X42650962Y-31677757D02*
X45249038Y-30177757D01*
X45249038Y-30177757D02*
X46949038Y-33122243D01*
X44350962Y-34622243D02*
X42650962Y-31677757D01*
X46949038Y-33122243D02*
X44350962Y-34622243D01*
X40570000Y-45060000D02*
X37170000Y-45060000D01*
X40570000Y-42060000D02*
X40570000Y-45060000D01*
X37170000Y-42060000D02*
X40570000Y-42060000D01*
X37170000Y-45060000D02*
X37170000Y-42060000D01*
X67680000Y-45060000D02*
X64280000Y-45060000D01*
X64280000Y-45060000D02*
X64280000Y-42060000D01*
X67680000Y-42060000D02*
X67680000Y-45060000D01*
X64280000Y-42060000D02*
X67680000Y-42060000D01*
X57050962Y-32722243D02*
X58750962Y-29777757D01*
X59649038Y-34222243D02*
X57050962Y-32722243D01*
X61349038Y-31277757D02*
X59649038Y-34222243D01*
X58750962Y-29777757D02*
X61349038Y-31277757D01*
X53990000Y-55560000D02*
X53990000Y-58960000D01*
X50990000Y-55560000D02*
X53990000Y-55560000D01*
X53990000Y-58960000D02*
X50990000Y-58960000D01*
X50990000Y-58960000D02*
X50990000Y-55560000D01*
X66822243Y-36649038D02*
X63877757Y-38349038D01*
X63877757Y-38349038D02*
X62377757Y-35750962D01*
X62377757Y-35750962D02*
X65322243Y-34050962D01*
X65322243Y-34050962D02*
X66822243Y-36649038D01*
X38177757Y-49950962D02*
X41122243Y-48250962D01*
X42622243Y-50849038D02*
X39677757Y-52549038D01*
X39677757Y-52549038D02*
X38177757Y-49950962D01*
X41122243Y-48250962D02*
X42622243Y-50849038D01*
X66822243Y-50350962D02*
X65322243Y-52949038D01*
X65322243Y-52949038D02*
X62377757Y-51249038D01*
X63877757Y-48650962D02*
X66822243Y-50350962D01*
X62377757Y-51249038D02*
X63877757Y-48650962D01*
X37757757Y-37529038D02*
X39257757Y-34930962D01*
X39257757Y-34930962D02*
X42202243Y-36630962D01*
X42202243Y-36630962D02*
X40702243Y-39229038D01*
X40702243Y-39229038D02*
X37757757Y-37529038D01*
%TD*%
M02*
