%TF.GenerationSoftware,KiCad,Pcbnew,6.0.0-rc1-bf2b03b42f~115~ubuntu21.10.1*%
%TF.CreationDate,2021-12-10T15:52:42+01:00*%
%TF.ProjectId,adapter,61646170-7465-4722-9e6b-696361645f70,1.1*%
%TF.SameCoordinates,Original*%
%TF.FileFunction,Legend,Top*%
%TF.FilePolarity,Positive*%
%FSLAX46Y46*%
G04 Gerber Fmt 4.6, Leading zero omitted, Abs format (unit mm)*
G04 Created by KiCad (PCBNEW 6.0.0-rc1-bf2b03b42f~115~ubuntu21.10.1) date 2021-12-10 15:52:42*
%MOMM*%
%LPD*%
G01*
G04 APERTURE LIST*
%ADD10C,0.120000*%
%ADD11C,0.150000*%
%ADD12C,0.200000*%
%ADD13C,5.000000*%
%ADD14R,1.700000X1.700000*%
%ADD15O,1.700000X1.700000*%
%ADD16O,1.400000X2.000000*%
%ADD17O,1.500000X1.500000*%
%ADD18O,1.400000X3.500000*%
%ADD19R,1.400000X2.000000*%
%ADD20C,1.700000*%
G04 APERTURE END LIST*
D10*
X116969496Y-36550159D02*
X115950385Y-36550159D01*
X130400000Y-35715189D02*
G75*
G03*
X131171079Y-36496078I800720J19520D01*
G01*
X130400001Y-29890189D02*
X130400001Y-35715189D01*
X132971080Y-29875000D02*
G75*
G03*
X132200001Y-29094111I-800720J-19520D01*
G01*
X116969496Y-36550159D02*
G75*
G03*
X117750386Y-35754081I-19496J800159D01*
G01*
X117750386Y-29929081D02*
G75*
G03*
X116979307Y-29148192I-800720J-19520D01*
G01*
X131180890Y-29094111D02*
X132200001Y-29094111D01*
D11*
X82720000Y-20180000D02*
X90110000Y-20180000D01*
X90110000Y-20180000D02*
X90110000Y-32240000D01*
X90110000Y-32240000D02*
X82720000Y-32240000D01*
X82720000Y-32240000D02*
X82720000Y-20180000D01*
D10*
X132190190Y-36496078D02*
G75*
G03*
X132971080Y-35700000I-19496J800159D01*
G01*
D11*
X158135000Y-20320000D02*
X165525000Y-20320000D01*
X165525000Y-20320000D02*
X165525000Y-32380000D01*
X165525000Y-32380000D02*
X158135000Y-32380000D01*
X158135000Y-32380000D02*
X158135000Y-20320000D01*
D10*
X132190190Y-36496078D02*
X131171079Y-36496078D01*
X131180890Y-29094111D02*
G75*
G03*
X130400000Y-29890189I19496J-800159D01*
G01*
X115960196Y-29148192D02*
X116979307Y-29148192D01*
X115960196Y-29148192D02*
G75*
G03*
X115179306Y-29944270I19496J-800159D01*
G01*
X117750386Y-35754081D02*
X117750385Y-29929081D01*
X132971080Y-35700000D02*
X132971079Y-29875000D01*
X115179306Y-35769270D02*
G75*
G03*
X115950385Y-36550159I800720J19520D01*
G01*
X115179307Y-29944270D02*
X115179307Y-35769270D01*
D11*
X87322428Y-22803809D02*
X87436714Y-22841904D01*
X87627190Y-22841904D01*
X87703380Y-22803809D01*
X87741476Y-22765714D01*
X87779571Y-22689523D01*
X87779571Y-22613333D01*
X87741476Y-22537142D01*
X87703380Y-22499047D01*
X87627190Y-22460952D01*
X87474809Y-22422857D01*
X87398619Y-22384761D01*
X87360523Y-22346666D01*
X87322428Y-22270476D01*
X87322428Y-22194285D01*
X87360523Y-22118095D01*
X87398619Y-22080000D01*
X87474809Y-22041904D01*
X87665285Y-22041904D01*
X87779571Y-22080000D01*
X107368624Y-76405095D02*
X106910688Y-76324283D01*
X107045375Y-76728344D02*
X106479690Y-76162658D01*
X106695189Y-75947159D01*
X106776001Y-75920221D01*
X106829876Y-75920221D01*
X106910688Y-75947159D01*
X106991500Y-76027971D01*
X107018438Y-76108783D01*
X107018438Y-76162658D01*
X106991500Y-76243470D01*
X106776001Y-76458970D01*
X106991500Y-75650847D02*
X107341687Y-75300661D01*
X107368624Y-75704722D01*
X107449436Y-75623910D01*
X107530248Y-75596973D01*
X107584123Y-75596973D01*
X107664935Y-75623910D01*
X107799622Y-75758597D01*
X107826560Y-75839409D01*
X107826560Y-75893284D01*
X107799622Y-75974096D01*
X107637998Y-76135721D01*
X107557186Y-76162658D01*
X107503311Y-76162658D01*
X146887949Y-78895511D02*
X146887949Y-78949386D01*
X146834074Y-79057135D01*
X146780200Y-79111010D01*
X146672450Y-79164885D01*
X146564700Y-79164885D01*
X146483888Y-79137948D01*
X146349201Y-79057135D01*
X146268389Y-78976323D01*
X146187577Y-78841636D01*
X146160639Y-78760824D01*
X146160639Y-78653074D01*
X146214514Y-78545325D01*
X146268389Y-78491450D01*
X146376138Y-78437575D01*
X146430013Y-78437575D01*
X146645512Y-78222076D02*
X146645512Y-78168201D01*
X146672450Y-78087389D01*
X146807137Y-77952702D01*
X146887949Y-77925764D01*
X146941824Y-77925764D01*
X147022636Y-77952702D01*
X147076511Y-78006577D01*
X147130386Y-78114326D01*
X147130386Y-78760824D01*
X147480572Y-78410638D01*
X159909935Y-33592993D02*
X160024221Y-33631088D01*
X160214697Y-33631088D01*
X160290888Y-33592993D01*
X160328983Y-33554898D01*
X160367078Y-33478707D01*
X160367078Y-33402517D01*
X160328983Y-33326326D01*
X160290888Y-33288231D01*
X160214697Y-33250136D01*
X160062316Y-33212041D01*
X159986126Y-33173945D01*
X159948031Y-33135850D01*
X159909935Y-33059660D01*
X159909935Y-32983469D01*
X159948031Y-32907279D01*
X159986126Y-32869184D01*
X160062316Y-32831088D01*
X160252793Y-32831088D01*
X160367078Y-32869184D01*
X160709935Y-33212041D02*
X160976602Y-33212041D01*
X161090888Y-33631088D02*
X160709935Y-33631088D01*
X160709935Y-32831088D01*
X161090888Y-32831088D01*
X161890888Y-33631088D02*
X161624221Y-33250136D01*
X161433745Y-33631088D02*
X161433745Y-32831088D01*
X161738507Y-32831088D01*
X161814697Y-32869184D01*
X161852793Y-32907279D01*
X161890888Y-32983469D01*
X161890888Y-33097755D01*
X161852793Y-33173945D01*
X161814697Y-33212041D01*
X161738507Y-33250136D01*
X161433745Y-33250136D01*
X162233745Y-33631088D02*
X162233745Y-32831088D01*
X162576602Y-33402517D02*
X162957555Y-33402517D01*
X162500412Y-33631088D02*
X162767078Y-32831088D01*
X163033745Y-33631088D01*
X163681364Y-33631088D02*
X163300412Y-33631088D01*
X163300412Y-32831088D01*
X116313565Y-78744634D02*
X116351660Y-78706539D01*
X116427851Y-78668443D01*
X116618327Y-78668443D01*
X116694517Y-78706539D01*
X116732613Y-78744634D01*
X116770708Y-78820824D01*
X116770708Y-78897015D01*
X116732613Y-79011300D01*
X116275470Y-79468443D01*
X116770708Y-79468443D01*
X117265946Y-78668443D02*
X117342136Y-78668443D01*
X117418327Y-78706539D01*
X117456422Y-78744634D01*
X117494517Y-78820824D01*
X117532613Y-78973205D01*
X117532613Y-79163681D01*
X117494517Y-79316062D01*
X117456422Y-79392253D01*
X117418327Y-79430348D01*
X117342136Y-79468443D01*
X117265946Y-79468443D01*
X117189755Y-79430348D01*
X117151660Y-79392253D01*
X117113565Y-79316062D01*
X117075470Y-79163681D01*
X117075470Y-78973205D01*
X117113565Y-78820824D01*
X117151660Y-78744634D01*
X117189755Y-78706539D01*
X117265946Y-78668443D01*
X117837374Y-78744634D02*
X117875470Y-78706539D01*
X117951660Y-78668443D01*
X118142136Y-78668443D01*
X118218327Y-78706539D01*
X118256422Y-78744634D01*
X118294517Y-78820824D01*
X118294517Y-78897015D01*
X118256422Y-79011300D01*
X117799279Y-79468443D01*
X118294517Y-79468443D01*
X119056422Y-79468443D02*
X118599279Y-79468443D01*
X118827851Y-79468443D02*
X118827851Y-78668443D01*
X118751660Y-78782729D01*
X118675470Y-78858919D01*
X118599279Y-78897015D01*
X120542136Y-79544634D02*
X120465946Y-79506539D01*
X120389755Y-79430348D01*
X120275470Y-79316062D01*
X120199279Y-79277967D01*
X120123089Y-79277967D01*
X120161184Y-79468443D02*
X120084994Y-79430348D01*
X120008803Y-79354158D01*
X119970708Y-79201777D01*
X119970708Y-78935110D01*
X120008803Y-78782729D01*
X120084994Y-78706539D01*
X120161184Y-78668443D01*
X120313565Y-78668443D01*
X120389755Y-78706539D01*
X120465946Y-78782729D01*
X120504041Y-78935110D01*
X120504041Y-79201777D01*
X120465946Y-79354158D01*
X120389755Y-79430348D01*
X120313565Y-79468443D01*
X120161184Y-79468443D01*
X120846898Y-78668443D02*
X120846898Y-79316062D01*
X120884994Y-79392253D01*
X120923089Y-79430348D01*
X120999279Y-79468443D01*
X121151660Y-79468443D01*
X121227851Y-79430348D01*
X121265946Y-79392253D01*
X121304041Y-79316062D01*
X121304041Y-78668443D01*
X121684994Y-79049396D02*
X121951660Y-79049396D01*
X122065946Y-79468443D02*
X121684994Y-79468443D01*
X121684994Y-78668443D01*
X122065946Y-78668443D01*
X122408803Y-79468443D02*
X122408803Y-78668443D01*
X122865946Y-79468443D01*
X122865946Y-78668443D01*
X123132613Y-78668443D02*
X123589755Y-78668443D01*
X123361184Y-79468443D02*
X123361184Y-78668443D01*
X123856422Y-79468443D02*
X123856422Y-78668443D01*
X124237374Y-79468443D02*
X124237374Y-78668443D01*
X124694517Y-79468443D01*
X124694517Y-78668443D01*
X126065946Y-79468443D02*
X125684994Y-79468443D01*
X125684994Y-78668443D01*
X126332613Y-79049396D02*
X126599279Y-79049396D01*
X126713565Y-79468443D02*
X126332613Y-79468443D01*
X126332613Y-78668443D01*
X126713565Y-78668443D01*
X127323089Y-79049396D02*
X127437374Y-79087491D01*
X127475470Y-79125586D01*
X127513565Y-79201777D01*
X127513565Y-79316062D01*
X127475470Y-79392253D01*
X127437374Y-79430348D01*
X127361184Y-79468443D01*
X127056422Y-79468443D01*
X127056422Y-78668443D01*
X127323089Y-78668443D01*
X127399279Y-78706539D01*
X127437374Y-78744634D01*
X127475470Y-78820824D01*
X127475470Y-78897015D01*
X127437374Y-78973205D01*
X127399279Y-79011300D01*
X127323089Y-79049396D01*
X127056422Y-79049396D01*
X127818327Y-79239872D02*
X128199279Y-79239872D01*
X127742136Y-79468443D02*
X128008803Y-78668443D01*
X128275470Y-79468443D01*
X128504041Y-79430348D02*
X128618327Y-79468443D01*
X128808803Y-79468443D01*
X128884994Y-79430348D01*
X128923089Y-79392253D01*
X128961184Y-79316062D01*
X128961184Y-79239872D01*
X128923089Y-79163681D01*
X128884994Y-79125586D01*
X128808803Y-79087491D01*
X128656422Y-79049396D01*
X128580232Y-79011300D01*
X128542136Y-78973205D01*
X128504041Y-78897015D01*
X128504041Y-78820824D01*
X128542136Y-78744634D01*
X128580232Y-78706539D01*
X128656422Y-78668443D01*
X128846898Y-78668443D01*
X128961184Y-78706539D01*
X129189755Y-78668443D02*
X129646898Y-78668443D01*
X129418327Y-79468443D02*
X129418327Y-78668443D01*
X129875470Y-79239872D02*
X130256422Y-79239872D01*
X129799279Y-79468443D02*
X130065946Y-78668443D01*
X130332613Y-79468443D01*
X131056422Y-79468443D02*
X130789755Y-79087491D01*
X130599279Y-79468443D02*
X130599279Y-78668443D01*
X130904041Y-78668443D01*
X130980232Y-78706539D01*
X131018327Y-78744634D01*
X131056422Y-78820824D01*
X131056422Y-78935110D01*
X131018327Y-79011300D01*
X130980232Y-79049396D01*
X130904041Y-79087491D01*
X130599279Y-79087491D01*
X131399279Y-79468443D02*
X131399279Y-78668443D01*
X131589755Y-78668443D01*
X131704041Y-78706539D01*
X131780232Y-78782729D01*
X131818327Y-78858919D01*
X131856422Y-79011300D01*
X131856422Y-79125586D01*
X131818327Y-79277967D01*
X131780232Y-79354158D01*
X131704041Y-79430348D01*
X131589755Y-79468443D01*
X131399279Y-79468443D01*
X117113565Y-80527872D02*
X117494517Y-80527872D01*
X117037374Y-80756443D02*
X117304041Y-79956443D01*
X117570708Y-80756443D01*
X117837374Y-80756443D02*
X117837374Y-79956443D01*
X118294517Y-80756443D01*
X118294517Y-79956443D01*
X118675470Y-80756443D02*
X118675470Y-79956443D01*
X118865946Y-79956443D01*
X118980232Y-79994539D01*
X119056422Y-80070729D01*
X119094517Y-80146919D01*
X119132613Y-80299300D01*
X119132613Y-80413586D01*
X119094517Y-80565967D01*
X119056422Y-80642158D01*
X118980232Y-80718348D01*
X118865946Y-80756443D01*
X118675470Y-80756443D01*
X120046898Y-80718348D02*
X120161184Y-80756443D01*
X120351660Y-80756443D01*
X120427851Y-80718348D01*
X120465946Y-80680253D01*
X120504041Y-80604062D01*
X120504041Y-80527872D01*
X120465946Y-80451681D01*
X120427851Y-80413586D01*
X120351660Y-80375491D01*
X120199279Y-80337396D01*
X120123089Y-80299300D01*
X120084994Y-80261205D01*
X120046898Y-80185015D01*
X120046898Y-80108824D01*
X120084994Y-80032634D01*
X120123089Y-79994539D01*
X120199279Y-79956443D01*
X120389755Y-79956443D01*
X120504041Y-79994539D01*
X120732613Y-79956443D02*
X121189755Y-79956443D01*
X120961184Y-80756443D02*
X120961184Y-79956443D01*
X121456422Y-80337396D02*
X121723089Y-80337396D01*
X121837374Y-80756443D02*
X121456422Y-80756443D01*
X121456422Y-79956443D01*
X121837374Y-79956443D01*
X122446898Y-80337396D02*
X122180232Y-80337396D01*
X122180232Y-80756443D02*
X122180232Y-79956443D01*
X122561184Y-79956443D01*
X122827851Y-80527872D02*
X123208803Y-80527872D01*
X122751660Y-80756443D02*
X123018327Y-79956443D01*
X123284994Y-80756443D01*
X123551660Y-80756443D02*
X123551660Y-79956443D01*
X124008803Y-80756443D01*
X124008803Y-79956443D01*
X124999279Y-80756443D02*
X124999279Y-79956443D01*
X125456422Y-80756443D02*
X125113565Y-80299300D01*
X125456422Y-79956443D02*
X124999279Y-80413586D01*
X125799279Y-80337396D02*
X126065946Y-80337396D01*
X126180232Y-80756443D02*
X125799279Y-80756443D01*
X125799279Y-79956443D01*
X126180232Y-79956443D01*
X126980232Y-80756443D02*
X126713565Y-80375491D01*
X126523089Y-80756443D02*
X126523089Y-79956443D01*
X126827851Y-79956443D01*
X126904041Y-79994539D01*
X126942136Y-80032634D01*
X126980232Y-80108824D01*
X126980232Y-80223110D01*
X126942136Y-80299300D01*
X126904041Y-80337396D01*
X126827851Y-80375491D01*
X126523089Y-80375491D01*
X127323089Y-80756443D02*
X127323089Y-79956443D01*
X127780232Y-80756443D02*
X127437374Y-80299300D01*
X127780232Y-79956443D02*
X127323089Y-80413586D01*
X128123089Y-80756443D02*
X128123089Y-79956443D01*
X128389755Y-80527872D01*
X128656422Y-79956443D01*
X128656422Y-80756443D01*
X128999279Y-80527872D02*
X129380232Y-80527872D01*
X128923089Y-80756443D02*
X129189755Y-79956443D01*
X129456422Y-80756443D01*
X129723089Y-80756443D02*
X129723089Y-79956443D01*
X130180232Y-80756443D01*
X130180232Y-79956443D01*
X130561184Y-80756443D02*
X130561184Y-79956443D01*
X131018327Y-80756443D01*
X131018327Y-79956443D01*
X101828349Y-78766311D02*
X101828349Y-78820186D01*
X101774474Y-78927935D01*
X101720599Y-78981810D01*
X101612850Y-79035685D01*
X101505100Y-79035685D01*
X101424288Y-79008748D01*
X101289601Y-78927935D01*
X101208789Y-78847123D01*
X101127977Y-78712436D01*
X101101039Y-78631624D01*
X101101039Y-78523874D01*
X101154914Y-78416125D01*
X101208789Y-78362250D01*
X101316538Y-78308375D01*
X101370413Y-78308375D01*
X101585912Y-78092876D02*
X101585912Y-78039001D01*
X101612850Y-77958189D01*
X101747537Y-77823502D01*
X101828349Y-77796564D01*
X101882224Y-77796564D01*
X101963036Y-77823502D01*
X102016911Y-77877377D01*
X102070786Y-77985126D01*
X102070786Y-78631624D01*
X102420972Y-78281438D01*
X161552381Y-24980000D02*
X161476190Y-24941904D01*
X161361905Y-24941904D01*
X161247619Y-24980000D01*
X161171428Y-25056190D01*
X161133333Y-25132380D01*
X161095238Y-25284761D01*
X161095238Y-25399047D01*
X161133333Y-25551428D01*
X161171428Y-25627619D01*
X161247619Y-25703809D01*
X161361905Y-25741904D01*
X161438095Y-25741904D01*
X161552381Y-25703809D01*
X161590476Y-25665714D01*
X161590476Y-25399047D01*
X161438095Y-25399047D01*
X161933333Y-25741904D02*
X161933333Y-24941904D01*
X162390476Y-25741904D01*
X162390476Y-24941904D01*
X162771428Y-25741904D02*
X162771428Y-24941904D01*
X162961905Y-24941904D01*
X163076190Y-24980000D01*
X163152381Y-25056190D01*
X163190476Y-25132380D01*
X163228571Y-25284761D01*
X163228571Y-25399047D01*
X163190476Y-25551428D01*
X163152381Y-25627619D01*
X163076190Y-25703809D01*
X162961905Y-25741904D01*
X162771428Y-25741904D01*
X84361904Y-41902379D02*
X83980952Y-42169046D01*
X84361904Y-42359522D02*
X83561904Y-42359522D01*
X83561904Y-42054760D01*
X83600000Y-41978570D01*
X83638095Y-41940475D01*
X83714285Y-41902379D01*
X83828571Y-41902379D01*
X83904761Y-41940475D01*
X83942857Y-41978570D01*
X83980952Y-42054760D01*
X83980952Y-42359522D01*
X83600000Y-41140475D02*
X83561904Y-41216665D01*
X83561904Y-41330951D01*
X83600000Y-41445237D01*
X83676190Y-41521427D01*
X83752380Y-41559522D01*
X83904761Y-41597618D01*
X84019047Y-41597618D01*
X84171428Y-41559522D01*
X84247619Y-41521427D01*
X84323809Y-41445237D01*
X84361904Y-41330951D01*
X84361904Y-41254760D01*
X84323809Y-41140475D01*
X84285714Y-41102379D01*
X84019047Y-41102379D01*
X84019047Y-41254760D01*
X83942857Y-40492856D02*
X83980952Y-40378570D01*
X84019047Y-40340475D01*
X84095238Y-40302379D01*
X84209523Y-40302379D01*
X84285714Y-40340475D01*
X84323809Y-40378570D01*
X84361904Y-40454760D01*
X84361904Y-40759522D01*
X83561904Y-40759522D01*
X83561904Y-40492856D01*
X83600000Y-40416665D01*
X83638095Y-40378570D01*
X83714285Y-40340475D01*
X83790476Y-40340475D01*
X83866666Y-40378570D01*
X83904761Y-40416665D01*
X83942857Y-40492856D01*
X83942857Y-40759522D01*
X101828349Y-73686311D02*
X101828349Y-73740186D01*
X101774474Y-73847935D01*
X101720599Y-73901810D01*
X101612850Y-73955685D01*
X101505100Y-73955685D01*
X101424288Y-73928748D01*
X101289601Y-73847935D01*
X101208789Y-73767123D01*
X101127977Y-73632436D01*
X101101039Y-73551624D01*
X101101039Y-73443874D01*
X101154914Y-73336125D01*
X101208789Y-73282250D01*
X101316538Y-73228375D01*
X101370413Y-73228375D01*
X101505100Y-72985938D02*
X101855287Y-72635752D01*
X101882224Y-73039813D01*
X101963036Y-72959001D01*
X102043848Y-72932064D01*
X102097723Y-72932064D01*
X102178535Y-72959001D01*
X102313222Y-73093688D01*
X102340160Y-73174500D01*
X102340160Y-73228375D01*
X102313222Y-73309187D01*
X102151598Y-73470812D01*
X102070786Y-73497749D01*
X102016911Y-73497749D01*
X104940285Y-71645904D02*
X104940285Y-70845904D01*
X105206952Y-71417333D01*
X105473619Y-70845904D01*
X105473619Y-71645904D01*
X105816476Y-71417333D02*
X106197428Y-71417333D01*
X105740285Y-71645904D02*
X106006952Y-70845904D01*
X106273619Y-71645904D01*
X106426000Y-70845904D02*
X106883142Y-70845904D01*
X106654571Y-71645904D02*
X106654571Y-70845904D01*
X107606952Y-71645904D02*
X107340285Y-71264952D01*
X107149809Y-71645904D02*
X107149809Y-70845904D01*
X107454571Y-70845904D01*
X107530761Y-70884000D01*
X107568857Y-70922095D01*
X107606952Y-70998285D01*
X107606952Y-71112571D01*
X107568857Y-71188761D01*
X107530761Y-71226857D01*
X107454571Y-71264952D01*
X107149809Y-71264952D01*
X107949809Y-71645904D02*
X107949809Y-70845904D01*
X108254571Y-70845904D02*
X108787904Y-71645904D01*
X108787904Y-70845904D02*
X108254571Y-71645904D01*
X156273571Y-56494809D02*
X156387857Y-56532904D01*
X156578333Y-56532904D01*
X156654523Y-56494809D01*
X156692619Y-56456714D01*
X156730714Y-56380523D01*
X156730714Y-56304333D01*
X156692619Y-56228142D01*
X156654523Y-56190047D01*
X156578333Y-56151952D01*
X156425952Y-56113857D01*
X156349761Y-56075761D01*
X156311666Y-56037666D01*
X156273571Y-55961476D01*
X156273571Y-55885285D01*
X156311666Y-55809095D01*
X156349761Y-55771000D01*
X156425952Y-55732904D01*
X156616428Y-55732904D01*
X156730714Y-55771000D01*
X157073571Y-56532904D02*
X157073571Y-55732904D01*
X157264047Y-55732904D01*
X157378333Y-55771000D01*
X157454523Y-55847190D01*
X157492619Y-55923380D01*
X157530714Y-56075761D01*
X157530714Y-56190047D01*
X157492619Y-56342428D01*
X157454523Y-56418619D01*
X157378333Y-56494809D01*
X157264047Y-56532904D01*
X157073571Y-56532904D01*
X157835476Y-56304333D02*
X158216428Y-56304333D01*
X157759285Y-56532904D02*
X158025952Y-55732904D01*
X158292619Y-56532904D01*
X152116171Y-79718639D02*
X151550485Y-79152954D01*
X152143108Y-79368453D01*
X151927609Y-78775830D01*
X152493294Y-79341515D01*
X152304732Y-78398706D02*
X152412482Y-78290957D01*
X152493294Y-78264019D01*
X152601044Y-78264019D01*
X152735731Y-78344832D01*
X152924293Y-78533393D01*
X153005105Y-78668080D01*
X153005105Y-78775830D01*
X152978167Y-78856642D01*
X152870418Y-78964392D01*
X152789606Y-78991329D01*
X152681856Y-78991329D01*
X152547169Y-78910517D01*
X152358607Y-78721955D01*
X152277795Y-78587268D01*
X152277795Y-78479519D01*
X152304732Y-78398706D01*
X153301416Y-78479519D02*
X153409166Y-78425644D01*
X153543853Y-78290957D01*
X153570790Y-78210145D01*
X153570790Y-78156270D01*
X153543853Y-78075458D01*
X153489978Y-78021583D01*
X153409166Y-77994645D01*
X153355291Y-77994645D01*
X153274479Y-78021583D01*
X153139792Y-78102395D01*
X153058980Y-78129332D01*
X153005105Y-78129332D01*
X152924293Y-78102395D01*
X152870418Y-78048520D01*
X152843480Y-77967708D01*
X152843480Y-77913833D01*
X152870418Y-77833021D01*
X153005105Y-77698334D01*
X153112854Y-77644459D01*
X153894039Y-77940771D02*
X153328354Y-77375085D01*
X162504762Y-29041904D02*
X162123809Y-29041904D01*
X162085714Y-29422857D01*
X162123809Y-29384761D01*
X162200000Y-29346666D01*
X162390476Y-29346666D01*
X162466666Y-29384761D01*
X162504762Y-29422857D01*
X162542857Y-29499047D01*
X162542857Y-29689523D01*
X162504762Y-29765714D01*
X162466666Y-29803809D01*
X162390476Y-29841904D01*
X162200000Y-29841904D01*
X162123809Y-29803809D01*
X162085714Y-29765714D01*
X162771428Y-29041904D02*
X163038095Y-29841904D01*
X163304762Y-29041904D01*
X92163952Y-71607809D02*
X92278238Y-71645904D01*
X92468714Y-71645904D01*
X92544904Y-71607809D01*
X92583000Y-71569714D01*
X92621095Y-71493523D01*
X92621095Y-71417333D01*
X92583000Y-71341142D01*
X92544904Y-71303047D01*
X92468714Y-71264952D01*
X92316333Y-71226857D01*
X92240142Y-71188761D01*
X92202047Y-71150666D01*
X92163952Y-71074476D01*
X92163952Y-70998285D01*
X92202047Y-70922095D01*
X92240142Y-70884000D01*
X92316333Y-70845904D01*
X92506809Y-70845904D01*
X92621095Y-70884000D01*
X92963952Y-71645904D02*
X92963952Y-70845904D01*
X93268714Y-70845904D01*
X93344904Y-70884000D01*
X93383000Y-70922095D01*
X93421095Y-70998285D01*
X93421095Y-71112571D01*
X93383000Y-71188761D01*
X93344904Y-71226857D01*
X93268714Y-71264952D01*
X92963952Y-71264952D01*
X93763952Y-71645904D02*
X93763952Y-70845904D01*
X146941824Y-84029386D02*
X146483888Y-83948574D01*
X146618575Y-84352635D02*
X146052890Y-83786949D01*
X146268389Y-83571450D01*
X146349201Y-83544512D01*
X146403076Y-83544512D01*
X146483888Y-83571450D01*
X146564700Y-83652262D01*
X146591638Y-83733074D01*
X146591638Y-83786949D01*
X146564700Y-83867761D01*
X146349201Y-84083261D01*
X146645512Y-83302076D02*
X146645512Y-83248201D01*
X146672450Y-83167389D01*
X146807137Y-83032702D01*
X146887949Y-83005764D01*
X146941824Y-83005764D01*
X147022636Y-83032702D01*
X147076511Y-83086577D01*
X147130386Y-83194326D01*
X147130386Y-83840824D01*
X147480572Y-83490638D01*
X97624952Y-71607809D02*
X97739238Y-71645904D01*
X97929714Y-71645904D01*
X98005904Y-71607809D01*
X98044000Y-71569714D01*
X98082095Y-71493523D01*
X98082095Y-71417333D01*
X98044000Y-71341142D01*
X98005904Y-71303047D01*
X97929714Y-71264952D01*
X97777333Y-71226857D01*
X97701142Y-71188761D01*
X97663047Y-71150666D01*
X97624952Y-71074476D01*
X97624952Y-70998285D01*
X97663047Y-70922095D01*
X97701142Y-70884000D01*
X97777333Y-70845904D01*
X97967809Y-70845904D01*
X98082095Y-70884000D01*
X98424952Y-71645904D02*
X98424952Y-70845904D01*
X98729714Y-70845904D01*
X98805904Y-70884000D01*
X98844000Y-70922095D01*
X98882095Y-70998285D01*
X98882095Y-71112571D01*
X98844000Y-71188761D01*
X98805904Y-71226857D01*
X98729714Y-71264952D01*
X98424952Y-71264952D01*
X99224952Y-71645904D02*
X99224952Y-70845904D01*
X110259523Y-68411904D02*
X110754761Y-68411904D01*
X110488095Y-68716666D01*
X110602380Y-68716666D01*
X110678571Y-68754761D01*
X110716666Y-68792857D01*
X110754761Y-68869047D01*
X110754761Y-69059523D01*
X110716666Y-69135714D01*
X110678571Y-69173809D01*
X110602380Y-69211904D01*
X110373809Y-69211904D01*
X110297619Y-69173809D01*
X110259523Y-69135714D01*
X110983333Y-68411904D02*
X111250000Y-69211904D01*
X111516666Y-68411904D01*
X111707142Y-68411904D02*
X112202380Y-68411904D01*
X111935714Y-68716666D01*
X112050000Y-68716666D01*
X112126190Y-68754761D01*
X112164285Y-68792857D01*
X112202380Y-68869047D01*
X112202380Y-69059523D01*
X112164285Y-69135714D01*
X112126190Y-69173809D01*
X112050000Y-69211904D01*
X111821428Y-69211904D01*
X111745238Y-69173809D01*
X111707142Y-69135714D01*
X156292619Y-53954809D02*
X156406904Y-53992904D01*
X156597380Y-53992904D01*
X156673571Y-53954809D01*
X156711666Y-53916714D01*
X156749761Y-53840523D01*
X156749761Y-53764333D01*
X156711666Y-53688142D01*
X156673571Y-53650047D01*
X156597380Y-53611952D01*
X156445000Y-53573857D01*
X156368809Y-53535761D01*
X156330714Y-53497666D01*
X156292619Y-53421476D01*
X156292619Y-53345285D01*
X156330714Y-53269095D01*
X156368809Y-53231000D01*
X156445000Y-53192904D01*
X156635476Y-53192904D01*
X156749761Y-53231000D01*
X157549761Y-53916714D02*
X157511666Y-53954809D01*
X157397380Y-53992904D01*
X157321190Y-53992904D01*
X157206904Y-53954809D01*
X157130714Y-53878619D01*
X157092619Y-53802428D01*
X157054523Y-53650047D01*
X157054523Y-53535761D01*
X157092619Y-53383380D01*
X157130714Y-53307190D01*
X157206904Y-53231000D01*
X157321190Y-53192904D01*
X157397380Y-53192904D01*
X157511666Y-53231000D01*
X157549761Y-53269095D01*
X158273571Y-53992904D02*
X157892619Y-53992904D01*
X157892619Y-53192904D01*
X141328424Y-76359389D02*
X140870488Y-76278577D01*
X141005175Y-76682638D02*
X140439490Y-76116952D01*
X140654989Y-75901453D01*
X140735801Y-75874515D01*
X140789676Y-75874515D01*
X140870488Y-75901453D01*
X140951300Y-75982265D01*
X140978238Y-76063077D01*
X140978238Y-76116952D01*
X140951300Y-76197764D01*
X140735801Y-76413264D01*
X140951300Y-75605141D02*
X141301487Y-75254955D01*
X141328424Y-75659016D01*
X141409236Y-75578204D01*
X141490048Y-75551267D01*
X141543923Y-75551267D01*
X141624735Y-75578204D01*
X141759422Y-75712891D01*
X141786360Y-75793703D01*
X141786360Y-75847578D01*
X141759422Y-75928390D01*
X141597798Y-76090015D01*
X141516986Y-76116952D01*
X141463111Y-76116952D01*
X162771428Y-22803809D02*
X162885714Y-22841904D01*
X163076190Y-22841904D01*
X163152380Y-22803809D01*
X163190476Y-22765714D01*
X163228571Y-22689523D01*
X163228571Y-22613333D01*
X163190476Y-22537142D01*
X163152380Y-22499047D01*
X163076190Y-22460952D01*
X162923809Y-22422857D01*
X162847619Y-22384761D01*
X162809523Y-22346666D01*
X162771428Y-22270476D01*
X162771428Y-22194285D01*
X162809523Y-22118095D01*
X162847619Y-22080000D01*
X162923809Y-22041904D01*
X163114285Y-22041904D01*
X163228571Y-22080000D01*
D12*
X132449651Y-34003571D02*
X132449651Y-34717857D01*
X130949651Y-34717857D01*
X131663937Y-33503571D02*
X131663937Y-33003571D01*
X132449651Y-32789285D02*
X132449651Y-33503571D01*
X130949651Y-33503571D01*
X130949651Y-32789285D01*
X131663937Y-31646428D02*
X131663937Y-32146428D01*
X132449651Y-32146428D02*
X130949651Y-32146428D01*
X130949651Y-31432142D01*
X130949651Y-31075000D02*
X130949651Y-30217857D01*
X132449651Y-30646428D02*
X130949651Y-30646428D01*
D11*
X158127838Y-41129000D02*
X158051647Y-41090904D01*
X157937362Y-41090904D01*
X157823076Y-41129000D01*
X157746885Y-41205190D01*
X157708790Y-41281380D01*
X157670695Y-41433761D01*
X157670695Y-41548047D01*
X157708790Y-41700428D01*
X157746885Y-41776619D01*
X157823076Y-41852809D01*
X157937362Y-41890904D01*
X158013552Y-41890904D01*
X158127838Y-41852809D01*
X158165933Y-41814714D01*
X158165933Y-41548047D01*
X158013552Y-41548047D01*
X158508790Y-41890904D02*
X158508790Y-41090904D01*
X158965933Y-41890904D01*
X158965933Y-41090904D01*
X159346885Y-41890904D02*
X159346885Y-41090904D01*
X159537362Y-41090904D01*
X159651647Y-41129000D01*
X159727838Y-41205190D01*
X159765933Y-41281380D01*
X159804028Y-41433761D01*
X159804028Y-41548047D01*
X159765933Y-41700428D01*
X159727838Y-41776619D01*
X159651647Y-41852809D01*
X159537362Y-41890904D01*
X159346885Y-41890904D01*
X94947290Y-82287445D02*
X95055039Y-82233570D01*
X95189726Y-82098883D01*
X95216664Y-82018071D01*
X95216664Y-81964196D01*
X95189726Y-81883384D01*
X95135851Y-81829509D01*
X95055039Y-81802572D01*
X95001164Y-81802572D01*
X94920352Y-81829509D01*
X94785665Y-81910322D01*
X94704853Y-81937259D01*
X94650978Y-81937259D01*
X94570166Y-81910322D01*
X94516291Y-81856447D01*
X94489354Y-81775635D01*
X94489354Y-81721760D01*
X94516291Y-81640948D01*
X94650978Y-81506261D01*
X94758728Y-81452386D01*
X95809287Y-81371574D02*
X95809287Y-81425448D01*
X95755412Y-81533198D01*
X95701537Y-81587073D01*
X95593787Y-81640948D01*
X95486038Y-81640948D01*
X95405225Y-81614010D01*
X95270538Y-81533198D01*
X95189726Y-81452386D01*
X95108914Y-81317699D01*
X95081977Y-81236887D01*
X95081977Y-81129137D01*
X95135851Y-81021387D01*
X95189726Y-80967512D01*
X95297476Y-80913638D01*
X95351351Y-80913638D01*
X96374972Y-80913638D02*
X96105598Y-81183012D01*
X95539912Y-80617326D01*
X96563534Y-80725076D02*
X95997848Y-80159390D01*
X96886783Y-80401827D02*
X96321097Y-80321015D01*
X96321097Y-79836142D02*
X96321097Y-80482639D01*
X90211904Y-82999695D02*
X90211904Y-82542552D01*
X91011904Y-82771124D02*
X90211904Y-82771124D01*
X91011904Y-81818743D02*
X90630952Y-82085410D01*
X91011904Y-82275886D02*
X90211904Y-82275886D01*
X90211904Y-81971124D01*
X90250000Y-81894933D01*
X90288095Y-81856838D01*
X90364285Y-81818743D01*
X90478571Y-81818743D01*
X90554761Y-81856838D01*
X90592857Y-81894933D01*
X90630952Y-81971124D01*
X90630952Y-82275886D01*
X90783333Y-81513981D02*
X90783333Y-81133029D01*
X91011904Y-81590171D02*
X90211904Y-81323505D01*
X91011904Y-81056838D01*
X90935714Y-80333029D02*
X90973809Y-80371124D01*
X91011904Y-80485410D01*
X91011904Y-80561600D01*
X90973809Y-80675886D01*
X90897619Y-80752076D01*
X90821428Y-80790171D01*
X90669047Y-80828267D01*
X90554761Y-80828267D01*
X90402380Y-80790171D01*
X90326190Y-80752076D01*
X90250000Y-80675886D01*
X90211904Y-80561600D01*
X90211904Y-80485410D01*
X90250000Y-80371124D01*
X90288095Y-80333029D01*
X91011904Y-79990171D02*
X90211904Y-79990171D01*
X91011904Y-79533029D02*
X90554761Y-79875886D01*
X90211904Y-79533029D02*
X90669047Y-79990171D01*
X90592857Y-78923505D02*
X90630952Y-78809219D01*
X90669047Y-78771124D01*
X90745238Y-78733029D01*
X90859523Y-78733029D01*
X90935714Y-78771124D01*
X90973809Y-78809219D01*
X91011904Y-78885410D01*
X91011904Y-79190171D01*
X90211904Y-79190171D01*
X90211904Y-78923505D01*
X90250000Y-78847314D01*
X90288095Y-78809219D01*
X90364285Y-78771124D01*
X90440476Y-78771124D01*
X90516666Y-78809219D01*
X90554761Y-78847314D01*
X90592857Y-78923505D01*
X90592857Y-79190171D01*
X90783333Y-78428267D02*
X90783333Y-78047314D01*
X91011904Y-78504457D02*
X90211904Y-78237791D01*
X91011904Y-77971124D01*
X91011904Y-77323505D02*
X91011904Y-77704457D01*
X90211904Y-77704457D01*
X91011904Y-76675886D02*
X91011904Y-77056838D01*
X90211904Y-77056838D01*
X158127838Y-44441904D02*
X158127838Y-43641904D01*
X158318314Y-43641904D01*
X158432600Y-43680000D01*
X158508790Y-43756190D01*
X158546886Y-43832380D01*
X158584981Y-43984761D01*
X158584981Y-44099047D01*
X158546886Y-44251428D01*
X158508790Y-44327619D01*
X158432600Y-44403809D01*
X158318314Y-44441904D01*
X158127838Y-44441904D01*
X158927838Y-44441904D02*
X158927838Y-43641904D01*
X159308790Y-44441904D02*
X159308790Y-43641904D01*
X159765933Y-44441904D01*
X159765933Y-43641904D01*
X159080219Y-38561904D02*
X158699266Y-38561904D01*
X158661171Y-38942857D01*
X158699266Y-38904761D01*
X158775457Y-38866666D01*
X158965933Y-38866666D01*
X159042123Y-38904761D01*
X159080219Y-38942857D01*
X159118314Y-39019047D01*
X159118314Y-39209523D01*
X159080219Y-39285714D01*
X159042123Y-39323809D01*
X158965933Y-39361904D01*
X158775457Y-39361904D01*
X158699266Y-39323809D01*
X158661171Y-39285714D01*
X159346885Y-38561904D02*
X159613552Y-39361904D01*
X159880219Y-38561904D01*
X101882224Y-83900186D02*
X101424288Y-83819374D01*
X101558975Y-84223435D02*
X100993290Y-83657749D01*
X101208789Y-83442250D01*
X101289601Y-83415312D01*
X101343476Y-83415312D01*
X101424288Y-83442250D01*
X101505100Y-83523062D01*
X101532038Y-83603874D01*
X101532038Y-83657749D01*
X101505100Y-83738561D01*
X101289601Y-83954061D01*
X101585912Y-83172876D02*
X101585912Y-83119001D01*
X101612850Y-83038189D01*
X101747537Y-82903502D01*
X101828349Y-82876564D01*
X101882224Y-82876564D01*
X101963036Y-82903502D01*
X102016911Y-82957377D01*
X102070786Y-83065126D01*
X102070786Y-83711624D01*
X102420972Y-83361438D01*
X152191571Y-84798639D02*
X151625885Y-84232954D01*
X152218508Y-84448453D01*
X152003009Y-83855830D01*
X152568694Y-84421515D01*
X152838068Y-84152141D02*
X152272383Y-83586456D01*
X153053567Y-83882767D02*
X153161317Y-83828893D01*
X153296004Y-83694206D01*
X153322941Y-83613393D01*
X153322941Y-83559519D01*
X153296004Y-83478706D01*
X153242129Y-83424832D01*
X153161317Y-83397894D01*
X153107442Y-83397894D01*
X153026630Y-83424832D01*
X152891943Y-83505644D01*
X152811131Y-83532581D01*
X152757256Y-83532581D01*
X152676444Y-83505644D01*
X152622569Y-83451769D01*
X152595632Y-83370957D01*
X152595632Y-83317082D01*
X152622569Y-83236270D01*
X152757256Y-83101583D01*
X152865006Y-83047708D01*
X153188254Y-82670584D02*
X153296004Y-82562835D01*
X153376816Y-82535897D01*
X153484566Y-82535897D01*
X153619253Y-82616710D01*
X153807815Y-82805271D01*
X153888627Y-82939958D01*
X153888627Y-83047708D01*
X153861689Y-83128520D01*
X153753940Y-83236270D01*
X153673128Y-83263207D01*
X153565378Y-83263207D01*
X153430691Y-83182395D01*
X153242129Y-82993833D01*
X153161317Y-82859146D01*
X153161317Y-82751397D01*
X153188254Y-82670584D01*
X152035358Y-86341956D02*
X151954546Y-86368894D01*
X151873734Y-86449706D01*
X151819859Y-86557455D01*
X151819859Y-86665205D01*
X151846797Y-86746017D01*
X151927609Y-86880704D01*
X152008421Y-86961516D01*
X152143108Y-87042329D01*
X152223920Y-87069266D01*
X152331670Y-87069266D01*
X152439419Y-87015391D01*
X152493294Y-86961516D01*
X152547169Y-86853767D01*
X152547169Y-86799892D01*
X152358607Y-86611330D01*
X152250858Y-86719080D01*
X152843480Y-86611330D02*
X152277795Y-86045645D01*
X153166729Y-86288081D01*
X152601044Y-85722396D01*
X153436103Y-86018707D02*
X152870418Y-85453022D01*
X153005105Y-85318335D01*
X153112854Y-85264460D01*
X153220604Y-85264460D01*
X153301416Y-85291398D01*
X153436103Y-85372210D01*
X153516915Y-85453022D01*
X153597728Y-85587709D01*
X153624665Y-85668521D01*
X153624665Y-85776271D01*
X153570790Y-85884020D01*
X153436103Y-86018707D01*
X101828349Y-81306311D02*
X101828349Y-81360186D01*
X101774474Y-81467935D01*
X101720599Y-81521810D01*
X101612850Y-81575685D01*
X101505100Y-81575685D01*
X101424288Y-81548748D01*
X101289601Y-81467935D01*
X101208789Y-81387123D01*
X101127977Y-81252436D01*
X101101039Y-81171624D01*
X101101039Y-81063874D01*
X101154914Y-80956125D01*
X101208789Y-80902250D01*
X101316538Y-80848375D01*
X101370413Y-80848375D01*
X102420972Y-80821438D02*
X102097723Y-81144687D01*
X102259348Y-80983062D02*
X101693662Y-80417377D01*
X101720600Y-80552064D01*
X101720600Y-80659813D01*
X101693662Y-80740625D01*
X164318904Y-42208380D02*
X163937952Y-42475047D01*
X164318904Y-42665523D02*
X163518904Y-42665523D01*
X163518904Y-42360761D01*
X163557000Y-42284571D01*
X163595095Y-42246476D01*
X163671285Y-42208380D01*
X163785571Y-42208380D01*
X163861761Y-42246476D01*
X163899857Y-42284571D01*
X163937952Y-42360761D01*
X163937952Y-42665523D01*
X163557000Y-41446476D02*
X163518904Y-41522666D01*
X163518904Y-41636952D01*
X163557000Y-41751238D01*
X163633190Y-41827428D01*
X163709380Y-41865523D01*
X163861761Y-41903619D01*
X163976047Y-41903619D01*
X164128428Y-41865523D01*
X164204619Y-41827428D01*
X164280809Y-41751238D01*
X164318904Y-41636952D01*
X164318904Y-41560761D01*
X164280809Y-41446476D01*
X164242714Y-41408380D01*
X163976047Y-41408380D01*
X163976047Y-41560761D01*
X163899857Y-40798857D02*
X163937952Y-40684571D01*
X163976047Y-40646476D01*
X164052238Y-40608380D01*
X164166523Y-40608380D01*
X164242714Y-40646476D01*
X164280809Y-40684571D01*
X164318904Y-40760761D01*
X164318904Y-41065523D01*
X163518904Y-41065523D01*
X163518904Y-40798857D01*
X163557000Y-40722666D01*
X163595095Y-40684571D01*
X163671285Y-40646476D01*
X163747476Y-40646476D01*
X163823666Y-40684571D01*
X163861761Y-40722666D01*
X163899857Y-40798857D01*
X163899857Y-41065523D01*
X84552380Y-33573809D02*
X84666666Y-33611904D01*
X84857142Y-33611904D01*
X84933333Y-33573809D01*
X84971428Y-33535714D01*
X85009523Y-33459523D01*
X85009523Y-33383333D01*
X84971428Y-33307142D01*
X84933333Y-33269047D01*
X84857142Y-33230952D01*
X84704761Y-33192857D01*
X84628571Y-33154761D01*
X84590476Y-33116666D01*
X84552380Y-33040476D01*
X84552380Y-32964285D01*
X84590476Y-32888095D01*
X84628571Y-32850000D01*
X84704761Y-32811904D01*
X84895238Y-32811904D01*
X85009523Y-32850000D01*
X85352380Y-33192857D02*
X85619047Y-33192857D01*
X85733333Y-33611904D02*
X85352380Y-33611904D01*
X85352380Y-32811904D01*
X85733333Y-32811904D01*
X86533333Y-33611904D02*
X86266666Y-33230952D01*
X86076190Y-33611904D02*
X86076190Y-32811904D01*
X86380952Y-32811904D01*
X86457142Y-32850000D01*
X86495238Y-32888095D01*
X86533333Y-32964285D01*
X86533333Y-33078571D01*
X86495238Y-33154761D01*
X86457142Y-33192857D01*
X86380952Y-33230952D01*
X86076190Y-33230952D01*
X86876190Y-33611904D02*
X86876190Y-32811904D01*
X87219047Y-33383333D02*
X87600000Y-33383333D01*
X87142857Y-33611904D02*
X87409523Y-32811904D01*
X87676190Y-33611904D01*
X88323809Y-33611904D02*
X87942857Y-33611904D01*
X87942857Y-32811904D01*
X152331670Y-73291770D02*
X152062296Y-73561144D01*
X152304732Y-73857455D01*
X152304732Y-73803581D01*
X152331670Y-73722768D01*
X152466357Y-73588081D01*
X152547169Y-73561144D01*
X152601044Y-73561144D01*
X152681856Y-73588081D01*
X152816543Y-73722768D01*
X152843480Y-73803581D01*
X152843480Y-73857455D01*
X152816543Y-73938268D01*
X152681856Y-74072955D01*
X152601044Y-74099892D01*
X152547169Y-74099892D01*
X152520232Y-73103208D02*
X153274479Y-73480332D01*
X152897355Y-72726085D01*
X107314749Y-83971220D02*
X107314749Y-84025095D01*
X107260874Y-84132844D01*
X107206999Y-84186719D01*
X107099250Y-84240594D01*
X106991500Y-84240594D01*
X106910688Y-84213657D01*
X106776001Y-84132844D01*
X106695189Y-84052032D01*
X106614377Y-83917345D01*
X106587439Y-83836533D01*
X106587439Y-83728783D01*
X106641314Y-83621034D01*
X106695189Y-83567159D01*
X106802938Y-83513284D01*
X106856813Y-83513284D01*
X107287812Y-82974536D02*
X107180062Y-83082286D01*
X107153125Y-83163098D01*
X107153125Y-83216973D01*
X107180062Y-83351660D01*
X107260874Y-83486347D01*
X107476374Y-83701846D01*
X107557186Y-83728783D01*
X107611061Y-83728783D01*
X107691873Y-83701846D01*
X107799622Y-83594096D01*
X107826560Y-83513284D01*
X107826560Y-83459409D01*
X107799622Y-83378597D01*
X107664935Y-83243910D01*
X107584123Y-83216973D01*
X107530248Y-83216973D01*
X107449436Y-83243910D01*
X107341687Y-83351660D01*
X107314749Y-83432472D01*
X107314749Y-83486347D01*
X107341687Y-83567159D01*
X152856949Y-76330112D02*
X152856949Y-76383987D01*
X152803074Y-76491736D01*
X152749200Y-76545611D01*
X152641450Y-76599486D01*
X152533700Y-76599486D01*
X152452888Y-76572549D01*
X152318201Y-76491736D01*
X152237389Y-76410924D01*
X152156577Y-76276237D01*
X152129639Y-76195425D01*
X152129639Y-76087675D01*
X152183514Y-75979926D01*
X152237389Y-75926051D01*
X152345138Y-75872176D01*
X152399013Y-75872176D01*
X153099386Y-76141550D02*
X153207135Y-76087675D01*
X153341822Y-75952988D01*
X153368760Y-75872176D01*
X153368760Y-75818301D01*
X153341822Y-75737489D01*
X153287948Y-75683614D01*
X153207135Y-75656677D01*
X153153261Y-75656677D01*
X153072448Y-75683614D01*
X152937761Y-75764426D01*
X152856949Y-75791364D01*
X152803074Y-75791364D01*
X152722262Y-75764426D01*
X152668387Y-75710552D01*
X152641450Y-75629739D01*
X152641450Y-75575865D01*
X152668387Y-75495052D01*
X152803074Y-75360365D01*
X152910824Y-75306491D01*
X95207070Y-73280170D02*
X94937696Y-73549544D01*
X95180132Y-73845855D01*
X95180132Y-73791981D01*
X95207070Y-73711168D01*
X95341757Y-73576481D01*
X95422569Y-73549544D01*
X95476444Y-73549544D01*
X95557256Y-73576481D01*
X95691943Y-73711168D01*
X95718880Y-73791981D01*
X95718880Y-73845855D01*
X95691943Y-73926668D01*
X95557256Y-74061355D01*
X95476444Y-74088292D01*
X95422569Y-74088292D01*
X95395632Y-73091608D02*
X96149879Y-73468732D01*
X95772755Y-72714485D01*
X86636715Y-29041904D02*
X86255762Y-29041904D01*
X86217667Y-29422857D01*
X86255762Y-29384761D01*
X86331953Y-29346666D01*
X86522429Y-29346666D01*
X86598619Y-29384761D01*
X86636715Y-29422857D01*
X86674810Y-29499047D01*
X86674810Y-29689523D01*
X86636715Y-29765714D01*
X86598619Y-29803809D01*
X86522429Y-29841904D01*
X86331953Y-29841904D01*
X86255762Y-29803809D01*
X86217667Y-29765714D01*
X86903381Y-29041904D02*
X87170048Y-29841904D01*
X87436715Y-29041904D01*
X107314749Y-78891220D02*
X107314749Y-78945095D01*
X107260874Y-79052844D01*
X107206999Y-79106719D01*
X107099250Y-79160594D01*
X106991500Y-79160594D01*
X106910688Y-79133657D01*
X106776001Y-79052844D01*
X106695189Y-78972032D01*
X106614377Y-78837345D01*
X106587439Y-78756533D01*
X106587439Y-78648783D01*
X106641314Y-78541034D01*
X106695189Y-78487159D01*
X106802938Y-78433284D01*
X106856813Y-78433284D01*
X107476374Y-78083098D02*
X107853497Y-78460221D01*
X107126187Y-78002286D02*
X107395561Y-78541034D01*
X107745748Y-78190847D01*
X141274549Y-83925514D02*
X141274549Y-83979389D01*
X141220674Y-84087138D01*
X141166800Y-84141013D01*
X141059050Y-84194888D01*
X140951300Y-84194888D01*
X140870488Y-84167951D01*
X140735801Y-84087138D01*
X140654989Y-84006326D01*
X140574177Y-83871639D01*
X140547239Y-83790827D01*
X140547239Y-83683077D01*
X140601114Y-83575328D01*
X140654989Y-83521453D01*
X140762738Y-83467578D01*
X140816613Y-83467578D01*
X141247612Y-82928830D02*
X141139862Y-83036580D01*
X141112925Y-83117392D01*
X141112925Y-83171267D01*
X141139862Y-83305954D01*
X141220674Y-83440641D01*
X141436174Y-83656140D01*
X141516986Y-83683077D01*
X141570861Y-83683077D01*
X141651673Y-83656140D01*
X141759422Y-83548390D01*
X141786360Y-83467578D01*
X141786360Y-83413703D01*
X141759422Y-83332891D01*
X141624735Y-83198204D01*
X141543923Y-83171267D01*
X141490048Y-83171267D01*
X141409236Y-83198204D01*
X141301487Y-83305954D01*
X141274549Y-83386766D01*
X141274549Y-83440641D01*
X141301487Y-83521453D01*
D12*
X117231457Y-34919271D02*
X116517171Y-35419271D01*
X117231457Y-35776413D02*
X115731457Y-35776413D01*
X115731457Y-35204985D01*
X115802886Y-35062128D01*
X115874314Y-34990699D01*
X116017171Y-34919271D01*
X116231457Y-34919271D01*
X116374314Y-34990699D01*
X116445743Y-35062128D01*
X116517171Y-35204985D01*
X116517171Y-35776413D01*
X117231457Y-34276413D02*
X115731457Y-34276413D01*
X115802886Y-32776413D02*
X115731457Y-32919271D01*
X115731457Y-33133556D01*
X115802886Y-33347842D01*
X115945743Y-33490699D01*
X116088600Y-33562128D01*
X116374314Y-33633556D01*
X116588600Y-33633556D01*
X116874314Y-33562128D01*
X117017171Y-33490699D01*
X117160028Y-33347842D01*
X117231457Y-33133556D01*
X117231457Y-32990699D01*
X117160028Y-32776413D01*
X117088600Y-32704985D01*
X116588600Y-32704985D01*
X116588600Y-32990699D01*
X117231457Y-32062128D02*
X115731457Y-32062128D01*
X116445743Y-32062128D02*
X116445743Y-31204985D01*
X117231457Y-31204985D02*
X115731457Y-31204985D01*
X115731457Y-30704985D02*
X115731457Y-29847842D01*
X117231457Y-30276413D02*
X115731457Y-30276413D01*
D11*
X110191619Y-53954809D02*
X110305904Y-53992904D01*
X110496380Y-53992904D01*
X110572571Y-53954809D01*
X110610666Y-53916714D01*
X110648761Y-53840523D01*
X110648761Y-53764333D01*
X110610666Y-53688142D01*
X110572571Y-53650047D01*
X110496380Y-53611952D01*
X110344000Y-53573857D01*
X110267809Y-53535761D01*
X110229714Y-53497666D01*
X110191619Y-53421476D01*
X110191619Y-53345285D01*
X110229714Y-53269095D01*
X110267809Y-53231000D01*
X110344000Y-53192904D01*
X110534476Y-53192904D01*
X110648761Y-53231000D01*
X111448761Y-53916714D02*
X111410666Y-53954809D01*
X111296380Y-53992904D01*
X111220190Y-53992904D01*
X111105904Y-53954809D01*
X111029714Y-53878619D01*
X110991619Y-53802428D01*
X110953523Y-53650047D01*
X110953523Y-53535761D01*
X110991619Y-53383380D01*
X111029714Y-53307190D01*
X111105904Y-53231000D01*
X111220190Y-53192904D01*
X111296380Y-53192904D01*
X111410666Y-53231000D01*
X111448761Y-53269095D01*
X112172571Y-53992904D02*
X111791619Y-53992904D01*
X111791619Y-53192904D01*
X146941824Y-76409386D02*
X146483888Y-76328574D01*
X146618575Y-76732635D02*
X146052890Y-76166949D01*
X146268389Y-75951450D01*
X146349201Y-75924512D01*
X146403076Y-75924512D01*
X146483888Y-75951450D01*
X146564700Y-76032262D01*
X146591638Y-76113074D01*
X146591638Y-76166949D01*
X146564700Y-76247761D01*
X146349201Y-76463261D01*
X147480572Y-75870638D02*
X147157323Y-76193887D01*
X147318948Y-76032262D02*
X146753262Y-75466577D01*
X146780200Y-75601264D01*
X146780200Y-75709013D01*
X146753262Y-75789825D01*
X156235523Y-68361904D02*
X156730761Y-68361904D01*
X156464095Y-68666666D01*
X156578380Y-68666666D01*
X156654571Y-68704761D01*
X156692666Y-68742857D01*
X156730761Y-68819047D01*
X156730761Y-69009523D01*
X156692666Y-69085714D01*
X156654571Y-69123809D01*
X156578380Y-69161904D01*
X156349809Y-69161904D01*
X156273619Y-69123809D01*
X156235523Y-69085714D01*
X156959333Y-68361904D02*
X157226000Y-69161904D01*
X157492666Y-68361904D01*
X157683142Y-68361904D02*
X158178380Y-68361904D01*
X157911714Y-68666666D01*
X158026000Y-68666666D01*
X158102190Y-68704761D01*
X158140285Y-68742857D01*
X158178380Y-68819047D01*
X158178380Y-69009523D01*
X158140285Y-69085714D01*
X158102190Y-69123809D01*
X158026000Y-69161904D01*
X157797428Y-69161904D01*
X157721238Y-69123809D01*
X157683142Y-69085714D01*
X88435714Y-41129000D02*
X88359523Y-41090904D01*
X88245238Y-41090904D01*
X88130952Y-41129000D01*
X88054761Y-41205190D01*
X88016666Y-41281380D01*
X87978571Y-41433761D01*
X87978571Y-41548047D01*
X88016666Y-41700428D01*
X88054761Y-41776619D01*
X88130952Y-41852809D01*
X88245238Y-41890904D01*
X88321428Y-41890904D01*
X88435714Y-41852809D01*
X88473809Y-41814714D01*
X88473809Y-41548047D01*
X88321428Y-41548047D01*
X88816666Y-41890904D02*
X88816666Y-41090904D01*
X89273809Y-41890904D01*
X89273809Y-41090904D01*
X89654761Y-41890904D02*
X89654761Y-41090904D01*
X89845238Y-41090904D01*
X89959523Y-41129000D01*
X90035714Y-41205190D01*
X90073809Y-41281380D01*
X90111904Y-41433761D01*
X90111904Y-41548047D01*
X90073809Y-41700428D01*
X90035714Y-41776619D01*
X89959523Y-41852809D01*
X89845238Y-41890904D01*
X89654761Y-41890904D01*
X90517333Y-68411904D02*
X90784000Y-69211904D01*
X91050666Y-68411904D01*
X91584000Y-68792857D02*
X91698285Y-68830952D01*
X91736380Y-68869047D01*
X91774476Y-68945238D01*
X91774476Y-69059523D01*
X91736380Y-69135714D01*
X91698285Y-69173809D01*
X91622095Y-69211904D01*
X91317333Y-69211904D01*
X91317333Y-68411904D01*
X91584000Y-68411904D01*
X91660190Y-68450000D01*
X91698285Y-68488095D01*
X91736380Y-68564285D01*
X91736380Y-68640476D01*
X91698285Y-68716666D01*
X91660190Y-68754761D01*
X91584000Y-68792857D01*
X91317333Y-68792857D01*
X134150000Y-42071429D02*
X134111904Y-42147619D01*
X134111904Y-42261905D01*
X134150000Y-42376191D01*
X134226190Y-42452381D01*
X134302380Y-42490477D01*
X134454761Y-42528572D01*
X134569047Y-42528572D01*
X134721428Y-42490477D01*
X134797619Y-42452381D01*
X134873809Y-42376191D01*
X134911904Y-42261905D01*
X134911904Y-42185715D01*
X134873809Y-42071429D01*
X134835714Y-42033334D01*
X134569047Y-42033334D01*
X134569047Y-42185715D01*
X134911904Y-41690477D02*
X134111904Y-41690477D01*
X134111904Y-41423810D02*
X134111904Y-40966667D01*
X134911904Y-41195238D02*
X134111904Y-41195238D01*
X134911904Y-40700000D02*
X134111904Y-40700000D01*
X134492857Y-40700000D02*
X134492857Y-40242857D01*
X134911904Y-40242857D02*
X134111904Y-40242857D01*
X134111904Y-39861905D02*
X134759523Y-39861905D01*
X134835714Y-39823810D01*
X134873809Y-39785715D01*
X134911904Y-39709524D01*
X134911904Y-39557143D01*
X134873809Y-39480953D01*
X134835714Y-39442857D01*
X134759523Y-39404762D01*
X134111904Y-39404762D01*
X134492857Y-38757143D02*
X134530952Y-38642857D01*
X134569047Y-38604762D01*
X134645238Y-38566667D01*
X134759523Y-38566667D01*
X134835714Y-38604762D01*
X134873809Y-38642857D01*
X134911904Y-38719048D01*
X134911904Y-39023810D01*
X134111904Y-39023810D01*
X134111904Y-38757143D01*
X134150000Y-38680953D01*
X134188095Y-38642857D01*
X134264285Y-38604762D01*
X134340476Y-38604762D01*
X134416666Y-38642857D01*
X134454761Y-38680953D01*
X134492857Y-38757143D01*
X134492857Y-39023810D01*
X134835714Y-38223810D02*
X134873809Y-38185715D01*
X134911904Y-38223810D01*
X134873809Y-38261905D01*
X134835714Y-38223810D01*
X134911904Y-38223810D01*
X134835714Y-37385715D02*
X134873809Y-37423810D01*
X134911904Y-37538096D01*
X134911904Y-37614286D01*
X134873809Y-37728572D01*
X134797619Y-37804762D01*
X134721428Y-37842857D01*
X134569047Y-37880953D01*
X134454761Y-37880953D01*
X134302380Y-37842857D01*
X134226190Y-37804762D01*
X134150000Y-37728572D01*
X134111904Y-37614286D01*
X134111904Y-37538096D01*
X134150000Y-37423810D01*
X134188095Y-37385715D01*
X134111904Y-36890477D02*
X134111904Y-36738096D01*
X134150000Y-36661905D01*
X134226190Y-36585715D01*
X134378571Y-36547619D01*
X134645238Y-36547619D01*
X134797619Y-36585715D01*
X134873809Y-36661905D01*
X134911904Y-36738096D01*
X134911904Y-36890477D01*
X134873809Y-36966667D01*
X134797619Y-37042857D01*
X134645238Y-37080953D01*
X134378571Y-37080953D01*
X134226190Y-37042857D01*
X134150000Y-36966667D01*
X134111904Y-36890477D01*
X134911904Y-36204762D02*
X134111904Y-36204762D01*
X134683333Y-35938096D01*
X134111904Y-35671429D01*
X134911904Y-35671429D01*
X134073809Y-34719048D02*
X135102380Y-35404762D01*
X134492857Y-34185715D02*
X134530952Y-34071429D01*
X134569047Y-34033334D01*
X134645238Y-33995238D01*
X134759523Y-33995238D01*
X134835714Y-34033334D01*
X134873809Y-34071429D01*
X134911904Y-34147619D01*
X134911904Y-34452381D01*
X134111904Y-34452381D01*
X134111904Y-34185715D01*
X134150000Y-34109524D01*
X134188095Y-34071429D01*
X134264285Y-34033334D01*
X134340476Y-34033334D01*
X134416666Y-34071429D01*
X134454761Y-34109524D01*
X134492857Y-34185715D01*
X134492857Y-34452381D01*
X134683333Y-33690477D02*
X134683333Y-33309524D01*
X134911904Y-33766667D02*
X134111904Y-33500000D01*
X134911904Y-33233334D01*
X134873809Y-33004762D02*
X134911904Y-32890477D01*
X134911904Y-32700000D01*
X134873809Y-32623810D01*
X134835714Y-32585715D01*
X134759523Y-32547619D01*
X134683333Y-32547619D01*
X134607142Y-32585715D01*
X134569047Y-32623810D01*
X134530952Y-32700000D01*
X134492857Y-32852381D01*
X134454761Y-32928572D01*
X134416666Y-32966667D01*
X134340476Y-33004762D01*
X134264285Y-33004762D01*
X134188095Y-32966667D01*
X134150000Y-32928572D01*
X134111904Y-32852381D01*
X134111904Y-32661905D01*
X134150000Y-32547619D01*
X134111904Y-32319048D02*
X134111904Y-31861905D01*
X134911904Y-32090477D02*
X134111904Y-32090477D01*
X134683333Y-31633334D02*
X134683333Y-31252381D01*
X134911904Y-31709524D02*
X134111904Y-31442857D01*
X134911904Y-31176191D01*
X134911904Y-30452381D02*
X134530952Y-30719048D01*
X134911904Y-30909524D02*
X134111904Y-30909524D01*
X134111904Y-30604762D01*
X134150000Y-30528572D01*
X134188095Y-30490477D01*
X134264285Y-30452381D01*
X134378571Y-30452381D01*
X134454761Y-30490477D01*
X134492857Y-30528572D01*
X134530952Y-30604762D01*
X134530952Y-30909524D01*
X134911904Y-30109524D02*
X134111904Y-30109524D01*
X134111904Y-29919048D01*
X134150000Y-29804762D01*
X134226190Y-29728572D01*
X134302380Y-29690477D01*
X134454761Y-29652381D01*
X134569047Y-29652381D01*
X134721428Y-29690477D01*
X134797619Y-29728572D01*
X134873809Y-29804762D01*
X134911904Y-29919048D01*
X134911904Y-30109524D01*
X134911904Y-29309524D02*
X134111904Y-29309524D01*
X134911904Y-28852381D02*
X134454761Y-29195238D01*
X134111904Y-28852381D02*
X134569047Y-29309524D01*
X134492857Y-28242857D02*
X134530952Y-28128572D01*
X134569047Y-28090477D01*
X134645238Y-28052381D01*
X134759523Y-28052381D01*
X134835714Y-28090477D01*
X134873809Y-28128572D01*
X134911904Y-28204762D01*
X134911904Y-28509524D01*
X134111904Y-28509524D01*
X134111904Y-28242857D01*
X134150000Y-28166667D01*
X134188095Y-28128572D01*
X134264285Y-28090477D01*
X134340476Y-28090477D01*
X134416666Y-28128572D01*
X134454761Y-28166667D01*
X134492857Y-28242857D01*
X134492857Y-28509524D01*
X88397619Y-38561904D02*
X88016666Y-38561904D01*
X87978571Y-38942857D01*
X88016666Y-38904761D01*
X88092857Y-38866666D01*
X88283333Y-38866666D01*
X88359523Y-38904761D01*
X88397619Y-38942857D01*
X88435714Y-39019047D01*
X88435714Y-39209523D01*
X88397619Y-39285714D01*
X88359523Y-39323809D01*
X88283333Y-39361904D01*
X88092857Y-39361904D01*
X88016666Y-39323809D01*
X87978571Y-39285714D01*
X88664285Y-38561904D02*
X88930952Y-39361904D01*
X89197619Y-38561904D01*
X94910758Y-86330356D02*
X94829946Y-86357294D01*
X94749134Y-86438106D01*
X94695259Y-86545855D01*
X94695259Y-86653605D01*
X94722197Y-86734417D01*
X94803009Y-86869104D01*
X94883821Y-86949916D01*
X95018508Y-87030729D01*
X95099320Y-87057666D01*
X95207070Y-87057666D01*
X95314819Y-87003791D01*
X95368694Y-86949916D01*
X95422569Y-86842167D01*
X95422569Y-86788292D01*
X95234007Y-86599730D01*
X95126258Y-86707480D01*
X95718880Y-86599730D02*
X95153195Y-86034045D01*
X96042129Y-86276481D01*
X95476444Y-85710796D01*
X96311503Y-86007107D02*
X95745818Y-85441422D01*
X95880505Y-85306735D01*
X95988254Y-85252860D01*
X96096004Y-85252860D01*
X96176816Y-85279798D01*
X96311503Y-85360610D01*
X96392315Y-85441422D01*
X96473128Y-85576109D01*
X96500065Y-85656921D01*
X96500065Y-85764671D01*
X96446190Y-85872420D01*
X96311503Y-86007107D01*
X146887949Y-73815511D02*
X146887949Y-73869386D01*
X146834074Y-73977135D01*
X146780200Y-74031010D01*
X146672450Y-74084885D01*
X146564700Y-74084885D01*
X146483888Y-74057948D01*
X146349201Y-73977135D01*
X146268389Y-73896323D01*
X146187577Y-73761636D01*
X146160639Y-73680824D01*
X146160639Y-73573074D01*
X146214514Y-73465325D01*
X146268389Y-73411450D01*
X146376138Y-73357575D01*
X146430013Y-73357575D01*
X146564700Y-73115138D02*
X146914887Y-72764952D01*
X146941824Y-73169013D01*
X147022636Y-73088201D01*
X147103448Y-73061264D01*
X147157323Y-73061264D01*
X147238135Y-73088201D01*
X147372822Y-73222888D01*
X147399760Y-73303700D01*
X147399760Y-73357575D01*
X147372822Y-73438387D01*
X147211198Y-73600012D01*
X147130386Y-73626949D01*
X147076511Y-73626949D01*
X111800000Y-42071429D02*
X111761904Y-42147619D01*
X111761904Y-42261905D01*
X111800000Y-42376191D01*
X111876190Y-42452381D01*
X111952380Y-42490477D01*
X112104761Y-42528572D01*
X112219047Y-42528572D01*
X112371428Y-42490477D01*
X112447619Y-42452381D01*
X112523809Y-42376191D01*
X112561904Y-42261905D01*
X112561904Y-42185715D01*
X112523809Y-42071429D01*
X112485714Y-42033334D01*
X112219047Y-42033334D01*
X112219047Y-42185715D01*
X112561904Y-41690477D02*
X111761904Y-41690477D01*
X111761904Y-41423810D02*
X111761904Y-40966667D01*
X112561904Y-41195238D02*
X111761904Y-41195238D01*
X112561904Y-40700000D02*
X111761904Y-40700000D01*
X112142857Y-40700000D02*
X112142857Y-40242857D01*
X112561904Y-40242857D02*
X111761904Y-40242857D01*
X111761904Y-39861905D02*
X112409523Y-39861905D01*
X112485714Y-39823810D01*
X112523809Y-39785715D01*
X112561904Y-39709524D01*
X112561904Y-39557143D01*
X112523809Y-39480953D01*
X112485714Y-39442857D01*
X112409523Y-39404762D01*
X111761904Y-39404762D01*
X112142857Y-38757143D02*
X112180952Y-38642857D01*
X112219047Y-38604762D01*
X112295238Y-38566667D01*
X112409523Y-38566667D01*
X112485714Y-38604762D01*
X112523809Y-38642857D01*
X112561904Y-38719048D01*
X112561904Y-39023810D01*
X111761904Y-39023810D01*
X111761904Y-38757143D01*
X111800000Y-38680953D01*
X111838095Y-38642857D01*
X111914285Y-38604762D01*
X111990476Y-38604762D01*
X112066666Y-38642857D01*
X112104761Y-38680953D01*
X112142857Y-38757143D01*
X112142857Y-39023810D01*
X112485714Y-38223810D02*
X112523809Y-38185715D01*
X112561904Y-38223810D01*
X112523809Y-38261905D01*
X112485714Y-38223810D01*
X112561904Y-38223810D01*
X112485714Y-37385715D02*
X112523809Y-37423810D01*
X112561904Y-37538096D01*
X112561904Y-37614286D01*
X112523809Y-37728572D01*
X112447619Y-37804762D01*
X112371428Y-37842857D01*
X112219047Y-37880953D01*
X112104761Y-37880953D01*
X111952380Y-37842857D01*
X111876190Y-37804762D01*
X111800000Y-37728572D01*
X111761904Y-37614286D01*
X111761904Y-37538096D01*
X111800000Y-37423810D01*
X111838095Y-37385715D01*
X111761904Y-36890477D02*
X111761904Y-36738096D01*
X111800000Y-36661905D01*
X111876190Y-36585715D01*
X112028571Y-36547619D01*
X112295238Y-36547619D01*
X112447619Y-36585715D01*
X112523809Y-36661905D01*
X112561904Y-36738096D01*
X112561904Y-36890477D01*
X112523809Y-36966667D01*
X112447619Y-37042857D01*
X112295238Y-37080953D01*
X112028571Y-37080953D01*
X111876190Y-37042857D01*
X111800000Y-36966667D01*
X111761904Y-36890477D01*
X112561904Y-36204762D02*
X111761904Y-36204762D01*
X112333333Y-35938096D01*
X111761904Y-35671429D01*
X112561904Y-35671429D01*
X111723809Y-34719048D02*
X112752380Y-35404762D01*
X112142857Y-34185715D02*
X112180952Y-34071429D01*
X112219047Y-34033334D01*
X112295238Y-33995238D01*
X112409523Y-33995238D01*
X112485714Y-34033334D01*
X112523809Y-34071429D01*
X112561904Y-34147619D01*
X112561904Y-34452381D01*
X111761904Y-34452381D01*
X111761904Y-34185715D01*
X111800000Y-34109524D01*
X111838095Y-34071429D01*
X111914285Y-34033334D01*
X111990476Y-34033334D01*
X112066666Y-34071429D01*
X112104761Y-34109524D01*
X112142857Y-34185715D01*
X112142857Y-34452381D01*
X112333333Y-33690477D02*
X112333333Y-33309524D01*
X112561904Y-33766667D02*
X111761904Y-33500000D01*
X112561904Y-33233334D01*
X112523809Y-33004762D02*
X112561904Y-32890477D01*
X112561904Y-32700000D01*
X112523809Y-32623810D01*
X112485714Y-32585715D01*
X112409523Y-32547619D01*
X112333333Y-32547619D01*
X112257142Y-32585715D01*
X112219047Y-32623810D01*
X112180952Y-32700000D01*
X112142857Y-32852381D01*
X112104761Y-32928572D01*
X112066666Y-32966667D01*
X111990476Y-33004762D01*
X111914285Y-33004762D01*
X111838095Y-32966667D01*
X111800000Y-32928572D01*
X111761904Y-32852381D01*
X111761904Y-32661905D01*
X111800000Y-32547619D01*
X111761904Y-32319048D02*
X111761904Y-31861905D01*
X112561904Y-32090477D02*
X111761904Y-32090477D01*
X112333333Y-31633334D02*
X112333333Y-31252381D01*
X112561904Y-31709524D02*
X111761904Y-31442857D01*
X112561904Y-31176191D01*
X112561904Y-30452381D02*
X112180952Y-30719048D01*
X112561904Y-30909524D02*
X111761904Y-30909524D01*
X111761904Y-30604762D01*
X111800000Y-30528572D01*
X111838095Y-30490477D01*
X111914285Y-30452381D01*
X112028571Y-30452381D01*
X112104761Y-30490477D01*
X112142857Y-30528572D01*
X112180952Y-30604762D01*
X112180952Y-30909524D01*
X112561904Y-30109524D02*
X111761904Y-30109524D01*
X111761904Y-29919048D01*
X111800000Y-29804762D01*
X111876190Y-29728572D01*
X111952380Y-29690477D01*
X112104761Y-29652381D01*
X112219047Y-29652381D01*
X112371428Y-29690477D01*
X112447619Y-29728572D01*
X112523809Y-29804762D01*
X112561904Y-29919048D01*
X112561904Y-30109524D01*
X112561904Y-29309524D02*
X111761904Y-29309524D01*
X112561904Y-28852381D02*
X112104761Y-29195238D01*
X111761904Y-28852381D02*
X112219047Y-29309524D01*
X112142857Y-28242857D02*
X112180952Y-28128572D01*
X112219047Y-28090477D01*
X112295238Y-28052381D01*
X112409523Y-28052381D01*
X112485714Y-28090477D01*
X112523809Y-28128572D01*
X112561904Y-28204762D01*
X112561904Y-28509524D01*
X111761904Y-28509524D01*
X111761904Y-28242857D01*
X111800000Y-28166667D01*
X111838095Y-28128572D01*
X111914285Y-28090477D01*
X111990476Y-28090477D01*
X112066666Y-28128572D01*
X112104761Y-28166667D01*
X112142857Y-28242857D01*
X112142857Y-28509524D01*
X107314749Y-81431220D02*
X107314749Y-81485095D01*
X107260874Y-81592844D01*
X107206999Y-81646719D01*
X107099250Y-81700594D01*
X106991500Y-81700594D01*
X106910688Y-81673657D01*
X106776001Y-81592844D01*
X106695189Y-81512032D01*
X106614377Y-81377345D01*
X106587439Y-81296533D01*
X106587439Y-81188783D01*
X106641314Y-81081034D01*
X106695189Y-81027159D01*
X106802938Y-80973284D01*
X106856813Y-80973284D01*
X107314749Y-80407599D02*
X107045375Y-80676973D01*
X107287812Y-80973284D01*
X107287812Y-80919409D01*
X107314749Y-80838597D01*
X107449436Y-80703910D01*
X107530248Y-80676973D01*
X107584123Y-80676973D01*
X107664935Y-80703910D01*
X107799622Y-80838597D01*
X107826560Y-80919409D01*
X107826560Y-80973284D01*
X107799622Y-81054096D01*
X107664935Y-81188783D01*
X107584123Y-81215721D01*
X107530248Y-81215721D01*
X141328424Y-86519389D02*
X140870488Y-86438577D01*
X141005175Y-86842638D02*
X140439490Y-86276952D01*
X140654989Y-86061453D01*
X140735801Y-86034515D01*
X140789676Y-86034515D01*
X140870488Y-86061453D01*
X140951300Y-86142265D01*
X140978238Y-86223077D01*
X140978238Y-86276952D01*
X140951300Y-86357764D01*
X140735801Y-86573264D01*
X141274549Y-85441893D02*
X141005175Y-85711267D01*
X141247612Y-86007578D01*
X141247612Y-85953703D01*
X141274549Y-85872891D01*
X141409236Y-85738204D01*
X141490048Y-85711267D01*
X141543923Y-85711267D01*
X141624735Y-85738204D01*
X141759422Y-85872891D01*
X141786360Y-85953703D01*
X141786360Y-86007578D01*
X141759422Y-86088390D01*
X141624735Y-86223077D01*
X141543923Y-86250015D01*
X141490048Y-86250015D01*
X113692857Y-42223810D02*
X113730952Y-42109524D01*
X113769047Y-42071429D01*
X113845238Y-42033334D01*
X113959523Y-42033334D01*
X114035714Y-42071429D01*
X114073809Y-42109524D01*
X114111904Y-42185715D01*
X114111904Y-42490477D01*
X113311904Y-42490477D01*
X113311904Y-42223810D01*
X113350000Y-42147619D01*
X113388095Y-42109524D01*
X113464285Y-42071429D01*
X113540476Y-42071429D01*
X113616666Y-42109524D01*
X113654761Y-42147619D01*
X113692857Y-42223810D01*
X113692857Y-42490477D01*
X113883333Y-41728572D02*
X113883333Y-41347619D01*
X114111904Y-41804762D02*
X113311904Y-41538096D01*
X114111904Y-41271429D01*
X114073809Y-41042858D02*
X114111904Y-40928572D01*
X114111904Y-40738096D01*
X114073809Y-40661905D01*
X114035714Y-40623810D01*
X113959523Y-40585715D01*
X113883333Y-40585715D01*
X113807142Y-40623810D01*
X113769047Y-40661905D01*
X113730952Y-40738096D01*
X113692857Y-40890477D01*
X113654761Y-40966667D01*
X113616666Y-41004762D01*
X113540476Y-41042858D01*
X113464285Y-41042858D01*
X113388095Y-41004762D01*
X113350000Y-40966667D01*
X113311904Y-40890477D01*
X113311904Y-40700000D01*
X113350000Y-40585715D01*
X113311904Y-40357143D02*
X113311904Y-39900000D01*
X114111904Y-40128572D02*
X113311904Y-40128572D01*
X113883333Y-39671429D02*
X113883333Y-39290477D01*
X114111904Y-39747619D02*
X113311904Y-39480953D01*
X114111904Y-39214286D01*
X114111904Y-38490477D02*
X113730952Y-38757143D01*
X114111904Y-38947619D02*
X113311904Y-38947619D01*
X113311904Y-38642858D01*
X113350000Y-38566667D01*
X113388095Y-38528572D01*
X113464285Y-38490477D01*
X113578571Y-38490477D01*
X113654761Y-38528572D01*
X113692857Y-38566667D01*
X113730952Y-38642858D01*
X113730952Y-38947619D01*
X114111904Y-38147619D02*
X113311904Y-38147619D01*
X113311904Y-37957143D01*
X113350000Y-37842858D01*
X113426190Y-37766667D01*
X113502380Y-37728572D01*
X113654761Y-37690477D01*
X113769047Y-37690477D01*
X113921428Y-37728572D01*
X113997619Y-37766667D01*
X114073809Y-37842858D01*
X114111904Y-37957143D01*
X114111904Y-38147619D01*
X114111904Y-37347619D02*
X113311904Y-37347619D01*
X114111904Y-36890477D02*
X113654761Y-37233334D01*
X113311904Y-36890477D02*
X113769047Y-37347619D01*
X113692857Y-36280953D02*
X113730952Y-36166667D01*
X113769047Y-36128572D01*
X113845238Y-36090477D01*
X113959523Y-36090477D01*
X114035714Y-36128572D01*
X114073809Y-36166667D01*
X114111904Y-36242858D01*
X114111904Y-36547619D01*
X113311904Y-36547619D01*
X113311904Y-36280953D01*
X113350000Y-36204762D01*
X113388095Y-36166667D01*
X113464285Y-36128572D01*
X113540476Y-36128572D01*
X113616666Y-36166667D01*
X113654761Y-36204762D01*
X113692857Y-36280953D01*
X113692857Y-36547619D01*
X114035714Y-35747619D02*
X114073809Y-35709524D01*
X114111904Y-35747619D01*
X114073809Y-35785715D01*
X114035714Y-35747619D01*
X114111904Y-35747619D01*
X114035714Y-34909524D02*
X114073809Y-34947619D01*
X114111904Y-35061905D01*
X114111904Y-35138096D01*
X114073809Y-35252381D01*
X113997619Y-35328572D01*
X113921428Y-35366667D01*
X113769047Y-35404762D01*
X113654761Y-35404762D01*
X113502380Y-35366667D01*
X113426190Y-35328572D01*
X113350000Y-35252381D01*
X113311904Y-35138096D01*
X113311904Y-35061905D01*
X113350000Y-34947619D01*
X113388095Y-34909524D01*
X113311904Y-34414286D02*
X113311904Y-34261905D01*
X113350000Y-34185715D01*
X113426190Y-34109524D01*
X113578571Y-34071429D01*
X113845238Y-34071429D01*
X113997619Y-34109524D01*
X114073809Y-34185715D01*
X114111904Y-34261905D01*
X114111904Y-34414286D01*
X114073809Y-34490477D01*
X113997619Y-34566667D01*
X113845238Y-34604762D01*
X113578571Y-34604762D01*
X113426190Y-34566667D01*
X113350000Y-34490477D01*
X113311904Y-34414286D01*
X114111904Y-33728572D02*
X113311904Y-33728572D01*
X113883333Y-33461905D01*
X113311904Y-33195238D01*
X114111904Y-33195238D01*
X141274549Y-78845514D02*
X141274549Y-78899389D01*
X141220674Y-79007138D01*
X141166800Y-79061013D01*
X141059050Y-79114888D01*
X140951300Y-79114888D01*
X140870488Y-79087951D01*
X140735801Y-79007138D01*
X140654989Y-78926326D01*
X140574177Y-78791639D01*
X140547239Y-78710827D01*
X140547239Y-78603077D01*
X140601114Y-78495328D01*
X140654989Y-78441453D01*
X140762738Y-78387578D01*
X140816613Y-78387578D01*
X141436174Y-78037392D02*
X141813297Y-78414515D01*
X141085987Y-77956580D02*
X141355361Y-78495328D01*
X141705548Y-78145141D01*
X120545238Y-83617904D02*
X120164285Y-83617904D01*
X120164285Y-82817904D01*
X120811904Y-83617904D02*
X120811904Y-83084571D01*
X120811904Y-82817904D02*
X120773809Y-82856000D01*
X120811904Y-82894095D01*
X120850000Y-82856000D01*
X120811904Y-82817904D01*
X120811904Y-82894095D01*
X121535714Y-83579809D02*
X121459523Y-83617904D01*
X121307142Y-83617904D01*
X121230952Y-83579809D01*
X121192857Y-83541714D01*
X121154761Y-83465523D01*
X121154761Y-83236952D01*
X121192857Y-83160761D01*
X121230952Y-83122666D01*
X121307142Y-83084571D01*
X121459523Y-83084571D01*
X121535714Y-83122666D01*
X122183333Y-83579809D02*
X122107142Y-83617904D01*
X121954761Y-83617904D01*
X121878571Y-83579809D01*
X121840476Y-83503619D01*
X121840476Y-83198857D01*
X121878571Y-83122666D01*
X121954761Y-83084571D01*
X122107142Y-83084571D01*
X122183333Y-83122666D01*
X122221428Y-83198857D01*
X122221428Y-83275047D01*
X121840476Y-83351238D01*
X122564285Y-83084571D02*
X122564285Y-83617904D01*
X122564285Y-83160761D02*
X122602380Y-83122666D01*
X122678571Y-83084571D01*
X122792857Y-83084571D01*
X122869047Y-83122666D01*
X122907142Y-83198857D01*
X122907142Y-83617904D01*
X123250000Y-83579809D02*
X123326190Y-83617904D01*
X123478571Y-83617904D01*
X123554761Y-83579809D01*
X123592857Y-83503619D01*
X123592857Y-83465523D01*
X123554761Y-83389333D01*
X123478571Y-83351238D01*
X123364285Y-83351238D01*
X123288095Y-83313142D01*
X123250000Y-83236952D01*
X123250000Y-83198857D01*
X123288095Y-83122666D01*
X123364285Y-83084571D01*
X123478571Y-83084571D01*
X123554761Y-83122666D01*
X124240476Y-83579809D02*
X124164285Y-83617904D01*
X124011904Y-83617904D01*
X123935714Y-83579809D01*
X123897619Y-83503619D01*
X123897619Y-83198857D01*
X123935714Y-83122666D01*
X124011904Y-83084571D01*
X124164285Y-83084571D01*
X124240476Y-83122666D01*
X124278571Y-83198857D01*
X124278571Y-83275047D01*
X123897619Y-83351238D01*
X124964285Y-83617904D02*
X124964285Y-82817904D01*
X124964285Y-83579809D02*
X124888095Y-83617904D01*
X124735714Y-83617904D01*
X124659523Y-83579809D01*
X124621428Y-83541714D01*
X124583333Y-83465523D01*
X124583333Y-83236952D01*
X124621428Y-83160761D01*
X124659523Y-83122666D01*
X124735714Y-83084571D01*
X124888095Y-83084571D01*
X124964285Y-83122666D01*
X126297619Y-83084571D02*
X126297619Y-83617904D01*
X125954761Y-83084571D02*
X125954761Y-83503619D01*
X125992857Y-83579809D01*
X126069047Y-83617904D01*
X126183333Y-83617904D01*
X126259523Y-83579809D01*
X126297619Y-83541714D01*
X126678571Y-83084571D02*
X126678571Y-83617904D01*
X126678571Y-83160761D02*
X126716666Y-83122666D01*
X126792857Y-83084571D01*
X126907142Y-83084571D01*
X126983333Y-83122666D01*
X127021428Y-83198857D01*
X127021428Y-83617904D01*
X127745238Y-83617904D02*
X127745238Y-82817904D01*
X127745238Y-83579809D02*
X127669047Y-83617904D01*
X127516666Y-83617904D01*
X127440476Y-83579809D01*
X127402380Y-83541714D01*
X127364285Y-83465523D01*
X127364285Y-83236952D01*
X127402380Y-83160761D01*
X127440476Y-83122666D01*
X127516666Y-83084571D01*
X127669047Y-83084571D01*
X127745238Y-83122666D01*
X128430952Y-83579809D02*
X128354761Y-83617904D01*
X128202380Y-83617904D01*
X128126190Y-83579809D01*
X128088095Y-83503619D01*
X128088095Y-83198857D01*
X128126190Y-83122666D01*
X128202380Y-83084571D01*
X128354761Y-83084571D01*
X128430952Y-83122666D01*
X128469047Y-83198857D01*
X128469047Y-83275047D01*
X128088095Y-83351238D01*
X128811904Y-83617904D02*
X128811904Y-83084571D01*
X128811904Y-83236952D02*
X128850000Y-83160761D01*
X128888095Y-83122666D01*
X128964285Y-83084571D01*
X129040476Y-83084571D01*
X120316666Y-84829714D02*
X120278571Y-84867809D01*
X120164285Y-84905904D01*
X120088095Y-84905904D01*
X119973809Y-84867809D01*
X119897619Y-84791619D01*
X119859523Y-84715428D01*
X119821428Y-84563047D01*
X119821428Y-84448761D01*
X119859523Y-84296380D01*
X119897619Y-84220190D01*
X119973809Y-84144000D01*
X120088095Y-84105904D01*
X120164285Y-84105904D01*
X120278571Y-84144000D01*
X120316666Y-84182095D01*
X120659523Y-84486857D02*
X120926190Y-84486857D01*
X121040476Y-84905904D02*
X120659523Y-84905904D01*
X120659523Y-84105904D01*
X121040476Y-84105904D01*
X121840476Y-84905904D02*
X121573809Y-84524952D01*
X121383333Y-84905904D02*
X121383333Y-84105904D01*
X121688095Y-84105904D01*
X121764285Y-84144000D01*
X121802380Y-84182095D01*
X121840476Y-84258285D01*
X121840476Y-84372571D01*
X121802380Y-84448761D01*
X121764285Y-84486857D01*
X121688095Y-84524952D01*
X121383333Y-84524952D01*
X122183333Y-84905904D02*
X122183333Y-84105904D01*
X122640476Y-84905904D01*
X122640476Y-84105904D01*
X123021428Y-84601142D02*
X123630952Y-84601142D01*
X124164285Y-84105904D02*
X124316666Y-84105904D01*
X124392857Y-84144000D01*
X124469047Y-84220190D01*
X124507142Y-84372571D01*
X124507142Y-84639238D01*
X124469047Y-84791619D01*
X124392857Y-84867809D01*
X124316666Y-84905904D01*
X124164285Y-84905904D01*
X124088095Y-84867809D01*
X124011904Y-84791619D01*
X123973809Y-84639238D01*
X123973809Y-84372571D01*
X124011904Y-84220190D01*
X124088095Y-84144000D01*
X124164285Y-84105904D01*
X124850000Y-84905904D02*
X124850000Y-84105904D01*
X124850000Y-84486857D02*
X125307142Y-84486857D01*
X125307142Y-84905904D02*
X125307142Y-84105904D01*
X126069047Y-84905904D02*
X125688095Y-84905904D01*
X125688095Y-84105904D01*
X126335714Y-84601142D02*
X126945238Y-84601142D01*
X127250000Y-84105904D02*
X127440476Y-84905904D01*
X127592857Y-84334476D01*
X127745238Y-84905904D01*
X127935714Y-84105904D01*
X128773809Y-84372571D02*
X128964285Y-84905904D01*
X129154761Y-84372571D01*
X129421428Y-84182095D02*
X129459523Y-84144000D01*
X129535714Y-84105904D01*
X129726190Y-84105904D01*
X129802380Y-84144000D01*
X129840476Y-84182095D01*
X129878571Y-84258285D01*
X129878571Y-84334476D01*
X129840476Y-84448761D01*
X129383333Y-84905904D01*
X129878571Y-84905904D01*
X107368624Y-86565095D02*
X106910688Y-86484283D01*
X107045375Y-86888344D02*
X106479690Y-86322658D01*
X106695189Y-86107159D01*
X106776001Y-86080221D01*
X106829876Y-86080221D01*
X106910688Y-86107159D01*
X106991500Y-86187971D01*
X107018438Y-86268783D01*
X107018438Y-86322658D01*
X106991500Y-86403470D01*
X106776001Y-86618970D01*
X107314749Y-85487599D02*
X107045375Y-85756973D01*
X107287812Y-86053284D01*
X107287812Y-85999409D01*
X107314749Y-85918597D01*
X107449436Y-85783910D01*
X107530248Y-85756973D01*
X107584123Y-85756973D01*
X107664935Y-85783910D01*
X107799622Y-85918597D01*
X107826560Y-85999409D01*
X107826560Y-86053284D01*
X107799622Y-86134096D01*
X107664935Y-86268783D01*
X107584123Y-86295721D01*
X107530248Y-86295721D01*
X88016667Y-44441904D02*
X88016667Y-43641904D01*
X88207143Y-43641904D01*
X88321429Y-43680000D01*
X88397619Y-43756190D01*
X88435715Y-43832380D01*
X88473810Y-43984761D01*
X88473810Y-44099047D01*
X88435715Y-44251428D01*
X88397619Y-44327619D01*
X88321429Y-44403809D01*
X88207143Y-44441904D01*
X88016667Y-44441904D01*
X88816667Y-44441904D02*
X88816667Y-43641904D01*
X89197619Y-44441904D02*
X89197619Y-43641904D01*
X89654762Y-44441904D01*
X89654762Y-43641904D01*
X95732349Y-76318512D02*
X95732349Y-76372387D01*
X95678474Y-76480136D01*
X95624599Y-76534011D01*
X95516850Y-76587886D01*
X95409100Y-76587886D01*
X95328288Y-76560949D01*
X95193601Y-76480136D01*
X95112789Y-76399324D01*
X95031977Y-76264637D01*
X95005039Y-76183825D01*
X95005039Y-76076075D01*
X95058914Y-75968326D01*
X95112789Y-75914451D01*
X95220538Y-75860576D01*
X95274413Y-75860576D01*
X95974786Y-76129950D02*
X96082535Y-76076075D01*
X96217222Y-75941388D01*
X96244160Y-75860576D01*
X96244160Y-75806701D01*
X96217222Y-75725889D01*
X96163348Y-75672014D01*
X96082535Y-75645077D01*
X96028661Y-75645077D01*
X95947848Y-75672014D01*
X95813161Y-75752826D01*
X95732349Y-75779764D01*
X95678474Y-75779764D01*
X95597662Y-75752826D01*
X95543787Y-75698952D01*
X95516850Y-75618139D01*
X95516850Y-75564265D01*
X95543787Y-75483452D01*
X95678474Y-75348765D01*
X95786224Y-75294891D01*
X94991571Y-79707039D02*
X94425885Y-79141354D01*
X95018508Y-79356853D01*
X94803009Y-78764230D01*
X95368694Y-79329915D01*
X95180132Y-78387106D02*
X95287882Y-78279357D01*
X95368694Y-78252419D01*
X95476444Y-78252419D01*
X95611131Y-78333232D01*
X95799693Y-78521793D01*
X95880505Y-78656480D01*
X95880505Y-78764230D01*
X95853567Y-78845042D01*
X95745818Y-78952792D01*
X95665006Y-78979729D01*
X95557256Y-78979729D01*
X95422569Y-78898917D01*
X95234007Y-78710355D01*
X95153195Y-78575668D01*
X95153195Y-78467919D01*
X95180132Y-78387106D01*
X96176816Y-78467919D02*
X96284566Y-78414044D01*
X96419253Y-78279357D01*
X96446190Y-78198545D01*
X96446190Y-78144670D01*
X96419253Y-78063858D01*
X96365378Y-78009983D01*
X96284566Y-77983045D01*
X96230691Y-77983045D01*
X96149879Y-78009983D01*
X96015192Y-78090795D01*
X95934380Y-78117732D01*
X95880505Y-78117732D01*
X95799693Y-78090795D01*
X95745818Y-78036920D01*
X95718880Y-77956108D01*
X95718880Y-77902233D01*
X95745818Y-77821421D01*
X95880505Y-77686734D01*
X95988254Y-77632859D01*
X96769439Y-77929171D02*
X96203754Y-77363485D01*
X96590476Y-50145904D02*
X96590476Y-49345904D01*
X96971428Y-49612571D02*
X96971428Y-50145904D01*
X96971428Y-49688761D02*
X97009523Y-49650666D01*
X97085714Y-49612571D01*
X97200000Y-49612571D01*
X97276190Y-49650666D01*
X97314285Y-49726857D01*
X97314285Y-50145904D01*
X97657142Y-50107809D02*
X97733333Y-50145904D01*
X97885714Y-50145904D01*
X97961904Y-50107809D01*
X98000000Y-50031619D01*
X98000000Y-49993523D01*
X97961904Y-49917333D01*
X97885714Y-49879238D01*
X97771428Y-49879238D01*
X97695238Y-49841142D01*
X97657142Y-49764952D01*
X97657142Y-49726857D01*
X97695238Y-49650666D01*
X97771428Y-49612571D01*
X97885714Y-49612571D01*
X97961904Y-49650666D01*
X98228571Y-49612571D02*
X98533333Y-49612571D01*
X98342857Y-49345904D02*
X98342857Y-50031619D01*
X98380952Y-50107809D01*
X98457142Y-50145904D01*
X98533333Y-50145904D01*
X99142857Y-50145904D02*
X99142857Y-49726857D01*
X99104761Y-49650666D01*
X99028571Y-49612571D01*
X98876190Y-49612571D01*
X98800000Y-49650666D01*
X99142857Y-50107809D02*
X99066666Y-50145904D01*
X98876190Y-50145904D01*
X98800000Y-50107809D01*
X98761904Y-50031619D01*
X98761904Y-49955428D01*
X98800000Y-49879238D01*
X98876190Y-49841142D01*
X99066666Y-49841142D01*
X99142857Y-49803047D01*
X99638095Y-50145904D02*
X99561904Y-50107809D01*
X99523809Y-50031619D01*
X99523809Y-49345904D01*
X100057142Y-50145904D02*
X99980952Y-50107809D01*
X99942857Y-50031619D01*
X99942857Y-49345904D01*
X101238095Y-49726857D02*
X101352380Y-49764952D01*
X101390476Y-49803047D01*
X101428571Y-49879238D01*
X101428571Y-49993523D01*
X101390476Y-50069714D01*
X101352380Y-50107809D01*
X101276190Y-50145904D01*
X100971428Y-50145904D01*
X100971428Y-49345904D01*
X101238095Y-49345904D01*
X101314285Y-49384000D01*
X101352380Y-49422095D01*
X101390476Y-49498285D01*
X101390476Y-49574476D01*
X101352380Y-49650666D01*
X101314285Y-49688761D01*
X101238095Y-49726857D01*
X100971428Y-49726857D01*
X101885714Y-50145904D02*
X101809523Y-50107809D01*
X101771428Y-50031619D01*
X101771428Y-49345904D01*
X102533333Y-50145904D02*
X102533333Y-49726857D01*
X102495238Y-49650666D01*
X102419047Y-49612571D01*
X102266666Y-49612571D01*
X102190476Y-49650666D01*
X102533333Y-50107809D02*
X102457142Y-50145904D01*
X102266666Y-50145904D01*
X102190476Y-50107809D01*
X102152380Y-50031619D01*
X102152380Y-49955428D01*
X102190476Y-49879238D01*
X102266666Y-49841142D01*
X102457142Y-49841142D01*
X102533333Y-49803047D01*
X103257142Y-50107809D02*
X103180952Y-50145904D01*
X103028571Y-50145904D01*
X102952380Y-50107809D01*
X102914285Y-50069714D01*
X102876190Y-49993523D01*
X102876190Y-49764952D01*
X102914285Y-49688761D01*
X102952380Y-49650666D01*
X103028571Y-49612571D01*
X103180952Y-49612571D01*
X103257142Y-49650666D01*
X103600000Y-50145904D02*
X103600000Y-49345904D01*
X103676190Y-49841142D02*
X103904761Y-50145904D01*
X103904761Y-49612571D02*
X103600000Y-49917333D01*
X104247619Y-49612571D02*
X104247619Y-50412571D01*
X104247619Y-49650666D02*
X104323809Y-49612571D01*
X104476190Y-49612571D01*
X104552380Y-49650666D01*
X104590476Y-49688761D01*
X104628571Y-49764952D01*
X104628571Y-49993523D01*
X104590476Y-50069714D01*
X104552380Y-50107809D01*
X104476190Y-50145904D01*
X104323809Y-50145904D01*
X104247619Y-50107809D01*
X104971428Y-50145904D02*
X104971428Y-49612571D01*
X104971428Y-49345904D02*
X104933333Y-49384000D01*
X104971428Y-49422095D01*
X105009523Y-49384000D01*
X104971428Y-49345904D01*
X104971428Y-49422095D01*
X105466666Y-50145904D02*
X105390476Y-50107809D01*
X105352380Y-50031619D01*
X105352380Y-49345904D01*
X105885714Y-50145904D02*
X105809523Y-50107809D01*
X105771428Y-50031619D01*
X105771428Y-49345904D01*
X97980952Y-50900571D02*
X97980952Y-51433904D01*
X97638095Y-50900571D02*
X97638095Y-51319619D01*
X97676190Y-51395809D01*
X97752380Y-51433904D01*
X97866666Y-51433904D01*
X97942857Y-51395809D01*
X97980952Y-51357714D01*
X98361904Y-50900571D02*
X98361904Y-51700571D01*
X98361904Y-50938666D02*
X98438095Y-50900571D01*
X98590476Y-50900571D01*
X98666666Y-50938666D01*
X98704761Y-50976761D01*
X98742857Y-51052952D01*
X98742857Y-51281523D01*
X98704761Y-51357714D01*
X98666666Y-51395809D01*
X98590476Y-51433904D01*
X98438095Y-51433904D01*
X98361904Y-51395809D01*
X99047619Y-51395809D02*
X99123809Y-51433904D01*
X99276190Y-51433904D01*
X99352380Y-51395809D01*
X99390476Y-51319619D01*
X99390476Y-51281523D01*
X99352380Y-51205333D01*
X99276190Y-51167238D01*
X99161904Y-51167238D01*
X99085714Y-51129142D01*
X99047619Y-51052952D01*
X99047619Y-51014857D01*
X99085714Y-50938666D01*
X99161904Y-50900571D01*
X99276190Y-50900571D01*
X99352380Y-50938666D01*
X99733333Y-51433904D02*
X99733333Y-50900571D01*
X99733333Y-50633904D02*
X99695238Y-50672000D01*
X99733333Y-50710095D01*
X99771428Y-50672000D01*
X99733333Y-50633904D01*
X99733333Y-50710095D01*
X100457142Y-51433904D02*
X100457142Y-50633904D01*
X100457142Y-51395809D02*
X100380952Y-51433904D01*
X100228571Y-51433904D01*
X100152380Y-51395809D01*
X100114285Y-51357714D01*
X100076190Y-51281523D01*
X100076190Y-51052952D01*
X100114285Y-50976761D01*
X100152380Y-50938666D01*
X100228571Y-50900571D01*
X100380952Y-50900571D01*
X100457142Y-50938666D01*
X101142857Y-51395809D02*
X101066666Y-51433904D01*
X100914285Y-51433904D01*
X100838095Y-51395809D01*
X100800000Y-51319619D01*
X100800000Y-51014857D01*
X100838095Y-50938666D01*
X100914285Y-50900571D01*
X101066666Y-50900571D01*
X101142857Y-50938666D01*
X101180952Y-51014857D01*
X101180952Y-51091047D01*
X100800000Y-51167238D01*
X102476190Y-51433904D02*
X102476190Y-50633904D01*
X102476190Y-51395809D02*
X102400000Y-51433904D01*
X102247619Y-51433904D01*
X102171428Y-51395809D01*
X102133333Y-51357714D01*
X102095238Y-51281523D01*
X102095238Y-51052952D01*
X102133333Y-50976761D01*
X102171428Y-50938666D01*
X102247619Y-50900571D01*
X102400000Y-50900571D01*
X102476190Y-50938666D01*
X102971428Y-51433904D02*
X102895238Y-51395809D01*
X102857142Y-51357714D01*
X102819047Y-51281523D01*
X102819047Y-51052952D01*
X102857142Y-50976761D01*
X102895238Y-50938666D01*
X102971428Y-50900571D01*
X103085714Y-50900571D01*
X103161904Y-50938666D01*
X103200000Y-50976761D01*
X103238095Y-51052952D01*
X103238095Y-51281523D01*
X103200000Y-51357714D01*
X103161904Y-51395809D01*
X103085714Y-51433904D01*
X102971428Y-51433904D01*
X103504761Y-50900571D02*
X103657142Y-51433904D01*
X103809523Y-51052952D01*
X103961904Y-51433904D01*
X104114285Y-50900571D01*
X104419047Y-50900571D02*
X104419047Y-51433904D01*
X104419047Y-50976761D02*
X104457142Y-50938666D01*
X104533333Y-50900571D01*
X104647619Y-50900571D01*
X104723809Y-50938666D01*
X104761904Y-51014857D01*
X104761904Y-51433904D01*
X96990476Y-52188571D02*
X97295238Y-52188571D01*
X97104761Y-51921904D02*
X97104761Y-52607619D01*
X97142857Y-52683809D01*
X97219047Y-52721904D01*
X97295238Y-52721904D01*
X97676190Y-52721904D02*
X97600000Y-52683809D01*
X97561904Y-52645714D01*
X97523809Y-52569523D01*
X97523809Y-52340952D01*
X97561904Y-52264761D01*
X97600000Y-52226666D01*
X97676190Y-52188571D01*
X97790476Y-52188571D01*
X97866666Y-52226666D01*
X97904761Y-52264761D01*
X97942857Y-52340952D01*
X97942857Y-52569523D01*
X97904761Y-52645714D01*
X97866666Y-52683809D01*
X97790476Y-52721904D01*
X97676190Y-52721904D01*
X98628571Y-52188571D02*
X98628571Y-52836190D01*
X98590476Y-52912380D01*
X98552380Y-52950476D01*
X98476190Y-52988571D01*
X98361904Y-52988571D01*
X98285714Y-52950476D01*
X98628571Y-52683809D02*
X98552380Y-52721904D01*
X98400000Y-52721904D01*
X98323809Y-52683809D01*
X98285714Y-52645714D01*
X98247619Y-52569523D01*
X98247619Y-52340952D01*
X98285714Y-52264761D01*
X98323809Y-52226666D01*
X98400000Y-52188571D01*
X98552380Y-52188571D01*
X98628571Y-52226666D01*
X99314285Y-52683809D02*
X99238095Y-52721904D01*
X99085714Y-52721904D01*
X99009523Y-52683809D01*
X98971428Y-52607619D01*
X98971428Y-52302857D01*
X99009523Y-52226666D01*
X99085714Y-52188571D01*
X99238095Y-52188571D01*
X99314285Y-52226666D01*
X99352380Y-52302857D01*
X99352380Y-52379047D01*
X98971428Y-52455238D01*
X99580952Y-52188571D02*
X99885714Y-52188571D01*
X99695238Y-51921904D02*
X99695238Y-52607619D01*
X99733333Y-52683809D01*
X99809523Y-52721904D01*
X99885714Y-52721904D01*
X100152380Y-52721904D02*
X100152380Y-51921904D01*
X100495238Y-52721904D02*
X100495238Y-52302857D01*
X100457142Y-52226666D01*
X100380952Y-52188571D01*
X100266666Y-52188571D01*
X100190476Y-52226666D01*
X100152380Y-52264761D01*
X101180952Y-52683809D02*
X101104761Y-52721904D01*
X100952380Y-52721904D01*
X100876190Y-52683809D01*
X100838095Y-52607619D01*
X100838095Y-52302857D01*
X100876190Y-52226666D01*
X100952380Y-52188571D01*
X101104761Y-52188571D01*
X101180952Y-52226666D01*
X101219047Y-52302857D01*
X101219047Y-52379047D01*
X100838095Y-52455238D01*
X101561904Y-52721904D02*
X101561904Y-52188571D01*
X101561904Y-52340952D02*
X101600000Y-52264761D01*
X101638095Y-52226666D01*
X101714285Y-52188571D01*
X101790476Y-52188571D01*
X102590476Y-52188571D02*
X102742857Y-52721904D01*
X102895238Y-52340952D01*
X103047619Y-52721904D01*
X103200000Y-52188571D01*
X103504761Y-52721904D02*
X103504761Y-52188571D01*
X103504761Y-51921904D02*
X103466666Y-51960000D01*
X103504761Y-51998095D01*
X103542857Y-51960000D01*
X103504761Y-51921904D01*
X103504761Y-51998095D01*
X103771428Y-52188571D02*
X104076190Y-52188571D01*
X103885714Y-51921904D02*
X103885714Y-52607619D01*
X103923809Y-52683809D01*
X104000000Y-52721904D01*
X104076190Y-52721904D01*
X104342857Y-52721904D02*
X104342857Y-51921904D01*
X104685714Y-52721904D02*
X104685714Y-52302857D01*
X104647619Y-52226666D01*
X104571428Y-52188571D01*
X104457142Y-52188571D01*
X104380952Y-52226666D01*
X104342857Y-52264761D01*
X97257142Y-54009904D02*
X97257142Y-53476571D01*
X97257142Y-53628952D02*
X97295238Y-53552761D01*
X97333333Y-53514666D01*
X97409523Y-53476571D01*
X97485714Y-53476571D01*
X97752380Y-54009904D02*
X97752380Y-53476571D01*
X97752380Y-53209904D02*
X97714285Y-53248000D01*
X97752380Y-53286095D01*
X97790476Y-53248000D01*
X97752380Y-53209904D01*
X97752380Y-53286095D01*
X98133333Y-54009904D02*
X98133333Y-53209904D01*
X98133333Y-53514666D02*
X98209523Y-53476571D01*
X98361904Y-53476571D01*
X98438095Y-53514666D01*
X98476190Y-53552761D01*
X98514285Y-53628952D01*
X98514285Y-53857523D01*
X98476190Y-53933714D01*
X98438095Y-53971809D01*
X98361904Y-54009904D01*
X98209523Y-54009904D01*
X98133333Y-53971809D01*
X98857142Y-54009904D02*
X98857142Y-53209904D01*
X98857142Y-53514666D02*
X98933333Y-53476571D01*
X99085714Y-53476571D01*
X99161904Y-53514666D01*
X99200000Y-53552761D01*
X99238095Y-53628952D01*
X99238095Y-53857523D01*
X99200000Y-53933714D01*
X99161904Y-53971809D01*
X99085714Y-54009904D01*
X98933333Y-54009904D01*
X98857142Y-53971809D01*
X99695238Y-54009904D02*
X99619047Y-53971809D01*
X99580952Y-53933714D01*
X99542857Y-53857523D01*
X99542857Y-53628952D01*
X99580952Y-53552761D01*
X99619047Y-53514666D01*
X99695238Y-53476571D01*
X99809523Y-53476571D01*
X99885714Y-53514666D01*
X99923809Y-53552761D01*
X99961904Y-53628952D01*
X99961904Y-53857523D01*
X99923809Y-53933714D01*
X99885714Y-53971809D01*
X99809523Y-54009904D01*
X99695238Y-54009904D01*
X100304761Y-53476571D02*
X100304761Y-54009904D01*
X100304761Y-53552761D02*
X100342857Y-53514666D01*
X100419047Y-53476571D01*
X100533333Y-53476571D01*
X100609523Y-53514666D01*
X100647619Y-53590857D01*
X100647619Y-54009904D01*
X101980952Y-53971809D02*
X101904761Y-54009904D01*
X101752380Y-54009904D01*
X101676190Y-53971809D01*
X101638095Y-53933714D01*
X101600000Y-53857523D01*
X101600000Y-53628952D01*
X101638095Y-53552761D01*
X101676190Y-53514666D01*
X101752380Y-53476571D01*
X101904761Y-53476571D01*
X101980952Y-53514666D01*
X102666666Y-54009904D02*
X102666666Y-53590857D01*
X102628571Y-53514666D01*
X102552380Y-53476571D01*
X102400000Y-53476571D01*
X102323809Y-53514666D01*
X102666666Y-53971809D02*
X102590476Y-54009904D01*
X102400000Y-54009904D01*
X102323809Y-53971809D01*
X102285714Y-53895619D01*
X102285714Y-53819428D01*
X102323809Y-53743238D01*
X102400000Y-53705142D01*
X102590476Y-53705142D01*
X102666666Y-53667047D01*
X103047619Y-54009904D02*
X103047619Y-53209904D01*
X103047619Y-53514666D02*
X103123809Y-53476571D01*
X103276190Y-53476571D01*
X103352380Y-53514666D01*
X103390476Y-53552761D01*
X103428571Y-53628952D01*
X103428571Y-53857523D01*
X103390476Y-53933714D01*
X103352380Y-53971809D01*
X103276190Y-54009904D01*
X103123809Y-54009904D01*
X103047619Y-53971809D01*
X103885714Y-54009904D02*
X103809523Y-53971809D01*
X103771428Y-53895619D01*
X103771428Y-53209904D01*
X104495238Y-53971809D02*
X104419047Y-54009904D01*
X104266666Y-54009904D01*
X104190476Y-53971809D01*
X104152380Y-53895619D01*
X104152380Y-53590857D01*
X104190476Y-53514666D01*
X104266666Y-53476571D01*
X104419047Y-53476571D01*
X104495238Y-53514666D01*
X104533333Y-53590857D01*
X104533333Y-53667047D01*
X104152380Y-53743238D01*
X104838095Y-53971809D02*
X104914285Y-54009904D01*
X105066666Y-54009904D01*
X105142857Y-53971809D01*
X105180952Y-53895619D01*
X105180952Y-53857523D01*
X105142857Y-53781333D01*
X105066666Y-53743238D01*
X104952380Y-53743238D01*
X104876190Y-53705142D01*
X104838095Y-53628952D01*
X104838095Y-53590857D01*
X104876190Y-53514666D01*
X104952380Y-53476571D01*
X105066666Y-53476571D01*
X105142857Y-53514666D01*
X98019047Y-55297904D02*
X98019047Y-54878857D01*
X97980952Y-54802666D01*
X97904761Y-54764571D01*
X97752380Y-54764571D01*
X97676190Y-54802666D01*
X98019047Y-55259809D02*
X97942857Y-55297904D01*
X97752380Y-55297904D01*
X97676190Y-55259809D01*
X97638095Y-55183619D01*
X97638095Y-55107428D01*
X97676190Y-55031238D01*
X97752380Y-54993142D01*
X97942857Y-54993142D01*
X98019047Y-54955047D01*
X98400000Y-54764571D02*
X98400000Y-55297904D01*
X98400000Y-54840761D02*
X98438095Y-54802666D01*
X98514285Y-54764571D01*
X98628571Y-54764571D01*
X98704761Y-54802666D01*
X98742857Y-54878857D01*
X98742857Y-55297904D01*
X99466666Y-55297904D02*
X99466666Y-54497904D01*
X99466666Y-55259809D02*
X99390476Y-55297904D01*
X99238095Y-55297904D01*
X99161904Y-55259809D01*
X99123809Y-55221714D01*
X99085714Y-55145523D01*
X99085714Y-54916952D01*
X99123809Y-54840761D01*
X99161904Y-54802666D01*
X99238095Y-54764571D01*
X99390476Y-54764571D01*
X99466666Y-54802666D01*
X100342857Y-54764571D02*
X100647619Y-54764571D01*
X100457142Y-54497904D02*
X100457142Y-55183619D01*
X100495238Y-55259809D01*
X100571428Y-55297904D01*
X100647619Y-55297904D01*
X100914285Y-55297904D02*
X100914285Y-54764571D01*
X100914285Y-54916952D02*
X100952380Y-54840761D01*
X100990476Y-54802666D01*
X101066666Y-54764571D01*
X101142857Y-54764571D01*
X101371428Y-55259809D02*
X101447619Y-55297904D01*
X101600000Y-55297904D01*
X101676190Y-55259809D01*
X101714285Y-55183619D01*
X101714285Y-55145523D01*
X101676190Y-55069333D01*
X101600000Y-55031238D01*
X101485714Y-55031238D01*
X101409523Y-54993142D01*
X101371428Y-54916952D01*
X101371428Y-54878857D01*
X101409523Y-54802666D01*
X101485714Y-54764571D01*
X101600000Y-54764571D01*
X101676190Y-54802666D01*
X102666666Y-54764571D02*
X102666666Y-55450285D01*
X102628571Y-55526476D01*
X102552380Y-55564571D01*
X102514285Y-55564571D01*
X102666666Y-54497904D02*
X102628571Y-54536000D01*
X102666666Y-54574095D01*
X102704761Y-54536000D01*
X102666666Y-54497904D01*
X102666666Y-54574095D01*
X103390476Y-55297904D02*
X103390476Y-54878857D01*
X103352380Y-54802666D01*
X103276190Y-54764571D01*
X103123809Y-54764571D01*
X103047619Y-54802666D01*
X103390476Y-55259809D02*
X103314285Y-55297904D01*
X103123809Y-55297904D01*
X103047619Y-55259809D01*
X103009523Y-55183619D01*
X103009523Y-55107428D01*
X103047619Y-55031238D01*
X103123809Y-54993142D01*
X103314285Y-54993142D01*
X103390476Y-54955047D01*
X104114285Y-55259809D02*
X104038095Y-55297904D01*
X103885714Y-55297904D01*
X103809523Y-55259809D01*
X103771428Y-55221714D01*
X103733333Y-55145523D01*
X103733333Y-54916952D01*
X103771428Y-54840761D01*
X103809523Y-54802666D01*
X103885714Y-54764571D01*
X104038095Y-54764571D01*
X104114285Y-54802666D01*
X104457142Y-55297904D02*
X104457142Y-54497904D01*
X104533333Y-54993142D02*
X104761904Y-55297904D01*
X104761904Y-54764571D02*
X104457142Y-55069333D01*
X97657142Y-56585904D02*
X97580952Y-56547809D01*
X97542857Y-56509714D01*
X97504761Y-56433523D01*
X97504761Y-56204952D01*
X97542857Y-56128761D01*
X97580952Y-56090666D01*
X97657142Y-56052571D01*
X97771428Y-56052571D01*
X97847619Y-56090666D01*
X97885714Y-56128761D01*
X97923809Y-56204952D01*
X97923809Y-56433523D01*
X97885714Y-56509714D01*
X97847619Y-56547809D01*
X97771428Y-56585904D01*
X97657142Y-56585904D01*
X98266666Y-56052571D02*
X98266666Y-56585904D01*
X98266666Y-56128761D02*
X98304761Y-56090666D01*
X98380952Y-56052571D01*
X98495238Y-56052571D01*
X98571428Y-56090666D01*
X98609523Y-56166857D01*
X98609523Y-56585904D01*
X99485714Y-56052571D02*
X99790476Y-56052571D01*
X99600000Y-55785904D02*
X99600000Y-56471619D01*
X99638095Y-56547809D01*
X99714285Y-56585904D01*
X99790476Y-56585904D01*
X100057142Y-56585904D02*
X100057142Y-55785904D01*
X100400000Y-56585904D02*
X100400000Y-56166857D01*
X100361904Y-56090666D01*
X100285714Y-56052571D01*
X100171428Y-56052571D01*
X100095238Y-56090666D01*
X100057142Y-56128761D01*
X100780952Y-56585904D02*
X100780952Y-56052571D01*
X100780952Y-55785904D02*
X100742857Y-55824000D01*
X100780952Y-55862095D01*
X100819047Y-55824000D01*
X100780952Y-55785904D01*
X100780952Y-55862095D01*
X101123809Y-56547809D02*
X101200000Y-56585904D01*
X101352380Y-56585904D01*
X101428571Y-56547809D01*
X101466666Y-56471619D01*
X101466666Y-56433523D01*
X101428571Y-56357333D01*
X101352380Y-56319238D01*
X101238095Y-56319238D01*
X101161904Y-56281142D01*
X101123809Y-56204952D01*
X101123809Y-56166857D01*
X101161904Y-56090666D01*
X101238095Y-56052571D01*
X101352380Y-56052571D01*
X101428571Y-56090666D01*
X102380952Y-56547809D02*
X102457142Y-56585904D01*
X102609523Y-56585904D01*
X102685714Y-56547809D01*
X102723809Y-56471619D01*
X102723809Y-56433523D01*
X102685714Y-56357333D01*
X102609523Y-56319238D01*
X102495238Y-56319238D01*
X102419047Y-56281142D01*
X102380952Y-56204952D01*
X102380952Y-56166857D01*
X102419047Y-56090666D01*
X102495238Y-56052571D01*
X102609523Y-56052571D01*
X102685714Y-56090666D01*
X103066666Y-56585904D02*
X103066666Y-56052571D01*
X103066666Y-55785904D02*
X103028571Y-55824000D01*
X103066666Y-55862095D01*
X103104761Y-55824000D01*
X103066666Y-55785904D01*
X103066666Y-55862095D01*
X103790476Y-56585904D02*
X103790476Y-55785904D01*
X103790476Y-56547809D02*
X103714285Y-56585904D01*
X103561904Y-56585904D01*
X103485714Y-56547809D01*
X103447619Y-56509714D01*
X103409523Y-56433523D01*
X103409523Y-56204952D01*
X103447619Y-56128761D01*
X103485714Y-56090666D01*
X103561904Y-56052571D01*
X103714285Y-56052571D01*
X103790476Y-56090666D01*
X104476190Y-56547809D02*
X104400000Y-56585904D01*
X104247619Y-56585904D01*
X104171428Y-56547809D01*
X104133333Y-56471619D01*
X104133333Y-56166857D01*
X104171428Y-56090666D01*
X104247619Y-56052571D01*
X104400000Y-56052571D01*
X104476190Y-56090666D01*
X104514285Y-56166857D01*
X104514285Y-56243047D01*
X104133333Y-56319238D01*
X104857142Y-56509714D02*
X104895238Y-56547809D01*
X104857142Y-56585904D01*
X104819047Y-56547809D01*
X104857142Y-56509714D01*
X104857142Y-56585904D01*
X97600000Y-58361904D02*
X97219047Y-58361904D01*
X97180952Y-58742857D01*
X97219047Y-58704761D01*
X97295238Y-58666666D01*
X97485714Y-58666666D01*
X97561904Y-58704761D01*
X97600000Y-58742857D01*
X97638095Y-58819047D01*
X97638095Y-59009523D01*
X97600000Y-59085714D01*
X97561904Y-59123809D01*
X97485714Y-59161904D01*
X97295238Y-59161904D01*
X97219047Y-59123809D01*
X97180952Y-59085714D01*
X97980952Y-59085714D02*
X98019047Y-59123809D01*
X97980952Y-59161904D01*
X97942857Y-59123809D01*
X97980952Y-59085714D01*
X97980952Y-59161904D01*
X98780952Y-59161904D02*
X98323809Y-59161904D01*
X98552380Y-59161904D02*
X98552380Y-58361904D01*
X98476190Y-58476190D01*
X98400000Y-58552380D01*
X98323809Y-58590476D01*
X99123809Y-59161904D02*
X99123809Y-58361904D01*
X99200000Y-58857142D02*
X99428571Y-59161904D01*
X99428571Y-58628571D02*
X99123809Y-58933333D01*
X100380952Y-59161904D02*
X100380952Y-58628571D01*
X100380952Y-58780952D02*
X100419047Y-58704761D01*
X100457142Y-58666666D01*
X100533333Y-58628571D01*
X100609523Y-58628571D01*
X101180952Y-59123809D02*
X101104761Y-59161904D01*
X100952380Y-59161904D01*
X100876190Y-59123809D01*
X100838095Y-59047619D01*
X100838095Y-58742857D01*
X100876190Y-58666666D01*
X100952380Y-58628571D01*
X101104761Y-58628571D01*
X101180952Y-58666666D01*
X101219047Y-58742857D01*
X101219047Y-58819047D01*
X100838095Y-58895238D01*
X101523809Y-59123809D02*
X101600000Y-59161904D01*
X101752380Y-59161904D01*
X101828571Y-59123809D01*
X101866666Y-59047619D01*
X101866666Y-59009523D01*
X101828571Y-58933333D01*
X101752380Y-58895238D01*
X101638095Y-58895238D01*
X101561904Y-58857142D01*
X101523809Y-58780952D01*
X101523809Y-58742857D01*
X101561904Y-58666666D01*
X101638095Y-58628571D01*
X101752380Y-58628571D01*
X101828571Y-58666666D01*
X102209523Y-59161904D02*
X102209523Y-58628571D01*
X102209523Y-58361904D02*
X102171428Y-58400000D01*
X102209523Y-58438095D01*
X102247619Y-58400000D01*
X102209523Y-58361904D01*
X102209523Y-58438095D01*
X102552380Y-59123809D02*
X102628571Y-59161904D01*
X102780952Y-59161904D01*
X102857142Y-59123809D01*
X102895238Y-59047619D01*
X102895238Y-59009523D01*
X102857142Y-58933333D01*
X102780952Y-58895238D01*
X102666666Y-58895238D01*
X102590476Y-58857142D01*
X102552380Y-58780952D01*
X102552380Y-58742857D01*
X102590476Y-58666666D01*
X102666666Y-58628571D01*
X102780952Y-58628571D01*
X102857142Y-58666666D01*
X103123809Y-58628571D02*
X103428571Y-58628571D01*
X103238095Y-58361904D02*
X103238095Y-59047619D01*
X103276190Y-59123809D01*
X103352380Y-59161904D01*
X103428571Y-59161904D01*
X103809523Y-59161904D02*
X103733333Y-59123809D01*
X103695238Y-59085714D01*
X103657142Y-59009523D01*
X103657142Y-58780952D01*
X103695238Y-58704761D01*
X103733333Y-58666666D01*
X103809523Y-58628571D01*
X103923809Y-58628571D01*
X104000000Y-58666666D01*
X104038095Y-58704761D01*
X104076190Y-58780952D01*
X104076190Y-59009523D01*
X104038095Y-59085714D01*
X104000000Y-59123809D01*
X103923809Y-59161904D01*
X103809523Y-59161904D01*
X104419047Y-59161904D02*
X104419047Y-58628571D01*
X104419047Y-58780952D02*
X104457142Y-58704761D01*
X104495238Y-58666666D01*
X104571428Y-58628571D01*
X104647619Y-58628571D01*
X104876190Y-59123809D02*
X104952380Y-59161904D01*
X105104761Y-59161904D01*
X105180952Y-59123809D01*
X105219047Y-59047619D01*
X105219047Y-59009523D01*
X105180952Y-58933333D01*
X105104761Y-58895238D01*
X104990476Y-58895238D01*
X104914285Y-58857142D01*
X104876190Y-58780952D01*
X104876190Y-58742857D01*
X104914285Y-58666666D01*
X104990476Y-58628571D01*
X105104761Y-58628571D01*
X105180952Y-58666666D01*
X96723809Y-60449904D02*
X96723809Y-60030857D01*
X96685714Y-59954666D01*
X96609523Y-59916571D01*
X96457142Y-59916571D01*
X96380952Y-59954666D01*
X96723809Y-60411809D02*
X96647619Y-60449904D01*
X96457142Y-60449904D01*
X96380952Y-60411809D01*
X96342857Y-60335619D01*
X96342857Y-60259428D01*
X96380952Y-60183238D01*
X96457142Y-60145142D01*
X96647619Y-60145142D01*
X96723809Y-60107047D01*
X97104761Y-59916571D02*
X97104761Y-60449904D01*
X97104761Y-59992761D02*
X97142857Y-59954666D01*
X97219047Y-59916571D01*
X97333333Y-59916571D01*
X97409523Y-59954666D01*
X97447619Y-60030857D01*
X97447619Y-60449904D01*
X98171428Y-60449904D02*
X98171428Y-59649904D01*
X98171428Y-60411809D02*
X98095238Y-60449904D01*
X97942857Y-60449904D01*
X97866666Y-60411809D01*
X97828571Y-60373714D01*
X97790476Y-60297523D01*
X97790476Y-60068952D01*
X97828571Y-59992761D01*
X97866666Y-59954666D01*
X97942857Y-59916571D01*
X98095238Y-59916571D01*
X98171428Y-59954666D01*
X99161904Y-59916571D02*
X99161904Y-60716571D01*
X99161904Y-59954666D02*
X99238095Y-59916571D01*
X99390476Y-59916571D01*
X99466666Y-59954666D01*
X99504761Y-59992761D01*
X99542857Y-60068952D01*
X99542857Y-60297523D01*
X99504761Y-60373714D01*
X99466666Y-60411809D01*
X99390476Y-60449904D01*
X99238095Y-60449904D01*
X99161904Y-60411809D01*
X100228571Y-59916571D02*
X100228571Y-60449904D01*
X99885714Y-59916571D02*
X99885714Y-60335619D01*
X99923809Y-60411809D01*
X100000000Y-60449904D01*
X100114285Y-60449904D01*
X100190476Y-60411809D01*
X100228571Y-60373714D01*
X100571428Y-60411809D02*
X100647619Y-60449904D01*
X100800000Y-60449904D01*
X100876190Y-60411809D01*
X100914285Y-60335619D01*
X100914285Y-60297523D01*
X100876190Y-60221333D01*
X100800000Y-60183238D01*
X100685714Y-60183238D01*
X100609523Y-60145142D01*
X100571428Y-60068952D01*
X100571428Y-60030857D01*
X100609523Y-59954666D01*
X100685714Y-59916571D01*
X100800000Y-59916571D01*
X100876190Y-59954666D01*
X101257142Y-60449904D02*
X101257142Y-59649904D01*
X101600000Y-60449904D02*
X101600000Y-60030857D01*
X101561904Y-59954666D01*
X101485714Y-59916571D01*
X101371428Y-59916571D01*
X101295238Y-59954666D01*
X101257142Y-59992761D01*
X102590476Y-60449904D02*
X102590476Y-59649904D01*
X102590476Y-59954666D02*
X102666666Y-59916571D01*
X102819047Y-59916571D01*
X102895238Y-59954666D01*
X102933333Y-59992761D01*
X102971428Y-60068952D01*
X102971428Y-60297523D01*
X102933333Y-60373714D01*
X102895238Y-60411809D01*
X102819047Y-60449904D01*
X102666666Y-60449904D01*
X102590476Y-60411809D01*
X103657142Y-59916571D02*
X103657142Y-60449904D01*
X103314285Y-59916571D02*
X103314285Y-60335619D01*
X103352380Y-60411809D01*
X103428571Y-60449904D01*
X103542857Y-60449904D01*
X103619047Y-60411809D01*
X103657142Y-60373714D01*
X103923809Y-59916571D02*
X104228571Y-59916571D01*
X104038095Y-59649904D02*
X104038095Y-60335619D01*
X104076190Y-60411809D01*
X104152380Y-60449904D01*
X104228571Y-60449904D01*
X104380952Y-59916571D02*
X104685714Y-59916571D01*
X104495238Y-59649904D02*
X104495238Y-60335619D01*
X104533333Y-60411809D01*
X104609523Y-60449904D01*
X104685714Y-60449904D01*
X105066666Y-60449904D02*
X104990476Y-60411809D01*
X104952380Y-60373714D01*
X104914285Y-60297523D01*
X104914285Y-60068952D01*
X104952380Y-59992761D01*
X104990476Y-59954666D01*
X105066666Y-59916571D01*
X105180952Y-59916571D01*
X105257142Y-59954666D01*
X105295238Y-59992761D01*
X105333333Y-60068952D01*
X105333333Y-60297523D01*
X105295238Y-60373714D01*
X105257142Y-60411809D01*
X105180952Y-60449904D01*
X105066666Y-60449904D01*
X105676190Y-59916571D02*
X105676190Y-60449904D01*
X105676190Y-59992761D02*
X105714285Y-59954666D01*
X105790476Y-59916571D01*
X105904761Y-59916571D01*
X105980952Y-59954666D01*
X106019047Y-60030857D01*
X106019047Y-60449904D01*
X96514285Y-61737904D02*
X96438095Y-61699809D01*
X96400000Y-61661714D01*
X96361904Y-61585523D01*
X96361904Y-61356952D01*
X96400000Y-61280761D01*
X96438095Y-61242666D01*
X96514285Y-61204571D01*
X96628571Y-61204571D01*
X96704761Y-61242666D01*
X96742857Y-61280761D01*
X96780952Y-61356952D01*
X96780952Y-61585523D01*
X96742857Y-61661714D01*
X96704761Y-61699809D01*
X96628571Y-61737904D01*
X96514285Y-61737904D01*
X97123809Y-61204571D02*
X97123809Y-61737904D01*
X97123809Y-61280761D02*
X97161904Y-61242666D01*
X97238095Y-61204571D01*
X97352380Y-61204571D01*
X97428571Y-61242666D01*
X97466666Y-61318857D01*
X97466666Y-61737904D01*
X98342857Y-61204571D02*
X98647619Y-61204571D01*
X98457142Y-60937904D02*
X98457142Y-61623619D01*
X98495238Y-61699809D01*
X98571428Y-61737904D01*
X98647619Y-61737904D01*
X98914285Y-61737904D02*
X98914285Y-60937904D01*
X99257142Y-61737904D02*
X99257142Y-61318857D01*
X99219047Y-61242666D01*
X99142857Y-61204571D01*
X99028571Y-61204571D01*
X98952380Y-61242666D01*
X98914285Y-61280761D01*
X99942857Y-61699809D02*
X99866666Y-61737904D01*
X99714285Y-61737904D01*
X99638095Y-61699809D01*
X99600000Y-61623619D01*
X99600000Y-61318857D01*
X99638095Y-61242666D01*
X99714285Y-61204571D01*
X99866666Y-61204571D01*
X99942857Y-61242666D01*
X99980952Y-61318857D01*
X99980952Y-61395047D01*
X99600000Y-61471238D01*
X101047619Y-61737904D02*
X100971428Y-61699809D01*
X100933333Y-61661714D01*
X100895238Y-61585523D01*
X100895238Y-61356952D01*
X100933333Y-61280761D01*
X100971428Y-61242666D01*
X101047619Y-61204571D01*
X101161904Y-61204571D01*
X101238095Y-61242666D01*
X101276190Y-61280761D01*
X101314285Y-61356952D01*
X101314285Y-61585523D01*
X101276190Y-61661714D01*
X101238095Y-61699809D01*
X101161904Y-61737904D01*
X101047619Y-61737904D01*
X101657142Y-61204571D02*
X101657142Y-62004571D01*
X101657142Y-61242666D02*
X101733333Y-61204571D01*
X101885714Y-61204571D01*
X101961904Y-61242666D01*
X102000000Y-61280761D01*
X102038095Y-61356952D01*
X102038095Y-61585523D01*
X102000000Y-61661714D01*
X101961904Y-61699809D01*
X101885714Y-61737904D01*
X101733333Y-61737904D01*
X101657142Y-61699809D01*
X102380952Y-61204571D02*
X102380952Y-62004571D01*
X102380952Y-61242666D02*
X102457142Y-61204571D01*
X102609523Y-61204571D01*
X102685714Y-61242666D01*
X102723809Y-61280761D01*
X102761904Y-61356952D01*
X102761904Y-61585523D01*
X102723809Y-61661714D01*
X102685714Y-61699809D01*
X102609523Y-61737904D01*
X102457142Y-61737904D01*
X102380952Y-61699809D01*
X103219047Y-61737904D02*
X103142857Y-61699809D01*
X103104761Y-61661714D01*
X103066666Y-61585523D01*
X103066666Y-61356952D01*
X103104761Y-61280761D01*
X103142857Y-61242666D01*
X103219047Y-61204571D01*
X103333333Y-61204571D01*
X103409523Y-61242666D01*
X103447619Y-61280761D01*
X103485714Y-61356952D01*
X103485714Y-61585523D01*
X103447619Y-61661714D01*
X103409523Y-61699809D01*
X103333333Y-61737904D01*
X103219047Y-61737904D01*
X103790476Y-61699809D02*
X103866666Y-61737904D01*
X104019047Y-61737904D01*
X104095238Y-61699809D01*
X104133333Y-61623619D01*
X104133333Y-61585523D01*
X104095238Y-61509333D01*
X104019047Y-61471238D01*
X103904761Y-61471238D01*
X103828571Y-61433142D01*
X103790476Y-61356952D01*
X103790476Y-61318857D01*
X103828571Y-61242666D01*
X103904761Y-61204571D01*
X104019047Y-61204571D01*
X104095238Y-61242666D01*
X104476190Y-61737904D02*
X104476190Y-61204571D01*
X104476190Y-60937904D02*
X104438095Y-60976000D01*
X104476190Y-61014095D01*
X104514285Y-60976000D01*
X104476190Y-60937904D01*
X104476190Y-61014095D01*
X104742857Y-61204571D02*
X105047619Y-61204571D01*
X104857142Y-60937904D02*
X104857142Y-61623619D01*
X104895238Y-61699809D01*
X104971428Y-61737904D01*
X105047619Y-61737904D01*
X105619047Y-61699809D02*
X105542857Y-61737904D01*
X105390476Y-61737904D01*
X105314285Y-61699809D01*
X105276190Y-61623619D01*
X105276190Y-61318857D01*
X105314285Y-61242666D01*
X105390476Y-61204571D01*
X105542857Y-61204571D01*
X105619047Y-61242666D01*
X105657142Y-61318857D01*
X105657142Y-61395047D01*
X105276190Y-61471238D01*
X106000000Y-61661714D02*
X106038095Y-61699809D01*
X106000000Y-61737904D01*
X105961904Y-61699809D01*
X106000000Y-61661714D01*
X106000000Y-61737904D01*
X141274549Y-81385514D02*
X141274549Y-81439389D01*
X141220674Y-81547138D01*
X141166800Y-81601013D01*
X141059050Y-81654888D01*
X140951300Y-81654888D01*
X140870488Y-81627951D01*
X140735801Y-81547138D01*
X140654989Y-81466326D01*
X140574177Y-81331639D01*
X140547239Y-81250827D01*
X140547239Y-81143077D01*
X140601114Y-81035328D01*
X140654989Y-80981453D01*
X140762738Y-80927578D01*
X140816613Y-80927578D01*
X141274549Y-80361893D02*
X141005175Y-80631267D01*
X141247612Y-80927578D01*
X141247612Y-80873703D01*
X141274549Y-80792891D01*
X141409236Y-80658204D01*
X141490048Y-80631267D01*
X141543923Y-80631267D01*
X141624735Y-80658204D01*
X141759422Y-80792891D01*
X141786360Y-80873703D01*
X141786360Y-80927578D01*
X141759422Y-81008390D01*
X141624735Y-81143077D01*
X141543923Y-81170015D01*
X141490048Y-81170015D01*
X95066971Y-84787039D02*
X94501285Y-84221354D01*
X95093908Y-84436853D01*
X94878409Y-83844230D01*
X95444094Y-84409915D01*
X95713468Y-84140541D02*
X95147783Y-83574856D01*
X95928967Y-83871167D02*
X96036717Y-83817293D01*
X96171404Y-83682606D01*
X96198341Y-83601793D01*
X96198341Y-83547919D01*
X96171404Y-83467106D01*
X96117529Y-83413232D01*
X96036717Y-83386294D01*
X95982842Y-83386294D01*
X95902030Y-83413232D01*
X95767343Y-83494044D01*
X95686531Y-83520981D01*
X95632656Y-83520981D01*
X95551844Y-83494044D01*
X95497969Y-83440169D01*
X95471032Y-83359357D01*
X95471032Y-83305482D01*
X95497969Y-83224670D01*
X95632656Y-83089983D01*
X95740406Y-83036108D01*
X96063654Y-82658984D02*
X96171404Y-82551235D01*
X96252216Y-82524297D01*
X96359966Y-82524297D01*
X96494653Y-82605110D01*
X96683215Y-82793671D01*
X96764027Y-82928358D01*
X96764027Y-83036108D01*
X96737089Y-83116920D01*
X96629340Y-83224670D01*
X96548528Y-83251607D01*
X96440778Y-83251607D01*
X96306091Y-83170795D01*
X96117529Y-82982233D01*
X96036717Y-82847546D01*
X96036717Y-82739797D01*
X96063654Y-82658984D01*
X136493333Y-68361904D02*
X136760000Y-69161904D01*
X137026666Y-68361904D01*
X137560000Y-68742857D02*
X137674285Y-68780952D01*
X137712380Y-68819047D01*
X137750476Y-68895238D01*
X137750476Y-69009523D01*
X137712380Y-69085714D01*
X137674285Y-69123809D01*
X137598095Y-69161904D01*
X137293333Y-69161904D01*
X137293333Y-68361904D01*
X137560000Y-68361904D01*
X137636190Y-68400000D01*
X137674285Y-68438095D01*
X137712380Y-68514285D01*
X137712380Y-68590476D01*
X137674285Y-68666666D01*
X137636190Y-68704761D01*
X137560000Y-68742857D01*
X137293333Y-68742857D01*
X139701561Y-71645904D02*
X139701561Y-70845904D01*
X139968228Y-71417333D01*
X140234895Y-70845904D01*
X140234895Y-71645904D01*
X140577752Y-71417333D02*
X140958704Y-71417333D01*
X140501561Y-71645904D02*
X140768228Y-70845904D01*
X141034895Y-71645904D01*
X141187276Y-70845904D02*
X141644418Y-70845904D01*
X141415847Y-71645904D02*
X141415847Y-70845904D01*
X142368228Y-71645904D02*
X142101561Y-71264952D01*
X141911085Y-71645904D02*
X141911085Y-70845904D01*
X142215847Y-70845904D01*
X142292037Y-70884000D01*
X142330133Y-70922095D01*
X142368228Y-70998285D01*
X142368228Y-71112571D01*
X142330133Y-71188761D01*
X142292037Y-71226857D01*
X142215847Y-71264952D01*
X141911085Y-71264952D01*
X142711085Y-71645904D02*
X142711085Y-70845904D01*
X143015847Y-70845904D02*
X143549180Y-71645904D01*
X143549180Y-70845904D02*
X143015847Y-71645904D01*
X107368624Y-73865095D02*
X106910688Y-73784283D01*
X107045375Y-74188344D02*
X106479690Y-73622658D01*
X106695189Y-73407159D01*
X106776001Y-73380221D01*
X106829876Y-73380221D01*
X106910688Y-73407159D01*
X106991500Y-73487971D01*
X107018438Y-73568783D01*
X107018438Y-73622658D01*
X106991500Y-73703470D01*
X106776001Y-73918970D01*
X107476374Y-73003098D02*
X107853497Y-73380221D01*
X107126187Y-72922286D02*
X107395561Y-73461034D01*
X107745748Y-73110847D01*
X141328424Y-73819389D02*
X140870488Y-73738577D01*
X141005175Y-74142638D02*
X140439490Y-73576952D01*
X140654989Y-73361453D01*
X140735801Y-73334515D01*
X140789676Y-73334515D01*
X140870488Y-73361453D01*
X140951300Y-73442265D01*
X140978238Y-73523077D01*
X140978238Y-73576952D01*
X140951300Y-73657764D01*
X140735801Y-73873264D01*
X141436174Y-72957392D02*
X141813297Y-73334515D01*
X141085987Y-72876580D02*
X141355361Y-73415328D01*
X141705548Y-73065141D01*
X101882224Y-76280186D02*
X101424288Y-76199374D01*
X101558975Y-76603435D02*
X100993290Y-76037749D01*
X101208789Y-75822250D01*
X101289601Y-75795312D01*
X101343476Y-75795312D01*
X101424288Y-75822250D01*
X101505100Y-75903062D01*
X101532038Y-75983874D01*
X101532038Y-76037749D01*
X101505100Y-76118561D01*
X101289601Y-76334061D01*
X102420972Y-75741438D02*
X102097723Y-76064687D01*
X102259348Y-75903062D02*
X101693662Y-75337377D01*
X101720600Y-75472064D01*
X101720600Y-75579813D01*
X101693662Y-75660625D01*
X149160612Y-71607809D02*
X149274898Y-71645904D01*
X149465374Y-71645904D01*
X149541564Y-71607809D01*
X149579660Y-71569714D01*
X149617755Y-71493523D01*
X149617755Y-71417333D01*
X149579660Y-71341142D01*
X149541564Y-71303047D01*
X149465374Y-71264952D01*
X149312993Y-71226857D01*
X149236802Y-71188761D01*
X149198707Y-71150666D01*
X149160612Y-71074476D01*
X149160612Y-70998285D01*
X149198707Y-70922095D01*
X149236802Y-70884000D01*
X149312993Y-70845904D01*
X149503469Y-70845904D01*
X149617755Y-70884000D01*
X149960612Y-71645904D02*
X149960612Y-70845904D01*
X150265374Y-70845904D01*
X150341564Y-70884000D01*
X150379660Y-70922095D01*
X150417755Y-70998285D01*
X150417755Y-71112571D01*
X150379660Y-71188761D01*
X150341564Y-71226857D01*
X150265374Y-71264952D01*
X149960612Y-71264952D01*
X150760612Y-71645904D02*
X150760612Y-70845904D01*
X146887949Y-81435511D02*
X146887949Y-81489386D01*
X146834074Y-81597135D01*
X146780200Y-81651010D01*
X146672450Y-81704885D01*
X146564700Y-81704885D01*
X146483888Y-81677948D01*
X146349201Y-81597135D01*
X146268389Y-81516323D01*
X146187577Y-81381636D01*
X146160639Y-81300824D01*
X146160639Y-81193074D01*
X146214514Y-81085325D01*
X146268389Y-81031450D01*
X146376138Y-80977575D01*
X146430013Y-80977575D01*
X147480572Y-80950638D02*
X147157323Y-81273887D01*
X147318948Y-81112262D02*
X146753262Y-80546577D01*
X146780200Y-80681264D01*
X146780200Y-80789013D01*
X146753262Y-80869825D01*
X110172571Y-56494809D02*
X110286857Y-56532904D01*
X110477333Y-56532904D01*
X110553523Y-56494809D01*
X110591619Y-56456714D01*
X110629714Y-56380523D01*
X110629714Y-56304333D01*
X110591619Y-56228142D01*
X110553523Y-56190047D01*
X110477333Y-56151952D01*
X110324952Y-56113857D01*
X110248761Y-56075761D01*
X110210666Y-56037666D01*
X110172571Y-55961476D01*
X110172571Y-55885285D01*
X110210666Y-55809095D01*
X110248761Y-55771000D01*
X110324952Y-55732904D01*
X110515428Y-55732904D01*
X110629714Y-55771000D01*
X110972571Y-56532904D02*
X110972571Y-55732904D01*
X111163047Y-55732904D01*
X111277333Y-55771000D01*
X111353523Y-55847190D01*
X111391619Y-55923380D01*
X111429714Y-56075761D01*
X111429714Y-56190047D01*
X111391619Y-56342428D01*
X111353523Y-56418619D01*
X111277333Y-56494809D01*
X111163047Y-56532904D01*
X110972571Y-56532904D01*
X111734476Y-56304333D02*
X112115428Y-56304333D01*
X111658285Y-56532904D02*
X111924952Y-55732904D01*
X112191619Y-56532904D01*
X154617728Y-71607809D02*
X154732014Y-71645904D01*
X154922490Y-71645904D01*
X154998680Y-71607809D01*
X155036776Y-71569714D01*
X155074871Y-71493523D01*
X155074871Y-71417333D01*
X155036776Y-71341142D01*
X154998680Y-71303047D01*
X154922490Y-71264952D01*
X154770109Y-71226857D01*
X154693918Y-71188761D01*
X154655823Y-71150666D01*
X154617728Y-71074476D01*
X154617728Y-70998285D01*
X154655823Y-70922095D01*
X154693918Y-70884000D01*
X154770109Y-70845904D01*
X154960585Y-70845904D01*
X155074871Y-70884000D01*
X155417728Y-71645904D02*
X155417728Y-70845904D01*
X155722490Y-70845904D01*
X155798680Y-70884000D01*
X155836776Y-70922095D01*
X155874871Y-70998285D01*
X155874871Y-71112571D01*
X155836776Y-71188761D01*
X155798680Y-71226857D01*
X155722490Y-71264952D01*
X155417728Y-71264952D01*
X156217728Y-71645904D02*
X156217728Y-70845904D01*
X157295904Y-83011904D02*
X157295904Y-82554761D01*
X158095904Y-82783333D02*
X157295904Y-82783333D01*
X158095904Y-81830952D02*
X157714952Y-82097619D01*
X158095904Y-82288095D02*
X157295904Y-82288095D01*
X157295904Y-81983333D01*
X157334000Y-81907142D01*
X157372095Y-81869047D01*
X157448285Y-81830952D01*
X157562571Y-81830952D01*
X157638761Y-81869047D01*
X157676857Y-81907142D01*
X157714952Y-81983333D01*
X157714952Y-82288095D01*
X157867333Y-81526190D02*
X157867333Y-81145238D01*
X158095904Y-81602380D02*
X157295904Y-81335714D01*
X158095904Y-81069047D01*
X158019714Y-80345238D02*
X158057809Y-80383333D01*
X158095904Y-80497619D01*
X158095904Y-80573809D01*
X158057809Y-80688095D01*
X157981619Y-80764285D01*
X157905428Y-80802380D01*
X157753047Y-80840476D01*
X157638761Y-80840476D01*
X157486380Y-80802380D01*
X157410190Y-80764285D01*
X157334000Y-80688095D01*
X157295904Y-80573809D01*
X157295904Y-80497619D01*
X157334000Y-80383333D01*
X157372095Y-80345238D01*
X158095904Y-80002380D02*
X157295904Y-80002380D01*
X158095904Y-79545238D02*
X157638761Y-79888095D01*
X157295904Y-79545238D02*
X157753047Y-80002380D01*
X157676857Y-78935714D02*
X157714952Y-78821428D01*
X157753047Y-78783333D01*
X157829238Y-78745238D01*
X157943523Y-78745238D01*
X158019714Y-78783333D01*
X158057809Y-78821428D01*
X158095904Y-78897619D01*
X158095904Y-79202380D01*
X157295904Y-79202380D01*
X157295904Y-78935714D01*
X157334000Y-78859523D01*
X157372095Y-78821428D01*
X157448285Y-78783333D01*
X157524476Y-78783333D01*
X157600666Y-78821428D01*
X157638761Y-78859523D01*
X157676857Y-78935714D01*
X157676857Y-79202380D01*
X157867333Y-78440476D02*
X157867333Y-78059523D01*
X158095904Y-78516666D02*
X157295904Y-78250000D01*
X158095904Y-77983333D01*
X158095904Y-77335714D02*
X158095904Y-77716666D01*
X157295904Y-77716666D01*
X158095904Y-76688095D02*
X158095904Y-77069047D01*
X157295904Y-77069047D01*
X86103381Y-25280000D02*
X86027190Y-25241904D01*
X85912905Y-25241904D01*
X85798619Y-25280000D01*
X85722428Y-25356190D01*
X85684333Y-25432380D01*
X85646238Y-25584761D01*
X85646238Y-25699047D01*
X85684333Y-25851428D01*
X85722428Y-25927619D01*
X85798619Y-26003809D01*
X85912905Y-26041904D01*
X85989095Y-26041904D01*
X86103381Y-26003809D01*
X86141476Y-25965714D01*
X86141476Y-25699047D01*
X85989095Y-25699047D01*
X86484333Y-26041904D02*
X86484333Y-25241904D01*
X86941476Y-26041904D01*
X86941476Y-25241904D01*
X87322428Y-26041904D02*
X87322428Y-25241904D01*
X87512905Y-25241904D01*
X87627190Y-25280000D01*
X87703381Y-25356190D01*
X87741476Y-25432380D01*
X87779571Y-25584761D01*
X87779571Y-25699047D01*
X87741476Y-25851428D01*
X87703381Y-25927619D01*
X87627190Y-26003809D01*
X87512905Y-26041904D01*
X87322428Y-26041904D01*
X142590476Y-50145904D02*
X142590476Y-49345904D01*
X142971428Y-49612571D02*
X142971428Y-50145904D01*
X142971428Y-49688761D02*
X143009523Y-49650666D01*
X143085714Y-49612571D01*
X143200000Y-49612571D01*
X143276190Y-49650666D01*
X143314285Y-49726857D01*
X143314285Y-50145904D01*
X143657142Y-50107809D02*
X143733333Y-50145904D01*
X143885714Y-50145904D01*
X143961904Y-50107809D01*
X144000000Y-50031619D01*
X144000000Y-49993523D01*
X143961904Y-49917333D01*
X143885714Y-49879238D01*
X143771428Y-49879238D01*
X143695238Y-49841142D01*
X143657142Y-49764952D01*
X143657142Y-49726857D01*
X143695238Y-49650666D01*
X143771428Y-49612571D01*
X143885714Y-49612571D01*
X143961904Y-49650666D01*
X144228571Y-49612571D02*
X144533333Y-49612571D01*
X144342857Y-49345904D02*
X144342857Y-50031619D01*
X144380952Y-50107809D01*
X144457142Y-50145904D01*
X144533333Y-50145904D01*
X145142857Y-50145904D02*
X145142857Y-49726857D01*
X145104761Y-49650666D01*
X145028571Y-49612571D01*
X144876190Y-49612571D01*
X144800000Y-49650666D01*
X145142857Y-50107809D02*
X145066666Y-50145904D01*
X144876190Y-50145904D01*
X144800000Y-50107809D01*
X144761904Y-50031619D01*
X144761904Y-49955428D01*
X144800000Y-49879238D01*
X144876190Y-49841142D01*
X145066666Y-49841142D01*
X145142857Y-49803047D01*
X145638095Y-50145904D02*
X145561904Y-50107809D01*
X145523809Y-50031619D01*
X145523809Y-49345904D01*
X146057142Y-50145904D02*
X145980952Y-50107809D01*
X145942857Y-50031619D01*
X145942857Y-49345904D01*
X147238095Y-49726857D02*
X147352380Y-49764952D01*
X147390476Y-49803047D01*
X147428571Y-49879238D01*
X147428571Y-49993523D01*
X147390476Y-50069714D01*
X147352380Y-50107809D01*
X147276190Y-50145904D01*
X146971428Y-50145904D01*
X146971428Y-49345904D01*
X147238095Y-49345904D01*
X147314285Y-49384000D01*
X147352380Y-49422095D01*
X147390476Y-49498285D01*
X147390476Y-49574476D01*
X147352380Y-49650666D01*
X147314285Y-49688761D01*
X147238095Y-49726857D01*
X146971428Y-49726857D01*
X147885714Y-50145904D02*
X147809523Y-50107809D01*
X147771428Y-50031619D01*
X147771428Y-49345904D01*
X148533333Y-50145904D02*
X148533333Y-49726857D01*
X148495238Y-49650666D01*
X148419047Y-49612571D01*
X148266666Y-49612571D01*
X148190476Y-49650666D01*
X148533333Y-50107809D02*
X148457142Y-50145904D01*
X148266666Y-50145904D01*
X148190476Y-50107809D01*
X148152380Y-50031619D01*
X148152380Y-49955428D01*
X148190476Y-49879238D01*
X148266666Y-49841142D01*
X148457142Y-49841142D01*
X148533333Y-49803047D01*
X149257142Y-50107809D02*
X149180952Y-50145904D01*
X149028571Y-50145904D01*
X148952380Y-50107809D01*
X148914285Y-50069714D01*
X148876190Y-49993523D01*
X148876190Y-49764952D01*
X148914285Y-49688761D01*
X148952380Y-49650666D01*
X149028571Y-49612571D01*
X149180952Y-49612571D01*
X149257142Y-49650666D01*
X149600000Y-50145904D02*
X149600000Y-49345904D01*
X149676190Y-49841142D02*
X149904761Y-50145904D01*
X149904761Y-49612571D02*
X149600000Y-49917333D01*
X150247619Y-49612571D02*
X150247619Y-50412571D01*
X150247619Y-49650666D02*
X150323809Y-49612571D01*
X150476190Y-49612571D01*
X150552380Y-49650666D01*
X150590476Y-49688761D01*
X150628571Y-49764952D01*
X150628571Y-49993523D01*
X150590476Y-50069714D01*
X150552380Y-50107809D01*
X150476190Y-50145904D01*
X150323809Y-50145904D01*
X150247619Y-50107809D01*
X150971428Y-50145904D02*
X150971428Y-49612571D01*
X150971428Y-49345904D02*
X150933333Y-49384000D01*
X150971428Y-49422095D01*
X151009523Y-49384000D01*
X150971428Y-49345904D01*
X150971428Y-49422095D01*
X151466666Y-50145904D02*
X151390476Y-50107809D01*
X151352380Y-50031619D01*
X151352380Y-49345904D01*
X151885714Y-50145904D02*
X151809523Y-50107809D01*
X151771428Y-50031619D01*
X151771428Y-49345904D01*
X143980952Y-50900571D02*
X143980952Y-51433904D01*
X143638095Y-50900571D02*
X143638095Y-51319619D01*
X143676190Y-51395809D01*
X143752380Y-51433904D01*
X143866666Y-51433904D01*
X143942857Y-51395809D01*
X143980952Y-51357714D01*
X144361904Y-50900571D02*
X144361904Y-51700571D01*
X144361904Y-50938666D02*
X144438095Y-50900571D01*
X144590476Y-50900571D01*
X144666666Y-50938666D01*
X144704761Y-50976761D01*
X144742857Y-51052952D01*
X144742857Y-51281523D01*
X144704761Y-51357714D01*
X144666666Y-51395809D01*
X144590476Y-51433904D01*
X144438095Y-51433904D01*
X144361904Y-51395809D01*
X145047619Y-51395809D02*
X145123809Y-51433904D01*
X145276190Y-51433904D01*
X145352380Y-51395809D01*
X145390476Y-51319619D01*
X145390476Y-51281523D01*
X145352380Y-51205333D01*
X145276190Y-51167238D01*
X145161904Y-51167238D01*
X145085714Y-51129142D01*
X145047619Y-51052952D01*
X145047619Y-51014857D01*
X145085714Y-50938666D01*
X145161904Y-50900571D01*
X145276190Y-50900571D01*
X145352380Y-50938666D01*
X145733333Y-51433904D02*
X145733333Y-50900571D01*
X145733333Y-50633904D02*
X145695238Y-50672000D01*
X145733333Y-50710095D01*
X145771428Y-50672000D01*
X145733333Y-50633904D01*
X145733333Y-50710095D01*
X146457142Y-51433904D02*
X146457142Y-50633904D01*
X146457142Y-51395809D02*
X146380952Y-51433904D01*
X146228571Y-51433904D01*
X146152380Y-51395809D01*
X146114285Y-51357714D01*
X146076190Y-51281523D01*
X146076190Y-51052952D01*
X146114285Y-50976761D01*
X146152380Y-50938666D01*
X146228571Y-50900571D01*
X146380952Y-50900571D01*
X146457142Y-50938666D01*
X147142857Y-51395809D02*
X147066666Y-51433904D01*
X146914285Y-51433904D01*
X146838095Y-51395809D01*
X146800000Y-51319619D01*
X146800000Y-51014857D01*
X146838095Y-50938666D01*
X146914285Y-50900571D01*
X147066666Y-50900571D01*
X147142857Y-50938666D01*
X147180952Y-51014857D01*
X147180952Y-51091047D01*
X146800000Y-51167238D01*
X148476190Y-51433904D02*
X148476190Y-50633904D01*
X148476190Y-51395809D02*
X148400000Y-51433904D01*
X148247619Y-51433904D01*
X148171428Y-51395809D01*
X148133333Y-51357714D01*
X148095238Y-51281523D01*
X148095238Y-51052952D01*
X148133333Y-50976761D01*
X148171428Y-50938666D01*
X148247619Y-50900571D01*
X148400000Y-50900571D01*
X148476190Y-50938666D01*
X148971428Y-51433904D02*
X148895238Y-51395809D01*
X148857142Y-51357714D01*
X148819047Y-51281523D01*
X148819047Y-51052952D01*
X148857142Y-50976761D01*
X148895238Y-50938666D01*
X148971428Y-50900571D01*
X149085714Y-50900571D01*
X149161904Y-50938666D01*
X149200000Y-50976761D01*
X149238095Y-51052952D01*
X149238095Y-51281523D01*
X149200000Y-51357714D01*
X149161904Y-51395809D01*
X149085714Y-51433904D01*
X148971428Y-51433904D01*
X149504761Y-50900571D02*
X149657142Y-51433904D01*
X149809523Y-51052952D01*
X149961904Y-51433904D01*
X150114285Y-50900571D01*
X150419047Y-50900571D02*
X150419047Y-51433904D01*
X150419047Y-50976761D02*
X150457142Y-50938666D01*
X150533333Y-50900571D01*
X150647619Y-50900571D01*
X150723809Y-50938666D01*
X150761904Y-51014857D01*
X150761904Y-51433904D01*
X142990476Y-52188571D02*
X143295238Y-52188571D01*
X143104761Y-51921904D02*
X143104761Y-52607619D01*
X143142857Y-52683809D01*
X143219047Y-52721904D01*
X143295238Y-52721904D01*
X143676190Y-52721904D02*
X143600000Y-52683809D01*
X143561904Y-52645714D01*
X143523809Y-52569523D01*
X143523809Y-52340952D01*
X143561904Y-52264761D01*
X143600000Y-52226666D01*
X143676190Y-52188571D01*
X143790476Y-52188571D01*
X143866666Y-52226666D01*
X143904761Y-52264761D01*
X143942857Y-52340952D01*
X143942857Y-52569523D01*
X143904761Y-52645714D01*
X143866666Y-52683809D01*
X143790476Y-52721904D01*
X143676190Y-52721904D01*
X144628571Y-52188571D02*
X144628571Y-52836190D01*
X144590476Y-52912380D01*
X144552380Y-52950476D01*
X144476190Y-52988571D01*
X144361904Y-52988571D01*
X144285714Y-52950476D01*
X144628571Y-52683809D02*
X144552380Y-52721904D01*
X144400000Y-52721904D01*
X144323809Y-52683809D01*
X144285714Y-52645714D01*
X144247619Y-52569523D01*
X144247619Y-52340952D01*
X144285714Y-52264761D01*
X144323809Y-52226666D01*
X144400000Y-52188571D01*
X144552380Y-52188571D01*
X144628571Y-52226666D01*
X145314285Y-52683809D02*
X145238095Y-52721904D01*
X145085714Y-52721904D01*
X145009523Y-52683809D01*
X144971428Y-52607619D01*
X144971428Y-52302857D01*
X145009523Y-52226666D01*
X145085714Y-52188571D01*
X145238095Y-52188571D01*
X145314285Y-52226666D01*
X145352380Y-52302857D01*
X145352380Y-52379047D01*
X144971428Y-52455238D01*
X145580952Y-52188571D02*
X145885714Y-52188571D01*
X145695238Y-51921904D02*
X145695238Y-52607619D01*
X145733333Y-52683809D01*
X145809523Y-52721904D01*
X145885714Y-52721904D01*
X146152380Y-52721904D02*
X146152380Y-51921904D01*
X146495238Y-52721904D02*
X146495238Y-52302857D01*
X146457142Y-52226666D01*
X146380952Y-52188571D01*
X146266666Y-52188571D01*
X146190476Y-52226666D01*
X146152380Y-52264761D01*
X147180952Y-52683809D02*
X147104761Y-52721904D01*
X146952380Y-52721904D01*
X146876190Y-52683809D01*
X146838095Y-52607619D01*
X146838095Y-52302857D01*
X146876190Y-52226666D01*
X146952380Y-52188571D01*
X147104761Y-52188571D01*
X147180952Y-52226666D01*
X147219047Y-52302857D01*
X147219047Y-52379047D01*
X146838095Y-52455238D01*
X147561904Y-52721904D02*
X147561904Y-52188571D01*
X147561904Y-52340952D02*
X147600000Y-52264761D01*
X147638095Y-52226666D01*
X147714285Y-52188571D01*
X147790476Y-52188571D01*
X148590476Y-52188571D02*
X148742857Y-52721904D01*
X148895238Y-52340952D01*
X149047619Y-52721904D01*
X149200000Y-52188571D01*
X149504761Y-52721904D02*
X149504761Y-52188571D01*
X149504761Y-51921904D02*
X149466666Y-51960000D01*
X149504761Y-51998095D01*
X149542857Y-51960000D01*
X149504761Y-51921904D01*
X149504761Y-51998095D01*
X149771428Y-52188571D02*
X150076190Y-52188571D01*
X149885714Y-51921904D02*
X149885714Y-52607619D01*
X149923809Y-52683809D01*
X150000000Y-52721904D01*
X150076190Y-52721904D01*
X150342857Y-52721904D02*
X150342857Y-51921904D01*
X150685714Y-52721904D02*
X150685714Y-52302857D01*
X150647619Y-52226666D01*
X150571428Y-52188571D01*
X150457142Y-52188571D01*
X150380952Y-52226666D01*
X150342857Y-52264761D01*
X143257142Y-54009904D02*
X143257142Y-53476571D01*
X143257142Y-53628952D02*
X143295238Y-53552761D01*
X143333333Y-53514666D01*
X143409523Y-53476571D01*
X143485714Y-53476571D01*
X143752380Y-54009904D02*
X143752380Y-53476571D01*
X143752380Y-53209904D02*
X143714285Y-53248000D01*
X143752380Y-53286095D01*
X143790476Y-53248000D01*
X143752380Y-53209904D01*
X143752380Y-53286095D01*
X144133333Y-54009904D02*
X144133333Y-53209904D01*
X144133333Y-53514666D02*
X144209523Y-53476571D01*
X144361904Y-53476571D01*
X144438095Y-53514666D01*
X144476190Y-53552761D01*
X144514285Y-53628952D01*
X144514285Y-53857523D01*
X144476190Y-53933714D01*
X144438095Y-53971809D01*
X144361904Y-54009904D01*
X144209523Y-54009904D01*
X144133333Y-53971809D01*
X144857142Y-54009904D02*
X144857142Y-53209904D01*
X144857142Y-53514666D02*
X144933333Y-53476571D01*
X145085714Y-53476571D01*
X145161904Y-53514666D01*
X145200000Y-53552761D01*
X145238095Y-53628952D01*
X145238095Y-53857523D01*
X145200000Y-53933714D01*
X145161904Y-53971809D01*
X145085714Y-54009904D01*
X144933333Y-54009904D01*
X144857142Y-53971809D01*
X145695238Y-54009904D02*
X145619047Y-53971809D01*
X145580952Y-53933714D01*
X145542857Y-53857523D01*
X145542857Y-53628952D01*
X145580952Y-53552761D01*
X145619047Y-53514666D01*
X145695238Y-53476571D01*
X145809523Y-53476571D01*
X145885714Y-53514666D01*
X145923809Y-53552761D01*
X145961904Y-53628952D01*
X145961904Y-53857523D01*
X145923809Y-53933714D01*
X145885714Y-53971809D01*
X145809523Y-54009904D01*
X145695238Y-54009904D01*
X146304761Y-53476571D02*
X146304761Y-54009904D01*
X146304761Y-53552761D02*
X146342857Y-53514666D01*
X146419047Y-53476571D01*
X146533333Y-53476571D01*
X146609523Y-53514666D01*
X146647619Y-53590857D01*
X146647619Y-54009904D01*
X147980952Y-53971809D02*
X147904761Y-54009904D01*
X147752380Y-54009904D01*
X147676190Y-53971809D01*
X147638095Y-53933714D01*
X147600000Y-53857523D01*
X147600000Y-53628952D01*
X147638095Y-53552761D01*
X147676190Y-53514666D01*
X147752380Y-53476571D01*
X147904761Y-53476571D01*
X147980952Y-53514666D01*
X148666666Y-54009904D02*
X148666666Y-53590857D01*
X148628571Y-53514666D01*
X148552380Y-53476571D01*
X148400000Y-53476571D01*
X148323809Y-53514666D01*
X148666666Y-53971809D02*
X148590476Y-54009904D01*
X148400000Y-54009904D01*
X148323809Y-53971809D01*
X148285714Y-53895619D01*
X148285714Y-53819428D01*
X148323809Y-53743238D01*
X148400000Y-53705142D01*
X148590476Y-53705142D01*
X148666666Y-53667047D01*
X149047619Y-54009904D02*
X149047619Y-53209904D01*
X149047619Y-53514666D02*
X149123809Y-53476571D01*
X149276190Y-53476571D01*
X149352380Y-53514666D01*
X149390476Y-53552761D01*
X149428571Y-53628952D01*
X149428571Y-53857523D01*
X149390476Y-53933714D01*
X149352380Y-53971809D01*
X149276190Y-54009904D01*
X149123809Y-54009904D01*
X149047619Y-53971809D01*
X149885714Y-54009904D02*
X149809523Y-53971809D01*
X149771428Y-53895619D01*
X149771428Y-53209904D01*
X150495238Y-53971809D02*
X150419047Y-54009904D01*
X150266666Y-54009904D01*
X150190476Y-53971809D01*
X150152380Y-53895619D01*
X150152380Y-53590857D01*
X150190476Y-53514666D01*
X150266666Y-53476571D01*
X150419047Y-53476571D01*
X150495238Y-53514666D01*
X150533333Y-53590857D01*
X150533333Y-53667047D01*
X150152380Y-53743238D01*
X150838095Y-53971809D02*
X150914285Y-54009904D01*
X151066666Y-54009904D01*
X151142857Y-53971809D01*
X151180952Y-53895619D01*
X151180952Y-53857523D01*
X151142857Y-53781333D01*
X151066666Y-53743238D01*
X150952380Y-53743238D01*
X150876190Y-53705142D01*
X150838095Y-53628952D01*
X150838095Y-53590857D01*
X150876190Y-53514666D01*
X150952380Y-53476571D01*
X151066666Y-53476571D01*
X151142857Y-53514666D01*
X144019047Y-55297904D02*
X144019047Y-54878857D01*
X143980952Y-54802666D01*
X143904761Y-54764571D01*
X143752380Y-54764571D01*
X143676190Y-54802666D01*
X144019047Y-55259809D02*
X143942857Y-55297904D01*
X143752380Y-55297904D01*
X143676190Y-55259809D01*
X143638095Y-55183619D01*
X143638095Y-55107428D01*
X143676190Y-55031238D01*
X143752380Y-54993142D01*
X143942857Y-54993142D01*
X144019047Y-54955047D01*
X144400000Y-54764571D02*
X144400000Y-55297904D01*
X144400000Y-54840761D02*
X144438095Y-54802666D01*
X144514285Y-54764571D01*
X144628571Y-54764571D01*
X144704761Y-54802666D01*
X144742857Y-54878857D01*
X144742857Y-55297904D01*
X145466666Y-55297904D02*
X145466666Y-54497904D01*
X145466666Y-55259809D02*
X145390476Y-55297904D01*
X145238095Y-55297904D01*
X145161904Y-55259809D01*
X145123809Y-55221714D01*
X145085714Y-55145523D01*
X145085714Y-54916952D01*
X145123809Y-54840761D01*
X145161904Y-54802666D01*
X145238095Y-54764571D01*
X145390476Y-54764571D01*
X145466666Y-54802666D01*
X146342857Y-54764571D02*
X146647619Y-54764571D01*
X146457142Y-54497904D02*
X146457142Y-55183619D01*
X146495238Y-55259809D01*
X146571428Y-55297904D01*
X146647619Y-55297904D01*
X146914285Y-55297904D02*
X146914285Y-54764571D01*
X146914285Y-54916952D02*
X146952380Y-54840761D01*
X146990476Y-54802666D01*
X147066666Y-54764571D01*
X147142857Y-54764571D01*
X147371428Y-55259809D02*
X147447619Y-55297904D01*
X147600000Y-55297904D01*
X147676190Y-55259809D01*
X147714285Y-55183619D01*
X147714285Y-55145523D01*
X147676190Y-55069333D01*
X147600000Y-55031238D01*
X147485714Y-55031238D01*
X147409523Y-54993142D01*
X147371428Y-54916952D01*
X147371428Y-54878857D01*
X147409523Y-54802666D01*
X147485714Y-54764571D01*
X147600000Y-54764571D01*
X147676190Y-54802666D01*
X148666666Y-54764571D02*
X148666666Y-55450285D01*
X148628571Y-55526476D01*
X148552380Y-55564571D01*
X148514285Y-55564571D01*
X148666666Y-54497904D02*
X148628571Y-54536000D01*
X148666666Y-54574095D01*
X148704761Y-54536000D01*
X148666666Y-54497904D01*
X148666666Y-54574095D01*
X149390476Y-55297904D02*
X149390476Y-54878857D01*
X149352380Y-54802666D01*
X149276190Y-54764571D01*
X149123809Y-54764571D01*
X149047619Y-54802666D01*
X149390476Y-55259809D02*
X149314285Y-55297904D01*
X149123809Y-55297904D01*
X149047619Y-55259809D01*
X149009523Y-55183619D01*
X149009523Y-55107428D01*
X149047619Y-55031238D01*
X149123809Y-54993142D01*
X149314285Y-54993142D01*
X149390476Y-54955047D01*
X150114285Y-55259809D02*
X150038095Y-55297904D01*
X149885714Y-55297904D01*
X149809523Y-55259809D01*
X149771428Y-55221714D01*
X149733333Y-55145523D01*
X149733333Y-54916952D01*
X149771428Y-54840761D01*
X149809523Y-54802666D01*
X149885714Y-54764571D01*
X150038095Y-54764571D01*
X150114285Y-54802666D01*
X150457142Y-55297904D02*
X150457142Y-54497904D01*
X150533333Y-54993142D02*
X150761904Y-55297904D01*
X150761904Y-54764571D02*
X150457142Y-55069333D01*
X143657142Y-56585904D02*
X143580952Y-56547809D01*
X143542857Y-56509714D01*
X143504761Y-56433523D01*
X143504761Y-56204952D01*
X143542857Y-56128761D01*
X143580952Y-56090666D01*
X143657142Y-56052571D01*
X143771428Y-56052571D01*
X143847619Y-56090666D01*
X143885714Y-56128761D01*
X143923809Y-56204952D01*
X143923809Y-56433523D01*
X143885714Y-56509714D01*
X143847619Y-56547809D01*
X143771428Y-56585904D01*
X143657142Y-56585904D01*
X144266666Y-56052571D02*
X144266666Y-56585904D01*
X144266666Y-56128761D02*
X144304761Y-56090666D01*
X144380952Y-56052571D01*
X144495238Y-56052571D01*
X144571428Y-56090666D01*
X144609523Y-56166857D01*
X144609523Y-56585904D01*
X145485714Y-56052571D02*
X145790476Y-56052571D01*
X145600000Y-55785904D02*
X145600000Y-56471619D01*
X145638095Y-56547809D01*
X145714285Y-56585904D01*
X145790476Y-56585904D01*
X146057142Y-56585904D02*
X146057142Y-55785904D01*
X146400000Y-56585904D02*
X146400000Y-56166857D01*
X146361904Y-56090666D01*
X146285714Y-56052571D01*
X146171428Y-56052571D01*
X146095238Y-56090666D01*
X146057142Y-56128761D01*
X146780952Y-56585904D02*
X146780952Y-56052571D01*
X146780952Y-55785904D02*
X146742857Y-55824000D01*
X146780952Y-55862095D01*
X146819047Y-55824000D01*
X146780952Y-55785904D01*
X146780952Y-55862095D01*
X147123809Y-56547809D02*
X147200000Y-56585904D01*
X147352380Y-56585904D01*
X147428571Y-56547809D01*
X147466666Y-56471619D01*
X147466666Y-56433523D01*
X147428571Y-56357333D01*
X147352380Y-56319238D01*
X147238095Y-56319238D01*
X147161904Y-56281142D01*
X147123809Y-56204952D01*
X147123809Y-56166857D01*
X147161904Y-56090666D01*
X147238095Y-56052571D01*
X147352380Y-56052571D01*
X147428571Y-56090666D01*
X148380952Y-56547809D02*
X148457142Y-56585904D01*
X148609523Y-56585904D01*
X148685714Y-56547809D01*
X148723809Y-56471619D01*
X148723809Y-56433523D01*
X148685714Y-56357333D01*
X148609523Y-56319238D01*
X148495238Y-56319238D01*
X148419047Y-56281142D01*
X148380952Y-56204952D01*
X148380952Y-56166857D01*
X148419047Y-56090666D01*
X148495238Y-56052571D01*
X148609523Y-56052571D01*
X148685714Y-56090666D01*
X149066666Y-56585904D02*
X149066666Y-56052571D01*
X149066666Y-55785904D02*
X149028571Y-55824000D01*
X149066666Y-55862095D01*
X149104761Y-55824000D01*
X149066666Y-55785904D01*
X149066666Y-55862095D01*
X149790476Y-56585904D02*
X149790476Y-55785904D01*
X149790476Y-56547809D02*
X149714285Y-56585904D01*
X149561904Y-56585904D01*
X149485714Y-56547809D01*
X149447619Y-56509714D01*
X149409523Y-56433523D01*
X149409523Y-56204952D01*
X149447619Y-56128761D01*
X149485714Y-56090666D01*
X149561904Y-56052571D01*
X149714285Y-56052571D01*
X149790476Y-56090666D01*
X150476190Y-56547809D02*
X150400000Y-56585904D01*
X150247619Y-56585904D01*
X150171428Y-56547809D01*
X150133333Y-56471619D01*
X150133333Y-56166857D01*
X150171428Y-56090666D01*
X150247619Y-56052571D01*
X150400000Y-56052571D01*
X150476190Y-56090666D01*
X150514285Y-56166857D01*
X150514285Y-56243047D01*
X150133333Y-56319238D01*
X150857142Y-56509714D02*
X150895238Y-56547809D01*
X150857142Y-56585904D01*
X150819047Y-56547809D01*
X150857142Y-56509714D01*
X150857142Y-56585904D01*
X143600000Y-58361904D02*
X143219047Y-58361904D01*
X143180952Y-58742857D01*
X143219047Y-58704761D01*
X143295238Y-58666666D01*
X143485714Y-58666666D01*
X143561904Y-58704761D01*
X143600000Y-58742857D01*
X143638095Y-58819047D01*
X143638095Y-59009523D01*
X143600000Y-59085714D01*
X143561904Y-59123809D01*
X143485714Y-59161904D01*
X143295238Y-59161904D01*
X143219047Y-59123809D01*
X143180952Y-59085714D01*
X143980952Y-59085714D02*
X144019047Y-59123809D01*
X143980952Y-59161904D01*
X143942857Y-59123809D01*
X143980952Y-59085714D01*
X143980952Y-59161904D01*
X144780952Y-59161904D02*
X144323809Y-59161904D01*
X144552380Y-59161904D02*
X144552380Y-58361904D01*
X144476190Y-58476190D01*
X144400000Y-58552380D01*
X144323809Y-58590476D01*
X145123809Y-59161904D02*
X145123809Y-58361904D01*
X145200000Y-58857142D02*
X145428571Y-59161904D01*
X145428571Y-58628571D02*
X145123809Y-58933333D01*
X146380952Y-59161904D02*
X146380952Y-58628571D01*
X146380952Y-58780952D02*
X146419047Y-58704761D01*
X146457142Y-58666666D01*
X146533333Y-58628571D01*
X146609523Y-58628571D01*
X147180952Y-59123809D02*
X147104761Y-59161904D01*
X146952380Y-59161904D01*
X146876190Y-59123809D01*
X146838095Y-59047619D01*
X146838095Y-58742857D01*
X146876190Y-58666666D01*
X146952380Y-58628571D01*
X147104761Y-58628571D01*
X147180952Y-58666666D01*
X147219047Y-58742857D01*
X147219047Y-58819047D01*
X146838095Y-58895238D01*
X147523809Y-59123809D02*
X147600000Y-59161904D01*
X147752380Y-59161904D01*
X147828571Y-59123809D01*
X147866666Y-59047619D01*
X147866666Y-59009523D01*
X147828571Y-58933333D01*
X147752380Y-58895238D01*
X147638095Y-58895238D01*
X147561904Y-58857142D01*
X147523809Y-58780952D01*
X147523809Y-58742857D01*
X147561904Y-58666666D01*
X147638095Y-58628571D01*
X147752380Y-58628571D01*
X147828571Y-58666666D01*
X148209523Y-59161904D02*
X148209523Y-58628571D01*
X148209523Y-58361904D02*
X148171428Y-58400000D01*
X148209523Y-58438095D01*
X148247619Y-58400000D01*
X148209523Y-58361904D01*
X148209523Y-58438095D01*
X148552380Y-59123809D02*
X148628571Y-59161904D01*
X148780952Y-59161904D01*
X148857142Y-59123809D01*
X148895238Y-59047619D01*
X148895238Y-59009523D01*
X148857142Y-58933333D01*
X148780952Y-58895238D01*
X148666666Y-58895238D01*
X148590476Y-58857142D01*
X148552380Y-58780952D01*
X148552380Y-58742857D01*
X148590476Y-58666666D01*
X148666666Y-58628571D01*
X148780952Y-58628571D01*
X148857142Y-58666666D01*
X149123809Y-58628571D02*
X149428571Y-58628571D01*
X149238095Y-58361904D02*
X149238095Y-59047619D01*
X149276190Y-59123809D01*
X149352380Y-59161904D01*
X149428571Y-59161904D01*
X149809523Y-59161904D02*
X149733333Y-59123809D01*
X149695238Y-59085714D01*
X149657142Y-59009523D01*
X149657142Y-58780952D01*
X149695238Y-58704761D01*
X149733333Y-58666666D01*
X149809523Y-58628571D01*
X149923809Y-58628571D01*
X150000000Y-58666666D01*
X150038095Y-58704761D01*
X150076190Y-58780952D01*
X150076190Y-59009523D01*
X150038095Y-59085714D01*
X150000000Y-59123809D01*
X149923809Y-59161904D01*
X149809523Y-59161904D01*
X150419047Y-59161904D02*
X150419047Y-58628571D01*
X150419047Y-58780952D02*
X150457142Y-58704761D01*
X150495238Y-58666666D01*
X150571428Y-58628571D01*
X150647619Y-58628571D01*
X150876190Y-59123809D02*
X150952380Y-59161904D01*
X151104761Y-59161904D01*
X151180952Y-59123809D01*
X151219047Y-59047619D01*
X151219047Y-59009523D01*
X151180952Y-58933333D01*
X151104761Y-58895238D01*
X150990476Y-58895238D01*
X150914285Y-58857142D01*
X150876190Y-58780952D01*
X150876190Y-58742857D01*
X150914285Y-58666666D01*
X150990476Y-58628571D01*
X151104761Y-58628571D01*
X151180952Y-58666666D01*
X142723809Y-60449904D02*
X142723809Y-60030857D01*
X142685714Y-59954666D01*
X142609523Y-59916571D01*
X142457142Y-59916571D01*
X142380952Y-59954666D01*
X142723809Y-60411809D02*
X142647619Y-60449904D01*
X142457142Y-60449904D01*
X142380952Y-60411809D01*
X142342857Y-60335619D01*
X142342857Y-60259428D01*
X142380952Y-60183238D01*
X142457142Y-60145142D01*
X142647619Y-60145142D01*
X142723809Y-60107047D01*
X143104761Y-59916571D02*
X143104761Y-60449904D01*
X143104761Y-59992761D02*
X143142857Y-59954666D01*
X143219047Y-59916571D01*
X143333333Y-59916571D01*
X143409523Y-59954666D01*
X143447619Y-60030857D01*
X143447619Y-60449904D01*
X144171428Y-60449904D02*
X144171428Y-59649904D01*
X144171428Y-60411809D02*
X144095238Y-60449904D01*
X143942857Y-60449904D01*
X143866666Y-60411809D01*
X143828571Y-60373714D01*
X143790476Y-60297523D01*
X143790476Y-60068952D01*
X143828571Y-59992761D01*
X143866666Y-59954666D01*
X143942857Y-59916571D01*
X144095238Y-59916571D01*
X144171428Y-59954666D01*
X145161904Y-59916571D02*
X145161904Y-60716571D01*
X145161904Y-59954666D02*
X145238095Y-59916571D01*
X145390476Y-59916571D01*
X145466666Y-59954666D01*
X145504761Y-59992761D01*
X145542857Y-60068952D01*
X145542857Y-60297523D01*
X145504761Y-60373714D01*
X145466666Y-60411809D01*
X145390476Y-60449904D01*
X145238095Y-60449904D01*
X145161904Y-60411809D01*
X146228571Y-59916571D02*
X146228571Y-60449904D01*
X145885714Y-59916571D02*
X145885714Y-60335619D01*
X145923809Y-60411809D01*
X146000000Y-60449904D01*
X146114285Y-60449904D01*
X146190476Y-60411809D01*
X146228571Y-60373714D01*
X146571428Y-60411809D02*
X146647619Y-60449904D01*
X146800000Y-60449904D01*
X146876190Y-60411809D01*
X146914285Y-60335619D01*
X146914285Y-60297523D01*
X146876190Y-60221333D01*
X146800000Y-60183238D01*
X146685714Y-60183238D01*
X146609523Y-60145142D01*
X146571428Y-60068952D01*
X146571428Y-60030857D01*
X146609523Y-59954666D01*
X146685714Y-59916571D01*
X146800000Y-59916571D01*
X146876190Y-59954666D01*
X147257142Y-60449904D02*
X147257142Y-59649904D01*
X147600000Y-60449904D02*
X147600000Y-60030857D01*
X147561904Y-59954666D01*
X147485714Y-59916571D01*
X147371428Y-59916571D01*
X147295238Y-59954666D01*
X147257142Y-59992761D01*
X148590476Y-60449904D02*
X148590476Y-59649904D01*
X148590476Y-59954666D02*
X148666666Y-59916571D01*
X148819047Y-59916571D01*
X148895238Y-59954666D01*
X148933333Y-59992761D01*
X148971428Y-60068952D01*
X148971428Y-60297523D01*
X148933333Y-60373714D01*
X148895238Y-60411809D01*
X148819047Y-60449904D01*
X148666666Y-60449904D01*
X148590476Y-60411809D01*
X149657142Y-59916571D02*
X149657142Y-60449904D01*
X149314285Y-59916571D02*
X149314285Y-60335619D01*
X149352380Y-60411809D01*
X149428571Y-60449904D01*
X149542857Y-60449904D01*
X149619047Y-60411809D01*
X149657142Y-60373714D01*
X149923809Y-59916571D02*
X150228571Y-59916571D01*
X150038095Y-59649904D02*
X150038095Y-60335619D01*
X150076190Y-60411809D01*
X150152380Y-60449904D01*
X150228571Y-60449904D01*
X150380952Y-59916571D02*
X150685714Y-59916571D01*
X150495238Y-59649904D02*
X150495238Y-60335619D01*
X150533333Y-60411809D01*
X150609523Y-60449904D01*
X150685714Y-60449904D01*
X151066666Y-60449904D02*
X150990476Y-60411809D01*
X150952380Y-60373714D01*
X150914285Y-60297523D01*
X150914285Y-60068952D01*
X150952380Y-59992761D01*
X150990476Y-59954666D01*
X151066666Y-59916571D01*
X151180952Y-59916571D01*
X151257142Y-59954666D01*
X151295238Y-59992761D01*
X151333333Y-60068952D01*
X151333333Y-60297523D01*
X151295238Y-60373714D01*
X151257142Y-60411809D01*
X151180952Y-60449904D01*
X151066666Y-60449904D01*
X151676190Y-59916571D02*
X151676190Y-60449904D01*
X151676190Y-59992761D02*
X151714285Y-59954666D01*
X151790476Y-59916571D01*
X151904761Y-59916571D01*
X151980952Y-59954666D01*
X152019047Y-60030857D01*
X152019047Y-60449904D01*
X142514285Y-61737904D02*
X142438095Y-61699809D01*
X142400000Y-61661714D01*
X142361904Y-61585523D01*
X142361904Y-61356952D01*
X142400000Y-61280761D01*
X142438095Y-61242666D01*
X142514285Y-61204571D01*
X142628571Y-61204571D01*
X142704761Y-61242666D01*
X142742857Y-61280761D01*
X142780952Y-61356952D01*
X142780952Y-61585523D01*
X142742857Y-61661714D01*
X142704761Y-61699809D01*
X142628571Y-61737904D01*
X142514285Y-61737904D01*
X143123809Y-61204571D02*
X143123809Y-61737904D01*
X143123809Y-61280761D02*
X143161904Y-61242666D01*
X143238095Y-61204571D01*
X143352380Y-61204571D01*
X143428571Y-61242666D01*
X143466666Y-61318857D01*
X143466666Y-61737904D01*
X144342857Y-61204571D02*
X144647619Y-61204571D01*
X144457142Y-60937904D02*
X144457142Y-61623619D01*
X144495238Y-61699809D01*
X144571428Y-61737904D01*
X144647619Y-61737904D01*
X144914285Y-61737904D02*
X144914285Y-60937904D01*
X145257142Y-61737904D02*
X145257142Y-61318857D01*
X145219047Y-61242666D01*
X145142857Y-61204571D01*
X145028571Y-61204571D01*
X144952380Y-61242666D01*
X144914285Y-61280761D01*
X145942857Y-61699809D02*
X145866666Y-61737904D01*
X145714285Y-61737904D01*
X145638095Y-61699809D01*
X145600000Y-61623619D01*
X145600000Y-61318857D01*
X145638095Y-61242666D01*
X145714285Y-61204571D01*
X145866666Y-61204571D01*
X145942857Y-61242666D01*
X145980952Y-61318857D01*
X145980952Y-61395047D01*
X145600000Y-61471238D01*
X147047619Y-61737904D02*
X146971428Y-61699809D01*
X146933333Y-61661714D01*
X146895238Y-61585523D01*
X146895238Y-61356952D01*
X146933333Y-61280761D01*
X146971428Y-61242666D01*
X147047619Y-61204571D01*
X147161904Y-61204571D01*
X147238095Y-61242666D01*
X147276190Y-61280761D01*
X147314285Y-61356952D01*
X147314285Y-61585523D01*
X147276190Y-61661714D01*
X147238095Y-61699809D01*
X147161904Y-61737904D01*
X147047619Y-61737904D01*
X147657142Y-61204571D02*
X147657142Y-62004571D01*
X147657142Y-61242666D02*
X147733333Y-61204571D01*
X147885714Y-61204571D01*
X147961904Y-61242666D01*
X148000000Y-61280761D01*
X148038095Y-61356952D01*
X148038095Y-61585523D01*
X148000000Y-61661714D01*
X147961904Y-61699809D01*
X147885714Y-61737904D01*
X147733333Y-61737904D01*
X147657142Y-61699809D01*
X148380952Y-61204571D02*
X148380952Y-62004571D01*
X148380952Y-61242666D02*
X148457142Y-61204571D01*
X148609523Y-61204571D01*
X148685714Y-61242666D01*
X148723809Y-61280761D01*
X148761904Y-61356952D01*
X148761904Y-61585523D01*
X148723809Y-61661714D01*
X148685714Y-61699809D01*
X148609523Y-61737904D01*
X148457142Y-61737904D01*
X148380952Y-61699809D01*
X149219047Y-61737904D02*
X149142857Y-61699809D01*
X149104761Y-61661714D01*
X149066666Y-61585523D01*
X149066666Y-61356952D01*
X149104761Y-61280761D01*
X149142857Y-61242666D01*
X149219047Y-61204571D01*
X149333333Y-61204571D01*
X149409523Y-61242666D01*
X149447619Y-61280761D01*
X149485714Y-61356952D01*
X149485714Y-61585523D01*
X149447619Y-61661714D01*
X149409523Y-61699809D01*
X149333333Y-61737904D01*
X149219047Y-61737904D01*
X149790476Y-61699809D02*
X149866666Y-61737904D01*
X150019047Y-61737904D01*
X150095238Y-61699809D01*
X150133333Y-61623619D01*
X150133333Y-61585523D01*
X150095238Y-61509333D01*
X150019047Y-61471238D01*
X149904761Y-61471238D01*
X149828571Y-61433142D01*
X149790476Y-61356952D01*
X149790476Y-61318857D01*
X149828571Y-61242666D01*
X149904761Y-61204571D01*
X150019047Y-61204571D01*
X150095238Y-61242666D01*
X150476190Y-61737904D02*
X150476190Y-61204571D01*
X150476190Y-60937904D02*
X150438095Y-60976000D01*
X150476190Y-61014095D01*
X150514285Y-60976000D01*
X150476190Y-60937904D01*
X150476190Y-61014095D01*
X150742857Y-61204571D02*
X151047619Y-61204571D01*
X150857142Y-60937904D02*
X150857142Y-61623619D01*
X150895238Y-61699809D01*
X150971428Y-61737904D01*
X151047619Y-61737904D01*
X151619047Y-61699809D02*
X151542857Y-61737904D01*
X151390476Y-61737904D01*
X151314285Y-61699809D01*
X151276190Y-61623619D01*
X151276190Y-61318857D01*
X151314285Y-61242666D01*
X151390476Y-61204571D01*
X151542857Y-61204571D01*
X151619047Y-61242666D01*
X151657142Y-61318857D01*
X151657142Y-61395047D01*
X151276190Y-61471238D01*
X152000000Y-61661714D02*
X152038095Y-61699809D01*
X152000000Y-61737904D01*
X151961904Y-61699809D01*
X152000000Y-61661714D01*
X152000000Y-61737904D01*
X152071890Y-82299045D02*
X152179639Y-82245170D01*
X152314326Y-82110483D01*
X152341264Y-82029671D01*
X152341264Y-81975796D01*
X152314326Y-81894984D01*
X152260451Y-81841109D01*
X152179639Y-81814172D01*
X152125764Y-81814172D01*
X152044952Y-81841109D01*
X151910265Y-81921922D01*
X151829453Y-81948859D01*
X151775578Y-81948859D01*
X151694766Y-81921922D01*
X151640891Y-81868047D01*
X151613954Y-81787235D01*
X151613954Y-81733360D01*
X151640891Y-81652548D01*
X151775578Y-81517861D01*
X151883328Y-81463986D01*
X152933887Y-81383174D02*
X152933887Y-81437048D01*
X152880012Y-81544798D01*
X152826137Y-81598673D01*
X152718387Y-81652548D01*
X152610638Y-81652548D01*
X152529825Y-81625610D01*
X152395138Y-81544798D01*
X152314326Y-81463986D01*
X152233514Y-81329299D01*
X152206577Y-81248487D01*
X152206577Y-81140737D01*
X152260451Y-81032987D01*
X152314326Y-80979112D01*
X152422076Y-80925238D01*
X152475951Y-80925238D01*
X153499572Y-80925238D02*
X153230198Y-81194612D01*
X152664512Y-80628926D01*
X153688134Y-80736676D02*
X153122448Y-80170990D01*
X154011383Y-80413427D02*
X153445697Y-80332615D01*
X153445697Y-79847742D02*
X153445697Y-80494239D01*
X136042857Y-42223810D02*
X136080952Y-42109524D01*
X136119047Y-42071429D01*
X136195238Y-42033334D01*
X136309523Y-42033334D01*
X136385714Y-42071429D01*
X136423809Y-42109524D01*
X136461904Y-42185715D01*
X136461904Y-42490477D01*
X135661904Y-42490477D01*
X135661904Y-42223810D01*
X135700000Y-42147619D01*
X135738095Y-42109524D01*
X135814285Y-42071429D01*
X135890476Y-42071429D01*
X135966666Y-42109524D01*
X136004761Y-42147619D01*
X136042857Y-42223810D01*
X136042857Y-42490477D01*
X136233333Y-41728572D02*
X136233333Y-41347619D01*
X136461904Y-41804762D02*
X135661904Y-41538096D01*
X136461904Y-41271429D01*
X136423809Y-41042858D02*
X136461904Y-40928572D01*
X136461904Y-40738096D01*
X136423809Y-40661905D01*
X136385714Y-40623810D01*
X136309523Y-40585715D01*
X136233333Y-40585715D01*
X136157142Y-40623810D01*
X136119047Y-40661905D01*
X136080952Y-40738096D01*
X136042857Y-40890477D01*
X136004761Y-40966667D01*
X135966666Y-41004762D01*
X135890476Y-41042858D01*
X135814285Y-41042858D01*
X135738095Y-41004762D01*
X135700000Y-40966667D01*
X135661904Y-40890477D01*
X135661904Y-40700000D01*
X135700000Y-40585715D01*
X135661904Y-40357143D02*
X135661904Y-39900000D01*
X136461904Y-40128572D02*
X135661904Y-40128572D01*
X136233333Y-39671429D02*
X136233333Y-39290477D01*
X136461904Y-39747619D02*
X135661904Y-39480953D01*
X136461904Y-39214286D01*
X136461904Y-38490477D02*
X136080952Y-38757143D01*
X136461904Y-38947619D02*
X135661904Y-38947619D01*
X135661904Y-38642858D01*
X135700000Y-38566667D01*
X135738095Y-38528572D01*
X135814285Y-38490477D01*
X135928571Y-38490477D01*
X136004761Y-38528572D01*
X136042857Y-38566667D01*
X136080952Y-38642858D01*
X136080952Y-38947619D01*
X136461904Y-38147619D02*
X135661904Y-38147619D01*
X135661904Y-37957143D01*
X135700000Y-37842858D01*
X135776190Y-37766667D01*
X135852380Y-37728572D01*
X136004761Y-37690477D01*
X136119047Y-37690477D01*
X136271428Y-37728572D01*
X136347619Y-37766667D01*
X136423809Y-37842858D01*
X136461904Y-37957143D01*
X136461904Y-38147619D01*
X136461904Y-37347619D02*
X135661904Y-37347619D01*
X136461904Y-36890477D02*
X136004761Y-37233334D01*
X135661904Y-36890477D02*
X136119047Y-37347619D01*
X136042857Y-36280953D02*
X136080952Y-36166667D01*
X136119047Y-36128572D01*
X136195238Y-36090477D01*
X136309523Y-36090477D01*
X136385714Y-36128572D01*
X136423809Y-36166667D01*
X136461904Y-36242858D01*
X136461904Y-36547619D01*
X135661904Y-36547619D01*
X135661904Y-36280953D01*
X135700000Y-36204762D01*
X135738095Y-36166667D01*
X135814285Y-36128572D01*
X135890476Y-36128572D01*
X135966666Y-36166667D01*
X136004761Y-36204762D01*
X136042857Y-36280953D01*
X136042857Y-36547619D01*
X136385714Y-35747619D02*
X136423809Y-35709524D01*
X136461904Y-35747619D01*
X136423809Y-35785715D01*
X136385714Y-35747619D01*
X136461904Y-35747619D01*
X136385714Y-34909524D02*
X136423809Y-34947619D01*
X136461904Y-35061905D01*
X136461904Y-35138096D01*
X136423809Y-35252381D01*
X136347619Y-35328572D01*
X136271428Y-35366667D01*
X136119047Y-35404762D01*
X136004761Y-35404762D01*
X135852380Y-35366667D01*
X135776190Y-35328572D01*
X135700000Y-35252381D01*
X135661904Y-35138096D01*
X135661904Y-35061905D01*
X135700000Y-34947619D01*
X135738095Y-34909524D01*
X135661904Y-34414286D02*
X135661904Y-34261905D01*
X135700000Y-34185715D01*
X135776190Y-34109524D01*
X135928571Y-34071429D01*
X136195238Y-34071429D01*
X136347619Y-34109524D01*
X136423809Y-34185715D01*
X136461904Y-34261905D01*
X136461904Y-34414286D01*
X136423809Y-34490477D01*
X136347619Y-34566667D01*
X136195238Y-34604762D01*
X135928571Y-34604762D01*
X135776190Y-34566667D01*
X135700000Y-34490477D01*
X135661904Y-34414286D01*
X136461904Y-33728572D02*
X135661904Y-33728572D01*
X136233333Y-33461905D01*
X135661904Y-33195238D01*
X136461904Y-33195238D01*
%TO.C,J12*%
X97133999Y-72172200D02*
X99733999Y-72172200D01*
X99733999Y-72172200D02*
X99733999Y-87482200D01*
X99733999Y-87482200D02*
X97133999Y-87482200D01*
X97133999Y-87482200D02*
X97133999Y-72172200D01*
%TO.C,J5*%
X154265000Y-72190000D02*
X156865000Y-72190000D01*
X156865000Y-72190000D02*
X156865000Y-87500000D01*
X156865000Y-87500000D02*
X154265000Y-87500000D01*
X154265000Y-87500000D02*
X154265000Y-72190000D01*
%TO.C,J7*%
X91545999Y-72172200D02*
X94145999Y-72172200D01*
X94145999Y-72172200D02*
X94145999Y-87482200D01*
X94145999Y-87482200D02*
X91545999Y-87482200D01*
X91545999Y-87482200D02*
X91545999Y-72172200D01*
%TO.C,J11*%
X148634666Y-72190000D02*
X151234666Y-72190000D01*
X151234666Y-72190000D02*
X151234666Y-87500000D01*
X151234666Y-87500000D02*
X148634666Y-87500000D01*
X148634666Y-87500000D02*
X148634666Y-72190000D01*
%TO.C,J3*%
X160456000Y-37680000D02*
X163086000Y-37680000D01*
X163086000Y-37680000D02*
X163086000Y-45390000D01*
X163086000Y-45390000D02*
X160456000Y-45390000D01*
X160456000Y-45390000D02*
X160456000Y-37680000D01*
%TO.C,J9*%
X143024333Y-72182200D02*
X145634333Y-72182200D01*
X145634333Y-72182200D02*
X145634333Y-84942200D01*
X145634333Y-84942200D02*
X143024333Y-84942200D01*
X143024333Y-84942200D02*
X143024333Y-72182200D01*
%TO.C,G\u002A\u002A\u002A*%
G36*
X125756798Y-60219690D02*
G01*
X125799254Y-60294037D01*
X125852926Y-60397102D01*
X125911969Y-60516858D01*
X125970537Y-60641278D01*
X126022784Y-60758333D01*
X126062866Y-60855996D01*
X126078913Y-60901125D01*
X126142043Y-61168162D01*
X126173543Y-61463561D01*
X126171833Y-61766624D01*
X126156964Y-61922942D01*
X126088619Y-62234002D01*
X125968618Y-62526587D01*
X125800985Y-62796700D01*
X125589743Y-63040340D01*
X125338917Y-63253508D01*
X125052531Y-63432206D01*
X124734609Y-63572433D01*
X124401548Y-63667559D01*
X124235884Y-63693655D01*
X124033474Y-63710858D01*
X123810150Y-63719179D01*
X123581739Y-63718629D01*
X123364073Y-63709220D01*
X123172979Y-63690962D01*
X123035183Y-63666586D01*
X122697546Y-63565380D01*
X122401540Y-63432513D01*
X122137281Y-63261938D01*
X121894885Y-63047609D01*
X121735645Y-62871567D01*
X121550639Y-62606174D01*
X121411433Y-62311185D01*
X121321248Y-61995689D01*
X121283302Y-61668775D01*
X121282311Y-61591499D01*
X121296631Y-61358894D01*
X121338836Y-61131212D01*
X121412890Y-60891840D01*
X121501987Y-60671001D01*
X121554735Y-60548882D01*
X121601755Y-60437242D01*
X121636026Y-60352867D01*
X121646308Y-60325814D01*
X121670016Y-60263234D01*
X121684713Y-60230395D01*
X121685013Y-60229990D01*
X121710288Y-60241782D01*
X121775474Y-60280444D01*
X121872566Y-60341003D01*
X121993561Y-60418487D01*
X122097130Y-60485997D01*
X122501593Y-60751533D01*
X122405239Y-60883860D01*
X122307824Y-61025885D01*
X122243785Y-61145035D01*
X122206643Y-61259923D01*
X122189919Y-61389164D01*
X122186880Y-61511248D01*
X122200683Y-61718171D01*
X122245422Y-61887528D01*
X122326862Y-62033484D01*
X122450767Y-62170203D01*
X122457578Y-62176498D01*
X122621809Y-62302691D01*
X122810926Y-62399794D01*
X123031389Y-62469621D01*
X123289657Y-62513989D01*
X123592189Y-62534711D01*
X123739939Y-62536806D01*
X124043899Y-62527704D01*
X124301515Y-62498548D01*
X124521191Y-62446952D01*
X124711335Y-62370529D01*
X124880352Y-62266896D01*
X124982435Y-62184195D01*
X125133445Y-62014996D01*
X125232682Y-61825343D01*
X125279976Y-61620225D01*
X125275152Y-61404632D01*
X125218038Y-61183552D01*
X125108462Y-60961975D01*
X125028754Y-60845642D01*
X124965059Y-60755698D01*
X124922384Y-60684258D01*
X124906842Y-60642146D01*
X124910182Y-60635695D01*
X124944932Y-60617960D01*
X125019711Y-60576071D01*
X125125164Y-60515386D01*
X125251935Y-60441264D01*
X125324828Y-60398209D01*
X125457987Y-60321057D01*
X125574144Y-60257096D01*
X125664263Y-60211041D01*
X125719310Y-60187605D01*
X125731404Y-60186090D01*
X125756798Y-60219690D01*
G37*
G36*
X127426959Y-56641916D02*
G01*
X127515268Y-56676935D01*
X127638607Y-56730872D01*
X127788875Y-56800104D01*
X127957968Y-56881005D01*
X128091930Y-56946993D01*
X128206811Y-57010624D01*
X128268435Y-57064747D01*
X128276530Y-57115768D01*
X128230822Y-57170092D01*
X128131037Y-57234124D01*
X128078481Y-57262546D01*
X127983639Y-57313462D01*
X127909617Y-57355175D01*
X127870508Y-57379707D01*
X127868514Y-57381422D01*
X127883635Y-57402162D01*
X127939328Y-57442288D01*
X128025142Y-57494607D01*
X128067741Y-57518536D01*
X128187158Y-57587852D01*
X128259144Y-57643510D01*
X128282552Y-57692116D01*
X128256238Y-57740276D01*
X128179055Y-57794594D01*
X128049859Y-57861675D01*
X128004435Y-57883536D01*
X127806816Y-57977596D01*
X127654434Y-58048982D01*
X127540655Y-58099901D01*
X127458845Y-58132560D01*
X127402367Y-58149164D01*
X127364588Y-58151921D01*
X127338873Y-58143036D01*
X127318585Y-58124717D01*
X127309896Y-58114511D01*
X127289084Y-58073558D01*
X127300635Y-58032591D01*
X127349786Y-57987028D01*
X127441772Y-57932285D01*
X127581827Y-57863781D01*
X127612453Y-57849677D01*
X127733054Y-57793189D01*
X127833267Y-57743766D01*
X127902069Y-57707011D01*
X127928139Y-57689219D01*
X127911045Y-57666849D01*
X127853338Y-57627491D01*
X127766442Y-57578691D01*
X127741618Y-57565963D01*
X127644347Y-57514736D01*
X127568315Y-57470511D01*
X127527413Y-57441469D01*
X127524659Y-57438186D01*
X127518148Y-57386912D01*
X127561037Y-57329611D01*
X127655876Y-57263690D01*
X127741997Y-57217297D01*
X127835726Y-57167501D01*
X127905242Y-57125619D01*
X127938021Y-57099328D01*
X127939066Y-57096517D01*
X127914090Y-57077072D01*
X127846962Y-57040824D01*
X127748539Y-56993323D01*
X127653579Y-56950520D01*
X127490830Y-56875375D01*
X127378803Y-56813727D01*
X127313231Y-56762167D01*
X127289845Y-56717283D01*
X127304377Y-56675666D01*
X127306423Y-56673126D01*
X127355146Y-56636286D01*
X127381785Y-56629438D01*
X127426959Y-56641916D01*
G37*
G36*
X127493847Y-55061714D02*
G01*
X127882182Y-55076097D01*
X128038306Y-55082348D01*
X128146146Y-55088705D01*
X128214921Y-55096940D01*
X128253856Y-55108828D01*
X128272170Y-55126141D01*
X128279086Y-55150655D01*
X128279353Y-55152488D01*
X128272196Y-55211201D01*
X128253221Y-55236108D01*
X128212359Y-55244553D01*
X128126260Y-55251902D01*
X128007219Y-55257401D01*
X127867530Y-55260301D01*
X127856050Y-55260396D01*
X127493847Y-55263073D01*
X127485426Y-55470075D01*
X127478817Y-55580169D01*
X127467542Y-55645860D01*
X127447750Y-55680269D01*
X127419323Y-55695385D01*
X127371413Y-55705780D01*
X127335628Y-55698084D01*
X127310417Y-55665858D01*
X127294226Y-55602664D01*
X127285504Y-55502061D01*
X127282699Y-55357612D01*
X127284257Y-55162877D01*
X127284649Y-55136760D01*
X127292488Y-54630230D01*
X127465081Y-54630230D01*
X127493847Y-55061714D01*
G37*
G36*
X127742785Y-62734353D02*
G01*
X127781119Y-62734957D01*
X127970756Y-62739506D01*
X128109205Y-62747296D01*
X128202789Y-62760078D01*
X128257830Y-62779603D01*
X128280653Y-62807621D01*
X128277580Y-62845881D01*
X128268140Y-62869768D01*
X128240278Y-62910704D01*
X128181099Y-62985112D01*
X128098081Y-63083985D01*
X127998705Y-63198317D01*
X127946904Y-63256585D01*
X127845197Y-63370977D01*
X127758668Y-63469886D01*
X127693921Y-63545634D01*
X127657562Y-63590546D01*
X127652057Y-63599286D01*
X127678782Y-63606023D01*
X127750841Y-63613411D01*
X127856065Y-63620389D01*
X127939702Y-63624334D01*
X128105892Y-63635570D01*
X128218655Y-63654826D01*
X128281749Y-63683813D01*
X128298932Y-63724244D01*
X128274577Y-63776995D01*
X128254576Y-63797682D01*
X128223607Y-63812445D01*
X128172580Y-63822326D01*
X128092404Y-63828368D01*
X127973988Y-63831613D01*
X127808241Y-63833105D01*
X127784386Y-63833217D01*
X127608177Y-63833102D01*
X127481232Y-63830479D01*
X127395314Y-63824640D01*
X127342186Y-63814875D01*
X127313608Y-63800475D01*
X127306416Y-63792065D01*
X127282488Y-63745660D01*
X127278545Y-63730642D01*
X127296580Y-63703972D01*
X127346632Y-63642197D01*
X127422144Y-63552897D01*
X127516561Y-63443651D01*
X127623324Y-63322038D01*
X127735878Y-63195639D01*
X127847667Y-63072032D01*
X127859038Y-63059584D01*
X127906082Y-63004495D01*
X127928901Y-62970436D01*
X127929139Y-62966467D01*
X127898943Y-62962057D01*
X127823962Y-62956519D01*
X127716908Y-62950694D01*
X127637721Y-62947214D01*
X127500009Y-62939751D01*
X127408709Y-62929155D01*
X127352711Y-62913283D01*
X127320902Y-62889988D01*
X127317250Y-62885339D01*
X127295943Y-62820741D01*
X127308983Y-62781323D01*
X127324168Y-62760936D01*
X127350248Y-62746747D01*
X127396187Y-62737874D01*
X127470946Y-62733437D01*
X127583492Y-62732557D01*
X127742785Y-62734353D01*
G37*
G36*
X127405091Y-68119690D02*
G01*
X127413056Y-68124336D01*
X127437763Y-68148006D01*
X127454137Y-68190383D01*
X127464294Y-68262786D01*
X127470351Y-68376538D01*
X127472217Y-68440758D01*
X127477263Y-68602928D01*
X127484618Y-68716252D01*
X127496857Y-68789414D01*
X127516558Y-68831098D01*
X127546298Y-68849988D01*
X127588653Y-68854768D01*
X127595074Y-68854806D01*
X127680823Y-68854806D01*
X127680823Y-68644562D01*
X127689403Y-68491841D01*
X127715042Y-68393162D01*
X127757587Y-68348900D01*
X127800607Y-68351682D01*
X127843110Y-68397451D01*
X127870055Y-68496713D01*
X127881654Y-68650362D01*
X127882182Y-68700191D01*
X127882182Y-68854806D01*
X128110588Y-68854806D01*
X128118638Y-68488045D01*
X128126689Y-68121284D01*
X128270517Y-68121284D01*
X128278422Y-68570990D01*
X128280787Y-68743525D01*
X128280395Y-68867011D01*
X128276554Y-68949894D01*
X128268570Y-69000621D01*
X128255753Y-69027636D01*
X128240112Y-69038431D01*
X128196040Y-69044695D01*
X128105910Y-69049989D01*
X127981190Y-69053882D01*
X127833351Y-69055946D01*
X127765779Y-69056165D01*
X127598240Y-69055482D01*
X127479237Y-69052771D01*
X127399785Y-69047038D01*
X127350898Y-69037287D01*
X127323591Y-69022525D01*
X127310916Y-69005825D01*
X127300504Y-68959043D01*
X127291278Y-68867415D01*
X127284165Y-68743623D01*
X127280096Y-68600353D01*
X127279845Y-68581533D01*
X127279495Y-68415441D01*
X127283475Y-68297372D01*
X127292622Y-68217927D01*
X127307772Y-68167703D01*
X127318276Y-68150049D01*
X127360083Y-68111180D01*
X127405091Y-68119690D01*
G37*
G36*
X128135354Y-64328781D02*
G01*
X128135562Y-64328835D01*
X128194240Y-64371945D01*
X128239532Y-64459313D01*
X128270282Y-64578982D01*
X128285334Y-64718994D01*
X128283532Y-64867393D01*
X128263720Y-65012219D01*
X128224742Y-65141517D01*
X128216034Y-65161292D01*
X128131758Y-65297686D01*
X128018547Y-65395391D01*
X127876726Y-65461715D01*
X127799950Y-65482958D01*
X127735989Y-65478603D01*
X127655899Y-65447818D01*
X127511473Y-65360481D01*
X127406647Y-65243687D01*
X127338411Y-65091739D01*
X127303755Y-64898940D01*
X127297885Y-64770095D01*
X127302948Y-64603902D01*
X127322504Y-64489638D01*
X127358041Y-64423187D01*
X127411045Y-64400437D01*
X127431070Y-64401588D01*
X127464753Y-64411088D01*
X127482695Y-64436421D01*
X127488709Y-64491124D01*
X127486610Y-64588735D01*
X127486258Y-64597501D01*
X127487530Y-64728005D01*
X127498892Y-64864209D01*
X127510986Y-64940863D01*
X127559843Y-65083619D01*
X127633586Y-65185597D01*
X127723651Y-65244564D01*
X127821472Y-65258288D01*
X127918486Y-65224538D01*
X128006127Y-65141079D01*
X128043884Y-65079764D01*
X128067298Y-65006826D01*
X128083287Y-64903735D01*
X128091296Y-64787778D01*
X128090767Y-64676241D01*
X128081145Y-64586411D01*
X128061875Y-64535576D01*
X128061401Y-64535089D01*
X128011028Y-64512068D01*
X127967647Y-64537244D01*
X127942315Y-64601429D01*
X127939713Y-64636224D01*
X127923585Y-64726091D01*
X127883941Y-64777739D01*
X127833890Y-64788163D01*
X127786540Y-64754357D01*
X127755965Y-64678363D01*
X127741588Y-64568861D01*
X127740810Y-64466985D01*
X127753326Y-64393509D01*
X127760369Y-64378964D01*
X127800669Y-64357385D01*
X127878409Y-64338893D01*
X127973497Y-64326172D01*
X128065842Y-64321906D01*
X128135354Y-64328781D01*
G37*
G36*
X127658271Y-56039298D02*
G01*
X127816611Y-56044703D01*
X128001880Y-56053010D01*
X128136176Y-56062422D01*
X128226053Y-56074824D01*
X128278064Y-56092099D01*
X128298761Y-56116134D01*
X128294698Y-56148812D01*
X128280475Y-56178117D01*
X128264099Y-56196372D01*
X128232952Y-56209464D01*
X128178560Y-56218218D01*
X128092449Y-56223461D01*
X127966145Y-56226019D01*
X127791174Y-56226719D01*
X127782011Y-56226720D01*
X127607388Y-56226399D01*
X127481752Y-56224733D01*
X127396560Y-56220663D01*
X127343269Y-56213131D01*
X127313334Y-56201080D01*
X127298213Y-56183451D01*
X127291470Y-56165981D01*
X127281451Y-56117063D01*
X127291248Y-56081263D01*
X127327346Y-56057084D01*
X127396227Y-56043028D01*
X127504375Y-56037599D01*
X127658271Y-56039298D01*
G37*
G36*
X127769568Y-70618488D02*
G01*
X127596661Y-70619708D01*
X127472762Y-70617946D01*
X127389393Y-70612514D01*
X127338076Y-70602726D01*
X127310334Y-70587892D01*
X127304176Y-70580740D01*
X127289301Y-70525770D01*
X127284466Y-70436912D01*
X127471160Y-70436912D01*
X127772556Y-70436912D01*
X127899358Y-70434964D01*
X128004393Y-70429703D01*
X128074565Y-70422001D01*
X128096252Y-70415338D01*
X128107518Y-70373246D01*
X128107620Y-70292095D01*
X128098431Y-70188861D01*
X128081822Y-70080522D01*
X128059668Y-69984051D01*
X128043406Y-69936291D01*
X127988515Y-69850687D01*
X127910114Y-69781029D01*
X127825221Y-69739054D01*
X127752833Y-69735872D01*
X127643633Y-69795864D01*
X127563255Y-69901921D01*
X127510690Y-70055899D01*
X127487223Y-70224522D01*
X127471160Y-70436912D01*
X127284466Y-70436912D01*
X127284048Y-70429235D01*
X127287267Y-70306086D01*
X127297808Y-70171271D01*
X127314521Y-70039741D01*
X127336256Y-69926445D01*
X127360427Y-69849504D01*
X127442867Y-69718658D01*
X127554943Y-69618118D01*
X127681890Y-69560648D01*
X127698827Y-69556985D01*
X127848405Y-69556408D01*
X127991936Y-69605152D01*
X128117158Y-69695342D01*
X128211812Y-69819105D01*
X128250360Y-69911204D01*
X128268319Y-69999372D01*
X128279963Y-70113575D01*
X128285397Y-70240146D01*
X128284726Y-70365419D01*
X128278053Y-70475726D01*
X128265485Y-70557402D01*
X128247125Y-70596780D01*
X128245104Y-70597817D01*
X128203525Y-70603501D01*
X128115551Y-70608971D01*
X127992318Y-70613744D01*
X127844962Y-70617334D01*
X127772556Y-70618442D01*
X127769568Y-70618488D01*
G37*
G36*
X120988449Y-70607086D02*
G01*
X120845515Y-70603787D01*
X120734956Y-70599945D01*
X120704418Y-70598279D01*
X120653975Y-70595526D01*
X120599778Y-70590498D01*
X120569569Y-70584827D01*
X120562082Y-70581352D01*
X120553749Y-70569258D01*
X120546524Y-70545232D01*
X120540329Y-70505475D01*
X120535088Y-70446188D01*
X120530725Y-70363570D01*
X120527162Y-70253820D01*
X120526180Y-70205169D01*
X121352397Y-70205169D01*
X121486126Y-70134064D01*
X121619856Y-70062960D01*
X125830076Y-70062960D01*
X125963811Y-70130665D01*
X126042414Y-70165784D01*
X126099187Y-70182540D01*
X126115967Y-70181005D01*
X126121888Y-70146909D01*
X126123780Y-70067852D01*
X126121615Y-69956266D01*
X126116684Y-69847218D01*
X126109653Y-69689110D01*
X126103920Y-69498499D01*
X126100112Y-69300410D01*
X126098847Y-69134685D01*
X126098716Y-68738574D01*
X125989507Y-68794288D01*
X125892746Y-68834878D01*
X125795535Y-68862875D01*
X125780957Y-68865512D01*
X125706243Y-68873303D01*
X125591921Y-68880388D01*
X125447033Y-68886642D01*
X125280622Y-68891938D01*
X125101733Y-68896150D01*
X124919408Y-68899153D01*
X124742691Y-68900820D01*
X124580624Y-68901026D01*
X124442250Y-68899645D01*
X124336614Y-68896550D01*
X124272758Y-68891616D01*
X124257720Y-68886724D01*
X124280226Y-68862516D01*
X124343117Y-68810603D01*
X124439449Y-68735988D01*
X124562279Y-68643677D01*
X124704665Y-68538675D01*
X124859663Y-68425986D01*
X125020330Y-68310615D01*
X125179724Y-68197567D01*
X125330902Y-68091847D01*
X125466920Y-67998458D01*
X125580836Y-67922407D01*
X125665707Y-67868697D01*
X125688215Y-67855569D01*
X125798442Y-67802513D01*
X125912061Y-67761489D01*
X125983654Y-67744948D01*
X126113099Y-67727448D01*
X126113099Y-66939148D01*
X126112597Y-66732982D01*
X126111179Y-66547012D01*
X126108981Y-66388583D01*
X126106135Y-66265038D01*
X126102777Y-66183724D01*
X126099040Y-66151983D01*
X126098716Y-66151806D01*
X126077142Y-66166660D01*
X126071870Y-66170290D01*
X126015257Y-66217847D01*
X125941092Y-66284214D01*
X125940506Y-66284752D01*
X125837780Y-66373074D01*
X125688350Y-66492489D01*
X125493354Y-66642142D01*
X125253931Y-66821175D01*
X124971219Y-67028733D01*
X124646358Y-67263958D01*
X124473462Y-67388108D01*
X124304181Y-67509587D01*
X124141721Y-67626584D01*
X123994796Y-67732792D01*
X123872117Y-67821907D01*
X123782398Y-67887621D01*
X123748411Y-67912892D01*
X123651259Y-67978027D01*
X123584448Y-68005382D01*
X123561435Y-68002658D01*
X123531131Y-67979999D01*
X123463093Y-67926966D01*
X123364432Y-67849229D01*
X123242255Y-67752460D01*
X123103671Y-67642327D01*
X122955787Y-67524501D01*
X122805713Y-67404652D01*
X122660557Y-67288449D01*
X122527427Y-67181564D01*
X122413432Y-67089666D01*
X122325679Y-67018425D01*
X122272229Y-66974313D01*
X122209752Y-66922800D01*
X122123744Y-66853280D01*
X122056487Y-66799606D01*
X121980130Y-66735175D01*
X121876326Y-66642274D01*
X121758378Y-66533043D01*
X121639592Y-66419621D01*
X121632861Y-66413077D01*
X121352397Y-66140073D01*
X121352397Y-67696830D01*
X121460740Y-67714155D01*
X121525080Y-67729923D01*
X121599301Y-67759883D01*
X121688389Y-67807313D01*
X121797330Y-67875490D01*
X121931110Y-67967690D01*
X122094713Y-68087192D01*
X122293126Y-68237272D01*
X122503444Y-68399537D01*
X122686785Y-68542562D01*
X122828236Y-68654734D01*
X122931910Y-68739746D01*
X123001921Y-68801291D01*
X123042383Y-68843063D01*
X123057410Y-68868753D01*
X123051116Y-68882055D01*
X123043866Y-68884660D01*
X122996942Y-68888810D01*
X122901851Y-68891733D01*
X122767943Y-68893338D01*
X122604573Y-68893538D01*
X122421090Y-68892242D01*
X122345690Y-68891307D01*
X122107385Y-68886784D01*
X121918851Y-68879968D01*
X121772343Y-68869880D01*
X121660116Y-68855544D01*
X121574424Y-68835982D01*
X121507523Y-68810219D01*
X121453867Y-68778799D01*
X121401089Y-68748284D01*
X121374762Y-68739743D01*
X121368703Y-68767237D01*
X121363267Y-68844629D01*
X121358687Y-68964291D01*
X121355197Y-69118591D01*
X121353028Y-69299900D01*
X121352397Y-69472456D01*
X121352397Y-70205169D01*
X120526180Y-70205169D01*
X120524323Y-70113140D01*
X120522131Y-69937729D01*
X120520510Y-69723788D01*
X120519382Y-69467515D01*
X120518672Y-69165111D01*
X120518302Y-68812777D01*
X120518195Y-68406721D01*
X120518195Y-66268511D01*
X120410324Y-66248903D01*
X120227219Y-66189399D01*
X120046437Y-66081530D01*
X119904380Y-65957191D01*
X119751018Y-65775100D01*
X119648997Y-65593175D01*
X119593457Y-65399268D01*
X119579541Y-65181233D01*
X119579906Y-65170230D01*
X120089325Y-65170230D01*
X120105515Y-65327875D01*
X120161883Y-65475525D01*
X120258929Y-65602585D01*
X120367571Y-65683064D01*
X120537615Y-65749785D01*
X120704418Y-65763302D01*
X120860694Y-65727800D01*
X120999159Y-65647465D01*
X121112526Y-65526481D01*
X121193511Y-65369033D01*
X121234254Y-65185225D01*
X121228324Y-65141701D01*
X121209783Y-65064393D01*
X121194975Y-65011847D01*
X121120770Y-64853935D01*
X121007984Y-64730231D01*
X120866840Y-64645466D01*
X120707558Y-64604369D01*
X120540364Y-64611671D01*
X120416326Y-64651571D01*
X120276813Y-64743259D01*
X120175475Y-64867327D01*
X120112812Y-65013182D01*
X120089325Y-65170230D01*
X119579906Y-65170230D01*
X119580652Y-65147762D01*
X119618131Y-64893174D01*
X119706297Y-64664433D01*
X119752234Y-64597501D01*
X122582169Y-64597501D01*
X122594342Y-65200589D01*
X122598689Y-65381044D01*
X122603894Y-65541447D01*
X122609565Y-65673094D01*
X122615309Y-65767280D01*
X122620734Y-65815299D01*
X122622265Y-65819426D01*
X122656182Y-65819448D01*
X122721076Y-65800020D01*
X122742187Y-65791650D01*
X122795647Y-65781328D01*
X122899207Y-65772266D01*
X123046263Y-65764465D01*
X123230216Y-65757925D01*
X123444462Y-65752646D01*
X123682400Y-65748631D01*
X123937429Y-65745880D01*
X124202946Y-65744393D01*
X124472350Y-65744171D01*
X124739039Y-65745215D01*
X124996412Y-65747525D01*
X125237867Y-65751103D01*
X125456802Y-65755950D01*
X125646615Y-65762065D01*
X125800705Y-65769450D01*
X125912469Y-65778106D01*
X125975307Y-65788033D01*
X125983654Y-65791272D01*
X126042867Y-65821539D01*
X126077142Y-65833401D01*
X126083205Y-65806254D01*
X126088609Y-65729491D01*
X126093102Y-65611027D01*
X126096433Y-65458776D01*
X126098349Y-65280654D01*
X126098716Y-65156084D01*
X126098716Y-64477747D01*
X126001833Y-64537624D01*
X125980133Y-64550268D01*
X125956138Y-64560994D01*
X125925217Y-64569960D01*
X125882740Y-64577324D01*
X125824075Y-64583243D01*
X125744593Y-64587874D01*
X125639663Y-64591376D01*
X125504655Y-64593907D01*
X125334937Y-64595623D01*
X125125880Y-64596683D01*
X124872853Y-64597244D01*
X124571225Y-64597464D01*
X124243559Y-64597501D01*
X122582169Y-64597501D01*
X119752234Y-64597501D01*
X119843565Y-64464429D01*
X120028353Y-64296055D01*
X120058983Y-64274447D01*
X120102738Y-64244187D01*
X120142657Y-64217179D01*
X120182090Y-64193249D01*
X120224384Y-64172219D01*
X120272888Y-64153915D01*
X120330950Y-64138159D01*
X120401919Y-64124776D01*
X120489143Y-64113590D01*
X120595971Y-64104426D01*
X120725750Y-64097106D01*
X120881830Y-64091455D01*
X121067558Y-64087298D01*
X121286284Y-64084457D01*
X121541355Y-64082758D01*
X121836119Y-64082024D01*
X122173926Y-64082079D01*
X122558124Y-64082747D01*
X122992061Y-64083853D01*
X123479085Y-64085219D01*
X123650481Y-64085693D01*
X124154435Y-64087188D01*
X124603706Y-64088790D01*
X125001141Y-64090543D01*
X125349589Y-64092487D01*
X125651897Y-64094665D01*
X125910913Y-64097119D01*
X126129486Y-64099890D01*
X126310462Y-64103021D01*
X126456690Y-64106553D01*
X126571019Y-64110527D01*
X126656294Y-64114987D01*
X126715365Y-64119974D01*
X126751080Y-64125529D01*
X126766089Y-64131488D01*
X126772180Y-64147116D01*
X126777633Y-64183047D01*
X126782484Y-64242127D01*
X126786768Y-64327198D01*
X126790524Y-64441105D01*
X126793787Y-64586691D01*
X126796595Y-64766800D01*
X126798983Y-64984275D01*
X126800988Y-65241962D01*
X126802647Y-65542702D01*
X126803997Y-65889341D01*
X126805073Y-66284722D01*
X126805913Y-66731688D01*
X126806553Y-67233084D01*
X126806603Y-67281318D01*
X126806915Y-67701420D01*
X126807001Y-68106516D01*
X126806871Y-68492756D01*
X126806536Y-68856292D01*
X126806007Y-69193272D01*
X126805295Y-69499848D01*
X126804410Y-69772169D01*
X126803363Y-70006386D01*
X126802165Y-70198649D01*
X126800826Y-70345108D01*
X126799357Y-70441913D01*
X126797769Y-70485215D01*
X126797693Y-70485859D01*
X126769768Y-70565486D01*
X126722649Y-70598023D01*
X126685784Y-70600760D01*
X126595247Y-70603383D01*
X126454898Y-70605869D01*
X126268596Y-70608192D01*
X126040199Y-70610327D01*
X125773567Y-70612249D01*
X125472559Y-70613935D01*
X125141035Y-70615357D01*
X124782854Y-70616493D01*
X124401875Y-70617317D01*
X124001957Y-70617804D01*
X123632806Y-70617934D01*
X123130254Y-70617779D01*
X122682437Y-70617347D01*
X122286560Y-70616606D01*
X121939828Y-70615521D01*
X121639447Y-70614060D01*
X121382620Y-70612190D01*
X121352397Y-70611866D01*
X121166552Y-70609876D01*
X120988449Y-70607086D01*
G37*
G36*
X127380884Y-60760626D02*
G01*
X127329554Y-60746894D01*
X127316352Y-60738847D01*
X127293977Y-60689495D01*
X127283074Y-60597892D01*
X127282994Y-60570321D01*
X127479464Y-60570321D01*
X128120568Y-60570321D01*
X128101449Y-60364610D01*
X128077662Y-60212999D01*
X128039311Y-60087809D01*
X128021057Y-60049878D01*
X127940045Y-59950179D01*
X127842594Y-59897862D01*
X127739805Y-59894292D01*
X127642776Y-59940831D01*
X127589358Y-59996823D01*
X127550643Y-60075484D01*
X127516355Y-60191446D01*
X127491155Y-60324482D01*
X127479708Y-60454363D01*
X127479464Y-60473568D01*
X127479464Y-60570321D01*
X127282994Y-60570321D01*
X127282724Y-60477971D01*
X127292009Y-60343661D01*
X127310011Y-60208893D01*
X127335812Y-60087599D01*
X127364939Y-60001477D01*
X127455053Y-59854865D01*
X127570330Y-59753565D01*
X127702045Y-59699285D01*
X127841475Y-59693730D01*
X127979894Y-59738606D01*
X128108580Y-59835619D01*
X128124815Y-59852895D01*
X128192601Y-59940957D01*
X128239103Y-60037550D01*
X128267688Y-60155445D01*
X128281724Y-60307411D01*
X128284739Y-60459373D01*
X128282933Y-60594456D01*
X128276383Y-60681860D01*
X128263678Y-60731342D01*
X128243402Y-60752657D01*
X128242177Y-60753154D01*
X128199242Y-60759251D01*
X128110292Y-60764859D01*
X127986844Y-60769476D01*
X127840414Y-60772598D01*
X127780909Y-60773290D01*
X127599526Y-60773302D01*
X127479464Y-60769593D01*
X127468530Y-60769255D01*
X127380884Y-60760626D01*
G37*
G36*
X127959152Y-65949965D02*
G01*
X128085893Y-65952043D01*
X128172473Y-65956663D01*
X128227577Y-65964774D01*
X128259888Y-65977322D01*
X128278090Y-65995255D01*
X128283283Y-66003994D01*
X128295040Y-66059103D01*
X128265543Y-66097439D01*
X128224036Y-66114771D01*
X128142900Y-66128119D01*
X128016698Y-66138033D01*
X127839990Y-66145064D01*
X127779754Y-66146613D01*
X127611776Y-66150128D01*
X127492185Y-66150939D01*
X127411864Y-66148113D01*
X127361695Y-66140713D01*
X127332561Y-66127805D01*
X127315346Y-66108454D01*
X127309594Y-66098400D01*
X127291513Y-66033044D01*
X127295668Y-65994715D01*
X127309563Y-65977637D01*
X127341507Y-65965378D01*
X127399615Y-65957187D01*
X127492003Y-65952310D01*
X127626786Y-65949997D01*
X127783568Y-65949483D01*
X127959152Y-65949965D01*
G37*
G36*
X123943177Y-56569604D02*
G01*
X123758756Y-56540924D01*
X123460561Y-56457432D01*
X123196386Y-56336044D01*
X122970703Y-56179738D01*
X122787985Y-55991494D01*
X122675368Y-55819187D01*
X122625479Y-55716522D01*
X122594614Y-55623269D01*
X122576829Y-55516041D01*
X122567453Y-55394638D01*
X122566987Y-55140443D01*
X122594576Y-54912322D01*
X122598775Y-54897343D01*
X123362578Y-54897343D01*
X123383566Y-55051798D01*
X123436262Y-55166160D01*
X123527159Y-55265279D01*
X123652123Y-55341707D01*
X123815529Y-55396592D01*
X124021750Y-55431081D01*
X124275160Y-55446321D01*
X124502227Y-55445731D01*
X124671907Y-55441084D01*
X124795527Y-55435191D01*
X124884556Y-55426373D01*
X124950463Y-55412949D01*
X125004717Y-55393242D01*
X125058789Y-55365571D01*
X125062042Y-55363753D01*
X125201492Y-55259038D01*
X125288512Y-55131021D01*
X125322915Y-54980489D01*
X125304516Y-54808232D01*
X125236948Y-54623039D01*
X125191543Y-54533505D01*
X125153070Y-54469105D01*
X125129599Y-54443293D01*
X125129100Y-54443253D01*
X125095414Y-54443001D01*
X125011827Y-54442290D01*
X124885970Y-54441187D01*
X124725471Y-54439760D01*
X124537958Y-54438077D01*
X124331060Y-54436204D01*
X124315374Y-54436062D01*
X123524443Y-54428871D01*
X123445887Y-54572699D01*
X123383434Y-54732545D01*
X123362578Y-54897343D01*
X122598775Y-54897343D01*
X122648537Y-54719849D01*
X122706625Y-54602555D01*
X122753194Y-54526573D01*
X122783716Y-54471880D01*
X122790676Y-54454897D01*
X122763166Y-54451183D01*
X122685649Y-54448468D01*
X122565638Y-54446812D01*
X122410650Y-54446278D01*
X122228198Y-54446927D01*
X122035579Y-54448704D01*
X121803872Y-54451789D01*
X121622254Y-54455281D01*
X121483283Y-54459735D01*
X121379518Y-54465708D01*
X121303518Y-54473755D01*
X121247839Y-54484432D01*
X121205042Y-54498295D01*
X121172973Y-54513132D01*
X121104657Y-54544644D01*
X121061320Y-54557596D01*
X121055264Y-54556281D01*
X121052847Y-54525141D01*
X121051868Y-54445072D01*
X121052283Y-54324658D01*
X121054049Y-54172483D01*
X121057120Y-53997129D01*
X121058458Y-53933595D01*
X121071852Y-53323256D01*
X123491796Y-53315135D01*
X123922851Y-53313624D01*
X124300112Y-53312116D01*
X124627318Y-53310524D01*
X124908205Y-53308761D01*
X125146511Y-53306739D01*
X125345974Y-53304373D01*
X125510332Y-53301574D01*
X125643321Y-53298256D01*
X125748679Y-53294332D01*
X125830144Y-53289714D01*
X125891454Y-53284317D01*
X125936346Y-53278052D01*
X125968557Y-53270834D01*
X125991825Y-53262574D01*
X126003800Y-53256674D01*
X126068350Y-53223529D01*
X126108602Y-53206817D01*
X126111671Y-53206335D01*
X126116476Y-53233664D01*
X126120694Y-53309913D01*
X126124087Y-53426469D01*
X126126418Y-53574722D01*
X126127452Y-53746060D01*
X126127482Y-53781646D01*
X126127482Y-54356957D01*
X125998037Y-54356957D01*
X125920831Y-54362098D01*
X125874526Y-54375103D01*
X125868592Y-54382832D01*
X125883596Y-54418672D01*
X125922652Y-54486076D01*
X125969336Y-54558413D01*
X126078271Y-54769577D01*
X126144423Y-55010640D01*
X126165672Y-55270801D01*
X126149890Y-55478815D01*
X126088016Y-55711229D01*
X125975350Y-55927992D01*
X125817732Y-56123581D01*
X125621003Y-56292475D01*
X125391001Y-56429152D01*
X125133569Y-56528089D01*
X125006825Y-56559557D01*
X124837142Y-56583684D01*
X124628521Y-56596492D01*
X124398376Y-56598241D01*
X124275160Y-56593481D01*
X124164123Y-56589192D01*
X123943177Y-56569604D01*
G37*
G36*
X127471941Y-66647431D02*
G01*
X127501801Y-66681542D01*
X127514546Y-66724404D01*
X127512369Y-66793100D01*
X127501481Y-66877306D01*
X127489770Y-67010332D01*
X127488851Y-67155037D01*
X127497860Y-67291044D01*
X127515933Y-67397977D01*
X127524746Y-67426097D01*
X127562138Y-67468876D01*
X127608164Y-67463139D01*
X127635918Y-67425114D01*
X127649150Y-67377119D01*
X127669675Y-67287233D01*
X127694248Y-67170124D01*
X127710704Y-67087119D01*
X127739660Y-66956925D01*
X127772040Y-66841599D01*
X127802994Y-66757229D01*
X127819004Y-66727967D01*
X127902165Y-66652256D01*
X127996413Y-66623634D01*
X128088306Y-66645758D01*
X128098445Y-66651936D01*
X128166280Y-66703949D01*
X128214218Y-66763790D01*
X128245822Y-66842397D01*
X128264656Y-66950705D01*
X128274286Y-67099653D01*
X128276889Y-67199482D01*
X128276911Y-67347002D01*
X128271959Y-67477596D01*
X128262848Y-67577063D01*
X128252379Y-67626693D01*
X128215485Y-67686522D01*
X128162604Y-67698988D01*
X128159710Y-67698607D01*
X128134945Y-67692329D01*
X128117595Y-67675645D01*
X128106063Y-67639375D01*
X128098756Y-67574342D01*
X128094078Y-67471367D01*
X128090434Y-67321272D01*
X128089939Y-67297137D01*
X128085262Y-67130804D01*
X128078387Y-67013197D01*
X128068239Y-66935520D01*
X128053743Y-66888980D01*
X128037407Y-66867504D01*
X127999215Y-66849385D01*
X127968374Y-66870543D01*
X127941110Y-66936878D01*
X127913653Y-67054293D01*
X127911710Y-67064149D01*
X127887731Y-67186919D01*
X127861453Y-67321640D01*
X127851317Y-67373666D01*
X127804815Y-67522810D01*
X127735647Y-67629859D01*
X127650473Y-67691869D01*
X127555951Y-67705897D01*
X127458739Y-67668998D01*
X127371346Y-67585875D01*
X127333346Y-67504791D01*
X127306598Y-67383225D01*
X127291219Y-67236145D01*
X127287322Y-67078517D01*
X127295024Y-66925308D01*
X127314438Y-66791483D01*
X127345680Y-66692009D01*
X127364240Y-66661678D01*
X127404531Y-66618524D01*
X127435764Y-66618270D01*
X127471941Y-66647431D01*
G37*
G36*
X127617112Y-53180931D02*
G01*
X127765830Y-53184501D01*
X127918491Y-53191080D01*
X128048839Y-53199453D01*
X128083541Y-53202505D01*
X128184140Y-53213909D01*
X128240236Y-53227494D01*
X128264718Y-53249471D01*
X128270472Y-53286053D01*
X128270517Y-53292631D01*
X128267015Y-53330905D01*
X128248017Y-53353274D01*
X128200790Y-53365013D01*
X128112597Y-53371396D01*
X128076349Y-53373051D01*
X127882182Y-53381557D01*
X127882182Y-54069302D01*
X128009754Y-54069302D01*
X128132814Y-54079779D01*
X128227465Y-54107958D01*
X128286001Y-54148962D01*
X128300716Y-54197912D01*
X128276899Y-54238390D01*
X128232369Y-54252505D01*
X128131876Y-54262650D01*
X127976856Y-54268731D01*
X127778827Y-54270661D01*
X127602016Y-54269954D01*
X127474547Y-54267319D01*
X127388241Y-54261987D01*
X127334921Y-54253188D01*
X127306407Y-54240151D01*
X127295565Y-54225160D01*
X127280606Y-54178477D01*
X127291391Y-54148060D01*
X127323308Y-54114505D01*
X127393621Y-54081290D01*
X127516181Y-54069336D01*
X127524667Y-54069302D01*
X127680823Y-54069302D01*
X127680823Y-53378928D01*
X127511752Y-53378928D01*
X127384890Y-53369571D01*
X127310960Y-53340767D01*
X127288365Y-53291414D01*
X127305886Y-53236939D01*
X127325528Y-53209461D01*
X127356687Y-53192286D01*
X127411245Y-53183275D01*
X127501084Y-53180291D01*
X127617112Y-53180931D01*
G37*
G36*
X124989291Y-60138837D02*
G01*
X124747231Y-60112121D01*
X124527302Y-60033803D01*
X124332767Y-59906633D01*
X124166887Y-59733357D01*
X124032925Y-59516724D01*
X123934144Y-59259483D01*
X123930609Y-59247105D01*
X123909367Y-59146709D01*
X123888426Y-59004319D01*
X123869247Y-58835461D01*
X123853289Y-58655661D01*
X123844094Y-58512736D01*
X124579073Y-58512736D01*
X124586010Y-58633214D01*
X124598890Y-58723388D01*
X124602389Y-58736993D01*
X124659826Y-58859904D01*
X124749019Y-58970838D01*
X124853731Y-59051664D01*
X124904511Y-59074368D01*
X125037893Y-59090532D01*
X125167656Y-59058012D01*
X125279351Y-58984370D01*
X125358528Y-58877172D01*
X125377863Y-58826572D01*
X125393226Y-58720528D01*
X125390968Y-58591083D01*
X125373207Y-58464511D01*
X125342059Y-58367087D01*
X125340621Y-58364276D01*
X125290462Y-58289335D01*
X125223186Y-58212192D01*
X125213981Y-58203215D01*
X125171706Y-58165805D01*
X125131183Y-58142774D01*
X125078015Y-58131204D01*
X124997801Y-58128178D01*
X124876142Y-58130779D01*
X124859035Y-58131301D01*
X124588524Y-58139630D01*
X124579517Y-58384138D01*
X124579073Y-58512736D01*
X123844094Y-58512736D01*
X123842016Y-58480445D01*
X123836888Y-58325338D01*
X123837206Y-58254692D01*
X123837690Y-58169761D01*
X123828156Y-58128496D01*
X123800048Y-58117051D01*
X123754322Y-58120521D01*
X123618278Y-58153635D01*
X123490900Y-58215756D01*
X123392404Y-58295917D01*
X123364816Y-58331841D01*
X123327394Y-58432823D01*
X123311603Y-58572710D01*
X123316692Y-58737409D01*
X123341906Y-58912828D01*
X123386492Y-59084874D01*
X123408354Y-59146425D01*
X123447030Y-59251800D01*
X123476332Y-59341504D01*
X123490440Y-59397591D01*
X123490787Y-59400617D01*
X123480585Y-59429827D01*
X123440353Y-59464385D01*
X123363039Y-59508719D01*
X123241593Y-59567257D01*
X123183122Y-59593824D01*
X123056351Y-59650290D01*
X122945639Y-59698653D01*
X122863329Y-59733585D01*
X122822819Y-59749430D01*
X122797686Y-59748047D01*
X122776269Y-59719749D01*
X122754611Y-59655273D01*
X122728756Y-59545354D01*
X122721885Y-59513075D01*
X122692174Y-59375002D01*
X122661173Y-59235942D01*
X122634665Y-59121742D01*
X122630034Y-59102613D01*
X122578760Y-58827130D01*
X122555594Y-58544270D01*
X122559868Y-58266451D01*
X122590915Y-58006092D01*
X122648066Y-57775608D01*
X122709424Y-57626343D01*
X122798481Y-57488837D01*
X122916529Y-57357279D01*
X123045475Y-57250124D01*
X123123995Y-57203532D01*
X123196575Y-57169688D01*
X123266082Y-57141463D01*
X123338628Y-57118216D01*
X123420328Y-57099309D01*
X123517292Y-57084102D01*
X123635635Y-57071957D01*
X123781470Y-57062234D01*
X123960908Y-57054293D01*
X124180063Y-57047497D01*
X124445048Y-57041205D01*
X124732352Y-57035355D01*
X125031310Y-57029242D01*
X125278117Y-57023477D01*
X125478148Y-57017765D01*
X125636780Y-57011809D01*
X125759388Y-57005315D01*
X125851348Y-56997987D01*
X125918037Y-56989528D01*
X125964831Y-56979643D01*
X125997105Y-56968036D01*
X126002277Y-56965489D01*
X126092814Y-56918668D01*
X126112583Y-57327790D01*
X126119238Y-57491262D01*
X126123450Y-57648906D01*
X126124932Y-57784560D01*
X126123394Y-57882062D01*
X126122725Y-57895123D01*
X126113099Y-58053333D01*
X125990845Y-58062179D01*
X125916178Y-58070045D01*
X125872922Y-58079372D01*
X125868592Y-58082782D01*
X125883053Y-58110913D01*
X125921153Y-58174052D01*
X125974969Y-58259111D01*
X125980793Y-58268138D01*
X126088618Y-58485857D01*
X126151351Y-58729930D01*
X126166592Y-58988146D01*
X126152429Y-59141563D01*
X126087321Y-59401863D01*
X125977389Y-59628149D01*
X125826429Y-59817167D01*
X125638233Y-59965665D01*
X125416596Y-60070390D01*
X125165311Y-60128090D01*
X125037893Y-60135870D01*
X124989291Y-60138837D01*
G37*
G36*
X127389878Y-61266352D02*
G01*
X127465081Y-61275078D01*
X127473158Y-61627456D01*
X127477225Y-61775338D01*
X127482504Y-61875050D01*
X127490653Y-61935951D01*
X127503327Y-61967401D01*
X127522184Y-61978760D01*
X127535528Y-61979834D01*
X127606866Y-61988842D01*
X127634163Y-61996850D01*
X127655854Y-61997082D01*
X127670190Y-61971412D01*
X127679289Y-61910308D01*
X127685266Y-61804238D01*
X127686856Y-61759534D01*
X127691524Y-61638184D01*
X127698245Y-61562791D01*
X127710687Y-61521802D01*
X127732521Y-61503664D01*
X127767415Y-61496827D01*
X127770408Y-61496477D01*
X127824725Y-61499083D01*
X127852428Y-61534218D01*
X127863896Y-61579178D01*
X127874132Y-61659811D01*
X127880768Y-61768617D01*
X127882182Y-61841338D01*
X127882182Y-62012073D01*
X128097924Y-61994217D01*
X128112306Y-61634647D01*
X128126689Y-61275078D01*
X128270517Y-61275078D01*
X128278428Y-61708239D01*
X128279931Y-61860662D01*
X128278809Y-61992308D01*
X128275340Y-62092642D01*
X128269802Y-62151130D01*
X128266442Y-62161296D01*
X128231813Y-62168406D01*
X128151741Y-62173943D01*
X128038292Y-62177877D01*
X127903535Y-62180177D01*
X127759537Y-62180810D01*
X127618364Y-62179747D01*
X127492085Y-62176955D01*
X127392767Y-62172405D01*
X127332476Y-62166064D01*
X127323606Y-62163733D01*
X127304091Y-62147701D01*
X127290933Y-62111085D01*
X127282981Y-62044536D01*
X127279089Y-61938707D01*
X127278105Y-61793376D01*
X127279382Y-61603199D01*
X127284223Y-61463389D01*
X127294137Y-61366819D01*
X127310638Y-61306362D01*
X127335237Y-61274890D01*
X127369444Y-61265277D01*
X127389878Y-61266352D01*
G37*
%TO.C,J4*%
X85011000Y-37680000D02*
X87641000Y-37680000D01*
X87641000Y-37680000D02*
X87641000Y-45390000D01*
X87641000Y-45390000D02*
X85011000Y-45390000D01*
X85011000Y-45390000D02*
X85011000Y-37680000D01*
%TO.C,J8*%
X108309999Y-72172200D02*
X110909999Y-72172200D01*
X110909999Y-72172200D02*
X110909999Y-87482200D01*
X110909999Y-87482200D02*
X108309999Y-87482200D01*
X108309999Y-87482200D02*
X108309999Y-72172200D01*
%TO.C,J6*%
X102741998Y-72182200D02*
X105351998Y-72182200D01*
X105351998Y-72182200D02*
X105351998Y-84942200D01*
X105351998Y-84942200D02*
X102741998Y-84942200D01*
X102741998Y-84942200D02*
X102741998Y-72182200D01*
%TO.C,J10*%
X137374000Y-72172200D02*
X139974000Y-72172200D01*
X139974000Y-72172200D02*
X139974000Y-87482200D01*
X139974000Y-87482200D02*
X137374000Y-87482200D01*
X137374000Y-87482200D02*
X137374000Y-72172200D01*
%TD*%
%LPC*%
D13*
%TO.C,H3*%
X132216000Y-25230000D03*
%TD*%
D14*
%TO.C,J12*%
X98443999Y-73482200D03*
D15*
X98443999Y-76022200D03*
X98443999Y-78562200D03*
X98443999Y-81102200D03*
X98443999Y-83642200D03*
X98443999Y-86182200D03*
%TD*%
D14*
%TO.C,J5*%
X155575000Y-73500000D03*
D15*
X155575000Y-76040000D03*
X155575000Y-78580000D03*
X155575000Y-81120000D03*
X155575000Y-83660000D03*
X155575000Y-86200000D03*
%TD*%
D14*
%TO.C,J7*%
X92855999Y-73482200D03*
D15*
X92855999Y-76022200D03*
X92855999Y-78562200D03*
X92855999Y-81102200D03*
X92855999Y-83642200D03*
X92855999Y-86182200D03*
%TD*%
D14*
%TO.C,J11*%
X149944666Y-73500000D03*
D15*
X149944666Y-76040000D03*
X149944666Y-78580000D03*
X149944666Y-81120000D03*
X149944666Y-83660000D03*
X149944666Y-86200000D03*
%TD*%
D14*
%TO.C,J3*%
X161786000Y-39000000D03*
D15*
X161786000Y-41540000D03*
X161786000Y-44080000D03*
%TD*%
D13*
%TO.C,H4*%
X166800000Y-53150000D03*
%TD*%
D14*
%TO.C,J9*%
X144314333Y-73482200D03*
D15*
X144314333Y-76022200D03*
X144314333Y-78562200D03*
X144314333Y-81102200D03*
X144314333Y-83642200D03*
%TD*%
D13*
%TO.C,H2*%
X81376000Y-53080000D03*
%TD*%
D14*
%TO.C,J4*%
X86341000Y-39000000D03*
D15*
X86341000Y-41540000D03*
X86341000Y-44080000D03*
%TD*%
D14*
%TO.C,J8*%
X109619999Y-73482200D03*
D15*
X109619999Y-76022200D03*
X109619999Y-78562200D03*
X109619999Y-81102200D03*
X109619999Y-83642200D03*
X109619999Y-86182200D03*
%TD*%
D13*
%TO.C,H1*%
X115951000Y-25180000D03*
%TD*%
D14*
%TO.C,J6*%
X104031998Y-73482200D03*
D15*
X104031998Y-76022200D03*
X104031998Y-78562200D03*
X104031998Y-81102200D03*
X104031998Y-83642200D03*
%TD*%
D14*
%TO.C,J10*%
X138684000Y-73482200D03*
D15*
X138684000Y-76022200D03*
X138684000Y-78562200D03*
X138684000Y-81102200D03*
X138684000Y-83642200D03*
X138684000Y-86182200D03*
%TD*%
D16*
%TO.C,J2*%
X159011000Y-22450000D03*
D17*
X162211000Y-20850000D03*
X162211000Y-27850000D03*
D16*
X164511000Y-25450000D03*
X164511000Y-22450000D03*
D18*
X160011000Y-30200000D03*
D19*
X164511000Y-29450000D03*
%TD*%
D17*
%TO.C,J1*%
X86766000Y-20725000D03*
X86766000Y-27725000D03*
D16*
X83566000Y-22325000D03*
X89066000Y-25325000D03*
X89066000Y-22325000D03*
D18*
X84566000Y-30075000D03*
D19*
X89066000Y-29325000D03*
%TD*%
D20*
%TO.C,U2*%
X154860000Y-23080000D03*
X154860000Y-25620000D03*
X154860000Y-28160000D03*
X154860000Y-30700000D03*
X154860000Y-33240000D03*
X154860000Y-35780000D03*
X154860000Y-38320000D03*
X154860000Y-40860000D03*
X154860000Y-43400000D03*
X154860000Y-45940000D03*
X154860000Y-48480000D03*
X154860000Y-51020000D03*
X154860000Y-53560000D03*
X154860000Y-56100000D03*
X154860000Y-58640000D03*
X154860000Y-61180000D03*
X154860000Y-63720000D03*
X154860000Y-66260000D03*
X154860000Y-68800000D03*
X139620000Y-68800000D03*
X139620000Y-66260000D03*
X139620000Y-63720000D03*
X139620000Y-61180000D03*
X139620000Y-58640000D03*
X139620000Y-56100000D03*
X139620000Y-53560000D03*
X139620000Y-51020000D03*
X139620000Y-48480000D03*
X139620000Y-45940000D03*
X139620000Y-43400000D03*
X139620000Y-40860000D03*
X139620000Y-38320000D03*
X139620000Y-35780000D03*
X139620000Y-33240000D03*
X139620000Y-30700000D03*
X139620000Y-28160000D03*
X139620000Y-25620000D03*
X139620000Y-23080000D03*
%TD*%
%TO.C,U1*%
X108780000Y-23090000D03*
X108780000Y-25630000D03*
X108780000Y-28170000D03*
X108780000Y-30710000D03*
X108780000Y-33250000D03*
X108780000Y-35790000D03*
X108780000Y-38330000D03*
X108780000Y-40870000D03*
X108780000Y-43410000D03*
X108780000Y-45950000D03*
X108780000Y-48490000D03*
X108780000Y-51030000D03*
X108780000Y-53570000D03*
X108780000Y-56110000D03*
X108780000Y-58650000D03*
X108780000Y-61190000D03*
X108780000Y-63730000D03*
X108780000Y-66270000D03*
X108780000Y-68810000D03*
X93540000Y-68810000D03*
X93540000Y-66270000D03*
X93540000Y-63730000D03*
X93540000Y-61190000D03*
X93540000Y-58650000D03*
X93540000Y-56110000D03*
X93540000Y-53570000D03*
X93540000Y-51030000D03*
X93540000Y-48490000D03*
X93540000Y-45950000D03*
X93540000Y-43410000D03*
X93540000Y-40870000D03*
X93540000Y-38330000D03*
X93540000Y-35790000D03*
X93540000Y-33250000D03*
X93540000Y-30710000D03*
X93540000Y-28170000D03*
X93540000Y-25630000D03*
X93540000Y-23090000D03*
%TD*%
M02*
