%TF.GenerationSoftware,KiCad,Pcbnew,(6.0.2)*%
%TF.CreationDate,2022-04-21T21:08:15+10:00*%
%TF.ProjectId,adapter,61646170-7465-4722-9e6b-696361645f70,1.2*%
%TF.SameCoordinates,Original*%
%TF.FileFunction,Copper,L1,Top*%
%TF.FilePolarity,Positive*%
%FSLAX46Y46*%
G04 Gerber Fmt 4.6, Leading zero omitted, Abs format (unit mm)*
G04 Created by KiCad (PCBNEW (6.0.2)) date 2022-04-21 21:08:15*
%MOMM*%
%LPD*%
G01*
G04 APERTURE LIST*
%TA.AperFunction,ComponentPad*%
%ADD10R,2.000000X2.000000*%
%TD*%
%TA.AperFunction,ComponentPad*%
%ADD11C,2.000000*%
%TD*%
%TA.AperFunction,ComponentPad*%
%ADD12R,3.200000X2.000000*%
%TD*%
%TA.AperFunction,ComponentPad*%
%ADD13O,1.700000X1.700000*%
%TD*%
%TA.AperFunction,ComponentPad*%
%ADD14R,1.700000X1.700000*%
%TD*%
%TA.AperFunction,ComponentPad*%
%ADD15C,4.000000*%
%TD*%
%TA.AperFunction,ComponentPad*%
%ADD16C,0.800000*%
%TD*%
%TA.AperFunction,ViaPad*%
%ADD17C,0.609600*%
%TD*%
%TA.AperFunction,Conductor*%
%ADD18C,0.500000*%
%TD*%
%TA.AperFunction,Conductor*%
%ADD19C,0.203200*%
%TD*%
G04 APERTURE END LIST*
D10*
%TO.P,SW1,A,A*%
%TO.N,r2*%
X45000000Y-41100000D03*
D11*
%TO.P,SW1,B,B*%
%TO.N,r1*%
X45000000Y-46100000D03*
%TO.P,SW1,C,C*%
%TO.N,Gnd*%
X45000000Y-43600000D03*
D12*
%TO.P,SW1,MP*%
%TO.N,N/C*%
X52500000Y-38000000D03*
X52500000Y-49200000D03*
D11*
%TO.P,SW1,S1,S1*%
%TO.N,Net-(JP1-Pad2)*%
X59500000Y-46100000D03*
%TO.P,SW1,S2,S2*%
%TO.N,Net-(JP2-Pad2)*%
X59500000Y-41100000D03*
%TD*%
D13*
%TO.P,J3,1,Pin_1*%
%TO.N,Row*%
X70200000Y-33225000D03*
%TD*%
%TO.P,J2,1,Pin_1*%
%TO.N,Col*%
X72308000Y-34345000D03*
%TD*%
D14*
%TO.P,J1,1,Pin_1*%
%TO.N,Vcc*%
X74550000Y-37180000D03*
D13*
%TO.P,J1,2,Pin_2*%
%TO.N,button*%
X74550000Y-39720000D03*
%TO.P,J1,3,Pin_3*%
%TO.N,DIN*%
X74550000Y-42260000D03*
%TO.P,J1,4,Pin_4*%
%TO.N,r2*%
X74550000Y-44800000D03*
%TO.P,J1,5,Pin_5*%
%TO.N,r1*%
X74550000Y-47340000D03*
%TO.P,J1,6,Pin_6*%
%TO.N,Gnd*%
X74550000Y-49880000D03*
%TD*%
%TO.P,J5,1,Pin_1*%
%TO.N,DOUT*%
X70200000Y-53950000D03*
%TD*%
%TO.P,J4,1,Pin_1*%
%TO.N,DIN*%
X72313000Y-52750000D03*
%TD*%
D15*
%TO.P,,1*%
%TO.N,N/C*%
X64000000Y-55000000D03*
%TD*%
%TO.P,,1*%
%TO.N,N/C*%
X36750000Y-47750000D03*
%TD*%
%TO.P,,1*%
%TO.N,N/C*%
X64000000Y-32000000D03*
%TD*%
D16*
%TO.P,D12,2,VSS*%
%TO.N,Gnd*%
X37324898Y-53257519D03*
%TO.P,D12,4,VDD*%
%TO.N,Vcc*%
X43503102Y-47958481D03*
%TD*%
%TO.P,D3,2,VSS*%
%TO.N,Gnd*%
X67464102Y-33850481D03*
%TO.P,D3,4,VDD*%
%TO.N,Vcc*%
X61285898Y-39149519D03*
%TD*%
%TO.P,D7,2,VSS*%
%TO.N,Gnd*%
X43849519Y-59039102D03*
%TO.P,D7,4,VDD*%
%TO.N,Vcc*%
X46550481Y-51360898D03*
%TD*%
%TO.P,D6,2,VSS*%
%TO.N,Gnd*%
X36547260Y-35349519D03*
%TO.P,D6,4,VDD*%
%TO.N,Vcc*%
X44225464Y-38050481D03*
%TD*%
%TO.P,D4,2,VSS*%
%TO.N,Gnd*%
X42799728Y-28571898D03*
%TO.P,D4,4,VDD*%
%TO.N,Vcc*%
X48098766Y-34750102D03*
%TD*%
%TO.P,D5,2,VSS*%
%TO.N,Gnd*%
X60550481Y-27810898D03*
%TO.P,D5,4,VDD*%
%TO.N,Vcc*%
X57849519Y-35489102D03*
%TD*%
%TO.P,D10,2,VSS*%
%TO.N,Gnd*%
X34639000Y-44308000D03*
%TO.P,D10,4,VDD*%
%TO.N,Vcc*%
X42639000Y-42808000D03*
%TD*%
%TO.P,D2,2,VSS*%
%TO.N,Gnd*%
X51572000Y-25900000D03*
%TO.P,D2,4,VDD*%
%TO.N,Vcc*%
X53072000Y-33900000D03*
%TD*%
%TO.P,D9,2,VSS*%
%TO.N,Gnd*%
X62274519Y-58439102D03*
%TO.P,D9,4,VDD*%
%TO.N,Vcc*%
X56975481Y-52260898D03*
%TD*%
%TO.P,D1,2,VSS*%
%TO.N,Gnd*%
X70250000Y-43000000D03*
%TO.P,D1,4,VDD*%
%TO.N,Vcc*%
X62250000Y-44500000D03*
%TD*%
%TO.P,D8,2,VSS*%
%TO.N,Gnd*%
X53072000Y-61390000D03*
%TO.P,D8,4,VDD*%
%TO.N,Vcc*%
X51572000Y-53390000D03*
%TD*%
%TO.P,D11,2,VSS*%
%TO.N,Gnd*%
X68302740Y-51950481D03*
%TO.P,D11,4,VDD*%
%TO.N,Vcc*%
X60624536Y-49249519D03*
%TD*%
D17*
%TO.N,Gnd*%
X57125000Y-45700000D03*
%TO.N,button*%
X57124000Y-41907000D03*
%TO.N,Row*%
X59175000Y-38900000D03*
X66856000Y-40755100D03*
%TD*%
D18*
%TO.N,Gnd*%
X72081500Y-47411500D02*
X72081500Y-49295500D01*
X43489000Y-45111000D02*
X45000000Y-43600000D01*
X49072000Y-44200000D02*
X45739000Y-47533000D01*
X71500000Y-46000000D02*
X71500000Y-44250000D01*
X72081500Y-47411500D02*
X71500000Y-46830000D01*
X69426519Y-51950481D02*
X68302740Y-51950481D01*
X71500000Y-46000000D02*
X71258000Y-45758000D01*
X72081500Y-49295500D02*
X69426519Y-51950481D01*
X58750000Y-44200000D02*
X49072000Y-44200000D01*
X57125000Y-45700000D02*
X58625000Y-44200000D01*
X60231000Y-44200000D02*
X58750000Y-44200000D01*
X58625000Y-44200000D02*
X58750000Y-44200000D01*
X43489000Y-46658000D02*
X43489000Y-45111000D01*
X71500000Y-44250000D02*
X70250000Y-43000000D01*
X44364000Y-47533000D02*
X43489000Y-46658000D01*
X61789000Y-45758000D02*
X60231000Y-44200000D01*
X74550000Y-49880000D02*
X72081500Y-47411500D01*
X71500000Y-46830000D02*
X71500000Y-46000000D01*
X71258000Y-45758000D02*
X61789000Y-45758000D01*
X45739000Y-47533000D02*
X44364000Y-47533000D01*
D19*
%TO.N,button*%
X74550000Y-39720000D02*
X72982000Y-41288000D01*
X57899440Y-43062440D02*
X57124000Y-42287000D01*
X57124000Y-42287000D02*
X57124000Y-41907000D01*
X62379125Y-43062440D02*
X57899440Y-43062440D01*
X64153565Y-41288000D02*
X62379125Y-43062440D01*
X72982000Y-41288000D02*
X64153565Y-41288000D01*
%TO.N,r1*%
X72735000Y-43396000D02*
X72735000Y-46298000D01*
X64425273Y-41948880D02*
X71287880Y-41948880D01*
X72735000Y-46298000D02*
X73777000Y-47340000D01*
X47378120Y-43721880D02*
X62652273Y-43721880D01*
X73777000Y-47340000D02*
X74550000Y-47340000D01*
X45000000Y-46100000D02*
X47378120Y-43721880D01*
X62652273Y-43721880D02*
X64425273Y-41948880D01*
X71287880Y-41948880D02*
X72735000Y-43396000D01*
%TO.N,r2*%
X64288698Y-41619161D02*
X71424455Y-41619161D01*
X74550000Y-44744706D02*
X74550000Y-44800000D01*
X47292160Y-43392160D02*
X62515699Y-43392160D01*
X71424455Y-41619161D02*
X74550000Y-44744706D01*
X45000000Y-41100000D02*
X47292160Y-43392160D01*
X62515699Y-43392160D02*
X64288698Y-41619161D01*
%TO.N,Row*%
X66856000Y-40755100D02*
X64220171Y-40755100D01*
X62242551Y-42732720D02*
X58492720Y-42732720D01*
X58492720Y-42732720D02*
X57840000Y-42080000D01*
X57840000Y-42080000D02*
X57840000Y-40235000D01*
X57840000Y-40235000D02*
X59175000Y-38900000D01*
X64220171Y-40755100D02*
X62242551Y-42732720D01*
%TD*%
%TA.AperFunction,Conductor*%
%TO.N,Gnd*%
G36*
X52998172Y-24569670D02*
G01*
X53003784Y-24569864D01*
X53845780Y-24617684D01*
X53851375Y-24618127D01*
X54690460Y-24703438D01*
X54695997Y-24704127D01*
X55530417Y-24826751D01*
X55535944Y-24827689D01*
X56364093Y-24987391D01*
X56369560Y-24988572D01*
X57189755Y-25185028D01*
X57195148Y-25186447D01*
X58005774Y-25419268D01*
X58011137Y-25420939D01*
X58810547Y-25689651D01*
X58815831Y-25691559D01*
X59602490Y-25995646D01*
X59607683Y-25997788D01*
X60379980Y-26336627D01*
X60385073Y-26338998D01*
X61141518Y-26711935D01*
X61146500Y-26714531D01*
X61885547Y-27120804D01*
X61890409Y-27123619D01*
X62582012Y-27545006D01*
X62597922Y-27557266D01*
X62601411Y-27559500D01*
X62610354Y-27568100D01*
X62621905Y-27572623D01*
X62621909Y-27572625D01*
X62636012Y-27578146D01*
X62649812Y-27584535D01*
X72353715Y-32809713D01*
X72370051Y-32820210D01*
X72386909Y-32832979D01*
X72398917Y-32836117D01*
X72405947Y-32839529D01*
X72420811Y-32845320D01*
X72814083Y-33053755D01*
X72821810Y-33058208D01*
X72930301Y-33125964D01*
X72932967Y-33127629D01*
X72980149Y-33180679D01*
X72991161Y-33250817D01*
X72962505Y-33315773D01*
X72928735Y-33343897D01*
X72920161Y-33348796D01*
X72851094Y-33365221D01*
X72810968Y-33356422D01*
X72628403Y-33283586D01*
X72623039Y-33281446D01*
X72617379Y-33280320D01*
X72617375Y-33280319D01*
X72429613Y-33242971D01*
X72429610Y-33242971D01*
X72423946Y-33241844D01*
X72418171Y-33241768D01*
X72418167Y-33241768D01*
X72316793Y-33240441D01*
X72220971Y-33239187D01*
X72215274Y-33240166D01*
X72215273Y-33240166D01*
X72026607Y-33272585D01*
X72020910Y-33273564D01*
X71830463Y-33343824D01*
X71656010Y-33447612D01*
X71651670Y-33451418D01*
X71651666Y-33451421D01*
X71560463Y-33531405D01*
X71503392Y-33581455D01*
X71499816Y-33585991D01*
X71495840Y-33590181D01*
X71494540Y-33588947D01*
X71443360Y-33625307D01*
X71372440Y-33628608D01*
X71310994Y-33593042D01*
X71278531Y-33529902D01*
X71279590Y-33484091D01*
X71278584Y-33483945D01*
X71294323Y-33375397D01*
X71307712Y-33283053D01*
X71309232Y-33225000D01*
X71293497Y-33053755D01*
X71291187Y-33028613D01*
X71291186Y-33028610D01*
X71290658Y-33022859D01*
X71289090Y-33017299D01*
X71237125Y-32833046D01*
X71237124Y-32833044D01*
X71235557Y-32827487D01*
X71224978Y-32806033D01*
X71148331Y-32650609D01*
X71145776Y-32645428D01*
X71024320Y-32482779D01*
X70875258Y-32344987D01*
X70870375Y-32341906D01*
X70870371Y-32341903D01*
X70724728Y-32250010D01*
X70703581Y-32236667D01*
X70515039Y-32161446D01*
X70509379Y-32160320D01*
X70509375Y-32160319D01*
X70321613Y-32122971D01*
X70321610Y-32122971D01*
X70315946Y-32121844D01*
X70310171Y-32121768D01*
X70310167Y-32121768D01*
X70208793Y-32120441D01*
X70112971Y-32119187D01*
X70107274Y-32120166D01*
X70107273Y-32120166D01*
X69918607Y-32152585D01*
X69912910Y-32153564D01*
X69722463Y-32223824D01*
X69548010Y-32327612D01*
X69543670Y-32331418D01*
X69543666Y-32331421D01*
X69420688Y-32439271D01*
X69395392Y-32461455D01*
X69269720Y-32620869D01*
X69267031Y-32625980D01*
X69267029Y-32625983D01*
X69254073Y-32650609D01*
X69175203Y-32800515D01*
X69115007Y-32994378D01*
X69091148Y-33195964D01*
X69104424Y-33398522D01*
X69105845Y-33404118D01*
X69105846Y-33404123D01*
X69126119Y-33483945D01*
X69154392Y-33595269D01*
X69156809Y-33600512D01*
X69219287Y-33736037D01*
X69239377Y-33779616D01*
X69269707Y-33822532D01*
X69320937Y-33895021D01*
X69356533Y-33945389D01*
X69360675Y-33949424D01*
X69422186Y-34009345D01*
X69501938Y-34087035D01*
X69506742Y-34090245D01*
X69554858Y-34122395D01*
X69670720Y-34199812D01*
X69676023Y-34202090D01*
X69676026Y-34202092D01*
X69848576Y-34276225D01*
X69857228Y-34279942D01*
X69930244Y-34296464D01*
X70049579Y-34323467D01*
X70049584Y-34323468D01*
X70055216Y-34324742D01*
X70060987Y-34324969D01*
X70060989Y-34324969D01*
X70120756Y-34327317D01*
X70258053Y-34332712D01*
X70373562Y-34315964D01*
X70453231Y-34304413D01*
X70453236Y-34304412D01*
X70458945Y-34303584D01*
X70464409Y-34301729D01*
X70464414Y-34301728D01*
X70645693Y-34240192D01*
X70645698Y-34240190D01*
X70651165Y-34238334D01*
X70679434Y-34222503D01*
X70725683Y-34196602D01*
X70828276Y-34139147D01*
X70843264Y-34126682D01*
X70979913Y-34013031D01*
X70984345Y-34009345D01*
X70988031Y-34004913D01*
X70988036Y-34004908D01*
X71012190Y-33975866D01*
X71071127Y-33936282D01*
X71142109Y-33934846D01*
X71202600Y-33972013D01*
X71233393Y-34035984D01*
X71229396Y-34093800D01*
X71224721Y-34108854D01*
X71224718Y-34108867D01*
X71223007Y-34114378D01*
X71222328Y-34120115D01*
X71204566Y-34270184D01*
X71176695Y-34335481D01*
X71141946Y-34364776D01*
X66932055Y-36770091D01*
X66862987Y-36786517D01*
X66796000Y-36762994D01*
X66760431Y-36723688D01*
X65562287Y-34648442D01*
X67030971Y-34648442D01*
X67034482Y-34653132D01*
X67175943Y-34716115D01*
X67188422Y-34720170D01*
X67362209Y-34757108D01*
X67375270Y-34758481D01*
X67552934Y-34758481D01*
X67565995Y-34757108D01*
X67739782Y-34720170D01*
X67752261Y-34716115D01*
X67886735Y-34656242D01*
X67897480Y-34647109D01*
X67895883Y-34641472D01*
X67476914Y-34222503D01*
X67462970Y-34214889D01*
X67461137Y-34215020D01*
X67454522Y-34219271D01*
X67037731Y-34636062D01*
X67030971Y-34648442D01*
X65562287Y-34648442D01*
X65335927Y-34256375D01*
X65325733Y-34233877D01*
X65325511Y-34233222D01*
X65325511Y-34233221D01*
X65321523Y-34221474D01*
X65254898Y-34145502D01*
X65243767Y-34140013D01*
X65243766Y-34140012D01*
X65215954Y-34126296D01*
X65163705Y-34078228D01*
X65145739Y-34009542D01*
X65167759Y-33942046D01*
X65201681Y-33908526D01*
X65224774Y-33893096D01*
X65278727Y-33857046D01*
X66551790Y-33857046D01*
X66570361Y-34033742D01*
X66573091Y-34046583D01*
X66627994Y-34215556D01*
X66633332Y-34227545D01*
X66658863Y-34271766D01*
X66669067Y-34281496D01*
X66677088Y-34278285D01*
X67092080Y-33863293D01*
X67098458Y-33851613D01*
X67828510Y-33851613D01*
X67828641Y-33853446D01*
X67832892Y-33860061D01*
X68247472Y-34274641D01*
X68259852Y-34281401D01*
X68266767Y-34276225D01*
X68294872Y-34227545D01*
X68300210Y-34215556D01*
X68355113Y-34046583D01*
X68357843Y-34033742D01*
X68376414Y-33857046D01*
X68376414Y-33843916D01*
X68357843Y-33667220D01*
X68355113Y-33654379D01*
X68300210Y-33485406D01*
X68294872Y-33473417D01*
X68269341Y-33429196D01*
X68259137Y-33419466D01*
X68251116Y-33422677D01*
X67836124Y-33837669D01*
X67828510Y-33851613D01*
X67098458Y-33851613D01*
X67099694Y-33849349D01*
X67099563Y-33847516D01*
X67095312Y-33840901D01*
X66680732Y-33426321D01*
X66668352Y-33419561D01*
X66661437Y-33424737D01*
X66633332Y-33473417D01*
X66627994Y-33485406D01*
X66573091Y-33654379D01*
X66570361Y-33667220D01*
X66551790Y-33843916D01*
X66551790Y-33857046D01*
X65278727Y-33857046D01*
X65375397Y-33792453D01*
X65597593Y-33597593D01*
X65792453Y-33375397D01*
X65956643Y-33129668D01*
X65994031Y-33053853D01*
X67030724Y-33053853D01*
X67032321Y-33059490D01*
X67451290Y-33478459D01*
X67465234Y-33486073D01*
X67467067Y-33485942D01*
X67473682Y-33481691D01*
X67890473Y-33064900D01*
X67897233Y-33052520D01*
X67893722Y-33047830D01*
X67752261Y-32984847D01*
X67739782Y-32980792D01*
X67565995Y-32943854D01*
X67552934Y-32942481D01*
X67375270Y-32942481D01*
X67362209Y-32943854D01*
X67188422Y-32980792D01*
X67175943Y-32984847D01*
X67041469Y-33044720D01*
X67030724Y-33053853D01*
X65994031Y-33053853D01*
X66087355Y-32864611D01*
X66088681Y-32860705D01*
X66181026Y-32588666D01*
X66181027Y-32588663D01*
X66182352Y-32584759D01*
X66205569Y-32468042D01*
X66239204Y-32298946D01*
X66239204Y-32298943D01*
X66240008Y-32294903D01*
X66240312Y-32290273D01*
X66259067Y-32004119D01*
X66259337Y-32000000D01*
X66240008Y-31705097D01*
X66239204Y-31701054D01*
X66183157Y-31419286D01*
X66183155Y-31419280D01*
X66182352Y-31415241D01*
X66087355Y-31135389D01*
X66007427Y-30973311D01*
X65958470Y-30874036D01*
X65958467Y-30874031D01*
X65956643Y-30870332D01*
X65792453Y-30624603D01*
X65597593Y-30402407D01*
X65375397Y-30207547D01*
X65129669Y-30043357D01*
X65125970Y-30041533D01*
X65125965Y-30041530D01*
X64989991Y-29974475D01*
X64864611Y-29912645D01*
X64850097Y-29907718D01*
X64588666Y-29818974D01*
X64588663Y-29818973D01*
X64584759Y-29817648D01*
X64580720Y-29816845D01*
X64580714Y-29816843D01*
X64298946Y-29760796D01*
X64298943Y-29760796D01*
X64294903Y-29759992D01*
X64290792Y-29759723D01*
X64290788Y-29759722D01*
X64004119Y-29740933D01*
X64000000Y-29740663D01*
X63995881Y-29740933D01*
X63709212Y-29759722D01*
X63709208Y-29759723D01*
X63705097Y-29759992D01*
X63701057Y-29760796D01*
X63701054Y-29760796D01*
X63419286Y-29816843D01*
X63419280Y-29816845D01*
X63415241Y-29817648D01*
X63411337Y-29818973D01*
X63411334Y-29818974D01*
X63149903Y-29907718D01*
X63135389Y-29912645D01*
X63010143Y-29974410D01*
X62874036Y-30041530D01*
X62874031Y-30041533D01*
X62870332Y-30043357D01*
X62624603Y-30207547D01*
X62402407Y-30402407D01*
X62207547Y-30624603D01*
X62043357Y-30870332D01*
X62041533Y-30874031D01*
X62041530Y-30874036D01*
X61992573Y-30973311D01*
X61912645Y-31135389D01*
X61817648Y-31415241D01*
X61816845Y-31419280D01*
X61816843Y-31419286D01*
X61760796Y-31701054D01*
X61759992Y-31705097D01*
X61740663Y-32000000D01*
X61740933Y-32004119D01*
X61759689Y-32290273D01*
X61759992Y-32294903D01*
X61760796Y-32298943D01*
X61760796Y-32298946D01*
X61794432Y-32468042D01*
X61817648Y-32584759D01*
X61818973Y-32588663D01*
X61818974Y-32588666D01*
X61911319Y-32860705D01*
X61912645Y-32864611D01*
X62043357Y-33129668D01*
X62207547Y-33375397D01*
X62402407Y-33597593D01*
X62624603Y-33792453D01*
X62870331Y-33956643D01*
X62874030Y-33958467D01*
X62874035Y-33958470D01*
X63010009Y-34025525D01*
X63135389Y-34087355D01*
X63139294Y-34088680D01*
X63139295Y-34088681D01*
X63411334Y-34181026D01*
X63411337Y-34181027D01*
X63415241Y-34182352D01*
X63419280Y-34183155D01*
X63419286Y-34183157D01*
X63701054Y-34239204D01*
X63701057Y-34239204D01*
X63705097Y-34240008D01*
X63709208Y-34240277D01*
X63709212Y-34240278D01*
X63995881Y-34259067D01*
X64000000Y-34259337D01*
X64004119Y-34259067D01*
X64290776Y-34240279D01*
X64290784Y-34240278D01*
X64294903Y-34240008D01*
X64297950Y-34239402D01*
X64367862Y-34250303D01*
X64420962Y-34297429D01*
X64440154Y-34365783D01*
X64419345Y-34433661D01*
X64377163Y-34473406D01*
X62058170Y-35812278D01*
X62035673Y-35822471D01*
X62023270Y-35826682D01*
X62021838Y-35822463D01*
X61976221Y-35833505D01*
X61909141Y-35810251D01*
X61901973Y-35804743D01*
X59904609Y-34152689D01*
X59864865Y-34093859D01*
X59863236Y-34022881D01*
X59870832Y-34004566D01*
X59873318Y-34001731D01*
X59877529Y-33989327D01*
X59887722Y-33966830D01*
X61550295Y-31087170D01*
X61564681Y-31067094D01*
X61565136Y-31066575D01*
X61573318Y-31057245D01*
X61585715Y-31020727D01*
X61601810Y-30973311D01*
X61605799Y-30961560D01*
X61599190Y-30860729D01*
X61554498Y-30770102D01*
X61497704Y-30720295D01*
X61497702Y-30720294D01*
X61491069Y-30714477D01*
X61487854Y-30711657D01*
X61487852Y-30711656D01*
X61478526Y-30703477D01*
X61466122Y-30699266D01*
X61443628Y-30689074D01*
X61326581Y-30621497D01*
X58910372Y-29226499D01*
X58890295Y-29212111D01*
X58889779Y-29211658D01*
X58889778Y-29211657D01*
X58880450Y-29203477D01*
X58784765Y-29170996D01*
X58723906Y-29174985D01*
X58696320Y-29176793D01*
X58696319Y-29176793D01*
X58683934Y-29177605D01*
X58593307Y-29222297D01*
X58551384Y-29270102D01*
X58526682Y-29298269D01*
X58522473Y-29310669D01*
X58512280Y-29333165D01*
X56878137Y-32163586D01*
X56849705Y-32212831D01*
X56835316Y-32232910D01*
X56826682Y-32242755D01*
X56825764Y-32245461D01*
X56779168Y-32289887D01*
X56709454Y-32303321D01*
X56692220Y-32300459D01*
X54175336Y-31700494D01*
X54113712Y-31665242D01*
X54080928Y-31602268D01*
X54080795Y-31600908D01*
X54080976Y-31600000D01*
X54078421Y-31587153D01*
X54076000Y-31562575D01*
X54076000Y-28608859D01*
X60117350Y-28608859D01*
X60120861Y-28613549D01*
X60262322Y-28676532D01*
X60274801Y-28680587D01*
X60448588Y-28717525D01*
X60461649Y-28718898D01*
X60639313Y-28718898D01*
X60652374Y-28717525D01*
X60826161Y-28680587D01*
X60838640Y-28676532D01*
X60973114Y-28616659D01*
X60983859Y-28607526D01*
X60982262Y-28601889D01*
X60563293Y-28182920D01*
X60549349Y-28175306D01*
X60547516Y-28175437D01*
X60540901Y-28179688D01*
X60124110Y-28596479D01*
X60117350Y-28608859D01*
X54076000Y-28608859D01*
X54076000Y-28237425D01*
X54078421Y-28212844D01*
X54078555Y-28212170D01*
X54080976Y-28200000D01*
X54061263Y-28100894D01*
X54005124Y-28016876D01*
X53921106Y-27960737D01*
X53847017Y-27946000D01*
X53834172Y-27943445D01*
X53822000Y-27941024D01*
X53809153Y-27943579D01*
X53784575Y-27946000D01*
X50859425Y-27946000D01*
X50834847Y-27943579D01*
X50822000Y-27941024D01*
X50809828Y-27943445D01*
X50796983Y-27946000D01*
X50722894Y-27960737D01*
X50638876Y-28016876D01*
X50582737Y-28100894D01*
X50563024Y-28200000D01*
X50565445Y-28212170D01*
X50565579Y-28212844D01*
X50568000Y-28237425D01*
X50568000Y-31562575D01*
X50565579Y-31587153D01*
X50563024Y-31600000D01*
X50563800Y-31603900D01*
X50545443Y-31666418D01*
X50491787Y-31712911D01*
X50468523Y-31720896D01*
X47959492Y-32315997D01*
X47888594Y-32312256D01*
X47830974Y-32270778D01*
X47825667Y-32262894D01*
X47822565Y-32253755D01*
X47813928Y-32243906D01*
X47799542Y-32223830D01*
X46136969Y-29344170D01*
X46126775Y-29321672D01*
X46126553Y-29321017D01*
X46126553Y-29321016D01*
X46122565Y-29309269D01*
X46112919Y-29298269D01*
X46064122Y-29242627D01*
X46055940Y-29233297D01*
X45965313Y-29188605D01*
X45952928Y-29187793D01*
X45952927Y-29187793D01*
X45925341Y-29185985D01*
X45864482Y-29181996D01*
X45852731Y-29185985D01*
X45780547Y-29210488D01*
X45780545Y-29210489D01*
X45768797Y-29214477D01*
X45759467Y-29222659D01*
X45758948Y-29223114D01*
X45738872Y-29237500D01*
X43205622Y-30700073D01*
X43183125Y-30710266D01*
X43170721Y-30714477D01*
X43151547Y-30731292D01*
X43151543Y-30731294D01*
X43151544Y-30731295D01*
X43094749Y-30781102D01*
X43050057Y-30871729D01*
X43043448Y-30972560D01*
X43075929Y-31068245D01*
X43084109Y-31077573D01*
X43084110Y-31077574D01*
X43084563Y-31078090D01*
X43098951Y-31098167D01*
X44749292Y-33956643D01*
X44761526Y-33977833D01*
X44771718Y-34000327D01*
X44775929Y-34012731D01*
X44779909Y-34017269D01*
X44795607Y-34081977D01*
X44772387Y-34149069D01*
X44755946Y-34167885D01*
X42824781Y-35979122D01*
X42761411Y-36011134D01*
X42690794Y-36003804D01*
X42675585Y-35996338D01*
X40922932Y-34984444D01*
X39823529Y-34349704D01*
X39803452Y-34335316D01*
X39802936Y-34334863D01*
X39802935Y-34334862D01*
X39793607Y-34326682D01*
X39765554Y-34317159D01*
X39741342Y-34308940D01*
X39709674Y-34298190D01*
X39709673Y-34298190D01*
X39697922Y-34294201D01*
X39637063Y-34298190D01*
X39609477Y-34299998D01*
X39609476Y-34299998D01*
X39597091Y-34300810D01*
X39506464Y-34345502D01*
X39464541Y-34393307D01*
X39439839Y-34421474D01*
X39435702Y-34433661D01*
X39435630Y-34433874D01*
X39425437Y-34456370D01*
X38005812Y-36915235D01*
X37962862Y-36989626D01*
X37948473Y-37009705D01*
X37939839Y-37019550D01*
X37931640Y-37043703D01*
X37907358Y-37115235D01*
X37913967Y-37216066D01*
X37958659Y-37306693D01*
X38034631Y-37373318D01*
X38046378Y-37377306D01*
X38046379Y-37377306D01*
X38047034Y-37377528D01*
X38069532Y-37387722D01*
X38696933Y-37749952D01*
X40837062Y-38985556D01*
X40883607Y-39012429D01*
X40932600Y-39063811D01*
X40946036Y-39133525D01*
X40943719Y-39148369D01*
X40437768Y-41470758D01*
X40386775Y-41704821D01*
X40352731Y-41767123D01*
X40290408Y-41801129D01*
X40263663Y-41804000D01*
X36976425Y-41804000D01*
X36951847Y-41801579D01*
X36939000Y-41799024D01*
X36926828Y-41801445D01*
X36913983Y-41804000D01*
X36839894Y-41818737D01*
X36829577Y-41825631D01*
X36829576Y-41825631D01*
X36782170Y-41857307D01*
X36755876Y-41874876D01*
X36748983Y-41885192D01*
X36734453Y-41906938D01*
X36699737Y-41958894D01*
X36680024Y-42058000D01*
X36682445Y-42070170D01*
X36682579Y-42070844D01*
X36685000Y-42095425D01*
X36685000Y-45020575D01*
X36682579Y-45045153D01*
X36680024Y-45058000D01*
X36685000Y-45083017D01*
X36699737Y-45157106D01*
X36706631Y-45167423D01*
X36706631Y-45167424D01*
X36712035Y-45175512D01*
X36755876Y-45241124D01*
X36786823Y-45261802D01*
X36832351Y-45316277D01*
X36841200Y-45386720D01*
X36810560Y-45450764D01*
X36750159Y-45488077D01*
X36725063Y-45492297D01*
X36459212Y-45509722D01*
X36459208Y-45509723D01*
X36455097Y-45509992D01*
X36451057Y-45510796D01*
X36451054Y-45510796D01*
X36169286Y-45566843D01*
X36169280Y-45566845D01*
X36165241Y-45567648D01*
X36161337Y-45568973D01*
X36161334Y-45568974D01*
X35899067Y-45658002D01*
X35885389Y-45662645D01*
X35788444Y-45710453D01*
X35624036Y-45791530D01*
X35624031Y-45791533D01*
X35620332Y-45793357D01*
X35374603Y-45957547D01*
X35152407Y-46152407D01*
X34957547Y-46374603D01*
X34793357Y-46620332D01*
X34791533Y-46624031D01*
X34791530Y-46624036D01*
X34752030Y-46704135D01*
X34662645Y-46885389D01*
X34661320Y-46889294D01*
X34661319Y-46889295D01*
X34574990Y-47143613D01*
X34567648Y-47165241D01*
X34566845Y-47169280D01*
X34566843Y-47169286D01*
X34510796Y-47451054D01*
X34509992Y-47455097D01*
X34509723Y-47459208D01*
X34509722Y-47459212D01*
X34500938Y-47593231D01*
X34490663Y-47750000D01*
X34490933Y-47754119D01*
X34505233Y-47972288D01*
X34509992Y-48044903D01*
X34510796Y-48048943D01*
X34510796Y-48048946D01*
X34566597Y-48329474D01*
X34567648Y-48334759D01*
X34568973Y-48338663D01*
X34568974Y-48338666D01*
X34637389Y-48540210D01*
X34662645Y-48614611D01*
X34674968Y-48639599D01*
X34782625Y-48857905D01*
X34793357Y-48879668D01*
X34957547Y-49125397D01*
X35152407Y-49347593D01*
X35374603Y-49542453D01*
X35620331Y-49706643D01*
X35624030Y-49708467D01*
X35624035Y-49708470D01*
X35712306Y-49752000D01*
X35885389Y-49837355D01*
X35889294Y-49838680D01*
X35889295Y-49838681D01*
X36161334Y-49931026D01*
X36161337Y-49931027D01*
X36165241Y-49932352D01*
X36169280Y-49933155D01*
X36169286Y-49933157D01*
X36451054Y-49989204D01*
X36451057Y-49989204D01*
X36455097Y-49990008D01*
X36459208Y-49990277D01*
X36459212Y-49990278D01*
X36745881Y-50009067D01*
X36750000Y-50009337D01*
X36754119Y-50009067D01*
X37040788Y-49990278D01*
X37040792Y-49990277D01*
X37044903Y-49990008D01*
X37048943Y-49989204D01*
X37048946Y-49989204D01*
X37330714Y-49933157D01*
X37330720Y-49933155D01*
X37334759Y-49932352D01*
X37338663Y-49931027D01*
X37338666Y-49931026D01*
X37610705Y-49838681D01*
X37610706Y-49838680D01*
X37614611Y-49837355D01*
X37787694Y-49752000D01*
X37875965Y-49708470D01*
X37875970Y-49708467D01*
X37879669Y-49706643D01*
X38125397Y-49542453D01*
X38347593Y-49347593D01*
X38542453Y-49125397D01*
X38706643Y-48879668D01*
X38717376Y-48857905D01*
X38825032Y-48639599D01*
X38837355Y-48614611D01*
X38862611Y-48540210D01*
X38931026Y-48338666D01*
X38931027Y-48338663D01*
X38932352Y-48334759D01*
X38933404Y-48329474D01*
X38989204Y-48048946D01*
X38989204Y-48048943D01*
X38990008Y-48044903D01*
X38994768Y-47972288D01*
X39009067Y-47754119D01*
X39009337Y-47750000D01*
X38999062Y-47593231D01*
X38990278Y-47459212D01*
X38990277Y-47459208D01*
X38990008Y-47455097D01*
X38989204Y-47451054D01*
X38933157Y-47169286D01*
X38933155Y-47169280D01*
X38932352Y-47165241D01*
X38925011Y-47143613D01*
X38838681Y-46889295D01*
X38838680Y-46889294D01*
X38837355Y-46885389D01*
X38747970Y-46704135D01*
X38708470Y-46624036D01*
X38708467Y-46624031D01*
X38706643Y-46620332D01*
X38542453Y-46374603D01*
X38347593Y-46152407D01*
X38125397Y-45957547D01*
X37879669Y-45793357D01*
X37875970Y-45791533D01*
X37875965Y-45791530D01*
X37711556Y-45710453D01*
X37614611Y-45662645D01*
X37600933Y-45658002D01*
X37338666Y-45568974D01*
X37338663Y-45568973D01*
X37334759Y-45567648D01*
X37330720Y-45566845D01*
X37330714Y-45566843D01*
X37304248Y-45561579D01*
X37241338Y-45528672D01*
X37206206Y-45466977D01*
X37210006Y-45396082D01*
X37251532Y-45338496D01*
X37317598Y-45312502D01*
X37328829Y-45312000D01*
X40273565Y-45312000D01*
X40341686Y-45332002D01*
X40388179Y-45385658D01*
X40398194Y-45419462D01*
X40820134Y-48256098D01*
X40810372Y-48326420D01*
X40758505Y-48383755D01*
X38097170Y-49920278D01*
X38074673Y-49930471D01*
X38062269Y-49934682D01*
X38043095Y-49951497D01*
X38043091Y-49951499D01*
X38043092Y-49951500D01*
X37986297Y-50001307D01*
X37941605Y-50091934D01*
X37934996Y-50192765D01*
X37967477Y-50288450D01*
X37975657Y-50297778D01*
X37975658Y-50297779D01*
X37976111Y-50298295D01*
X37990499Y-50318372D01*
X39451332Y-52848611D01*
X39453074Y-52851628D01*
X39463266Y-52874122D01*
X39467477Y-52886526D01*
X39484294Y-52905702D01*
X39484295Y-52905704D01*
X39534102Y-52962498D01*
X39624729Y-53007190D01*
X39637114Y-53008002D01*
X39637115Y-53008002D01*
X39663878Y-53009756D01*
X39725560Y-53013799D01*
X39797092Y-52989517D01*
X39821245Y-52981318D01*
X39831090Y-52972684D01*
X39851169Y-52958295D01*
X39859740Y-52953347D01*
X42528895Y-51412310D01*
X42597890Y-51395572D01*
X42664982Y-51418792D01*
X42677197Y-51428696D01*
X44349910Y-52967416D01*
X44386503Y-53028256D01*
X44384395Y-53099221D01*
X44373725Y-53123148D01*
X43262143Y-55048467D01*
X42997481Y-55506876D01*
X42849705Y-55762831D01*
X42835316Y-55782910D01*
X42826682Y-55792755D01*
X42818483Y-55816908D01*
X42794201Y-55888440D01*
X42800810Y-55989271D01*
X42845502Y-56079898D01*
X42921474Y-56146523D01*
X42933221Y-56150511D01*
X42933222Y-56150511D01*
X42933877Y-56150733D01*
X42956375Y-56160927D01*
X45489625Y-57623500D01*
X45509701Y-57637886D01*
X45519550Y-57646523D01*
X45531298Y-57650511D01*
X45531300Y-57650512D01*
X45579593Y-57666905D01*
X45615235Y-57679004D01*
X45676917Y-57674961D01*
X45703680Y-57673207D01*
X45703681Y-57673207D01*
X45716066Y-57672395D01*
X45806693Y-57627703D01*
X45856500Y-57570908D01*
X45873318Y-57551731D01*
X45877529Y-57539327D01*
X45887722Y-57516830D01*
X47437713Y-54832168D01*
X47489095Y-54783175D01*
X47558809Y-54769739D01*
X47592978Y-54777923D01*
X50488149Y-55917442D01*
X50544209Y-55961002D01*
X50568000Y-56034686D01*
X50568000Y-59052575D01*
X50565579Y-59077153D01*
X50563024Y-59090000D01*
X50568000Y-59115017D01*
X50582737Y-59189106D01*
X50589631Y-59199423D01*
X50589631Y-59199424D01*
X50631983Y-59262808D01*
X50638876Y-59273124D01*
X50722894Y-59329263D01*
X50822000Y-59348976D01*
X50834847Y-59346421D01*
X50859425Y-59344000D01*
X53784575Y-59344000D01*
X53809153Y-59346421D01*
X53822000Y-59348976D01*
X53921106Y-59329263D01*
X54005124Y-59273124D01*
X54029219Y-59237063D01*
X61841388Y-59237063D01*
X61844899Y-59241753D01*
X61986360Y-59304736D01*
X61998839Y-59308791D01*
X62172626Y-59345729D01*
X62185687Y-59347102D01*
X62363351Y-59347102D01*
X62376412Y-59345729D01*
X62550199Y-59308791D01*
X62562678Y-59304736D01*
X62697152Y-59244863D01*
X62707897Y-59235730D01*
X62706300Y-59230093D01*
X62287331Y-58811124D01*
X62273387Y-58803510D01*
X62271554Y-58803641D01*
X62264939Y-58807892D01*
X61848148Y-59224683D01*
X61841388Y-59237063D01*
X54029219Y-59237063D01*
X54061263Y-59189106D01*
X54076000Y-59115017D01*
X54080976Y-59090000D01*
X54078421Y-59077153D01*
X54076000Y-59052575D01*
X54076000Y-58445667D01*
X61362207Y-58445667D01*
X61380778Y-58622363D01*
X61383508Y-58635204D01*
X61438411Y-58804177D01*
X61443749Y-58816166D01*
X61469280Y-58860387D01*
X61479484Y-58870117D01*
X61487505Y-58866906D01*
X61902497Y-58451914D01*
X61908875Y-58440234D01*
X62638927Y-58440234D01*
X62639058Y-58442067D01*
X62643309Y-58448682D01*
X63057889Y-58863262D01*
X63070269Y-58870022D01*
X63077184Y-58864846D01*
X63105289Y-58816166D01*
X63110627Y-58804177D01*
X63165530Y-58635204D01*
X63168260Y-58622363D01*
X63186831Y-58445667D01*
X63186831Y-58432537D01*
X63168260Y-58255841D01*
X63165530Y-58243000D01*
X63110627Y-58074027D01*
X63105289Y-58062038D01*
X63079758Y-58017817D01*
X63069554Y-58008087D01*
X63061533Y-58011298D01*
X62646541Y-58426290D01*
X62638927Y-58440234D01*
X61908875Y-58440234D01*
X61910111Y-58437970D01*
X61909980Y-58436137D01*
X61905729Y-58429522D01*
X61491149Y-58014942D01*
X61478769Y-58008182D01*
X61471854Y-58013358D01*
X61443749Y-58062038D01*
X61438411Y-58074027D01*
X61383508Y-58243000D01*
X61380778Y-58255841D01*
X61362207Y-58432537D01*
X61362207Y-58445667D01*
X54076000Y-58445667D01*
X54076000Y-56331597D01*
X54096002Y-56263476D01*
X54149658Y-56216983D01*
X54161784Y-56212187D01*
X57358989Y-55135399D01*
X57429931Y-55132613D01*
X57491118Y-55168623D01*
X57508323Y-55191807D01*
X58937279Y-57666833D01*
X58947471Y-57689327D01*
X58951682Y-57701731D01*
X58968499Y-57720907D01*
X58968500Y-57720909D01*
X59018307Y-57777703D01*
X59108934Y-57822395D01*
X59121319Y-57823207D01*
X59121320Y-57823207D01*
X59148083Y-57824961D01*
X59209765Y-57829004D01*
X59281297Y-57804722D01*
X59305450Y-57796523D01*
X59315295Y-57787889D01*
X59335374Y-57773500D01*
X59426465Y-57720909D01*
X59562318Y-57642474D01*
X61841141Y-57642474D01*
X61842738Y-57648111D01*
X62261707Y-58067080D01*
X62275651Y-58074694D01*
X62277484Y-58074563D01*
X62284099Y-58070312D01*
X62700890Y-57653521D01*
X62707650Y-57641141D01*
X62704139Y-57636451D01*
X62562678Y-57573468D01*
X62550199Y-57569413D01*
X62376412Y-57532475D01*
X62363351Y-57531102D01*
X62185687Y-57531102D01*
X62172626Y-57532475D01*
X61998839Y-57569413D01*
X61986360Y-57573468D01*
X61851886Y-57633341D01*
X61841141Y-57642474D01*
X59562318Y-57642474D01*
X61868630Y-56310925D01*
X61891122Y-56300734D01*
X61903526Y-56296523D01*
X61912852Y-56288344D01*
X61912854Y-56288343D01*
X61917661Y-56284127D01*
X61922702Y-56279706D01*
X61922704Y-56279705D01*
X61922705Y-56279704D01*
X61922708Y-56279702D01*
X61953971Y-56252286D01*
X62018375Y-56222410D01*
X62088708Y-56232097D01*
X62141812Y-56277017D01*
X62207547Y-56375397D01*
X62402407Y-56597593D01*
X62624603Y-56792453D01*
X62870331Y-56956643D01*
X62874030Y-56958467D01*
X62874035Y-56958470D01*
X63010009Y-57025525D01*
X63135389Y-57087355D01*
X63139294Y-57088680D01*
X63139295Y-57088681D01*
X63411334Y-57181026D01*
X63411337Y-57181027D01*
X63415241Y-57182352D01*
X63419280Y-57183155D01*
X63419286Y-57183157D01*
X63701054Y-57239204D01*
X63701057Y-57239204D01*
X63705097Y-57240008D01*
X63709208Y-57240277D01*
X63709212Y-57240278D01*
X63995881Y-57259067D01*
X64000000Y-57259337D01*
X64004119Y-57259067D01*
X64290788Y-57240278D01*
X64290792Y-57240277D01*
X64294903Y-57240008D01*
X64298943Y-57239204D01*
X64298946Y-57239204D01*
X64580714Y-57183157D01*
X64580720Y-57183155D01*
X64584759Y-57182352D01*
X64588663Y-57181027D01*
X64588666Y-57181026D01*
X64860705Y-57088681D01*
X64860706Y-57088680D01*
X64864611Y-57087355D01*
X64989991Y-57025525D01*
X65125965Y-56958470D01*
X65125970Y-56958467D01*
X65129669Y-56956643D01*
X65375397Y-56792453D01*
X65597593Y-56597593D01*
X65792453Y-56375397D01*
X65956643Y-56129668D01*
X65990251Y-56061519D01*
X66039820Y-55961002D01*
X66087355Y-55864611D01*
X66137026Y-55718286D01*
X66181026Y-55588666D01*
X66181027Y-55588663D01*
X66182352Y-55584759D01*
X66240008Y-55294903D01*
X66248462Y-55165930D01*
X66257585Y-55026728D01*
X66259337Y-55000000D01*
X66248293Y-54831502D01*
X66240278Y-54709212D01*
X66240277Y-54709208D01*
X66240008Y-54705097D01*
X66233104Y-54670389D01*
X66183157Y-54419286D01*
X66183155Y-54419280D01*
X66182352Y-54415241D01*
X66180821Y-54410729D01*
X66088681Y-54139295D01*
X66088680Y-54139294D01*
X66087355Y-54135389D01*
X65990581Y-53939151D01*
X65981612Y-53920964D01*
X69091148Y-53920964D01*
X69104424Y-54123522D01*
X69105845Y-54129118D01*
X69105846Y-54129123D01*
X69126119Y-54208945D01*
X69154392Y-54320269D01*
X69156809Y-54325512D01*
X69192751Y-54403477D01*
X69239377Y-54504616D01*
X69242710Y-54509332D01*
X69311908Y-54607245D01*
X69356533Y-54670389D01*
X69501938Y-54812035D01*
X69670720Y-54924812D01*
X69676023Y-54927090D01*
X69676026Y-54927092D01*
X69764707Y-54965192D01*
X69857228Y-55004942D01*
X69930244Y-55021464D01*
X70049579Y-55048467D01*
X70049584Y-55048468D01*
X70055216Y-55049742D01*
X70060987Y-55049969D01*
X70060989Y-55049969D01*
X70120756Y-55052317D01*
X70258053Y-55057712D01*
X70358499Y-55043148D01*
X70453231Y-55029413D01*
X70453236Y-55029412D01*
X70458945Y-55028584D01*
X70464409Y-55026729D01*
X70464414Y-55026728D01*
X70645693Y-54965192D01*
X70645698Y-54965190D01*
X70651165Y-54963334D01*
X70828276Y-54864147D01*
X70865752Y-54832979D01*
X70979913Y-54738031D01*
X70984345Y-54734345D01*
X71044880Y-54661560D01*
X71110453Y-54582718D01*
X71110455Y-54582715D01*
X71114147Y-54578276D01*
X71213334Y-54401165D01*
X71215190Y-54395698D01*
X71215192Y-54395693D01*
X71276728Y-54214414D01*
X71276729Y-54214409D01*
X71278584Y-54208945D01*
X71279412Y-54203236D01*
X71279413Y-54203231D01*
X71304198Y-54032290D01*
X71307712Y-54008053D01*
X71309232Y-53950000D01*
X71292080Y-53763334D01*
X71291187Y-53753613D01*
X71291186Y-53753610D01*
X71290658Y-53747859D01*
X71284244Y-53725115D01*
X71240693Y-53570697D01*
X71241453Y-53499704D01*
X71280474Y-53440392D01*
X71345367Y-53411593D01*
X71415529Y-53422448D01*
X71462164Y-53461518D01*
X71462446Y-53461277D01*
X71463881Y-53462957D01*
X71464861Y-53463778D01*
X71469533Y-53470389D01*
X71614938Y-53612035D01*
X71783720Y-53724812D01*
X71789023Y-53727090D01*
X71789026Y-53727092D01*
X71877707Y-53765192D01*
X71970228Y-53804942D01*
X72040333Y-53820805D01*
X72162579Y-53848467D01*
X72162584Y-53848468D01*
X72168216Y-53849742D01*
X72173987Y-53849969D01*
X72173989Y-53849969D01*
X72233756Y-53852317D01*
X72371053Y-53857712D01*
X72471499Y-53843148D01*
X72566231Y-53829413D01*
X72566236Y-53829412D01*
X72571945Y-53828584D01*
X72577409Y-53826729D01*
X72577414Y-53826728D01*
X72758693Y-53765192D01*
X72758698Y-53765190D01*
X72764165Y-53763334D01*
X72801728Y-53742298D01*
X72897730Y-53688534D01*
X72941276Y-53664147D01*
X72984694Y-53628037D01*
X73092913Y-53538031D01*
X73097345Y-53534345D01*
X73157915Y-53461518D01*
X73223453Y-53382718D01*
X73223455Y-53382715D01*
X73227147Y-53378276D01*
X73301949Y-53244707D01*
X73323510Y-53206208D01*
X73323511Y-53206206D01*
X73326334Y-53201165D01*
X73328190Y-53195698D01*
X73328192Y-53195693D01*
X73389728Y-53014414D01*
X73389729Y-53014409D01*
X73391584Y-53008945D01*
X73392412Y-53003236D01*
X73392413Y-53003231D01*
X73414924Y-52847971D01*
X73420712Y-52808053D01*
X73422232Y-52750000D01*
X73405662Y-52569670D01*
X73404187Y-52553613D01*
X73404186Y-52553610D01*
X73403658Y-52547859D01*
X73402090Y-52542299D01*
X73350125Y-52358046D01*
X73350124Y-52358044D01*
X73348557Y-52352487D01*
X73337978Y-52331033D01*
X73261331Y-52175609D01*
X73258776Y-52170428D01*
X73137320Y-52007779D01*
X72988258Y-51869987D01*
X72983375Y-51866906D01*
X72983371Y-51866903D01*
X72821464Y-51764748D01*
X72816581Y-51761667D01*
X72628039Y-51686446D01*
X72622379Y-51685320D01*
X72622375Y-51685319D01*
X72434613Y-51647971D01*
X72434610Y-51647971D01*
X72428946Y-51646844D01*
X72423171Y-51646768D01*
X72423167Y-51646768D01*
X72321793Y-51645441D01*
X72225971Y-51644187D01*
X72220274Y-51645166D01*
X72220273Y-51645166D01*
X72031607Y-51677585D01*
X72025910Y-51678564D01*
X71835463Y-51748824D01*
X71661010Y-51852612D01*
X71656670Y-51856418D01*
X71656666Y-51856421D01*
X71546031Y-51953446D01*
X71508392Y-51986455D01*
X71382720Y-52145869D01*
X71380031Y-52150980D01*
X71380029Y-52150983D01*
X71367073Y-52175609D01*
X71288203Y-52325515D01*
X71228007Y-52519378D01*
X71204148Y-52720964D01*
X71217424Y-52923522D01*
X71218845Y-52929118D01*
X71218846Y-52929123D01*
X71256770Y-53078444D01*
X71267392Y-53120269D01*
X71269365Y-53124549D01*
X71273232Y-53195093D01*
X71238174Y-53256831D01*
X71175305Y-53289814D01*
X71104583Y-53283572D01*
X71049617Y-53241655D01*
X71027779Y-53212411D01*
X71027778Y-53212410D01*
X71024320Y-53207779D01*
X70875258Y-53069987D01*
X70870375Y-53066906D01*
X70870371Y-53066903D01*
X70708464Y-52964748D01*
X70703581Y-52961667D01*
X70515039Y-52886446D01*
X70509379Y-52885320D01*
X70509375Y-52885319D01*
X70321613Y-52847971D01*
X70321610Y-52847971D01*
X70315946Y-52846844D01*
X70310171Y-52846768D01*
X70310167Y-52846768D01*
X70208793Y-52845441D01*
X70112971Y-52844187D01*
X70107274Y-52845166D01*
X70107273Y-52845166D01*
X69938737Y-52874126D01*
X69912910Y-52878564D01*
X69722463Y-52948824D01*
X69548010Y-53052612D01*
X69543670Y-53056418D01*
X69543666Y-53056421D01*
X69470862Y-53120269D01*
X69395392Y-53186455D01*
X69391817Y-53190990D01*
X69391816Y-53190991D01*
X69383675Y-53201318D01*
X69269720Y-53345869D01*
X69267031Y-53350980D01*
X69267029Y-53350983D01*
X69219989Y-53440392D01*
X69175203Y-53525515D01*
X69115007Y-53719378D01*
X69091148Y-53920964D01*
X65981612Y-53920964D01*
X65958470Y-53874036D01*
X65958467Y-53874031D01*
X65956643Y-53870332D01*
X65792453Y-53624603D01*
X65597593Y-53402407D01*
X65375397Y-53207547D01*
X65325428Y-53174159D01*
X65279901Y-53119681D01*
X65271054Y-53049238D01*
X65301695Y-52985194D01*
X65323452Y-52968705D01*
X65322560Y-52967542D01*
X65332406Y-52959986D01*
X65343536Y-52954498D01*
X65377506Y-52915762D01*
X65410161Y-52878526D01*
X65414372Y-52866122D01*
X65424565Y-52843625D01*
X65479519Y-52748442D01*
X67869609Y-52748442D01*
X67873120Y-52753132D01*
X68014581Y-52816115D01*
X68027060Y-52820170D01*
X68200847Y-52857108D01*
X68213908Y-52858481D01*
X68391572Y-52858481D01*
X68404633Y-52857108D01*
X68578420Y-52820170D01*
X68590899Y-52816115D01*
X68725373Y-52756242D01*
X68736118Y-52747109D01*
X68734521Y-52741472D01*
X68315552Y-52322503D01*
X68301608Y-52314889D01*
X68299775Y-52315020D01*
X68293160Y-52319271D01*
X67876369Y-52736062D01*
X67869609Y-52748442D01*
X65479519Y-52748442D01*
X65936432Y-51957046D01*
X67390428Y-51957046D01*
X67408999Y-52133742D01*
X67411729Y-52146583D01*
X67466632Y-52315556D01*
X67471970Y-52327545D01*
X67497501Y-52371766D01*
X67507705Y-52381496D01*
X67515726Y-52378285D01*
X67930718Y-51963293D01*
X67937096Y-51951613D01*
X68667148Y-51951613D01*
X68667279Y-51953446D01*
X68671530Y-51960061D01*
X69086110Y-52374641D01*
X69098490Y-52381401D01*
X69105405Y-52376225D01*
X69133510Y-52327545D01*
X69138848Y-52315556D01*
X69193751Y-52146583D01*
X69196481Y-52133742D01*
X69215052Y-51957046D01*
X69215052Y-51943916D01*
X69196481Y-51767220D01*
X69193751Y-51754379D01*
X69138848Y-51585406D01*
X69133510Y-51573417D01*
X69107979Y-51529196D01*
X69097775Y-51519466D01*
X69089754Y-51522677D01*
X68674762Y-51937669D01*
X68667148Y-51951613D01*
X67937096Y-51951613D01*
X67938332Y-51949349D01*
X67938201Y-51947516D01*
X67933950Y-51940901D01*
X67519370Y-51526321D01*
X67506990Y-51519561D01*
X67500075Y-51524737D01*
X67471970Y-51573417D01*
X67466632Y-51585406D01*
X67411729Y-51754379D01*
X67408999Y-51767220D01*
X67390428Y-51943916D01*
X67390428Y-51957046D01*
X65936432Y-51957046D01*
X66400156Y-51153853D01*
X67869362Y-51153853D01*
X67870959Y-51159490D01*
X68289928Y-51578459D01*
X68303872Y-51586073D01*
X68305705Y-51585942D01*
X68312320Y-51581691D01*
X68729111Y-51164900D01*
X68735871Y-51152520D01*
X68732360Y-51147830D01*
X68590899Y-51084847D01*
X68578420Y-51080792D01*
X68404633Y-51043854D01*
X68391572Y-51042481D01*
X68213908Y-51042481D01*
X68200847Y-51043854D01*
X68027060Y-51080792D01*
X68014581Y-51084847D01*
X67880107Y-51144720D01*
X67869362Y-51153853D01*
X66400156Y-51153853D01*
X66887138Y-50310375D01*
X66901524Y-50290299D01*
X66901979Y-50289780D01*
X66910161Y-50280450D01*
X66919830Y-50251968D01*
X66938653Y-50196516D01*
X66942642Y-50184765D01*
X66940230Y-50147966D01*
X73218257Y-50147966D01*
X73248565Y-50282446D01*
X73251645Y-50292275D01*
X73331770Y-50489603D01*
X73336413Y-50498794D01*
X73447694Y-50680388D01*
X73453777Y-50688699D01*
X73593213Y-50849667D01*
X73600580Y-50856883D01*
X73764434Y-50992916D01*
X73772881Y-50998831D01*
X73956756Y-51106279D01*
X73966042Y-51110729D01*
X74165001Y-51186703D01*
X74174899Y-51189579D01*
X74278250Y-51210606D01*
X74292299Y-51209410D01*
X74296000Y-51199065D01*
X74296000Y-50152115D01*
X74291525Y-50136876D01*
X74290135Y-50135671D01*
X74282452Y-50134000D01*
X73233225Y-50134000D01*
X73219694Y-50137973D01*
X73218257Y-50147966D01*
X66940230Y-50147966D01*
X66936033Y-50083934D01*
X66891341Y-49993307D01*
X66834547Y-49943500D01*
X66834545Y-49943499D01*
X66829504Y-49939078D01*
X66824697Y-49934862D01*
X66824695Y-49934861D01*
X66815369Y-49926682D01*
X66802965Y-49922471D01*
X66780471Y-49912279D01*
X66706979Y-49869848D01*
X64070926Y-48347923D01*
X64021933Y-48296541D01*
X64008497Y-48226827D01*
X64009959Y-48216261D01*
X64439768Y-45852662D01*
X64484357Y-45607457D01*
X64516224Y-45544014D01*
X64577332Y-45507871D01*
X64608324Y-45504000D01*
X67912575Y-45504000D01*
X67937153Y-45506421D01*
X67950000Y-45508976D01*
X67962846Y-45506421D01*
X68012743Y-45496496D01*
X68049106Y-45489263D01*
X68133124Y-45433124D01*
X68189263Y-45349106D01*
X68208976Y-45250000D01*
X68206421Y-45237153D01*
X68204000Y-45212575D01*
X68204000Y-43797961D01*
X69816869Y-43797961D01*
X69820380Y-43802651D01*
X69961841Y-43865634D01*
X69974320Y-43869689D01*
X70148107Y-43906627D01*
X70161168Y-43908000D01*
X70338832Y-43908000D01*
X70351893Y-43906627D01*
X70525680Y-43869689D01*
X70538159Y-43865634D01*
X70672633Y-43805761D01*
X70683378Y-43796628D01*
X70681781Y-43790991D01*
X70262812Y-43372022D01*
X70248868Y-43364408D01*
X70247035Y-43364539D01*
X70240420Y-43368790D01*
X69823629Y-43785581D01*
X69816869Y-43797961D01*
X68204000Y-43797961D01*
X68204000Y-42430980D01*
X68224002Y-42362859D01*
X68277658Y-42316366D01*
X68330000Y-42304980D01*
X69384563Y-42304980D01*
X69452684Y-42324982D01*
X69499177Y-42378638D01*
X69509281Y-42448912D01*
X69493682Y-42493980D01*
X69419235Y-42622926D01*
X69413889Y-42634934D01*
X69358989Y-42803898D01*
X69356259Y-42816739D01*
X69337688Y-42993435D01*
X69337688Y-43006565D01*
X69356259Y-43183261D01*
X69358989Y-43196102D01*
X69413892Y-43365075D01*
X69419230Y-43377064D01*
X69444761Y-43421285D01*
X69454965Y-43431015D01*
X69462986Y-43427804D01*
X70160905Y-42729885D01*
X70223217Y-42695859D01*
X70294032Y-42700924D01*
X70339095Y-42729885D01*
X71033370Y-43424160D01*
X71045750Y-43430920D01*
X71052665Y-43425744D01*
X71080770Y-43377064D01*
X71086108Y-43365075D01*
X71141011Y-43196102D01*
X71143741Y-43183261D01*
X71162312Y-43006565D01*
X71162312Y-42993435D01*
X71143741Y-42816739D01*
X71141011Y-42803898D01*
X71086111Y-42634934D01*
X71080765Y-42622926D01*
X71043539Y-42558449D01*
X71026801Y-42489454D01*
X71050021Y-42422362D01*
X71105829Y-42378475D01*
X71176504Y-42371726D01*
X71241753Y-42406354D01*
X72341995Y-43506596D01*
X72376021Y-43568908D01*
X72378900Y-43595691D01*
X72378900Y-46246572D01*
X72376766Y-46266621D01*
X72376568Y-46270811D01*
X72374376Y-46280993D01*
X72375600Y-46291334D01*
X72378027Y-46311840D01*
X72378344Y-46317215D01*
X72378472Y-46317204D01*
X72378900Y-46322382D01*
X72378900Y-46327584D01*
X72379754Y-46332714D01*
X72381839Y-46345243D01*
X72382674Y-46351115D01*
X72387084Y-46388374D01*
X72387086Y-46388381D01*
X72388310Y-46398722D01*
X72392030Y-46406468D01*
X72393440Y-46414942D01*
X72406776Y-46439657D01*
X72416192Y-46457109D01*
X72418885Y-46462396D01*
X72436195Y-46498442D01*
X72436197Y-46498445D01*
X72439628Y-46505590D01*
X72442999Y-46509600D01*
X72444937Y-46511538D01*
X72446452Y-46513189D01*
X72446673Y-46513599D01*
X72446631Y-46513637D01*
X72446792Y-46513820D01*
X72449735Y-46519274D01*
X72457382Y-46526342D01*
X72457382Y-46526343D01*
X72486795Y-46553532D01*
X72490361Y-46556962D01*
X73432478Y-47499079D01*
X73465506Y-47557158D01*
X73504392Y-47710269D01*
X73506809Y-47715512D01*
X73543231Y-47794518D01*
X73589377Y-47894616D01*
X73592710Y-47899332D01*
X73695589Y-48044903D01*
X73706533Y-48060389D01*
X73851938Y-48202035D01*
X74020720Y-48314812D01*
X74026023Y-48317090D01*
X74026026Y-48317092D01*
X74122954Y-48358735D01*
X74177647Y-48404003D01*
X74199184Y-48471654D01*
X74180727Y-48540210D01*
X74128136Y-48587904D01*
X74112361Y-48594268D01*
X74026868Y-48622212D01*
X74017359Y-48626209D01*
X73828463Y-48724542D01*
X73819738Y-48730036D01*
X73649433Y-48857905D01*
X73641726Y-48864748D01*
X73494590Y-49018717D01*
X73488104Y-49026727D01*
X73368098Y-49202649D01*
X73363000Y-49211623D01*
X73273338Y-49404783D01*
X73269775Y-49414470D01*
X73214389Y-49614183D01*
X73215912Y-49622607D01*
X73228292Y-49626000D01*
X74678000Y-49626000D01*
X74746121Y-49646002D01*
X74792614Y-49699658D01*
X74804000Y-49752000D01*
X74804000Y-51198517D01*
X74808064Y-51212359D01*
X74821478Y-51214393D01*
X74828184Y-51213534D01*
X74838262Y-51211392D01*
X75042255Y-51150191D01*
X75051842Y-51146433D01*
X75243095Y-51052739D01*
X75251945Y-51047464D01*
X75425499Y-50923670D01*
X75492572Y-50900396D01*
X75561581Y-50917080D01*
X75610615Y-50968424D01*
X75624106Y-51038127D01*
X75612381Y-51080518D01*
X75516545Y-51281318D01*
X75472509Y-51373585D01*
X75468378Y-51381504D01*
X75233174Y-51795937D01*
X75228493Y-51803544D01*
X74964512Y-52200285D01*
X74959303Y-52207542D01*
X74667884Y-52584577D01*
X74662175Y-52591446D01*
X74344766Y-52946900D01*
X74338588Y-52953344D01*
X73996789Y-53285424D01*
X73990179Y-53291405D01*
X73625728Y-53598423D01*
X73618704Y-53603928D01*
X73233404Y-53884365D01*
X73226011Y-53889354D01*
X72821822Y-54141785D01*
X72814083Y-54146245D01*
X72420811Y-54354680D01*
X72405947Y-54360471D01*
X72398917Y-54363883D01*
X72386909Y-54367021D01*
X72377016Y-54374514D01*
X72377017Y-54374514D01*
X72370053Y-54379789D01*
X72353715Y-54390287D01*
X62649813Y-59615465D01*
X62636012Y-59621854D01*
X62621909Y-59627375D01*
X62621905Y-59627377D01*
X62610354Y-59631900D01*
X62601411Y-59640500D01*
X62597922Y-59642734D01*
X62582012Y-59654994D01*
X61890409Y-60076381D01*
X61885547Y-60079196D01*
X61146500Y-60485469D01*
X61141518Y-60488065D01*
X60385073Y-60861002D01*
X60379980Y-60863373D01*
X59607683Y-61202212D01*
X59602490Y-61204354D01*
X58815831Y-61508441D01*
X58810547Y-61510349D01*
X58011137Y-61779061D01*
X58005778Y-61780731D01*
X57195148Y-62013553D01*
X57189755Y-62014972D01*
X56369560Y-62211428D01*
X56364093Y-62212609D01*
X55535944Y-62372311D01*
X55530417Y-62373249D01*
X54695997Y-62495873D01*
X54690460Y-62496562D01*
X53851375Y-62581873D01*
X53845780Y-62582316D01*
X53003784Y-62630136D01*
X52998172Y-62630330D01*
X52154843Y-62640572D01*
X52149237Y-62640515D01*
X51306272Y-62613154D01*
X51300694Y-62612848D01*
X50878242Y-62580239D01*
X50459824Y-62547942D01*
X50454234Y-62547385D01*
X49617085Y-62445061D01*
X49611525Y-62444255D01*
X48779797Y-62304722D01*
X48774279Y-62303670D01*
X48343196Y-62211425D01*
X48233544Y-62187961D01*
X52638869Y-62187961D01*
X52642380Y-62192651D01*
X52783841Y-62255634D01*
X52796320Y-62259689D01*
X52970107Y-62296627D01*
X52983168Y-62298000D01*
X53160832Y-62298000D01*
X53173893Y-62296627D01*
X53347680Y-62259689D01*
X53360159Y-62255634D01*
X53494633Y-62195761D01*
X53505378Y-62186628D01*
X53503781Y-62180991D01*
X53084812Y-61762022D01*
X53070868Y-61754408D01*
X53069035Y-61754539D01*
X53062420Y-61758790D01*
X52645629Y-62175581D01*
X52638869Y-62187961D01*
X48233544Y-62187961D01*
X47949535Y-62127187D01*
X47944110Y-62125899D01*
X47128071Y-61912834D01*
X47122692Y-61911300D01*
X46316971Y-61662075D01*
X46311643Y-61660296D01*
X46068392Y-61572995D01*
X45576798Y-61396565D01*
X52159688Y-61396565D01*
X52178259Y-61573261D01*
X52180989Y-61586102D01*
X52235892Y-61755075D01*
X52241230Y-61767064D01*
X52266761Y-61811285D01*
X52276965Y-61821015D01*
X52284986Y-61817804D01*
X52699978Y-61402812D01*
X52706356Y-61391132D01*
X53436408Y-61391132D01*
X53436539Y-61392965D01*
X53440790Y-61399580D01*
X53855370Y-61814160D01*
X53867750Y-61820920D01*
X53874665Y-61815744D01*
X53902770Y-61767064D01*
X53908108Y-61755075D01*
X53963011Y-61586102D01*
X53965741Y-61573261D01*
X53984312Y-61396565D01*
X53984312Y-61383435D01*
X53965741Y-61206739D01*
X53963011Y-61193898D01*
X53908108Y-61024925D01*
X53902770Y-61012936D01*
X53877239Y-60968715D01*
X53867035Y-60958985D01*
X53859014Y-60962196D01*
X53444022Y-61377188D01*
X53436408Y-61391132D01*
X52706356Y-61391132D01*
X52707592Y-61388868D01*
X52707461Y-61387035D01*
X52703210Y-61380420D01*
X52288630Y-60965840D01*
X52276250Y-60959080D01*
X52269335Y-60964256D01*
X52241230Y-61012936D01*
X52235892Y-61024925D01*
X52180989Y-61193898D01*
X52178259Y-61206739D01*
X52159688Y-61383435D01*
X52159688Y-61396565D01*
X45576798Y-61396565D01*
X45517828Y-61375401D01*
X45512614Y-61373398D01*
X44732284Y-61053402D01*
X44727136Y-61051155D01*
X43961856Y-60696697D01*
X43956844Y-60694239D01*
X43762312Y-60593372D01*
X52638622Y-60593372D01*
X52640219Y-60599009D01*
X53059188Y-61017978D01*
X53073132Y-61025592D01*
X53074965Y-61025461D01*
X53081580Y-61021210D01*
X53498371Y-60604419D01*
X53505131Y-60592039D01*
X53501620Y-60587349D01*
X53360159Y-60524366D01*
X53347680Y-60520311D01*
X53173893Y-60483373D01*
X53160832Y-60482000D01*
X52983168Y-60482000D01*
X52970107Y-60483373D01*
X52796320Y-60520311D01*
X52783841Y-60524366D01*
X52649367Y-60584239D01*
X52638622Y-60593372D01*
X43762312Y-60593372D01*
X43208076Y-60305995D01*
X43203191Y-60303322D01*
X42585252Y-59947102D01*
X42472531Y-59882122D01*
X42467735Y-59879214D01*
X42401614Y-59837063D01*
X43416388Y-59837063D01*
X43419899Y-59841753D01*
X43561360Y-59904736D01*
X43573839Y-59908791D01*
X43747626Y-59945729D01*
X43760687Y-59947102D01*
X43938351Y-59947102D01*
X43951412Y-59945729D01*
X44125199Y-59908791D01*
X44137678Y-59904736D01*
X44272152Y-59844863D01*
X44282897Y-59835730D01*
X44281300Y-59830093D01*
X43862331Y-59411124D01*
X43848387Y-59403510D01*
X43846554Y-59403641D01*
X43839939Y-59407892D01*
X43423148Y-59824683D01*
X43416388Y-59837063D01*
X42401614Y-59837063D01*
X41756545Y-59425844D01*
X41751904Y-59422738D01*
X41214821Y-59045667D01*
X42937207Y-59045667D01*
X42955778Y-59222363D01*
X42958508Y-59235204D01*
X43013411Y-59404177D01*
X43018749Y-59416166D01*
X43044280Y-59460387D01*
X43054484Y-59470117D01*
X43062505Y-59466906D01*
X43477497Y-59051914D01*
X43483875Y-59040234D01*
X44213927Y-59040234D01*
X44214058Y-59042067D01*
X44218309Y-59048682D01*
X44632889Y-59463262D01*
X44645269Y-59470022D01*
X44652184Y-59464846D01*
X44680289Y-59416166D01*
X44685627Y-59404177D01*
X44740530Y-59235204D01*
X44743260Y-59222363D01*
X44761831Y-59045667D01*
X44761831Y-59032537D01*
X44743260Y-58855841D01*
X44740530Y-58843000D01*
X44685627Y-58674027D01*
X44680289Y-58662038D01*
X44654758Y-58617817D01*
X44644554Y-58608087D01*
X44636533Y-58611298D01*
X44221541Y-59026290D01*
X44213927Y-59040234D01*
X43483875Y-59040234D01*
X43485111Y-59037970D01*
X43484980Y-59036137D01*
X43480729Y-59029522D01*
X43066149Y-58614942D01*
X43053769Y-58608182D01*
X43046854Y-58613358D01*
X43018749Y-58662038D01*
X43013411Y-58674027D01*
X42958508Y-58843000D01*
X42955778Y-58855841D01*
X42937207Y-59032537D01*
X42937207Y-59045667D01*
X41214821Y-59045667D01*
X41061623Y-58938111D01*
X41057110Y-58934789D01*
X40973089Y-58870022D01*
X40623686Y-58600689D01*
X40389167Y-58419913D01*
X40384795Y-58416385D01*
X40178862Y-58242474D01*
X43416141Y-58242474D01*
X43417738Y-58248111D01*
X43836707Y-58667080D01*
X43850651Y-58674694D01*
X43852484Y-58674563D01*
X43859099Y-58670312D01*
X44275890Y-58253521D01*
X44282650Y-58241141D01*
X44279139Y-58236451D01*
X44137678Y-58173468D01*
X44125199Y-58169413D01*
X43951412Y-58132475D01*
X43938351Y-58131102D01*
X43760687Y-58131102D01*
X43747626Y-58132475D01*
X43573839Y-58169413D01*
X43561360Y-58173468D01*
X43426886Y-58233341D01*
X43416141Y-58242474D01*
X40178862Y-58242474D01*
X39980189Y-58074694D01*
X39740444Y-57872229D01*
X39736242Y-57868517D01*
X39692598Y-57828192D01*
X39116791Y-57296183D01*
X39112753Y-57292282D01*
X39079874Y-57259067D01*
X38519425Y-56692900D01*
X38515563Y-56688820D01*
X37949558Y-56063603D01*
X37945882Y-56059356D01*
X37408299Y-55409521D01*
X37404815Y-55405113D01*
X37318525Y-55290788D01*
X36896722Y-54731945D01*
X36893478Y-54727443D01*
X36431825Y-54055480D01*
X36891767Y-54055480D01*
X36895278Y-54060170D01*
X37036739Y-54123153D01*
X37049218Y-54127208D01*
X37223005Y-54164146D01*
X37236066Y-54165519D01*
X37413730Y-54165519D01*
X37426791Y-54164146D01*
X37600578Y-54127208D01*
X37613057Y-54123153D01*
X37747531Y-54063280D01*
X37758276Y-54054147D01*
X37756679Y-54048510D01*
X37337710Y-53629541D01*
X37323766Y-53621927D01*
X37321933Y-53622058D01*
X37315318Y-53626309D01*
X36898527Y-54043100D01*
X36891767Y-54055480D01*
X36431825Y-54055480D01*
X36415877Y-54032266D01*
X36412815Y-54027590D01*
X35966688Y-53311837D01*
X35963824Y-53307004D01*
X35939659Y-53264084D01*
X36412586Y-53264084D01*
X36431157Y-53440780D01*
X36433887Y-53453621D01*
X36488790Y-53622594D01*
X36494128Y-53634583D01*
X36519659Y-53678804D01*
X36529863Y-53688534D01*
X36537884Y-53685323D01*
X36952876Y-53270331D01*
X36959254Y-53258651D01*
X37689306Y-53258651D01*
X37689437Y-53260484D01*
X37693688Y-53267099D01*
X38108268Y-53681679D01*
X38120648Y-53688439D01*
X38127563Y-53683263D01*
X38155668Y-53634583D01*
X38161006Y-53622594D01*
X38215909Y-53453621D01*
X38218639Y-53440780D01*
X38237210Y-53264084D01*
X38237210Y-53250954D01*
X38218639Y-53074258D01*
X38215909Y-53061417D01*
X38161006Y-52892444D01*
X38155668Y-52880455D01*
X38130137Y-52836234D01*
X38119933Y-52826504D01*
X38111912Y-52829715D01*
X37696920Y-53244707D01*
X37689306Y-53258651D01*
X36959254Y-53258651D01*
X36960490Y-53256387D01*
X36960359Y-53254554D01*
X36956108Y-53247939D01*
X36541528Y-52833359D01*
X36529148Y-52826599D01*
X36522233Y-52831775D01*
X36494128Y-52880455D01*
X36488790Y-52892444D01*
X36433887Y-53061417D01*
X36431157Y-53074258D01*
X36412586Y-53250954D01*
X36412586Y-53264084D01*
X35939659Y-53264084D01*
X35550079Y-52572135D01*
X35547432Y-52567180D01*
X35493682Y-52460891D01*
X36891520Y-52460891D01*
X36893117Y-52466528D01*
X37312086Y-52885497D01*
X37326030Y-52893111D01*
X37327863Y-52892980D01*
X37334478Y-52888729D01*
X37751269Y-52471938D01*
X37758029Y-52459558D01*
X37754518Y-52454868D01*
X37613057Y-52391885D01*
X37600578Y-52387830D01*
X37426791Y-52350892D01*
X37413730Y-52349519D01*
X37236066Y-52349519D01*
X37223005Y-52350892D01*
X37049218Y-52387830D01*
X37036739Y-52391885D01*
X36902265Y-52451758D01*
X36891520Y-52460891D01*
X35493682Y-52460891D01*
X35166822Y-51814532D01*
X35164400Y-51809463D01*
X34817744Y-51040659D01*
X34815549Y-51035487D01*
X34503498Y-50251968D01*
X34501536Y-50246704D01*
X34224717Y-49450048D01*
X34222992Y-49444702D01*
X34054644Y-48880215D01*
X33981958Y-48636494D01*
X33980476Y-48631086D01*
X33775708Y-47812937D01*
X33774469Y-47807469D01*
X33762781Y-47750000D01*
X33606377Y-46981021D01*
X33605381Y-46975499D01*
X33601062Y-46948046D01*
X33474293Y-46142366D01*
X33473544Y-46136799D01*
X33379724Y-45298658D01*
X33379224Y-45293062D01*
X33366691Y-45105961D01*
X34205869Y-45105961D01*
X34209380Y-45110651D01*
X34350841Y-45173634D01*
X34363320Y-45177689D01*
X34537107Y-45214627D01*
X34550168Y-45216000D01*
X34727832Y-45216000D01*
X34740893Y-45214627D01*
X34914680Y-45177689D01*
X34927159Y-45173634D01*
X35061633Y-45113761D01*
X35072378Y-45104628D01*
X35070781Y-45098991D01*
X34651812Y-44680022D01*
X34637868Y-44672408D01*
X34636035Y-44672539D01*
X34629420Y-44676790D01*
X34212629Y-45093581D01*
X34205869Y-45105961D01*
X33366691Y-45105961D01*
X33322859Y-44451597D01*
X33322608Y-44445985D01*
X33319677Y-44314565D01*
X33726688Y-44314565D01*
X33745259Y-44491261D01*
X33747989Y-44504102D01*
X33802892Y-44673075D01*
X33808230Y-44685064D01*
X33833761Y-44729285D01*
X33843965Y-44739015D01*
X33851986Y-44735804D01*
X34266978Y-44320812D01*
X34273356Y-44309132D01*
X35003408Y-44309132D01*
X35003539Y-44310965D01*
X35007790Y-44317580D01*
X35422370Y-44732160D01*
X35434750Y-44738920D01*
X35441665Y-44733744D01*
X35469770Y-44685064D01*
X35475108Y-44673075D01*
X35530011Y-44504102D01*
X35532741Y-44491261D01*
X35551312Y-44314565D01*
X35551312Y-44301435D01*
X35532741Y-44124739D01*
X35530011Y-44111898D01*
X35475108Y-43942925D01*
X35469770Y-43930936D01*
X35444239Y-43886715D01*
X35434035Y-43876985D01*
X35426014Y-43880196D01*
X35011022Y-44295188D01*
X35003408Y-44309132D01*
X34273356Y-44309132D01*
X34274592Y-44306868D01*
X34274461Y-44305035D01*
X34270210Y-44298420D01*
X33855630Y-43883840D01*
X33843250Y-43877080D01*
X33836335Y-43882256D01*
X33808230Y-43930936D01*
X33802892Y-43942925D01*
X33747989Y-44111898D01*
X33745259Y-44124739D01*
X33726688Y-44301435D01*
X33726688Y-44314565D01*
X33319677Y-44314565D01*
X33308463Y-43811667D01*
X33304553Y-43636318D01*
X33306299Y-43616310D01*
X33306299Y-43612168D01*
X33308719Y-43600000D01*
X33306804Y-43590370D01*
X33306299Y-43587831D01*
X33306299Y-43583697D01*
X33304553Y-43563681D01*
X33305720Y-43511372D01*
X34205622Y-43511372D01*
X34207219Y-43517009D01*
X34626188Y-43935978D01*
X34640132Y-43943592D01*
X34641965Y-43943461D01*
X34648580Y-43939210D01*
X35065371Y-43522419D01*
X35072131Y-43510039D01*
X35068620Y-43505349D01*
X34927159Y-43442366D01*
X34914680Y-43438311D01*
X34740893Y-43401373D01*
X34727832Y-43400000D01*
X34550168Y-43400000D01*
X34537107Y-43401373D01*
X34363320Y-43438311D01*
X34350841Y-43442366D01*
X34216367Y-43502239D01*
X34205622Y-43511372D01*
X33305720Y-43511372D01*
X33314491Y-43118002D01*
X33322608Y-42754015D01*
X33322859Y-42748403D01*
X33379224Y-41906938D01*
X33379724Y-41901342D01*
X33473544Y-41063201D01*
X33474293Y-41057634D01*
X33494076Y-40931900D01*
X33605382Y-40224494D01*
X33606378Y-40218972D01*
X33632555Y-40090269D01*
X33774471Y-39392520D01*
X33775711Y-39387052D01*
X33791871Y-39322487D01*
X33980479Y-38568904D01*
X33981961Y-38563496D01*
X34069571Y-38269734D01*
X34222992Y-37755298D01*
X34224717Y-37749952D01*
X34501536Y-36953296D01*
X34503498Y-36948032D01*
X34815549Y-36164513D01*
X34817744Y-36159341D01*
X34823092Y-36147480D01*
X36114129Y-36147480D01*
X36117640Y-36152170D01*
X36259101Y-36215153D01*
X36271580Y-36219208D01*
X36445367Y-36256146D01*
X36458428Y-36257519D01*
X36636092Y-36257519D01*
X36649153Y-36256146D01*
X36822940Y-36219208D01*
X36835419Y-36215153D01*
X36969893Y-36155280D01*
X36980638Y-36146147D01*
X36979041Y-36140510D01*
X36560072Y-35721541D01*
X36546128Y-35713927D01*
X36544295Y-35714058D01*
X36537680Y-35718309D01*
X36120889Y-36135100D01*
X36114129Y-36147480D01*
X34823092Y-36147480D01*
X35164400Y-35390537D01*
X35166822Y-35385468D01*
X35181681Y-35356084D01*
X35634948Y-35356084D01*
X35653519Y-35532780D01*
X35656249Y-35545621D01*
X35711152Y-35714594D01*
X35716490Y-35726583D01*
X35742021Y-35770804D01*
X35752225Y-35780534D01*
X35760246Y-35777323D01*
X36175238Y-35362331D01*
X36181616Y-35350651D01*
X36911668Y-35350651D01*
X36911799Y-35352484D01*
X36916050Y-35359099D01*
X37330630Y-35773679D01*
X37343010Y-35780439D01*
X37349925Y-35775263D01*
X37378030Y-35726583D01*
X37383368Y-35714594D01*
X37438271Y-35545621D01*
X37441001Y-35532780D01*
X37459572Y-35356084D01*
X37459572Y-35342954D01*
X37441001Y-35166258D01*
X37438271Y-35153417D01*
X37383368Y-34984444D01*
X37378030Y-34972455D01*
X37352499Y-34928234D01*
X37342295Y-34918504D01*
X37334274Y-34921715D01*
X36919282Y-35336707D01*
X36911668Y-35350651D01*
X36181616Y-35350651D01*
X36182852Y-35348387D01*
X36182721Y-35346554D01*
X36178470Y-35339939D01*
X35763890Y-34925359D01*
X35751510Y-34918599D01*
X35744595Y-34923775D01*
X35716490Y-34972455D01*
X35711152Y-34984444D01*
X35656249Y-35153417D01*
X35653519Y-35166258D01*
X35634948Y-35342954D01*
X35634948Y-35356084D01*
X35181681Y-35356084D01*
X35547432Y-34632820D01*
X35550079Y-34627865D01*
X35592291Y-34552891D01*
X36113882Y-34552891D01*
X36115479Y-34558528D01*
X36534448Y-34977497D01*
X36548392Y-34985111D01*
X36550225Y-34984980D01*
X36556840Y-34980729D01*
X36973631Y-34563938D01*
X36980391Y-34551558D01*
X36976880Y-34546868D01*
X36835419Y-34483885D01*
X36822940Y-34479830D01*
X36649153Y-34442892D01*
X36636092Y-34441519D01*
X36458428Y-34441519D01*
X36445367Y-34442892D01*
X36271580Y-34479830D01*
X36259101Y-34483885D01*
X36124627Y-34543758D01*
X36113882Y-34552891D01*
X35592291Y-34552891D01*
X35963824Y-33892996D01*
X35966688Y-33888163D01*
X36412815Y-33172410D01*
X36415877Y-33167734D01*
X36893478Y-32472557D01*
X36896731Y-32468042D01*
X36904577Y-32457648D01*
X37404816Y-31794886D01*
X37408299Y-31790479D01*
X37945882Y-31140644D01*
X37949558Y-31136397D01*
X38515563Y-30511180D01*
X38519425Y-30507100D01*
X39107876Y-29912645D01*
X39112756Y-29907715D01*
X39116794Y-29903814D01*
X39694707Y-29369859D01*
X42366597Y-29369859D01*
X42370108Y-29374549D01*
X42511569Y-29437532D01*
X42524048Y-29441587D01*
X42697835Y-29478525D01*
X42710896Y-29479898D01*
X42888560Y-29479898D01*
X42901621Y-29478525D01*
X43075408Y-29441587D01*
X43087887Y-29437532D01*
X43222361Y-29377659D01*
X43233106Y-29368526D01*
X43231509Y-29362889D01*
X42812540Y-28943920D01*
X42798596Y-28936306D01*
X42796763Y-28936437D01*
X42790148Y-28940688D01*
X42373357Y-29357479D01*
X42366597Y-29369859D01*
X39694707Y-29369859D01*
X39736250Y-29331476D01*
X39740452Y-29327764D01*
X39748442Y-29321017D01*
X40384795Y-28783615D01*
X40389167Y-28780087D01*
X40650732Y-28578463D01*
X41887416Y-28578463D01*
X41905987Y-28755159D01*
X41908717Y-28768000D01*
X41963620Y-28936973D01*
X41968958Y-28948962D01*
X41994489Y-28993183D01*
X42004693Y-29002913D01*
X42012714Y-28999702D01*
X42427706Y-28584710D01*
X42434084Y-28573030D01*
X43164136Y-28573030D01*
X43164267Y-28574863D01*
X43168518Y-28581478D01*
X43583098Y-28996058D01*
X43595478Y-29002818D01*
X43602393Y-28997642D01*
X43630498Y-28948962D01*
X43635836Y-28936973D01*
X43690739Y-28768000D01*
X43693469Y-28755159D01*
X43712040Y-28578463D01*
X43712040Y-28565333D01*
X43693469Y-28388637D01*
X43690739Y-28375796D01*
X43635836Y-28206823D01*
X43630498Y-28194834D01*
X43604967Y-28150613D01*
X43594763Y-28140883D01*
X43586742Y-28144094D01*
X43171750Y-28559086D01*
X43164136Y-28573030D01*
X42434084Y-28573030D01*
X42435320Y-28570766D01*
X42435189Y-28568933D01*
X42430938Y-28562318D01*
X42016358Y-28147738D01*
X42003978Y-28140978D01*
X41997063Y-28146154D01*
X41968958Y-28194834D01*
X41963620Y-28206823D01*
X41908717Y-28375796D01*
X41905987Y-28388637D01*
X41887416Y-28565333D01*
X41887416Y-28578463D01*
X40650732Y-28578463D01*
X40904692Y-28382701D01*
X41057120Y-28265203D01*
X41061623Y-28261889D01*
X41751904Y-27777262D01*
X41754880Y-27775270D01*
X42366350Y-27775270D01*
X42367947Y-27780907D01*
X42786916Y-28199876D01*
X42800860Y-28207490D01*
X42802693Y-28207359D01*
X42809308Y-28203108D01*
X43194953Y-27817463D01*
X59638169Y-27817463D01*
X59656740Y-27994159D01*
X59659470Y-28007000D01*
X59714373Y-28175973D01*
X59719711Y-28187962D01*
X59745242Y-28232183D01*
X59755446Y-28241913D01*
X59763467Y-28238702D01*
X60178459Y-27823710D01*
X60184837Y-27812030D01*
X60914889Y-27812030D01*
X60915020Y-27813863D01*
X60919271Y-27820478D01*
X61333851Y-28235058D01*
X61346231Y-28241818D01*
X61353146Y-28236642D01*
X61381251Y-28187962D01*
X61386589Y-28175973D01*
X61441492Y-28007000D01*
X61444222Y-27994159D01*
X61462793Y-27817463D01*
X61462793Y-27804333D01*
X61444222Y-27627637D01*
X61441492Y-27614796D01*
X61386589Y-27445823D01*
X61381251Y-27433834D01*
X61355720Y-27389613D01*
X61345516Y-27379883D01*
X61337495Y-27383094D01*
X60922503Y-27798086D01*
X60914889Y-27812030D01*
X60184837Y-27812030D01*
X60186073Y-27809766D01*
X60185942Y-27807933D01*
X60181691Y-27801318D01*
X59767111Y-27386738D01*
X59754731Y-27379978D01*
X59747816Y-27385154D01*
X59719711Y-27433834D01*
X59714373Y-27445823D01*
X59659470Y-27614796D01*
X59656740Y-27627637D01*
X59638169Y-27804333D01*
X59638169Y-27817463D01*
X43194953Y-27817463D01*
X43226099Y-27786317D01*
X43232859Y-27773937D01*
X43229348Y-27769247D01*
X43087887Y-27706264D01*
X43075408Y-27702209D01*
X42901621Y-27665271D01*
X42888560Y-27663898D01*
X42710896Y-27663898D01*
X42697835Y-27665271D01*
X42524048Y-27702209D01*
X42511569Y-27706264D01*
X42377095Y-27766137D01*
X42366350Y-27775270D01*
X41754880Y-27775270D01*
X41756545Y-27774156D01*
X42467744Y-27320781D01*
X42472539Y-27317873D01*
X42980040Y-27025317D01*
X42999203Y-27014270D01*
X60117103Y-27014270D01*
X60118700Y-27019907D01*
X60537669Y-27438876D01*
X60551613Y-27446490D01*
X60553446Y-27446359D01*
X60560061Y-27442108D01*
X60976852Y-27025317D01*
X60983612Y-27012937D01*
X60980101Y-27008247D01*
X60838640Y-26945264D01*
X60826161Y-26941209D01*
X60652374Y-26904271D01*
X60639313Y-26902898D01*
X60461649Y-26902898D01*
X60448588Y-26904271D01*
X60274801Y-26941209D01*
X60262322Y-26945264D01*
X60127848Y-27005137D01*
X60117103Y-27014270D01*
X42999203Y-27014270D01*
X43203199Y-26896674D01*
X43208076Y-26894005D01*
X43586167Y-26697961D01*
X51138869Y-26697961D01*
X51142380Y-26702651D01*
X51283841Y-26765634D01*
X51296320Y-26769689D01*
X51470107Y-26806627D01*
X51483168Y-26808000D01*
X51660832Y-26808000D01*
X51673893Y-26806627D01*
X51847680Y-26769689D01*
X51860159Y-26765634D01*
X51994633Y-26705761D01*
X52005378Y-26696628D01*
X52003781Y-26690991D01*
X51584812Y-26272022D01*
X51570868Y-26264408D01*
X51569035Y-26264539D01*
X51562420Y-26268790D01*
X51145629Y-26685581D01*
X51138869Y-26697961D01*
X43586167Y-26697961D01*
X43956844Y-26505761D01*
X43961856Y-26503303D01*
X44727136Y-26148845D01*
X44732285Y-26146598D01*
X45317620Y-25906565D01*
X50659688Y-25906565D01*
X50678259Y-26083261D01*
X50680989Y-26096102D01*
X50735892Y-26265075D01*
X50741230Y-26277064D01*
X50766761Y-26321285D01*
X50776965Y-26331015D01*
X50784986Y-26327804D01*
X51199978Y-25912812D01*
X51206356Y-25901132D01*
X51936408Y-25901132D01*
X51936539Y-25902965D01*
X51940790Y-25909580D01*
X52355370Y-26324160D01*
X52367750Y-26330920D01*
X52374665Y-26325744D01*
X52402770Y-26277064D01*
X52408108Y-26265075D01*
X52463011Y-26096102D01*
X52465741Y-26083261D01*
X52484312Y-25906565D01*
X52484312Y-25893435D01*
X52465741Y-25716739D01*
X52463011Y-25703898D01*
X52408108Y-25534925D01*
X52402770Y-25522936D01*
X52377239Y-25478715D01*
X52367035Y-25468985D01*
X52359014Y-25472196D01*
X51944022Y-25887188D01*
X51936408Y-25901132D01*
X51206356Y-25901132D01*
X51207592Y-25898868D01*
X51207461Y-25897035D01*
X51203210Y-25890420D01*
X50788630Y-25475840D01*
X50776250Y-25469080D01*
X50769335Y-25474256D01*
X50741230Y-25522936D01*
X50735892Y-25534925D01*
X50680989Y-25703898D01*
X50678259Y-25716739D01*
X50659688Y-25893435D01*
X50659688Y-25906565D01*
X45317620Y-25906565D01*
X45512614Y-25826602D01*
X45517828Y-25824599D01*
X46311643Y-25539704D01*
X46316971Y-25537925D01*
X46695175Y-25420939D01*
X47122692Y-25288700D01*
X47128071Y-25287166D01*
X47832002Y-25103372D01*
X51138622Y-25103372D01*
X51140219Y-25109009D01*
X51559188Y-25527978D01*
X51573132Y-25535592D01*
X51574965Y-25535461D01*
X51581580Y-25531210D01*
X51998371Y-25114419D01*
X52005131Y-25102039D01*
X52001620Y-25097349D01*
X51860159Y-25034366D01*
X51847680Y-25030311D01*
X51673893Y-24993373D01*
X51660832Y-24992000D01*
X51483168Y-24992000D01*
X51470107Y-24993373D01*
X51296320Y-25030311D01*
X51283841Y-25034366D01*
X51149367Y-25094239D01*
X51138622Y-25103372D01*
X47832002Y-25103372D01*
X47944110Y-25074101D01*
X47949535Y-25072813D01*
X48397539Y-24976946D01*
X48774279Y-24896330D01*
X48779797Y-24895278D01*
X49611525Y-24755745D01*
X49617085Y-24754939D01*
X50454234Y-24652615D01*
X50459824Y-24652058D01*
X50899405Y-24618127D01*
X51300694Y-24587152D01*
X51306272Y-24586846D01*
X52149237Y-24559485D01*
X52154843Y-24559428D01*
X52998172Y-24569670D01*
G37*
%TD.AperFunction*%
%TD*%
%TA.AperFunction,NonConductor*%
G36*
X76179561Y-41470758D02*
G01*
X76230135Y-41520586D01*
X76246000Y-41581792D01*
X76246000Y-48065557D01*
X76243947Y-48088210D01*
X76241055Y-48104034D01*
X76243666Y-48116168D01*
X76243788Y-48123993D01*
X76245316Y-48139863D01*
X76241706Y-48321474D01*
X76237099Y-48553294D01*
X76236471Y-48584868D01*
X76235977Y-48593779D01*
X76194926Y-49044757D01*
X76192778Y-49068350D01*
X76191655Y-49077202D01*
X76130842Y-49450048D01*
X76115329Y-49545157D01*
X76084621Y-49609170D01*
X76024181Y-49646419D01*
X75953197Y-49645078D01*
X75894207Y-49605574D01*
X75868768Y-49555570D01*
X75841214Y-49445875D01*
X75837894Y-49436124D01*
X75752972Y-49240814D01*
X75748105Y-49231739D01*
X75632426Y-49052926D01*
X75626136Y-49044757D01*
X75482806Y-48887240D01*
X75475273Y-48880215D01*
X75308139Y-48748222D01*
X75299552Y-48742517D01*
X75113117Y-48639599D01*
X75103705Y-48635369D01*
X74989391Y-48594888D01*
X74931855Y-48553294D01*
X74905939Y-48487196D01*
X74919873Y-48417580D01*
X74969232Y-48366549D01*
X74990943Y-48356804D01*
X75001165Y-48353334D01*
X75049224Y-48326420D01*
X75171753Y-48257800D01*
X75178276Y-48254147D01*
X75188671Y-48245502D01*
X75329913Y-48128031D01*
X75334345Y-48124345D01*
X75464147Y-47968276D01*
X75563334Y-47791165D01*
X75565190Y-47785698D01*
X75565192Y-47785693D01*
X75626728Y-47604414D01*
X75626729Y-47604409D01*
X75628584Y-47598945D01*
X75629412Y-47593236D01*
X75629413Y-47593231D01*
X75654951Y-47417092D01*
X75657712Y-47398053D01*
X75659232Y-47340000D01*
X75640658Y-47137859D01*
X75595649Y-46978269D01*
X75587125Y-46948046D01*
X75587124Y-46948044D01*
X75585557Y-46942487D01*
X75495776Y-46760428D01*
X75374320Y-46597779D01*
X75225258Y-46459987D01*
X75220375Y-46456906D01*
X75220371Y-46456903D01*
X75058464Y-46354748D01*
X75053581Y-46351667D01*
X74865039Y-46276446D01*
X74859379Y-46275320D01*
X74859375Y-46275319D01*
X74671613Y-46237971D01*
X74671610Y-46237971D01*
X74665946Y-46236844D01*
X74660171Y-46236768D01*
X74660167Y-46236768D01*
X74558793Y-46235441D01*
X74462971Y-46234187D01*
X74457274Y-46235166D01*
X74457273Y-46235166D01*
X74268607Y-46267585D01*
X74262910Y-46268564D01*
X74072463Y-46338824D01*
X73898010Y-46442612D01*
X73893670Y-46446418D01*
X73893666Y-46446421D01*
X73769634Y-46555195D01*
X73745392Y-46576455D01*
X73741817Y-46580990D01*
X73741815Y-46580992D01*
X73732522Y-46592781D01*
X73674642Y-46633896D01*
X73603722Y-46637192D01*
X73544475Y-46603873D01*
X73128005Y-46187403D01*
X73093979Y-46125091D01*
X73091100Y-46098308D01*
X73091100Y-44093598D01*
X73111102Y-44025477D01*
X73164758Y-43978984D01*
X73235032Y-43968880D01*
X73299612Y-43998374D01*
X73306195Y-44004503D01*
X73511979Y-44210287D01*
X73546005Y-44272599D01*
X73540940Y-44343414D01*
X73534396Y-44358042D01*
X73525203Y-44375515D01*
X73465007Y-44569378D01*
X73441148Y-44770964D01*
X73454424Y-44973522D01*
X73455845Y-44979118D01*
X73455846Y-44979123D01*
X73491709Y-45120329D01*
X73504392Y-45170269D01*
X73506809Y-45175512D01*
X73572025Y-45316976D01*
X73589377Y-45354616D01*
X73592710Y-45359332D01*
X73686680Y-45492297D01*
X73706533Y-45520389D01*
X73851938Y-45662035D01*
X74020720Y-45774812D01*
X74026023Y-45777090D01*
X74026026Y-45777092D01*
X74114707Y-45815192D01*
X74207228Y-45854942D01*
X74280244Y-45871464D01*
X74399579Y-45898467D01*
X74399584Y-45898468D01*
X74405216Y-45899742D01*
X74410987Y-45899969D01*
X74410989Y-45899969D01*
X74470756Y-45902317D01*
X74608053Y-45907712D01*
X74708499Y-45893148D01*
X74803231Y-45879413D01*
X74803236Y-45879412D01*
X74808945Y-45878584D01*
X74814409Y-45876729D01*
X74814414Y-45876728D01*
X74995693Y-45815192D01*
X74995698Y-45815190D01*
X75001165Y-45813334D01*
X75036837Y-45793357D01*
X75075683Y-45771602D01*
X75178276Y-45714147D01*
X75240934Y-45662035D01*
X75329913Y-45588031D01*
X75334345Y-45584345D01*
X75391463Y-45515669D01*
X75460453Y-45432718D01*
X75460455Y-45432715D01*
X75464147Y-45428276D01*
X75541281Y-45290543D01*
X75560510Y-45256208D01*
X75560511Y-45256206D01*
X75563334Y-45251165D01*
X75565190Y-45245698D01*
X75565192Y-45245693D01*
X75626728Y-45064414D01*
X75626729Y-45064409D01*
X75628584Y-45058945D01*
X75629412Y-45053236D01*
X75629413Y-45053231D01*
X75657179Y-44861727D01*
X75657712Y-44858053D01*
X75659232Y-44800000D01*
X75640658Y-44597859D01*
X75639090Y-44592299D01*
X75587125Y-44408046D01*
X75587124Y-44408044D01*
X75585557Y-44402487D01*
X75574978Y-44381033D01*
X75498331Y-44225609D01*
X75495776Y-44220428D01*
X75374320Y-44057779D01*
X75225258Y-43919987D01*
X75220375Y-43916906D01*
X75220371Y-43916903D01*
X75058464Y-43814748D01*
X75053581Y-43811667D01*
X74865039Y-43736446D01*
X74859379Y-43735320D01*
X74859375Y-43735319D01*
X74671613Y-43697971D01*
X74671610Y-43697971D01*
X74665946Y-43696844D01*
X74660171Y-43696768D01*
X74660167Y-43696768D01*
X74558793Y-43695441D01*
X74462971Y-43694187D01*
X74457274Y-43695166D01*
X74457273Y-43695166D01*
X74268607Y-43727585D01*
X74262910Y-43728564D01*
X74173889Y-43761406D01*
X74103057Y-43766218D01*
X74041184Y-43732289D01*
X72276397Y-41967501D01*
X72242371Y-41905189D01*
X72247436Y-41834373D01*
X72289983Y-41777538D01*
X72355569Y-41752797D01*
X72610253Y-41732676D01*
X73395744Y-41670621D01*
X73465227Y-41685196D01*
X73515801Y-41735024D01*
X73531408Y-41804284D01*
X73524219Y-41835209D01*
X73525203Y-41835515D01*
X73465007Y-42029378D01*
X73441148Y-42230964D01*
X73454424Y-42433522D01*
X73455845Y-42439118D01*
X73455846Y-42439123D01*
X73502527Y-42622926D01*
X73504392Y-42630269D01*
X73506809Y-42635512D01*
X73558852Y-42748403D01*
X73589377Y-42814616D01*
X73706533Y-42980389D01*
X73851938Y-43122035D01*
X74020720Y-43234812D01*
X74026023Y-43237090D01*
X74026026Y-43237092D01*
X74114707Y-43275192D01*
X74207228Y-43314942D01*
X74280244Y-43331464D01*
X74399579Y-43358467D01*
X74399584Y-43358468D01*
X74405216Y-43359742D01*
X74410987Y-43359969D01*
X74410989Y-43359969D01*
X74470756Y-43362317D01*
X74608053Y-43367712D01*
X74708499Y-43353148D01*
X74803231Y-43339413D01*
X74803236Y-43339412D01*
X74808945Y-43338584D01*
X74814409Y-43336729D01*
X74814414Y-43336728D01*
X74995693Y-43275192D01*
X74995698Y-43275190D01*
X75001165Y-43273334D01*
X75178276Y-43174147D01*
X75240934Y-43122035D01*
X75329913Y-43048031D01*
X75334345Y-43044345D01*
X75358172Y-43015696D01*
X75460453Y-42892718D01*
X75460455Y-42892715D01*
X75464147Y-42888276D01*
X75563334Y-42711165D01*
X75565190Y-42705698D01*
X75565192Y-42705693D01*
X75626728Y-42524414D01*
X75626729Y-42524409D01*
X75628584Y-42518945D01*
X75629412Y-42513236D01*
X75629413Y-42513231D01*
X75649930Y-42371726D01*
X75657712Y-42318053D01*
X75659232Y-42260000D01*
X75640658Y-42057859D01*
X75637265Y-42045829D01*
X75587125Y-41868046D01*
X75587124Y-41868044D01*
X75585557Y-41862487D01*
X75520048Y-41729646D01*
X75495776Y-41680428D01*
X75497554Y-41679551D01*
X75481338Y-41619591D01*
X75502798Y-41551915D01*
X75557440Y-41506585D01*
X75597385Y-41496687D01*
X76110079Y-41456183D01*
X76179561Y-41470758D01*
G37*
%TD.AperFunction*%
%TA.AperFunction,NonConductor*%
G36*
X62277878Y-51366571D02*
G01*
X62301927Y-51377280D01*
X62945460Y-51748824D01*
X64280099Y-52519378D01*
X64280343Y-52519519D01*
X64329336Y-52570901D01*
X64342772Y-52640615D01*
X64316386Y-52706526D01*
X64258554Y-52747708D01*
X64209102Y-52754368D01*
X64004119Y-52740933D01*
X64000000Y-52740663D01*
X63995881Y-52740933D01*
X63709212Y-52759722D01*
X63709208Y-52759723D01*
X63705097Y-52759992D01*
X63701057Y-52760796D01*
X63701054Y-52760796D01*
X63419286Y-52816843D01*
X63419280Y-52816845D01*
X63415241Y-52817648D01*
X63411337Y-52818973D01*
X63411334Y-52818974D01*
X63139295Y-52911319D01*
X63135389Y-52912645D01*
X63030238Y-52964500D01*
X62874036Y-53041530D01*
X62874031Y-53041533D01*
X62870332Y-53043357D01*
X62624603Y-53207547D01*
X62402407Y-53402407D01*
X62207547Y-53624603D01*
X62043357Y-53870332D01*
X62041533Y-53874031D01*
X62041530Y-53874036D01*
X62009419Y-53939151D01*
X61912645Y-54135389D01*
X61911320Y-54139294D01*
X61911319Y-54139295D01*
X61819180Y-54410729D01*
X61817648Y-54415241D01*
X61816845Y-54419280D01*
X61816843Y-54419286D01*
X61766896Y-54670389D01*
X61759992Y-54705097D01*
X61759723Y-54709208D01*
X61759722Y-54709212D01*
X61751707Y-54831502D01*
X61740663Y-55000000D01*
X61742596Y-55029482D01*
X61742765Y-55032065D01*
X61727262Y-55101348D01*
X61676762Y-55151251D01*
X61607300Y-55165930D01*
X61540928Y-55140725D01*
X61507916Y-55103307D01*
X60488372Y-53337405D01*
X60471634Y-53268410D01*
X60494854Y-53201318D01*
X60504668Y-53189200D01*
X60555343Y-53134000D01*
X61885269Y-51685319D01*
X62146108Y-51401189D01*
X62206911Y-51364534D01*
X62277878Y-51366571D01*
G37*
%TD.AperFunction*%
%TA.AperFunction,Conductor*%
%TO.N,Vcc*%
G36*
X53941834Y-31855534D02*
G01*
X53978400Y-31877723D01*
X53987589Y-31885717D01*
X54014155Y-31900914D01*
X54045307Y-31918735D01*
X54045312Y-31918737D01*
X54049213Y-31920969D01*
X54053388Y-31922621D01*
X54053392Y-31922623D01*
X54112259Y-31945917D01*
X54116439Y-31947571D01*
X54120809Y-31948613D01*
X54120813Y-31948614D01*
X55051713Y-32170518D01*
X56633323Y-32547536D01*
X56650609Y-32551027D01*
X56651678Y-32551204D01*
X56651686Y-32551206D01*
X56660876Y-32552732D01*
X56667843Y-32553889D01*
X56673432Y-32553817D01*
X56673433Y-32553817D01*
X56708996Y-32553358D01*
X56757516Y-32552732D01*
X56767996Y-32550712D01*
X56790445Y-32546387D01*
X56861120Y-32553138D01*
X56897362Y-32575378D01*
X56912145Y-32588342D01*
X56921474Y-32596523D01*
X56933221Y-32600511D01*
X56933222Y-32600511D01*
X56933877Y-32600733D01*
X56956375Y-32610927D01*
X59489625Y-34073500D01*
X59509701Y-34087886D01*
X59519550Y-34096523D01*
X59531301Y-34100512D01*
X59554750Y-34108472D01*
X59612826Y-34149309D01*
X59630411Y-34178975D01*
X59651993Y-34230338D01*
X59651996Y-34230344D01*
X59654393Y-34236048D01*
X59657858Y-34241176D01*
X59657859Y-34241179D01*
X59678696Y-34272022D01*
X59694137Y-34294878D01*
X59720890Y-34324358D01*
X59739623Y-34345000D01*
X59742721Y-34348414D01*
X59746191Y-34351284D01*
X59746192Y-34351285D01*
X59991278Y-34554000D01*
X61740085Y-36000468D01*
X61747210Y-36006149D01*
X61754378Y-36011657D01*
X61758838Y-36014062D01*
X61758842Y-36014064D01*
X61821479Y-36047832D01*
X61825946Y-36050240D01*
X61830735Y-36051900D01*
X61833824Y-36052971D01*
X61834873Y-36053719D01*
X61835376Y-36053940D01*
X61835330Y-36054045D01*
X61891635Y-36094182D01*
X61911867Y-36131519D01*
X61928477Y-36180450D01*
X61936657Y-36189778D01*
X61936658Y-36189779D01*
X61937111Y-36190295D01*
X61951499Y-36210372D01*
X63402612Y-38723775D01*
X63414074Y-38743628D01*
X63424266Y-38766122D01*
X63428477Y-38778526D01*
X63445294Y-38797702D01*
X63445295Y-38797704D01*
X63482376Y-38839987D01*
X63495102Y-38854498D01*
X63585729Y-38899190D01*
X63598114Y-38900002D01*
X63598115Y-38900002D01*
X63624878Y-38901756D01*
X63686560Y-38905799D01*
X63719165Y-38894731D01*
X63758092Y-38881517D01*
X63782245Y-38873318D01*
X63792090Y-38864684D01*
X63812169Y-38850295D01*
X63815379Y-38848442D01*
X66691835Y-37187720D01*
X66714327Y-37177529D01*
X66726731Y-37173318D01*
X66736057Y-37165139D01*
X66736059Y-37165138D01*
X66740866Y-37160922D01*
X66745905Y-37156502D01*
X66745909Y-37156500D01*
X66793376Y-37114873D01*
X66793377Y-37114872D01*
X66802703Y-37106693D01*
X66808191Y-37095564D01*
X66815745Y-37085719D01*
X66818776Y-37088045D01*
X66852031Y-37051906D01*
X66909453Y-37034818D01*
X66909436Y-37034690D01*
X66910262Y-37034578D01*
X66912280Y-37033977D01*
X66912591Y-37033965D01*
X66915571Y-37033855D01*
X66915573Y-37033855D01*
X66921755Y-37033625D01*
X66967537Y-37022737D01*
X66986438Y-37018242D01*
X66986440Y-37018241D01*
X66990823Y-37017199D01*
X67058061Y-36990632D01*
X67074710Y-36981120D01*
X67202889Y-36907885D01*
X73192000Y-36907885D01*
X73196475Y-36923124D01*
X73197865Y-36924329D01*
X73205548Y-36926000D01*
X74277885Y-36926000D01*
X74293124Y-36921525D01*
X74294329Y-36920135D01*
X74296000Y-36912452D01*
X74296000Y-35840116D01*
X74291525Y-35824877D01*
X74290135Y-35823672D01*
X74282452Y-35822001D01*
X73655331Y-35822001D01*
X73648510Y-35822371D01*
X73597648Y-35827895D01*
X73582396Y-35831521D01*
X73461946Y-35876676D01*
X73446351Y-35885214D01*
X73344276Y-35961715D01*
X73331715Y-35974276D01*
X73255214Y-36076351D01*
X73246676Y-36091946D01*
X73201522Y-36212394D01*
X73197895Y-36227649D01*
X73192369Y-36278514D01*
X73192000Y-36285328D01*
X73192000Y-36907885D01*
X67202889Y-36907885D01*
X69102804Y-35822371D01*
X71096758Y-34683128D01*
X71165828Y-34666701D01*
X71232815Y-34690224D01*
X71273691Y-34739779D01*
X71344959Y-34894371D01*
X71347377Y-34899616D01*
X71350710Y-34904332D01*
X71459440Y-35058182D01*
X71464533Y-35065389D01*
X71609938Y-35207035D01*
X71778720Y-35319812D01*
X71784023Y-35322090D01*
X71784026Y-35322092D01*
X71872707Y-35360192D01*
X71965228Y-35399942D01*
X72038244Y-35416464D01*
X72157579Y-35443467D01*
X72157584Y-35443468D01*
X72163216Y-35444742D01*
X72168987Y-35444969D01*
X72168989Y-35444969D01*
X72228756Y-35447317D01*
X72366053Y-35452712D01*
X72466499Y-35438148D01*
X72561231Y-35424413D01*
X72561236Y-35424412D01*
X72566945Y-35423584D01*
X72572409Y-35421729D01*
X72572414Y-35421728D01*
X72753693Y-35360192D01*
X72753698Y-35360190D01*
X72759165Y-35358334D01*
X72936276Y-35259147D01*
X72998934Y-35207035D01*
X73087913Y-35133031D01*
X73092345Y-35129345D01*
X73147226Y-35063358D01*
X73218453Y-34977718D01*
X73218455Y-34977715D01*
X73222147Y-34973276D01*
X73321334Y-34796165D01*
X73323190Y-34790698D01*
X73323192Y-34790693D01*
X73384728Y-34609414D01*
X73384729Y-34609409D01*
X73386584Y-34603945D01*
X73387412Y-34598236D01*
X73387413Y-34598231D01*
X73415179Y-34406727D01*
X73415712Y-34403053D01*
X73417232Y-34345000D01*
X73401977Y-34178975D01*
X73399187Y-34148613D01*
X73399186Y-34148610D01*
X73398658Y-34142859D01*
X73391005Y-34115722D01*
X73345125Y-33953046D01*
X73345124Y-33953044D01*
X73343557Y-33947487D01*
X73327334Y-33914588D01*
X73256331Y-33770609D01*
X73253776Y-33765428D01*
X73152423Y-33629700D01*
X73127691Y-33563150D01*
X73142865Y-33493794D01*
X73150238Y-33481941D01*
X73155631Y-33474256D01*
X73181959Y-33436732D01*
X73237457Y-33392458D01*
X73308084Y-33385217D01*
X73359247Y-33407230D01*
X73540394Y-33539075D01*
X73618698Y-33596068D01*
X73625709Y-33601561D01*
X73990193Y-33908606D01*
X73996789Y-33914576D01*
X74329048Y-34237387D01*
X74338585Y-34246653D01*
X74344766Y-34253100D01*
X74662175Y-34608554D01*
X74667884Y-34615423D01*
X74959303Y-34992458D01*
X74964512Y-34999715D01*
X75228493Y-35396456D01*
X75233174Y-35404063D01*
X75363562Y-35633809D01*
X75379790Y-35702926D01*
X75356073Y-35769844D01*
X75299943Y-35813317D01*
X75253980Y-35822000D01*
X74822115Y-35822000D01*
X74806876Y-35826475D01*
X74805671Y-35827865D01*
X74804000Y-35835548D01*
X74804000Y-37308000D01*
X74783998Y-37376121D01*
X74730342Y-37422614D01*
X74678000Y-37434000D01*
X73210116Y-37434000D01*
X73194877Y-37438475D01*
X73193672Y-37439865D01*
X73192001Y-37447548D01*
X73192001Y-38074669D01*
X73192371Y-38081490D01*
X73197895Y-38132352D01*
X73201521Y-38147604D01*
X73246676Y-38268054D01*
X73255214Y-38283649D01*
X73331715Y-38385724D01*
X73344276Y-38398285D01*
X73446351Y-38474786D01*
X73461946Y-38483324D01*
X73582394Y-38528478D01*
X73597649Y-38532105D01*
X73648514Y-38537631D01*
X73655328Y-38538000D01*
X73918180Y-38538000D01*
X73986301Y-38558002D01*
X74032794Y-38611658D01*
X74042898Y-38681932D01*
X74013404Y-38746512D01*
X73982605Y-38772284D01*
X73898010Y-38822612D01*
X73893670Y-38826418D01*
X73893666Y-38826421D01*
X73791391Y-38916115D01*
X73745392Y-38956455D01*
X73619720Y-39115869D01*
X73617031Y-39120980D01*
X73617029Y-39120983D01*
X73574174Y-39202437D01*
X73525203Y-39295515D01*
X73465007Y-39489378D01*
X73441148Y-39690964D01*
X73454424Y-39893522D01*
X73455845Y-39899118D01*
X73455846Y-39899123D01*
X73501341Y-40078256D01*
X73504392Y-40090269D01*
X73521817Y-40128067D01*
X73532172Y-40198302D01*
X73502910Y-40262988D01*
X73496486Y-40269912D01*
X72871403Y-40894995D01*
X72809091Y-40929021D01*
X72782308Y-40931900D01*
X67540525Y-40931900D01*
X67472404Y-40911898D01*
X67425911Y-40858242D01*
X67415603Y-40789453D01*
X67417817Y-40772642D01*
X67420126Y-40755100D01*
X67416889Y-40730510D01*
X67401982Y-40617279D01*
X67401981Y-40617277D01*
X67400904Y-40609093D01*
X67344547Y-40473037D01*
X67254897Y-40356203D01*
X67138063Y-40266553D01*
X67002007Y-40210196D01*
X66993823Y-40209119D01*
X66993821Y-40209118D01*
X66864188Y-40192052D01*
X66856000Y-40190974D01*
X66847812Y-40192052D01*
X66718179Y-40209118D01*
X66718177Y-40209119D01*
X66709993Y-40210196D01*
X66573937Y-40266553D01*
X66457103Y-40356203D01*
X66452470Y-40362241D01*
X66390419Y-40396121D01*
X66363639Y-40399000D01*
X64271599Y-40399000D01*
X64251550Y-40396866D01*
X64247360Y-40396668D01*
X64237178Y-40394476D01*
X64226837Y-40395700D01*
X64206333Y-40398127D01*
X64200956Y-40398444D01*
X64200967Y-40398572D01*
X64195791Y-40399000D01*
X64190587Y-40399000D01*
X64179219Y-40400892D01*
X64172921Y-40401940D01*
X64167046Y-40402776D01*
X64129795Y-40407185D01*
X64129787Y-40407187D01*
X64119449Y-40408411D01*
X64111706Y-40412129D01*
X64103229Y-40413540D01*
X64061026Y-40436312D01*
X64055781Y-40438984D01*
X64012581Y-40459728D01*
X64008571Y-40463099D01*
X64006633Y-40465037D01*
X64004981Y-40466552D01*
X64004572Y-40466773D01*
X64004534Y-40466731D01*
X64004351Y-40466892D01*
X63998897Y-40469835D01*
X63991829Y-40477482D01*
X63991828Y-40477482D01*
X63964640Y-40506894D01*
X63961210Y-40510460D01*
X62131954Y-42339715D01*
X62069642Y-42373741D01*
X62042859Y-42376620D01*
X60263573Y-42376620D01*
X60195452Y-42356618D01*
X60148959Y-42302962D01*
X60138855Y-42232688D01*
X60168349Y-42168108D01*
X60191302Y-42147407D01*
X60304946Y-42067833D01*
X60304949Y-42067831D01*
X60309457Y-42064674D01*
X60464674Y-41909457D01*
X60468355Y-41904201D01*
X60587422Y-41734155D01*
X60587423Y-41734153D01*
X60590579Y-41729646D01*
X60592902Y-41724664D01*
X60592905Y-41724659D01*
X60681022Y-41535688D01*
X60683347Y-41530703D01*
X60740161Y-41318674D01*
X60759292Y-41100000D01*
X60740161Y-40881326D01*
X60683347Y-40669297D01*
X60607618Y-40506894D01*
X60592905Y-40475341D01*
X60592902Y-40475336D01*
X60590579Y-40470354D01*
X60567719Y-40437706D01*
X60467833Y-40295054D01*
X60467831Y-40295051D01*
X60464674Y-40290543D01*
X60309457Y-40135326D01*
X60304949Y-40132169D01*
X60304946Y-40132167D01*
X60134155Y-40012578D01*
X60134153Y-40012577D01*
X60129646Y-40009421D01*
X60124664Y-40007098D01*
X60124659Y-40007095D01*
X59996812Y-39947480D01*
X60852767Y-39947480D01*
X60856278Y-39952170D01*
X60997739Y-40015153D01*
X61010218Y-40019208D01*
X61184005Y-40056146D01*
X61197066Y-40057519D01*
X61374730Y-40057519D01*
X61387791Y-40056146D01*
X61561578Y-40019208D01*
X61574057Y-40015153D01*
X61708531Y-39955280D01*
X61719276Y-39946147D01*
X61717679Y-39940510D01*
X61298710Y-39521541D01*
X61284766Y-39513927D01*
X61282933Y-39514058D01*
X61276318Y-39518309D01*
X60859527Y-39935100D01*
X60852767Y-39947480D01*
X59996812Y-39947480D01*
X59930703Y-39916653D01*
X59718674Y-39859839D01*
X59500000Y-39840708D01*
X59281326Y-39859839D01*
X59069297Y-39916653D01*
X58953664Y-39970573D01*
X58883473Y-39981234D01*
X58818661Y-39952254D01*
X58779804Y-39892834D01*
X58779241Y-39821840D01*
X58811320Y-39767283D01*
X59078650Y-39499953D01*
X59140962Y-39465927D01*
X59167231Y-39463103D01*
X59175000Y-39464126D01*
X59183188Y-39463048D01*
X59312821Y-39445982D01*
X59312823Y-39445981D01*
X59321007Y-39444904D01*
X59457063Y-39388547D01*
X59573897Y-39298897D01*
X59663547Y-39182063D01*
X59674308Y-39156084D01*
X60373586Y-39156084D01*
X60392157Y-39332780D01*
X60394887Y-39345621D01*
X60449790Y-39514594D01*
X60455128Y-39526583D01*
X60480659Y-39570804D01*
X60490863Y-39580534D01*
X60498884Y-39577323D01*
X60913876Y-39162331D01*
X60920254Y-39150651D01*
X61650306Y-39150651D01*
X61650437Y-39152484D01*
X61654688Y-39159099D01*
X62069268Y-39573679D01*
X62081648Y-39580439D01*
X62088563Y-39575263D01*
X62116668Y-39526583D01*
X62122006Y-39514594D01*
X62176909Y-39345621D01*
X62179639Y-39332780D01*
X62198210Y-39156084D01*
X62198210Y-39142954D01*
X62179639Y-38966258D01*
X62176909Y-38953417D01*
X62122006Y-38784444D01*
X62116668Y-38772455D01*
X62091137Y-38728234D01*
X62080933Y-38718504D01*
X62072912Y-38721715D01*
X61657920Y-39136707D01*
X61650306Y-39150651D01*
X60920254Y-39150651D01*
X60921490Y-39148387D01*
X60921359Y-39146554D01*
X60917108Y-39139939D01*
X60502528Y-38725359D01*
X60490148Y-38718599D01*
X60483233Y-38723775D01*
X60455128Y-38772455D01*
X60449790Y-38784444D01*
X60394887Y-38953417D01*
X60392157Y-38966258D01*
X60373586Y-39142954D01*
X60373586Y-39156084D01*
X59674308Y-39156084D01*
X59719904Y-39046007D01*
X59723476Y-39018880D01*
X59738048Y-38908188D01*
X59739126Y-38900000D01*
X59730820Y-38836907D01*
X59720982Y-38762179D01*
X59720981Y-38762177D01*
X59719904Y-38753993D01*
X59663547Y-38617937D01*
X59573897Y-38501103D01*
X59457063Y-38411453D01*
X59321007Y-38355096D01*
X59312823Y-38354019D01*
X59312821Y-38354018D01*
X59304260Y-38352891D01*
X60852520Y-38352891D01*
X60854117Y-38358528D01*
X61273086Y-38777497D01*
X61287030Y-38785111D01*
X61288863Y-38784980D01*
X61295478Y-38780729D01*
X61712269Y-38363938D01*
X61719029Y-38351558D01*
X61715518Y-38346868D01*
X61574057Y-38283885D01*
X61561578Y-38279830D01*
X61387791Y-38242892D01*
X61374730Y-38241519D01*
X61197066Y-38241519D01*
X61184005Y-38242892D01*
X61010218Y-38279830D01*
X60997739Y-38283885D01*
X60863265Y-38343758D01*
X60852520Y-38352891D01*
X59304260Y-38352891D01*
X59183188Y-38336952D01*
X59175000Y-38335874D01*
X59166812Y-38336952D01*
X59037179Y-38354018D01*
X59037177Y-38354019D01*
X59028993Y-38355096D01*
X58892937Y-38411453D01*
X58776103Y-38501103D01*
X58686453Y-38617937D01*
X58630096Y-38753993D01*
X58629019Y-38762177D01*
X58629018Y-38762179D01*
X58619180Y-38836907D01*
X58610874Y-38900000D01*
X58611867Y-38907545D01*
X58591950Y-38975378D01*
X58575051Y-38996348D01*
X57624560Y-39946838D01*
X57608873Y-39959507D01*
X57605775Y-39962326D01*
X57597026Y-39967975D01*
X57590579Y-39976153D01*
X57577797Y-39992367D01*
X57574216Y-39996397D01*
X57574314Y-39996480D01*
X57570961Y-40000437D01*
X57567280Y-40004118D01*
X57564256Y-40008350D01*
X57564254Y-40008352D01*
X57556851Y-40018711D01*
X57553288Y-40023456D01*
X57530080Y-40052895D01*
X57530079Y-40052897D01*
X57523632Y-40061075D01*
X57520786Y-40069180D01*
X57515790Y-40076171D01*
X57502151Y-40121776D01*
X57502066Y-40122062D01*
X57500232Y-40127707D01*
X57486979Y-40165447D01*
X57484352Y-40172929D01*
X57483900Y-40178148D01*
X57483900Y-40180859D01*
X57483802Y-40183136D01*
X57483667Y-40183585D01*
X57483613Y-40183583D01*
X57483598Y-40183816D01*
X57481823Y-40189752D01*
X57482232Y-40200156D01*
X57483803Y-40240150D01*
X57483900Y-40245096D01*
X57483900Y-41262121D01*
X57463898Y-41330242D01*
X57410242Y-41376735D01*
X57339968Y-41386839D01*
X57309681Y-41378529D01*
X57277639Y-41365257D01*
X57277637Y-41365256D01*
X57270007Y-41362096D01*
X57261823Y-41361019D01*
X57261821Y-41361018D01*
X57132188Y-41343952D01*
X57124000Y-41342874D01*
X57115812Y-41343952D01*
X56986179Y-41361018D01*
X56986177Y-41361019D01*
X56977993Y-41362096D01*
X56841937Y-41418453D01*
X56725103Y-41508103D01*
X56635453Y-41624937D01*
X56579096Y-41760993D01*
X56578019Y-41769177D01*
X56578018Y-41769179D01*
X56565252Y-41866152D01*
X56559874Y-41907000D01*
X56560952Y-41915188D01*
X56573615Y-42011372D01*
X56579096Y-42053007D01*
X56635453Y-42189063D01*
X56725103Y-42305897D01*
X56731653Y-42310923D01*
X56737494Y-42316764D01*
X56736472Y-42317786D01*
X56773082Y-42367920D01*
X56775511Y-42375401D01*
X56776086Y-42377380D01*
X56777310Y-42387722D01*
X56781030Y-42395468D01*
X56782440Y-42403942D01*
X56799726Y-42435978D01*
X56805192Y-42446109D01*
X56807885Y-42451396D01*
X56825195Y-42487442D01*
X56825197Y-42487445D01*
X56828628Y-42494590D01*
X56831999Y-42498600D01*
X56833937Y-42500538D01*
X56835452Y-42502189D01*
X56835673Y-42502599D01*
X56835631Y-42502637D01*
X56835792Y-42502820D01*
X56838735Y-42508274D01*
X56846382Y-42515342D01*
X56846382Y-42515343D01*
X56875781Y-42542519D01*
X56879348Y-42545949D01*
X57154363Y-42820965D01*
X57188388Y-42883277D01*
X57183323Y-42954093D01*
X57140776Y-43010928D01*
X57074256Y-43035739D01*
X57065267Y-43036060D01*
X47491851Y-43036060D01*
X47423730Y-43016058D01*
X47402756Y-42999155D01*
X46291405Y-41887803D01*
X46257379Y-41825491D01*
X46254500Y-41798708D01*
X46254499Y-40081123D01*
X46254499Y-40074934D01*
X46247388Y-40039182D01*
X46242156Y-40012874D01*
X46242155Y-40012872D01*
X46239734Y-40000699D01*
X46225199Y-39978945D01*
X46190377Y-39926832D01*
X46183484Y-39916516D01*
X46099301Y-39860266D01*
X46025067Y-39845500D01*
X45000166Y-39845500D01*
X43974934Y-39845501D01*
X43939182Y-39852612D01*
X43912874Y-39857844D01*
X43912872Y-39857845D01*
X43900699Y-39860266D01*
X43890379Y-39867161D01*
X43890378Y-39867162D01*
X43842546Y-39899123D01*
X43816516Y-39916516D01*
X43760266Y-40000699D01*
X43745500Y-40074933D01*
X43745501Y-42125066D01*
X43760266Y-42199301D01*
X43816516Y-42283484D01*
X43900699Y-42339734D01*
X43974933Y-42354500D01*
X44191983Y-42354500D01*
X44260104Y-42374502D01*
X44306597Y-42428158D01*
X44316701Y-42498432D01*
X44287207Y-42563012D01*
X44264254Y-42583713D01*
X44195054Y-42632167D01*
X44195051Y-42632169D01*
X44190543Y-42635326D01*
X44035326Y-42790543D01*
X44032169Y-42795051D01*
X44032167Y-42795054D01*
X43912818Y-42965502D01*
X43909421Y-42970354D01*
X43907098Y-42975336D01*
X43907095Y-42975341D01*
X43878782Y-43036060D01*
X43816653Y-43169297D01*
X43759839Y-43381326D01*
X43740708Y-43600000D01*
X43759839Y-43818674D01*
X43761262Y-43823984D01*
X43806103Y-43991331D01*
X43804413Y-44062308D01*
X43773491Y-44113038D01*
X43182206Y-44704323D01*
X43172766Y-44711865D01*
X43173089Y-44712245D01*
X43166253Y-44718063D01*
X43158661Y-44722853D01*
X43152719Y-44729581D01*
X43123329Y-44762859D01*
X43117983Y-44768546D01*
X43106649Y-44779880D01*
X43103964Y-44783463D01*
X43103962Y-44783465D01*
X43100447Y-44788155D01*
X43094062Y-44795998D01*
X43062999Y-44831170D01*
X43059186Y-44839292D01*
X43057346Y-44842093D01*
X43048937Y-44856088D01*
X43047315Y-44859051D01*
X43041930Y-44866236D01*
X43038777Y-44874646D01*
X43038776Y-44874648D01*
X43025454Y-44910182D01*
X43021530Y-44919495D01*
X43001583Y-44961982D01*
X43000201Y-44970856D01*
X42999215Y-44974083D01*
X42995075Y-44989866D01*
X42994354Y-44993144D01*
X42991202Y-45001552D01*
X42990537Y-45010503D01*
X42987724Y-45048357D01*
X42986570Y-45058404D01*
X42984500Y-45071697D01*
X42984500Y-45087062D01*
X42984154Y-45096399D01*
X42980493Y-45145667D01*
X42982366Y-45154442D01*
X42982959Y-45163138D01*
X42984500Y-45177738D01*
X42984500Y-46587376D01*
X42983159Y-46599381D01*
X42983655Y-46599421D01*
X42982935Y-46608368D01*
X42980954Y-46617124D01*
X42981510Y-46626084D01*
X42984258Y-46670382D01*
X42984500Y-46678184D01*
X42984500Y-46694226D01*
X42985135Y-46698657D01*
X42985135Y-46698662D01*
X42985965Y-46704453D01*
X42986996Y-46714514D01*
X42989902Y-46761359D01*
X42992949Y-46769799D01*
X42993630Y-46773089D01*
X42997582Y-46788938D01*
X42998527Y-46792168D01*
X42999799Y-46801052D01*
X43003514Y-46809223D01*
X43019218Y-46843763D01*
X43023030Y-46853128D01*
X43035922Y-46888837D01*
X43035924Y-46888840D01*
X43038972Y-46897284D01*
X43044268Y-46904533D01*
X43045840Y-46907490D01*
X43054093Y-46921614D01*
X43055898Y-46924437D01*
X43059612Y-46932605D01*
X43065469Y-46939402D01*
X43065470Y-46939404D01*
X43090243Y-46968153D01*
X43096532Y-46976074D01*
X43100938Y-46982105D01*
X43124972Y-47048910D01*
X43109073Y-47118103D01*
X43080800Y-47152438D01*
X43069724Y-47161853D01*
X43071321Y-47167490D01*
X44286472Y-48382641D01*
X44298852Y-48389401D01*
X44305767Y-48384225D01*
X44333872Y-48335545D01*
X44339210Y-48323556D01*
X44387501Y-48174933D01*
X50645500Y-48174933D01*
X50645501Y-50225066D01*
X50660266Y-50299301D01*
X50716516Y-50383484D01*
X50800699Y-50439734D01*
X50874933Y-50454500D01*
X52499737Y-50454500D01*
X54125066Y-50454499D01*
X54160818Y-50447388D01*
X54187126Y-50442156D01*
X54187128Y-50442155D01*
X54199301Y-50439734D01*
X54209621Y-50432839D01*
X54209622Y-50432838D01*
X54273168Y-50390377D01*
X54283484Y-50383484D01*
X54339734Y-50299301D01*
X54354500Y-50225067D01*
X54354500Y-50047480D01*
X60191405Y-50047480D01*
X60194916Y-50052170D01*
X60336377Y-50115153D01*
X60348856Y-50119208D01*
X60522643Y-50156146D01*
X60535704Y-50157519D01*
X60713368Y-50157519D01*
X60726429Y-50156146D01*
X60900216Y-50119208D01*
X60912695Y-50115153D01*
X61047169Y-50055280D01*
X61057914Y-50046147D01*
X61056317Y-50040510D01*
X60637348Y-49621541D01*
X60623404Y-49613927D01*
X60621571Y-49614058D01*
X60614956Y-49618309D01*
X60198165Y-50035100D01*
X60191405Y-50047480D01*
X54354500Y-50047480D01*
X54354500Y-49256084D01*
X59712224Y-49256084D01*
X59730795Y-49432780D01*
X59733525Y-49445621D01*
X59788428Y-49614594D01*
X59793766Y-49626583D01*
X59819297Y-49670804D01*
X59829501Y-49680534D01*
X59837522Y-49677323D01*
X60252514Y-49262331D01*
X60258892Y-49250651D01*
X60988944Y-49250651D01*
X60989075Y-49252484D01*
X60993326Y-49259099D01*
X61407906Y-49673679D01*
X61420286Y-49680439D01*
X61427201Y-49675263D01*
X61455306Y-49626583D01*
X61460644Y-49614594D01*
X61515547Y-49445621D01*
X61518277Y-49432780D01*
X61536848Y-49256084D01*
X61536848Y-49242954D01*
X61518277Y-49066258D01*
X61515547Y-49053417D01*
X61460644Y-48884444D01*
X61455306Y-48872455D01*
X61429775Y-48828234D01*
X61419571Y-48818504D01*
X61411550Y-48821715D01*
X60996558Y-49236707D01*
X60988944Y-49250651D01*
X60258892Y-49250651D01*
X60260128Y-49248387D01*
X60259997Y-49246554D01*
X60255746Y-49239939D01*
X59841166Y-48825359D01*
X59828786Y-48818599D01*
X59821871Y-48823775D01*
X59793766Y-48872455D01*
X59788428Y-48884444D01*
X59733525Y-49053417D01*
X59730795Y-49066258D01*
X59712224Y-49242954D01*
X59712224Y-49256084D01*
X54354500Y-49256084D01*
X54354499Y-48452891D01*
X60191158Y-48452891D01*
X60192755Y-48458528D01*
X60611724Y-48877497D01*
X60625668Y-48885111D01*
X60627501Y-48884980D01*
X60634116Y-48880729D01*
X61050907Y-48463938D01*
X61057667Y-48451558D01*
X61054156Y-48446868D01*
X60912695Y-48383885D01*
X60900216Y-48379830D01*
X60726429Y-48342892D01*
X60713368Y-48341519D01*
X60535704Y-48341519D01*
X60522643Y-48342892D01*
X60348856Y-48379830D01*
X60336377Y-48383885D01*
X60201903Y-48443758D01*
X60191158Y-48452891D01*
X54354499Y-48452891D01*
X54354499Y-48174934D01*
X54339734Y-48100699D01*
X54283484Y-48016516D01*
X54210736Y-47967907D01*
X54209620Y-47967161D01*
X54199301Y-47960266D01*
X54125067Y-47945500D01*
X52500263Y-47945500D01*
X50874934Y-47945501D01*
X50842681Y-47951916D01*
X50812874Y-47957844D01*
X50812872Y-47957845D01*
X50800699Y-47960266D01*
X50790379Y-47967161D01*
X50790378Y-47967162D01*
X50762069Y-47986078D01*
X50716516Y-48016516D01*
X50660266Y-48100699D01*
X50645500Y-48174933D01*
X44387501Y-48174933D01*
X44394112Y-48154585D01*
X44397787Y-48137300D01*
X44431517Y-48074827D01*
X44493667Y-48040508D01*
X44521033Y-48037500D01*
X45668376Y-48037500D01*
X45680381Y-48038841D01*
X45680421Y-48038345D01*
X45689368Y-48039065D01*
X45698124Y-48041046D01*
X45751382Y-48037742D01*
X45759184Y-48037500D01*
X45775226Y-48037500D01*
X45779657Y-48036865D01*
X45779662Y-48036865D01*
X45783687Y-48036288D01*
X45785457Y-48036035D01*
X45795514Y-48035004D01*
X45817976Y-48033611D01*
X45833400Y-48032654D01*
X45833402Y-48032654D01*
X45842359Y-48032098D01*
X45850799Y-48029051D01*
X45854089Y-48028370D01*
X45869938Y-48024418D01*
X45873168Y-48023473D01*
X45882052Y-48022201D01*
X45894556Y-48016516D01*
X45924763Y-48002782D01*
X45934128Y-47998970D01*
X45969837Y-47986078D01*
X45969840Y-47986076D01*
X45978284Y-47983028D01*
X45985533Y-47977732D01*
X45988490Y-47976160D01*
X46002614Y-47967907D01*
X46005437Y-47966102D01*
X46013605Y-47962388D01*
X46020402Y-47956531D01*
X46020404Y-47956530D01*
X46049153Y-47931757D01*
X46057064Y-47925475D01*
X46067944Y-47917527D01*
X46078806Y-47906665D01*
X46085653Y-47900307D01*
X46116282Y-47873915D01*
X46123082Y-47868056D01*
X46127966Y-47860521D01*
X46133699Y-47853949D01*
X46142926Y-47842545D01*
X49244066Y-44741405D01*
X49306378Y-44707379D01*
X49333161Y-44704500D01*
X57102839Y-44704500D01*
X57170960Y-44724502D01*
X57217453Y-44778158D01*
X57227557Y-44848432D01*
X57198063Y-44913012D01*
X57191934Y-44919595D01*
X56958203Y-45153326D01*
X56917327Y-45180639D01*
X56842937Y-45211453D01*
X56726103Y-45301103D01*
X56636453Y-45417937D01*
X56580096Y-45553993D01*
X56579019Y-45562177D01*
X56579018Y-45562179D01*
X56565572Y-45664312D01*
X56560874Y-45700000D01*
X56580096Y-45846007D01*
X56636453Y-45982063D01*
X56726103Y-46098897D01*
X56842937Y-46188547D01*
X56978993Y-46244904D01*
X56987177Y-46245981D01*
X56987179Y-46245982D01*
X57116812Y-46263048D01*
X57125000Y-46264126D01*
X57133188Y-46263048D01*
X57262821Y-46245982D01*
X57262823Y-46245981D01*
X57271007Y-46244904D01*
X57407063Y-46188547D01*
X57523897Y-46098897D01*
X57613547Y-45982063D01*
X57644361Y-45907673D01*
X57671674Y-45866797D01*
X58202347Y-45336124D01*
X58264659Y-45302098D01*
X58335474Y-45307163D01*
X58392310Y-45349710D01*
X58417121Y-45416230D01*
X58405637Y-45478469D01*
X58316653Y-45669297D01*
X58259839Y-45881326D01*
X58240708Y-46100000D01*
X58259839Y-46318674D01*
X58316653Y-46530703D01*
X58360104Y-46623884D01*
X58407095Y-46724659D01*
X58407098Y-46724664D01*
X58409421Y-46729646D01*
X58412577Y-46734153D01*
X58412578Y-46734155D01*
X58520888Y-46888837D01*
X58535326Y-46909457D01*
X58690543Y-47064674D01*
X58695051Y-47067831D01*
X58695054Y-47067833D01*
X58815883Y-47152438D01*
X58870354Y-47190579D01*
X58875336Y-47192902D01*
X58875341Y-47192905D01*
X58976116Y-47239896D01*
X59069297Y-47283347D01*
X59281326Y-47340161D01*
X59500000Y-47359292D01*
X59718674Y-47340161D01*
X59930703Y-47283347D01*
X60023884Y-47239896D01*
X60124659Y-47192905D01*
X60124664Y-47192902D01*
X60129646Y-47190579D01*
X60184117Y-47152438D01*
X60304946Y-47067833D01*
X60304949Y-47067831D01*
X60309457Y-47064674D01*
X60464674Y-46909457D01*
X60479113Y-46888837D01*
X60587422Y-46734155D01*
X60587423Y-46734153D01*
X60590579Y-46729646D01*
X60592902Y-46724664D01*
X60592905Y-46724659D01*
X60639896Y-46623884D01*
X60683347Y-46530703D01*
X60740161Y-46318674D01*
X60759292Y-46100000D01*
X60740161Y-45881326D01*
X60693973Y-45708953D01*
X60695663Y-45637976D01*
X60735457Y-45579180D01*
X60800721Y-45551232D01*
X60870735Y-45563005D01*
X60904775Y-45587246D01*
X61382323Y-46064794D01*
X61389865Y-46074234D01*
X61390245Y-46073911D01*
X61396063Y-46080747D01*
X61400853Y-46088339D01*
X61407581Y-46094281D01*
X61440859Y-46123671D01*
X61446546Y-46129017D01*
X61457880Y-46140351D01*
X61461466Y-46143038D01*
X61461471Y-46143043D01*
X61466159Y-46146557D01*
X61473997Y-46152938D01*
X61509170Y-46184001D01*
X61517295Y-46187816D01*
X61520116Y-46189669D01*
X61534112Y-46198077D01*
X61537050Y-46199686D01*
X61544236Y-46205071D01*
X61552641Y-46208222D01*
X61552643Y-46208223D01*
X61588178Y-46221544D01*
X61597492Y-46225468D01*
X61639982Y-46245417D01*
X61648853Y-46246798D01*
X61652075Y-46247783D01*
X61667858Y-46251923D01*
X61671142Y-46252645D01*
X61679552Y-46255798D01*
X61726357Y-46259276D01*
X61736397Y-46260429D01*
X61742666Y-46261405D01*
X61744886Y-46261751D01*
X61744887Y-46261751D01*
X61749697Y-46262500D01*
X61765066Y-46262500D01*
X61774404Y-46262847D01*
X61814716Y-46265843D01*
X61814717Y-46265843D01*
X61823667Y-46266508D01*
X61832442Y-46264635D01*
X61841126Y-46264043D01*
X61855742Y-46262500D01*
X63956096Y-46262500D01*
X64024217Y-46282502D01*
X64070710Y-46336158D01*
X64080063Y-46411043D01*
X63772510Y-48102334D01*
X63740643Y-48165777D01*
X63683271Y-48200226D01*
X63674367Y-48200810D01*
X63583740Y-48245502D01*
X63534801Y-48301307D01*
X63517115Y-48321474D01*
X63513126Y-48333225D01*
X63512906Y-48333874D01*
X63502713Y-48356370D01*
X62060666Y-50854071D01*
X62040138Y-50889626D01*
X62025749Y-50909705D01*
X62017115Y-50919550D01*
X62008916Y-50943703D01*
X61984634Y-51015235D01*
X61991243Y-51116066D01*
X61991412Y-51116408D01*
X61989920Y-51179057D01*
X61958507Y-51228966D01*
X61958998Y-51229417D01*
X61955962Y-51232724D01*
X61955960Y-51232726D01*
X61806746Y-51395264D01*
X61698159Y-51513547D01*
X60413752Y-52912645D01*
X60409674Y-52917087D01*
X60348871Y-52953742D01*
X60277904Y-52951705D01*
X60240150Y-52931839D01*
X60239878Y-52931630D01*
X60231693Y-52922297D01*
X60141066Y-52877605D01*
X60128681Y-52876793D01*
X60128680Y-52876793D01*
X60101094Y-52874985D01*
X60040235Y-52870996D01*
X60028484Y-52874985D01*
X59956300Y-52899488D01*
X59956298Y-52899489D01*
X59944550Y-52903477D01*
X59935220Y-52911659D01*
X59934701Y-52912114D01*
X59914625Y-52926500D01*
X57381375Y-54389073D01*
X57358877Y-54399267D01*
X57358222Y-54399489D01*
X57358221Y-54399489D01*
X57346474Y-54403477D01*
X57270502Y-54470102D01*
X57225810Y-54560729D01*
X57219201Y-54661560D01*
X57239020Y-54719943D01*
X57247856Y-54745973D01*
X57247857Y-54745978D01*
X57251682Y-54757245D01*
X57250674Y-54757587D01*
X57264511Y-54814630D01*
X57241290Y-54881722D01*
X57178871Y-54928043D01*
X54242215Y-55917080D01*
X54171274Y-55919866D01*
X54110087Y-55883856D01*
X54078082Y-55820483D01*
X54076000Y-55797670D01*
X54076000Y-55727425D01*
X54078421Y-55702844D01*
X54078555Y-55702170D01*
X54080976Y-55690000D01*
X54069813Y-55633876D01*
X54061263Y-55590894D01*
X54054371Y-55580579D01*
X54054370Y-55580577D01*
X54012017Y-55517192D01*
X54005124Y-55506876D01*
X53921106Y-55450737D01*
X53822000Y-55431024D01*
X53809153Y-55433579D01*
X53784575Y-55436000D01*
X50859425Y-55436000D01*
X50834847Y-55433579D01*
X50822000Y-55431024D01*
X50722894Y-55450737D01*
X50638876Y-55506876D01*
X50631983Y-55517192D01*
X50591112Y-55578360D01*
X50536635Y-55623888D01*
X50466192Y-55632736D01*
X50440200Y-55625603D01*
X49989768Y-55448316D01*
X47686004Y-54541571D01*
X47684168Y-54540993D01*
X47626645Y-54499441D01*
X47600484Y-54430469D01*
X47600002Y-54423115D01*
X47600002Y-54423114D01*
X47599190Y-54410729D01*
X47554498Y-54320102D01*
X47497704Y-54270295D01*
X47497702Y-54270294D01*
X47492661Y-54265873D01*
X47487854Y-54261657D01*
X47487852Y-54261656D01*
X47478526Y-54253477D01*
X47466122Y-54249266D01*
X47443628Y-54239074D01*
X47355098Y-54187961D01*
X51138869Y-54187961D01*
X51142380Y-54192651D01*
X51283841Y-54255634D01*
X51296320Y-54259689D01*
X51470107Y-54296627D01*
X51483168Y-54298000D01*
X51660832Y-54298000D01*
X51673893Y-54296627D01*
X51847680Y-54259689D01*
X51860159Y-54255634D01*
X51994633Y-54195761D01*
X52005378Y-54186628D01*
X52003781Y-54180991D01*
X51584812Y-53762022D01*
X51570868Y-53754408D01*
X51569035Y-53754539D01*
X51562420Y-53758790D01*
X51145629Y-54175581D01*
X51138869Y-54187961D01*
X47355098Y-54187961D01*
X47352789Y-54186628D01*
X45984359Y-53396565D01*
X50659688Y-53396565D01*
X50678259Y-53573261D01*
X50680989Y-53586102D01*
X50735892Y-53755075D01*
X50741230Y-53767064D01*
X50766761Y-53811285D01*
X50776965Y-53821015D01*
X50784986Y-53817804D01*
X51199978Y-53402812D01*
X51206356Y-53391132D01*
X51936408Y-53391132D01*
X51936539Y-53392965D01*
X51940790Y-53399580D01*
X52355370Y-53814160D01*
X52367750Y-53820920D01*
X52374665Y-53815744D01*
X52402770Y-53767064D01*
X52408108Y-53755075D01*
X52463011Y-53586102D01*
X52465741Y-53573261D01*
X52484312Y-53396565D01*
X52484312Y-53383435D01*
X52465741Y-53206739D01*
X52463011Y-53193898D01*
X52419134Y-53058859D01*
X56542350Y-53058859D01*
X56545861Y-53063549D01*
X56687322Y-53126532D01*
X56699801Y-53130587D01*
X56873588Y-53167525D01*
X56886649Y-53168898D01*
X57064313Y-53168898D01*
X57077374Y-53167525D01*
X57251161Y-53130587D01*
X57263640Y-53126532D01*
X57398114Y-53066659D01*
X57408859Y-53057526D01*
X57407262Y-53051889D01*
X56988293Y-52632920D01*
X56974349Y-52625306D01*
X56972516Y-52625437D01*
X56965901Y-52629688D01*
X56549110Y-53046479D01*
X56542350Y-53058859D01*
X52419134Y-53058859D01*
X52408108Y-53024925D01*
X52402770Y-53012936D01*
X52377239Y-52968715D01*
X52367035Y-52958985D01*
X52359014Y-52962196D01*
X51944022Y-53377188D01*
X51936408Y-53391132D01*
X51206356Y-53391132D01*
X51207592Y-53388868D01*
X51207461Y-53387035D01*
X51203210Y-53380420D01*
X50788630Y-52965840D01*
X50776250Y-52959080D01*
X50769335Y-52964256D01*
X50741230Y-53012936D01*
X50735892Y-53024925D01*
X50680989Y-53193898D01*
X50678259Y-53206739D01*
X50659688Y-53383435D01*
X50659688Y-53396565D01*
X45984359Y-53396565D01*
X44910372Y-52776499D01*
X44890295Y-52762111D01*
X44889779Y-52761658D01*
X44889778Y-52761657D01*
X44880450Y-52753477D01*
X44840481Y-52739909D01*
X44804235Y-52727605D01*
X44796517Y-52724985D01*
X44796516Y-52724985D01*
X44784765Y-52720996D01*
X44723906Y-52724985D01*
X44696320Y-52726793D01*
X44696319Y-52726793D01*
X44683934Y-52727605D01*
X44658984Y-52739909D01*
X44618476Y-52759885D01*
X44548534Y-52772075D01*
X44483104Y-52744515D01*
X44477444Y-52739611D01*
X44425593Y-52691913D01*
X44318471Y-52593372D01*
X51138622Y-52593372D01*
X51140219Y-52599009D01*
X51559188Y-53017978D01*
X51573132Y-53025592D01*
X51574965Y-53025461D01*
X51581580Y-53021210D01*
X51998371Y-52604419D01*
X52005131Y-52592039D01*
X52001620Y-52587349D01*
X51860159Y-52524366D01*
X51847680Y-52520311D01*
X51673893Y-52483373D01*
X51660832Y-52482000D01*
X51483168Y-52482000D01*
X51470107Y-52483373D01*
X51296320Y-52520311D01*
X51283841Y-52524366D01*
X51149367Y-52584239D01*
X51138622Y-52593372D01*
X44318471Y-52593372D01*
X44119204Y-52410068D01*
X43846120Y-52158859D01*
X46117350Y-52158859D01*
X46120861Y-52163549D01*
X46262322Y-52226532D01*
X46274801Y-52230587D01*
X46448588Y-52267525D01*
X46461649Y-52268898D01*
X46639313Y-52268898D01*
X46652374Y-52267525D01*
X46652666Y-52267463D01*
X56063169Y-52267463D01*
X56081740Y-52444159D01*
X56084470Y-52457000D01*
X56139373Y-52625973D01*
X56144711Y-52637962D01*
X56170242Y-52682183D01*
X56180446Y-52691913D01*
X56188467Y-52688702D01*
X56603459Y-52273710D01*
X56609837Y-52262030D01*
X57339889Y-52262030D01*
X57340020Y-52263863D01*
X57344271Y-52270478D01*
X57758851Y-52685058D01*
X57771231Y-52691818D01*
X57778146Y-52686642D01*
X57806251Y-52637962D01*
X57811589Y-52625973D01*
X57866492Y-52457000D01*
X57869222Y-52444159D01*
X57887793Y-52267463D01*
X57887793Y-52254333D01*
X57869222Y-52077637D01*
X57866492Y-52064796D01*
X57811589Y-51895823D01*
X57806251Y-51883834D01*
X57780720Y-51839613D01*
X57770516Y-51829883D01*
X57762495Y-51833094D01*
X57347503Y-52248086D01*
X57339889Y-52262030D01*
X56609837Y-52262030D01*
X56611073Y-52259766D01*
X56610942Y-52257933D01*
X56606691Y-52251318D01*
X56192111Y-51836738D01*
X56179731Y-51829978D01*
X56172816Y-51835154D01*
X56144711Y-51883834D01*
X56139373Y-51895823D01*
X56084470Y-52064796D01*
X56081740Y-52077637D01*
X56063169Y-52254333D01*
X56063169Y-52267463D01*
X46652666Y-52267463D01*
X46826161Y-52230587D01*
X46838640Y-52226532D01*
X46973114Y-52166659D01*
X46983859Y-52157526D01*
X46982262Y-52151889D01*
X46563293Y-51732920D01*
X46549349Y-51725306D01*
X46547516Y-51725437D01*
X46540901Y-51729688D01*
X46124110Y-52146479D01*
X46117350Y-52158859D01*
X43846120Y-52158859D01*
X42985809Y-51367463D01*
X45638169Y-51367463D01*
X45656740Y-51544159D01*
X45659470Y-51557000D01*
X45714373Y-51725973D01*
X45719711Y-51737962D01*
X45745242Y-51782183D01*
X45755446Y-51791913D01*
X45763467Y-51788702D01*
X46178459Y-51373710D01*
X46184837Y-51362030D01*
X46914889Y-51362030D01*
X46915020Y-51363863D01*
X46919271Y-51370478D01*
X47333851Y-51785058D01*
X47346231Y-51791818D01*
X47353146Y-51786642D01*
X47381251Y-51737962D01*
X47386589Y-51725973D01*
X47441492Y-51557000D01*
X47444222Y-51544159D01*
X47452618Y-51464270D01*
X56542103Y-51464270D01*
X56543700Y-51469907D01*
X56962669Y-51888876D01*
X56976613Y-51896490D01*
X56978446Y-51896359D01*
X56985061Y-51892108D01*
X57401852Y-51475317D01*
X57408612Y-51462937D01*
X57405101Y-51458247D01*
X57263640Y-51395264D01*
X57251161Y-51391209D01*
X57077374Y-51354271D01*
X57064313Y-51352898D01*
X56886649Y-51352898D01*
X56873588Y-51354271D01*
X56699801Y-51391209D01*
X56687322Y-51395264D01*
X56552848Y-51455137D01*
X56542103Y-51464270D01*
X47452618Y-51464270D01*
X47462793Y-51367463D01*
X47462793Y-51354333D01*
X47444222Y-51177637D01*
X47441492Y-51164796D01*
X47386589Y-50995823D01*
X47381251Y-50983834D01*
X47355720Y-50939613D01*
X47345516Y-50929883D01*
X47337495Y-50933094D01*
X46922503Y-51348086D01*
X46914889Y-51362030D01*
X46184837Y-51362030D01*
X46186073Y-51359766D01*
X46185942Y-51357933D01*
X46181691Y-51351318D01*
X45767111Y-50936738D01*
X45754731Y-50929978D01*
X45747816Y-50935154D01*
X45719711Y-50983834D01*
X45714373Y-50995823D01*
X45659470Y-51164796D01*
X45656740Y-51177637D01*
X45638169Y-51354333D01*
X45638169Y-51367463D01*
X42985809Y-51367463D01*
X42904269Y-51292455D01*
X42867676Y-51231616D01*
X42869784Y-51160650D01*
X42876564Y-51144002D01*
X42886395Y-51124066D01*
X42893004Y-51023235D01*
X42879629Y-50983834D01*
X42864512Y-50939300D01*
X42864511Y-50939298D01*
X42860523Y-50927550D01*
X42851886Y-50917701D01*
X42837500Y-50897625D01*
X42645037Y-50564270D01*
X46117103Y-50564270D01*
X46118700Y-50569907D01*
X46537669Y-50988876D01*
X46551613Y-50996490D01*
X46553446Y-50996359D01*
X46560061Y-50992108D01*
X46976852Y-50575317D01*
X46983612Y-50562937D01*
X46980101Y-50558247D01*
X46838640Y-50495264D01*
X46826161Y-50491209D01*
X46652374Y-50454271D01*
X46639313Y-50452898D01*
X46461649Y-50452898D01*
X46448588Y-50454271D01*
X46274801Y-50491209D01*
X46262322Y-50495264D01*
X46127848Y-50555137D01*
X46117103Y-50564270D01*
X42645037Y-50564270D01*
X41601287Y-48756442D01*
X43069971Y-48756442D01*
X43073482Y-48761132D01*
X43214943Y-48824115D01*
X43227422Y-48828170D01*
X43401209Y-48865108D01*
X43414270Y-48866481D01*
X43591934Y-48866481D01*
X43604995Y-48865108D01*
X43778782Y-48828170D01*
X43791261Y-48824115D01*
X43925735Y-48764242D01*
X43936480Y-48755109D01*
X43934883Y-48749472D01*
X43515914Y-48330503D01*
X43501970Y-48322889D01*
X43500137Y-48323020D01*
X43493522Y-48327271D01*
X43076731Y-48744062D01*
X43069971Y-48756442D01*
X41601287Y-48756442D01*
X41374927Y-48364375D01*
X41364733Y-48341877D01*
X41364511Y-48341222D01*
X41364511Y-48341221D01*
X41360523Y-48329474D01*
X41345324Y-48312142D01*
X41302080Y-48262832D01*
X41293898Y-48253502D01*
X41203271Y-48208810D01*
X41190886Y-48207998D01*
X41190885Y-48207998D01*
X41170013Y-48206630D01*
X41103347Y-48182215D01*
X41060463Y-48125633D01*
X41053626Y-48099438D01*
X41033636Y-47965046D01*
X42590790Y-47965046D01*
X42609361Y-48141742D01*
X42612091Y-48154583D01*
X42666994Y-48323556D01*
X42672332Y-48335545D01*
X42697863Y-48379766D01*
X42708067Y-48389496D01*
X42716088Y-48386285D01*
X43131080Y-47971293D01*
X43138694Y-47957349D01*
X43138563Y-47955516D01*
X43134312Y-47948901D01*
X42719732Y-47534321D01*
X42707352Y-47527561D01*
X42700437Y-47532737D01*
X42672332Y-47581417D01*
X42666994Y-47593406D01*
X42612091Y-47762379D01*
X42609361Y-47775220D01*
X42590790Y-47951916D01*
X42590790Y-47965046D01*
X41033636Y-47965046D01*
X40649756Y-45384282D01*
X40649755Y-45384275D01*
X40649430Y-45382092D01*
X40641731Y-45347310D01*
X40641102Y-45345186D01*
X40633623Y-45319941D01*
X40633621Y-45319937D01*
X40631716Y-45313506D01*
X40591686Y-45240408D01*
X40576510Y-45171052D01*
X40578621Y-45155306D01*
X40583390Y-45131331D01*
X40593000Y-45083018D01*
X40593000Y-45083017D01*
X40595555Y-45070172D01*
X40597976Y-45058000D01*
X40595421Y-45045153D01*
X40593000Y-45020575D01*
X40593000Y-43605961D01*
X42205869Y-43605961D01*
X42209380Y-43610651D01*
X42350841Y-43673634D01*
X42363320Y-43677689D01*
X42537107Y-43714627D01*
X42550168Y-43716000D01*
X42727832Y-43716000D01*
X42740893Y-43714627D01*
X42914680Y-43677689D01*
X42927159Y-43673634D01*
X43061633Y-43613761D01*
X43072378Y-43604628D01*
X43070781Y-43598991D01*
X42651812Y-43180022D01*
X42637868Y-43172408D01*
X42636035Y-43172539D01*
X42629420Y-43176790D01*
X42212629Y-43593581D01*
X42205869Y-43605961D01*
X40593000Y-43605961D01*
X40593000Y-42814565D01*
X41726688Y-42814565D01*
X41745259Y-42991261D01*
X41747989Y-43004102D01*
X41802892Y-43173075D01*
X41808230Y-43185064D01*
X41833761Y-43229285D01*
X41843965Y-43239015D01*
X41851986Y-43235804D01*
X42266978Y-42820812D01*
X42273356Y-42809132D01*
X43003408Y-42809132D01*
X43003539Y-42810965D01*
X43007790Y-42817580D01*
X43422370Y-43232160D01*
X43434750Y-43238920D01*
X43441665Y-43233744D01*
X43469770Y-43185064D01*
X43475108Y-43173075D01*
X43530011Y-43004102D01*
X43532741Y-42991261D01*
X43551312Y-42814565D01*
X43551312Y-42801435D01*
X43532741Y-42624739D01*
X43530011Y-42611898D01*
X43475108Y-42442925D01*
X43469770Y-42430936D01*
X43444239Y-42386715D01*
X43434035Y-42376985D01*
X43426014Y-42380196D01*
X43011022Y-42795188D01*
X43003408Y-42809132D01*
X42273356Y-42809132D01*
X42274592Y-42806868D01*
X42274461Y-42805035D01*
X42270210Y-42798420D01*
X41855630Y-42383840D01*
X41843250Y-42377080D01*
X41836335Y-42382256D01*
X41808230Y-42430936D01*
X41802892Y-42442925D01*
X41747989Y-42611898D01*
X41745259Y-42624739D01*
X41726688Y-42801435D01*
X41726688Y-42814565D01*
X40593000Y-42814565D01*
X40593000Y-42095425D01*
X40595421Y-42070844D01*
X40595555Y-42070170D01*
X40597976Y-42058000D01*
X40588701Y-42011372D01*
X42205622Y-42011372D01*
X42207219Y-42017009D01*
X42626188Y-42435978D01*
X42640132Y-42443592D01*
X42641965Y-42443461D01*
X42648580Y-42439210D01*
X43065371Y-42022419D01*
X43072131Y-42010039D01*
X43068620Y-42005349D01*
X42927159Y-41942366D01*
X42914680Y-41938311D01*
X42740893Y-41901373D01*
X42727832Y-41900000D01*
X42550168Y-41900000D01*
X42537107Y-41901373D01*
X42363320Y-41938311D01*
X42350841Y-41942366D01*
X42216367Y-42002239D01*
X42205622Y-42011372D01*
X40588701Y-42011372D01*
X40578263Y-41958894D01*
X40580471Y-41958455D01*
X40574637Y-41904201D01*
X40588066Y-41866152D01*
X40596402Y-41850898D01*
X40609669Y-41826618D01*
X40620089Y-41798708D01*
X40633379Y-41763109D01*
X40633381Y-41763104D01*
X40634954Y-41758889D01*
X40636381Y-41752342D01*
X40685947Y-41524826D01*
X41191691Y-39203388D01*
X41191693Y-39203376D01*
X41191898Y-39202437D01*
X41193147Y-39195747D01*
X41194512Y-39188444D01*
X41194517Y-39188414D01*
X41194680Y-39187542D01*
X41196997Y-39172698D01*
X41196900Y-39167263D01*
X41197273Y-39161834D01*
X41198877Y-39161944D01*
X41215722Y-39100565D01*
X41246208Y-39066833D01*
X41255130Y-39059986D01*
X41266260Y-39054498D01*
X41300248Y-39015742D01*
X41324704Y-38987855D01*
X41324704Y-38987854D01*
X41332885Y-38978526D01*
X41337096Y-38966122D01*
X41347289Y-38943625D01*
X41402243Y-38848442D01*
X43792333Y-38848442D01*
X43795844Y-38853132D01*
X43937305Y-38916115D01*
X43949784Y-38920170D01*
X44123571Y-38957108D01*
X44136632Y-38958481D01*
X44314296Y-38958481D01*
X44327357Y-38957108D01*
X44501144Y-38920170D01*
X44513623Y-38916115D01*
X44648097Y-38856242D01*
X44658842Y-38847109D01*
X44657245Y-38841472D01*
X44238276Y-38422503D01*
X44224332Y-38414889D01*
X44222499Y-38415020D01*
X44215884Y-38419271D01*
X43799093Y-38836062D01*
X43792333Y-38848442D01*
X41402243Y-38848442D01*
X41859156Y-38057046D01*
X43313152Y-38057046D01*
X43331723Y-38233742D01*
X43334453Y-38246583D01*
X43389356Y-38415556D01*
X43394694Y-38427545D01*
X43420225Y-38471766D01*
X43430429Y-38481496D01*
X43438450Y-38478285D01*
X43853442Y-38063293D01*
X43859820Y-38051613D01*
X44589872Y-38051613D01*
X44590003Y-38053446D01*
X44594254Y-38060061D01*
X45008834Y-38474641D01*
X45021214Y-38481401D01*
X45028129Y-38476225D01*
X45056234Y-38427545D01*
X45061572Y-38415556D01*
X45116475Y-38246583D01*
X45119205Y-38233742D01*
X45137776Y-38057046D01*
X45137776Y-38043916D01*
X45119205Y-37867220D01*
X45116475Y-37854379D01*
X45061572Y-37685406D01*
X45056234Y-37673417D01*
X45030703Y-37629196D01*
X45020499Y-37619466D01*
X45012478Y-37622677D01*
X44597486Y-38037669D01*
X44589872Y-38051613D01*
X43859820Y-38051613D01*
X43861056Y-38049349D01*
X43860925Y-38047516D01*
X43856674Y-38040901D01*
X43442094Y-37626321D01*
X43429714Y-37619561D01*
X43422799Y-37624737D01*
X43394694Y-37673417D01*
X43389356Y-37685406D01*
X43334453Y-37854379D01*
X43331723Y-37867220D01*
X43313152Y-38043916D01*
X43313152Y-38057046D01*
X41859156Y-38057046D01*
X42322880Y-37253853D01*
X43792086Y-37253853D01*
X43793683Y-37259490D01*
X44212652Y-37678459D01*
X44226596Y-37686073D01*
X44228429Y-37685942D01*
X44235044Y-37681691D01*
X44651835Y-37264900D01*
X44658595Y-37252520D01*
X44655084Y-37247830D01*
X44513623Y-37184847D01*
X44501144Y-37180792D01*
X44327357Y-37143854D01*
X44314296Y-37142481D01*
X44136632Y-37142481D01*
X44123571Y-37143854D01*
X43949784Y-37180792D01*
X43937305Y-37184847D01*
X43802831Y-37244720D01*
X43792086Y-37253853D01*
X42322880Y-37253853D01*
X42483914Y-36974933D01*
X50645500Y-36974933D01*
X50645501Y-39025066D01*
X50660266Y-39099301D01*
X50667161Y-39109620D01*
X50667162Y-39109622D01*
X50689434Y-39142954D01*
X50716516Y-39183484D01*
X50800699Y-39239734D01*
X50874933Y-39254500D01*
X52499737Y-39254500D01*
X54125066Y-39254499D01*
X54160818Y-39247388D01*
X54187126Y-39242156D01*
X54187128Y-39242155D01*
X54199301Y-39239734D01*
X54209621Y-39232839D01*
X54209622Y-39232838D01*
X54273168Y-39190377D01*
X54283484Y-39183484D01*
X54339734Y-39099301D01*
X54354500Y-39025067D01*
X54354499Y-36974934D01*
X54344434Y-36924329D01*
X54342156Y-36912874D01*
X54342155Y-36912872D01*
X54339734Y-36900699D01*
X54283484Y-36816516D01*
X54199301Y-36760266D01*
X54125067Y-36745500D01*
X52500263Y-36745500D01*
X50874934Y-36745501D01*
X50839182Y-36752612D01*
X50812874Y-36757844D01*
X50812872Y-36757845D01*
X50800699Y-36760266D01*
X50790379Y-36767161D01*
X50790378Y-36767162D01*
X50729985Y-36807516D01*
X50716516Y-36816516D01*
X50660266Y-36900699D01*
X50645500Y-36974933D01*
X42483914Y-36974933D01*
X42809862Y-36410375D01*
X42824248Y-36390299D01*
X42824703Y-36389780D01*
X42832885Y-36380450D01*
X42840238Y-36358791D01*
X42864586Y-36287063D01*
X57416388Y-36287063D01*
X57419899Y-36291753D01*
X57561360Y-36354736D01*
X57573839Y-36358791D01*
X57747626Y-36395729D01*
X57760687Y-36397102D01*
X57938351Y-36397102D01*
X57951412Y-36395729D01*
X58125199Y-36358791D01*
X58137678Y-36354736D01*
X58272152Y-36294863D01*
X58282897Y-36285730D01*
X58281300Y-36280093D01*
X57862331Y-35861124D01*
X57848387Y-35853510D01*
X57846554Y-35853641D01*
X57839939Y-35857892D01*
X57423148Y-36274683D01*
X57416388Y-36287063D01*
X42864586Y-36287063D01*
X42865366Y-36284765D01*
X42869399Y-36286134D01*
X42888642Y-36242630D01*
X42928031Y-36211535D01*
X42935287Y-36207869D01*
X42935295Y-36207864D01*
X42939308Y-36205837D01*
X42948183Y-36199627D01*
X42994858Y-36166965D01*
X42998541Y-36164388D01*
X43001823Y-36161310D01*
X43655675Y-35548063D01*
X47665635Y-35548063D01*
X47669146Y-35552753D01*
X47810607Y-35615736D01*
X47823086Y-35619791D01*
X47996873Y-35656729D01*
X48009934Y-35658102D01*
X48187598Y-35658102D01*
X48200659Y-35656729D01*
X48374446Y-35619791D01*
X48386925Y-35615736D01*
X48521399Y-35555863D01*
X48532144Y-35546730D01*
X48530547Y-35541093D01*
X48485121Y-35495667D01*
X56937207Y-35495667D01*
X56955778Y-35672363D01*
X56958508Y-35685204D01*
X57013411Y-35854177D01*
X57018749Y-35866166D01*
X57044280Y-35910387D01*
X57054484Y-35920117D01*
X57062505Y-35916906D01*
X57477497Y-35501914D01*
X57483875Y-35490234D01*
X58213927Y-35490234D01*
X58214058Y-35492067D01*
X58218309Y-35498682D01*
X58632889Y-35913262D01*
X58645269Y-35920022D01*
X58652184Y-35914846D01*
X58680289Y-35866166D01*
X58685627Y-35854177D01*
X58740530Y-35685204D01*
X58743260Y-35672363D01*
X58761831Y-35495667D01*
X58761831Y-35482537D01*
X58743260Y-35305841D01*
X58740530Y-35293000D01*
X58685627Y-35124027D01*
X58680289Y-35112038D01*
X58654758Y-35067817D01*
X58644554Y-35058087D01*
X58636533Y-35061298D01*
X58221541Y-35476290D01*
X58213927Y-35490234D01*
X57483875Y-35490234D01*
X57485111Y-35487970D01*
X57484980Y-35486137D01*
X57480729Y-35479522D01*
X57066149Y-35064942D01*
X57053769Y-35058182D01*
X57046854Y-35063358D01*
X57018749Y-35112038D01*
X57013411Y-35124027D01*
X56958508Y-35293000D01*
X56955778Y-35305841D01*
X56937207Y-35482537D01*
X56937207Y-35495667D01*
X48485121Y-35495667D01*
X48111578Y-35122124D01*
X48097634Y-35114510D01*
X48095801Y-35114641D01*
X48089186Y-35118892D01*
X47672395Y-35535683D01*
X47665635Y-35548063D01*
X43655675Y-35548063D01*
X44499472Y-34756667D01*
X47186454Y-34756667D01*
X47205025Y-34933363D01*
X47207755Y-34946204D01*
X47262658Y-35115177D01*
X47267996Y-35127166D01*
X47293527Y-35171387D01*
X47303731Y-35181117D01*
X47311752Y-35177906D01*
X47726744Y-34762914D01*
X47733122Y-34751234D01*
X48463174Y-34751234D01*
X48463305Y-34753067D01*
X48467556Y-34759682D01*
X48882136Y-35174262D01*
X48894516Y-35181022D01*
X48901431Y-35175846D01*
X48929536Y-35127166D01*
X48934874Y-35115177D01*
X48989777Y-34946204D01*
X48992507Y-34933363D01*
X49011078Y-34756667D01*
X49011078Y-34743537D01*
X49006288Y-34697961D01*
X52638869Y-34697961D01*
X52642380Y-34702651D01*
X52783841Y-34765634D01*
X52796320Y-34769689D01*
X52970107Y-34806627D01*
X52983168Y-34808000D01*
X53160832Y-34808000D01*
X53173893Y-34806627D01*
X53347680Y-34769689D01*
X53360159Y-34765634D01*
X53494633Y-34705761D01*
X53505378Y-34696628D01*
X53504201Y-34692474D01*
X57416141Y-34692474D01*
X57417738Y-34698111D01*
X57836707Y-35117080D01*
X57850651Y-35124694D01*
X57852484Y-35124563D01*
X57859099Y-35120312D01*
X58275890Y-34703521D01*
X58282650Y-34691141D01*
X58279139Y-34686451D01*
X58137678Y-34623468D01*
X58125199Y-34619413D01*
X57951412Y-34582475D01*
X57938351Y-34581102D01*
X57760687Y-34581102D01*
X57747626Y-34582475D01*
X57573839Y-34619413D01*
X57561360Y-34623468D01*
X57426886Y-34683341D01*
X57416141Y-34692474D01*
X53504201Y-34692474D01*
X53503781Y-34690991D01*
X53084812Y-34272022D01*
X53070868Y-34264408D01*
X53069035Y-34264539D01*
X53062420Y-34268790D01*
X52645629Y-34685581D01*
X52638869Y-34697961D01*
X49006288Y-34697961D01*
X48992507Y-34566841D01*
X48989777Y-34554000D01*
X48934874Y-34385027D01*
X48929536Y-34373038D01*
X48904005Y-34328817D01*
X48893801Y-34319087D01*
X48885780Y-34322298D01*
X48470788Y-34737290D01*
X48463174Y-34751234D01*
X47733122Y-34751234D01*
X47734358Y-34748970D01*
X47734227Y-34747137D01*
X47729976Y-34740522D01*
X47315396Y-34325942D01*
X47303016Y-34319182D01*
X47296101Y-34324358D01*
X47267996Y-34373038D01*
X47262658Y-34385027D01*
X47207755Y-34554000D01*
X47205025Y-34566841D01*
X47186454Y-34743537D01*
X47186454Y-34756667D01*
X44499472Y-34756667D01*
X44928541Y-34354244D01*
X44928548Y-34354237D01*
X44929706Y-34353151D01*
X44930799Y-34352018D01*
X44930814Y-34352004D01*
X44946120Y-34336149D01*
X44946133Y-34336135D01*
X44947216Y-34335013D01*
X44963657Y-34316197D01*
X44966700Y-34310952D01*
X45009376Y-34237387D01*
X45009379Y-34237382D01*
X45012418Y-34232142D01*
X45014399Y-34226419D01*
X45014401Y-34226414D01*
X45025506Y-34194325D01*
X45066688Y-34136492D01*
X45104075Y-34116221D01*
X45105545Y-34115722D01*
X45117943Y-34111513D01*
X45129697Y-34107523D01*
X45139542Y-34098889D01*
X45159621Y-34084500D01*
X45376802Y-33959111D01*
X45386566Y-33953474D01*
X47665388Y-33953474D01*
X47666985Y-33959111D01*
X48085954Y-34378080D01*
X48099898Y-34385694D01*
X48101731Y-34385563D01*
X48108346Y-34381312D01*
X48525137Y-33964521D01*
X48531897Y-33952141D01*
X48528386Y-33947451D01*
X48436555Y-33906565D01*
X52159688Y-33906565D01*
X52178259Y-34083261D01*
X52180989Y-34096102D01*
X52235892Y-34265075D01*
X52241230Y-34277064D01*
X52266761Y-34321285D01*
X52276965Y-34331015D01*
X52284986Y-34327804D01*
X52699978Y-33912812D01*
X52706356Y-33901132D01*
X53436408Y-33901132D01*
X53436539Y-33902965D01*
X53440790Y-33909580D01*
X53855370Y-34324160D01*
X53867750Y-34330920D01*
X53874665Y-34325744D01*
X53902770Y-34277064D01*
X53908108Y-34265075D01*
X53963011Y-34096102D01*
X53965741Y-34083261D01*
X53984312Y-33906565D01*
X53984312Y-33893435D01*
X53965741Y-33716739D01*
X53963011Y-33703898D01*
X53908108Y-33534925D01*
X53902770Y-33522936D01*
X53877239Y-33478715D01*
X53867035Y-33468985D01*
X53859014Y-33472196D01*
X53444022Y-33887188D01*
X53436408Y-33901132D01*
X52706356Y-33901132D01*
X52707592Y-33898868D01*
X52707461Y-33897035D01*
X52703210Y-33890420D01*
X52288630Y-33475840D01*
X52276250Y-33469080D01*
X52269335Y-33474256D01*
X52241230Y-33522936D01*
X52235892Y-33534925D01*
X52180989Y-33703898D01*
X52178259Y-33716739D01*
X52159688Y-33893435D01*
X52159688Y-33906565D01*
X48436555Y-33906565D01*
X48386925Y-33884468D01*
X48374446Y-33880413D01*
X48200659Y-33843475D01*
X48187598Y-33842102D01*
X48009934Y-33842102D01*
X47996873Y-33843475D01*
X47823086Y-33880413D01*
X47810607Y-33884468D01*
X47676133Y-33944341D01*
X47665388Y-33953474D01*
X45386566Y-33953474D01*
X46858986Y-33103372D01*
X52638622Y-33103372D01*
X52640219Y-33109009D01*
X53059188Y-33527978D01*
X53073132Y-33535592D01*
X53074965Y-33535461D01*
X53081580Y-33531210D01*
X53498371Y-33114419D01*
X53505131Y-33102039D01*
X53501620Y-33097349D01*
X53360159Y-33034366D01*
X53347680Y-33030311D01*
X53173893Y-32993373D01*
X53160832Y-32992000D01*
X52983168Y-32992000D01*
X52970107Y-32993373D01*
X52796320Y-33030311D01*
X52783841Y-33034366D01*
X52649367Y-33094239D01*
X52638622Y-33103372D01*
X46858986Y-33103372D01*
X47692877Y-32621925D01*
X47715369Y-32611734D01*
X47727773Y-32607523D01*
X47746949Y-32590706D01*
X47746951Y-32590705D01*
X47747841Y-32589925D01*
X47812242Y-32560044D01*
X47861980Y-32562538D01*
X47875210Y-32565903D01*
X47881388Y-32566229D01*
X47941614Y-32569407D01*
X47941616Y-32569407D01*
X47946108Y-32569644D01*
X47961365Y-32568266D01*
X48013629Y-32563545D01*
X48013632Y-32563544D01*
X48018110Y-32563140D01*
X50527141Y-31968039D01*
X50528582Y-31967622D01*
X50528593Y-31967619D01*
X50549510Y-31961564D01*
X50550982Y-31961138D01*
X50561020Y-31957693D01*
X50568531Y-31955115D01*
X50568535Y-31955113D01*
X50574246Y-31953153D01*
X50658121Y-31904872D01*
X50676682Y-31888789D01*
X50685189Y-31881418D01*
X50749770Y-31851926D01*
X50792279Y-31853065D01*
X50809826Y-31856555D01*
X50809828Y-31856555D01*
X50822000Y-31858976D01*
X50834847Y-31856421D01*
X50859425Y-31854000D01*
X53784575Y-31854000D01*
X53809153Y-31856421D01*
X53822000Y-31858976D01*
X53834171Y-31856555D01*
X53834173Y-31856555D01*
X53871120Y-31849206D01*
X53941834Y-31855534D01*
G37*
%TD.AperFunction*%
%TD*%
%TA.AperFunction,NonConductor*%
G36*
X76116512Y-37843706D02*
G01*
X76154896Y-37903432D01*
X76158357Y-37918645D01*
X76181847Y-38062660D01*
X76191654Y-38122789D01*
X76192777Y-38131642D01*
X76230259Y-38543403D01*
X76235977Y-38606214D01*
X76236471Y-38615126D01*
X76238532Y-38718824D01*
X76245316Y-39060137D01*
X76243788Y-39076007D01*
X76243666Y-39083832D01*
X76241055Y-39095966D01*
X76243286Y-39108173D01*
X76243286Y-39108175D01*
X76243947Y-39111790D01*
X76246000Y-39134443D01*
X76246000Y-41078631D01*
X76225998Y-41146752D01*
X76172342Y-41193245D01*
X76111947Y-41204373D01*
X76099289Y-41203562D01*
X76094573Y-41203260D01*
X76094572Y-41203260D01*
X76090075Y-41202972D01*
X75733613Y-41231133D01*
X75579949Y-41243273D01*
X75579946Y-41243273D01*
X75577381Y-41243476D01*
X75536294Y-41250143D01*
X75533788Y-41250764D01*
X75533783Y-41250765D01*
X75497200Y-41259830D01*
X75497191Y-41259832D01*
X75496349Y-41260041D01*
X75482421Y-41263916D01*
X75395266Y-41311097D01*
X75379732Y-41323984D01*
X75345019Y-41352781D01*
X75279819Y-41380881D01*
X75209779Y-41369270D01*
X75197335Y-41362369D01*
X75187918Y-41356427D01*
X75053581Y-41271667D01*
X74865039Y-41196446D01*
X74859379Y-41195320D01*
X74859375Y-41195319D01*
X74671613Y-41157971D01*
X74671610Y-41157971D01*
X74665946Y-41156844D01*
X74660171Y-41156768D01*
X74660167Y-41156768D01*
X74558793Y-41155441D01*
X74462971Y-41154187D01*
X74457274Y-41155166D01*
X74457273Y-41155166D01*
X74268607Y-41187585D01*
X74262910Y-41188564D01*
X74072463Y-41258824D01*
X74067502Y-41261776D01*
X74067501Y-41261776D01*
X74054473Y-41269527D01*
X73898010Y-41362612D01*
X73893670Y-41366418D01*
X73893666Y-41366421D01*
X73771959Y-41473156D01*
X73707555Y-41503033D01*
X73637222Y-41493347D01*
X73623743Y-41484988D01*
X73623195Y-41485891D01*
X73615492Y-41481212D01*
X73608534Y-41475484D01*
X73562437Y-41455825D01*
X73507624Y-41410703D01*
X73485906Y-41343109D01*
X73504180Y-41274505D01*
X73522771Y-41250830D01*
X74000959Y-40772642D01*
X74063271Y-40738616D01*
X74139791Y-40745969D01*
X74180100Y-40763287D01*
X74201875Y-40772642D01*
X74207228Y-40774942D01*
X74271358Y-40789453D01*
X74399579Y-40818467D01*
X74399584Y-40818468D01*
X74405216Y-40819742D01*
X74410987Y-40819969D01*
X74410989Y-40819969D01*
X74470756Y-40822317D01*
X74608053Y-40827712D01*
X74708499Y-40813148D01*
X74803231Y-40799413D01*
X74803236Y-40799412D01*
X74808945Y-40798584D01*
X74814409Y-40796729D01*
X74814414Y-40796728D01*
X74995693Y-40735192D01*
X74995698Y-40735190D01*
X75001165Y-40733334D01*
X75178276Y-40634147D01*
X75198558Y-40617279D01*
X75305696Y-40528172D01*
X75334345Y-40504345D01*
X75388696Y-40438996D01*
X75460453Y-40352718D01*
X75460455Y-40352715D01*
X75464147Y-40348276D01*
X75524701Y-40240150D01*
X75560510Y-40176208D01*
X75560511Y-40176206D01*
X75563334Y-40171165D01*
X75565190Y-40165698D01*
X75565192Y-40165693D01*
X75626728Y-39984414D01*
X75626729Y-39984409D01*
X75628584Y-39978945D01*
X75629412Y-39973236D01*
X75629413Y-39973231D01*
X75657179Y-39781727D01*
X75657712Y-39778053D01*
X75659232Y-39720000D01*
X75640658Y-39517859D01*
X75635608Y-39499953D01*
X75587125Y-39328046D01*
X75587124Y-39328044D01*
X75585557Y-39322487D01*
X75576403Y-39303923D01*
X75498331Y-39145609D01*
X75495776Y-39140428D01*
X75471692Y-39108175D01*
X75424642Y-39045168D01*
X75374320Y-38977779D01*
X75295574Y-38904987D01*
X75229503Y-38843911D01*
X75225258Y-38839987D01*
X75115224Y-38770561D01*
X75068286Y-38717294D01*
X75057597Y-38647107D01*
X75086552Y-38582282D01*
X75145956Y-38543403D01*
X75182460Y-38537999D01*
X75444669Y-38537999D01*
X75451490Y-38537629D01*
X75502352Y-38532105D01*
X75517604Y-38528479D01*
X75638054Y-38483324D01*
X75653649Y-38474786D01*
X75755724Y-38398285D01*
X75768285Y-38385724D01*
X75844786Y-38283649D01*
X75853324Y-38268054D01*
X75898478Y-38147606D01*
X75902105Y-38132351D01*
X75907631Y-38081486D01*
X75908000Y-38074672D01*
X75908000Y-37938930D01*
X75928002Y-37870809D01*
X75981658Y-37824316D01*
X76051932Y-37814212D01*
X76116512Y-37843706D01*
G37*
%TD.AperFunction*%
%TA.AperFunction,NonConductor*%
G36*
X58404612Y-41729389D02*
G01*
X58425313Y-41752342D01*
X58531646Y-41904201D01*
X58535326Y-41909457D01*
X58690543Y-42064674D01*
X58695051Y-42067831D01*
X58695054Y-42067833D01*
X58808698Y-42147407D01*
X58853026Y-42202864D01*
X58860335Y-42273483D01*
X58828304Y-42336844D01*
X58767103Y-42372829D01*
X58736427Y-42376620D01*
X58692412Y-42376620D01*
X58624291Y-42356618D01*
X58603317Y-42339715D01*
X58233005Y-41969403D01*
X58198979Y-41907091D01*
X58196100Y-41880308D01*
X58196100Y-41824613D01*
X58216102Y-41756492D01*
X58269758Y-41709999D01*
X58340032Y-41699895D01*
X58404612Y-41729389D01*
G37*
%TD.AperFunction*%
%TA.AperFunction,NonConductor*%
G36*
X46354559Y-42958161D02*
G01*
X46907303Y-43510905D01*
X46941329Y-43573217D01*
X46936264Y-43644032D01*
X46907303Y-43689095D01*
X46354559Y-44241839D01*
X46292247Y-44275865D01*
X46221432Y-44270800D01*
X46164596Y-44228253D01*
X46139785Y-44161733D01*
X46151269Y-44099494D01*
X46151975Y-44097982D01*
X46168082Y-44063440D01*
X46181023Y-44035688D01*
X46181025Y-44035683D01*
X46183347Y-44030703D01*
X46240161Y-43818674D01*
X46259292Y-43600000D01*
X46240161Y-43381326D01*
X46183347Y-43169297D01*
X46181025Y-43164317D01*
X46181023Y-43164312D01*
X46151269Y-43100506D01*
X46140608Y-43030315D01*
X46169588Y-42965502D01*
X46229007Y-42926645D01*
X46300002Y-42926082D01*
X46354559Y-42958161D01*
G37*
%TD.AperFunction*%
%TA.AperFunction,NonConductor*%
G36*
X61327091Y-44097982D02*
G01*
X61373584Y-44151638D01*
X61383688Y-44221912D01*
X61378803Y-44242916D01*
X61358989Y-44303898D01*
X61356258Y-44316746D01*
X61355809Y-44321014D01*
X61328794Y-44386670D01*
X61270571Y-44427298D01*
X61199626Y-44429998D01*
X61141405Y-44396934D01*
X61037546Y-44293075D01*
X61003520Y-44230763D01*
X61008585Y-44159948D01*
X61051132Y-44103112D01*
X61117652Y-44078301D01*
X61126641Y-44077980D01*
X61258970Y-44077980D01*
X61327091Y-44097982D01*
G37*
%TD.AperFunction*%
%TA.AperFunction,NonConductor*%
G36*
X59024031Y-44724502D02*
G01*
X59070524Y-44778158D01*
X59080628Y-44848432D01*
X59051134Y-44913012D01*
X59009160Y-44944695D01*
X58878469Y-45005637D01*
X58808277Y-45016298D01*
X58743464Y-44987318D01*
X58704608Y-44927898D01*
X58704045Y-44856904D01*
X58736124Y-44802347D01*
X58797066Y-44741405D01*
X58859378Y-44707379D01*
X58886161Y-44704500D01*
X58955910Y-44704500D01*
X59024031Y-44724502D01*
G37*
%TD.AperFunction*%
%TA.AperFunction,NonConductor*%
G36*
X64214032Y-42767888D02*
G01*
X64270868Y-42810435D01*
X64295679Y-42876955D01*
X64296000Y-42885944D01*
X64296000Y-45127500D01*
X64275998Y-45195621D01*
X64222342Y-45242114D01*
X64170000Y-45253500D01*
X63076381Y-45253500D01*
X63008260Y-45233498D01*
X62961767Y-45179842D01*
X62951663Y-45109568D01*
X62980837Y-45047266D01*
X62980333Y-45046900D01*
X62982234Y-45044283D01*
X62982748Y-45043186D01*
X62984214Y-45041558D01*
X62991938Y-45030927D01*
X63080765Y-44877074D01*
X63086111Y-44865066D01*
X63141011Y-44696102D01*
X63143741Y-44683261D01*
X63162312Y-44506565D01*
X63162312Y-44493435D01*
X63143741Y-44316739D01*
X63141011Y-44303898D01*
X63086111Y-44134934D01*
X63080765Y-44122926D01*
X63009805Y-44000020D01*
X62993067Y-43931025D01*
X63016287Y-43863933D01*
X63029829Y-43847925D01*
X64080905Y-42796849D01*
X64143217Y-42762823D01*
X64214032Y-42767888D01*
G37*
%TD.AperFunction*%
%TA.AperFunction,NonConductor*%
G36*
X48244480Y-44097982D02*
G01*
X48290973Y-44151638D01*
X48301077Y-44221912D01*
X48271583Y-44286492D01*
X48265454Y-44293075D01*
X46466387Y-46092142D01*
X46404075Y-46126168D01*
X46333260Y-46121103D01*
X46276424Y-46078556D01*
X46251771Y-46014029D01*
X46240640Y-45886802D01*
X46240161Y-45881326D01*
X46183347Y-45669297D01*
X46181025Y-45664317D01*
X46181023Y-45664312D01*
X46145086Y-45587246D01*
X46141433Y-45579411D01*
X46130772Y-45509222D01*
X46159752Y-45444409D01*
X46166533Y-45437068D01*
X47488716Y-44114885D01*
X47551028Y-44080859D01*
X47577811Y-44077980D01*
X48176359Y-44077980D01*
X48244480Y-44097982D01*
G37*
%TD.AperFunction*%
%TA.AperFunction,NonConductor*%
G36*
X74601396Y-48508374D02*
G01*
X74656090Y-48553641D01*
X74668471Y-48580302D01*
X74669465Y-48579912D01*
X74678702Y-48603470D01*
X74684947Y-48674192D01*
X74651966Y-48737062D01*
X74590229Y-48772122D01*
X74559746Y-48775454D01*
X74553299Y-48775369D01*
X74542142Y-48775223D01*
X74474289Y-48754329D01*
X74428504Y-48700068D01*
X74419324Y-48629667D01*
X74424974Y-48608304D01*
X74425994Y-48606242D01*
X74427602Y-48600268D01*
X74427605Y-48600261D01*
X74429993Y-48591390D01*
X74467015Y-48530810D01*
X74530912Y-48499863D01*
X74601396Y-48508374D01*
G37*
%TD.AperFunction*%
%TA.AperFunction,NonConductor*%
G36*
X75814354Y-49860767D02*
G01*
X75839212Y-49871096D01*
X75841546Y-49872373D01*
X75851580Y-49877866D01*
X75860377Y-49879789D01*
X75860379Y-49879790D01*
X75901131Y-49888699D01*
X75963408Y-49922789D01*
X75997368Y-49985136D01*
X75994462Y-50049445D01*
X75867613Y-50454500D01*
X75858571Y-50483374D01*
X75855601Y-50491797D01*
X75824910Y-50569907D01*
X75809118Y-50610097D01*
X75765589Y-50666184D01*
X75698648Y-50689834D01*
X75638916Y-50678361D01*
X75626889Y-50672794D01*
X75626887Y-50672793D01*
X75621270Y-50670193D01*
X75564541Y-50656478D01*
X75503028Y-50621028D01*
X75470446Y-50557949D01*
X75477139Y-50487269D01*
X75484216Y-50472440D01*
X75494264Y-50454499D01*
X75563334Y-50331165D01*
X75565190Y-50325698D01*
X75565192Y-50325693D01*
X75626728Y-50144414D01*
X75626729Y-50144409D01*
X75628584Y-50138945D01*
X75654017Y-49963540D01*
X75683586Y-49898995D01*
X75743357Y-49860683D01*
X75814354Y-49860767D01*
G37*
%TD.AperFunction*%
M02*
