%TF.GenerationSoftware,KiCad,Pcbnew,(6.0.2)*%
%TF.CreationDate,2022-04-21T21:08:16+10:00*%
%TF.ProjectId,adapter,61646170-7465-4722-9e6b-696361645f70,1.2*%
%TF.SameCoordinates,Original*%
%TF.FileFunction,Profile,NP*%
%FSLAX46Y46*%
G04 Gerber Fmt 4.6, Leading zero omitted, Abs format (unit mm)*
G04 Created by KiCad (PCBNEW (6.0.2)) date 2022-04-21 21:08:16*
%MOMM*%
%LPD*%
G01*
G04 APERTURE LIST*
%TA.AperFunction,Profile*%
%ADD10C,0.200000*%
%TD*%
%TA.AperFunction,Profile*%
%ADD11C,0.120000*%
%TD*%
G04 APERTURE END LIST*
D10*
X72500000Y-54600000D02*
X62750000Y-59850000D01*
X62750000Y-27350000D02*
X72500000Y-32600000D01*
X62750000Y-27350000D02*
G75*
G03*
X33049743Y-43600000I-10404671J-16249999D01*
G01*
X33049743Y-43600000D02*
G75*
G03*
X62750000Y-59850000I19295586J-1D01*
G01*
X72500000Y-54600000D02*
G75*
G03*
X76500000Y-48100000I-3101476J6389370D01*
G01*
X76500000Y-39100000D02*
G75*
G03*
X72500000Y-32600000I-7101476J110630D01*
G01*
X76500000Y-39100000D02*
X76500000Y-48100000D01*
D11*
%TO.C,D12*%
X42636243Y-51057038D02*
X39691757Y-52757038D01*
X39691757Y-52757038D02*
X38191757Y-50158962D01*
X38191757Y-50158962D02*
X41136243Y-48458962D01*
X41136243Y-48458962D02*
X42636243Y-51057038D01*
%TO.C,D3*%
X65097243Y-34350962D02*
X66597243Y-36949038D01*
X66597243Y-36949038D02*
X63652757Y-38649038D01*
X62152757Y-36050962D02*
X65097243Y-34350962D01*
X63652757Y-38649038D02*
X62152757Y-36050962D01*
%TO.C,D7*%
X44750962Y-52977757D02*
X47349038Y-54477757D01*
X47349038Y-54477757D02*
X45649038Y-57422243D01*
X43050962Y-55922243D02*
X44750962Y-52977757D01*
X45649038Y-57422243D02*
X43050962Y-55922243D01*
%TO.C,D6*%
X38164119Y-37149038D02*
X39664119Y-34550962D01*
X42608605Y-36250962D02*
X41108605Y-38849038D01*
X41108605Y-38849038D02*
X38164119Y-37149038D01*
X39664119Y-34550962D02*
X42608605Y-36250962D01*
%TO.C,D4*%
X45000209Y-33883243D02*
X43300209Y-30938757D01*
X43300209Y-30938757D02*
X45898285Y-29438757D01*
X47598285Y-32383243D02*
X45000209Y-33883243D01*
X45898285Y-29438757D02*
X47598285Y-32383243D01*
%TO.C,D5*%
X61349038Y-30927757D02*
X59649038Y-33872243D01*
X59649038Y-33872243D02*
X57050962Y-32372243D01*
X58750962Y-29427757D02*
X61349038Y-30927757D01*
X57050962Y-32372243D02*
X58750962Y-29427757D01*
%TO.C,D10*%
X36939000Y-45058000D02*
X36939000Y-42058000D01*
X36939000Y-42058000D02*
X40339000Y-42058000D01*
X40339000Y-45058000D02*
X36939000Y-45058000D01*
X40339000Y-42058000D02*
X40339000Y-45058000D01*
%TO.C,D2*%
X50822000Y-31600000D02*
X50822000Y-28200000D01*
X53822000Y-28200000D02*
X53822000Y-31600000D01*
X50822000Y-28200000D02*
X53822000Y-28200000D01*
X53822000Y-31600000D02*
X50822000Y-31600000D01*
%TO.C,D9*%
X61774038Y-56072243D02*
X59175962Y-57572243D01*
X57475962Y-54627757D02*
X60074038Y-53127757D01*
X60074038Y-53127757D02*
X61774038Y-56072243D01*
X59175962Y-57572243D02*
X57475962Y-54627757D01*
%TO.C,D1*%
X64550000Y-45250000D02*
X64550000Y-42250000D01*
X67950000Y-45250000D02*
X64550000Y-45250000D01*
X64550000Y-42250000D02*
X67950000Y-42250000D01*
X67950000Y-42250000D02*
X67950000Y-45250000D01*
%TO.C,D8*%
X53822000Y-55690000D02*
X53822000Y-59090000D01*
X53822000Y-59090000D02*
X50822000Y-59090000D01*
X50822000Y-55690000D02*
X53822000Y-55690000D01*
X50822000Y-59090000D02*
X50822000Y-55690000D01*
%TO.C,D11*%
X62241395Y-51049038D02*
X63741395Y-48450962D01*
X63741395Y-48450962D02*
X66685881Y-50150962D01*
X66685881Y-50150962D02*
X65185881Y-52749038D01*
X65185881Y-52749038D02*
X62241395Y-51049038D01*
%TD*%
M02*
