%TF.GenerationSoftware,KiCad,Pcbnew,6.0.0-rc1-bf2b03b42f~115~ubuntu21.10.1*%
%TF.CreationDate,2021-12-10T15:52:42+01:00*%
%TF.ProjectId,adapter,61646170-7465-4722-9e6b-696361645f70,1.1*%
%TF.SameCoordinates,Original*%
%TF.FileFunction,Legend,Bot*%
%TF.FilePolarity,Positive*%
%FSLAX46Y46*%
G04 Gerber Fmt 4.6, Leading zero omitted, Abs format (unit mm)*
G04 Created by KiCad (PCBNEW 6.0.0-rc1-bf2b03b42f~115~ubuntu21.10.1) date 2021-12-10 15:52:42*
%MOMM*%
%LPD*%
G01*
G04 APERTURE LIST*
G04 Aperture macros list*
%AMRoundRect*
0 Rectangle with rounded corners*
0 $1 Rounding radius*
0 $2 $3 $4 $5 $6 $7 $8 $9 X,Y pos of 4 corners*
0 Add a 4 corners polygon primitive as box body*
4,1,4,$2,$3,$4,$5,$6,$7,$8,$9,$2,$3,0*
0 Add four circle primitives for the rounded corners*
1,1,$1+$1,$2,$3*
1,1,$1+$1,$4,$5*
1,1,$1+$1,$6,$7*
1,1,$1+$1,$8,$9*
0 Add four rect primitives between the rounded corners*
20,1,$1+$1,$2,$3,$4,$5,0*
20,1,$1+$1,$4,$5,$6,$7,0*
20,1,$1+$1,$6,$7,$8,$9,0*
20,1,$1+$1,$8,$9,$2,$3,0*%
G04 Aperture macros list end*
%ADD10C,0.120000*%
%ADD11C,0.150000*%
%ADD12C,0.200000*%
%ADD13C,0.203200*%
%ADD14C,5.000000*%
%ADD15R,1.700000X1.700000*%
%ADD16O,1.700000X1.700000*%
%ADD17RoundRect,0.250000X0.625000X-0.400000X0.625000X0.400000X-0.625000X0.400000X-0.625000X-0.400000X0*%
%ADD18O,1.400000X2.000000*%
%ADD19O,1.500000X1.500000*%
%ADD20O,1.400000X3.500000*%
%ADD21R,1.400000X2.000000*%
%ADD22C,1.700000*%
%ADD23R,1.300000X1.800000*%
G04 APERTURE END LIST*
D10*
X131171079Y-29094111D02*
X132190190Y-29094111D01*
X132200001Y-36496077D02*
G75*
G03*
X132971079Y-35715189I-29641J800408D01*
G01*
X117642083Y-35758781D02*
X117642083Y-29933781D01*
X115842083Y-29137704D02*
G75*
G03*
X115071005Y-29918592I29641J-800408D01*
G01*
X130400000Y-35700000D02*
G75*
G03*
X131180890Y-36496078I800386J4081D01*
G01*
X115071005Y-29918592D02*
X115071004Y-35743592D01*
X116871005Y-36539670D02*
X115851894Y-36539670D01*
X132971080Y-29890189D02*
G75*
G03*
X132190190Y-29094111I-800386J-4081D01*
G01*
X115071004Y-35743592D02*
G75*
G03*
X115851894Y-36539670I800386J4081D01*
G01*
X130400001Y-29875000D02*
X130400000Y-35700000D01*
X131171079Y-29094112D02*
G75*
G03*
X130400001Y-29875000I29641J-800408D01*
G01*
X117642084Y-29933781D02*
G75*
G03*
X116861194Y-29137703I-800386J-4081D01*
G01*
X115842083Y-29137703D02*
X116861194Y-29137703D01*
D11*
X158090000Y-32350000D02*
X165480000Y-32350000D01*
X165480000Y-32350000D02*
X165480000Y-20290000D01*
X165480000Y-20290000D02*
X158090000Y-20290000D01*
X158090000Y-20290000D02*
X158090000Y-32350000D01*
X82675000Y-32210000D02*
X90065000Y-32210000D01*
X90065000Y-32210000D02*
X90065000Y-20150000D01*
X90065000Y-20150000D02*
X82675000Y-20150000D01*
X82675000Y-20150000D02*
X82675000Y-32210000D01*
D10*
X132971079Y-35715189D02*
X132971079Y-29890189D01*
X116871005Y-36539669D02*
G75*
G03*
X117642083Y-35758781I-29641J800408D01*
G01*
X132200001Y-36496078D02*
X131180890Y-36496078D01*
D11*
X107023050Y-78890417D02*
X107023050Y-78944292D01*
X107076925Y-79052041D01*
X107130800Y-79105916D01*
X107238549Y-79159791D01*
X107346299Y-79159791D01*
X107427111Y-79132854D01*
X107561798Y-79052041D01*
X107642610Y-78971229D01*
X107723422Y-78836542D01*
X107750360Y-78755730D01*
X107750360Y-78647980D01*
X107696485Y-78540231D01*
X107642610Y-78486356D01*
X107534861Y-78432481D01*
X107480986Y-78432481D01*
X106861425Y-78082295D02*
X106484302Y-78459418D01*
X107211612Y-78001483D02*
X106942238Y-78540231D01*
X106592051Y-78190044D01*
X96352709Y-82273644D02*
X96244960Y-82219769D01*
X96110273Y-82085082D01*
X96083335Y-82004270D01*
X96083335Y-81950395D01*
X96110273Y-81869583D01*
X96164148Y-81815708D01*
X96244960Y-81788771D01*
X96298835Y-81788771D01*
X96379647Y-81815708D01*
X96514334Y-81896521D01*
X96595146Y-81923458D01*
X96649021Y-81923458D01*
X96729833Y-81896521D01*
X96783708Y-81842646D01*
X96810645Y-81761834D01*
X96810645Y-81707959D01*
X96783708Y-81627147D01*
X96649021Y-81492460D01*
X96541271Y-81438585D01*
X95490712Y-81357773D02*
X95490712Y-81411647D01*
X95544587Y-81519397D01*
X95598462Y-81573272D01*
X95706212Y-81627147D01*
X95813961Y-81627147D01*
X95894774Y-81600209D01*
X96029461Y-81519397D01*
X96110273Y-81438585D01*
X96191085Y-81303898D01*
X96218022Y-81223086D01*
X96218022Y-81115336D01*
X96164148Y-81007586D01*
X96110273Y-80953711D01*
X96002523Y-80899837D01*
X95948648Y-80899837D01*
X94925027Y-80899837D02*
X95194401Y-81169211D01*
X95760087Y-80603525D01*
X94736465Y-80711275D02*
X95302151Y-80145589D01*
X94413216Y-80388026D02*
X94978902Y-80307214D01*
X94978902Y-79822341D02*
X94978902Y-80468838D01*
X146593175Y-76405302D02*
X147051111Y-76324490D01*
X146916424Y-76728551D02*
X147482109Y-76162865D01*
X147266610Y-75947366D01*
X147185798Y-75920428D01*
X147131923Y-75920428D01*
X147051111Y-75947366D01*
X146970299Y-76028178D01*
X146943361Y-76108990D01*
X146943361Y-76162865D01*
X146970299Y-76243677D01*
X147185798Y-76459177D01*
X146054427Y-75866554D02*
X146377676Y-76189803D01*
X146216051Y-76028178D02*
X146781737Y-75462493D01*
X146754800Y-75597180D01*
X146754800Y-75704929D01*
X146781737Y-75785741D01*
X153476509Y-82292143D02*
X153368760Y-82238268D01*
X153234073Y-82103581D01*
X153207135Y-82022769D01*
X153207135Y-81968894D01*
X153234073Y-81888082D01*
X153287948Y-81834207D01*
X153368760Y-81807270D01*
X153422635Y-81807270D01*
X153503447Y-81834207D01*
X153638134Y-81915020D01*
X153718946Y-81941957D01*
X153772821Y-81941957D01*
X153853633Y-81915020D01*
X153907508Y-81861145D01*
X153934445Y-81780333D01*
X153934445Y-81726458D01*
X153907508Y-81645646D01*
X153772821Y-81510959D01*
X153665071Y-81457084D01*
X152614512Y-81376272D02*
X152614512Y-81430146D01*
X152668387Y-81537896D01*
X152722262Y-81591771D01*
X152830012Y-81645646D01*
X152937761Y-81645646D01*
X153018574Y-81618708D01*
X153153261Y-81537896D01*
X153234073Y-81457084D01*
X153314885Y-81322397D01*
X153341822Y-81241585D01*
X153341822Y-81133835D01*
X153287948Y-81026085D01*
X153234073Y-80972210D01*
X153126323Y-80918336D01*
X153072448Y-80918336D01*
X152048827Y-80918336D02*
X152318201Y-81187710D01*
X152883887Y-80622024D01*
X151860265Y-80729774D02*
X152425951Y-80164088D01*
X151537016Y-80406525D02*
X152102702Y-80325713D01*
X152102702Y-79840840D02*
X152102702Y-80487337D01*
X128904761Y-83717904D02*
X129285714Y-83717904D01*
X129285714Y-82917904D01*
X128638095Y-83717904D02*
X128638095Y-83184571D01*
X128638095Y-82917904D02*
X128676190Y-82956000D01*
X128638095Y-82994095D01*
X128600000Y-82956000D01*
X128638095Y-82917904D01*
X128638095Y-82994095D01*
X127914285Y-83679809D02*
X127990476Y-83717904D01*
X128142857Y-83717904D01*
X128219047Y-83679809D01*
X128257142Y-83641714D01*
X128295238Y-83565523D01*
X128295238Y-83336952D01*
X128257142Y-83260761D01*
X128219047Y-83222666D01*
X128142857Y-83184571D01*
X127990476Y-83184571D01*
X127914285Y-83222666D01*
X127266666Y-83679809D02*
X127342857Y-83717904D01*
X127495238Y-83717904D01*
X127571428Y-83679809D01*
X127609523Y-83603619D01*
X127609523Y-83298857D01*
X127571428Y-83222666D01*
X127495238Y-83184571D01*
X127342857Y-83184571D01*
X127266666Y-83222666D01*
X127228571Y-83298857D01*
X127228571Y-83375047D01*
X127609523Y-83451238D01*
X126885714Y-83184571D02*
X126885714Y-83717904D01*
X126885714Y-83260761D02*
X126847619Y-83222666D01*
X126771428Y-83184571D01*
X126657142Y-83184571D01*
X126580952Y-83222666D01*
X126542857Y-83298857D01*
X126542857Y-83717904D01*
X126200000Y-83679809D02*
X126123809Y-83717904D01*
X125971428Y-83717904D01*
X125895238Y-83679809D01*
X125857142Y-83603619D01*
X125857142Y-83565523D01*
X125895238Y-83489333D01*
X125971428Y-83451238D01*
X126085714Y-83451238D01*
X126161904Y-83413142D01*
X126200000Y-83336952D01*
X126200000Y-83298857D01*
X126161904Y-83222666D01*
X126085714Y-83184571D01*
X125971428Y-83184571D01*
X125895238Y-83222666D01*
X125209523Y-83679809D02*
X125285714Y-83717904D01*
X125438095Y-83717904D01*
X125514285Y-83679809D01*
X125552380Y-83603619D01*
X125552380Y-83298857D01*
X125514285Y-83222666D01*
X125438095Y-83184571D01*
X125285714Y-83184571D01*
X125209523Y-83222666D01*
X125171428Y-83298857D01*
X125171428Y-83375047D01*
X125552380Y-83451238D01*
X124485714Y-83717904D02*
X124485714Y-82917904D01*
X124485714Y-83679809D02*
X124561904Y-83717904D01*
X124714285Y-83717904D01*
X124790476Y-83679809D01*
X124828571Y-83641714D01*
X124866666Y-83565523D01*
X124866666Y-83336952D01*
X124828571Y-83260761D01*
X124790476Y-83222666D01*
X124714285Y-83184571D01*
X124561904Y-83184571D01*
X124485714Y-83222666D01*
X123152380Y-83184571D02*
X123152380Y-83717904D01*
X123495238Y-83184571D02*
X123495238Y-83603619D01*
X123457142Y-83679809D01*
X123380952Y-83717904D01*
X123266666Y-83717904D01*
X123190476Y-83679809D01*
X123152380Y-83641714D01*
X122771428Y-83184571D02*
X122771428Y-83717904D01*
X122771428Y-83260761D02*
X122733333Y-83222666D01*
X122657142Y-83184571D01*
X122542857Y-83184571D01*
X122466666Y-83222666D01*
X122428571Y-83298857D01*
X122428571Y-83717904D01*
X121704761Y-83717904D02*
X121704761Y-82917904D01*
X121704761Y-83679809D02*
X121780952Y-83717904D01*
X121933333Y-83717904D01*
X122009523Y-83679809D01*
X122047619Y-83641714D01*
X122085714Y-83565523D01*
X122085714Y-83336952D01*
X122047619Y-83260761D01*
X122009523Y-83222666D01*
X121933333Y-83184571D01*
X121780952Y-83184571D01*
X121704761Y-83222666D01*
X121019047Y-83679809D02*
X121095238Y-83717904D01*
X121247619Y-83717904D01*
X121323809Y-83679809D01*
X121361904Y-83603619D01*
X121361904Y-83298857D01*
X121323809Y-83222666D01*
X121247619Y-83184571D01*
X121095238Y-83184571D01*
X121019047Y-83222666D01*
X120980952Y-83298857D01*
X120980952Y-83375047D01*
X121361904Y-83451238D01*
X120638095Y-83717904D02*
X120638095Y-83184571D01*
X120638095Y-83336952D02*
X120600000Y-83260761D01*
X120561904Y-83222666D01*
X120485714Y-83184571D01*
X120409523Y-83184571D01*
X129133333Y-84929714D02*
X129171428Y-84967809D01*
X129285714Y-85005904D01*
X129361904Y-85005904D01*
X129476190Y-84967809D01*
X129552380Y-84891619D01*
X129590476Y-84815428D01*
X129628571Y-84663047D01*
X129628571Y-84548761D01*
X129590476Y-84396380D01*
X129552380Y-84320190D01*
X129476190Y-84244000D01*
X129361904Y-84205904D01*
X129285714Y-84205904D01*
X129171428Y-84244000D01*
X129133333Y-84282095D01*
X128790476Y-84586857D02*
X128523809Y-84586857D01*
X128409523Y-85005904D02*
X128790476Y-85005904D01*
X128790476Y-84205904D01*
X128409523Y-84205904D01*
X127609523Y-85005904D02*
X127876190Y-84624952D01*
X128066666Y-85005904D02*
X128066666Y-84205904D01*
X127761904Y-84205904D01*
X127685714Y-84244000D01*
X127647619Y-84282095D01*
X127609523Y-84358285D01*
X127609523Y-84472571D01*
X127647619Y-84548761D01*
X127685714Y-84586857D01*
X127761904Y-84624952D01*
X128066666Y-84624952D01*
X127266666Y-85005904D02*
X127266666Y-84205904D01*
X126809523Y-85005904D01*
X126809523Y-84205904D01*
X126428571Y-84701142D02*
X125819047Y-84701142D01*
X125285714Y-84205904D02*
X125133333Y-84205904D01*
X125057142Y-84244000D01*
X124980952Y-84320190D01*
X124942857Y-84472571D01*
X124942857Y-84739238D01*
X124980952Y-84891619D01*
X125057142Y-84967809D01*
X125133333Y-85005904D01*
X125285714Y-85005904D01*
X125361904Y-84967809D01*
X125438095Y-84891619D01*
X125476190Y-84739238D01*
X125476190Y-84472571D01*
X125438095Y-84320190D01*
X125361904Y-84244000D01*
X125285714Y-84205904D01*
X124600000Y-85005904D02*
X124600000Y-84205904D01*
X124600000Y-84586857D02*
X124142857Y-84586857D01*
X124142857Y-85005904D02*
X124142857Y-84205904D01*
X123380952Y-85005904D02*
X123761904Y-85005904D01*
X123761904Y-84205904D01*
X123114285Y-84701142D02*
X122504761Y-84701142D01*
X122200000Y-84205904D02*
X122009523Y-85005904D01*
X121857142Y-84434476D01*
X121704761Y-85005904D01*
X121514285Y-84205904D01*
X120676190Y-84472571D02*
X120485714Y-85005904D01*
X120295238Y-84472571D01*
X120028571Y-84282095D02*
X119990476Y-84244000D01*
X119914285Y-84205904D01*
X119723809Y-84205904D01*
X119647619Y-84244000D01*
X119609523Y-84282095D01*
X119571428Y-84358285D01*
X119571428Y-84434476D01*
X119609523Y-84548761D01*
X120066666Y-85005904D01*
X119571428Y-85005904D01*
X156247810Y-71610295D02*
X156133524Y-71648390D01*
X155943048Y-71648390D01*
X155866858Y-71610295D01*
X155828763Y-71572200D01*
X155790667Y-71496009D01*
X155790667Y-71419819D01*
X155828763Y-71343628D01*
X155866858Y-71305533D01*
X155943048Y-71267438D01*
X156095429Y-71229343D01*
X156171620Y-71191247D01*
X156209715Y-71153152D01*
X156247810Y-71076962D01*
X156247810Y-71000771D01*
X156209715Y-70924581D01*
X156171620Y-70886486D01*
X156095429Y-70848390D01*
X155904953Y-70848390D01*
X155790667Y-70886486D01*
X155447810Y-71648390D02*
X155447810Y-70848390D01*
X155143048Y-70848390D01*
X155066858Y-70886486D01*
X155028763Y-70924581D01*
X154990667Y-71000771D01*
X154990667Y-71115057D01*
X155028763Y-71191247D01*
X155066858Y-71229343D01*
X155143048Y-71267438D01*
X155447810Y-71267438D01*
X154647810Y-71648390D02*
X154647810Y-70848390D01*
X162714285Y-25050000D02*
X162790476Y-25011904D01*
X162904762Y-25011904D01*
X163019047Y-25050000D01*
X163095238Y-25126190D01*
X163133333Y-25202380D01*
X163171428Y-25354761D01*
X163171428Y-25469047D01*
X163133333Y-25621428D01*
X163095238Y-25697619D01*
X163019047Y-25773809D01*
X162904762Y-25811904D01*
X162828571Y-25811904D01*
X162714285Y-25773809D01*
X162676190Y-25735714D01*
X162676190Y-25469047D01*
X162828571Y-25469047D01*
X162333333Y-25811904D02*
X162333333Y-25011904D01*
X161876190Y-25811904D01*
X161876190Y-25011904D01*
X161495238Y-25811904D02*
X161495238Y-25011904D01*
X161304762Y-25011904D01*
X161190476Y-25050000D01*
X161114285Y-25126190D01*
X161076190Y-25202380D01*
X161038095Y-25354761D01*
X161038095Y-25469047D01*
X161076190Y-25621428D01*
X161114285Y-25697619D01*
X161190476Y-25773809D01*
X161304762Y-25811904D01*
X161495238Y-25811904D01*
X112207142Y-42223810D02*
X112169047Y-42109524D01*
X112130952Y-42071429D01*
X112054761Y-42033334D01*
X111940476Y-42033334D01*
X111864285Y-42071429D01*
X111826190Y-42109524D01*
X111788095Y-42185715D01*
X111788095Y-42490477D01*
X112588095Y-42490477D01*
X112588095Y-42223810D01*
X112550000Y-42147619D01*
X112511904Y-42109524D01*
X112435714Y-42071429D01*
X112359523Y-42071429D01*
X112283333Y-42109524D01*
X112245238Y-42147619D01*
X112207142Y-42223810D01*
X112207142Y-42490477D01*
X111788095Y-41309524D02*
X111788095Y-41690477D01*
X112588095Y-41690477D01*
X112016666Y-41080953D02*
X112016666Y-40700000D01*
X111788095Y-41157143D02*
X112588095Y-40890477D01*
X111788095Y-40623810D01*
X111864285Y-39900000D02*
X111826190Y-39938096D01*
X111788095Y-40052381D01*
X111788095Y-40128572D01*
X111826190Y-40242857D01*
X111902380Y-40319048D01*
X111978571Y-40357143D01*
X112130952Y-40395238D01*
X112245238Y-40395238D01*
X112397619Y-40357143D01*
X112473809Y-40319048D01*
X112550000Y-40242857D01*
X112588095Y-40128572D01*
X112588095Y-40052381D01*
X112550000Y-39938096D01*
X112511904Y-39900000D01*
X111788095Y-39557143D02*
X112588095Y-39557143D01*
X111788095Y-39100000D02*
X112245238Y-39442857D01*
X112588095Y-39100000D02*
X112130952Y-39557143D01*
X111788095Y-38757143D02*
X112588095Y-38757143D01*
X112588095Y-38452381D01*
X112550000Y-38376191D01*
X112511904Y-38338096D01*
X112435714Y-38300000D01*
X112321428Y-38300000D01*
X112245238Y-38338096D01*
X112207142Y-38376191D01*
X112169047Y-38452381D01*
X112169047Y-38757143D01*
X111788095Y-37957143D02*
X112588095Y-37957143D01*
X111788095Y-37195238D02*
X111788095Y-37576191D01*
X112588095Y-37576191D01*
X111788095Y-36547619D02*
X111788095Y-36928572D01*
X112588095Y-36928572D01*
X111788095Y-35671429D02*
X112588095Y-35671429D01*
X112207142Y-35671429D02*
X112207142Y-35214286D01*
X111788095Y-35214286D02*
X112588095Y-35214286D01*
X112588095Y-34680953D02*
X112588095Y-34528572D01*
X112550000Y-34452381D01*
X112473809Y-34376191D01*
X112321428Y-34338096D01*
X112054761Y-34338096D01*
X111902380Y-34376191D01*
X111826190Y-34452381D01*
X111788095Y-34528572D01*
X111788095Y-34680953D01*
X111826190Y-34757143D01*
X111902380Y-34833334D01*
X112054761Y-34871429D01*
X112321428Y-34871429D01*
X112473809Y-34833334D01*
X112550000Y-34757143D01*
X112588095Y-34680953D01*
X111788095Y-33614286D02*
X111788095Y-33995238D01*
X112588095Y-33995238D01*
X111788095Y-33347619D02*
X112588095Y-33347619D01*
X112588095Y-33157143D01*
X112550000Y-33042857D01*
X112473809Y-32966667D01*
X112397619Y-32928572D01*
X112245238Y-32890477D01*
X112130952Y-32890477D01*
X111978571Y-32928572D01*
X111902380Y-32966667D01*
X111826190Y-33042857D01*
X111788095Y-33157143D01*
X111788095Y-33347619D01*
X112207142Y-32547619D02*
X112207142Y-32280953D01*
X111788095Y-32166667D02*
X111788095Y-32547619D01*
X112588095Y-32547619D01*
X112588095Y-32166667D01*
X111788095Y-31366667D02*
X112169047Y-31633334D01*
X111788095Y-31823810D02*
X112588095Y-31823810D01*
X112588095Y-31519048D01*
X112550000Y-31442857D01*
X112511904Y-31404762D01*
X112435714Y-31366667D01*
X112321428Y-31366667D01*
X112245238Y-31404762D01*
X112207142Y-31442857D01*
X112169047Y-31519048D01*
X112169047Y-31823810D01*
X111788095Y-29995238D02*
X111788095Y-30452381D01*
X111788095Y-30223810D02*
X112588095Y-30223810D01*
X112473809Y-30300000D01*
X112397619Y-30376191D01*
X112359523Y-30452381D01*
X111864285Y-29652381D02*
X111826190Y-29614286D01*
X111788095Y-29652381D01*
X111826190Y-29690477D01*
X111864285Y-29652381D01*
X111788095Y-29652381D01*
X111788095Y-28852381D02*
X111788095Y-29309524D01*
X111788095Y-29080953D02*
X112588095Y-29080953D01*
X112473809Y-29157143D01*
X112397619Y-29233334D01*
X112359523Y-29309524D01*
X163540830Y-42221578D02*
X163921782Y-42488245D01*
X163540830Y-42678721D02*
X164340830Y-42678721D01*
X164340830Y-42373959D01*
X164302735Y-42297769D01*
X164264639Y-42259674D01*
X164188449Y-42221578D01*
X164074163Y-42221578D01*
X163997973Y-42259674D01*
X163959877Y-42297769D01*
X163921782Y-42373959D01*
X163921782Y-42678721D01*
X164302735Y-41459674D02*
X164340830Y-41535864D01*
X164340830Y-41650150D01*
X164302735Y-41764436D01*
X164226544Y-41840626D01*
X164150354Y-41878721D01*
X163997973Y-41916817D01*
X163883687Y-41916817D01*
X163731306Y-41878721D01*
X163655115Y-41840626D01*
X163578925Y-41764436D01*
X163540830Y-41650150D01*
X163540830Y-41573959D01*
X163578925Y-41459674D01*
X163617020Y-41421578D01*
X163883687Y-41421578D01*
X163883687Y-41573959D01*
X163959877Y-40812055D02*
X163921782Y-40697769D01*
X163883687Y-40659674D01*
X163807496Y-40621578D01*
X163693211Y-40621578D01*
X163617020Y-40659674D01*
X163578925Y-40697769D01*
X163540830Y-40773959D01*
X163540830Y-41078721D01*
X164340830Y-41078721D01*
X164340830Y-40812055D01*
X164302735Y-40735864D01*
X164264639Y-40697769D01*
X164188449Y-40659674D01*
X164112258Y-40659674D01*
X164036068Y-40697769D01*
X163997973Y-40735864D01*
X163959877Y-40812055D01*
X163959877Y-41078721D01*
X107023050Y-81430417D02*
X107023050Y-81484292D01*
X107076925Y-81592041D01*
X107130800Y-81645916D01*
X107238549Y-81699791D01*
X107346299Y-81699791D01*
X107427111Y-81672854D01*
X107561798Y-81592041D01*
X107642610Y-81511229D01*
X107723422Y-81376542D01*
X107750360Y-81295730D01*
X107750360Y-81187980D01*
X107696485Y-81080231D01*
X107642610Y-81026356D01*
X107534861Y-80972481D01*
X107480986Y-80972481D01*
X107023050Y-80406796D02*
X107292424Y-80676170D01*
X107049987Y-80972481D01*
X107049987Y-80918606D01*
X107023050Y-80837794D01*
X106888363Y-80703107D01*
X106807551Y-80676170D01*
X106753676Y-80676170D01*
X106672864Y-80703107D01*
X106538177Y-80837794D01*
X106511239Y-80918606D01*
X106511239Y-80972481D01*
X106538177Y-81053293D01*
X106672864Y-81187980D01*
X106753676Y-81214918D01*
X106807551Y-81214918D01*
X83583830Y-41915577D02*
X83964782Y-42182244D01*
X83583830Y-42372720D02*
X84383830Y-42372720D01*
X84383830Y-42067958D01*
X84345735Y-41991768D01*
X84307639Y-41953673D01*
X84231449Y-41915577D01*
X84117163Y-41915577D01*
X84040973Y-41953673D01*
X84002877Y-41991768D01*
X83964782Y-42067958D01*
X83964782Y-42372720D01*
X84345735Y-41153673D02*
X84383830Y-41229863D01*
X84383830Y-41344149D01*
X84345735Y-41458435D01*
X84269544Y-41534625D01*
X84193354Y-41572720D01*
X84040973Y-41610816D01*
X83926687Y-41610816D01*
X83774306Y-41572720D01*
X83698115Y-41534625D01*
X83621925Y-41458435D01*
X83583830Y-41344149D01*
X83583830Y-41267958D01*
X83621925Y-41153673D01*
X83660020Y-41115577D01*
X83926687Y-41115577D01*
X83926687Y-41267958D01*
X84002877Y-40506054D02*
X83964782Y-40391768D01*
X83926687Y-40353673D01*
X83850496Y-40315577D01*
X83736211Y-40315577D01*
X83660020Y-40353673D01*
X83621925Y-40391768D01*
X83583830Y-40467958D01*
X83583830Y-40772720D01*
X84383830Y-40772720D01*
X84383830Y-40506054D01*
X84345735Y-40429863D01*
X84307639Y-40391768D01*
X84231449Y-40353673D01*
X84155258Y-40353673D01*
X84079068Y-40391768D01*
X84040973Y-40429863D01*
X84002877Y-40506054D01*
X84002877Y-40772720D01*
X162752380Y-29111904D02*
X163133333Y-29111904D01*
X163171428Y-29492857D01*
X163133333Y-29454761D01*
X163057142Y-29416666D01*
X162866666Y-29416666D01*
X162790476Y-29454761D01*
X162752380Y-29492857D01*
X162714285Y-29569047D01*
X162714285Y-29759523D01*
X162752380Y-29835714D01*
X162790476Y-29873809D01*
X162866666Y-29911904D01*
X163057142Y-29911904D01*
X163133333Y-29873809D01*
X163171428Y-29835714D01*
X162485714Y-29111904D02*
X162219047Y-29911904D01*
X161952380Y-29111904D01*
X87309523Y-29011904D02*
X87690476Y-29011904D01*
X87728571Y-29392857D01*
X87690476Y-29354761D01*
X87614285Y-29316666D01*
X87423809Y-29316666D01*
X87347619Y-29354761D01*
X87309523Y-29392857D01*
X87271428Y-29469047D01*
X87271428Y-29659523D01*
X87309523Y-29735714D01*
X87347619Y-29773809D01*
X87423809Y-29811904D01*
X87614285Y-29811904D01*
X87690476Y-29773809D01*
X87728571Y-29735714D01*
X87042857Y-29011904D02*
X86776190Y-29811904D01*
X86509523Y-29011904D01*
X93794034Y-71605323D02*
X93679748Y-71643418D01*
X93489272Y-71643418D01*
X93413082Y-71605323D01*
X93374987Y-71567228D01*
X93336891Y-71491037D01*
X93336891Y-71414847D01*
X93374987Y-71338656D01*
X93413082Y-71300561D01*
X93489272Y-71262466D01*
X93641653Y-71224371D01*
X93717844Y-71186275D01*
X93755939Y-71148180D01*
X93794034Y-71071990D01*
X93794034Y-70995799D01*
X93755939Y-70919609D01*
X93717844Y-70881514D01*
X93641653Y-70843418D01*
X93451177Y-70843418D01*
X93336891Y-70881514D01*
X92994034Y-71643418D02*
X92994034Y-70843418D01*
X92689272Y-70843418D01*
X92613082Y-70881514D01*
X92574987Y-70919609D01*
X92536891Y-70995799D01*
X92536891Y-71110085D01*
X92574987Y-71186275D01*
X92613082Y-71224371D01*
X92689272Y-71262466D01*
X92994034Y-71262466D01*
X92194034Y-71643418D02*
X92194034Y-70843418D01*
X140982850Y-83924711D02*
X140982850Y-83978586D01*
X141036725Y-84086335D01*
X141090600Y-84140210D01*
X141198349Y-84194085D01*
X141306099Y-84194085D01*
X141386911Y-84167148D01*
X141521598Y-84086335D01*
X141602410Y-84005523D01*
X141683222Y-83870836D01*
X141710160Y-83790024D01*
X141710160Y-83682274D01*
X141656285Y-83574525D01*
X141602410Y-83520650D01*
X141494661Y-83466775D01*
X141440786Y-83466775D01*
X141009787Y-82928027D02*
X141117537Y-83035777D01*
X141144474Y-83116589D01*
X141144474Y-83170464D01*
X141117537Y-83305151D01*
X141036725Y-83439838D01*
X140821225Y-83655337D01*
X140740413Y-83682274D01*
X140686538Y-83682274D01*
X140605726Y-83655337D01*
X140497977Y-83547587D01*
X140471039Y-83466775D01*
X140471039Y-83412900D01*
X140497977Y-83332088D01*
X140632664Y-83197401D01*
X140713476Y-83170464D01*
X140767351Y-83170464D01*
X140848163Y-83197401D01*
X140955912Y-83305151D01*
X140982850Y-83385963D01*
X140982850Y-83439838D01*
X140955912Y-83520650D01*
X163608619Y-33597809D02*
X163494333Y-33635904D01*
X163303857Y-33635904D01*
X163227666Y-33597809D01*
X163189571Y-33559714D01*
X163151476Y-33483523D01*
X163151476Y-33407333D01*
X163189571Y-33331142D01*
X163227666Y-33293047D01*
X163303857Y-33254952D01*
X163456238Y-33216857D01*
X163532428Y-33178761D01*
X163570523Y-33140666D01*
X163608619Y-33064476D01*
X163608619Y-32988285D01*
X163570523Y-32912095D01*
X163532428Y-32874000D01*
X163456238Y-32835904D01*
X163265761Y-32835904D01*
X163151476Y-32874000D01*
X162808619Y-33216857D02*
X162541952Y-33216857D01*
X162427666Y-33635904D02*
X162808619Y-33635904D01*
X162808619Y-32835904D01*
X162427666Y-32835904D01*
X161627666Y-33635904D02*
X161894333Y-33254952D01*
X162084809Y-33635904D02*
X162084809Y-32835904D01*
X161780047Y-32835904D01*
X161703857Y-32874000D01*
X161665761Y-32912095D01*
X161627666Y-32988285D01*
X161627666Y-33102571D01*
X161665761Y-33178761D01*
X161703857Y-33216857D01*
X161780047Y-33254952D01*
X162084809Y-33254952D01*
X161284809Y-33635904D02*
X161284809Y-32835904D01*
X160941952Y-33407333D02*
X160561000Y-33407333D01*
X161018142Y-33635904D02*
X160751476Y-32835904D01*
X160484809Y-33635904D01*
X159837190Y-33635904D02*
X160218142Y-33635904D01*
X160218142Y-32835904D01*
X91088095Y-82994104D02*
X91088095Y-82536961D01*
X90288095Y-82765533D02*
X91088095Y-82765533D01*
X90288095Y-81813152D02*
X90669047Y-82079819D01*
X90288095Y-82270295D02*
X91088095Y-82270295D01*
X91088095Y-81965533D01*
X91050000Y-81889342D01*
X91011904Y-81851247D01*
X90935714Y-81813152D01*
X90821428Y-81813152D01*
X90745238Y-81851247D01*
X90707142Y-81889342D01*
X90669047Y-81965533D01*
X90669047Y-82270295D01*
X90516666Y-81508390D02*
X90516666Y-81127438D01*
X90288095Y-81584580D02*
X91088095Y-81317914D01*
X90288095Y-81051247D01*
X90364285Y-80327438D02*
X90326190Y-80365533D01*
X90288095Y-80479819D01*
X90288095Y-80556009D01*
X90326190Y-80670295D01*
X90402380Y-80746485D01*
X90478571Y-80784580D01*
X90630952Y-80822676D01*
X90745238Y-80822676D01*
X90897619Y-80784580D01*
X90973809Y-80746485D01*
X91050000Y-80670295D01*
X91088095Y-80556009D01*
X91088095Y-80479819D01*
X91050000Y-80365533D01*
X91011904Y-80327438D01*
X90288095Y-79984580D02*
X91088095Y-79984580D01*
X90288095Y-79527438D02*
X90745238Y-79870295D01*
X91088095Y-79527438D02*
X90630952Y-79984580D01*
X90707142Y-78917914D02*
X90669047Y-78803628D01*
X90630952Y-78765533D01*
X90554761Y-78727438D01*
X90440476Y-78727438D01*
X90364285Y-78765533D01*
X90326190Y-78803628D01*
X90288095Y-78879819D01*
X90288095Y-79184580D01*
X91088095Y-79184580D01*
X91088095Y-78917914D01*
X91050000Y-78841723D01*
X91011904Y-78803628D01*
X90935714Y-78765533D01*
X90859523Y-78765533D01*
X90783333Y-78803628D01*
X90745238Y-78841723D01*
X90707142Y-78917914D01*
X90707142Y-79184580D01*
X90516666Y-78422676D02*
X90516666Y-78041723D01*
X90288095Y-78498866D02*
X91088095Y-78232200D01*
X90288095Y-77965533D01*
X90288095Y-77317914D02*
X90288095Y-77698866D01*
X91088095Y-77698866D01*
X90288095Y-76670295D02*
X90288095Y-77051247D01*
X91088095Y-77051247D01*
X96233028Y-84773238D02*
X96798714Y-84207553D01*
X96206091Y-84423052D01*
X96421590Y-83830429D01*
X95855905Y-84396114D01*
X95586531Y-84126740D02*
X96152216Y-83561055D01*
X95371032Y-83857366D02*
X95263282Y-83803492D01*
X95128595Y-83668805D01*
X95101658Y-83587992D01*
X95101658Y-83534118D01*
X95128595Y-83453305D01*
X95182470Y-83399431D01*
X95263282Y-83372493D01*
X95317157Y-83372493D01*
X95397969Y-83399431D01*
X95532656Y-83480243D01*
X95613468Y-83507180D01*
X95667343Y-83507180D01*
X95748155Y-83480243D01*
X95802030Y-83426368D01*
X95828967Y-83345556D01*
X95828967Y-83291681D01*
X95802030Y-83210869D01*
X95667343Y-83076182D01*
X95559593Y-83022307D01*
X95236345Y-82645183D02*
X95128595Y-82537434D01*
X95047783Y-82510496D01*
X94940033Y-82510496D01*
X94805346Y-82591309D01*
X94616784Y-82779870D01*
X94535972Y-82914557D01*
X94535972Y-83022307D01*
X94562910Y-83103119D01*
X94670659Y-83210869D01*
X94751471Y-83237806D01*
X94859221Y-83237806D01*
X94993908Y-83156994D01*
X95182470Y-82968432D01*
X95263282Y-82833745D01*
X95263282Y-82725996D01*
X95236345Y-82645183D01*
X140903575Y-86512644D02*
X141361511Y-86431832D01*
X141226824Y-86835893D02*
X141792509Y-86270207D01*
X141577010Y-86054708D01*
X141496198Y-86027770D01*
X141442323Y-86027770D01*
X141361511Y-86054708D01*
X141280699Y-86135520D01*
X141253761Y-86216332D01*
X141253761Y-86270207D01*
X141280699Y-86351019D01*
X141496198Y-86566519D01*
X140957450Y-85435148D02*
X141226824Y-85704522D01*
X140984387Y-86000833D01*
X140984387Y-85946958D01*
X140957450Y-85866146D01*
X140822763Y-85731459D01*
X140741951Y-85704522D01*
X140688076Y-85704522D01*
X140607264Y-85731459D01*
X140472577Y-85866146D01*
X140445639Y-85946958D01*
X140445639Y-86000833D01*
X140472577Y-86081645D01*
X140607264Y-86216332D01*
X140688076Y-86243270D01*
X140741951Y-86243270D01*
X150786810Y-71610295D02*
X150672524Y-71648390D01*
X150482048Y-71648390D01*
X150405858Y-71610295D01*
X150367763Y-71572200D01*
X150329667Y-71496009D01*
X150329667Y-71419819D01*
X150367763Y-71343628D01*
X150405858Y-71305533D01*
X150482048Y-71267438D01*
X150634429Y-71229343D01*
X150710620Y-71191247D01*
X150748715Y-71153152D01*
X150786810Y-71076962D01*
X150786810Y-71000771D01*
X150748715Y-70924581D01*
X150710620Y-70886486D01*
X150634429Y-70848390D01*
X150443953Y-70848390D01*
X150329667Y-70886486D01*
X149986810Y-71648390D02*
X149986810Y-70848390D01*
X149682048Y-70848390D01*
X149605858Y-70886486D01*
X149567763Y-70924581D01*
X149529667Y-71000771D01*
X149529667Y-71115057D01*
X149567763Y-71191247D01*
X149605858Y-71229343D01*
X149682048Y-71267438D01*
X149986810Y-71267438D01*
X149186810Y-71648390D02*
X149186810Y-70848390D01*
X159791333Y-44430904D02*
X159791333Y-43630904D01*
X159600857Y-43630904D01*
X159486571Y-43669000D01*
X159410381Y-43745190D01*
X159372286Y-43821380D01*
X159334190Y-43973761D01*
X159334190Y-44088047D01*
X159372286Y-44240428D01*
X159410381Y-44316619D01*
X159486571Y-44392809D01*
X159600857Y-44430904D01*
X159791333Y-44430904D01*
X158991333Y-44430904D02*
X158991333Y-43630904D01*
X158610381Y-44430904D02*
X158610381Y-43630904D01*
X158153238Y-44430904D01*
X158153238Y-43630904D01*
X143471477Y-71648390D02*
X143471477Y-70848390D01*
X143204810Y-71419819D01*
X142938143Y-70848390D01*
X142938143Y-71648390D01*
X142595286Y-71419819D02*
X142214334Y-71419819D01*
X142671477Y-71648390D02*
X142404810Y-70848390D01*
X142138143Y-71648390D01*
X141985763Y-70848390D02*
X141528620Y-70848390D01*
X141757191Y-71648390D02*
X141757191Y-70848390D01*
X140804810Y-71648390D02*
X141071477Y-71267438D01*
X141261953Y-71648390D02*
X141261953Y-70848390D01*
X140957191Y-70848390D01*
X140881001Y-70886486D01*
X140842905Y-70924581D01*
X140804810Y-71000771D01*
X140804810Y-71115057D01*
X140842905Y-71191247D01*
X140881001Y-71229343D01*
X140957191Y-71267438D01*
X141261953Y-71267438D01*
X140461953Y-71648390D02*
X140461953Y-70848390D01*
X140157191Y-70848390D02*
X139623858Y-71648390D01*
X139623858Y-70848390D02*
X140157191Y-71648390D01*
X87728571Y-22773809D02*
X87614285Y-22811904D01*
X87423809Y-22811904D01*
X87347619Y-22773809D01*
X87309523Y-22735714D01*
X87271428Y-22659523D01*
X87271428Y-22583333D01*
X87309523Y-22507142D01*
X87347619Y-22469047D01*
X87423809Y-22430952D01*
X87576190Y-22392857D01*
X87652380Y-22354761D01*
X87690476Y-22316666D01*
X87728571Y-22240476D01*
X87728571Y-22164285D01*
X87690476Y-22088095D01*
X87652380Y-22050000D01*
X87576190Y-22011904D01*
X87385714Y-22011904D01*
X87271428Y-22050000D01*
X140928975Y-73818586D02*
X141386911Y-73737774D01*
X141252224Y-74141835D02*
X141817909Y-73576149D01*
X141602410Y-73360650D01*
X141521598Y-73333712D01*
X141467723Y-73333712D01*
X141386911Y-73360650D01*
X141306099Y-73441462D01*
X141279161Y-73522274D01*
X141279161Y-73576149D01*
X141306099Y-73656961D01*
X141521598Y-73872461D01*
X140821225Y-72956589D02*
X140444102Y-73333712D01*
X141171412Y-72875777D02*
X140902038Y-73414525D01*
X140551851Y-73064338D01*
X106969175Y-73864292D02*
X107427111Y-73783480D01*
X107292424Y-74187541D02*
X107858109Y-73621855D01*
X107642610Y-73406356D01*
X107561798Y-73379418D01*
X107507923Y-73379418D01*
X107427111Y-73406356D01*
X107346299Y-73487168D01*
X107319361Y-73567980D01*
X107319361Y-73621855D01*
X107346299Y-73702667D01*
X107561798Y-73918167D01*
X106861425Y-73002295D02*
X106484302Y-73379418D01*
X107211612Y-72921483D02*
X106942238Y-73460231D01*
X106592051Y-73110044D01*
X159372285Y-41129000D02*
X159448476Y-41090904D01*
X159562762Y-41090904D01*
X159677047Y-41129000D01*
X159753238Y-41205190D01*
X159791333Y-41281380D01*
X159829428Y-41433761D01*
X159829428Y-41548047D01*
X159791333Y-41700428D01*
X159753238Y-41776619D01*
X159677047Y-41852809D01*
X159562762Y-41890904D01*
X159486571Y-41890904D01*
X159372285Y-41852809D01*
X159334190Y-41814714D01*
X159334190Y-41548047D01*
X159486571Y-41548047D01*
X158991333Y-41890904D02*
X158991333Y-41090904D01*
X158534190Y-41890904D01*
X158534190Y-41090904D01*
X158153238Y-41890904D02*
X158153238Y-41090904D01*
X157962762Y-41090904D01*
X157848476Y-41129000D01*
X157772285Y-41205190D01*
X157734190Y-41281380D01*
X157696095Y-41433761D01*
X157696095Y-41548047D01*
X157734190Y-41700428D01*
X157772285Y-41776619D01*
X157848476Y-41852809D01*
X157962762Y-41890904D01*
X158153238Y-41890904D01*
X158172095Y-83006313D02*
X158172095Y-82549170D01*
X157372095Y-82777742D02*
X158172095Y-82777742D01*
X157372095Y-81825361D02*
X157753047Y-82092028D01*
X157372095Y-82282504D02*
X158172095Y-82282504D01*
X158172095Y-81977742D01*
X158134000Y-81901551D01*
X158095904Y-81863456D01*
X158019714Y-81825361D01*
X157905428Y-81825361D01*
X157829238Y-81863456D01*
X157791142Y-81901551D01*
X157753047Y-81977742D01*
X157753047Y-82282504D01*
X157600666Y-81520599D02*
X157600666Y-81139647D01*
X157372095Y-81596789D02*
X158172095Y-81330123D01*
X157372095Y-81063456D01*
X157448285Y-80339647D02*
X157410190Y-80377742D01*
X157372095Y-80492028D01*
X157372095Y-80568218D01*
X157410190Y-80682504D01*
X157486380Y-80758694D01*
X157562571Y-80796789D01*
X157714952Y-80834885D01*
X157829238Y-80834885D01*
X157981619Y-80796789D01*
X158057809Y-80758694D01*
X158134000Y-80682504D01*
X158172095Y-80568218D01*
X158172095Y-80492028D01*
X158134000Y-80377742D01*
X158095904Y-80339647D01*
X157372095Y-79996789D02*
X158172095Y-79996789D01*
X157372095Y-79539647D02*
X157829238Y-79882504D01*
X158172095Y-79539647D02*
X157714952Y-79996789D01*
X157791142Y-78930123D02*
X157753047Y-78815837D01*
X157714952Y-78777742D01*
X157638761Y-78739647D01*
X157524476Y-78739647D01*
X157448285Y-78777742D01*
X157410190Y-78815837D01*
X157372095Y-78892028D01*
X157372095Y-79196789D01*
X158172095Y-79196789D01*
X158172095Y-78930123D01*
X158134000Y-78853932D01*
X158095904Y-78815837D01*
X158019714Y-78777742D01*
X157943523Y-78777742D01*
X157867333Y-78815837D01*
X157829238Y-78853932D01*
X157791142Y-78930123D01*
X157791142Y-79196789D01*
X157600666Y-78434885D02*
X157600666Y-78053932D01*
X157372095Y-78511075D02*
X158172095Y-78244409D01*
X157372095Y-77977742D01*
X157372095Y-77330123D02*
X157372095Y-77711075D01*
X158172095Y-77711075D01*
X157372095Y-76682504D02*
X157372095Y-77063456D01*
X158172095Y-77063456D01*
X96308428Y-79693238D02*
X96874114Y-79127553D01*
X96281491Y-79343052D01*
X96496990Y-78750429D01*
X95931305Y-79316114D01*
X96119867Y-78373305D02*
X96012117Y-78265556D01*
X95931305Y-78238618D01*
X95823555Y-78238618D01*
X95688868Y-78319431D01*
X95500306Y-78507992D01*
X95419494Y-78642679D01*
X95419494Y-78750429D01*
X95446432Y-78831241D01*
X95554181Y-78938991D01*
X95634993Y-78965928D01*
X95742743Y-78965928D01*
X95877430Y-78885116D01*
X96065992Y-78696554D01*
X96146804Y-78561867D01*
X96146804Y-78454118D01*
X96119867Y-78373305D01*
X95123183Y-78454118D02*
X95015433Y-78400243D01*
X94880746Y-78265556D01*
X94853809Y-78184744D01*
X94853809Y-78130869D01*
X94880746Y-78050057D01*
X94934621Y-77996182D01*
X95015433Y-77969244D01*
X95069308Y-77969244D01*
X95150120Y-77996182D01*
X95284807Y-78076994D01*
X95365619Y-78103931D01*
X95419494Y-78103931D01*
X95500306Y-78076994D01*
X95554181Y-78023119D01*
X95581119Y-77942307D01*
X95581119Y-77888432D01*
X95554181Y-77807620D01*
X95419494Y-77672933D01*
X95311745Y-77619058D01*
X94530560Y-77915370D02*
X95096245Y-77349684D01*
X106969175Y-76404292D02*
X107427111Y-76323480D01*
X107292424Y-76727541D02*
X107858109Y-76161855D01*
X107642610Y-75946356D01*
X107561798Y-75919418D01*
X107507923Y-75919418D01*
X107427111Y-75946356D01*
X107346299Y-76027168D01*
X107319361Y-76107980D01*
X107319361Y-76161855D01*
X107346299Y-76242667D01*
X107561798Y-76458167D01*
X107346299Y-75650044D02*
X106996112Y-75299858D01*
X106969175Y-75703919D01*
X106888363Y-75623107D01*
X106807551Y-75596170D01*
X106753676Y-75596170D01*
X106672864Y-75623107D01*
X106538177Y-75757794D01*
X106511239Y-75838606D01*
X106511239Y-75892481D01*
X106538177Y-75973293D01*
X106699801Y-76134918D01*
X106780613Y-76161855D01*
X106834488Y-76161855D01*
X146647050Y-73811427D02*
X146647050Y-73865302D01*
X146700925Y-73973051D01*
X146754800Y-74026926D01*
X146862549Y-74080801D01*
X146970299Y-74080801D01*
X147051111Y-74053864D01*
X147185798Y-73973051D01*
X147266610Y-73892239D01*
X147347422Y-73757552D01*
X147374360Y-73676740D01*
X147374360Y-73568990D01*
X147320485Y-73461241D01*
X147266610Y-73407366D01*
X147158861Y-73353491D01*
X147104986Y-73353491D01*
X146970299Y-73111054D02*
X146620112Y-72760868D01*
X146593175Y-73164929D01*
X146512363Y-73084117D01*
X146431551Y-73057180D01*
X146377676Y-73057180D01*
X146296864Y-73084117D01*
X146162177Y-73218804D01*
X146135239Y-73299616D01*
X146135239Y-73353491D01*
X146162177Y-73434303D01*
X146323801Y-73595928D01*
X146404613Y-73622865D01*
X146458488Y-73622865D01*
X106943775Y-86558350D02*
X107401711Y-86477538D01*
X107267024Y-86881599D02*
X107832709Y-86315913D01*
X107617210Y-86100414D01*
X107536398Y-86073476D01*
X107482523Y-86073476D01*
X107401711Y-86100414D01*
X107320899Y-86181226D01*
X107293961Y-86262038D01*
X107293961Y-86315913D01*
X107320899Y-86396725D01*
X107536398Y-86612225D01*
X106997650Y-85480854D02*
X107267024Y-85750228D01*
X107024587Y-86046539D01*
X107024587Y-85992664D01*
X106997650Y-85911852D01*
X106862963Y-85777165D01*
X106782151Y-85750228D01*
X106728276Y-85750228D01*
X106647464Y-85777165D01*
X106512777Y-85911852D01*
X106485839Y-85992664D01*
X106485839Y-86046539D01*
X106512777Y-86127351D01*
X106647464Y-86262038D01*
X106728276Y-86288976D01*
X106782151Y-86288976D01*
X153356828Y-84791737D02*
X153922514Y-84226052D01*
X153329891Y-84441551D01*
X153545390Y-83848928D01*
X152979705Y-84414613D01*
X152710331Y-84145239D02*
X153276016Y-83579554D01*
X152494832Y-83875865D02*
X152387082Y-83821991D01*
X152252395Y-83687304D01*
X152225458Y-83606491D01*
X152225458Y-83552617D01*
X152252395Y-83471804D01*
X152306270Y-83417930D01*
X152387082Y-83390992D01*
X152440957Y-83390992D01*
X152521769Y-83417930D01*
X152656456Y-83498742D01*
X152737268Y-83525679D01*
X152791143Y-83525679D01*
X152871955Y-83498742D01*
X152925830Y-83444867D01*
X152952767Y-83364055D01*
X152952767Y-83310180D01*
X152925830Y-83229368D01*
X152791143Y-83094681D01*
X152683393Y-83040806D01*
X152360145Y-82663682D02*
X152252395Y-82555933D01*
X152171583Y-82528995D01*
X152063833Y-82528995D01*
X151929146Y-82609808D01*
X151740584Y-82798369D01*
X151659772Y-82933056D01*
X151659772Y-83040806D01*
X151686710Y-83121618D01*
X151794459Y-83229368D01*
X151875271Y-83256305D01*
X151983021Y-83256305D01*
X152117708Y-83175493D01*
X152306270Y-82986931D01*
X152387082Y-82852244D01*
X152387082Y-82744495D01*
X152360145Y-82663682D01*
X159410380Y-38550904D02*
X159791333Y-38550904D01*
X159829428Y-38931857D01*
X159791333Y-38893761D01*
X159715142Y-38855666D01*
X159524666Y-38855666D01*
X159448476Y-38893761D01*
X159410380Y-38931857D01*
X159372285Y-39008047D01*
X159372285Y-39198523D01*
X159410380Y-39274714D01*
X159448476Y-39312809D01*
X159524666Y-39350904D01*
X159715142Y-39350904D01*
X159791333Y-39312809D01*
X159829428Y-39274714D01*
X159143714Y-38550904D02*
X158877047Y-39350904D01*
X158610380Y-38550904D01*
X132071433Y-78644101D02*
X132033338Y-78606006D01*
X131957147Y-78567910D01*
X131766671Y-78567910D01*
X131690481Y-78606006D01*
X131652385Y-78644101D01*
X131614290Y-78720291D01*
X131614290Y-78796482D01*
X131652385Y-78910767D01*
X132109528Y-79367910D01*
X131614290Y-79367910D01*
X131119052Y-78567910D02*
X131042862Y-78567910D01*
X130966671Y-78606006D01*
X130928576Y-78644101D01*
X130890481Y-78720291D01*
X130852385Y-78872672D01*
X130852385Y-79063148D01*
X130890481Y-79215529D01*
X130928576Y-79291720D01*
X130966671Y-79329815D01*
X131042862Y-79367910D01*
X131119052Y-79367910D01*
X131195243Y-79329815D01*
X131233338Y-79291720D01*
X131271433Y-79215529D01*
X131309528Y-79063148D01*
X131309528Y-78872672D01*
X131271433Y-78720291D01*
X131233338Y-78644101D01*
X131195243Y-78606006D01*
X131119052Y-78567910D01*
X130547624Y-78644101D02*
X130509528Y-78606006D01*
X130433338Y-78567910D01*
X130242862Y-78567910D01*
X130166671Y-78606006D01*
X130128576Y-78644101D01*
X130090481Y-78720291D01*
X130090481Y-78796482D01*
X130128576Y-78910767D01*
X130585719Y-79367910D01*
X130090481Y-79367910D01*
X129328576Y-79367910D02*
X129785719Y-79367910D01*
X129557147Y-79367910D02*
X129557147Y-78567910D01*
X129633338Y-78682196D01*
X129709528Y-78758386D01*
X129785719Y-78796482D01*
X127842862Y-79444101D02*
X127919052Y-79406006D01*
X127995243Y-79329815D01*
X128109528Y-79215529D01*
X128185719Y-79177434D01*
X128261909Y-79177434D01*
X128223814Y-79367910D02*
X128300005Y-79329815D01*
X128376195Y-79253625D01*
X128414290Y-79101244D01*
X128414290Y-78834577D01*
X128376195Y-78682196D01*
X128300005Y-78606006D01*
X128223814Y-78567910D01*
X128071433Y-78567910D01*
X127995243Y-78606006D01*
X127919052Y-78682196D01*
X127880957Y-78834577D01*
X127880957Y-79101244D01*
X127919052Y-79253625D01*
X127995243Y-79329815D01*
X128071433Y-79367910D01*
X128223814Y-79367910D01*
X127538100Y-78567910D02*
X127538100Y-79215529D01*
X127500005Y-79291720D01*
X127461909Y-79329815D01*
X127385719Y-79367910D01*
X127233338Y-79367910D01*
X127157147Y-79329815D01*
X127119052Y-79291720D01*
X127080957Y-79215529D01*
X127080957Y-78567910D01*
X126700005Y-78948863D02*
X126433338Y-78948863D01*
X126319052Y-79367910D02*
X126700005Y-79367910D01*
X126700005Y-78567910D01*
X126319052Y-78567910D01*
X125976195Y-79367910D02*
X125976195Y-78567910D01*
X125519052Y-79367910D01*
X125519052Y-78567910D01*
X125252385Y-78567910D02*
X124795243Y-78567910D01*
X125023814Y-79367910D02*
X125023814Y-78567910D01*
X124528576Y-79367910D02*
X124528576Y-78567910D01*
X124147624Y-79367910D02*
X124147624Y-78567910D01*
X123690481Y-79367910D01*
X123690481Y-78567910D01*
X122319052Y-79367910D02*
X122700005Y-79367910D01*
X122700005Y-78567910D01*
X122052385Y-78948863D02*
X121785719Y-78948863D01*
X121671433Y-79367910D02*
X122052385Y-79367910D01*
X122052385Y-78567910D01*
X121671433Y-78567910D01*
X121061909Y-78948863D02*
X120947624Y-78986958D01*
X120909528Y-79025053D01*
X120871433Y-79101244D01*
X120871433Y-79215529D01*
X120909528Y-79291720D01*
X120947624Y-79329815D01*
X121023814Y-79367910D01*
X121328576Y-79367910D01*
X121328576Y-78567910D01*
X121061909Y-78567910D01*
X120985719Y-78606006D01*
X120947624Y-78644101D01*
X120909528Y-78720291D01*
X120909528Y-78796482D01*
X120947624Y-78872672D01*
X120985719Y-78910767D01*
X121061909Y-78948863D01*
X121328576Y-78948863D01*
X120566671Y-79139339D02*
X120185719Y-79139339D01*
X120642862Y-79367910D02*
X120376195Y-78567910D01*
X120109528Y-79367910D01*
X119880957Y-79329815D02*
X119766671Y-79367910D01*
X119576195Y-79367910D01*
X119500005Y-79329815D01*
X119461909Y-79291720D01*
X119423814Y-79215529D01*
X119423814Y-79139339D01*
X119461909Y-79063148D01*
X119500005Y-79025053D01*
X119576195Y-78986958D01*
X119728576Y-78948863D01*
X119804766Y-78910767D01*
X119842862Y-78872672D01*
X119880957Y-78796482D01*
X119880957Y-78720291D01*
X119842862Y-78644101D01*
X119804766Y-78606006D01*
X119728576Y-78567910D01*
X119538100Y-78567910D01*
X119423814Y-78606006D01*
X119195243Y-78567910D02*
X118738100Y-78567910D01*
X118966671Y-79367910D02*
X118966671Y-78567910D01*
X118509528Y-79139339D02*
X118128576Y-79139339D01*
X118585719Y-79367910D02*
X118319052Y-78567910D01*
X118052385Y-79367910D01*
X117328576Y-79367910D02*
X117595243Y-78986958D01*
X117785719Y-79367910D02*
X117785719Y-78567910D01*
X117480957Y-78567910D01*
X117404766Y-78606006D01*
X117366671Y-78644101D01*
X117328576Y-78720291D01*
X117328576Y-78834577D01*
X117366671Y-78910767D01*
X117404766Y-78948863D01*
X117480957Y-78986958D01*
X117785719Y-78986958D01*
X116985719Y-79367910D02*
X116985719Y-78567910D01*
X116795243Y-78567910D01*
X116680957Y-78606006D01*
X116604766Y-78682196D01*
X116566671Y-78758386D01*
X116528576Y-78910767D01*
X116528576Y-79025053D01*
X116566671Y-79177434D01*
X116604766Y-79253625D01*
X116680957Y-79329815D01*
X116795243Y-79367910D01*
X116985719Y-79367910D01*
X131271433Y-80427339D02*
X130890481Y-80427339D01*
X131347624Y-80655910D02*
X131080957Y-79855910D01*
X130814290Y-80655910D01*
X130547624Y-80655910D02*
X130547624Y-79855910D01*
X130090481Y-80655910D01*
X130090481Y-79855910D01*
X129709528Y-80655910D02*
X129709528Y-79855910D01*
X129519052Y-79855910D01*
X129404766Y-79894006D01*
X129328576Y-79970196D01*
X129290481Y-80046386D01*
X129252385Y-80198767D01*
X129252385Y-80313053D01*
X129290481Y-80465434D01*
X129328576Y-80541625D01*
X129404766Y-80617815D01*
X129519052Y-80655910D01*
X129709528Y-80655910D01*
X128338100Y-80617815D02*
X128223814Y-80655910D01*
X128033338Y-80655910D01*
X127957147Y-80617815D01*
X127919052Y-80579720D01*
X127880957Y-80503529D01*
X127880957Y-80427339D01*
X127919052Y-80351148D01*
X127957147Y-80313053D01*
X128033338Y-80274958D01*
X128185719Y-80236863D01*
X128261909Y-80198767D01*
X128300005Y-80160672D01*
X128338100Y-80084482D01*
X128338100Y-80008291D01*
X128300005Y-79932101D01*
X128261909Y-79894006D01*
X128185719Y-79855910D01*
X127995243Y-79855910D01*
X127880957Y-79894006D01*
X127652385Y-79855910D02*
X127195243Y-79855910D01*
X127423814Y-80655910D02*
X127423814Y-79855910D01*
X126928576Y-80236863D02*
X126661909Y-80236863D01*
X126547624Y-80655910D02*
X126928576Y-80655910D01*
X126928576Y-79855910D01*
X126547624Y-79855910D01*
X125938100Y-80236863D02*
X126204766Y-80236863D01*
X126204766Y-80655910D02*
X126204766Y-79855910D01*
X125823814Y-79855910D01*
X125557147Y-80427339D02*
X125176195Y-80427339D01*
X125633338Y-80655910D02*
X125366671Y-79855910D01*
X125100005Y-80655910D01*
X124833338Y-80655910D02*
X124833338Y-79855910D01*
X124376195Y-80655910D01*
X124376195Y-79855910D01*
X123385719Y-80655910D02*
X123385719Y-79855910D01*
X122928576Y-80655910D02*
X123271433Y-80198767D01*
X122928576Y-79855910D02*
X123385719Y-80313053D01*
X122585719Y-80236863D02*
X122319052Y-80236863D01*
X122204766Y-80655910D02*
X122585719Y-80655910D01*
X122585719Y-79855910D01*
X122204766Y-79855910D01*
X121404766Y-80655910D02*
X121671433Y-80274958D01*
X121861909Y-80655910D02*
X121861909Y-79855910D01*
X121557147Y-79855910D01*
X121480957Y-79894006D01*
X121442862Y-79932101D01*
X121404766Y-80008291D01*
X121404766Y-80122577D01*
X121442862Y-80198767D01*
X121480957Y-80236863D01*
X121557147Y-80274958D01*
X121861909Y-80274958D01*
X121061909Y-80655910D02*
X121061909Y-79855910D01*
X120604766Y-80655910D02*
X120947624Y-80198767D01*
X120604766Y-79855910D02*
X121061909Y-80313053D01*
X120261909Y-80655910D02*
X120261909Y-79855910D01*
X119995243Y-80427339D01*
X119728576Y-79855910D01*
X119728576Y-80655910D01*
X119385719Y-80427339D02*
X119004766Y-80427339D01*
X119461909Y-80655910D02*
X119195243Y-79855910D01*
X118928576Y-80655910D01*
X118661909Y-80655910D02*
X118661909Y-79855910D01*
X118204766Y-80655910D01*
X118204766Y-79855910D01*
X117823814Y-80655910D02*
X117823814Y-79855910D01*
X117366671Y-80655910D01*
X117366671Y-79855910D01*
X96389241Y-86316555D02*
X96470053Y-86343493D01*
X96550865Y-86424305D01*
X96604740Y-86532054D01*
X96604740Y-86639804D01*
X96577802Y-86720616D01*
X96496990Y-86855303D01*
X96416178Y-86936115D01*
X96281491Y-87016928D01*
X96200679Y-87043865D01*
X96092929Y-87043865D01*
X95985180Y-86989990D01*
X95931305Y-86936115D01*
X95877430Y-86828366D01*
X95877430Y-86774491D01*
X96065992Y-86585929D01*
X96173741Y-86693679D01*
X95581119Y-86585929D02*
X96146804Y-86020244D01*
X95257870Y-86262680D01*
X95823555Y-85696995D01*
X94988496Y-85993306D02*
X95554181Y-85427621D01*
X95419494Y-85292934D01*
X95311745Y-85239059D01*
X95203995Y-85239059D01*
X95123183Y-85265997D01*
X94988496Y-85346809D01*
X94907684Y-85427621D01*
X94826871Y-85562308D01*
X94799934Y-85643120D01*
X94799934Y-85750870D01*
X94853809Y-85858619D01*
X94988496Y-85993306D01*
X153513041Y-86335054D02*
X153593853Y-86361992D01*
X153674665Y-86442804D01*
X153728540Y-86550553D01*
X153728540Y-86658303D01*
X153701602Y-86739115D01*
X153620790Y-86873802D01*
X153539978Y-86954614D01*
X153405291Y-87035427D01*
X153324479Y-87062364D01*
X153216729Y-87062364D01*
X153108980Y-87008489D01*
X153055105Y-86954614D01*
X153001230Y-86846865D01*
X153001230Y-86792990D01*
X153189792Y-86604428D01*
X153297541Y-86712178D01*
X152704919Y-86604428D02*
X153270604Y-86038743D01*
X152381670Y-86281179D01*
X152947355Y-85715494D01*
X152112296Y-86011805D02*
X152677981Y-85446120D01*
X152543294Y-85311433D01*
X152435545Y-85257558D01*
X152327795Y-85257558D01*
X152246983Y-85284496D01*
X152112296Y-85365308D01*
X152031484Y-85446120D01*
X151950671Y-85580807D01*
X151923734Y-85661619D01*
X151923734Y-85769369D01*
X151977609Y-85877118D01*
X152112296Y-86011805D01*
X101533575Y-76276102D02*
X101991511Y-76195290D01*
X101856824Y-76599351D02*
X102422509Y-76033665D01*
X102207010Y-75818166D01*
X102126198Y-75791228D01*
X102072323Y-75791228D01*
X101991511Y-75818166D01*
X101910699Y-75898978D01*
X101883761Y-75979790D01*
X101883761Y-76033665D01*
X101910699Y-76114477D01*
X102126198Y-76329977D01*
X100994827Y-75737354D02*
X101318076Y-76060603D01*
X101156451Y-75898978D02*
X101722137Y-75333293D01*
X101695199Y-75467980D01*
X101695199Y-75575729D01*
X101722137Y-75656541D01*
D12*
X115589932Y-34908782D02*
X116304218Y-35408782D01*
X115589932Y-35765924D02*
X117089932Y-35765924D01*
X117089932Y-35194496D01*
X117018504Y-35051639D01*
X116947075Y-34980210D01*
X116804218Y-34908782D01*
X116589932Y-34908782D01*
X116447075Y-34980210D01*
X116375646Y-35051639D01*
X116304218Y-35194496D01*
X116304218Y-35765924D01*
X115589932Y-34265924D02*
X117089932Y-34265924D01*
X117018504Y-32765924D02*
X117089932Y-32908782D01*
X117089932Y-33123067D01*
X117018504Y-33337353D01*
X116875646Y-33480210D01*
X116732789Y-33551639D01*
X116447075Y-33623067D01*
X116232789Y-33623067D01*
X115947075Y-33551639D01*
X115804218Y-33480210D01*
X115661361Y-33337353D01*
X115589932Y-33123067D01*
X115589932Y-32980210D01*
X115661361Y-32765924D01*
X115732789Y-32694496D01*
X116232789Y-32694496D01*
X116232789Y-32980210D01*
X115589932Y-32051639D02*
X117089932Y-32051639D01*
X116375646Y-32051639D02*
X116375646Y-31194496D01*
X115589932Y-31194496D02*
X117089932Y-31194496D01*
X117089932Y-30694496D02*
X117089932Y-29837353D01*
X115589932Y-30265924D02*
X117089932Y-30265924D01*
D11*
X101533575Y-83896102D02*
X101991511Y-83815290D01*
X101856824Y-84219351D02*
X102422509Y-83653665D01*
X102207010Y-83438166D01*
X102126198Y-83411228D01*
X102072323Y-83411228D01*
X101991511Y-83438166D01*
X101910699Y-83518978D01*
X101883761Y-83599790D01*
X101883761Y-83653665D01*
X101910699Y-83734477D01*
X102126198Y-83949977D01*
X101829887Y-83168792D02*
X101829887Y-83114917D01*
X101802949Y-83034105D01*
X101668262Y-82899418D01*
X101587450Y-82872480D01*
X101533575Y-82872480D01*
X101452763Y-82899418D01*
X101398888Y-82953293D01*
X101345013Y-83061042D01*
X101345013Y-83707540D01*
X100994827Y-83357354D01*
X140928975Y-76358586D02*
X141386911Y-76277774D01*
X141252224Y-76681835D02*
X141817909Y-76116149D01*
X141602410Y-75900650D01*
X141521598Y-75873712D01*
X141467723Y-75873712D01*
X141386911Y-75900650D01*
X141306099Y-75981462D01*
X141279161Y-76062274D01*
X141279161Y-76116149D01*
X141306099Y-76196961D01*
X141521598Y-76412461D01*
X141306099Y-75604338D02*
X140955912Y-75254152D01*
X140928975Y-75658213D01*
X140848163Y-75577401D01*
X140767351Y-75550464D01*
X140713476Y-75550464D01*
X140632664Y-75577401D01*
X140497977Y-75712088D01*
X140471039Y-75792900D01*
X140471039Y-75846775D01*
X140497977Y-75927587D01*
X140659601Y-76089212D01*
X140740413Y-76116149D01*
X140794288Y-76116149D01*
X108710201Y-71643418D02*
X108710201Y-70843418D01*
X108443534Y-71414847D01*
X108176867Y-70843418D01*
X108176867Y-71643418D01*
X107834010Y-71414847D02*
X107453058Y-71414847D01*
X107910201Y-71643418D02*
X107643534Y-70843418D01*
X107376867Y-71643418D01*
X107224487Y-70843418D02*
X106767344Y-70843418D01*
X106995915Y-71643418D02*
X106995915Y-70843418D01*
X106043534Y-71643418D02*
X106310201Y-71262466D01*
X106500677Y-71643418D02*
X106500677Y-70843418D01*
X106195915Y-70843418D01*
X106119725Y-70881514D01*
X106081629Y-70919609D01*
X106043534Y-70995799D01*
X106043534Y-71110085D01*
X106081629Y-71186275D01*
X106119725Y-71224371D01*
X106195915Y-71262466D01*
X106500677Y-71262466D01*
X105700677Y-71643418D02*
X105700677Y-70843418D01*
X105395915Y-70843418D02*
X104862582Y-71643418D01*
X104862582Y-70843418D02*
X105395915Y-71643418D01*
X107023050Y-83970417D02*
X107023050Y-84024292D01*
X107076925Y-84132041D01*
X107130800Y-84185916D01*
X107238549Y-84239791D01*
X107346299Y-84239791D01*
X107427111Y-84212854D01*
X107561798Y-84132041D01*
X107642610Y-84051229D01*
X107723422Y-83916542D01*
X107750360Y-83835730D01*
X107750360Y-83727980D01*
X107696485Y-83620231D01*
X107642610Y-83566356D01*
X107534861Y-83512481D01*
X107480986Y-83512481D01*
X107049987Y-82973733D02*
X107157737Y-83081483D01*
X107184674Y-83162295D01*
X107184674Y-83216170D01*
X107157737Y-83350857D01*
X107076925Y-83485544D01*
X106861425Y-83701043D01*
X106780613Y-83727980D01*
X106726738Y-83727980D01*
X106645926Y-83701043D01*
X106538177Y-83593293D01*
X106511239Y-83512481D01*
X106511239Y-83458606D01*
X106538177Y-83377794D01*
X106672864Y-83243107D01*
X106753676Y-83216170D01*
X106807551Y-83216170D01*
X106888363Y-83243107D01*
X106996112Y-83350857D01*
X107023050Y-83431669D01*
X107023050Y-83485544D01*
X106996112Y-83566356D01*
X101587450Y-73682227D02*
X101587450Y-73736102D01*
X101641325Y-73843851D01*
X101695200Y-73897726D01*
X101802949Y-73951601D01*
X101910699Y-73951601D01*
X101991511Y-73924664D01*
X102126198Y-73843851D01*
X102207010Y-73763039D01*
X102287822Y-73628352D01*
X102314760Y-73547540D01*
X102314760Y-73439790D01*
X102260885Y-73332041D01*
X102207010Y-73278166D01*
X102099261Y-73224291D01*
X102045386Y-73224291D01*
X101910699Y-72981854D02*
X101560512Y-72631668D01*
X101533575Y-73035729D01*
X101452763Y-72954917D01*
X101371951Y-72927980D01*
X101318076Y-72927980D01*
X101237264Y-72954917D01*
X101102577Y-73089604D01*
X101075639Y-73170416D01*
X101075639Y-73224291D01*
X101102577Y-73305103D01*
X101264201Y-73466728D01*
X101345013Y-73493665D01*
X101398888Y-73493665D01*
X113657142Y-42223809D02*
X113619047Y-42109523D01*
X113580952Y-42071428D01*
X113504761Y-42033333D01*
X113390476Y-42033333D01*
X113314285Y-42071428D01*
X113276190Y-42109523D01*
X113238095Y-42185714D01*
X113238095Y-42490476D01*
X114038095Y-42490476D01*
X114038095Y-42223809D01*
X114000000Y-42147619D01*
X113961904Y-42109523D01*
X113885714Y-42071428D01*
X113809523Y-42071428D01*
X113733333Y-42109523D01*
X113695238Y-42147619D01*
X113657142Y-42223809D01*
X113657142Y-42490476D01*
X113466666Y-41728571D02*
X113466666Y-41347619D01*
X113238095Y-41804761D02*
X114038095Y-41538095D01*
X113238095Y-41271428D01*
X113276190Y-41042857D02*
X113238095Y-40928571D01*
X113238095Y-40738095D01*
X113276190Y-40661904D01*
X113314285Y-40623809D01*
X113390476Y-40585714D01*
X113466666Y-40585714D01*
X113542857Y-40623809D01*
X113580952Y-40661904D01*
X113619047Y-40738095D01*
X113657142Y-40890476D01*
X113695238Y-40966666D01*
X113733333Y-41004761D01*
X113809523Y-41042857D01*
X113885714Y-41042857D01*
X113961904Y-41004761D01*
X114000000Y-40966666D01*
X114038095Y-40890476D01*
X114038095Y-40699999D01*
X114000000Y-40585714D01*
X114038095Y-40357142D02*
X114038095Y-39899999D01*
X113238095Y-40128571D02*
X114038095Y-40128571D01*
X113466666Y-39671428D02*
X113466666Y-39290476D01*
X113238095Y-39747619D02*
X114038095Y-39480952D01*
X113238095Y-39214285D01*
X113238095Y-38490476D02*
X113619047Y-38757142D01*
X113238095Y-38947619D02*
X114038095Y-38947619D01*
X114038095Y-38642857D01*
X114000000Y-38566666D01*
X113961904Y-38528571D01*
X113885714Y-38490476D01*
X113771428Y-38490476D01*
X113695238Y-38528571D01*
X113657142Y-38566666D01*
X113619047Y-38642857D01*
X113619047Y-38947619D01*
X113238095Y-38147619D02*
X114038095Y-38147619D01*
X114038095Y-37957142D01*
X114000000Y-37842857D01*
X113923809Y-37766666D01*
X113847619Y-37728571D01*
X113695238Y-37690476D01*
X113580952Y-37690476D01*
X113428571Y-37728571D01*
X113352380Y-37766666D01*
X113276190Y-37842857D01*
X113238095Y-37957142D01*
X113238095Y-38147619D01*
X113238095Y-37347619D02*
X114038095Y-37347619D01*
X113238095Y-36890476D02*
X113695238Y-37233333D01*
X114038095Y-36890476D02*
X113580952Y-37347619D01*
X113657142Y-36280952D02*
X113619047Y-36166666D01*
X113580952Y-36128571D01*
X113504761Y-36090476D01*
X113390476Y-36090476D01*
X113314285Y-36128571D01*
X113276190Y-36166666D01*
X113238095Y-36242857D01*
X113238095Y-36547619D01*
X114038095Y-36547619D01*
X114038095Y-36280952D01*
X114000000Y-36204761D01*
X113961904Y-36166666D01*
X113885714Y-36128571D01*
X113809523Y-36128571D01*
X113733333Y-36166666D01*
X113695238Y-36204761D01*
X113657142Y-36280952D01*
X113657142Y-36547619D01*
X113238095Y-35214285D02*
X113771428Y-34795238D01*
X113771428Y-35214285D02*
X113238095Y-34795238D01*
X113238095Y-33880952D02*
X114038095Y-33880952D01*
X113238095Y-33423809D02*
X113695238Y-33766666D01*
X114038095Y-33423809D02*
X113580952Y-33880952D01*
X113466666Y-33119047D02*
X113466666Y-32738095D01*
X113238095Y-33195238D02*
X114038095Y-32928571D01*
X113238095Y-32661904D01*
X113238095Y-31938095D02*
X113619047Y-32204761D01*
X113238095Y-32395238D02*
X114038095Y-32395238D01*
X114038095Y-32090476D01*
X114000000Y-32014285D01*
X113961904Y-31976190D01*
X113885714Y-31938095D01*
X113771428Y-31938095D01*
X113695238Y-31976190D01*
X113657142Y-32014285D01*
X113619047Y-32090476D01*
X113619047Y-32395238D01*
X113238095Y-31214285D02*
X113238095Y-31595238D01*
X114038095Y-31595238D01*
X113238095Y-30947619D02*
X114038095Y-30947619D01*
X113238095Y-30490476D02*
X113695238Y-30833333D01*
X114038095Y-30490476D02*
X113580952Y-30947619D01*
X113238095Y-30109523D02*
X113238095Y-29957142D01*
X113276190Y-29880952D01*
X113314285Y-29842857D01*
X113428571Y-29766666D01*
X113580952Y-29728571D01*
X113885714Y-29728571D01*
X113961904Y-29766666D01*
X114000000Y-29804761D01*
X114038095Y-29880952D01*
X114038095Y-30033333D01*
X114000000Y-30109523D01*
X113961904Y-30147619D01*
X113885714Y-30185714D01*
X113695238Y-30185714D01*
X113619047Y-30147619D01*
X113580952Y-30109523D01*
X113542857Y-30033333D01*
X113542857Y-29880952D01*
X113580952Y-29804761D01*
X113619047Y-29766666D01*
X113695238Y-29728571D01*
X114038095Y-29233333D02*
X114038095Y-29157142D01*
X114000000Y-29080952D01*
X113961904Y-29042857D01*
X113885714Y-29004761D01*
X113733333Y-28966666D01*
X113542857Y-28966666D01*
X113390476Y-29004761D01*
X113314285Y-29042857D01*
X113276190Y-29080952D01*
X113238095Y-29157142D01*
X113238095Y-29233333D01*
X113276190Y-29309523D01*
X113314285Y-29347619D01*
X113390476Y-29385714D01*
X113542857Y-29423809D01*
X113733333Y-29423809D01*
X113885714Y-29385714D01*
X113961904Y-29347619D01*
X114000000Y-29309523D01*
X114038095Y-29233333D01*
X101587450Y-78762227D02*
X101587450Y-78816102D01*
X101641325Y-78923851D01*
X101695200Y-78977726D01*
X101802949Y-79031601D01*
X101910699Y-79031601D01*
X101991511Y-79004664D01*
X102126198Y-78923851D01*
X102207010Y-78843039D01*
X102287822Y-78708352D01*
X102314760Y-78627540D01*
X102314760Y-78519790D01*
X102260885Y-78412041D01*
X102207010Y-78358166D01*
X102099261Y-78304291D01*
X102045386Y-78304291D01*
X101829887Y-78088792D02*
X101829887Y-78034917D01*
X101802949Y-77954105D01*
X101668262Y-77819418D01*
X101587450Y-77792480D01*
X101533575Y-77792480D01*
X101452763Y-77819418D01*
X101398888Y-77873293D01*
X101345013Y-77981042D01*
X101345013Y-78627540D01*
X100994827Y-78277354D01*
X88697618Y-38590904D02*
X89078571Y-38590904D01*
X89116666Y-38971857D01*
X89078571Y-38933761D01*
X89002380Y-38895666D01*
X88811904Y-38895666D01*
X88735714Y-38933761D01*
X88697618Y-38971857D01*
X88659523Y-39048047D01*
X88659523Y-39238523D01*
X88697618Y-39314714D01*
X88735714Y-39352809D01*
X88811904Y-39390904D01*
X89002380Y-39390904D01*
X89078571Y-39352809D01*
X89116666Y-39314714D01*
X88430952Y-38590904D02*
X88164285Y-39390904D01*
X87897618Y-38590904D01*
X152691450Y-76323210D02*
X152691450Y-76377085D01*
X152745325Y-76484834D01*
X152799200Y-76538709D01*
X152906949Y-76592584D01*
X153014699Y-76592584D01*
X153095511Y-76565647D01*
X153230198Y-76484834D01*
X153311010Y-76404022D01*
X153391822Y-76269335D01*
X153418760Y-76188523D01*
X153418760Y-76080773D01*
X153364885Y-75973024D01*
X153311010Y-75919149D01*
X153203261Y-75865274D01*
X153149386Y-75865274D01*
X152449013Y-76134648D02*
X152341264Y-76080773D01*
X152206577Y-75946086D01*
X152179639Y-75865274D01*
X152179639Y-75811399D01*
X152206577Y-75730587D01*
X152260451Y-75676712D01*
X152341264Y-75649775D01*
X152395138Y-75649775D01*
X152475951Y-75676712D01*
X152610638Y-75757524D01*
X152691450Y-75784462D01*
X152745325Y-75784462D01*
X152826137Y-75757524D01*
X152880012Y-75703650D01*
X152906949Y-75622837D01*
X152906949Y-75568963D01*
X152880012Y-75488150D01*
X152745325Y-75353463D01*
X152637575Y-75299589D01*
X153432228Y-79711737D02*
X153997914Y-79146052D01*
X153405291Y-79361551D01*
X153620790Y-78768928D01*
X153055105Y-79334613D01*
X153243667Y-78391804D02*
X153135917Y-78284055D01*
X153055105Y-78257117D01*
X152947355Y-78257117D01*
X152812668Y-78337930D01*
X152624106Y-78526491D01*
X152543294Y-78661178D01*
X152543294Y-78768928D01*
X152570232Y-78849740D01*
X152677981Y-78957490D01*
X152758793Y-78984427D01*
X152866543Y-78984427D01*
X153001230Y-78903615D01*
X153189792Y-78715053D01*
X153270604Y-78580366D01*
X153270604Y-78472617D01*
X153243667Y-78391804D01*
X152246983Y-78472617D02*
X152139233Y-78418742D01*
X152004546Y-78284055D01*
X151977609Y-78203243D01*
X151977609Y-78149368D01*
X152004546Y-78068556D01*
X152058421Y-78014681D01*
X152139233Y-77987743D01*
X152193108Y-77987743D01*
X152273920Y-78014681D01*
X152408607Y-78095493D01*
X152489419Y-78122430D01*
X152543294Y-78122430D01*
X152624106Y-78095493D01*
X152677981Y-78041618D01*
X152704919Y-77960806D01*
X152704919Y-77906931D01*
X152677981Y-77826119D01*
X152543294Y-77691432D01*
X152435545Y-77637557D01*
X151654360Y-77933869D02*
X152220045Y-77368183D01*
X163171428Y-22873809D02*
X163057142Y-22911904D01*
X162866666Y-22911904D01*
X162790476Y-22873809D01*
X162752380Y-22835714D01*
X162714285Y-22759523D01*
X162714285Y-22683333D01*
X162752380Y-22607142D01*
X162790476Y-22569047D01*
X162866666Y-22530952D01*
X163019047Y-22492857D01*
X163095237Y-22454761D01*
X163133333Y-22416666D01*
X163171428Y-22340476D01*
X163171428Y-22264285D01*
X163133333Y-22188095D01*
X163095237Y-22150000D01*
X163019047Y-22111904D01*
X162828571Y-22111904D01*
X162714285Y-22150000D01*
D13*
X97594619Y-67481619D02*
X96785095Y-67481619D01*
X96689857Y-67434000D01*
X96642238Y-67386380D01*
X96594619Y-67291142D01*
X96594619Y-67100666D01*
X96642238Y-67005428D01*
X96689857Y-66957809D01*
X96785095Y-66910190D01*
X97594619Y-66910190D01*
X96594619Y-66434000D02*
X97594619Y-66434000D01*
X97594619Y-66053047D01*
X97547000Y-65957809D01*
X97499380Y-65910190D01*
X97404142Y-65862571D01*
X97261285Y-65862571D01*
X97166047Y-65910190D01*
X97118428Y-65957809D01*
X97070809Y-66053047D01*
X97070809Y-66434000D01*
X96594619Y-65434000D02*
X97594619Y-65434000D01*
X97594619Y-65195904D01*
X97547000Y-65053047D01*
X97451761Y-64957809D01*
X97356523Y-64910190D01*
X97166047Y-64862571D01*
X97023190Y-64862571D01*
X96832714Y-64910190D01*
X96737476Y-64957809D01*
X96642238Y-65053047D01*
X96594619Y-65195904D01*
X96594619Y-65434000D01*
X96880333Y-64481619D02*
X96880333Y-64005428D01*
X96594619Y-64576857D02*
X97594619Y-64243523D01*
X96594619Y-63910190D01*
X97594619Y-63719714D02*
X97594619Y-63148285D01*
X96594619Y-63434000D02*
X97594619Y-63434000D01*
X97118428Y-62814952D02*
X97118428Y-62481619D01*
X96594619Y-62338761D02*
X96594619Y-62814952D01*
X97594619Y-62814952D01*
X97594619Y-62338761D01*
D11*
X153216729Y-73284868D02*
X153486103Y-73554242D01*
X153243667Y-73850553D01*
X153243667Y-73796679D01*
X153216729Y-73715866D01*
X153082042Y-73581179D01*
X153001230Y-73554242D01*
X152947355Y-73554242D01*
X152866543Y-73581179D01*
X152731856Y-73715866D01*
X152704919Y-73796679D01*
X152704919Y-73850553D01*
X152731856Y-73931366D01*
X152866543Y-74066053D01*
X152947355Y-74092990D01*
X153001230Y-74092990D01*
X153028167Y-73096306D02*
X152273920Y-73473430D01*
X152651044Y-72719183D01*
X146647050Y-78891427D02*
X146647050Y-78945302D01*
X146700925Y-79053051D01*
X146754800Y-79106926D01*
X146862549Y-79160801D01*
X146970299Y-79160801D01*
X147051111Y-79133864D01*
X147185798Y-79053051D01*
X147266610Y-78972239D01*
X147347422Y-78837552D01*
X147374360Y-78756740D01*
X147374360Y-78648990D01*
X147320485Y-78541241D01*
X147266610Y-78487366D01*
X147158861Y-78433491D01*
X147104986Y-78433491D01*
X146889487Y-78217992D02*
X146889487Y-78164117D01*
X146862549Y-78083305D01*
X146727862Y-77948618D01*
X146647050Y-77921680D01*
X146593175Y-77921680D01*
X146512363Y-77948618D01*
X146458488Y-78002493D01*
X146404613Y-78110242D01*
X146404613Y-78756740D01*
X146054427Y-78406554D01*
X99251150Y-71605323D02*
X99136864Y-71643418D01*
X98946388Y-71643418D01*
X98870198Y-71605323D01*
X98832103Y-71567228D01*
X98794007Y-71491037D01*
X98794007Y-71414847D01*
X98832103Y-71338656D01*
X98870198Y-71300561D01*
X98946388Y-71262466D01*
X99098769Y-71224371D01*
X99174960Y-71186275D01*
X99213055Y-71148180D01*
X99251150Y-71071990D01*
X99251150Y-70995799D01*
X99213055Y-70919609D01*
X99174960Y-70881514D01*
X99098769Y-70843418D01*
X98908293Y-70843418D01*
X98794007Y-70881514D01*
X98451150Y-71643418D02*
X98451150Y-70843418D01*
X98146388Y-70843418D01*
X98070198Y-70881514D01*
X98032103Y-70919609D01*
X97994007Y-70995799D01*
X97994007Y-71110085D01*
X98032103Y-71186275D01*
X98070198Y-71224371D01*
X98146388Y-71262466D01*
X98451150Y-71262466D01*
X97651150Y-71643418D02*
X97651150Y-70843418D01*
X101587450Y-81302227D02*
X101587450Y-81356102D01*
X101641325Y-81463851D01*
X101695200Y-81517726D01*
X101802949Y-81571601D01*
X101910699Y-81571601D01*
X101991511Y-81544664D01*
X102126198Y-81463851D01*
X102207010Y-81383039D01*
X102287822Y-81248352D01*
X102314760Y-81167540D01*
X102314760Y-81059790D01*
X102260885Y-80952041D01*
X102207010Y-80898166D01*
X102099261Y-80844291D01*
X102045386Y-80844291D01*
X100994827Y-80817354D02*
X101318076Y-81140603D01*
X101156451Y-80978978D02*
X101722137Y-80413293D01*
X101695199Y-80547980D01*
X101695199Y-80655729D01*
X101722137Y-80736541D01*
X146593175Y-84025302D02*
X147051111Y-83944490D01*
X146916424Y-84348551D02*
X147482109Y-83782865D01*
X147266610Y-83567366D01*
X147185798Y-83540428D01*
X147131923Y-83540428D01*
X147051111Y-83567366D01*
X146970299Y-83648178D01*
X146943361Y-83728990D01*
X146943361Y-83782865D01*
X146970299Y-83863677D01*
X147185798Y-84079177D01*
X146889487Y-83297992D02*
X146889487Y-83244117D01*
X146862549Y-83163305D01*
X146727862Y-83028618D01*
X146647050Y-83001680D01*
X146593175Y-83001680D01*
X146512363Y-83028618D01*
X146458488Y-83082493D01*
X146404613Y-83190242D01*
X146404613Y-83836740D01*
X146054427Y-83486554D01*
X95567650Y-76304711D02*
X95567650Y-76358586D01*
X95621525Y-76466335D01*
X95675400Y-76520210D01*
X95783149Y-76574085D01*
X95890899Y-76574085D01*
X95971711Y-76547148D01*
X96106398Y-76466335D01*
X96187210Y-76385523D01*
X96268022Y-76250836D01*
X96294960Y-76170024D01*
X96294960Y-76062274D01*
X96241085Y-75954525D01*
X96187210Y-75900650D01*
X96079461Y-75846775D01*
X96025586Y-75846775D01*
X95325213Y-76116149D02*
X95217464Y-76062274D01*
X95082777Y-75927587D01*
X95055839Y-75846775D01*
X95055839Y-75792900D01*
X95082777Y-75712088D01*
X95136651Y-75658213D01*
X95217464Y-75631276D01*
X95271338Y-75631276D01*
X95352151Y-75658213D01*
X95486838Y-75739025D01*
X95567650Y-75765963D01*
X95621525Y-75765963D01*
X95702337Y-75739025D01*
X95756212Y-75685151D01*
X95783149Y-75604338D01*
X95783149Y-75550464D01*
X95756212Y-75469651D01*
X95621525Y-75334964D01*
X95513775Y-75281090D01*
X146647050Y-81431427D02*
X146647050Y-81485302D01*
X146700925Y-81593051D01*
X146754800Y-81646926D01*
X146862549Y-81700801D01*
X146970299Y-81700801D01*
X147051111Y-81673864D01*
X147185798Y-81593051D01*
X147266610Y-81512239D01*
X147347422Y-81377552D01*
X147374360Y-81296740D01*
X147374360Y-81188990D01*
X147320485Y-81081241D01*
X147266610Y-81027366D01*
X147158861Y-80973491D01*
X147104986Y-80973491D01*
X146054427Y-80946554D02*
X146377676Y-81269803D01*
X146216051Y-81108178D02*
X146781737Y-80542493D01*
X146754800Y-80677180D01*
X146754800Y-80784929D01*
X146781737Y-80865741D01*
X134557142Y-42223810D02*
X134519047Y-42109524D01*
X134480952Y-42071429D01*
X134404761Y-42033334D01*
X134290476Y-42033334D01*
X134214285Y-42071429D01*
X134176190Y-42109524D01*
X134138095Y-42185715D01*
X134138095Y-42490477D01*
X134938095Y-42490477D01*
X134938095Y-42223810D01*
X134900000Y-42147619D01*
X134861904Y-42109524D01*
X134785714Y-42071429D01*
X134709523Y-42071429D01*
X134633333Y-42109524D01*
X134595238Y-42147619D01*
X134557142Y-42223810D01*
X134557142Y-42490477D01*
X134138095Y-41309524D02*
X134138095Y-41690477D01*
X134938095Y-41690477D01*
X134366666Y-41080953D02*
X134366666Y-40700000D01*
X134138095Y-41157143D02*
X134938095Y-40890477D01*
X134138095Y-40623810D01*
X134214285Y-39900000D02*
X134176190Y-39938096D01*
X134138095Y-40052381D01*
X134138095Y-40128572D01*
X134176190Y-40242857D01*
X134252380Y-40319048D01*
X134328571Y-40357143D01*
X134480952Y-40395238D01*
X134595238Y-40395238D01*
X134747619Y-40357143D01*
X134823809Y-40319048D01*
X134900000Y-40242857D01*
X134938095Y-40128572D01*
X134938095Y-40052381D01*
X134900000Y-39938096D01*
X134861904Y-39900000D01*
X134138095Y-39557143D02*
X134938095Y-39557143D01*
X134138095Y-39100000D02*
X134595238Y-39442857D01*
X134938095Y-39100000D02*
X134480952Y-39557143D01*
X134138095Y-38757143D02*
X134938095Y-38757143D01*
X134938095Y-38452381D01*
X134900000Y-38376191D01*
X134861904Y-38338096D01*
X134785714Y-38300000D01*
X134671428Y-38300000D01*
X134595238Y-38338096D01*
X134557142Y-38376191D01*
X134519047Y-38452381D01*
X134519047Y-38757143D01*
X134138095Y-37957143D02*
X134938095Y-37957143D01*
X134138095Y-37195238D02*
X134138095Y-37576191D01*
X134938095Y-37576191D01*
X134138095Y-36547619D02*
X134138095Y-36928572D01*
X134938095Y-36928572D01*
X134138095Y-35671429D02*
X134938095Y-35671429D01*
X134557142Y-35671429D02*
X134557142Y-35214286D01*
X134138095Y-35214286D02*
X134938095Y-35214286D01*
X134938095Y-34680953D02*
X134938095Y-34528572D01*
X134900000Y-34452381D01*
X134823809Y-34376191D01*
X134671428Y-34338096D01*
X134404761Y-34338096D01*
X134252380Y-34376191D01*
X134176190Y-34452381D01*
X134138095Y-34528572D01*
X134138095Y-34680953D01*
X134176190Y-34757143D01*
X134252380Y-34833334D01*
X134404761Y-34871429D01*
X134671428Y-34871429D01*
X134823809Y-34833334D01*
X134900000Y-34757143D01*
X134938095Y-34680953D01*
X134138095Y-33614286D02*
X134138095Y-33995238D01*
X134938095Y-33995238D01*
X134138095Y-33347619D02*
X134938095Y-33347619D01*
X134938095Y-33157143D01*
X134900000Y-33042857D01*
X134823809Y-32966667D01*
X134747619Y-32928572D01*
X134595238Y-32890477D01*
X134480952Y-32890477D01*
X134328571Y-32928572D01*
X134252380Y-32966667D01*
X134176190Y-33042857D01*
X134138095Y-33157143D01*
X134138095Y-33347619D01*
X134557142Y-32547619D02*
X134557142Y-32280953D01*
X134138095Y-32166667D02*
X134138095Y-32547619D01*
X134938095Y-32547619D01*
X134938095Y-32166667D01*
X134138095Y-31366667D02*
X134519047Y-31633334D01*
X134138095Y-31823810D02*
X134938095Y-31823810D01*
X134938095Y-31519048D01*
X134900000Y-31442857D01*
X134861904Y-31404762D01*
X134785714Y-31366667D01*
X134671428Y-31366667D01*
X134595238Y-31404762D01*
X134557142Y-31442857D01*
X134519047Y-31519048D01*
X134519047Y-31823810D01*
X134138095Y-29995238D02*
X134138095Y-30452381D01*
X134138095Y-30223810D02*
X134938095Y-30223810D01*
X134823809Y-30300000D01*
X134747619Y-30376191D01*
X134709523Y-30452381D01*
X134214285Y-29652381D02*
X134176190Y-29614286D01*
X134138095Y-29652381D01*
X134176190Y-29690477D01*
X134214285Y-29652381D01*
X134138095Y-29652381D01*
X134138095Y-28852381D02*
X134138095Y-29309524D01*
X134138095Y-29080953D02*
X134938095Y-29080953D01*
X134823809Y-29157143D01*
X134747619Y-29233334D01*
X134709523Y-29309524D01*
D13*
X143568619Y-67608619D02*
X142759095Y-67608619D01*
X142663857Y-67561000D01*
X142616238Y-67513380D01*
X142568619Y-67418142D01*
X142568619Y-67227666D01*
X142616238Y-67132428D01*
X142663857Y-67084809D01*
X142759095Y-67037190D01*
X143568619Y-67037190D01*
X142568619Y-66561000D02*
X143568619Y-66561000D01*
X143568619Y-66180047D01*
X143521000Y-66084809D01*
X143473380Y-66037190D01*
X143378142Y-65989571D01*
X143235285Y-65989571D01*
X143140047Y-66037190D01*
X143092428Y-66084809D01*
X143044809Y-66180047D01*
X143044809Y-66561000D01*
X142568619Y-65561000D02*
X143568619Y-65561000D01*
X143568619Y-65322904D01*
X143521000Y-65180047D01*
X143425761Y-65084809D01*
X143330523Y-65037190D01*
X143140047Y-64989571D01*
X142997190Y-64989571D01*
X142806714Y-65037190D01*
X142711476Y-65084809D01*
X142616238Y-65180047D01*
X142568619Y-65322904D01*
X142568619Y-65561000D01*
X142854333Y-64608619D02*
X142854333Y-64132428D01*
X142568619Y-64703857D02*
X143568619Y-64370523D01*
X142568619Y-64037190D01*
X143568619Y-63846714D02*
X143568619Y-63275285D01*
X142568619Y-63561000D02*
X143568619Y-63561000D01*
X143092428Y-62941952D02*
X143092428Y-62608619D01*
X142568619Y-62465761D02*
X142568619Y-62941952D01*
X143568619Y-62941952D01*
X143568619Y-62465761D01*
D11*
X89650000Y-44470904D02*
X89650000Y-43670904D01*
X89459524Y-43670904D01*
X89345238Y-43709000D01*
X89269048Y-43785190D01*
X89230953Y-43861380D01*
X89192857Y-44013761D01*
X89192857Y-44128047D01*
X89230953Y-44280428D01*
X89269048Y-44356619D01*
X89345238Y-44432809D01*
X89459524Y-44470904D01*
X89650000Y-44470904D01*
X88850000Y-44470904D02*
X88850000Y-43670904D01*
X88469048Y-44470904D02*
X88469048Y-43670904D01*
X88011905Y-44470904D01*
X88011905Y-43670904D01*
X136007142Y-42223809D02*
X135969047Y-42109523D01*
X135930952Y-42071428D01*
X135854761Y-42033333D01*
X135740476Y-42033333D01*
X135664285Y-42071428D01*
X135626190Y-42109523D01*
X135588095Y-42185714D01*
X135588095Y-42490476D01*
X136388095Y-42490476D01*
X136388095Y-42223809D01*
X136350000Y-42147619D01*
X136311904Y-42109523D01*
X136235714Y-42071428D01*
X136159523Y-42071428D01*
X136083333Y-42109523D01*
X136045238Y-42147619D01*
X136007142Y-42223809D01*
X136007142Y-42490476D01*
X135816666Y-41728571D02*
X135816666Y-41347619D01*
X135588095Y-41804761D02*
X136388095Y-41538095D01*
X135588095Y-41271428D01*
X135626190Y-41042857D02*
X135588095Y-40928571D01*
X135588095Y-40738095D01*
X135626190Y-40661904D01*
X135664285Y-40623809D01*
X135740476Y-40585714D01*
X135816666Y-40585714D01*
X135892857Y-40623809D01*
X135930952Y-40661904D01*
X135969047Y-40738095D01*
X136007142Y-40890476D01*
X136045238Y-40966666D01*
X136083333Y-41004761D01*
X136159523Y-41042857D01*
X136235714Y-41042857D01*
X136311904Y-41004761D01*
X136350000Y-40966666D01*
X136388095Y-40890476D01*
X136388095Y-40699999D01*
X136350000Y-40585714D01*
X136388095Y-40357142D02*
X136388095Y-39899999D01*
X135588095Y-40128571D02*
X136388095Y-40128571D01*
X135816666Y-39671428D02*
X135816666Y-39290476D01*
X135588095Y-39747619D02*
X136388095Y-39480952D01*
X135588095Y-39214285D01*
X135588095Y-38490476D02*
X135969047Y-38757142D01*
X135588095Y-38947619D02*
X136388095Y-38947619D01*
X136388095Y-38642857D01*
X136350000Y-38566666D01*
X136311904Y-38528571D01*
X136235714Y-38490476D01*
X136121428Y-38490476D01*
X136045238Y-38528571D01*
X136007142Y-38566666D01*
X135969047Y-38642857D01*
X135969047Y-38947619D01*
X135588095Y-38147619D02*
X136388095Y-38147619D01*
X136388095Y-37957142D01*
X136350000Y-37842857D01*
X136273809Y-37766666D01*
X136197619Y-37728571D01*
X136045238Y-37690476D01*
X135930952Y-37690476D01*
X135778571Y-37728571D01*
X135702380Y-37766666D01*
X135626190Y-37842857D01*
X135588095Y-37957142D01*
X135588095Y-38147619D01*
X135588095Y-37347619D02*
X136388095Y-37347619D01*
X135588095Y-36890476D02*
X136045238Y-37233333D01*
X136388095Y-36890476D02*
X135930952Y-37347619D01*
X136007142Y-36280952D02*
X135969047Y-36166666D01*
X135930952Y-36128571D01*
X135854761Y-36090476D01*
X135740476Y-36090476D01*
X135664285Y-36128571D01*
X135626190Y-36166666D01*
X135588095Y-36242857D01*
X135588095Y-36547619D01*
X136388095Y-36547619D01*
X136388095Y-36280952D01*
X136350000Y-36204761D01*
X136311904Y-36166666D01*
X136235714Y-36128571D01*
X136159523Y-36128571D01*
X136083333Y-36166666D01*
X136045238Y-36204761D01*
X136007142Y-36280952D01*
X136007142Y-36547619D01*
X135588095Y-35214285D02*
X136121428Y-34795238D01*
X136121428Y-35214285D02*
X135588095Y-34795238D01*
X135588095Y-33880952D02*
X136388095Y-33880952D01*
X135588095Y-33423809D02*
X136045238Y-33766666D01*
X136388095Y-33423809D02*
X135930952Y-33880952D01*
X135816666Y-33119047D02*
X135816666Y-32738095D01*
X135588095Y-33195238D02*
X136388095Y-32928571D01*
X135588095Y-32661904D01*
X135588095Y-31938095D02*
X135969047Y-32204761D01*
X135588095Y-32395238D02*
X136388095Y-32395238D01*
X136388095Y-32090476D01*
X136350000Y-32014285D01*
X136311904Y-31976190D01*
X136235714Y-31938095D01*
X136121428Y-31938095D01*
X136045238Y-31976190D01*
X136007142Y-32014285D01*
X135969047Y-32090476D01*
X135969047Y-32395238D01*
X135588095Y-31214285D02*
X135588095Y-31595238D01*
X136388095Y-31595238D01*
X135588095Y-30947619D02*
X136388095Y-30947619D01*
X135588095Y-30490476D02*
X136045238Y-30833333D01*
X136388095Y-30490476D02*
X135930952Y-30947619D01*
X135588095Y-30109523D02*
X135588095Y-29957142D01*
X135626190Y-29880952D01*
X135664285Y-29842857D01*
X135778571Y-29766666D01*
X135930952Y-29728571D01*
X136235714Y-29728571D01*
X136311904Y-29766666D01*
X136350000Y-29804761D01*
X136388095Y-29880952D01*
X136388095Y-30033333D01*
X136350000Y-30109523D01*
X136311904Y-30147619D01*
X136235714Y-30185714D01*
X136045238Y-30185714D01*
X135969047Y-30147619D01*
X135930952Y-30109523D01*
X135892857Y-30033333D01*
X135892857Y-29880952D01*
X135930952Y-29804761D01*
X135969047Y-29766666D01*
X136045238Y-29728571D01*
X136388095Y-29233333D02*
X136388095Y-29157142D01*
X136350000Y-29080952D01*
X136311904Y-29042857D01*
X136235714Y-29004761D01*
X136083333Y-28966666D01*
X135892857Y-28966666D01*
X135740476Y-29004761D01*
X135664285Y-29042857D01*
X135626190Y-29080952D01*
X135588095Y-29157142D01*
X135588095Y-29233333D01*
X135626190Y-29309523D01*
X135664285Y-29347619D01*
X135740476Y-29385714D01*
X135892857Y-29423809D01*
X136083333Y-29423809D01*
X136235714Y-29385714D01*
X136311904Y-29347619D01*
X136350000Y-29309523D01*
X136388095Y-29233333D01*
X88251064Y-33578625D02*
X88136778Y-33616720D01*
X87946302Y-33616720D01*
X87870111Y-33578625D01*
X87832016Y-33540530D01*
X87793921Y-33464339D01*
X87793921Y-33388149D01*
X87832016Y-33311958D01*
X87870111Y-33273863D01*
X87946302Y-33235768D01*
X88098683Y-33197673D01*
X88174873Y-33159577D01*
X88212968Y-33121482D01*
X88251064Y-33045292D01*
X88251064Y-32969101D01*
X88212968Y-32892911D01*
X88174873Y-32854816D01*
X88098683Y-32816720D01*
X87908206Y-32816720D01*
X87793921Y-32854816D01*
X87451064Y-33197673D02*
X87184397Y-33197673D01*
X87070111Y-33616720D02*
X87451064Y-33616720D01*
X87451064Y-32816720D01*
X87070111Y-32816720D01*
X86270111Y-33616720D02*
X86536778Y-33235768D01*
X86727254Y-33616720D02*
X86727254Y-32816720D01*
X86422492Y-32816720D01*
X86346302Y-32854816D01*
X86308206Y-32892911D01*
X86270111Y-32969101D01*
X86270111Y-33083387D01*
X86308206Y-33159577D01*
X86346302Y-33197673D01*
X86422492Y-33235768D01*
X86727254Y-33235768D01*
X85927254Y-33616720D02*
X85927254Y-32816720D01*
X85584397Y-33388149D02*
X85203445Y-33388149D01*
X85660587Y-33616720D02*
X85393921Y-32816720D01*
X85127254Y-33616720D01*
X84479635Y-33616720D02*
X84860587Y-33616720D01*
X84860587Y-32816720D01*
X96092929Y-73266369D02*
X96362303Y-73535743D01*
X96119867Y-73832054D01*
X96119867Y-73778180D01*
X96092929Y-73697367D01*
X95958242Y-73562680D01*
X95877430Y-73535743D01*
X95823555Y-73535743D01*
X95742743Y-73562680D01*
X95608056Y-73697367D01*
X95581119Y-73778180D01*
X95581119Y-73832054D01*
X95608056Y-73912867D01*
X95742743Y-74047554D01*
X95823555Y-74074491D01*
X95877430Y-74074491D01*
X95904367Y-73077807D02*
X95150120Y-73454931D01*
X95527244Y-72700684D01*
X140982850Y-78844711D02*
X140982850Y-78898586D01*
X141036725Y-79006335D01*
X141090600Y-79060210D01*
X141198349Y-79114085D01*
X141306099Y-79114085D01*
X141386911Y-79087148D01*
X141521598Y-79006335D01*
X141602410Y-78925523D01*
X141683222Y-78790836D01*
X141710160Y-78710024D01*
X141710160Y-78602274D01*
X141656285Y-78494525D01*
X141602410Y-78440650D01*
X141494661Y-78386775D01*
X141440786Y-78386775D01*
X140821225Y-78036589D02*
X140444102Y-78413712D01*
X141171412Y-77955777D02*
X140902038Y-78494525D01*
X140551851Y-78144338D01*
X87271428Y-25250000D02*
X87347619Y-25211904D01*
X87461905Y-25211904D01*
X87576190Y-25250000D01*
X87652381Y-25326190D01*
X87690476Y-25402380D01*
X87728571Y-25554761D01*
X87728571Y-25669047D01*
X87690476Y-25821428D01*
X87652381Y-25897619D01*
X87576190Y-25973809D01*
X87461905Y-26011904D01*
X87385714Y-26011904D01*
X87271428Y-25973809D01*
X87233333Y-25935714D01*
X87233333Y-25669047D01*
X87385714Y-25669047D01*
X86890476Y-26011904D02*
X86890476Y-25211904D01*
X86433333Y-26011904D01*
X86433333Y-25211904D01*
X86052381Y-26011904D02*
X86052381Y-25211904D01*
X85861905Y-25211904D01*
X85747619Y-25250000D01*
X85671428Y-25326190D01*
X85633333Y-25402380D01*
X85595238Y-25554761D01*
X85595238Y-25669047D01*
X85633333Y-25821428D01*
X85671428Y-25897619D01*
X85747619Y-25973809D01*
X85861905Y-26011904D01*
X86052381Y-26011904D01*
X140982850Y-81384711D02*
X140982850Y-81438586D01*
X141036725Y-81546335D01*
X141090600Y-81600210D01*
X141198349Y-81654085D01*
X141306099Y-81654085D01*
X141386911Y-81627148D01*
X141521598Y-81546335D01*
X141602410Y-81465523D01*
X141683222Y-81330836D01*
X141710160Y-81250024D01*
X141710160Y-81142274D01*
X141656285Y-81034525D01*
X141602410Y-80980650D01*
X141494661Y-80926775D01*
X141440786Y-80926775D01*
X140982850Y-80361090D02*
X141252224Y-80630464D01*
X141009787Y-80926775D01*
X141009787Y-80872900D01*
X140982850Y-80792088D01*
X140848163Y-80657401D01*
X140767351Y-80630464D01*
X140713476Y-80630464D01*
X140632664Y-80657401D01*
X140497977Y-80792088D01*
X140471039Y-80872900D01*
X140471039Y-80926775D01*
X140497977Y-81007587D01*
X140632664Y-81142274D01*
X140713476Y-81169212D01*
X140767351Y-81169212D01*
X89649999Y-41169000D02*
X89726190Y-41130904D01*
X89840476Y-41130904D01*
X89954761Y-41169000D01*
X90030952Y-41245190D01*
X90069047Y-41321380D01*
X90107142Y-41473761D01*
X90107142Y-41588047D01*
X90069047Y-41740428D01*
X90030952Y-41816619D01*
X89954761Y-41892809D01*
X89840476Y-41930904D01*
X89764285Y-41930904D01*
X89649999Y-41892809D01*
X89611904Y-41854714D01*
X89611904Y-41588047D01*
X89764285Y-41588047D01*
X89269047Y-41930904D02*
X89269047Y-41130904D01*
X88811904Y-41930904D01*
X88811904Y-41130904D01*
X88430952Y-41930904D02*
X88430952Y-41130904D01*
X88240476Y-41130904D01*
X88126190Y-41169000D01*
X88049999Y-41245190D01*
X88011904Y-41321380D01*
X87973809Y-41473761D01*
X87973809Y-41588047D01*
X88011904Y-41740428D01*
X88049999Y-41816619D01*
X88126190Y-41892809D01*
X88240476Y-41930904D01*
X88430952Y-41930904D01*
D12*
X130921428Y-34003571D02*
X130921428Y-34717857D01*
X132421428Y-34717857D01*
X131707142Y-33503571D02*
X131707142Y-33003571D01*
X130921428Y-32789285D02*
X130921428Y-33503571D01*
X132421428Y-33503571D01*
X132421428Y-32789285D01*
X131707142Y-31646428D02*
X131707142Y-32146428D01*
X130921428Y-32146428D02*
X132421428Y-32146428D01*
X132421428Y-31432142D01*
X132421428Y-31075000D02*
X132421428Y-30217857D01*
X130921428Y-30646428D02*
X132421428Y-30646428D01*
D11*
%TO.C,U2*%
X148001904Y-16182380D02*
X148001904Y-16991904D01*
X147954285Y-17087142D01*
X147906666Y-17134761D01*
X147811428Y-17182380D01*
X147620952Y-17182380D01*
X147525714Y-17134761D01*
X147478095Y-17087142D01*
X147430476Y-16991904D01*
X147430476Y-16182380D01*
X147001904Y-16277619D02*
X146954285Y-16230000D01*
X146859047Y-16182380D01*
X146620952Y-16182380D01*
X146525714Y-16230000D01*
X146478095Y-16277619D01*
X146430476Y-16372857D01*
X146430476Y-16468095D01*
X146478095Y-16610952D01*
X147049523Y-17182380D01*
X146430476Y-17182380D01*
%TO.C,U1*%
X101921904Y-16192380D02*
X101921904Y-17001904D01*
X101874285Y-17097142D01*
X101826666Y-17144761D01*
X101731428Y-17192380D01*
X101540952Y-17192380D01*
X101445714Y-17144761D01*
X101398095Y-17097142D01*
X101350476Y-17001904D01*
X101350476Y-16192380D01*
X100350476Y-17192380D02*
X100921904Y-17192380D01*
X100636190Y-17192380D02*
X100636190Y-16192380D01*
X100731428Y-16335238D01*
X100826666Y-16430476D01*
X100921904Y-16478095D01*
%TO.C,J12*%
X97133999Y-72172200D02*
X99733999Y-72172200D01*
X99733999Y-72172200D02*
X99733999Y-87482200D01*
X99733999Y-87482200D02*
X97133999Y-87482200D01*
X97133999Y-87482200D02*
X97133999Y-72172200D01*
%TO.C,J5*%
X154265000Y-72190000D02*
X156865000Y-72190000D01*
X156865000Y-72190000D02*
X156865000Y-87500000D01*
X156865000Y-87500000D02*
X154265000Y-87500000D01*
X154265000Y-87500000D02*
X154265000Y-72190000D01*
%TO.C,J7*%
X91545999Y-72172200D02*
X94145999Y-72172200D01*
X94145999Y-72172200D02*
X94145999Y-87482200D01*
X94145999Y-87482200D02*
X91545999Y-87482200D01*
X91545999Y-87482200D02*
X91545999Y-72172200D01*
%TO.C,J11*%
X148634666Y-72190000D02*
X151234666Y-72190000D01*
X151234666Y-72190000D02*
X151234666Y-87500000D01*
X151234666Y-87500000D02*
X148634666Y-87500000D01*
X148634666Y-87500000D02*
X148634666Y-72190000D01*
%TO.C,J3*%
X160456000Y-37680000D02*
X163086000Y-37680000D01*
X163086000Y-37680000D02*
X163086000Y-45390000D01*
X163086000Y-45390000D02*
X160456000Y-45390000D01*
X160456000Y-45390000D02*
X160456000Y-37680000D01*
%TO.C,J9*%
X143024333Y-72182200D02*
X145634333Y-72182200D01*
X145634333Y-72182200D02*
X145634333Y-84942200D01*
X145634333Y-84942200D02*
X143024333Y-84942200D01*
X143024333Y-84942200D02*
X143024333Y-72182200D01*
%TO.C,J4*%
X85011000Y-37680000D02*
X87641000Y-37680000D01*
X87641000Y-37680000D02*
X87641000Y-45390000D01*
X87641000Y-45390000D02*
X85011000Y-45390000D01*
X85011000Y-45390000D02*
X85011000Y-37680000D01*
%TO.C,J8*%
X108309999Y-72172200D02*
X110909999Y-72172200D01*
X110909999Y-72172200D02*
X110909999Y-87482200D01*
X110909999Y-87482200D02*
X108309999Y-87482200D01*
X108309999Y-87482200D02*
X108309999Y-72172200D01*
%TO.C,J6*%
X102741998Y-72182200D02*
X105351998Y-72182200D01*
X105351998Y-72182200D02*
X105351998Y-84942200D01*
X105351998Y-84942200D02*
X102741998Y-84942200D01*
X102741998Y-84942200D02*
X102741998Y-72182200D01*
%TO.C,J10*%
X137374000Y-72172200D02*
X139974000Y-72172200D01*
X139974000Y-72172200D02*
X139974000Y-87482200D01*
X139974000Y-87482200D02*
X137374000Y-87482200D01*
X137374000Y-87482200D02*
X137374000Y-72172200D01*
D10*
%TO.C,R8*%
X98084000Y-43018064D02*
X98084000Y-41563936D01*
X96264000Y-43018064D02*
X96264000Y-41563936D01*
%TO.C,R7*%
X100264500Y-43018064D02*
X100264500Y-41563936D01*
X102084500Y-43018064D02*
X102084500Y-41563936D01*
%TO.C,R1*%
X146346500Y-43018064D02*
X146346500Y-41563936D01*
X148166500Y-43018064D02*
X148166500Y-41563936D01*
%TO.C,G\u002A\u002A\u002A*%
G36*
X123571688Y-56460876D02*
G01*
X123341543Y-56459127D01*
X123132922Y-56446319D01*
X122963239Y-56422192D01*
X122836495Y-56390724D01*
X122579063Y-56291787D01*
X122349061Y-56155110D01*
X122152332Y-55986216D01*
X121994714Y-55790627D01*
X121882048Y-55573864D01*
X121820174Y-55341450D01*
X121804392Y-55133436D01*
X121825641Y-54873275D01*
X121833915Y-54843124D01*
X122647149Y-54843124D01*
X122681552Y-54993656D01*
X122768572Y-55121673D01*
X122908022Y-55226388D01*
X122911275Y-55228206D01*
X122965347Y-55255877D01*
X123019601Y-55275584D01*
X123085508Y-55289008D01*
X123174537Y-55297826D01*
X123298157Y-55303719D01*
X123467837Y-55308366D01*
X123694904Y-55308956D01*
X123948314Y-55293716D01*
X124154535Y-55259227D01*
X124317941Y-55204342D01*
X124442905Y-55127914D01*
X124533802Y-55028795D01*
X124586498Y-54914433D01*
X124607486Y-54759978D01*
X124586630Y-54595180D01*
X124524177Y-54435334D01*
X124445621Y-54291506D01*
X123654690Y-54298697D01*
X123639004Y-54298839D01*
X123432106Y-54300712D01*
X123244593Y-54302395D01*
X123084094Y-54303822D01*
X122958237Y-54304925D01*
X122874650Y-54305636D01*
X122840964Y-54305888D01*
X122840465Y-54305928D01*
X122816994Y-54331740D01*
X122778521Y-54396140D01*
X122733116Y-54485674D01*
X122665548Y-54670867D01*
X122647149Y-54843124D01*
X121833915Y-54843124D01*
X121891793Y-54632212D01*
X122000728Y-54421048D01*
X122047412Y-54348711D01*
X122086468Y-54281307D01*
X122101472Y-54245467D01*
X122095538Y-54237738D01*
X122049233Y-54224733D01*
X121972027Y-54219592D01*
X121842582Y-54219592D01*
X121842582Y-53644281D01*
X121842612Y-53608695D01*
X121843646Y-53437357D01*
X121845977Y-53289104D01*
X121849370Y-53172548D01*
X121853588Y-53096299D01*
X121858393Y-53068970D01*
X121861462Y-53069452D01*
X121901714Y-53086164D01*
X121966264Y-53119309D01*
X121978239Y-53125209D01*
X122001507Y-53133469D01*
X122033718Y-53140687D01*
X122078610Y-53146952D01*
X122139920Y-53152349D01*
X122221385Y-53156967D01*
X122326743Y-53160891D01*
X122459732Y-53164209D01*
X122624090Y-53167008D01*
X122823553Y-53169374D01*
X123061859Y-53171396D01*
X123342746Y-53173159D01*
X123669952Y-53174751D01*
X124047213Y-53176259D01*
X124478268Y-53177770D01*
X126898212Y-53185891D01*
X126911606Y-53796230D01*
X126912944Y-53859764D01*
X126916015Y-54035118D01*
X126917781Y-54187293D01*
X126918196Y-54307707D01*
X126917217Y-54387776D01*
X126914800Y-54418916D01*
X126908744Y-54420231D01*
X126865407Y-54407279D01*
X126797091Y-54375767D01*
X126765022Y-54360930D01*
X126722225Y-54347067D01*
X126666546Y-54336390D01*
X126590546Y-54328343D01*
X126486781Y-54322370D01*
X126347810Y-54317916D01*
X126166192Y-54314424D01*
X125934485Y-54311339D01*
X125741866Y-54309562D01*
X125559414Y-54308913D01*
X125404426Y-54309447D01*
X125284415Y-54311103D01*
X125206898Y-54313818D01*
X125179388Y-54317532D01*
X125186348Y-54334515D01*
X125216870Y-54389208D01*
X125263439Y-54465190D01*
X125321527Y-54582484D01*
X125375488Y-54774957D01*
X125403077Y-55003078D01*
X125402611Y-55257273D01*
X125393235Y-55378676D01*
X125375450Y-55485904D01*
X125344585Y-55579157D01*
X125294696Y-55681822D01*
X125182079Y-55854129D01*
X124999361Y-56042373D01*
X124773678Y-56198679D01*
X124509503Y-56320067D01*
X124211308Y-56403559D01*
X124026887Y-56432239D01*
X123805941Y-56451827D01*
X123694904Y-56456116D01*
X123571688Y-56460876D01*
G37*
G36*
X120634827Y-61137525D02*
G01*
X120659426Y-61168997D01*
X120675927Y-61229454D01*
X120685841Y-61326024D01*
X120690682Y-61465834D01*
X120691959Y-61656011D01*
X120690975Y-61801342D01*
X120687083Y-61907171D01*
X120679131Y-61973720D01*
X120665973Y-62010336D01*
X120646458Y-62026368D01*
X120637588Y-62028699D01*
X120577297Y-62035040D01*
X120477979Y-62039590D01*
X120351700Y-62042382D01*
X120210527Y-62043445D01*
X120066529Y-62042812D01*
X119931772Y-62040512D01*
X119818323Y-62036578D01*
X119738251Y-62031041D01*
X119703622Y-62023931D01*
X119700262Y-62013765D01*
X119694724Y-61955277D01*
X119691255Y-61854943D01*
X119690133Y-61723297D01*
X119691636Y-61570874D01*
X119699547Y-61137713D01*
X119843375Y-61137713D01*
X119857758Y-61497282D01*
X119872140Y-61856852D01*
X120087882Y-61874708D01*
X120087882Y-61703973D01*
X120089296Y-61631252D01*
X120095932Y-61522446D01*
X120106168Y-61441813D01*
X120117636Y-61396853D01*
X120145339Y-61361718D01*
X120199656Y-61359112D01*
X120202649Y-61359462D01*
X120237543Y-61366299D01*
X120259377Y-61384437D01*
X120271819Y-61425426D01*
X120278540Y-61500819D01*
X120283208Y-61622169D01*
X120284798Y-61666873D01*
X120290775Y-61772943D01*
X120299874Y-61834047D01*
X120314210Y-61859717D01*
X120335901Y-61859485D01*
X120363198Y-61851477D01*
X120434536Y-61842469D01*
X120447880Y-61841395D01*
X120466737Y-61830036D01*
X120479411Y-61798586D01*
X120487560Y-61737685D01*
X120492839Y-61637973D01*
X120496906Y-61490091D01*
X120504983Y-61137713D01*
X120580186Y-61128987D01*
X120600620Y-61127912D01*
X120634827Y-61137525D01*
G37*
G36*
X120343278Y-65812632D02*
G01*
X120478061Y-65814945D01*
X120570449Y-65819822D01*
X120628557Y-65828013D01*
X120660501Y-65840272D01*
X120674396Y-65857350D01*
X120678551Y-65895679D01*
X120660470Y-65961035D01*
X120654718Y-65971089D01*
X120637503Y-65990440D01*
X120608369Y-66003348D01*
X120558200Y-66010748D01*
X120477879Y-66013574D01*
X120358288Y-66012763D01*
X120190310Y-66009248D01*
X120130074Y-66007699D01*
X119953366Y-66000668D01*
X119827164Y-65990754D01*
X119746028Y-65977406D01*
X119704521Y-65960074D01*
X119675024Y-65921738D01*
X119686781Y-65866629D01*
X119691974Y-65857890D01*
X119710176Y-65839957D01*
X119742487Y-65827409D01*
X119797591Y-65819298D01*
X119884171Y-65814678D01*
X120010912Y-65812600D01*
X120186496Y-65812118D01*
X120343278Y-65812632D01*
G37*
G36*
X119977746Y-70476379D02*
G01*
X119854513Y-70471606D01*
X119766539Y-70466136D01*
X119724960Y-70460452D01*
X119722939Y-70459415D01*
X119704579Y-70420037D01*
X119692011Y-70338361D01*
X119685338Y-70228054D01*
X119684945Y-70154730D01*
X119862444Y-70154730D01*
X119862546Y-70235881D01*
X119873812Y-70277973D01*
X119895499Y-70284636D01*
X119965671Y-70292338D01*
X120070706Y-70297599D01*
X120197508Y-70299547D01*
X120498904Y-70299547D01*
X120482841Y-70087157D01*
X120459374Y-69918534D01*
X120406809Y-69764556D01*
X120326431Y-69658499D01*
X120217231Y-69598507D01*
X120144843Y-69601689D01*
X120059950Y-69643664D01*
X119981549Y-69713322D01*
X119926658Y-69798926D01*
X119910396Y-69846686D01*
X119888242Y-69943157D01*
X119871633Y-70051496D01*
X119862444Y-70154730D01*
X119684945Y-70154730D01*
X119684667Y-70102781D01*
X119690101Y-69976210D01*
X119701745Y-69862007D01*
X119719704Y-69773839D01*
X119758252Y-69681740D01*
X119852906Y-69557977D01*
X119978128Y-69467787D01*
X120121659Y-69419043D01*
X120271237Y-69419620D01*
X120288174Y-69423283D01*
X120415121Y-69480753D01*
X120527197Y-69581293D01*
X120609637Y-69712139D01*
X120633808Y-69789080D01*
X120655543Y-69902376D01*
X120672256Y-70033906D01*
X120682797Y-70168721D01*
X120686016Y-70291870D01*
X120680763Y-70388405D01*
X120665888Y-70443375D01*
X120659730Y-70450527D01*
X120631988Y-70465361D01*
X120580671Y-70475149D01*
X120497302Y-70480581D01*
X120373403Y-70482343D01*
X120200496Y-70481123D01*
X120197508Y-70481077D01*
X120125102Y-70479969D01*
X119977746Y-70476379D01*
G37*
G36*
X120370538Y-60635937D02*
G01*
X120189155Y-60635925D01*
X120129650Y-60635233D01*
X119983220Y-60632111D01*
X119859772Y-60627494D01*
X119770822Y-60621886D01*
X119727887Y-60615789D01*
X119726662Y-60615292D01*
X119706386Y-60593977D01*
X119693681Y-60544495D01*
X119687131Y-60457091D01*
X119686808Y-60432956D01*
X119849496Y-60432956D01*
X120490600Y-60432956D01*
X120490600Y-60336203D01*
X120490356Y-60316998D01*
X120478909Y-60187117D01*
X120453709Y-60054081D01*
X120419421Y-59938119D01*
X120380706Y-59859458D01*
X120327288Y-59803466D01*
X120230259Y-59756927D01*
X120127470Y-59760497D01*
X120030019Y-59812814D01*
X119949007Y-59912513D01*
X119930753Y-59950444D01*
X119892402Y-60075634D01*
X119868615Y-60227245D01*
X119849496Y-60432956D01*
X119686808Y-60432956D01*
X119685325Y-60322008D01*
X119688340Y-60170046D01*
X119702376Y-60018080D01*
X119730961Y-59900185D01*
X119777463Y-59803592D01*
X119845249Y-59715530D01*
X119861484Y-59698254D01*
X119990170Y-59601241D01*
X120128589Y-59556365D01*
X120268019Y-59561920D01*
X120399734Y-59616200D01*
X120515011Y-59717500D01*
X120605125Y-59864112D01*
X120634252Y-59950234D01*
X120660053Y-60071528D01*
X120678055Y-60206296D01*
X120687340Y-60340606D01*
X120686990Y-60460527D01*
X120676087Y-60552130D01*
X120653712Y-60601482D01*
X120640510Y-60609529D01*
X120589180Y-60623261D01*
X120501534Y-60631890D01*
X120490600Y-60632228D01*
X120370538Y-60635937D01*
G37*
G36*
X120614918Y-56498921D02*
G01*
X120663641Y-56535761D01*
X120665687Y-56538301D01*
X120680219Y-56579918D01*
X120656833Y-56624802D01*
X120591261Y-56676362D01*
X120479234Y-56738010D01*
X120316485Y-56813155D01*
X120221525Y-56855958D01*
X120123102Y-56903459D01*
X120055974Y-56939707D01*
X120030998Y-56959152D01*
X120032043Y-56961963D01*
X120064822Y-56988254D01*
X120134338Y-57030136D01*
X120228067Y-57079932D01*
X120314188Y-57126325D01*
X120409027Y-57192246D01*
X120451916Y-57249547D01*
X120445405Y-57300821D01*
X120442651Y-57304104D01*
X120401749Y-57333146D01*
X120325717Y-57377371D01*
X120228446Y-57428598D01*
X120203622Y-57441326D01*
X120116726Y-57490126D01*
X120059019Y-57529484D01*
X120041925Y-57551854D01*
X120067995Y-57569646D01*
X120136797Y-57606401D01*
X120237010Y-57655824D01*
X120357611Y-57712312D01*
X120388237Y-57726416D01*
X120528292Y-57794920D01*
X120620278Y-57849663D01*
X120669429Y-57895226D01*
X120680980Y-57936193D01*
X120660168Y-57977146D01*
X120651479Y-57987352D01*
X120631191Y-58005671D01*
X120605476Y-58014556D01*
X120567697Y-58011799D01*
X120511219Y-57995195D01*
X120429409Y-57962536D01*
X120315630Y-57911617D01*
X120163248Y-57840231D01*
X119965629Y-57746171D01*
X119920205Y-57724310D01*
X119791009Y-57657229D01*
X119713826Y-57602911D01*
X119687512Y-57554751D01*
X119710920Y-57506145D01*
X119782906Y-57450487D01*
X119902323Y-57381171D01*
X119944922Y-57357242D01*
X120030736Y-57304923D01*
X120086429Y-57264797D01*
X120101550Y-57244057D01*
X120099556Y-57242342D01*
X120060447Y-57217810D01*
X119986425Y-57176097D01*
X119891583Y-57125181D01*
X119839027Y-57096759D01*
X119739242Y-57032727D01*
X119693534Y-56978403D01*
X119701629Y-56927382D01*
X119763253Y-56873259D01*
X119878134Y-56809628D01*
X120012096Y-56743640D01*
X120181189Y-56662739D01*
X120331457Y-56593507D01*
X120454796Y-56539570D01*
X120543105Y-56504551D01*
X120588279Y-56492073D01*
X120614918Y-56498921D01*
G37*
G36*
X120685415Y-54999395D02*
G01*
X120685807Y-55025512D01*
X120687365Y-55220247D01*
X120684560Y-55364696D01*
X120675838Y-55465299D01*
X120659647Y-55528493D01*
X120634436Y-55560719D01*
X120598651Y-55568415D01*
X120550741Y-55558020D01*
X120522314Y-55542904D01*
X120502522Y-55508495D01*
X120491247Y-55442804D01*
X120484638Y-55332710D01*
X120476217Y-55125708D01*
X120114014Y-55123031D01*
X120102534Y-55122936D01*
X119962845Y-55120036D01*
X119843804Y-55114537D01*
X119757705Y-55107188D01*
X119716843Y-55098743D01*
X119697868Y-55073836D01*
X119690711Y-55015123D01*
X119690978Y-55013290D01*
X119697894Y-54988776D01*
X119716208Y-54971463D01*
X119755143Y-54959575D01*
X119823918Y-54951340D01*
X119931758Y-54944983D01*
X120087882Y-54938732D01*
X120476217Y-54924349D01*
X120504983Y-54492865D01*
X120677576Y-54492865D01*
X120685415Y-54999395D01*
G37*
G36*
X122250754Y-60050240D02*
G01*
X122305801Y-60073676D01*
X122395920Y-60119731D01*
X122512077Y-60183692D01*
X122645236Y-60260844D01*
X122718129Y-60303899D01*
X122844900Y-60378021D01*
X122950353Y-60438706D01*
X123025132Y-60480595D01*
X123059882Y-60498330D01*
X123063222Y-60504781D01*
X123047680Y-60546893D01*
X123005005Y-60618333D01*
X122941310Y-60708277D01*
X122861602Y-60824610D01*
X122752026Y-61046187D01*
X122694912Y-61267267D01*
X122690088Y-61482860D01*
X122737382Y-61687978D01*
X122836619Y-61877631D01*
X122987629Y-62046830D01*
X123089712Y-62129531D01*
X123258729Y-62233164D01*
X123448873Y-62309587D01*
X123668549Y-62361183D01*
X123926165Y-62390339D01*
X124230125Y-62399441D01*
X124377875Y-62397346D01*
X124680407Y-62376624D01*
X124938675Y-62332256D01*
X125159138Y-62262429D01*
X125348255Y-62165326D01*
X125512486Y-62039133D01*
X125519297Y-62032838D01*
X125643202Y-61896119D01*
X125724642Y-61750163D01*
X125769381Y-61580806D01*
X125783184Y-61373883D01*
X125780145Y-61251799D01*
X125763421Y-61122558D01*
X125726279Y-61007670D01*
X125662240Y-60888520D01*
X125564825Y-60746495D01*
X125468471Y-60614168D01*
X125872934Y-60348632D01*
X125976503Y-60281122D01*
X126097498Y-60203638D01*
X126194590Y-60143079D01*
X126259776Y-60104417D01*
X126285051Y-60092625D01*
X126285351Y-60093030D01*
X126300048Y-60125869D01*
X126323756Y-60188449D01*
X126334038Y-60215502D01*
X126368309Y-60299877D01*
X126415329Y-60411517D01*
X126468077Y-60533636D01*
X126557174Y-60754475D01*
X126631228Y-60993847D01*
X126673433Y-61221529D01*
X126687753Y-61454134D01*
X126686762Y-61531410D01*
X126648816Y-61858324D01*
X126558631Y-62173820D01*
X126419425Y-62468809D01*
X126234419Y-62734202D01*
X126075179Y-62910244D01*
X125832783Y-63124573D01*
X125568524Y-63295148D01*
X125272518Y-63428015D01*
X124934881Y-63529221D01*
X124797085Y-63553597D01*
X124605991Y-63571855D01*
X124388325Y-63581264D01*
X124159914Y-63581814D01*
X123936590Y-63573493D01*
X123734180Y-63556290D01*
X123568516Y-63530194D01*
X123235455Y-63435068D01*
X122917533Y-63294841D01*
X122631147Y-63116143D01*
X122380321Y-62902975D01*
X122169079Y-62659335D01*
X122001446Y-62389222D01*
X121881445Y-62096637D01*
X121813100Y-61785577D01*
X121798231Y-61629259D01*
X121796521Y-61326196D01*
X121828021Y-61030797D01*
X121891151Y-60763760D01*
X121907198Y-60718631D01*
X121947280Y-60620968D01*
X121999527Y-60503913D01*
X122058095Y-60379493D01*
X122117138Y-60259737D01*
X122170810Y-60156672D01*
X122213266Y-60082325D01*
X122238660Y-60048725D01*
X122250754Y-60050240D01*
G37*
G36*
X119996567Y-64188807D02*
G01*
X120091655Y-64201528D01*
X120169395Y-64220020D01*
X120209695Y-64241599D01*
X120216738Y-64256144D01*
X120229254Y-64329620D01*
X120228476Y-64431496D01*
X120214099Y-64540998D01*
X120183524Y-64616992D01*
X120136174Y-64650798D01*
X120086123Y-64640374D01*
X120046479Y-64588726D01*
X120030351Y-64498859D01*
X120027749Y-64464064D01*
X120002417Y-64399879D01*
X119959036Y-64374703D01*
X119908663Y-64397724D01*
X119908189Y-64398211D01*
X119888919Y-64449046D01*
X119879297Y-64538876D01*
X119878768Y-64650413D01*
X119886777Y-64766370D01*
X119902766Y-64869461D01*
X119926180Y-64942399D01*
X119963937Y-65003714D01*
X120051578Y-65087173D01*
X120148592Y-65120923D01*
X120246413Y-65107199D01*
X120336478Y-65048232D01*
X120410221Y-64946254D01*
X120459078Y-64803498D01*
X120471172Y-64726844D01*
X120482534Y-64590640D01*
X120483806Y-64460136D01*
X120483454Y-64451370D01*
X120481355Y-64353759D01*
X120487369Y-64299056D01*
X120505311Y-64273723D01*
X120538994Y-64264223D01*
X120559019Y-64263072D01*
X120612023Y-64285822D01*
X120647560Y-64352273D01*
X120667116Y-64466537D01*
X120672179Y-64632730D01*
X120666309Y-64761575D01*
X120631653Y-64954374D01*
X120563417Y-65106322D01*
X120458591Y-65223116D01*
X120314165Y-65310453D01*
X120234075Y-65341238D01*
X120170114Y-65345593D01*
X120093338Y-65324350D01*
X119951517Y-65258026D01*
X119838306Y-65160321D01*
X119754030Y-65023927D01*
X119745322Y-65004152D01*
X119706344Y-64874854D01*
X119686532Y-64730028D01*
X119684730Y-64581629D01*
X119699782Y-64441617D01*
X119730532Y-64321948D01*
X119775824Y-64234580D01*
X119834502Y-64191470D01*
X119834710Y-64191416D01*
X119904222Y-64184541D01*
X119996567Y-64188807D01*
G37*
G36*
X120573837Y-55905663D02*
G01*
X120642718Y-55919719D01*
X120678816Y-55943898D01*
X120688613Y-55979698D01*
X120678594Y-56028616D01*
X120671851Y-56046086D01*
X120656730Y-56063715D01*
X120626795Y-56075766D01*
X120573504Y-56083298D01*
X120488312Y-56087368D01*
X120362676Y-56089034D01*
X120188053Y-56089355D01*
X120178890Y-56089354D01*
X120003919Y-56088654D01*
X119877615Y-56086096D01*
X119791504Y-56080853D01*
X119737112Y-56072099D01*
X119705965Y-56059007D01*
X119689589Y-56040752D01*
X119675366Y-56011447D01*
X119671303Y-55978769D01*
X119692000Y-55954734D01*
X119744011Y-55937459D01*
X119833888Y-55925057D01*
X119968184Y-55915645D01*
X120153453Y-55907338D01*
X120311793Y-55901933D01*
X120465689Y-55900234D01*
X120573837Y-55905663D01*
G37*
G36*
X120565533Y-66481159D02*
G01*
X120605824Y-66524313D01*
X120624384Y-66554644D01*
X120655626Y-66654118D01*
X120675040Y-66787943D01*
X120682742Y-66941152D01*
X120678845Y-67098780D01*
X120663466Y-67245860D01*
X120636718Y-67367426D01*
X120598718Y-67448510D01*
X120511325Y-67531633D01*
X120414113Y-67568532D01*
X120319591Y-67554504D01*
X120234417Y-67492494D01*
X120165249Y-67385445D01*
X120118747Y-67236301D01*
X120108611Y-67184275D01*
X120082333Y-67049554D01*
X120058354Y-66926784D01*
X120056411Y-66916928D01*
X120028954Y-66799513D01*
X120001690Y-66733178D01*
X119970849Y-66712020D01*
X119932657Y-66730139D01*
X119916321Y-66751615D01*
X119901825Y-66798155D01*
X119891677Y-66875832D01*
X119884802Y-66993439D01*
X119880125Y-67159772D01*
X119879630Y-67183907D01*
X119875986Y-67334002D01*
X119871308Y-67436977D01*
X119864001Y-67502010D01*
X119852469Y-67538280D01*
X119835119Y-67554964D01*
X119810354Y-67561242D01*
X119807460Y-67561623D01*
X119754579Y-67549157D01*
X119717685Y-67489328D01*
X119707216Y-67439698D01*
X119698105Y-67340231D01*
X119693153Y-67209637D01*
X119693175Y-67062117D01*
X119695778Y-66962288D01*
X119705408Y-66813340D01*
X119724242Y-66705032D01*
X119755846Y-66626425D01*
X119803784Y-66566584D01*
X119871619Y-66514571D01*
X119881758Y-66508393D01*
X119973651Y-66486269D01*
X120067899Y-66514891D01*
X120151060Y-66590602D01*
X120167070Y-66619864D01*
X120198024Y-66704234D01*
X120230404Y-66819560D01*
X120259360Y-66949754D01*
X120275816Y-67032759D01*
X120300389Y-67149868D01*
X120320914Y-67239754D01*
X120334146Y-67287749D01*
X120361900Y-67325774D01*
X120407926Y-67331511D01*
X120445318Y-67288732D01*
X120454131Y-67260612D01*
X120472204Y-67153679D01*
X120481213Y-67017672D01*
X120480294Y-66872967D01*
X120468583Y-66739941D01*
X120457695Y-66655735D01*
X120455518Y-66587039D01*
X120468263Y-66544177D01*
X120498123Y-66510066D01*
X120534300Y-66480905D01*
X120565533Y-66481159D01*
G37*
G36*
X120558819Y-53045910D02*
G01*
X120613377Y-53054921D01*
X120644536Y-53072096D01*
X120664178Y-53099574D01*
X120681699Y-53154049D01*
X120659104Y-53203402D01*
X120585174Y-53232206D01*
X120458312Y-53241563D01*
X120289241Y-53241563D01*
X120289241Y-53931937D01*
X120445397Y-53931937D01*
X120453883Y-53931971D01*
X120576443Y-53943925D01*
X120646756Y-53977140D01*
X120678673Y-54010695D01*
X120689458Y-54041112D01*
X120674499Y-54087795D01*
X120663657Y-54102786D01*
X120635143Y-54115823D01*
X120581823Y-54124622D01*
X120495517Y-54129954D01*
X120368048Y-54132589D01*
X120191237Y-54133296D01*
X119993208Y-54131366D01*
X119838188Y-54125285D01*
X119737695Y-54115140D01*
X119693165Y-54101025D01*
X119669348Y-54060547D01*
X119684063Y-54011597D01*
X119742599Y-53970593D01*
X119837250Y-53942414D01*
X119960310Y-53931937D01*
X120087882Y-53931937D01*
X120087882Y-53244192D01*
X119893715Y-53235686D01*
X119857467Y-53234031D01*
X119769274Y-53227648D01*
X119722047Y-53215909D01*
X119703049Y-53193540D01*
X119699547Y-53155266D01*
X119699592Y-53148688D01*
X119705346Y-53112106D01*
X119729828Y-53090129D01*
X119785924Y-53076544D01*
X119886523Y-53065140D01*
X119921225Y-53062088D01*
X120051573Y-53053715D01*
X120204234Y-53047136D01*
X120352952Y-53043566D01*
X120468980Y-53042926D01*
X120558819Y-53045910D01*
G37*
G36*
X120651788Y-68012684D02*
G01*
X120662292Y-68030338D01*
X120677442Y-68080562D01*
X120686589Y-68160007D01*
X120690569Y-68278076D01*
X120690219Y-68444168D01*
X120689968Y-68462988D01*
X120685899Y-68606258D01*
X120678786Y-68730050D01*
X120669560Y-68821678D01*
X120659148Y-68868460D01*
X120646473Y-68885160D01*
X120619166Y-68899922D01*
X120570279Y-68909673D01*
X120490827Y-68915406D01*
X120371824Y-68918117D01*
X120204285Y-68918800D01*
X120136713Y-68918581D01*
X119988874Y-68916517D01*
X119864154Y-68912624D01*
X119774024Y-68907330D01*
X119729952Y-68901066D01*
X119714311Y-68890271D01*
X119701494Y-68863256D01*
X119693510Y-68812529D01*
X119689669Y-68729646D01*
X119689277Y-68606160D01*
X119691642Y-68433625D01*
X119699547Y-67983919D01*
X119843375Y-67983919D01*
X119851426Y-68350680D01*
X119859476Y-68717441D01*
X120087882Y-68717441D01*
X120087882Y-68562826D01*
X120088410Y-68512997D01*
X120100009Y-68359348D01*
X120126954Y-68260086D01*
X120169457Y-68214317D01*
X120212477Y-68211535D01*
X120255022Y-68255797D01*
X120280661Y-68354476D01*
X120289241Y-68507197D01*
X120289241Y-68717441D01*
X120374990Y-68717441D01*
X120381411Y-68717403D01*
X120423766Y-68712623D01*
X120453506Y-68693733D01*
X120473207Y-68652049D01*
X120485446Y-68578887D01*
X120492801Y-68465563D01*
X120497847Y-68303393D01*
X120499713Y-68239173D01*
X120505770Y-68125421D01*
X120515927Y-68053018D01*
X120532301Y-68010641D01*
X120557008Y-67986971D01*
X120564973Y-67982325D01*
X120609981Y-67973815D01*
X120651788Y-68012684D01*
G37*
G36*
X122553468Y-59933025D02*
G01*
X122331831Y-59828300D01*
X122143635Y-59679802D01*
X121992675Y-59490784D01*
X121882743Y-59264498D01*
X121817635Y-59004198D01*
X121803472Y-58850781D01*
X121818713Y-58592565D01*
X121821130Y-58583163D01*
X122576838Y-58583163D01*
X122592201Y-58689207D01*
X122611536Y-58739807D01*
X122690713Y-58847005D01*
X122802408Y-58920647D01*
X122932171Y-58953167D01*
X123065553Y-58937003D01*
X123116333Y-58914299D01*
X123221045Y-58833473D01*
X123310238Y-58722539D01*
X123367675Y-58599628D01*
X123371174Y-58586023D01*
X123384054Y-58495849D01*
X123390991Y-58375371D01*
X123390547Y-58246773D01*
X123381540Y-58002265D01*
X123111029Y-57993936D01*
X123093922Y-57993414D01*
X122972263Y-57990813D01*
X122892049Y-57993839D01*
X122838881Y-58005409D01*
X122798358Y-58028440D01*
X122756083Y-58065850D01*
X122746878Y-58074827D01*
X122679602Y-58151970D01*
X122629443Y-58226911D01*
X122628005Y-58229722D01*
X122596857Y-58327146D01*
X122579096Y-58453718D01*
X122576838Y-58583163D01*
X121821130Y-58583163D01*
X121881446Y-58348492D01*
X121989271Y-58130773D01*
X121995095Y-58121746D01*
X122048911Y-58036687D01*
X122087011Y-57973548D01*
X122101472Y-57945417D01*
X122097142Y-57942007D01*
X122053886Y-57932680D01*
X121979219Y-57924814D01*
X121856965Y-57915968D01*
X121847339Y-57757758D01*
X121846670Y-57744697D01*
X121845132Y-57647195D01*
X121846614Y-57511541D01*
X121850826Y-57353897D01*
X121857481Y-57190425D01*
X121877250Y-56781303D01*
X121967787Y-56828124D01*
X121972959Y-56830671D01*
X122005233Y-56842278D01*
X122052027Y-56852163D01*
X122118716Y-56860622D01*
X122210676Y-56867950D01*
X122333284Y-56874444D01*
X122491916Y-56880400D01*
X122691947Y-56886112D01*
X122938754Y-56891877D01*
X123237712Y-56897990D01*
X123525016Y-56903840D01*
X123790001Y-56910132D01*
X124009156Y-56916928D01*
X124188594Y-56924869D01*
X124334429Y-56934592D01*
X124452772Y-56946737D01*
X124549736Y-56961944D01*
X124631436Y-56980851D01*
X124703982Y-57004098D01*
X124773489Y-57032323D01*
X124846069Y-57066167D01*
X124924589Y-57112759D01*
X125053535Y-57219914D01*
X125171583Y-57351472D01*
X125260640Y-57488978D01*
X125321998Y-57638243D01*
X125379149Y-57868727D01*
X125410196Y-58129086D01*
X125414470Y-58406905D01*
X125391304Y-58689765D01*
X125340030Y-58965248D01*
X125335399Y-58984377D01*
X125308891Y-59098577D01*
X125277890Y-59237637D01*
X125248179Y-59375710D01*
X125241308Y-59407989D01*
X125215453Y-59517908D01*
X125193795Y-59582384D01*
X125172378Y-59610682D01*
X125147245Y-59612065D01*
X125106735Y-59596220D01*
X125024425Y-59561288D01*
X124913713Y-59512925D01*
X124786942Y-59456459D01*
X124728471Y-59429892D01*
X124607025Y-59371354D01*
X124529711Y-59327020D01*
X124489479Y-59292462D01*
X124479277Y-59263252D01*
X124479624Y-59260226D01*
X124493732Y-59204139D01*
X124523034Y-59114435D01*
X124561710Y-59009060D01*
X124583572Y-58947509D01*
X124628158Y-58775463D01*
X124653372Y-58600044D01*
X124658461Y-58435345D01*
X124642670Y-58295458D01*
X124605248Y-58194476D01*
X124577660Y-58158552D01*
X124479164Y-58078391D01*
X124351786Y-58016270D01*
X124215742Y-57983156D01*
X124170016Y-57979686D01*
X124141908Y-57991131D01*
X124132374Y-58032396D01*
X124132858Y-58117327D01*
X124133176Y-58187973D01*
X124128048Y-58343080D01*
X124116775Y-58518296D01*
X124100817Y-58698096D01*
X124081638Y-58866954D01*
X124060697Y-59009344D01*
X124039455Y-59109740D01*
X124035920Y-59122118D01*
X123937139Y-59379359D01*
X123803177Y-59595992D01*
X123637297Y-59769268D01*
X123442762Y-59896438D01*
X123222833Y-59974756D01*
X122980773Y-60001472D01*
X122932171Y-59998505D01*
X122804753Y-59990725D01*
X122553468Y-59933025D01*
G37*
G36*
X120499118Y-62596072D02*
G01*
X120573877Y-62600509D01*
X120619816Y-62609382D01*
X120645896Y-62623571D01*
X120661081Y-62643958D01*
X120674121Y-62683376D01*
X120652814Y-62747974D01*
X120649162Y-62752623D01*
X120617353Y-62775918D01*
X120561355Y-62791790D01*
X120470055Y-62802386D01*
X120332343Y-62809849D01*
X120253156Y-62813329D01*
X120146102Y-62819154D01*
X120071121Y-62824692D01*
X120040925Y-62829102D01*
X120041163Y-62833071D01*
X120063982Y-62867130D01*
X120111026Y-62922219D01*
X120122397Y-62934667D01*
X120234186Y-63058274D01*
X120346740Y-63184673D01*
X120453503Y-63306286D01*
X120547920Y-63415532D01*
X120623432Y-63504832D01*
X120673484Y-63566607D01*
X120691519Y-63593277D01*
X120687576Y-63608295D01*
X120663648Y-63654700D01*
X120656456Y-63663110D01*
X120627878Y-63677510D01*
X120574750Y-63687275D01*
X120488832Y-63693114D01*
X120361887Y-63695737D01*
X120185678Y-63695852D01*
X120161823Y-63695740D01*
X119996076Y-63694248D01*
X119877660Y-63691003D01*
X119797484Y-63684961D01*
X119746457Y-63675080D01*
X119715488Y-63660317D01*
X119695487Y-63639630D01*
X119671132Y-63586879D01*
X119688315Y-63546448D01*
X119751409Y-63517461D01*
X119864172Y-63498205D01*
X120030362Y-63486969D01*
X120113999Y-63483024D01*
X120219223Y-63476046D01*
X120291282Y-63468658D01*
X120318007Y-63461921D01*
X120312502Y-63453181D01*
X120276143Y-63408269D01*
X120211396Y-63332521D01*
X120124867Y-63233612D01*
X120023160Y-63119220D01*
X119971359Y-63060952D01*
X119871983Y-62946620D01*
X119788965Y-62847747D01*
X119729786Y-62773339D01*
X119701924Y-62732403D01*
X119692484Y-62708516D01*
X119689411Y-62670256D01*
X119712234Y-62642238D01*
X119767275Y-62622713D01*
X119860859Y-62609931D01*
X119999308Y-62602141D01*
X120188945Y-62597592D01*
X120227279Y-62596988D01*
X120386572Y-62595192D01*
X120499118Y-62596072D01*
G37*
G36*
X126330617Y-70476695D02*
G01*
X126030236Y-70478156D01*
X125683504Y-70479241D01*
X125287627Y-70479982D01*
X124839810Y-70480414D01*
X124337258Y-70480569D01*
X123968107Y-70480439D01*
X123568189Y-70479952D01*
X123187210Y-70479128D01*
X122829029Y-70477992D01*
X122497505Y-70476570D01*
X122196497Y-70474884D01*
X121929865Y-70472962D01*
X121701468Y-70470827D01*
X121515166Y-70468504D01*
X121374817Y-70466018D01*
X121284280Y-70463395D01*
X121247415Y-70460658D01*
X121200296Y-70428121D01*
X121172371Y-70348494D01*
X121172295Y-70347850D01*
X121170707Y-70304548D01*
X121169238Y-70207743D01*
X121167899Y-70061284D01*
X121167084Y-69930487D01*
X121846284Y-69930487D01*
X121848176Y-70009544D01*
X121854097Y-70043640D01*
X121870877Y-70045175D01*
X121927650Y-70028419D01*
X122006253Y-69993300D01*
X122139988Y-69925595D01*
X126350208Y-69925595D01*
X126483938Y-69996699D01*
X126617667Y-70067804D01*
X126617667Y-69335091D01*
X126617036Y-69162535D01*
X126614867Y-68981226D01*
X126611377Y-68826926D01*
X126606797Y-68707264D01*
X126601361Y-68629872D01*
X126595302Y-68602378D01*
X126568975Y-68610919D01*
X126516197Y-68641434D01*
X126462541Y-68672854D01*
X126395640Y-68698617D01*
X126309948Y-68718179D01*
X126197721Y-68732515D01*
X126051213Y-68742603D01*
X125862679Y-68749419D01*
X125624374Y-68753942D01*
X125548974Y-68754877D01*
X125365491Y-68756173D01*
X125202121Y-68755973D01*
X125068213Y-68754368D01*
X124973122Y-68751445D01*
X124926198Y-68747295D01*
X124918948Y-68744690D01*
X124912654Y-68731388D01*
X124927681Y-68705698D01*
X124968143Y-68663926D01*
X125038154Y-68602381D01*
X125141828Y-68517369D01*
X125283279Y-68405197D01*
X125466620Y-68262172D01*
X125676938Y-68099907D01*
X125875351Y-67949827D01*
X126038954Y-67830325D01*
X126172734Y-67738125D01*
X126281675Y-67669948D01*
X126370763Y-67622518D01*
X126444984Y-67592558D01*
X126509324Y-67576790D01*
X126617667Y-67559465D01*
X126617667Y-66002708D01*
X126337203Y-66275712D01*
X126330472Y-66282256D01*
X126211686Y-66395678D01*
X126093738Y-66504909D01*
X125989934Y-66597810D01*
X125913577Y-66662241D01*
X125846320Y-66715915D01*
X125760312Y-66785435D01*
X125697835Y-66836948D01*
X125644385Y-66881060D01*
X125556632Y-66952301D01*
X125442637Y-67044199D01*
X125309507Y-67151084D01*
X125164351Y-67267287D01*
X125014277Y-67387136D01*
X124866393Y-67504962D01*
X124727809Y-67615095D01*
X124605632Y-67711864D01*
X124506971Y-67789601D01*
X124438933Y-67842634D01*
X124408629Y-67865293D01*
X124385616Y-67868017D01*
X124318805Y-67840662D01*
X124221653Y-67775527D01*
X124187666Y-67750256D01*
X124097947Y-67684542D01*
X123975268Y-67595427D01*
X123828343Y-67489219D01*
X123665883Y-67372222D01*
X123496602Y-67250743D01*
X123323706Y-67126593D01*
X122998845Y-66891368D01*
X122716133Y-66683810D01*
X122476710Y-66504777D01*
X122281714Y-66355124D01*
X122132284Y-66235709D01*
X122029558Y-66147387D01*
X122028972Y-66146849D01*
X121954807Y-66080482D01*
X121898194Y-66032925D01*
X121892922Y-66029295D01*
X121871348Y-66014441D01*
X121871024Y-66014618D01*
X121867287Y-66046359D01*
X121863929Y-66127673D01*
X121861083Y-66251218D01*
X121858885Y-66409647D01*
X121857467Y-66595617D01*
X121856965Y-66801783D01*
X121856965Y-67590083D01*
X121986410Y-67607583D01*
X122058003Y-67624124D01*
X122171622Y-67665148D01*
X122281849Y-67718204D01*
X122304357Y-67731332D01*
X122389228Y-67785042D01*
X122503144Y-67861093D01*
X122639162Y-67954482D01*
X122790340Y-68060202D01*
X122949734Y-68173250D01*
X123110401Y-68288621D01*
X123265399Y-68401310D01*
X123407785Y-68506312D01*
X123530615Y-68598623D01*
X123626947Y-68673238D01*
X123689838Y-68725151D01*
X123712344Y-68749359D01*
X123697306Y-68754251D01*
X123633450Y-68759185D01*
X123527814Y-68762280D01*
X123389440Y-68763661D01*
X123227373Y-68763455D01*
X123050656Y-68761788D01*
X122868331Y-68758785D01*
X122689442Y-68754573D01*
X122523031Y-68749277D01*
X122378143Y-68743023D01*
X122263821Y-68735938D01*
X122189107Y-68728147D01*
X122174529Y-68725510D01*
X122077318Y-68697513D01*
X121980557Y-68656923D01*
X121871348Y-68601209D01*
X121871217Y-68997320D01*
X121869952Y-69163045D01*
X121866144Y-69361134D01*
X121860411Y-69551745D01*
X121853380Y-69709853D01*
X121848449Y-69818901D01*
X121846284Y-69930487D01*
X121167084Y-69930487D01*
X121166701Y-69869021D01*
X121165654Y-69634804D01*
X121164769Y-69362483D01*
X121164057Y-69055907D01*
X121163528Y-68718927D01*
X121163193Y-68355391D01*
X121163063Y-67969151D01*
X121163149Y-67564055D01*
X121163461Y-67143953D01*
X121163511Y-67095719D01*
X121164151Y-66594323D01*
X121164991Y-66147357D01*
X121166067Y-65751976D01*
X121167417Y-65405337D01*
X121169076Y-65104597D01*
X121171081Y-64846910D01*
X121173469Y-64629435D01*
X121176277Y-64449326D01*
X121178719Y-64340382D01*
X121871348Y-64340382D01*
X121871348Y-65018719D01*
X121871715Y-65143289D01*
X121873631Y-65321411D01*
X121876962Y-65473662D01*
X121881455Y-65592126D01*
X121886859Y-65668889D01*
X121892922Y-65696036D01*
X121927197Y-65684174D01*
X121986410Y-65653907D01*
X121994757Y-65650668D01*
X122057595Y-65640741D01*
X122169359Y-65632085D01*
X122323449Y-65624700D01*
X122513262Y-65618585D01*
X122732197Y-65613738D01*
X122973652Y-65610160D01*
X123231025Y-65607850D01*
X123497714Y-65606806D01*
X123767118Y-65607028D01*
X124032635Y-65608515D01*
X124287664Y-65611266D01*
X124525602Y-65615281D01*
X124739848Y-65620560D01*
X124923801Y-65627100D01*
X125070857Y-65634901D01*
X125174417Y-65643963D01*
X125227877Y-65654285D01*
X125248988Y-65662655D01*
X125313882Y-65682083D01*
X125347799Y-65682061D01*
X125349330Y-65677934D01*
X125354755Y-65629915D01*
X125360499Y-65535729D01*
X125366170Y-65404082D01*
X125371375Y-65243679D01*
X125375722Y-65063224D01*
X125376032Y-65047860D01*
X126735810Y-65047860D01*
X126776553Y-65231668D01*
X126857538Y-65389116D01*
X126970905Y-65510100D01*
X127109370Y-65590435D01*
X127265646Y-65625937D01*
X127432449Y-65612420D01*
X127602493Y-65545699D01*
X127711135Y-65465220D01*
X127808181Y-65338160D01*
X127864549Y-65190510D01*
X127880739Y-65032865D01*
X127857252Y-64875817D01*
X127794589Y-64729962D01*
X127693251Y-64605894D01*
X127553738Y-64514206D01*
X127429700Y-64474306D01*
X127262506Y-64467004D01*
X127103224Y-64508101D01*
X126962080Y-64592866D01*
X126849294Y-64716570D01*
X126775089Y-64874482D01*
X126760281Y-64927028D01*
X126741740Y-65004336D01*
X126735810Y-65047860D01*
X125376032Y-65047860D01*
X125387895Y-64460136D01*
X123726505Y-64460136D01*
X123398839Y-64460099D01*
X123097211Y-64459879D01*
X122844184Y-64459318D01*
X122635127Y-64458258D01*
X122465409Y-64456542D01*
X122330401Y-64454011D01*
X122225471Y-64450509D01*
X122145989Y-64445878D01*
X122087324Y-64439959D01*
X122044847Y-64432595D01*
X122013926Y-64423629D01*
X121989931Y-64412903D01*
X121968231Y-64400259D01*
X121871348Y-64340382D01*
X121178719Y-64340382D01*
X121179540Y-64303740D01*
X121183296Y-64189833D01*
X121187580Y-64104762D01*
X121192431Y-64045682D01*
X121197884Y-64009751D01*
X121203975Y-63994123D01*
X121218984Y-63988164D01*
X121254699Y-63982609D01*
X121313770Y-63977622D01*
X121399045Y-63973162D01*
X121513374Y-63969188D01*
X121659602Y-63965656D01*
X121840578Y-63962525D01*
X122059151Y-63959754D01*
X122318167Y-63957300D01*
X122620475Y-63955122D01*
X122968923Y-63953178D01*
X123366358Y-63951425D01*
X123815629Y-63949823D01*
X124319583Y-63948328D01*
X124490979Y-63947854D01*
X124978003Y-63946488D01*
X125411940Y-63945382D01*
X125796138Y-63944714D01*
X126133945Y-63944659D01*
X126428709Y-63945393D01*
X126683780Y-63947092D01*
X126902506Y-63949933D01*
X127088234Y-63954090D01*
X127244314Y-63959741D01*
X127374093Y-63967061D01*
X127480921Y-63976225D01*
X127568145Y-63987411D01*
X127639114Y-64000794D01*
X127697176Y-64016550D01*
X127745680Y-64034854D01*
X127787974Y-64055884D01*
X127827407Y-64079814D01*
X127867326Y-64106822D01*
X127911081Y-64137082D01*
X127941711Y-64158690D01*
X128126499Y-64327064D01*
X128263767Y-64527068D01*
X128351933Y-64755809D01*
X128389412Y-65010397D01*
X128390523Y-65043868D01*
X128376607Y-65261903D01*
X128321067Y-65455810D01*
X128219046Y-65637735D01*
X128065684Y-65819826D01*
X127923627Y-65944165D01*
X127742845Y-66052034D01*
X127559740Y-66111538D01*
X127451869Y-66131146D01*
X127451869Y-68269356D01*
X127451762Y-68675412D01*
X127451392Y-69027746D01*
X127450682Y-69330150D01*
X127449554Y-69586423D01*
X127447933Y-69800364D01*
X127445741Y-69975775D01*
X127442902Y-70116455D01*
X127439339Y-70226205D01*
X127434976Y-70308823D01*
X127429735Y-70368110D01*
X127423540Y-70407867D01*
X127416315Y-70431893D01*
X127407982Y-70443987D01*
X127400495Y-70447462D01*
X127370286Y-70453133D01*
X127316089Y-70458161D01*
X127265646Y-70460914D01*
X127235108Y-70462580D01*
X127124549Y-70466422D01*
X126981615Y-70469721D01*
X126803512Y-70472511D01*
X126617667Y-70474501D01*
X126587444Y-70474825D01*
X126330617Y-70476695D01*
G37*
%TO.C,R3*%
X152167000Y-43018064D02*
X152167000Y-41563936D01*
X150347000Y-43018064D02*
X150347000Y-41563936D01*
%TO.C,R6*%
X104265000Y-43018064D02*
X104265000Y-41563936D01*
X106085000Y-43018064D02*
X106085000Y-41563936D01*
%TO.C,R2*%
X144166000Y-43018064D02*
X144166000Y-41563936D01*
X142346000Y-43018064D02*
X142346000Y-41563936D01*
%TO.C,R5*%
X85450000Y-49241064D02*
X85450000Y-47786936D01*
X87270000Y-49241064D02*
X87270000Y-47786936D01*
%TO.C,G\u002A\u002A\u002A*%
G36*
X107157218Y-52279457D02*
G01*
X107139936Y-52574001D01*
X107109099Y-52855014D01*
X107063765Y-53130862D01*
X107002992Y-53409908D01*
X106951850Y-53606231D01*
X106821061Y-54018509D01*
X106662330Y-54417719D01*
X106476655Y-54802624D01*
X106265038Y-55171988D01*
X106028480Y-55524574D01*
X105767980Y-55859147D01*
X105484541Y-56174469D01*
X105179161Y-56469304D01*
X104852843Y-56742417D01*
X104506586Y-56992570D01*
X104141392Y-57218527D01*
X103758260Y-57419052D01*
X103564742Y-57507618D01*
X103204599Y-57651235D01*
X102836289Y-57770453D01*
X102455735Y-57866378D01*
X102058862Y-57940113D01*
X101641594Y-57992763D01*
X101597193Y-57995649D01*
X101518323Y-57997834D01*
X101417571Y-57998640D01*
X101300265Y-57998190D01*
X101171731Y-57996608D01*
X101037298Y-57994016D01*
X100902293Y-57990538D01*
X100772042Y-57986297D01*
X100651874Y-57981417D01*
X100547116Y-57976019D01*
X100463095Y-57970229D01*
X100405139Y-57964168D01*
X100174991Y-57927735D01*
X99748739Y-57839674D01*
X99340674Y-57727079D01*
X98948810Y-57589212D01*
X98571159Y-57425337D01*
X98205735Y-57234716D01*
X97850549Y-57016613D01*
X97715653Y-56924783D01*
X97367370Y-56662084D01*
X97041725Y-56377976D01*
X96739404Y-56073589D01*
X96461091Y-55750055D01*
X96207472Y-55408503D01*
X95979230Y-55050064D01*
X95777051Y-54675870D01*
X95601619Y-54287052D01*
X95453620Y-53884739D01*
X95333737Y-53470064D01*
X95242657Y-53044156D01*
X95181062Y-52608147D01*
X95179003Y-52587687D01*
X95169688Y-52462634D01*
X95163086Y-52315462D01*
X95159201Y-52153827D01*
X95158036Y-51985386D01*
X95158194Y-51968408D01*
X96138634Y-51968408D01*
X96138978Y-52073865D01*
X96140765Y-52183766D01*
X96144756Y-52278905D01*
X96151693Y-52368442D01*
X96162320Y-52461535D01*
X96177381Y-52567343D01*
X96197618Y-52695025D01*
X96231522Y-52891878D01*
X96272332Y-53097002D01*
X96316869Y-53283786D01*
X96367403Y-53459347D01*
X96426204Y-53630802D01*
X96495541Y-53805267D01*
X96577683Y-53989860D01*
X96674900Y-54191698D01*
X96712933Y-54267779D01*
X96758276Y-54356726D01*
X96797933Y-54432559D01*
X96829865Y-54491456D01*
X96852034Y-54529597D01*
X96862400Y-54543159D01*
X96865905Y-54541707D01*
X96881643Y-54521116D01*
X96899686Y-54483924D01*
X96899920Y-54483351D01*
X96912059Y-54456283D01*
X96936429Y-54403946D01*
X96971581Y-54329384D01*
X97016070Y-54235638D01*
X97068449Y-54125751D01*
X97127270Y-54002765D01*
X97191086Y-53869722D01*
X97258450Y-53729664D01*
X97313399Y-53615479D01*
X97385699Y-53464973D01*
X97456656Y-53316986D01*
X97524202Y-53175841D01*
X97586273Y-53045859D01*
X97640804Y-52931362D01*
X97685728Y-52836671D01*
X97718981Y-52766107D01*
X97767408Y-52662901D01*
X97831668Y-52526694D01*
X97884056Y-52416736D01*
X97925309Y-52331510D01*
X97956165Y-52269497D01*
X97977361Y-52229180D01*
X97989636Y-52209041D01*
X97999059Y-52192433D01*
X98019227Y-52151163D01*
X98046294Y-52092825D01*
X98077334Y-52023992D01*
X98109423Y-51951237D01*
X98139635Y-51881134D01*
X98165044Y-51820256D01*
X98182726Y-51775175D01*
X98204369Y-51716208D01*
X98059949Y-51530337D01*
X97994461Y-51445597D01*
X97918809Y-51346951D01*
X97843868Y-51248594D01*
X97779028Y-51162811D01*
X97718801Y-51083839D01*
X97646347Y-50990902D01*
X97574210Y-50900136D01*
X97511568Y-50823197D01*
X97507310Y-50818056D01*
X97455711Y-50755051D01*
X97409922Y-50697930D01*
X97374780Y-50652794D01*
X97355119Y-50625746D01*
X97338195Y-50601562D01*
X97305236Y-50556921D01*
X97262250Y-50500089D01*
X97214238Y-50437737D01*
X97170759Y-50379401D01*
X97134635Y-50326162D01*
X97111047Y-50285744D01*
X97103705Y-50263981D01*
X97105611Y-50259637D01*
X97113709Y-50253989D01*
X97130608Y-50249367D01*
X97159156Y-50245639D01*
X97202202Y-50242672D01*
X97262595Y-50240334D01*
X97343184Y-50238491D01*
X97446819Y-50237013D01*
X97576348Y-50235765D01*
X97734619Y-50234615D01*
X98360677Y-50230486D01*
X98422617Y-50305697D01*
X98434429Y-50320352D01*
X98476461Y-50375270D01*
X98524772Y-50441319D01*
X98571097Y-50507276D01*
X98607832Y-50560787D01*
X98668892Y-50648990D01*
X98729438Y-50735316D01*
X98794298Y-50826580D01*
X98868300Y-50929601D01*
X98956270Y-51051196D01*
X98980525Y-51084705D01*
X99046317Y-51176101D01*
X99113385Y-51269879D01*
X99175092Y-51356739D01*
X99224802Y-51427385D01*
X99335375Y-51585760D01*
X99344974Y-50849068D01*
X99345179Y-50833239D01*
X99347401Y-50647627D01*
X99349553Y-50444001D01*
X99351565Y-50230626D01*
X99353367Y-50015771D01*
X99354891Y-49807702D01*
X99356065Y-49614688D01*
X99356821Y-49444994D01*
X99359069Y-48777612D01*
X100527974Y-48777612D01*
X100527974Y-54243035D01*
X99359069Y-54243035D01*
X99359069Y-53143653D01*
X99223149Y-52962778D01*
X99208097Y-52942809D01*
X99156823Y-52875674D01*
X99110694Y-52816547D01*
X99074265Y-52771217D01*
X99052096Y-52745475D01*
X99016962Y-52709047D01*
X98950426Y-52856047D01*
X98931217Y-52898062D01*
X98903367Y-52957443D01*
X98881225Y-53002811D01*
X98868360Y-53026741D01*
X98859808Y-53041399D01*
X98839277Y-53080699D01*
X98815479Y-53129415D01*
X98804496Y-53152465D01*
X98778041Y-53207580D01*
X98740275Y-53285997D01*
X98692660Y-53384697D01*
X98636655Y-53500664D01*
X98573723Y-53630880D01*
X98505322Y-53772328D01*
X98432914Y-53921991D01*
X98357958Y-54076852D01*
X98281916Y-54233892D01*
X98206248Y-54390096D01*
X98132415Y-54542446D01*
X98061876Y-54687925D01*
X97996093Y-54823514D01*
X97936526Y-54946198D01*
X97884635Y-55052959D01*
X97841881Y-55140780D01*
X97646833Y-55540950D01*
X97709201Y-55594835D01*
X97794285Y-55667664D01*
X97915220Y-55768936D01*
X98031932Y-55864183D01*
X98140579Y-55950373D01*
X98237320Y-56024472D01*
X98318312Y-56083447D01*
X98379715Y-56124265D01*
X98471960Y-56180393D01*
X98550835Y-56227657D01*
X98618945Y-56267205D01*
X98684110Y-56303374D01*
X98754151Y-56340500D01*
X98836889Y-56382918D01*
X98940145Y-56434964D01*
X99100819Y-56513034D01*
X99273979Y-56590160D01*
X99443705Y-56657222D01*
X99614999Y-56715646D01*
X99792866Y-56766858D01*
X99982310Y-56812287D01*
X100188334Y-56853357D01*
X100415942Y-56891495D01*
X100670138Y-56928128D01*
X100679095Y-56929261D01*
X100746986Y-56935257D01*
X100837916Y-56940313D01*
X100944608Y-56944292D01*
X101059791Y-56947056D01*
X101176189Y-56948464D01*
X101286529Y-56948379D01*
X101383537Y-56946663D01*
X101459939Y-56943176D01*
X101476942Y-56941887D01*
X101562707Y-56933309D01*
X101657688Y-56921299D01*
X101744268Y-56908034D01*
X101766877Y-56904168D01*
X101860385Y-56888525D01*
X101961665Y-56871990D01*
X102052447Y-56857555D01*
X102143051Y-56841705D01*
X102360772Y-56791716D01*
X102592000Y-56723788D01*
X102829917Y-56640231D01*
X103067704Y-56543356D01*
X103298541Y-56435473D01*
X103472629Y-56346494D01*
X103637941Y-56256987D01*
X103784878Y-56170885D01*
X103919336Y-56084379D01*
X104047212Y-55993662D01*
X104174401Y-55894927D01*
X104306800Y-55784367D01*
X104452010Y-55655534D01*
X104696306Y-55418833D01*
X104919042Y-55176320D01*
X105117005Y-54931590D01*
X105286983Y-54688233D01*
X105288441Y-54685956D01*
X105340197Y-54601488D01*
X105400410Y-54497505D01*
X105464202Y-54382775D01*
X105526694Y-54266069D01*
X105583006Y-54156157D01*
X105661450Y-53993974D01*
X105753505Y-53786225D01*
X105830703Y-53586602D01*
X105895556Y-53387176D01*
X105950577Y-53180022D01*
X105998279Y-52957212D01*
X106041176Y-52710821D01*
X106056862Y-52610854D01*
X106072712Y-52504784D01*
X106084394Y-52416231D01*
X106092538Y-52337543D01*
X106097775Y-52261069D01*
X106100735Y-52179156D01*
X106102049Y-52084153D01*
X106102347Y-51968408D01*
X106102343Y-51960804D01*
X106101566Y-51855028D01*
X106099589Y-51753388D01*
X106096631Y-51662746D01*
X106092914Y-51589967D01*
X106088657Y-51541915D01*
X106081216Y-51487641D01*
X106057927Y-51332493D01*
X106031563Y-51174685D01*
X106003115Y-51019076D01*
X105973576Y-50870526D01*
X105943939Y-50733894D01*
X105915197Y-50614038D01*
X105888343Y-50515818D01*
X105864369Y-50444092D01*
X105854757Y-50418995D01*
X105831832Y-50357359D01*
X105804779Y-50283085D01*
X105777618Y-50207152D01*
X105758010Y-50155336D01*
X105714606Y-50052822D01*
X105659927Y-49933787D01*
X105597215Y-49804695D01*
X105529714Y-49672009D01*
X105460668Y-49542190D01*
X105393319Y-49421703D01*
X105330910Y-49317009D01*
X105321084Y-49301172D01*
X105281182Y-49236066D01*
X105248763Y-49181900D01*
X105226938Y-49143942D01*
X105218824Y-49127457D01*
X105218074Y-49124809D01*
X105204499Y-49102686D01*
X105179412Y-49069838D01*
X105140569Y-49022450D01*
X105139888Y-50499378D01*
X105139670Y-50700039D01*
X105139145Y-50922720D01*
X105138345Y-51141156D01*
X105137295Y-51352309D01*
X105136020Y-51553141D01*
X105134542Y-51740611D01*
X105132888Y-51911683D01*
X105131080Y-52063317D01*
X105129142Y-52192474D01*
X105127100Y-52296117D01*
X105124978Y-52371207D01*
X105124135Y-52394612D01*
X105110748Y-52766107D01*
X105045298Y-52963557D01*
X105017037Y-53044256D01*
X104983253Y-53132479D01*
X104950123Y-53211787D01*
X104921915Y-53271526D01*
X104908332Y-53296765D01*
X104814027Y-53447202D01*
X104698816Y-53597856D01*
X104569616Y-53740957D01*
X104433344Y-53868738D01*
X104296918Y-53973427D01*
X104285582Y-53981003D01*
X104176094Y-54048014D01*
X104057894Y-54110951D01*
X103939337Y-54165910D01*
X103828777Y-54208986D01*
X103734566Y-54236274D01*
X103727334Y-54237867D01*
X103666089Y-54252927D01*
X103615004Y-54268045D01*
X103584504Y-54280171D01*
X103570202Y-54284702D01*
X103522717Y-54291138D01*
X103446471Y-54296476D01*
X103343201Y-54300606D01*
X103214642Y-54303421D01*
X103207624Y-54303526D01*
X103089452Y-54304814D01*
X102998134Y-54304610D01*
X102929192Y-54302708D01*
X102878148Y-54298898D01*
X102840525Y-54292972D01*
X102811843Y-54284724D01*
X102802713Y-54281469D01*
X102750887Y-54264806D01*
X102683613Y-54244997D01*
X102613049Y-54225653D01*
X102498218Y-54190678D01*
X102363550Y-54135101D01*
X102228297Y-54061785D01*
X102083882Y-53966531D01*
X102011575Y-53910832D01*
X101926867Y-53838160D01*
X101838586Y-53756564D01*
X101753978Y-53672971D01*
X101680285Y-53594307D01*
X101624751Y-53527499D01*
X101623191Y-53525421D01*
X101524901Y-53373672D01*
X101436270Y-53194952D01*
X101358831Y-52992771D01*
X101294119Y-52770640D01*
X101288982Y-52749940D01*
X101275036Y-52689460D01*
X101265467Y-52636088D01*
X101259626Y-52582088D01*
X101256867Y-52519724D01*
X101256542Y-52441260D01*
X101257353Y-52384499D01*
X102265536Y-52384499D01*
X102265760Y-52405193D01*
X102269975Y-52485607D01*
X102278429Y-52563006D01*
X102289679Y-52623117D01*
X102338894Y-52761498D01*
X102419032Y-52902958D01*
X102522961Y-53029695D01*
X102647107Y-53138082D01*
X102787894Y-53224486D01*
X102941750Y-53285280D01*
X102988997Y-53296593D01*
X103069789Y-53309395D01*
X103156767Y-53317741D01*
X103237654Y-53320551D01*
X103300176Y-53316748D01*
X103330276Y-53311713D01*
X103493946Y-53266963D01*
X103643714Y-53196710D01*
X103777139Y-53103721D01*
X103891780Y-52990765D01*
X103985195Y-52860609D01*
X104054943Y-52716020D01*
X104098582Y-52559765D01*
X104113671Y-52394612D01*
X104111345Y-52321075D01*
X104087168Y-52160032D01*
X104035655Y-52012549D01*
X103955463Y-51875381D01*
X103845253Y-51745286D01*
X103757562Y-51665982D01*
X103618777Y-51573073D01*
X103470688Y-51507941D01*
X103316575Y-51470684D01*
X103159720Y-51461405D01*
X103003407Y-51480204D01*
X102850916Y-51527182D01*
X102705529Y-51602441D01*
X102570530Y-51706080D01*
X102497125Y-51779699D01*
X102395305Y-51913693D01*
X102322989Y-52058663D01*
X102279844Y-52215351D01*
X102265536Y-52384499D01*
X101257353Y-52384499D01*
X101258004Y-52338961D01*
X101258365Y-52319833D01*
X101260879Y-52220465D01*
X101264706Y-52142864D01*
X101270871Y-52078601D01*
X101280401Y-52019243D01*
X101294320Y-51956363D01*
X101313655Y-51881530D01*
X101319007Y-51861929D01*
X101388431Y-51655208D01*
X101477387Y-51460164D01*
X101582740Y-51282879D01*
X101701355Y-51129437D01*
X101772566Y-51051345D01*
X101902312Y-50920936D01*
X102028200Y-50812661D01*
X102156569Y-50722287D01*
X102293754Y-50645586D01*
X102446092Y-50578328D01*
X102619920Y-50516282D01*
X102824242Y-50449684D01*
X103631892Y-50462602D01*
X103789852Y-50518173D01*
X103831098Y-50533077D01*
X103908699Y-50562914D01*
X103979034Y-50592025D01*
X104030742Y-50615807D01*
X104113671Y-50657871D01*
X104113671Y-47988291D01*
X104038640Y-47931221D01*
X103996653Y-47900888D01*
X103910530Y-47844143D01*
X103805641Y-47779769D01*
X103687040Y-47710488D01*
X103559780Y-47639021D01*
X103428914Y-47568088D01*
X103299496Y-47500411D01*
X103176580Y-47438712D01*
X103065219Y-47385711D01*
X102970467Y-47344129D01*
X102897377Y-47316688D01*
X102885406Y-47312773D01*
X102823633Y-47291427D01*
X102749404Y-47264521D01*
X102676233Y-47236930D01*
X102602171Y-47211559D01*
X102498822Y-47181651D01*
X102377975Y-47150666D01*
X102246787Y-47120258D01*
X102112413Y-47092080D01*
X101982011Y-47067786D01*
X101862738Y-47049027D01*
X101806372Y-47040793D01*
X101732948Y-47028859D01*
X101672336Y-47017651D01*
X101633800Y-47008795D01*
X101624550Y-47006842D01*
X101580999Y-47002420D01*
X101512955Y-46998830D01*
X101425514Y-46996075D01*
X101323775Y-46994153D01*
X101212836Y-46993065D01*
X101097794Y-46992811D01*
X100983746Y-46993391D01*
X100875791Y-46994804D01*
X100779026Y-46997051D01*
X100698549Y-47000132D01*
X100639458Y-47004047D01*
X100606850Y-47008795D01*
X100581281Y-47014960D01*
X100525716Y-47025694D01*
X100454838Y-47037592D01*
X100377912Y-47049027D01*
X100267576Y-47066249D01*
X100137729Y-47090204D01*
X100003401Y-47118161D01*
X99871750Y-47148464D01*
X99749930Y-47179463D01*
X99645101Y-47209502D01*
X99564417Y-47236930D01*
X99546873Y-47243660D01*
X99472164Y-47271546D01*
X99399793Y-47297530D01*
X99343273Y-47316735D01*
X99312646Y-47327771D01*
X99241936Y-47357499D01*
X99151964Y-47398841D01*
X99047830Y-47449187D01*
X98934636Y-47505923D01*
X98817484Y-47566436D01*
X98701473Y-47628115D01*
X98591706Y-47688347D01*
X98493284Y-47744519D01*
X98411307Y-47794019D01*
X98311054Y-47859419D01*
X98141315Y-47981646D01*
X97970172Y-48120005D01*
X97792990Y-48278330D01*
X97605130Y-48460454D01*
X97458393Y-48611520D01*
X97295776Y-48791481D01*
X97151348Y-48968308D01*
X97020214Y-49148820D01*
X96897481Y-49339837D01*
X96778256Y-49548177D01*
X96657643Y-49780659D01*
X96605936Y-49886285D01*
X96519168Y-50074881D01*
X96445500Y-50253655D01*
X96382761Y-50429512D01*
X96328776Y-50609351D01*
X96281372Y-50800076D01*
X96238378Y-51008589D01*
X96197618Y-51241791D01*
X96180892Y-51346613D01*
X96164882Y-51455962D01*
X96153450Y-51550812D01*
X96145853Y-51640324D01*
X96141347Y-51733654D01*
X96139188Y-51839963D01*
X96138634Y-51968408D01*
X95158194Y-51968408D01*
X95159593Y-51817794D01*
X95163875Y-51658707D01*
X95170884Y-51515782D01*
X95180624Y-51396674D01*
X95195957Y-51265266D01*
X95266476Y-50832348D01*
X95366151Y-50409717D01*
X95494277Y-49998552D01*
X95650146Y-49600032D01*
X95833052Y-49215336D01*
X96042288Y-48845643D01*
X96277147Y-48492132D01*
X96536923Y-48155981D01*
X96820909Y-47838371D01*
X97128398Y-47540479D01*
X97458684Y-47263485D01*
X97811059Y-47008568D01*
X98006145Y-46882885D01*
X98372842Y-46673420D01*
X98750250Y-46492164D01*
X99140101Y-46338469D01*
X99544124Y-46211685D01*
X99964049Y-46111162D01*
X100401606Y-46036252D01*
X100462228Y-46029148D01*
X100571369Y-46020171D01*
X100701372Y-46012678D01*
X100845940Y-46006791D01*
X100998776Y-46002630D01*
X101153585Y-46000317D01*
X101304068Y-45999973D01*
X101443931Y-46001717D01*
X101566876Y-46005672D01*
X101666607Y-46011959D01*
X101929040Y-46040506D01*
X102354380Y-46111410D01*
X102769737Y-46211185D01*
X103173911Y-46338884D01*
X103565704Y-46493564D01*
X103943916Y-46674278D01*
X104307348Y-46880083D01*
X104654803Y-47110032D01*
X104985080Y-47363181D01*
X105296981Y-47638583D01*
X105589307Y-47935296D01*
X105860860Y-48252372D01*
X106110439Y-48588867D01*
X106336847Y-48943836D01*
X106538885Y-49316333D01*
X106715353Y-49705414D01*
X106865052Y-50110134D01*
X106923844Y-50297254D01*
X107012656Y-50628936D01*
X107079716Y-50957679D01*
X107126182Y-51290855D01*
X107153212Y-51635838D01*
X107161205Y-51968408D01*
X107161964Y-52000000D01*
X107157218Y-52279457D01*
G37*
%TO.C,R4*%
X162671000Y-49495064D02*
X162671000Y-48040936D01*
X160851000Y-49495064D02*
X160851000Y-48040936D01*
%TO.C,G\u002A\u002A\u002A*%
G36*
X153237218Y-52279457D02*
G01*
X153219936Y-52574001D01*
X153189099Y-52855014D01*
X153143765Y-53130862D01*
X153082992Y-53409908D01*
X153031850Y-53606231D01*
X152901061Y-54018509D01*
X152742330Y-54417719D01*
X152556655Y-54802624D01*
X152345038Y-55171988D01*
X152108480Y-55524574D01*
X151847980Y-55859147D01*
X151564541Y-56174469D01*
X151259161Y-56469304D01*
X150932843Y-56742417D01*
X150586586Y-56992570D01*
X150221392Y-57218527D01*
X149838260Y-57419052D01*
X149644742Y-57507618D01*
X149284599Y-57651235D01*
X148916289Y-57770453D01*
X148535735Y-57866378D01*
X148138862Y-57940113D01*
X147721594Y-57992763D01*
X147677193Y-57995649D01*
X147598323Y-57997834D01*
X147497571Y-57998640D01*
X147380265Y-57998190D01*
X147251731Y-57996608D01*
X147117298Y-57994016D01*
X146982293Y-57990538D01*
X146852042Y-57986297D01*
X146731874Y-57981417D01*
X146627116Y-57976019D01*
X146543095Y-57970229D01*
X146485139Y-57964168D01*
X146254991Y-57927735D01*
X145828739Y-57839674D01*
X145420674Y-57727079D01*
X145028810Y-57589212D01*
X144651159Y-57425337D01*
X144285735Y-57234716D01*
X143930549Y-57016613D01*
X143795653Y-56924783D01*
X143447370Y-56662084D01*
X143121725Y-56377976D01*
X142819404Y-56073589D01*
X142541091Y-55750055D01*
X142287472Y-55408503D01*
X142059230Y-55050064D01*
X141857051Y-54675870D01*
X141681619Y-54287052D01*
X141533620Y-53884739D01*
X141413737Y-53470064D01*
X141322657Y-53044156D01*
X141261062Y-52608147D01*
X141259003Y-52587687D01*
X141249688Y-52462634D01*
X141243086Y-52315462D01*
X141239201Y-52153827D01*
X141238036Y-51985386D01*
X141238194Y-51968408D01*
X142218634Y-51968408D01*
X142218978Y-52073865D01*
X142220765Y-52183766D01*
X142224756Y-52278905D01*
X142231693Y-52368442D01*
X142242320Y-52461535D01*
X142257381Y-52567343D01*
X142277618Y-52695025D01*
X142311522Y-52891878D01*
X142352332Y-53097002D01*
X142396869Y-53283786D01*
X142447403Y-53459347D01*
X142506204Y-53630802D01*
X142575541Y-53805267D01*
X142657683Y-53989860D01*
X142754900Y-54191698D01*
X142792933Y-54267779D01*
X142838276Y-54356726D01*
X142877933Y-54432559D01*
X142909865Y-54491456D01*
X142932034Y-54529597D01*
X142942400Y-54543159D01*
X142945905Y-54541707D01*
X142961643Y-54521116D01*
X142979686Y-54483924D01*
X142979920Y-54483351D01*
X142992059Y-54456283D01*
X143016429Y-54403946D01*
X143051581Y-54329384D01*
X143096070Y-54235638D01*
X143148449Y-54125751D01*
X143207270Y-54002765D01*
X143271086Y-53869722D01*
X143338450Y-53729664D01*
X143393399Y-53615479D01*
X143465699Y-53464973D01*
X143536656Y-53316986D01*
X143604202Y-53175841D01*
X143666273Y-53045859D01*
X143720804Y-52931362D01*
X143765728Y-52836671D01*
X143798981Y-52766107D01*
X143847408Y-52662901D01*
X143911668Y-52526694D01*
X143964056Y-52416736D01*
X144005309Y-52331510D01*
X144036165Y-52269497D01*
X144057361Y-52229180D01*
X144069636Y-52209041D01*
X144079059Y-52192433D01*
X144099227Y-52151163D01*
X144126294Y-52092825D01*
X144157334Y-52023992D01*
X144189423Y-51951237D01*
X144219635Y-51881134D01*
X144245044Y-51820256D01*
X144262726Y-51775175D01*
X144284369Y-51716208D01*
X144139949Y-51530337D01*
X144074461Y-51445597D01*
X143998809Y-51346951D01*
X143923868Y-51248594D01*
X143859028Y-51162811D01*
X143798801Y-51083839D01*
X143726347Y-50990902D01*
X143654210Y-50900136D01*
X143591568Y-50823197D01*
X143587310Y-50818056D01*
X143535711Y-50755051D01*
X143489922Y-50697930D01*
X143454780Y-50652794D01*
X143435119Y-50625746D01*
X143418195Y-50601562D01*
X143385236Y-50556921D01*
X143342250Y-50500089D01*
X143294238Y-50437737D01*
X143250759Y-50379401D01*
X143214635Y-50326162D01*
X143191047Y-50285744D01*
X143183705Y-50263981D01*
X143185611Y-50259637D01*
X143193709Y-50253989D01*
X143210608Y-50249367D01*
X143239156Y-50245639D01*
X143282202Y-50242672D01*
X143342595Y-50240334D01*
X143423184Y-50238491D01*
X143526819Y-50237013D01*
X143656348Y-50235765D01*
X143814619Y-50234615D01*
X144440677Y-50230486D01*
X144502617Y-50305697D01*
X144514429Y-50320352D01*
X144556461Y-50375270D01*
X144604772Y-50441319D01*
X144651097Y-50507276D01*
X144687832Y-50560787D01*
X144748892Y-50648990D01*
X144809438Y-50735316D01*
X144874298Y-50826580D01*
X144948300Y-50929601D01*
X145036270Y-51051196D01*
X145060525Y-51084705D01*
X145126317Y-51176101D01*
X145193385Y-51269879D01*
X145255092Y-51356739D01*
X145304802Y-51427385D01*
X145415375Y-51585760D01*
X145424974Y-50849068D01*
X145425179Y-50833239D01*
X145427401Y-50647627D01*
X145429553Y-50444001D01*
X145431565Y-50230626D01*
X145433367Y-50015771D01*
X145434891Y-49807702D01*
X145436065Y-49614688D01*
X145436821Y-49444994D01*
X145439069Y-48777612D01*
X146607974Y-48777612D01*
X146607974Y-54243035D01*
X145439069Y-54243035D01*
X145439069Y-53143653D01*
X145303149Y-52962778D01*
X145288097Y-52942809D01*
X145236823Y-52875674D01*
X145190694Y-52816547D01*
X145154265Y-52771217D01*
X145132096Y-52745475D01*
X145096962Y-52709047D01*
X145030426Y-52856047D01*
X145011217Y-52898062D01*
X144983367Y-52957443D01*
X144961225Y-53002811D01*
X144948360Y-53026741D01*
X144939808Y-53041399D01*
X144919277Y-53080699D01*
X144895479Y-53129415D01*
X144884496Y-53152465D01*
X144858041Y-53207580D01*
X144820275Y-53285997D01*
X144772660Y-53384697D01*
X144716655Y-53500664D01*
X144653723Y-53630880D01*
X144585322Y-53772328D01*
X144512914Y-53921991D01*
X144437958Y-54076852D01*
X144361916Y-54233892D01*
X144286248Y-54390096D01*
X144212415Y-54542446D01*
X144141876Y-54687925D01*
X144076093Y-54823514D01*
X144016526Y-54946198D01*
X143964635Y-55052959D01*
X143921881Y-55140780D01*
X143726833Y-55540950D01*
X143789201Y-55594835D01*
X143874285Y-55667664D01*
X143995220Y-55768936D01*
X144111932Y-55864183D01*
X144220579Y-55950373D01*
X144317320Y-56024472D01*
X144398312Y-56083447D01*
X144459715Y-56124265D01*
X144551960Y-56180393D01*
X144630835Y-56227657D01*
X144698945Y-56267205D01*
X144764110Y-56303374D01*
X144834151Y-56340500D01*
X144916889Y-56382918D01*
X145020145Y-56434964D01*
X145180819Y-56513034D01*
X145353979Y-56590160D01*
X145523705Y-56657222D01*
X145694999Y-56715646D01*
X145872866Y-56766858D01*
X146062310Y-56812287D01*
X146268334Y-56853357D01*
X146495942Y-56891495D01*
X146750138Y-56928128D01*
X146759095Y-56929261D01*
X146826986Y-56935257D01*
X146917916Y-56940313D01*
X147024608Y-56944292D01*
X147139791Y-56947056D01*
X147256189Y-56948464D01*
X147366529Y-56948379D01*
X147463537Y-56946663D01*
X147539939Y-56943176D01*
X147556942Y-56941887D01*
X147642707Y-56933309D01*
X147737688Y-56921299D01*
X147824268Y-56908034D01*
X147846877Y-56904168D01*
X147940385Y-56888525D01*
X148041665Y-56871990D01*
X148132447Y-56857555D01*
X148223051Y-56841705D01*
X148440772Y-56791716D01*
X148672000Y-56723788D01*
X148909917Y-56640231D01*
X149147704Y-56543356D01*
X149378541Y-56435473D01*
X149552629Y-56346494D01*
X149717941Y-56256987D01*
X149864878Y-56170885D01*
X149999336Y-56084379D01*
X150127212Y-55993662D01*
X150254401Y-55894927D01*
X150386800Y-55784367D01*
X150532010Y-55655534D01*
X150776306Y-55418833D01*
X150999042Y-55176320D01*
X151197005Y-54931590D01*
X151366983Y-54688233D01*
X151368441Y-54685956D01*
X151420197Y-54601488D01*
X151480410Y-54497505D01*
X151544202Y-54382775D01*
X151606694Y-54266069D01*
X151663006Y-54156157D01*
X151741450Y-53993974D01*
X151833505Y-53786225D01*
X151910703Y-53586602D01*
X151975556Y-53387176D01*
X152030577Y-53180022D01*
X152078279Y-52957212D01*
X152121176Y-52710821D01*
X152136862Y-52610854D01*
X152152712Y-52504784D01*
X152164394Y-52416231D01*
X152172538Y-52337543D01*
X152177775Y-52261069D01*
X152180735Y-52179156D01*
X152182049Y-52084153D01*
X152182347Y-51968408D01*
X152182343Y-51960804D01*
X152181566Y-51855028D01*
X152179589Y-51753388D01*
X152176631Y-51662746D01*
X152172914Y-51589967D01*
X152168657Y-51541915D01*
X152161216Y-51487641D01*
X152137927Y-51332493D01*
X152111563Y-51174685D01*
X152083115Y-51019076D01*
X152053576Y-50870526D01*
X152023939Y-50733894D01*
X151995197Y-50614038D01*
X151968343Y-50515818D01*
X151944369Y-50444092D01*
X151934757Y-50418995D01*
X151911832Y-50357359D01*
X151884779Y-50283085D01*
X151857618Y-50207152D01*
X151838010Y-50155336D01*
X151794606Y-50052822D01*
X151739927Y-49933787D01*
X151677215Y-49804695D01*
X151609714Y-49672009D01*
X151540668Y-49542190D01*
X151473319Y-49421703D01*
X151410910Y-49317009D01*
X151401084Y-49301172D01*
X151361182Y-49236066D01*
X151328763Y-49181900D01*
X151306938Y-49143942D01*
X151298824Y-49127457D01*
X151298074Y-49124809D01*
X151284499Y-49102686D01*
X151259412Y-49069838D01*
X151220569Y-49022450D01*
X151219888Y-50499378D01*
X151219670Y-50700039D01*
X151219145Y-50922720D01*
X151218345Y-51141156D01*
X151217295Y-51352309D01*
X151216020Y-51553141D01*
X151214542Y-51740611D01*
X151212888Y-51911683D01*
X151211080Y-52063317D01*
X151209142Y-52192474D01*
X151207100Y-52296117D01*
X151204978Y-52371207D01*
X151204135Y-52394612D01*
X151190748Y-52766107D01*
X151125298Y-52963557D01*
X151097037Y-53044256D01*
X151063253Y-53132479D01*
X151030123Y-53211787D01*
X151001915Y-53271526D01*
X150988332Y-53296765D01*
X150894027Y-53447202D01*
X150778816Y-53597856D01*
X150649616Y-53740957D01*
X150513344Y-53868738D01*
X150376918Y-53973427D01*
X150365582Y-53981003D01*
X150256094Y-54048014D01*
X150137894Y-54110951D01*
X150019337Y-54165910D01*
X149908777Y-54208986D01*
X149814566Y-54236274D01*
X149807334Y-54237867D01*
X149746089Y-54252927D01*
X149695004Y-54268045D01*
X149664504Y-54280171D01*
X149650202Y-54284702D01*
X149602717Y-54291138D01*
X149526471Y-54296476D01*
X149423201Y-54300606D01*
X149294642Y-54303421D01*
X149287624Y-54303526D01*
X149169452Y-54304814D01*
X149078134Y-54304610D01*
X149009192Y-54302708D01*
X148958148Y-54298898D01*
X148920525Y-54292972D01*
X148891843Y-54284724D01*
X148882713Y-54281469D01*
X148830887Y-54264806D01*
X148763613Y-54244997D01*
X148693049Y-54225653D01*
X148578218Y-54190678D01*
X148443550Y-54135101D01*
X148308297Y-54061785D01*
X148163882Y-53966531D01*
X148091575Y-53910832D01*
X148006867Y-53838160D01*
X147918586Y-53756564D01*
X147833978Y-53672971D01*
X147760285Y-53594307D01*
X147704751Y-53527499D01*
X147703191Y-53525421D01*
X147604901Y-53373672D01*
X147516270Y-53194952D01*
X147438831Y-52992771D01*
X147374119Y-52770640D01*
X147368982Y-52749940D01*
X147355036Y-52689460D01*
X147345467Y-52636088D01*
X147339626Y-52582088D01*
X147336867Y-52519724D01*
X147336542Y-52441260D01*
X147337353Y-52384499D01*
X148345536Y-52384499D01*
X148345760Y-52405193D01*
X148349975Y-52485607D01*
X148358429Y-52563006D01*
X148369679Y-52623117D01*
X148418894Y-52761498D01*
X148499032Y-52902958D01*
X148602961Y-53029695D01*
X148727107Y-53138082D01*
X148867894Y-53224486D01*
X149021750Y-53285280D01*
X149068997Y-53296593D01*
X149149789Y-53309395D01*
X149236767Y-53317741D01*
X149317654Y-53320551D01*
X149380176Y-53316748D01*
X149410276Y-53311713D01*
X149573946Y-53266963D01*
X149723714Y-53196710D01*
X149857139Y-53103721D01*
X149971780Y-52990765D01*
X150065195Y-52860609D01*
X150134943Y-52716020D01*
X150178582Y-52559765D01*
X150193671Y-52394612D01*
X150191345Y-52321075D01*
X150167168Y-52160032D01*
X150115655Y-52012549D01*
X150035463Y-51875381D01*
X149925253Y-51745286D01*
X149837562Y-51665982D01*
X149698777Y-51573073D01*
X149550688Y-51507941D01*
X149396575Y-51470684D01*
X149239720Y-51461405D01*
X149083407Y-51480204D01*
X148930916Y-51527182D01*
X148785529Y-51602441D01*
X148650530Y-51706080D01*
X148577125Y-51779699D01*
X148475305Y-51913693D01*
X148402989Y-52058663D01*
X148359844Y-52215351D01*
X148345536Y-52384499D01*
X147337353Y-52384499D01*
X147338004Y-52338961D01*
X147338365Y-52319833D01*
X147340879Y-52220465D01*
X147344706Y-52142864D01*
X147350871Y-52078601D01*
X147360401Y-52019243D01*
X147374320Y-51956363D01*
X147393655Y-51881530D01*
X147399007Y-51861929D01*
X147468431Y-51655208D01*
X147557387Y-51460164D01*
X147662740Y-51282879D01*
X147781355Y-51129437D01*
X147852566Y-51051345D01*
X147982312Y-50920936D01*
X148108200Y-50812661D01*
X148236569Y-50722287D01*
X148373754Y-50645586D01*
X148526092Y-50578328D01*
X148699920Y-50516282D01*
X148904242Y-50449684D01*
X149711892Y-50462602D01*
X149869852Y-50518173D01*
X149911098Y-50533077D01*
X149988699Y-50562914D01*
X150059034Y-50592025D01*
X150110742Y-50615807D01*
X150193671Y-50657871D01*
X150193671Y-47988291D01*
X150118640Y-47931221D01*
X150076653Y-47900888D01*
X149990530Y-47844143D01*
X149885641Y-47779769D01*
X149767040Y-47710488D01*
X149639780Y-47639021D01*
X149508914Y-47568088D01*
X149379496Y-47500411D01*
X149256580Y-47438712D01*
X149145219Y-47385711D01*
X149050467Y-47344129D01*
X148977377Y-47316688D01*
X148965406Y-47312773D01*
X148903633Y-47291427D01*
X148829404Y-47264521D01*
X148756233Y-47236930D01*
X148682171Y-47211559D01*
X148578822Y-47181651D01*
X148457975Y-47150666D01*
X148326787Y-47120258D01*
X148192413Y-47092080D01*
X148062011Y-47067786D01*
X147942738Y-47049027D01*
X147886372Y-47040793D01*
X147812948Y-47028859D01*
X147752336Y-47017651D01*
X147713800Y-47008795D01*
X147704550Y-47006842D01*
X147660999Y-47002420D01*
X147592955Y-46998830D01*
X147505514Y-46996075D01*
X147403775Y-46994153D01*
X147292836Y-46993065D01*
X147177794Y-46992811D01*
X147063746Y-46993391D01*
X146955791Y-46994804D01*
X146859026Y-46997051D01*
X146778549Y-47000132D01*
X146719458Y-47004047D01*
X146686850Y-47008795D01*
X146661281Y-47014960D01*
X146605716Y-47025694D01*
X146534838Y-47037592D01*
X146457912Y-47049027D01*
X146347576Y-47066249D01*
X146217729Y-47090204D01*
X146083401Y-47118161D01*
X145951750Y-47148464D01*
X145829930Y-47179463D01*
X145725101Y-47209502D01*
X145644417Y-47236930D01*
X145626873Y-47243660D01*
X145552164Y-47271546D01*
X145479793Y-47297530D01*
X145423273Y-47316735D01*
X145392646Y-47327771D01*
X145321936Y-47357499D01*
X145231964Y-47398841D01*
X145127830Y-47449187D01*
X145014636Y-47505923D01*
X144897484Y-47566436D01*
X144781473Y-47628115D01*
X144671706Y-47688347D01*
X144573284Y-47744519D01*
X144491307Y-47794019D01*
X144391054Y-47859419D01*
X144221315Y-47981646D01*
X144050172Y-48120005D01*
X143872990Y-48278330D01*
X143685130Y-48460454D01*
X143538393Y-48611520D01*
X143375776Y-48791481D01*
X143231348Y-48968308D01*
X143100214Y-49148820D01*
X142977481Y-49339837D01*
X142858256Y-49548177D01*
X142737643Y-49780659D01*
X142685936Y-49886285D01*
X142599168Y-50074881D01*
X142525500Y-50253655D01*
X142462761Y-50429512D01*
X142408776Y-50609351D01*
X142361372Y-50800076D01*
X142318378Y-51008589D01*
X142277618Y-51241791D01*
X142260892Y-51346613D01*
X142244882Y-51455962D01*
X142233450Y-51550812D01*
X142225853Y-51640324D01*
X142221347Y-51733654D01*
X142219188Y-51839963D01*
X142218634Y-51968408D01*
X141238194Y-51968408D01*
X141239593Y-51817794D01*
X141243875Y-51658707D01*
X141250884Y-51515782D01*
X141260624Y-51396674D01*
X141275957Y-51265266D01*
X141346476Y-50832348D01*
X141446151Y-50409717D01*
X141574277Y-49998552D01*
X141730146Y-49600032D01*
X141913052Y-49215336D01*
X142122288Y-48845643D01*
X142357147Y-48492132D01*
X142616923Y-48155981D01*
X142900909Y-47838371D01*
X143208398Y-47540479D01*
X143538684Y-47263485D01*
X143891059Y-47008568D01*
X144086145Y-46882885D01*
X144452842Y-46673420D01*
X144830250Y-46492164D01*
X145220101Y-46338469D01*
X145624124Y-46211685D01*
X146044049Y-46111162D01*
X146481606Y-46036252D01*
X146542228Y-46029148D01*
X146651369Y-46020171D01*
X146781372Y-46012678D01*
X146925940Y-46006791D01*
X147078776Y-46002630D01*
X147233585Y-46000317D01*
X147384068Y-45999973D01*
X147523931Y-46001717D01*
X147646876Y-46005672D01*
X147746607Y-46011959D01*
X148009040Y-46040506D01*
X148434380Y-46111410D01*
X148849737Y-46211185D01*
X149253911Y-46338884D01*
X149645704Y-46493564D01*
X150023916Y-46674278D01*
X150387348Y-46880083D01*
X150734803Y-47110032D01*
X151065080Y-47363181D01*
X151376981Y-47638583D01*
X151669307Y-47935296D01*
X151940860Y-48252372D01*
X152190439Y-48588867D01*
X152416847Y-48943836D01*
X152618885Y-49316333D01*
X152795353Y-49705414D01*
X152945052Y-50110134D01*
X153003844Y-50297254D01*
X153092656Y-50628936D01*
X153159716Y-50957679D01*
X153206182Y-51290855D01*
X153233212Y-51635838D01*
X153241205Y-51968408D01*
X153241964Y-52000000D01*
X153237218Y-52279457D01*
G37*
%TD*%
%LPC*%
D14*
%TO.C,H3*%
X132216000Y-25230000D03*
%TD*%
D15*
%TO.C,J12*%
X98443999Y-73482200D03*
D16*
X98443999Y-76022200D03*
X98443999Y-78562200D03*
X98443999Y-81102200D03*
X98443999Y-83642200D03*
X98443999Y-86182200D03*
%TD*%
D15*
%TO.C,J5*%
X155575000Y-73500000D03*
D16*
X155575000Y-76040000D03*
X155575000Y-78580000D03*
X155575000Y-81120000D03*
X155575000Y-83660000D03*
X155575000Y-86200000D03*
%TD*%
D15*
%TO.C,J7*%
X92855999Y-73482200D03*
D16*
X92855999Y-76022200D03*
X92855999Y-78562200D03*
X92855999Y-81102200D03*
X92855999Y-83642200D03*
X92855999Y-86182200D03*
%TD*%
D15*
%TO.C,J11*%
X149944666Y-73500000D03*
D16*
X149944666Y-76040000D03*
X149944666Y-78580000D03*
X149944666Y-81120000D03*
X149944666Y-83660000D03*
X149944666Y-86200000D03*
%TD*%
D15*
%TO.C,J3*%
X161786000Y-39000000D03*
D16*
X161786000Y-41540000D03*
X161786000Y-44080000D03*
%TD*%
D14*
%TO.C,H4*%
X166800000Y-53150000D03*
%TD*%
D15*
%TO.C,J9*%
X144314333Y-73482200D03*
D16*
X144314333Y-76022200D03*
X144314333Y-78562200D03*
X144314333Y-81102200D03*
X144314333Y-83642200D03*
%TD*%
D14*
%TO.C,H2*%
X81376000Y-53080000D03*
%TD*%
D15*
%TO.C,J4*%
X86341000Y-39000000D03*
D16*
X86341000Y-41540000D03*
X86341000Y-44080000D03*
%TD*%
D15*
%TO.C,J8*%
X109619999Y-73482200D03*
D16*
X109619999Y-76022200D03*
X109619999Y-78562200D03*
X109619999Y-81102200D03*
X109619999Y-83642200D03*
X109619999Y-86182200D03*
%TD*%
D14*
%TO.C,H1*%
X115951000Y-25180000D03*
%TD*%
D15*
%TO.C,J6*%
X104031998Y-73482200D03*
D16*
X104031998Y-76022200D03*
X104031998Y-78562200D03*
X104031998Y-81102200D03*
X104031998Y-83642200D03*
%TD*%
D15*
%TO.C,J10*%
X138684000Y-73482200D03*
D16*
X138684000Y-76022200D03*
X138684000Y-78562200D03*
X138684000Y-81102200D03*
X138684000Y-83642200D03*
X138684000Y-86182200D03*
%TD*%
D17*
%TO.C,R8*%
X97174000Y-43841000D03*
X97174000Y-40741000D03*
%TD*%
%TO.C,R7*%
X101174500Y-43841000D03*
X101174500Y-40741000D03*
%TD*%
D18*
%TO.C,J2*%
X159011000Y-22450000D03*
D19*
X162211000Y-20850000D03*
X162211000Y-27850000D03*
D18*
X164511000Y-25450000D03*
X164511000Y-22450000D03*
D20*
X160011000Y-30200000D03*
D21*
X164511000Y-29450000D03*
%TD*%
D19*
%TO.C,J1*%
X86766000Y-20725000D03*
X86766000Y-27725000D03*
D18*
X83566000Y-22325000D03*
X89066000Y-25325000D03*
X89066000Y-22325000D03*
D20*
X84566000Y-30075000D03*
D21*
X89066000Y-29325000D03*
%TD*%
D17*
%TO.C,R1*%
X147256500Y-43841000D03*
X147256500Y-40741000D03*
%TD*%
D22*
%TO.C,U2*%
X154860000Y-23080000D03*
X154860000Y-25620000D03*
X154860000Y-28160000D03*
X154860000Y-30700000D03*
X154860000Y-33240000D03*
X154860000Y-35780000D03*
X154860000Y-38320000D03*
X154860000Y-40860000D03*
X154860000Y-43400000D03*
X154860000Y-45940000D03*
X154860000Y-48480000D03*
X154860000Y-51020000D03*
X154860000Y-53560000D03*
X154860000Y-56100000D03*
X154860000Y-58640000D03*
X154860000Y-61180000D03*
X154860000Y-63720000D03*
X154860000Y-66260000D03*
X154860000Y-68800000D03*
X139620000Y-68800000D03*
X139620000Y-66260000D03*
X139620000Y-63720000D03*
X139620000Y-61180000D03*
X139620000Y-58640000D03*
X139620000Y-56100000D03*
X139620000Y-53560000D03*
X139620000Y-51020000D03*
X139620000Y-48480000D03*
X139620000Y-45940000D03*
X139620000Y-43400000D03*
X139620000Y-40860000D03*
X139620000Y-38320000D03*
X139620000Y-35780000D03*
X139620000Y-33240000D03*
X139620000Y-30700000D03*
X139620000Y-28160000D03*
X139620000Y-25620000D03*
X139620000Y-23080000D03*
%TD*%
D17*
%TO.C,R3*%
X151257000Y-43841000D03*
X151257000Y-40741000D03*
%TD*%
%TO.C,R6*%
X105175000Y-43841000D03*
X105175000Y-40741000D03*
%TD*%
%TO.C,R2*%
X143256000Y-43841000D03*
X143256000Y-40741000D03*
%TD*%
%TO.C,R5*%
X86360000Y-50064000D03*
X86360000Y-46964000D03*
%TD*%
D23*
%TO.C,SW2*%
X99409996Y-61797000D03*
X99359996Y-67997000D03*
X102859996Y-67897000D03*
X102859996Y-61797000D03*
%TD*%
D22*
%TO.C,U1*%
X108780000Y-23090000D03*
X108780000Y-25630000D03*
X108780000Y-28170000D03*
X108780000Y-30710000D03*
X108780000Y-33250000D03*
X108780000Y-35790000D03*
X108780000Y-38330000D03*
X108780000Y-40870000D03*
X108780000Y-43410000D03*
X108780000Y-45950000D03*
X108780000Y-48490000D03*
X108780000Y-51030000D03*
X108780000Y-53570000D03*
X108780000Y-56110000D03*
X108780000Y-58650000D03*
X108780000Y-61190000D03*
X108780000Y-63730000D03*
X108780000Y-66270000D03*
X108780000Y-68810000D03*
X93540000Y-68810000D03*
X93540000Y-66270000D03*
X93540000Y-63730000D03*
X93540000Y-61190000D03*
X93540000Y-58650000D03*
X93540000Y-56110000D03*
X93540000Y-53570000D03*
X93540000Y-51030000D03*
X93540000Y-48490000D03*
X93540000Y-45950000D03*
X93540000Y-43410000D03*
X93540000Y-40870000D03*
X93540000Y-38330000D03*
X93540000Y-35790000D03*
X93540000Y-33250000D03*
X93540000Y-30710000D03*
X93540000Y-28170000D03*
X93540000Y-25630000D03*
X93540000Y-23090000D03*
%TD*%
D17*
%TO.C,R4*%
X161761000Y-50318000D03*
X161761000Y-47218000D03*
%TD*%
D23*
%TO.C,SW1*%
X145440000Y-67997000D03*
X145490000Y-61797000D03*
X148940000Y-67897000D03*
X148940000Y-61797000D03*
%TD*%
M02*
