M48
; DRILL file {KiCad (6.0.2)} date Thu Apr 21 21:08:18 2022
; FORMAT={-:-/ absolute / metric / decimal}
; #@! TF.CreationDate,2022-04-21T21:08:18+10:00
; #@! TF.GenerationSoftware,Kicad,Pcbnew,(6.0.2)
; #@! TF.FileFunction,Plated,1,2,PTH
FMAT,2
METRIC
; #@! TA.AperFunction,Plated,PTH,ViaDrill
T1C0.305
; #@! TA.AperFunction,Plated,PTH,ComponentDrill
T2C0.400
; #@! TA.AperFunction,Plated,PTH,ComponentDrill
T3C1.000
; #@! TA.AperFunction,Plated,PTH,ComponentDrill
T4C1.500
; #@! TA.AperFunction,Plated,PTH,ComponentDrill
T5C3.200
%
G90
G05
T1
X57.124Y-41.907
X57.125Y-45.7
X59.175Y-38.9
X66.856Y-40.755
T2
X34.639Y-44.308
X36.547Y-35.35
X37.325Y-53.258
X42.639Y-42.808
X42.8Y-28.572
X43.503Y-47.958
X43.85Y-59.039
X44.225Y-38.05
X46.55Y-51.361
X48.099Y-34.75
X51.572Y-25.9
X51.572Y-53.39
X53.072Y-33.9
X53.072Y-61.39
X56.975Y-52.261
X57.85Y-35.489
X60.55Y-27.811
X60.625Y-49.25
X61.286Y-39.15
X62.25Y-44.5
X62.275Y-58.439
X67.464Y-33.85
X68.303Y-51.95
X70.25Y-43.0
T3
X45.0Y-41.1
X45.0Y-43.6
X45.0Y-46.1
X59.5Y-41.1
X59.5Y-46.1
X70.2Y-33.225
X70.2Y-53.95
X72.308Y-34.345
X72.313Y-52.75
X74.55Y-37.18
X74.55Y-39.72
X74.55Y-42.26
X74.55Y-44.8
X74.55Y-47.34
X74.55Y-49.88
T5
X36.75Y-47.75
X64.0Y-32.0
X64.0Y-55.0
T4
X51.85Y-38.0G85X53.15Y-38.0
G05
X51.85Y-49.2G85X53.15Y-49.2
G05
T0
M30
