%TF.GenerationSoftware,KiCad,Pcbnew,6.0.0-rc1-bf2b03b42f~115~ubuntu21.10.1*%
%TF.CreationDate,2021-12-10T15:52:42+01:00*%
%TF.ProjectId,adapter,61646170-7465-4722-9e6b-696361645f70,1.1*%
%TF.SameCoordinates,Original*%
%TF.FileFunction,Soldermask,Bot*%
%TF.FilePolarity,Negative*%
%FSLAX46Y46*%
G04 Gerber Fmt 4.6, Leading zero omitted, Abs format (unit mm)*
G04 Created by KiCad (PCBNEW 6.0.0-rc1-bf2b03b42f~115~ubuntu21.10.1) date 2021-12-10 15:52:42*
%MOMM*%
%LPD*%
G01*
G04 APERTURE LIST*
G04 Aperture macros list*
%AMRoundRect*
0 Rectangle with rounded corners*
0 $1 Rounding radius*
0 $2 $3 $4 $5 $6 $7 $8 $9 X,Y pos of 4 corners*
0 Add a 4 corners polygon primitive as box body*
4,1,4,$2,$3,$4,$5,$6,$7,$8,$9,$2,$3,0*
0 Add four circle primitives for the rounded corners*
1,1,$1+$1,$2,$3*
1,1,$1+$1,$4,$5*
1,1,$1+$1,$6,$7*
1,1,$1+$1,$8,$9*
0 Add four rect primitives between the rounded corners*
20,1,$1+$1,$2,$3,$4,$5,0*
20,1,$1+$1,$4,$5,$6,$7,0*
20,1,$1+$1,$6,$7,$8,$9,0*
20,1,$1+$1,$8,$9,$2,$3,0*%
G04 Aperture macros list end*
%ADD10C,5.000000*%
%ADD11R,1.700000X1.700000*%
%ADD12O,1.700000X1.700000*%
%ADD13RoundRect,0.250000X0.625000X-0.400000X0.625000X0.400000X-0.625000X0.400000X-0.625000X-0.400000X0*%
%ADD14O,1.400000X2.000000*%
%ADD15O,1.500000X1.500000*%
%ADD16O,1.400000X3.500000*%
%ADD17R,1.400000X2.000000*%
%ADD18C,1.700000*%
%ADD19R,1.300000X1.800000*%
G04 APERTURE END LIST*
D10*
%TO.C,H3*%
X132216000Y-25230000D03*
%TD*%
D11*
%TO.C,J12*%
X98443999Y-73482200D03*
D12*
X98443999Y-76022200D03*
X98443999Y-78562200D03*
X98443999Y-81102200D03*
X98443999Y-83642200D03*
X98443999Y-86182200D03*
%TD*%
D11*
%TO.C,J5*%
X155575000Y-73500000D03*
D12*
X155575000Y-76040000D03*
X155575000Y-78580000D03*
X155575000Y-81120000D03*
X155575000Y-83660000D03*
X155575000Y-86200000D03*
%TD*%
D11*
%TO.C,J7*%
X92855999Y-73482200D03*
D12*
X92855999Y-76022200D03*
X92855999Y-78562200D03*
X92855999Y-81102200D03*
X92855999Y-83642200D03*
X92855999Y-86182200D03*
%TD*%
D11*
%TO.C,J11*%
X149944666Y-73500000D03*
D12*
X149944666Y-76040000D03*
X149944666Y-78580000D03*
X149944666Y-81120000D03*
X149944666Y-83660000D03*
X149944666Y-86200000D03*
%TD*%
D11*
%TO.C,J3*%
X161786000Y-39000000D03*
D12*
X161786000Y-41540000D03*
X161786000Y-44080000D03*
%TD*%
D10*
%TO.C,H4*%
X166800000Y-53150000D03*
%TD*%
D11*
%TO.C,J9*%
X144314333Y-73482200D03*
D12*
X144314333Y-76022200D03*
X144314333Y-78562200D03*
X144314333Y-81102200D03*
X144314333Y-83642200D03*
%TD*%
D10*
%TO.C,H2*%
X81376000Y-53080000D03*
%TD*%
D11*
%TO.C,J4*%
X86341000Y-39000000D03*
D12*
X86341000Y-41540000D03*
X86341000Y-44080000D03*
%TD*%
D11*
%TO.C,J8*%
X109619999Y-73482200D03*
D12*
X109619999Y-76022200D03*
X109619999Y-78562200D03*
X109619999Y-81102200D03*
X109619999Y-83642200D03*
X109619999Y-86182200D03*
%TD*%
D10*
%TO.C,H1*%
X115951000Y-25180000D03*
%TD*%
D11*
%TO.C,J6*%
X104031998Y-73482200D03*
D12*
X104031998Y-76022200D03*
X104031998Y-78562200D03*
X104031998Y-81102200D03*
X104031998Y-83642200D03*
%TD*%
D11*
%TO.C,J10*%
X138684000Y-73482200D03*
D12*
X138684000Y-76022200D03*
X138684000Y-78562200D03*
X138684000Y-81102200D03*
X138684000Y-83642200D03*
X138684000Y-86182200D03*
%TD*%
D13*
%TO.C,R8*%
X97174000Y-43841000D03*
X97174000Y-40741000D03*
%TD*%
%TO.C,R7*%
X101174500Y-43841000D03*
X101174500Y-40741000D03*
%TD*%
D14*
%TO.C,J2*%
X159011000Y-22450000D03*
D15*
X162211000Y-20850000D03*
X162211000Y-27850000D03*
D14*
X164511000Y-25450000D03*
X164511000Y-22450000D03*
D16*
X160011000Y-30200000D03*
D17*
X164511000Y-29450000D03*
%TD*%
D15*
%TO.C,J1*%
X86766000Y-20725000D03*
X86766000Y-27725000D03*
D14*
X83566000Y-22325000D03*
X89066000Y-25325000D03*
X89066000Y-22325000D03*
D16*
X84566000Y-30075000D03*
D17*
X89066000Y-29325000D03*
%TD*%
D13*
%TO.C,R1*%
X147256500Y-43841000D03*
X147256500Y-40741000D03*
%TD*%
D18*
%TO.C,U2*%
X154860000Y-23080000D03*
X154860000Y-25620000D03*
X154860000Y-28160000D03*
X154860000Y-30700000D03*
X154860000Y-33240000D03*
X154860000Y-35780000D03*
X154860000Y-38320000D03*
X154860000Y-40860000D03*
X154860000Y-43400000D03*
X154860000Y-45940000D03*
X154860000Y-48480000D03*
X154860000Y-51020000D03*
X154860000Y-53560000D03*
X154860000Y-56100000D03*
X154860000Y-58640000D03*
X154860000Y-61180000D03*
X154860000Y-63720000D03*
X154860000Y-66260000D03*
X154860000Y-68800000D03*
X139620000Y-68800000D03*
X139620000Y-66260000D03*
X139620000Y-63720000D03*
X139620000Y-61180000D03*
X139620000Y-58640000D03*
X139620000Y-56100000D03*
X139620000Y-53560000D03*
X139620000Y-51020000D03*
X139620000Y-48480000D03*
X139620000Y-45940000D03*
X139620000Y-43400000D03*
X139620000Y-40860000D03*
X139620000Y-38320000D03*
X139620000Y-35780000D03*
X139620000Y-33240000D03*
X139620000Y-30700000D03*
X139620000Y-28160000D03*
X139620000Y-25620000D03*
X139620000Y-23080000D03*
%TD*%
D13*
%TO.C,R3*%
X151257000Y-43841000D03*
X151257000Y-40741000D03*
%TD*%
%TO.C,R6*%
X105175000Y-43841000D03*
X105175000Y-40741000D03*
%TD*%
%TO.C,R2*%
X143256000Y-43841000D03*
X143256000Y-40741000D03*
%TD*%
%TO.C,R5*%
X86360000Y-50064000D03*
X86360000Y-46964000D03*
%TD*%
D19*
%TO.C,SW2*%
X99409996Y-61797000D03*
X99359996Y-67997000D03*
X102859996Y-67897000D03*
X102859996Y-61797000D03*
%TD*%
D18*
%TO.C,U1*%
X108780000Y-23090000D03*
X108780000Y-25630000D03*
X108780000Y-28170000D03*
X108780000Y-30710000D03*
X108780000Y-33250000D03*
X108780000Y-35790000D03*
X108780000Y-38330000D03*
X108780000Y-40870000D03*
X108780000Y-43410000D03*
X108780000Y-45950000D03*
X108780000Y-48490000D03*
X108780000Y-51030000D03*
X108780000Y-53570000D03*
X108780000Y-56110000D03*
X108780000Y-58650000D03*
X108780000Y-61190000D03*
X108780000Y-63730000D03*
X108780000Y-66270000D03*
X108780000Y-68810000D03*
X93540000Y-68810000D03*
X93540000Y-66270000D03*
X93540000Y-63730000D03*
X93540000Y-61190000D03*
X93540000Y-58650000D03*
X93540000Y-56110000D03*
X93540000Y-53570000D03*
X93540000Y-51030000D03*
X93540000Y-48490000D03*
X93540000Y-45950000D03*
X93540000Y-43410000D03*
X93540000Y-40870000D03*
X93540000Y-38330000D03*
X93540000Y-35790000D03*
X93540000Y-33250000D03*
X93540000Y-30710000D03*
X93540000Y-28170000D03*
X93540000Y-25630000D03*
X93540000Y-23090000D03*
%TD*%
D13*
%TO.C,R4*%
X161761000Y-50318000D03*
X161761000Y-47218000D03*
%TD*%
D19*
%TO.C,SW1*%
X145440000Y-67997000D03*
X145490000Y-61797000D03*
X148940000Y-67897000D03*
X148940000Y-61797000D03*
%TD*%
M02*
