%FSLAX45Y45*%
G04 Gerber Fmt 4.5, Leading zero omitted, Abs format (unit mm)*
G04 Created by KiCad (PCBNEW 6.0.0-rc1-bf2b03b42f~115~ubuntu21.10.1) date 2021-12-10 15:53:56*
%MOMM*%
%LPD*%
G01*
G04 APERTURE LIST*
%TA.AperFunction,Profile*%
%ADD10C,0.200000*%
%TD*%
%ADD11C,0.200000*%
%ADD12C,0.150000*%
G04 APERTURE END LIST*
D10*
X9588975Y-3863929D02*
X10638265Y-3863929D01*
X11294178Y-5214641D02*
G75*
G03*
X11305386Y-5263788I112498J-197D01*
G01*
X13504878Y-8204070D02*
G75*
G03*
X13320000Y-8290393I-72378J-86126D01*
G01*
X16122808Y-5733132D02*
G75*
G03*
X15869920Y-5987133I-1J-252889D01*
G01*
X13504878Y-5809070D02*
G75*
G03*
X13320000Y-5895393I-72378J-86126D01*
G01*
X10638265Y-3863929D02*
G75*
G03*
X10738265Y-3763929I0J100000D01*
G01*
X7972000Y-4936640D02*
G75*
G03*
X8166198Y-5727773I191061J-372502D01*
G01*
X9244000Y-2128640D02*
G75*
G03*
X9389289Y-2170351I135485J198034D01*
G01*
X12971471Y-4869269D02*
X11866529Y-4863909D01*
X13211000Y-2176000D02*
G75*
G03*
X12864601Y-2527753I56J-346495D01*
G01*
X15733000Y-2092695D02*
G75*
G03*
X15594000Y-2134000I-6044J-234195D01*
G01*
X8350000Y-2087640D02*
G75*
G03*
X8205000Y-2234640I1989J-146975D01*
G01*
X14100289Y-2276000D02*
G75*
G03*
X14000289Y-2176000I-100000J0D01*
G01*
X13545087Y-4870000D02*
G75*
G03*
X13430000Y-4400000I-899220J28903D01*
G01*
X14199735Y-3869289D02*
X15249025Y-3869289D01*
X9489289Y-2270351D02*
G75*
G03*
X9389289Y-2170351I-100000J0D01*
G01*
X8969192Y-5981773D02*
G75*
G03*
X8715192Y-5727773I-254000J0D01*
G01*
X13543822Y-7615001D02*
X13545000Y-5895000D01*
X13504000Y-7701070D02*
G75*
G03*
X13532614Y-7664148I39974J-1431D01*
G01*
X13533621Y-8240892D02*
G75*
G03*
X13504878Y-8204070I11227J38392D01*
G01*
X13584411Y-7952500D02*
G75*
G03*
X13584411Y-7952500I-40000J0D01*
G01*
X13533621Y-5845892D02*
G75*
G03*
X13504878Y-5809070I11227J38392D01*
G01*
X11517999Y-8285033D02*
G75*
G03*
X11333122Y-8198710I-112500J197D01*
G01*
X16633000Y-4553000D02*
G75*
G03*
X16866000Y-4942000I438492J-1636D01*
G01*
X9115692Y-8819537D02*
X11145980Y-8818600D01*
X11333807Y-7822141D02*
G75*
G03*
X11333807Y-7822141I-40000J0D01*
G01*
X15869920Y-5987133D02*
X15869920Y-8680000D01*
X14000289Y-2176000D02*
X13211000Y-2176000D01*
X11334000Y-5300711D02*
G75*
G03*
X11519178Y-5215034I72678J85873D01*
G01*
X15448711Y-2175711D02*
G75*
G03*
X15348711Y-2275711I0J-100000D01*
G01*
X11663020Y-8823797D02*
X13176980Y-8823797D01*
X11518123Y-8676185D02*
X11517999Y-8285033D01*
X14099735Y-3769289D02*
G75*
G03*
X14199735Y-3869289I100000J0D01*
G01*
X11627000Y-2170640D02*
X10837711Y-2170640D01*
X9244000Y-2128640D02*
G75*
G03*
X9105000Y-2087335I-132954J-192886D01*
G01*
X16122808Y-5733132D02*
X16671801Y-5733132D01*
X11292913Y-4864640D02*
X11294178Y-5214641D01*
X16488000Y-2093000D02*
X15733000Y-2092695D01*
X11333371Y-8072140D02*
G75*
G03*
X11333371Y-8072140I-40000J0D01*
G01*
X11304379Y-5840532D02*
G75*
G03*
X11293000Y-5889640I101119J-49304D01*
G01*
X13584411Y-5557501D02*
G75*
G03*
X13584411Y-5557501I-40000J0D01*
G01*
X9488975Y-3763929D02*
X9489289Y-2270351D01*
X13318822Y-7615394D02*
G75*
G03*
X13504000Y-7701070I112500J196D01*
G01*
X13318822Y-5220394D02*
G75*
G03*
X13504000Y-5306070I112500J196D01*
G01*
X16633000Y-4553000D02*
X16633000Y-2240000D01*
X10738265Y-3763929D02*
X10737711Y-2270640D01*
X11973000Y-3084640D02*
X11974351Y-2521765D01*
X8968080Y-8674640D02*
X8969192Y-5981773D01*
X13176980Y-8823797D02*
G75*
G03*
X13321877Y-8676185I-1358J146255D01*
G01*
X11333122Y-5803710D02*
G75*
G03*
X11304379Y-5840532I-39969J1570D01*
G01*
X11304379Y-8235532D02*
G75*
G03*
X11293000Y-8284640I101119J-49304D01*
G01*
X15448711Y-2175711D02*
G75*
G03*
X15594000Y-2134000I9805J239745D01*
G01*
X11974351Y-2521765D02*
G75*
G03*
X11627000Y-2170640I-347410J3696D01*
G01*
X11408000Y-4394640D02*
G75*
G03*
X11292913Y-4864640I784134J-441098D01*
G01*
X8968080Y-8674640D02*
G75*
G03*
X9115692Y-8819537I146255J1358D01*
G01*
X16633000Y-2240000D02*
G75*
G03*
X16488000Y-2093000I-146991J23D01*
G01*
X12980087Y-3560000D02*
X13430000Y-4400000D01*
X11305386Y-5263788D02*
G75*
G03*
X11334000Y-5300710I-11361J-38353D01*
G01*
X13320000Y-8290393D02*
X13321877Y-8676185D01*
X13545000Y-8290000D02*
G75*
G03*
X13533621Y-8240892I-112498J-196D01*
G01*
X16671801Y-5733132D02*
G75*
G03*
X16866000Y-4942000I3137J418631D01*
G01*
X9105000Y-2087335D02*
X8350000Y-2087640D01*
X11334000Y-7695710D02*
G75*
G03*
X11519178Y-7610034I72678J85873D01*
G01*
X15348711Y-2275711D02*
X15349025Y-3769289D01*
X11333807Y-5427141D02*
G75*
G03*
X11333807Y-5427141I-40000J0D01*
G01*
X15722308Y-8824897D02*
G75*
G03*
X15869920Y-8680000I1358J146255D01*
G01*
X9488975Y-3763929D02*
G75*
G03*
X9588975Y-3863929I100000J0D01*
G01*
X13545000Y-8290000D02*
X13545820Y-8676348D01*
X13532614Y-7664148D02*
G75*
G03*
X13543822Y-7615001I-101290J48950D01*
G01*
X12864601Y-2527753D02*
X12865000Y-3090000D01*
X8205000Y-2234640D02*
X8206000Y-4546640D01*
X13584629Y-8077500D02*
G75*
G03*
X13584629Y-8077500I-40000J0D01*
G01*
X13584193Y-7827501D02*
G75*
G03*
X13584193Y-7827501I-40000J0D01*
G01*
X11408000Y-4394640D02*
X11857913Y-3554640D01*
X13543822Y-5220001D02*
X13545087Y-4870000D01*
X11518123Y-8676185D02*
G75*
G03*
X11663020Y-8823797I146255J-1358D01*
G01*
X11333122Y-8198710D02*
G75*
G03*
X11304379Y-8235532I-39969J1570D01*
G01*
X13545820Y-8676348D02*
G75*
G03*
X13692020Y-8823960I146246J-1360D01*
G01*
X11517999Y-5890033D02*
G75*
G03*
X11333122Y-5803710I-112500J197D01*
G01*
X13584629Y-5682500D02*
G75*
G03*
X13584629Y-5682500I-40000J0D01*
G01*
X7972000Y-4936640D02*
G75*
G03*
X8206000Y-4546640I-206376J389026D01*
G01*
X11333589Y-7947141D02*
G75*
G03*
X11333589Y-7947141I-40000J0D01*
G01*
X15249025Y-3869289D02*
G75*
G03*
X15349025Y-3769289I-1J100001D01*
G01*
X11333589Y-5552141D02*
G75*
G03*
X11333589Y-5552141I-40000J0D01*
G01*
X13532614Y-5269148D02*
G75*
G03*
X13543822Y-5220001I-101290J48950D01*
G01*
X13545000Y-5895000D02*
G75*
G03*
X13533621Y-5845892I-112498J-196D01*
G01*
X11293000Y-5889640D02*
X11294178Y-7609641D01*
X10837710Y-2170640D02*
G75*
G03*
X10737711Y-2270640I0J-100000D01*
G01*
X13318822Y-5220394D02*
G75*
G03*
X12971471Y-4869269I-347410J3696D01*
G01*
X11857913Y-3554640D02*
G75*
G03*
X11973000Y-3084640I-784134J441098D01*
G01*
X8166198Y-5727773D02*
X8715192Y-5727773D01*
X11333371Y-5677140D02*
G75*
G03*
X11333371Y-5677140I-40000J0D01*
G01*
X12865000Y-3090000D02*
G75*
G03*
X12980087Y-3560000I899220J-28903D01*
G01*
X13584193Y-5432501D02*
G75*
G03*
X13584193Y-5432501I-40000J0D01*
G01*
X13504000Y-5306070D02*
G75*
G03*
X13532614Y-5269148I39974J-1431D01*
G01*
X14100289Y-2276000D02*
X14099735Y-3769289D01*
X11305386Y-7658788D02*
G75*
G03*
X11334000Y-7695710I-11361J-38353D01*
G01*
X11866529Y-4863909D02*
G75*
G03*
X11519178Y-5215034I56J-347427D01*
G01*
X11519178Y-7610034D02*
X11517999Y-5890033D01*
X11294178Y-7609641D02*
G75*
G03*
X11305386Y-7658788I112498J-197D01*
G01*
X13320000Y-5895393D02*
X13318822Y-7615394D01*
X11145980Y-8818600D02*
G75*
G03*
X11292180Y-8670988I-49J146255D01*
G01*
X11292180Y-8670988D02*
X11293000Y-8284640D01*
X13692020Y-8823960D02*
X15722308Y-8824897D01*
D11*
D12*
X8601600Y-1997500D02*
X8751600Y-2147500D01*
X8751600Y-1997500D02*
X8601600Y-2147500D01*
D11*
X8676600Y-2007500D02*
X8676600Y-2007500D01*
X8676600Y-2137500D02*
X8676600Y-2137500D01*
X8676600Y-2007500D02*
G75*
G03*
X8676600Y-2137500I0J-65000D01*
G01*
X8676600Y-2137500D02*
G75*
G03*
X8676600Y-2007500I0J65000D01*
G01*
D12*
X8601600Y-2697500D02*
X8751600Y-2847500D01*
X8751600Y-2697500D02*
X8601600Y-2847500D01*
D11*
X8676600Y-2707500D02*
X8676600Y-2707500D01*
X8676600Y-2837500D02*
X8676600Y-2837500D01*
X8676600Y-2707500D02*
G75*
G03*
X8676600Y-2837500I0J-65000D01*
G01*
X8676600Y-2837500D02*
G75*
G03*
X8676600Y-2707500I0J65000D01*
G01*
D12*
X16146100Y-2010000D02*
X16296100Y-2160000D01*
X16296100Y-2010000D02*
X16146100Y-2160000D01*
D11*
X16221100Y-2020000D02*
X16221100Y-2020000D01*
X16221100Y-2150000D02*
X16221100Y-2150000D01*
X16221100Y-2020000D02*
G75*
G03*
X16221100Y-2150000I0J-65000D01*
G01*
X16221100Y-2150000D02*
G75*
G03*
X16221100Y-2020000I0J65000D01*
G01*
D12*
X16146100Y-2710000D02*
X16296100Y-2860000D01*
X16296100Y-2710000D02*
X16146100Y-2860000D01*
D11*
X16221100Y-2720000D02*
X16221100Y-2720000D01*
X16221100Y-2850000D02*
X16221100Y-2850000D01*
X16221100Y-2720000D02*
G75*
G03*
X16221100Y-2850000I0J-65000D01*
G01*
X16221100Y-2850000D02*
G75*
G03*
X16221100Y-2720000I0J65000D01*
G01*
X7992037Y-9145379D02*
X7992037Y-8945379D01*
X8039656Y-8945379D01*
X8068228Y-8954903D01*
X8087275Y-8973951D01*
X8096799Y-8992998D01*
X8106323Y-9031094D01*
X8106323Y-9059665D01*
X8096799Y-9097760D01*
X8087275Y-9116808D01*
X8068228Y-9135856D01*
X8039656Y-9145379D01*
X7992037Y-9145379D01*
X8192037Y-9145379D02*
X8192037Y-9012046D01*
X8192037Y-9050141D02*
X8201561Y-9031094D01*
X8211085Y-9021570D01*
X8230133Y-9012046D01*
X8249180Y-9012046D01*
X8315847Y-9145379D02*
X8315847Y-9012046D01*
X8315847Y-8945379D02*
X8306323Y-8954903D01*
X8315847Y-8964427D01*
X8325371Y-8954903D01*
X8315847Y-8945379D01*
X8315847Y-8964427D01*
X8439656Y-9145379D02*
X8420609Y-9135856D01*
X8411085Y-9116808D01*
X8411085Y-8945379D01*
X8544418Y-9145379D02*
X8525371Y-9135856D01*
X8515847Y-9116808D01*
X8515847Y-8945379D01*
X8772990Y-9145379D02*
X8772990Y-8945379D01*
X8839656Y-9088237D01*
X8906323Y-8945379D01*
X8906323Y-9145379D01*
X9087276Y-9145379D02*
X9087276Y-9040617D01*
X9077752Y-9021570D01*
X9058704Y-9012046D01*
X9020609Y-9012046D01*
X9001561Y-9021570D01*
X9087276Y-9135856D02*
X9068228Y-9145379D01*
X9020609Y-9145379D01*
X9001561Y-9135856D01*
X8992037Y-9116808D01*
X8992037Y-9097760D01*
X9001561Y-9078713D01*
X9020609Y-9069189D01*
X9068228Y-9069189D01*
X9087276Y-9059665D01*
X9182514Y-9012046D02*
X9182514Y-9212046D01*
X9182514Y-9021570D02*
X9201561Y-9012046D01*
X9239656Y-9012046D01*
X9258704Y-9021570D01*
X9268228Y-9031094D01*
X9277752Y-9050141D01*
X9277752Y-9107284D01*
X9268228Y-9126332D01*
X9258704Y-9135856D01*
X9239656Y-9145379D01*
X9201561Y-9145379D01*
X9182514Y-9135856D01*
X9363466Y-9126332D02*
X9372990Y-9135856D01*
X9363466Y-9145379D01*
X9353942Y-9135856D01*
X9363466Y-9126332D01*
X9363466Y-9145379D01*
X9363466Y-9021570D02*
X9372990Y-9031094D01*
X9363466Y-9040617D01*
X9353942Y-9031094D01*
X9363466Y-9021570D01*
X9363466Y-9040617D01*
D12*
X7584418Y-9399903D02*
X7734418Y-9549903D01*
X7734418Y-9399903D02*
X7584418Y-9549903D01*
D11*
X8096799Y-9565379D02*
X7982514Y-9565379D01*
X8039656Y-9565379D02*
X8039656Y-9365379D01*
X8020609Y-9393951D01*
X8001561Y-9412998D01*
X7982514Y-9422522D01*
X8182514Y-9546332D02*
X8192037Y-9555856D01*
X8182514Y-9565379D01*
X8172990Y-9555856D01*
X8182514Y-9546332D01*
X8182514Y-9565379D01*
X8372990Y-9365379D02*
X8277752Y-9365379D01*
X8268228Y-9460617D01*
X8277752Y-9451094D01*
X8296799Y-9441570D01*
X8344418Y-9441570D01*
X8363466Y-9451094D01*
X8372990Y-9460617D01*
X8382514Y-9479665D01*
X8382514Y-9527284D01*
X8372990Y-9546332D01*
X8363466Y-9555856D01*
X8344418Y-9565379D01*
X8296799Y-9565379D01*
X8277752Y-9555856D01*
X8268228Y-9546332D01*
X8506323Y-9365379D02*
X8525371Y-9365379D01*
X8544418Y-9374903D01*
X8553942Y-9384427D01*
X8563466Y-9403475D01*
X8572990Y-9441570D01*
X8572990Y-9489189D01*
X8563466Y-9527284D01*
X8553942Y-9546332D01*
X8544418Y-9555856D01*
X8525371Y-9565379D01*
X8506323Y-9565379D01*
X8487276Y-9555856D01*
X8477752Y-9546332D01*
X8468228Y-9527284D01*
X8458704Y-9489189D01*
X8458704Y-9441570D01*
X8468228Y-9403475D01*
X8477752Y-9384427D01*
X8487276Y-9374903D01*
X8506323Y-9365379D01*
X8696799Y-9365379D02*
X8715847Y-9365379D01*
X8734895Y-9374903D01*
X8744418Y-9384427D01*
X8753942Y-9403475D01*
X8763466Y-9441570D01*
X8763466Y-9489189D01*
X8753942Y-9527284D01*
X8744418Y-9546332D01*
X8734895Y-9555856D01*
X8715847Y-9565379D01*
X8696799Y-9565379D01*
X8677752Y-9555856D01*
X8668228Y-9546332D01*
X8658704Y-9527284D01*
X8649180Y-9489189D01*
X8649180Y-9441570D01*
X8658704Y-9403475D01*
X8668228Y-9384427D01*
X8677752Y-9374903D01*
X8696799Y-9365379D01*
X8849180Y-9565379D02*
X8849180Y-9432046D01*
X8849180Y-9451094D02*
X8858704Y-9441570D01*
X8877752Y-9432046D01*
X8906323Y-9432046D01*
X8925371Y-9441570D01*
X8934895Y-9460617D01*
X8934895Y-9565379D01*
X8934895Y-9460617D02*
X8944418Y-9441570D01*
X8963466Y-9432046D01*
X8992037Y-9432046D01*
X9011085Y-9441570D01*
X9020609Y-9460617D01*
X9020609Y-9565379D01*
X9115847Y-9565379D02*
X9115847Y-9432046D01*
X9115847Y-9451094D02*
X9125371Y-9441570D01*
X9144418Y-9432046D01*
X9172990Y-9432046D01*
X9192037Y-9441570D01*
X9201561Y-9460617D01*
X9201561Y-9565379D01*
X9201561Y-9460617D02*
X9211085Y-9441570D01*
X9230133Y-9432046D01*
X9258704Y-9432046D01*
X9277752Y-9441570D01*
X9287276Y-9460617D01*
X9287276Y-9565379D01*
X9677752Y-9355856D02*
X9506323Y-9612998D01*
X9934895Y-9365379D02*
X9953942Y-9365379D01*
X9972990Y-9374903D01*
X9982514Y-9384427D01*
X9992037Y-9403475D01*
X10001561Y-9441570D01*
X10001561Y-9489189D01*
X9992037Y-9527284D01*
X9982514Y-9546332D01*
X9972990Y-9555856D01*
X9953942Y-9565379D01*
X9934895Y-9565379D01*
X9915847Y-9555856D01*
X9906323Y-9546332D01*
X9896799Y-9527284D01*
X9887276Y-9489189D01*
X9887276Y-9441570D01*
X9896799Y-9403475D01*
X9906323Y-9384427D01*
X9915847Y-9374903D01*
X9934895Y-9365379D01*
X10087276Y-9546332D02*
X10096799Y-9555856D01*
X10087276Y-9565379D01*
X10077752Y-9555856D01*
X10087276Y-9546332D01*
X10087276Y-9565379D01*
X10220609Y-9365379D02*
X10239656Y-9365379D01*
X10258704Y-9374903D01*
X10268228Y-9384427D01*
X10277752Y-9403475D01*
X10287276Y-9441570D01*
X10287276Y-9489189D01*
X10277752Y-9527284D01*
X10268228Y-9546332D01*
X10258704Y-9555856D01*
X10239656Y-9565379D01*
X10220609Y-9565379D01*
X10201561Y-9555856D01*
X10192037Y-9546332D01*
X10182514Y-9527284D01*
X10172990Y-9489189D01*
X10172990Y-9441570D01*
X10182514Y-9403475D01*
X10192037Y-9384427D01*
X10201561Y-9374903D01*
X10220609Y-9365379D01*
X10468228Y-9365379D02*
X10372990Y-9365379D01*
X10363466Y-9460617D01*
X10372990Y-9451094D01*
X10392037Y-9441570D01*
X10439656Y-9441570D01*
X10458704Y-9451094D01*
X10468228Y-9460617D01*
X10477752Y-9479665D01*
X10477752Y-9527284D01*
X10468228Y-9546332D01*
X10458704Y-9555856D01*
X10439656Y-9565379D01*
X10392037Y-9565379D01*
X10372990Y-9555856D01*
X10363466Y-9546332D01*
X10572990Y-9565379D02*
X10611085Y-9565379D01*
X10630133Y-9555856D01*
X10639656Y-9546332D01*
X10658704Y-9517760D01*
X10668228Y-9479665D01*
X10668228Y-9403475D01*
X10658704Y-9384427D01*
X10649180Y-9374903D01*
X10630133Y-9365379D01*
X10592037Y-9365379D01*
X10572990Y-9374903D01*
X10563466Y-9384427D01*
X10553942Y-9403475D01*
X10553942Y-9451094D01*
X10563466Y-9470141D01*
X10572990Y-9479665D01*
X10592037Y-9489189D01*
X10630133Y-9489189D01*
X10649180Y-9479665D01*
X10658704Y-9470141D01*
X10668228Y-9451094D01*
X10858704Y-9565379D02*
X10744418Y-9565379D01*
X10801561Y-9565379D02*
X10801561Y-9365379D01*
X10782514Y-9393951D01*
X10763466Y-9412998D01*
X10744418Y-9422522D01*
X10934895Y-9365379D02*
X10934895Y-9403475D01*
X11011085Y-9365379D02*
X11011085Y-9403475D01*
X11306323Y-9641570D02*
X11296799Y-9632046D01*
X11277752Y-9603475D01*
X11268228Y-9584427D01*
X11258704Y-9555856D01*
X11249180Y-9508237D01*
X11249180Y-9470141D01*
X11258704Y-9422522D01*
X11268228Y-9393951D01*
X11277752Y-9374903D01*
X11296799Y-9346332D01*
X11306323Y-9336808D01*
X11420609Y-9365379D02*
X11439656Y-9365379D01*
X11458704Y-9374903D01*
X11468228Y-9384427D01*
X11477752Y-9403475D01*
X11487275Y-9441570D01*
X11487275Y-9489189D01*
X11477752Y-9527284D01*
X11468228Y-9546332D01*
X11458704Y-9555856D01*
X11439656Y-9565379D01*
X11420609Y-9565379D01*
X11401561Y-9555856D01*
X11392037Y-9546332D01*
X11382514Y-9527284D01*
X11372990Y-9489189D01*
X11372990Y-9441570D01*
X11382514Y-9403475D01*
X11392037Y-9384427D01*
X11401561Y-9374903D01*
X11420609Y-9365379D01*
X11725371Y-9565379D02*
X11725371Y-9365379D01*
X11811085Y-9565379D02*
X11811085Y-9460617D01*
X11801561Y-9441570D01*
X11782514Y-9432046D01*
X11753942Y-9432046D01*
X11734894Y-9441570D01*
X11725371Y-9451094D01*
X11934894Y-9565379D02*
X11915847Y-9555856D01*
X11906323Y-9546332D01*
X11896799Y-9527284D01*
X11896799Y-9470141D01*
X11906323Y-9451094D01*
X11915847Y-9441570D01*
X11934894Y-9432046D01*
X11963466Y-9432046D01*
X11982514Y-9441570D01*
X11992037Y-9451094D01*
X12001561Y-9470141D01*
X12001561Y-9527284D01*
X11992037Y-9546332D01*
X11982514Y-9555856D01*
X11963466Y-9565379D01*
X11934894Y-9565379D01*
X12115847Y-9565379D02*
X12096799Y-9555856D01*
X12087275Y-9536808D01*
X12087275Y-9365379D01*
X12268228Y-9555856D02*
X12249180Y-9565379D01*
X12211085Y-9565379D01*
X12192037Y-9555856D01*
X12182514Y-9536808D01*
X12182514Y-9460617D01*
X12192037Y-9441570D01*
X12211085Y-9432046D01*
X12249180Y-9432046D01*
X12268228Y-9441570D01*
X12277752Y-9460617D01*
X12277752Y-9479665D01*
X12182514Y-9498713D01*
X12353942Y-9555856D02*
X12372990Y-9565379D01*
X12411085Y-9565379D01*
X12430133Y-9555856D01*
X12439656Y-9536808D01*
X12439656Y-9527284D01*
X12430133Y-9508237D01*
X12411085Y-9498713D01*
X12382514Y-9498713D01*
X12363466Y-9489189D01*
X12353942Y-9470141D01*
X12353942Y-9460617D01*
X12363466Y-9441570D01*
X12382514Y-9432046D01*
X12411085Y-9432046D01*
X12430133Y-9441570D01*
X12677752Y-9489189D02*
X12830133Y-9489189D01*
X12753942Y-9565379D02*
X12753942Y-9412998D01*
X13163466Y-9432046D02*
X13163466Y-9565379D01*
X13115847Y-9355856D02*
X13068228Y-9498713D01*
X13192037Y-9498713D01*
X13411085Y-9555856D02*
X13430133Y-9565379D01*
X13468228Y-9565379D01*
X13487275Y-9555856D01*
X13496799Y-9536808D01*
X13496799Y-9527284D01*
X13487275Y-9508237D01*
X13468228Y-9498713D01*
X13439656Y-9498713D01*
X13420609Y-9489189D01*
X13411085Y-9470141D01*
X13411085Y-9460617D01*
X13420609Y-9441570D01*
X13439656Y-9432046D01*
X13468228Y-9432046D01*
X13487275Y-9441570D01*
X13611085Y-9565379D02*
X13592037Y-9555856D01*
X13582514Y-9536808D01*
X13582514Y-9365379D01*
X13715847Y-9565379D02*
X13696799Y-9555856D01*
X13687275Y-9546332D01*
X13677752Y-9527284D01*
X13677752Y-9470141D01*
X13687275Y-9451094D01*
X13696799Y-9441570D01*
X13715847Y-9432046D01*
X13744418Y-9432046D01*
X13763466Y-9441570D01*
X13772990Y-9451094D01*
X13782514Y-9470141D01*
X13782514Y-9527284D01*
X13772990Y-9546332D01*
X13763466Y-9555856D01*
X13744418Y-9565379D01*
X13715847Y-9565379D01*
X13839656Y-9432046D02*
X13915847Y-9432046D01*
X13868228Y-9365379D02*
X13868228Y-9536808D01*
X13877752Y-9555856D01*
X13896799Y-9565379D01*
X13915847Y-9565379D01*
X13972990Y-9555856D02*
X13992037Y-9565379D01*
X14030133Y-9565379D01*
X14049180Y-9555856D01*
X14058704Y-9536808D01*
X14058704Y-9527284D01*
X14049180Y-9508237D01*
X14030133Y-9498713D01*
X14001561Y-9498713D01*
X13982514Y-9489189D01*
X13972990Y-9470141D01*
X13972990Y-9460617D01*
X13982514Y-9441570D01*
X14001561Y-9432046D01*
X14030133Y-9432046D01*
X14049180Y-9441570D01*
X14125371Y-9641570D02*
X14134894Y-9632046D01*
X14153942Y-9603475D01*
X14163466Y-9584427D01*
X14172990Y-9555856D01*
X14182514Y-9508237D01*
X14182514Y-9470141D01*
X14172990Y-9422522D01*
X14163466Y-9393951D01*
X14153942Y-9374903D01*
X14134894Y-9346332D01*
X14125371Y-9336808D01*
X14487275Y-9641570D02*
X14477752Y-9632046D01*
X14458704Y-9603475D01*
X14449180Y-9584427D01*
X14439656Y-9555856D01*
X14430133Y-9508237D01*
X14430133Y-9470141D01*
X14439656Y-9422522D01*
X14449180Y-9393951D01*
X14458704Y-9374903D01*
X14477752Y-9346332D01*
X14487275Y-9336808D01*
X14563466Y-9432046D02*
X14563466Y-9565379D01*
X14563466Y-9451094D02*
X14572990Y-9441570D01*
X14592037Y-9432046D01*
X14620609Y-9432046D01*
X14639656Y-9441570D01*
X14649180Y-9460617D01*
X14649180Y-9565379D01*
X14772990Y-9565379D02*
X14753942Y-9555856D01*
X14744418Y-9546332D01*
X14734894Y-9527284D01*
X14734894Y-9470141D01*
X14744418Y-9451094D01*
X14753942Y-9441570D01*
X14772990Y-9432046D01*
X14801561Y-9432046D01*
X14820609Y-9441570D01*
X14830133Y-9451094D01*
X14839656Y-9470141D01*
X14839656Y-9527284D01*
X14830133Y-9546332D01*
X14820609Y-9555856D01*
X14801561Y-9565379D01*
X14772990Y-9565379D01*
X14896799Y-9432046D02*
X14972990Y-9432046D01*
X14925371Y-9365379D02*
X14925371Y-9536808D01*
X14934894Y-9555856D01*
X14953942Y-9565379D01*
X14972990Y-9565379D01*
X15192037Y-9432046D02*
X15192037Y-9632046D01*
X15192037Y-9441570D02*
X15211085Y-9432046D01*
X15249180Y-9432046D01*
X15268228Y-9441570D01*
X15277752Y-9451094D01*
X15287275Y-9470141D01*
X15287275Y-9527284D01*
X15277752Y-9546332D01*
X15268228Y-9555856D01*
X15249180Y-9565379D01*
X15211085Y-9565379D01*
X15192037Y-9555856D01*
X15401561Y-9565379D02*
X15382514Y-9555856D01*
X15372990Y-9536808D01*
X15372990Y-9365379D01*
X15563466Y-9565379D02*
X15563466Y-9460617D01*
X15553942Y-9441570D01*
X15534894Y-9432046D01*
X15496799Y-9432046D01*
X15477752Y-9441570D01*
X15563466Y-9555856D02*
X15544418Y-9565379D01*
X15496799Y-9565379D01*
X15477752Y-9555856D01*
X15468228Y-9536808D01*
X15468228Y-9517760D01*
X15477752Y-9498713D01*
X15496799Y-9489189D01*
X15544418Y-9489189D01*
X15563466Y-9479665D01*
X15630133Y-9432046D02*
X15706323Y-9432046D01*
X15658704Y-9365379D02*
X15658704Y-9536808D01*
X15668228Y-9555856D01*
X15687275Y-9565379D01*
X15706323Y-9565379D01*
X15849180Y-9555856D02*
X15830133Y-9565379D01*
X15792037Y-9565379D01*
X15772990Y-9555856D01*
X15763466Y-9536808D01*
X15763466Y-9460617D01*
X15772990Y-9441570D01*
X15792037Y-9432046D01*
X15830133Y-9432046D01*
X15849180Y-9441570D01*
X15858704Y-9460617D01*
X15858704Y-9479665D01*
X15763466Y-9498713D01*
X16030133Y-9565379D02*
X16030133Y-9365379D01*
X16030133Y-9555856D02*
X16011085Y-9565379D01*
X15972990Y-9565379D01*
X15953942Y-9555856D01*
X15944418Y-9546332D01*
X15934894Y-9527284D01*
X15934894Y-9470141D01*
X15944418Y-9451094D01*
X15953942Y-9441570D01*
X15972990Y-9432046D01*
X16011085Y-9432046D01*
X16030133Y-9441570D01*
X16106323Y-9641570D02*
X16115847Y-9632046D01*
X16134894Y-9603475D01*
X16144418Y-9584427D01*
X16153942Y-9555856D01*
X16163466Y-9508237D01*
X16163466Y-9470141D01*
X16153942Y-9422522D01*
X16144418Y-9393951D01*
X16134894Y-9374903D01*
X16115847Y-9346332D01*
X16106323Y-9336808D01*
M02*
