%TF.GenerationSoftware,KiCad,Pcbnew,6.0.0-rc1-bf2b03b42f~115~ubuntu21.10.1*%
%TF.CreationDate,2021-12-10T15:52:42+01:00*%
%TF.ProjectId,adapter,61646170-7465-4722-9e6b-696361645f70,1.1*%
%TF.SameCoordinates,Original*%
%TF.FileFunction,Profile,NP*%
%FSLAX46Y46*%
G04 Gerber Fmt 4.6, Leading zero omitted, Abs format (unit mm)*
G04 Created by KiCad (PCBNEW 6.0.0-rc1-bf2b03b42f~115~ubuntu21.10.1) date 2021-12-10 15:52:42*
%MOMM*%
%LPD*%
G01*
G04 APERTURE LIST*
%TA.AperFunction,Profile*%
%ADD10C,0.200000*%
%TD*%
G04 APERTURE END LIST*
D10*
X95889752Y-38639294D02*
X106382645Y-38639294D01*
X112941780Y-52146413D02*
G75*
G03*
X113053858Y-52637883I1124981J-1967D01*
G01*
X135048781Y-82040704D02*
G75*
G03*
X133200005Y-82903929I-723779J-861259D01*
G01*
X161228078Y-57331325D02*
G75*
G03*
X158699200Y-59871331I-8J-2528894D01*
G01*
X135048781Y-58090704D02*
G75*
G03*
X133200005Y-58953929I-723779J-861259D01*
G01*
X106382645Y-38639294D02*
G75*
G03*
X107382645Y-37639294I-3J1000003D01*
G01*
X79719999Y-49366401D02*
G75*
G03*
X81661984Y-57277726I1910613J-3725015D01*
G01*
X92439999Y-21286401D02*
G75*
G03*
X93892893Y-21703507I1354848J1980340D01*
G01*
X129714709Y-48692687D02*
X118665290Y-48639088D01*
X132110000Y-21760000D02*
G75*
G03*
X128646009Y-25277534I564J-3464954D01*
G01*
X157330000Y-20926952D02*
G75*
G03*
X155940000Y-21340000I-60444J-2341949D01*
G01*
X83499999Y-20876401D02*
G75*
G03*
X82049999Y-22346401I19889J-1469754D01*
G01*
X141002893Y-22760000D02*
G75*
G03*
X140002895Y-21760000I-1000001J-1D01*
G01*
X135450867Y-48700000D02*
G75*
G03*
X134300000Y-44000000I-8992203J289025D01*
G01*
X141997354Y-38692893D02*
X152490247Y-38692893D01*
X94892893Y-22703507D02*
G75*
G03*
X93892893Y-21703507I-1000003J-3D01*
G01*
X89691924Y-59817732D02*
G75*
G03*
X87151924Y-57277732I-2540001J-1D01*
G01*
X135438219Y-76150012D02*
X135450000Y-58950000D01*
X135040002Y-77010703D02*
G75*
G03*
X135326141Y-76641482I399744J-14307D01*
G01*
X135336207Y-82408923D02*
G75*
G03*
X135048782Y-82040704I112266J383921D01*
G01*
X135844110Y-79525005D02*
G75*
G03*
X135844110Y-79525005I-400000J0D01*
G01*
X135336207Y-58458923D02*
G75*
G03*
X135048782Y-58090704I112266J383921D01*
G01*
X115179994Y-82850330D02*
G75*
G03*
X113331218Y-81987105I-1124997J1966D01*
G01*
X166330000Y-45530000D02*
G75*
G03*
X168660000Y-49420000I4384924J-16356D01*
G01*
X91156920Y-88195370D02*
X111459800Y-88186001D01*
X113338071Y-78221409D02*
G75*
G03*
X113338071Y-78221409I-400000J0D01*
G01*
X158699200Y-59871331D02*
X158699200Y-86800000D01*
X140002894Y-21760000D02*
X132110000Y-21760000D01*
X113339996Y-53007105D02*
G75*
G03*
X115191776Y-52150339I726780J858731D01*
G01*
X154487106Y-21757106D02*
G75*
G03*
X153487106Y-22757106I3J-1000003D01*
G01*
X116630199Y-88237969D02*
X131769801Y-88237969D01*
X115181230Y-86761848D02*
X115179994Y-82850330D01*
X140997354Y-37692893D02*
G75*
G03*
X141997354Y-38692893I1000003J3D01*
G01*
X116269999Y-21706401D02*
X108377105Y-21706401D01*
X92439999Y-21286401D02*
G75*
G03*
X91049999Y-20873353I-1329543J-1928858D01*
G01*
X161228078Y-57331325D02*
X166718015Y-57331325D01*
X112929132Y-48646401D02*
X112941780Y-52146413D01*
X164880000Y-20930000D02*
X157330000Y-20926952D01*
X113333708Y-80721404D02*
G75*
G03*
X113333708Y-80721404I-400000J0D01*
G01*
X113043792Y-58405325D02*
G75*
G03*
X112929999Y-58896401I1011188J-493036D01*
G01*
X135844110Y-55575005D02*
G75*
G03*
X135844110Y-55575005I-400000J0D01*
G01*
X94889752Y-37639294D02*
X94892893Y-22703507D01*
X133188223Y-76153938D02*
G75*
G03*
X135040003Y-77010704I1124999J1964D01*
G01*
X133188223Y-52203938D02*
G75*
G03*
X135040003Y-53060704I1124999J1964D01*
G01*
X166330000Y-45530000D02*
X166330000Y-22400000D01*
X107382645Y-37639294D02*
X107377105Y-22706401D01*
X119729999Y-30846401D02*
X119743513Y-25217652D01*
X89680799Y-86746401D02*
X89691924Y-59817732D01*
X131769801Y-88237969D02*
G75*
G03*
X133218770Y-86761848I-13576J1462545D01*
G01*
X113331218Y-58037105D02*
G75*
G03*
X113043792Y-58405325I-399692J15702D01*
G01*
X113043792Y-82355325D02*
G75*
G03*
X112929999Y-82846401I1011188J-493036D01*
G01*
X154487106Y-21757106D02*
G75*
G03*
X155940000Y-21340000I98046J2397446D01*
G01*
X119743513Y-25217652D02*
G75*
G03*
X116269999Y-21706401I-3474095J36959D01*
G01*
X114079999Y-43946401D02*
G75*
G03*
X112929132Y-48646401I7841336J-4410975D01*
G01*
X89680799Y-86746401D02*
G75*
G03*
X91156920Y-88195370I1462545J13576D01*
G01*
X166330000Y-22400000D02*
G75*
G03*
X164880000Y-20930000I-1469906J229D01*
G01*
X129800867Y-35600000D02*
X134300000Y-44000000D01*
X113053858Y-52637883D02*
G75*
G03*
X113339997Y-53007104I-113605J-383528D01*
G01*
X133200005Y-82903929D02*
X133218770Y-86761848D01*
X135450000Y-82900000D02*
G75*
G03*
X135336207Y-82408924I-1124981J-1960D01*
G01*
X166718015Y-57331325D02*
G75*
G03*
X168660000Y-49420000I31372J4186310D01*
G01*
X91049999Y-20873353D02*
X83499999Y-20876401D01*
X113339997Y-76957104D02*
G75*
G03*
X115191776Y-76100339I726779J858732D01*
G01*
X153487106Y-22757106D02*
X153490247Y-37692893D01*
X113338071Y-54271409D02*
G75*
G03*
X113338071Y-54271409I-400000J0D01*
G01*
X157223079Y-88248969D02*
G75*
G03*
X158699200Y-86800000I13576J1462545D01*
G01*
X94889752Y-37639294D02*
G75*
G03*
X95889752Y-38639294I1000003J3D01*
G01*
X135450000Y-82900000D02*
X135458200Y-86763479D01*
X135326141Y-76641482D02*
G75*
G03*
X135438219Y-76150012I-1012903J489503D01*
G01*
X128646009Y-25277534D02*
X128650000Y-30900000D01*
X82049999Y-22346401D02*
X82059999Y-45466401D01*
X135846291Y-80775003D02*
G75*
G03*
X135846291Y-80775003I-400000J0D01*
G01*
X135841928Y-78275008D02*
G75*
G03*
X135841928Y-78275008I-400000J0D01*
G01*
X114079999Y-43946401D02*
X118579132Y-35546401D01*
X135438219Y-52200012D02*
X135450867Y-48700000D01*
X115181230Y-86761848D02*
G75*
G03*
X116630199Y-88237969I1462545J-13576D01*
G01*
X113331218Y-81987105D02*
G75*
G03*
X113043792Y-82355325I-399692J15702D01*
G01*
X135458200Y-86763479D02*
G75*
G03*
X136920199Y-88239600I1462462J-13596D01*
G01*
X115179994Y-58900330D02*
G75*
G03*
X113331218Y-58037105I-1124997J1966D01*
G01*
X135846291Y-56825003D02*
G75*
G03*
X135846291Y-56825003I-400000J0D01*
G01*
X79719999Y-49366401D02*
G75*
G03*
X82059999Y-45466401I-2063763J3890258D01*
G01*
X113335889Y-79471406D02*
G75*
G03*
X113335889Y-79471406I-400000J0D01*
G01*
X152490247Y-38692893D02*
G75*
G03*
X153490247Y-37692893I-9J1000009D01*
G01*
X113335889Y-55521406D02*
G75*
G03*
X113335889Y-55521406I-400000J0D01*
G01*
X135326141Y-52691482D02*
G75*
G03*
X135438219Y-52200012I-1012903J489503D01*
G01*
X135450000Y-58950000D02*
G75*
G03*
X135336207Y-58458924I-1124981J-1960D01*
G01*
X112929999Y-58896401D02*
X112941780Y-76096413D01*
X108377104Y-21706401D02*
G75*
G03*
X107377106Y-22706401I3J-1000001D01*
G01*
X133188223Y-52203938D02*
G75*
G03*
X129714709Y-48692687I-3474095J36959D01*
G01*
X118579132Y-35546401D02*
G75*
G03*
X119729999Y-30846401I-7841336J4410975D01*
G01*
X81661984Y-57277726D02*
X87151921Y-57277726D01*
X113333708Y-56771404D02*
G75*
G03*
X113333708Y-56771404I-400000J0D01*
G01*
X128650000Y-30900000D02*
G75*
G03*
X129800867Y-35600000I8992203J-289025D01*
G01*
X135841928Y-54325008D02*
G75*
G03*
X135841928Y-54325008I-400000J0D01*
G01*
X135040002Y-53060703D02*
G75*
G03*
X135326141Y-52691482I399744J-14307D01*
G01*
X141002894Y-22760000D02*
X140997354Y-37692893D01*
X113053858Y-76587883D02*
G75*
G03*
X113339997Y-76957104I-113605J-383528D01*
G01*
X118665290Y-48639088D02*
G75*
G03*
X115191776Y-52150339I562J-3474273D01*
G01*
X115191776Y-76100339D02*
X115179994Y-58900330D01*
X112941780Y-76096413D02*
G75*
G03*
X113053858Y-76587883I1124981J-1967D01*
G01*
X133200005Y-58953929D02*
X133188223Y-76153938D01*
X111459800Y-88186001D02*
G75*
G03*
X112921799Y-86709880I-490J1462552D01*
G01*
X112921799Y-86709880D02*
X112929999Y-82846401D01*
X136920199Y-88239600D02*
X157223079Y-88248969D01*
M02*
