%TF.GenerationSoftware,KiCad,Pcbnew,(6.0.2)*%
%TF.CreationDate,2022-04-19T06:21:28+10:00*%
%TF.ProjectId,adapter,61646170-7465-4722-9e6b-696361645f70,1.2*%
%TF.SameCoordinates,Original*%
%TF.FileFunction,Legend,Bot*%
%TF.FilePolarity,Positive*%
%FSLAX46Y46*%
G04 Gerber Fmt 4.6, Leading zero omitted, Abs format (unit mm)*
G04 Created by KiCad (PCBNEW (6.0.2)) date 2022-04-19 06:21:28*
%MOMM*%
%LPD*%
G01*
G04 APERTURE LIST*
G04 Aperture macros list*
%AMRoundRect*
0 Rectangle with rounded corners*
0 $1 Rounding radius*
0 $2 $3 $4 $5 $6 $7 $8 $9 X,Y pos of 4 corners*
0 Add a 4 corners polygon primitive as box body*
4,1,4,$2,$3,$4,$5,$6,$7,$8,$9,$2,$3,0*
0 Add four circle primitives for the rounded corners*
1,1,$1+$1,$2,$3*
1,1,$1+$1,$4,$5*
1,1,$1+$1,$6,$7*
1,1,$1+$1,$8,$9*
0 Add four rect primitives between the rounded corners*
20,1,$1+$1,$2,$3,$4,$5,0*
20,1,$1+$1,$4,$5,$6,$7,0*
20,1,$1+$1,$6,$7,$8,$9,0*
20,1,$1+$1,$8,$9,$2,$3,0*%
%AMRotRect*
0 Rectangle, with rotation*
0 The origin of the aperture is its center*
0 $1 length*
0 $2 width*
0 $3 Rotation angle, in degrees counterclockwise*
0 Add horizontal line*
21,1,$1,$2,0,0,$3*%
G04 Aperture macros list end*
%ADD10C,0.100000*%
%ADD11C,0.050000*%
%ADD12R,2.000000X2.000000*%
%ADD13C,2.000000*%
%ADD14R,3.200000X2.000000*%
%ADD15R,1.700000X1.700000*%
%ADD16O,1.700000X1.700000*%
%ADD17C,4.000000*%
%ADD18RoundRect,0.250000X-0.650000X0.412500X-0.650000X-0.412500X0.650000X-0.412500X0.650000X0.412500X0*%
%ADD19RotRect,2.400000X0.820000X60.000000*%
%ADD20C,0.800000*%
%ADD21RotRect,2.400000X0.820000X120.000000*%
%ADD22R,0.820000X2.400000*%
%ADD23RotRect,2.400000X0.820000X300.000000*%
%ADD24R,2.400000X0.820000*%
%ADD25RotRect,2.400000X0.820000X240.000000*%
%ADD26RotRect,2.400000X0.820000X210.000000*%
%ADD27RotRect,2.400000X0.820000X30.000000*%
%ADD28RoundRect,0.250000X0.625000X-0.400000X0.625000X0.400000X-0.625000X0.400000X-0.625000X-0.400000X0*%
%ADD29RotRect,2.400000X0.820000X150.000000*%
%ADD30RotRect,2.400000X0.820000X330.000000*%
G04 APERTURE END LIST*
D10*
X72719599Y-36616475D02*
X73073153Y-37323582D01*
X72366046Y-36970028D01*
X72366046Y-37929673D02*
X72416554Y-37929673D01*
X72517569Y-37879166D01*
X72568077Y-37828658D01*
X72618584Y-37727643D01*
X72618584Y-37626627D01*
X72593330Y-37550866D01*
X72517569Y-37424597D01*
X72441807Y-37348835D01*
X72315538Y-37273074D01*
X72239777Y-37247820D01*
X72138762Y-37247820D01*
X72037746Y-37298328D01*
X71987239Y-37348835D01*
X71936731Y-37449851D01*
X71936731Y-37500358D01*
X71835716Y-38460003D02*
X71886224Y-38460003D01*
X71987239Y-38409496D01*
X72037746Y-38358988D01*
X72088254Y-38257973D01*
X72088254Y-38156957D01*
X72063000Y-38081196D01*
X71987239Y-37954927D01*
X71911477Y-37879166D01*
X71785208Y-37803404D01*
X71709447Y-37778150D01*
X71608432Y-37778150D01*
X71507416Y-37828658D01*
X71456909Y-37879166D01*
X71406401Y-37980181D01*
X71406401Y-38030688D01*
X72946883Y-47647730D02*
X72871122Y-47218416D01*
X73249929Y-47344685D02*
X72719599Y-46814355D01*
X72517568Y-47016385D01*
X72492314Y-47092147D01*
X72492314Y-47142654D01*
X72517568Y-47218416D01*
X72593330Y-47294177D01*
X72669091Y-47319431D01*
X72719599Y-47319431D01*
X72795360Y-47294177D01*
X72997391Y-47092147D01*
X71936730Y-47647730D02*
X71961984Y-47571969D01*
X72037746Y-47496208D01*
X72138761Y-47445700D01*
X72239776Y-47445700D01*
X72315538Y-47470954D01*
X72441807Y-47546715D01*
X72517568Y-47622477D01*
X72593330Y-47748746D01*
X72618583Y-47824507D01*
X72618583Y-47925522D01*
X72568076Y-48026538D01*
X72517568Y-48077045D01*
X72416553Y-48127553D01*
X72366045Y-48127553D01*
X72189269Y-47950776D01*
X72290284Y-47849761D01*
X71734700Y-48304330D02*
X71684192Y-48405345D01*
X71684192Y-48455852D01*
X71709446Y-48531614D01*
X71785208Y-48607375D01*
X71860969Y-48632629D01*
X71911477Y-48632629D01*
X71987238Y-48607375D01*
X72189269Y-48405345D01*
X71658939Y-47875015D01*
X71482162Y-48051791D01*
X71456908Y-48127553D01*
X71456908Y-48178061D01*
X71482162Y-48253822D01*
X71532669Y-48304330D01*
X71608431Y-48329583D01*
X71658939Y-48329583D01*
X71734700Y-48304330D01*
X71911477Y-48127553D01*
X72492314Y-49644774D02*
X72517568Y-49569013D01*
X72593330Y-49493252D01*
X72694345Y-49442744D01*
X72795360Y-49442744D01*
X72871122Y-49467998D01*
X72997391Y-49543759D01*
X73073152Y-49619521D01*
X73148914Y-49745790D01*
X73174167Y-49821551D01*
X73174167Y-49922566D01*
X73123660Y-50023582D01*
X73073152Y-50074089D01*
X72972137Y-50124597D01*
X72921629Y-50124597D01*
X72744853Y-49947820D01*
X72845868Y-49846805D01*
X72744853Y-50402389D02*
X72214523Y-49872059D01*
X72441807Y-50705435D01*
X71911477Y-50175105D01*
X72189269Y-50957973D02*
X71658939Y-50427643D01*
X71532670Y-50553912D01*
X71482162Y-50654927D01*
X71482162Y-50755942D01*
X71507416Y-50831704D01*
X71583177Y-50957973D01*
X71658939Y-51033734D01*
X71785208Y-51109496D01*
X71860969Y-51134749D01*
X71961984Y-51134749D01*
X72063000Y-51084242D01*
X72189269Y-50957973D01*
X71225599Y-34675223D02*
X70695269Y-34144893D01*
X70569000Y-34271162D01*
X70518492Y-34372177D01*
X70518492Y-34473192D01*
X70543746Y-34548954D01*
X70619507Y-34675223D01*
X70695269Y-34750984D01*
X70821538Y-34826746D01*
X70897299Y-34852000D01*
X70998314Y-34852000D01*
X71099330Y-34801492D01*
X71225599Y-34675223D01*
X70063923Y-34776238D02*
X69962908Y-34877253D01*
X69937654Y-34953015D01*
X69937654Y-35054030D01*
X70013416Y-35180299D01*
X70190192Y-35357076D01*
X70316461Y-35432837D01*
X70417477Y-35432837D01*
X70493238Y-35407583D01*
X70594253Y-35306568D01*
X70619507Y-35230807D01*
X70619507Y-35129791D01*
X70543746Y-35003522D01*
X70366969Y-34826746D01*
X70240700Y-34750984D01*
X70139685Y-34750984D01*
X70063923Y-34776238D01*
X72391299Y-45385522D02*
X72315538Y-44956208D01*
X72694345Y-45082477D02*
X72164015Y-44552147D01*
X71961984Y-44754177D01*
X71936730Y-44829938D01*
X71936730Y-44880446D01*
X71961984Y-44956208D01*
X72037746Y-45031969D01*
X72113507Y-45057223D01*
X72164015Y-45057223D01*
X72239776Y-45031969D01*
X72441807Y-44829938D01*
X71709446Y-45107730D02*
X71658938Y-45107730D01*
X71583177Y-45132984D01*
X71456908Y-45259253D01*
X71431654Y-45335015D01*
X71431654Y-45385522D01*
X71456908Y-45461284D01*
X71507416Y-45511791D01*
X71608431Y-45562299D01*
X72214522Y-45562299D01*
X71886223Y-45890599D01*
X67389285Y-47235714D02*
X67389285Y-47700000D01*
X67675000Y-47450000D01*
X67675000Y-47557142D01*
X67710714Y-47628571D01*
X67746428Y-47664285D01*
X67817857Y-47700000D01*
X67996428Y-47700000D01*
X68067857Y-47664285D01*
X68103571Y-47628571D01*
X68139285Y-47557142D01*
X68139285Y-47342857D01*
X68103571Y-47271428D01*
X68067857Y-47235714D01*
X67389285Y-47950000D02*
X67389285Y-48414285D01*
X67675000Y-48164285D01*
X67675000Y-48271428D01*
X67710714Y-48342857D01*
X67746428Y-48378571D01*
X67817857Y-48414285D01*
X67996428Y-48414285D01*
X68067857Y-48378571D01*
X68103571Y-48342857D01*
X68139285Y-48271428D01*
X68139285Y-48057142D01*
X68103571Y-47985714D01*
X68067857Y-47950000D01*
X67389285Y-48878571D02*
X67389285Y-48950000D01*
X67425000Y-49021428D01*
X67460714Y-49057142D01*
X67532142Y-49092857D01*
X67675000Y-49128571D01*
X67853571Y-49128571D01*
X67996428Y-49092857D01*
X68067857Y-49057142D01*
X68103571Y-49021428D01*
X68139285Y-48950000D01*
X68139285Y-48878571D01*
X68103571Y-48807142D01*
X68067857Y-48771428D01*
X67996428Y-48735714D01*
X67853571Y-48700000D01*
X67675000Y-48700000D01*
X67532142Y-48735714D01*
X67460714Y-48771428D01*
X67425000Y-48807142D01*
X67389285Y-48878571D01*
X72391299Y-42845522D02*
X72315538Y-42416208D01*
X72694345Y-42542477D02*
X72164015Y-42012147D01*
X71961984Y-42214177D01*
X71936730Y-42289938D01*
X71936730Y-42340446D01*
X71961984Y-42416208D01*
X72037746Y-42491969D01*
X72113507Y-42517223D01*
X72164015Y-42517223D01*
X72239776Y-42491969D01*
X72441807Y-42289938D01*
X71886223Y-43350599D02*
X72189269Y-43047553D01*
X72037746Y-43199076D02*
X71507416Y-42668746D01*
X71633685Y-42693999D01*
X71734700Y-42693999D01*
X71810461Y-42668746D01*
X68539285Y-37853571D02*
X68539285Y-37425000D01*
X68539285Y-37639285D02*
X67789285Y-37639285D01*
X67896428Y-37567857D01*
X67967857Y-37496428D01*
X68003571Y-37425000D01*
X68039285Y-38496428D02*
X68539285Y-38496428D01*
X68039285Y-38175000D02*
X68432142Y-38175000D01*
X68503571Y-38210714D01*
X68539285Y-38282142D01*
X68539285Y-38389285D01*
X68503571Y-38460714D01*
X68467857Y-38496428D01*
X68146428Y-39103571D02*
X68146428Y-38853571D01*
X68539285Y-38853571D02*
X67789285Y-38853571D01*
X67789285Y-39210714D01*
X72694346Y-39674178D02*
X72643838Y-39775193D01*
X72643838Y-39825701D01*
X72669092Y-39901462D01*
X72744853Y-39977224D01*
X72820615Y-40002478D01*
X72871122Y-40002478D01*
X72946884Y-39977224D01*
X73148914Y-39775193D01*
X72618584Y-39244863D01*
X72441807Y-39421640D01*
X72416554Y-39497401D01*
X72416554Y-39547909D01*
X72441807Y-39623670D01*
X72492315Y-39674178D01*
X72568076Y-39699432D01*
X72618584Y-39699432D01*
X72694346Y-39674178D01*
X72871122Y-39497401D01*
X72164015Y-39699432D02*
X71860970Y-40002478D01*
X72542823Y-40381285D02*
X72012493Y-39850955D01*
X72214523Y-40709584D02*
X71684193Y-40179254D01*
X71911477Y-41012630D01*
X71381147Y-40482300D01*
%TO.C,C*%
X70267857Y-39067142D02*
X70303571Y-39031428D01*
X70339285Y-38924285D01*
X70339285Y-38852857D01*
X70303571Y-38745714D01*
X70232142Y-38674285D01*
X70160714Y-38638571D01*
X70017857Y-38602857D01*
X69910714Y-38602857D01*
X69767857Y-38638571D01*
X69696428Y-38674285D01*
X69625000Y-38745714D01*
X69589285Y-38852857D01*
X69589285Y-38924285D01*
X69625000Y-39031428D01*
X69660714Y-39067142D01*
%TO.C,R*%
X70239285Y-48532142D02*
X69882142Y-48282142D01*
X70239285Y-48103571D02*
X69489285Y-48103571D01*
X69489285Y-48389285D01*
X69525000Y-48460714D01*
X69560714Y-48496428D01*
X69632142Y-48532142D01*
X69739285Y-48532142D01*
X69810714Y-48496428D01*
X69846428Y-48460714D01*
X69882142Y-48389285D01*
X69882142Y-48103571D01*
D11*
%TO.C,REF\u002A\u002A*%
X41549981Y-58462018D02*
X41479981Y-58583262D01*
X41479981Y-58583262D02*
X42449930Y-59143262D01*
X42449930Y-59143262D02*
X42519930Y-59022018D01*
X42519930Y-59022018D02*
X41549981Y-58462018D01*
G36*
X42519930Y-59022018D02*
G01*
X42449930Y-59143262D01*
X41479981Y-58583262D01*
X41549981Y-58462018D01*
X42519930Y-59022018D01*
G37*
X42519930Y-59022018D02*
X42449930Y-59143262D01*
X41479981Y-58583262D01*
X41549981Y-58462018D01*
X42519930Y-59022018D01*
X41989981Y-57699916D02*
X41479981Y-58583262D01*
X41479981Y-58583262D02*
X41601225Y-58653262D01*
X41601225Y-58653262D02*
X42111225Y-57769916D01*
X42111225Y-57769916D02*
X41989981Y-57699916D01*
G36*
X42111225Y-57769916D02*
G01*
X41601225Y-58653262D01*
X41479981Y-58583262D01*
X41989981Y-57699916D01*
X42111225Y-57769916D01*
G37*
X42111225Y-57769916D02*
X41601225Y-58653262D01*
X41479981Y-58583262D01*
X41989981Y-57699916D01*
X42111225Y-57769916D01*
X41957013Y-58697018D02*
X41887013Y-58818262D01*
X41887013Y-58818262D02*
X42449930Y-59143262D01*
X42449930Y-59143262D02*
X42519930Y-59022018D01*
X42519930Y-59022018D02*
X41957013Y-58697018D01*
G36*
X42519930Y-59022018D02*
G01*
X42449930Y-59143262D01*
X41887013Y-58818262D01*
X41957013Y-58697018D01*
X42519930Y-59022018D01*
G37*
X42519930Y-59022018D02*
X42449930Y-59143262D01*
X41887013Y-58818262D01*
X41957013Y-58697018D01*
X42519930Y-59022018D01*
X60807013Y-59757018D02*
X60877013Y-59878262D01*
X60877013Y-59878262D02*
X61439930Y-59553262D01*
X61439930Y-59553262D02*
X61369930Y-59432018D01*
X61369930Y-59432018D02*
X60807013Y-59757018D01*
G36*
X61439930Y-59553262D02*
G01*
X60877013Y-59878262D01*
X60807013Y-59757018D01*
X61369930Y-59432018D01*
X61439930Y-59553262D01*
G37*
X61439930Y-59553262D02*
X60877013Y-59878262D01*
X60807013Y-59757018D01*
X61369930Y-59432018D01*
X61439930Y-59553262D01*
X59959981Y-59229916D02*
X60469981Y-60113262D01*
X60469981Y-60113262D02*
X60591225Y-60043262D01*
X60591225Y-60043262D02*
X60081225Y-59159916D01*
X60081225Y-59159916D02*
X59959981Y-59229916D01*
G36*
X60591225Y-60043262D02*
G01*
X60469981Y-60113262D01*
X59959981Y-59229916D01*
X60081225Y-59159916D01*
X60591225Y-60043262D01*
G37*
X60591225Y-60043262D02*
X60469981Y-60113262D01*
X59959981Y-59229916D01*
X60081225Y-59159916D01*
X60591225Y-60043262D01*
X60399981Y-59992018D02*
X60469981Y-60113262D01*
X60469981Y-60113262D02*
X61439930Y-59553262D01*
X61439930Y-59553262D02*
X61369930Y-59432018D01*
X61369930Y-59432018D02*
X60399981Y-59992018D01*
G36*
X61439930Y-59553262D02*
G01*
X60469981Y-60113262D01*
X60399981Y-59992018D01*
X61369930Y-59432018D01*
X61439930Y-59553262D01*
G37*
X61439930Y-59553262D02*
X60469981Y-60113262D01*
X60399981Y-59992018D01*
X61369930Y-59432018D01*
X61439930Y-59553262D01*
X54020000Y-26385000D02*
X54020000Y-25365000D01*
X54020000Y-25365000D02*
X53880000Y-25365000D01*
X53880000Y-25365000D02*
X53880000Y-26385000D01*
X53880000Y-26385000D02*
X54020000Y-26385000D01*
G36*
X54020000Y-26385000D02*
G01*
X53880000Y-26385000D01*
X53880000Y-25365000D01*
X54020000Y-25365000D01*
X54020000Y-26385000D01*
G37*
X54020000Y-26385000D02*
X53880000Y-26385000D01*
X53880000Y-25365000D01*
X54020000Y-25365000D01*
X54020000Y-26385000D01*
X53550000Y-25505000D02*
X53550000Y-25365000D01*
X53550000Y-25365000D02*
X52900000Y-25365000D01*
X52900000Y-25365000D02*
X52900000Y-25505000D01*
X52900000Y-25505000D02*
X53550000Y-25505000D01*
G36*
X53550000Y-25505000D02*
G01*
X52900000Y-25505000D01*
X52900000Y-25365000D01*
X53550000Y-25365000D01*
X53550000Y-25505000D01*
G37*
X53550000Y-25505000D02*
X52900000Y-25505000D01*
X52900000Y-25365000D01*
X53550000Y-25365000D01*
X53550000Y-25505000D01*
X54020000Y-25505000D02*
X54020000Y-25365000D01*
X54020000Y-25365000D02*
X52900000Y-25365000D01*
X52900000Y-25365000D02*
X52900000Y-25505000D01*
X52900000Y-25505000D02*
X54020000Y-25505000D01*
G36*
X54020000Y-25505000D02*
G01*
X52900000Y-25505000D01*
X52900000Y-25365000D01*
X54020000Y-25365000D01*
X54020000Y-25505000D01*
G37*
X54020000Y-25505000D02*
X52900000Y-25505000D01*
X52900000Y-25365000D01*
X54020000Y-25365000D01*
X54020000Y-25505000D01*
X43800019Y-27607982D02*
X43730019Y-27486738D01*
X43730019Y-27486738D02*
X42760070Y-28046738D01*
X42760070Y-28046738D02*
X42830070Y-28167982D01*
X42830070Y-28167982D02*
X43800019Y-27607982D01*
G36*
X43800019Y-27607982D02*
G01*
X42830070Y-28167982D01*
X42760070Y-28046738D01*
X43730019Y-27486738D01*
X43800019Y-27607982D01*
G37*
X43800019Y-27607982D02*
X42830070Y-28167982D01*
X42760070Y-28046738D01*
X43730019Y-27486738D01*
X43800019Y-27607982D01*
X44240019Y-28370084D02*
X43730019Y-27486738D01*
X43730019Y-27486738D02*
X43608775Y-27556738D01*
X43608775Y-27556738D02*
X44118775Y-28440084D01*
X44118775Y-28440084D02*
X44240019Y-28370084D01*
G36*
X44240019Y-28370084D02*
G01*
X44118775Y-28440084D01*
X43608775Y-27556738D01*
X43730019Y-27486738D01*
X44240019Y-28370084D01*
G37*
X44240019Y-28370084D02*
X44118775Y-28440084D01*
X43608775Y-27556738D01*
X43730019Y-27486738D01*
X44240019Y-28370084D01*
X43392987Y-27842982D02*
X43322987Y-27721738D01*
X43322987Y-27721738D02*
X42760070Y-28046738D01*
X42760070Y-28046738D02*
X42830070Y-28167982D01*
X42830070Y-28167982D02*
X43392987Y-27842982D01*
G36*
X43392987Y-27842982D02*
G01*
X42830070Y-28167982D01*
X42760070Y-28046738D01*
X43322987Y-27721738D01*
X43392987Y-27842982D01*
G37*
X43392987Y-27842982D02*
X42830070Y-28167982D01*
X42760070Y-28046738D01*
X43322987Y-27721738D01*
X43392987Y-27842982D01*
X35100000Y-42030000D02*
X34080000Y-42030000D01*
X34080000Y-42030000D02*
X34080000Y-42170000D01*
X34080000Y-42170000D02*
X35100000Y-42170000D01*
X35100000Y-42170000D02*
X35100000Y-42030000D01*
G36*
X35100000Y-42170000D02*
G01*
X34080000Y-42170000D01*
X34080000Y-42030000D01*
X35100000Y-42030000D01*
X35100000Y-42170000D01*
G37*
X35100000Y-42170000D02*
X34080000Y-42170000D01*
X34080000Y-42030000D01*
X35100000Y-42030000D01*
X35100000Y-42170000D01*
X34220000Y-42500000D02*
X34080000Y-42500000D01*
X34080000Y-42500000D02*
X34080000Y-43150000D01*
X34080000Y-43150000D02*
X34220000Y-43150000D01*
X34220000Y-43150000D02*
X34220000Y-42500000D01*
G36*
X34220000Y-43150000D02*
G01*
X34080000Y-43150000D01*
X34080000Y-42500000D01*
X34220000Y-42500000D01*
X34220000Y-43150000D01*
G37*
X34220000Y-43150000D02*
X34080000Y-43150000D01*
X34080000Y-42500000D01*
X34220000Y-42500000D01*
X34220000Y-43150000D01*
X34220000Y-42030000D02*
X34080000Y-42030000D01*
X34080000Y-42030000D02*
X34080000Y-43150000D01*
X34080000Y-43150000D02*
X34220000Y-43150000D01*
X34220000Y-43150000D02*
X34220000Y-42030000D01*
G36*
X34220000Y-43150000D02*
G01*
X34080000Y-43150000D01*
X34080000Y-42030000D01*
X34220000Y-42030000D01*
X34220000Y-43150000D01*
G37*
X34220000Y-43150000D02*
X34080000Y-43150000D01*
X34080000Y-42030000D01*
X34220000Y-42030000D01*
X34220000Y-43150000D01*
%TO.C,G\u002A\u002A\u002A*%
G36*
X49761741Y-45063783D02*
G01*
X49788724Y-45095214D01*
X49830054Y-45193898D01*
X49819090Y-45287404D01*
X49761545Y-45357142D01*
X49663138Y-45384519D01*
X49612919Y-45375870D01*
X49529115Y-45326055D01*
X49471098Y-45250913D01*
X49459903Y-45172400D01*
X49499352Y-45087828D01*
X49577881Y-45023826D01*
X49671447Y-45013615D01*
X49761741Y-45063783D01*
G37*
G36*
X48179618Y-45685807D02*
G01*
X48157781Y-45624751D01*
X48028919Y-45264456D01*
X48011214Y-45194621D01*
X49095113Y-45194621D01*
X49133125Y-45386668D01*
X49145352Y-45419191D01*
X49242577Y-45574228D01*
X49378971Y-45682584D01*
X49540535Y-45741153D01*
X49713273Y-45746831D01*
X49883188Y-45696508D01*
X50036279Y-45587082D01*
X50070492Y-45549504D01*
X50163450Y-45386980D01*
X50197471Y-45205525D01*
X50171439Y-45022220D01*
X50084236Y-44854144D01*
X50031254Y-44797045D01*
X49884624Y-44703086D01*
X49711648Y-44652809D01*
X49537588Y-44655399D01*
X49498584Y-44664508D01*
X49382334Y-44717376D01*
X49263232Y-44817813D01*
X49217833Y-44867019D01*
X49122722Y-45024147D01*
X49095113Y-45194621D01*
X48011214Y-45194621D01*
X47918837Y-44830253D01*
X47902301Y-44739319D01*
X47865436Y-44443065D01*
X47858343Y-44332122D01*
X47844207Y-44111030D01*
X47839709Y-43803922D01*
X49373997Y-43803922D01*
X49380061Y-43975865D01*
X49428637Y-44140018D01*
X49513882Y-44268651D01*
X49589683Y-44326542D01*
X49744014Y-44389263D01*
X49916318Y-44411618D01*
X50078864Y-44387760D01*
X50131395Y-44368499D01*
X50238405Y-44317870D01*
X50309916Y-44268651D01*
X50367807Y-44192850D01*
X50430528Y-44038519D01*
X50452883Y-43866215D01*
X50429025Y-43703668D01*
X50409764Y-43651138D01*
X50359135Y-43544126D01*
X50309916Y-43472617D01*
X50234115Y-43414725D01*
X50079784Y-43352004D01*
X49907480Y-43329650D01*
X49744933Y-43353507D01*
X49692403Y-43372768D01*
X49585392Y-43423398D01*
X49513882Y-43472617D01*
X49492338Y-43499239D01*
X49440385Y-43591220D01*
X49394773Y-43703668D01*
X49373997Y-43803922D01*
X47839709Y-43803922D01*
X47839177Y-43767635D01*
X47850908Y-43437300D01*
X47879966Y-43144444D01*
X47911077Y-42957855D01*
X47999554Y-42595032D01*
X49096586Y-42595032D01*
X49146461Y-42766739D01*
X49265121Y-42925344D01*
X49308953Y-42966050D01*
X49469238Y-43064613D01*
X49643202Y-43094735D01*
X49836176Y-43057650D01*
X49858321Y-43049515D01*
X50016807Y-42955506D01*
X50131295Y-42820784D01*
X50189135Y-42659614D01*
X50195070Y-42508392D01*
X50150672Y-42323003D01*
X50053264Y-42171093D01*
X49911420Y-42061202D01*
X49733712Y-42001871D01*
X49528713Y-42001640D01*
X49478072Y-42012907D01*
X49330558Y-42087701D01*
X49207217Y-42210401D01*
X49126783Y-42364112D01*
X49114515Y-42406242D01*
X49096586Y-42595032D01*
X47999554Y-42595032D01*
X48020238Y-42510210D01*
X48173164Y-42071533D01*
X48362525Y-41661137D01*
X48580984Y-41298336D01*
X48650413Y-41201152D01*
X48794599Y-41019332D01*
X48923917Y-40883851D01*
X49032762Y-40800207D01*
X49115535Y-40773894D01*
X49116718Y-40773978D01*
X49182816Y-40787492D01*
X49298829Y-40819239D01*
X49448730Y-40864581D01*
X49616497Y-40918881D01*
X50035450Y-41058811D01*
X51828303Y-42851663D01*
X51740763Y-42900941D01*
X51684508Y-42940443D01*
X51591437Y-43019531D01*
X51492830Y-43114124D01*
X51416513Y-43201026D01*
X51281045Y-43425385D01*
X51204853Y-43670798D01*
X51187935Y-43925472D01*
X51230292Y-44177616D01*
X51331923Y-44415437D01*
X51492830Y-44627143D01*
X51573939Y-44705751D01*
X51669645Y-44788983D01*
X51740763Y-44840326D01*
X51828303Y-44889604D01*
X49729188Y-46988719D01*
X49389501Y-46988719D01*
X49327317Y-46988671D01*
X49190168Y-46986406D01*
X49098492Y-46976814D01*
X49033855Y-46954575D01*
X48977824Y-46914367D01*
X48911966Y-46850870D01*
X48812558Y-46744861D01*
X48577723Y-46438797D01*
X48503112Y-46313693D01*
X48364647Y-46081517D01*
X48179618Y-45685807D01*
G37*
G36*
X50036279Y-43746254D02*
G01*
X50081869Y-43806939D01*
X50094243Y-43901200D01*
X50036279Y-43995014D01*
X49981402Y-44036162D01*
X49911899Y-44059691D01*
X49899593Y-44058798D01*
X49819971Y-44021469D01*
X49751767Y-43949461D01*
X49722841Y-43870634D01*
X49737714Y-43817777D01*
X49787518Y-43746253D01*
X49848204Y-43700664D01*
X49942465Y-43688290D01*
X50036279Y-43746254D01*
G37*
G36*
X53576999Y-39937329D02*
G01*
X53598823Y-39988824D01*
X53639850Y-40091953D01*
X53696066Y-40236154D01*
X53763455Y-40410864D01*
X53838003Y-40605519D01*
X53915694Y-40809554D01*
X53992514Y-41012407D01*
X54064446Y-41203514D01*
X54127476Y-41372312D01*
X54177588Y-41508238D01*
X54210768Y-41600727D01*
X54223000Y-41639217D01*
X54203560Y-41650492D01*
X54129632Y-41680385D01*
X54013325Y-41722922D01*
X53868333Y-41772941D01*
X53512917Y-41892442D01*
X53289493Y-42448622D01*
X53230405Y-42592921D01*
X53159545Y-42758326D01*
X53099161Y-42890787D01*
X53054256Y-42979423D01*
X53029831Y-43013357D01*
X52988495Y-43002107D01*
X52926106Y-42955517D01*
X52878816Y-42917551D01*
X52742990Y-42847794D01*
X52574323Y-42794946D01*
X52397866Y-42767904D01*
X52335253Y-42762638D01*
X52265715Y-42747651D01*
X52202743Y-42714171D01*
X52127922Y-42651435D01*
X52022832Y-42548671D01*
X51814421Y-42340260D01*
X52102156Y-41471259D01*
X52172768Y-41260041D01*
X52246921Y-41042791D01*
X52312589Y-40855163D01*
X52366452Y-40706477D01*
X52405192Y-40606058D01*
X52425488Y-40563227D01*
X52426713Y-40562071D01*
X52469930Y-40534244D01*
X52561564Y-40480816D01*
X52689421Y-40408466D01*
X52841311Y-40323878D01*
X53005043Y-40233731D01*
X53168426Y-40144706D01*
X53319268Y-40063487D01*
X53445378Y-39996751D01*
X53534565Y-39951182D01*
X53574638Y-39933459D01*
X53576999Y-39937329D01*
G37*
G36*
X49783196Y-42398624D02*
G01*
X49786747Y-42402355D01*
X49821720Y-42485926D01*
X49813287Y-42587939D01*
X49763762Y-42675463D01*
X49697557Y-42723099D01*
X49603502Y-42734626D01*
X49521224Y-42683700D01*
X49463370Y-42574568D01*
X49462167Y-42570292D01*
X49471694Y-42489137D01*
X49529532Y-42419856D01*
X49614709Y-42373986D01*
X49706255Y-42363063D01*
X49783196Y-42398624D01*
G37*
G36*
X52517669Y-43155444D02*
G01*
X52562694Y-43169999D01*
X52660029Y-43213579D01*
X52746282Y-43278717D01*
X52847361Y-43383318D01*
X52915956Y-43468227D01*
X53017750Y-43662821D01*
X53050575Y-43868453D01*
X53015189Y-44088302D01*
X53000635Y-44133328D01*
X52957054Y-44230663D01*
X52891917Y-44316916D01*
X52787315Y-44417994D01*
X52702406Y-44486589D01*
X52507812Y-44588383D01*
X52302181Y-44621208D01*
X52082332Y-44585823D01*
X52037306Y-44571268D01*
X51939971Y-44527688D01*
X51853717Y-44462550D01*
X51752639Y-44357948D01*
X51684044Y-44273040D01*
X51582251Y-44078445D01*
X51549425Y-43872814D01*
X51584810Y-43652965D01*
X51599365Y-43607939D01*
X51642946Y-43510605D01*
X51708084Y-43424351D01*
X51812685Y-43323272D01*
X51897593Y-43254677D01*
X52092188Y-43152884D01*
X52297820Y-43120058D01*
X52517669Y-43155444D01*
G37*
G36*
X51589954Y-41254957D02*
G01*
X51589836Y-41280714D01*
X51586594Y-41493905D01*
X51579872Y-41682728D01*
X51570361Y-41835687D01*
X51558756Y-41941284D01*
X51545749Y-41988022D01*
X51527991Y-41998151D01*
X51501396Y-41992938D01*
X51459552Y-41966237D01*
X51395659Y-41912296D01*
X51302916Y-41825363D01*
X51174521Y-41699687D01*
X51003677Y-41529516D01*
X50503387Y-41029226D01*
X50613974Y-40953243D01*
X50627513Y-40944290D01*
X50742415Y-40880879D01*
X50900051Y-40807126D01*
X51079418Y-40731913D01*
X51259515Y-40664122D01*
X51419337Y-40612636D01*
X51592376Y-40563676D01*
X51589954Y-41254957D01*
G37*
G36*
X56731078Y-44207306D02*
G01*
X56896915Y-44208880D01*
X57134596Y-44215435D01*
X57307421Y-44227054D01*
X57418802Y-44244010D01*
X57472147Y-44266577D01*
X57490551Y-44299942D01*
X57513392Y-44396626D01*
X57528582Y-44529908D01*
X57535407Y-44679426D01*
X57533157Y-44824813D01*
X57521115Y-44945707D01*
X57498572Y-45021743D01*
X57466263Y-45050276D01*
X57370321Y-45110731D01*
X57214667Y-45197896D01*
X57001714Y-45310471D01*
X56733868Y-45447157D01*
X56413543Y-45606655D01*
X56249742Y-45687381D01*
X56008791Y-45806003D01*
X55791730Y-45912716D01*
X55606398Y-46003672D01*
X55460636Y-46075026D01*
X55362285Y-46122930D01*
X55319185Y-46143538D01*
X55311878Y-46142224D01*
X55323469Y-46102116D01*
X55366359Y-46021149D01*
X55434802Y-45910889D01*
X55466025Y-45862101D01*
X55624535Y-45578390D01*
X55765478Y-45267541D01*
X55881458Y-44949393D01*
X55965079Y-44643789D01*
X56008945Y-44370568D01*
X56011460Y-44343814D01*
X56022614Y-44259729D01*
X56033450Y-44218646D01*
X56034399Y-44218107D01*
X56079321Y-44213883D01*
X56182388Y-44210512D01*
X56332663Y-44208175D01*
X56519206Y-44207046D01*
X56731078Y-44207306D01*
G37*
G36*
X51574491Y-45685840D02*
G01*
X51579915Y-45744808D01*
X51584539Y-45860208D01*
X51588105Y-46021408D01*
X51590358Y-46217776D01*
X51591038Y-46438684D01*
X51590422Y-47177723D01*
X51382327Y-47119418D01*
X51317445Y-47100145D01*
X51122163Y-47031944D01*
X50924017Y-46950396D01*
X50746697Y-46865712D01*
X50613891Y-46788107D01*
X50503387Y-46712041D01*
X51028553Y-46186876D01*
X51082940Y-46132691D01*
X51234532Y-45983906D01*
X51366814Y-45857327D01*
X51472272Y-45759937D01*
X51543400Y-45698726D01*
X51572686Y-45680677D01*
X51574491Y-45685840D01*
G37*
G36*
X55670245Y-43535213D02*
G01*
X55670245Y-44206055D01*
X54526379Y-44206461D01*
X54353367Y-44206365D01*
X54090462Y-44205587D01*
X53856052Y-44204119D01*
X53658511Y-44202057D01*
X53506213Y-44199498D01*
X53407529Y-44196536D01*
X53370832Y-44193267D01*
X53369293Y-44189202D01*
X53372218Y-44137639D01*
X53388314Y-44050998D01*
X53395457Y-44006651D01*
X53400176Y-43876762D01*
X53388876Y-43742526D01*
X53379073Y-43674892D01*
X53370155Y-43588357D01*
X53371393Y-43548562D01*
X53386221Y-43546425D01*
X53462088Y-43543206D01*
X53594775Y-43540367D01*
X53775915Y-43538008D01*
X53997140Y-43536229D01*
X54250085Y-43535128D01*
X54526379Y-43534807D01*
X55670245Y-43535213D01*
G37*
G36*
X54298881Y-39768557D02*
G01*
X54419922Y-39790727D01*
X54507734Y-39820810D01*
X54690778Y-39923788D01*
X54856776Y-40066302D01*
X54981438Y-40229375D01*
X55007607Y-40280402D01*
X55069720Y-40481967D01*
X55088780Y-40708348D01*
X55061823Y-40933612D01*
X55060396Y-40939635D01*
X55029996Y-41047305D01*
X54989816Y-41131523D01*
X54925529Y-41215626D01*
X54822810Y-41322947D01*
X54802442Y-41343158D01*
X54710042Y-41430775D01*
X54638355Y-41492359D01*
X54601478Y-41515636D01*
X54584388Y-41489165D01*
X54545532Y-41404889D01*
X54489073Y-41271246D01*
X54418580Y-41096907D01*
X54337625Y-40890551D01*
X54249776Y-40660851D01*
X54170682Y-40449482D01*
X54093600Y-40238989D01*
X54029379Y-40058729D01*
X53981113Y-39917562D01*
X53951898Y-39824349D01*
X53944829Y-39787952D01*
X53965512Y-39776250D01*
X54048835Y-39761184D01*
X54167571Y-39758664D01*
X54298881Y-39768557D01*
G37*
G36*
X52659038Y-46070650D02*
G01*
X52659432Y-46218648D01*
X52658893Y-46481616D01*
X52656827Y-46717366D01*
X52653403Y-46917268D01*
X52648789Y-47072698D01*
X52643153Y-47175026D01*
X52636665Y-47215626D01*
X52622487Y-47221640D01*
X52549486Y-47232186D01*
X52431900Y-47239177D01*
X52287076Y-47241337D01*
X51964639Y-47239898D01*
X51963707Y-45251721D01*
X52101819Y-45115731D01*
X52156655Y-45063879D01*
X52235054Y-45007406D01*
X52321481Y-44979369D01*
X52447096Y-44966283D01*
X52654260Y-44952826D01*
X52659038Y-46070650D01*
G37*
G36*
X55193191Y-44579532D02*
G01*
X55352576Y-44585508D01*
X55464123Y-44598984D01*
X55534180Y-44622690D01*
X55569093Y-44659355D01*
X55575210Y-44711707D01*
X55558879Y-44782476D01*
X55526448Y-44874393D01*
X55484264Y-44990185D01*
X55414328Y-45169805D01*
X55257996Y-45490376D01*
X55071695Y-45796283D01*
X54871375Y-46059691D01*
X54780071Y-46163867D01*
X54714375Y-46233327D01*
X54674567Y-46263477D01*
X54650419Y-46261838D01*
X54631702Y-46235933D01*
X54606678Y-46197748D01*
X54544858Y-46108952D01*
X54452782Y-45979078D01*
X54336325Y-45816364D01*
X54201362Y-45629052D01*
X54053768Y-45425380D01*
X53917690Y-45237639D01*
X53782732Y-45050415D01*
X53666288Y-44887795D01*
X53574102Y-44757837D01*
X53511916Y-44668596D01*
X53485473Y-44628127D01*
X53494093Y-44618056D01*
X53564589Y-44604422D01*
X53704120Y-44593714D01*
X53911907Y-44585967D01*
X54187173Y-44581217D01*
X54529140Y-44579502D01*
X54705514Y-44579162D01*
X54979619Y-44578327D01*
X55193191Y-44579532D01*
G37*
G36*
X53132429Y-44767090D02*
G01*
X53138896Y-44776489D01*
X53184680Y-44841225D01*
X53264308Y-44952654D01*
X53372132Y-45102916D01*
X53502509Y-45284154D01*
X53649795Y-45488507D01*
X53808344Y-45708119D01*
X53930614Y-45878094D01*
X54109000Y-46129893D01*
X54244653Y-46327165D01*
X54337954Y-46470485D01*
X54389285Y-46560425D01*
X54399027Y-46597562D01*
X54383264Y-46608442D01*
X54312084Y-46647280D01*
X54198551Y-46704514D01*
X54056892Y-46773363D01*
X53901327Y-46847045D01*
X53746081Y-46918779D01*
X53605377Y-46981785D01*
X53493440Y-47029283D01*
X53455275Y-47044014D01*
X53317908Y-47091012D01*
X53180513Y-47131434D01*
X53009344Y-47176336D01*
X53008965Y-45965225D01*
X53009511Y-45736262D01*
X53011830Y-45467335D01*
X53015757Y-45227098D01*
X53021063Y-45023884D01*
X53027522Y-44866027D01*
X53034903Y-44761860D01*
X53042982Y-44719719D01*
X53081379Y-44712331D01*
X53132429Y-44767090D01*
G37*
G36*
X55030026Y-41877093D02*
G01*
X55038074Y-41888224D01*
X55242643Y-42215780D01*
X55417224Y-42580962D01*
X55547407Y-42953785D01*
X55605791Y-43161248D01*
X54520899Y-43161669D01*
X54397146Y-43161575D01*
X54138804Y-43160423D01*
X53908413Y-43158101D01*
X53714458Y-43154777D01*
X53565416Y-43150617D01*
X53469772Y-43145785D01*
X53436007Y-43140448D01*
X53442214Y-43125690D01*
X53478270Y-43059178D01*
X53541092Y-42949712D01*
X53624468Y-42808037D01*
X53722195Y-42644903D01*
X53778837Y-42551552D01*
X53875249Y-42394765D01*
X53957496Y-42263644D01*
X54018275Y-42169771D01*
X54050282Y-42124726D01*
X54061805Y-42115342D01*
X54132558Y-42078221D01*
X54245587Y-42031279D01*
X54382461Y-41982411D01*
X54418395Y-41970294D01*
X54570199Y-41914699D01*
X54706365Y-41858606D01*
X54801054Y-41812500D01*
X54929365Y-41738630D01*
X55030026Y-41877093D01*
G37*
G36*
X55335712Y-41612010D02*
G01*
X55425877Y-41652293D01*
X55561804Y-41716213D01*
X55734433Y-41799256D01*
X55934705Y-41896908D01*
X56153559Y-42004652D01*
X56381936Y-42117976D01*
X56610775Y-42232366D01*
X56831017Y-42343305D01*
X57033603Y-42446280D01*
X57209471Y-42536777D01*
X57349563Y-42610281D01*
X57444819Y-42662277D01*
X57486179Y-42688251D01*
X57511742Y-42745403D01*
X57529569Y-42855950D01*
X57537389Y-42997491D01*
X57535500Y-43149959D01*
X57524200Y-43293290D01*
X57503785Y-43407420D01*
X57474554Y-43472283D01*
X57460654Y-43483022D01*
X57405381Y-43503659D01*
X57311804Y-43518493D01*
X57171928Y-43528187D01*
X56977755Y-43533406D01*
X56721290Y-43534812D01*
X56031217Y-43534151D01*
X55998172Y-43300202D01*
X55975997Y-43169578D01*
X55900821Y-42865054D01*
X55795489Y-42550349D01*
X55668025Y-42245593D01*
X55526453Y-41970914D01*
X55378795Y-41746440D01*
X55334749Y-41684953D01*
X55299854Y-41622715D01*
X55301641Y-41599711D01*
X55335712Y-41612010D01*
G37*
%TO.C,REF\u002A\u002A*%
X70800000Y-45090000D02*
X70940000Y-45090000D01*
X70940000Y-45090000D02*
X70940000Y-43970000D01*
X70940000Y-43970000D02*
X70800000Y-43970000D01*
X70800000Y-43970000D02*
X70800000Y-45090000D01*
G36*
X70940000Y-45090000D02*
G01*
X70800000Y-45090000D01*
X70800000Y-43970000D01*
X70940000Y-43970000D01*
X70940000Y-45090000D01*
G37*
X70940000Y-45090000D02*
X70800000Y-45090000D01*
X70800000Y-43970000D01*
X70940000Y-43970000D01*
X70940000Y-45090000D01*
X69920000Y-45090000D02*
X70940000Y-45090000D01*
X70940000Y-45090000D02*
X70940000Y-44950000D01*
X70940000Y-44950000D02*
X69920000Y-44950000D01*
X69920000Y-44950000D02*
X69920000Y-45090000D01*
G36*
X70940000Y-45090000D02*
G01*
X69920000Y-45090000D01*
X69920000Y-44950000D01*
X70940000Y-44950000D01*
X70940000Y-45090000D01*
G37*
X70940000Y-45090000D02*
X69920000Y-45090000D01*
X69920000Y-44950000D01*
X70940000Y-44950000D01*
X70940000Y-45090000D01*
X62442987Y-28502982D02*
X62512987Y-28381738D01*
X62512987Y-28381738D02*
X61950070Y-28056738D01*
X61950070Y-28056738D02*
X61880070Y-28177982D01*
X61880070Y-28177982D02*
X62442987Y-28502982D01*
G36*
X62512987Y-28381738D02*
G01*
X62442987Y-28502982D01*
X61880070Y-28177982D01*
X61950070Y-28056738D01*
X62512987Y-28381738D01*
G37*
X62512987Y-28381738D02*
X62442987Y-28502982D01*
X61880070Y-28177982D01*
X61950070Y-28056738D01*
X62512987Y-28381738D01*
X62850019Y-28737982D02*
X62920019Y-28616738D01*
X62920019Y-28616738D02*
X61950070Y-28056738D01*
X61950070Y-28056738D02*
X61880070Y-28177982D01*
X61880070Y-28177982D02*
X62850019Y-28737982D01*
G36*
X62920019Y-28616738D02*
G01*
X62850019Y-28737982D01*
X61880070Y-28177982D01*
X61950070Y-28056738D01*
X62920019Y-28616738D01*
G37*
X62920019Y-28616738D02*
X62850019Y-28737982D01*
X61880070Y-28177982D01*
X61950070Y-28056738D01*
X62920019Y-28616738D01*
X62410019Y-29500084D02*
X62920019Y-28616738D01*
X62920019Y-28616738D02*
X62798775Y-28546738D01*
X62798775Y-28546738D02*
X62288775Y-29430084D01*
X62288775Y-29430084D02*
X62410019Y-29500084D01*
G36*
X62920019Y-28616738D02*
G01*
X62410019Y-29500084D01*
X62288775Y-29430084D01*
X62798775Y-28546738D01*
X62920019Y-28616738D01*
G37*
X62920019Y-28616738D02*
X62410019Y-29500084D01*
X62288775Y-29430084D01*
X62798775Y-28546738D01*
X62920019Y-28616738D01*
X51430000Y-61910000D02*
X51430000Y-62050000D01*
X51430000Y-62050000D02*
X52080000Y-62050000D01*
X52080000Y-62050000D02*
X52080000Y-61910000D01*
X52080000Y-61910000D02*
X51430000Y-61910000D01*
G36*
X52080000Y-62050000D02*
G01*
X51430000Y-62050000D01*
X51430000Y-61910000D01*
X52080000Y-61910000D01*
X52080000Y-62050000D01*
G37*
X52080000Y-62050000D02*
X51430000Y-62050000D01*
X51430000Y-61910000D01*
X52080000Y-61910000D01*
X52080000Y-62050000D01*
X50960000Y-61030000D02*
X50960000Y-62050000D01*
X50960000Y-62050000D02*
X51100000Y-62050000D01*
X51100000Y-62050000D02*
X51100000Y-61030000D01*
X51100000Y-61030000D02*
X50960000Y-61030000D01*
G36*
X51100000Y-62050000D02*
G01*
X50960000Y-62050000D01*
X50960000Y-61030000D01*
X51100000Y-61030000D01*
X51100000Y-62050000D01*
G37*
X51100000Y-62050000D02*
X50960000Y-62050000D01*
X50960000Y-61030000D01*
X51100000Y-61030000D01*
X51100000Y-62050000D01*
X50960000Y-61910000D02*
X50960000Y-62050000D01*
X50960000Y-62050000D02*
X52080000Y-62050000D01*
X52080000Y-62050000D02*
X52080000Y-61910000D01*
X52080000Y-61910000D02*
X50960000Y-61910000D01*
G36*
X52080000Y-62050000D02*
G01*
X50960000Y-62050000D01*
X50960000Y-61910000D01*
X52080000Y-61910000D01*
X52080000Y-62050000D01*
G37*
X52080000Y-62050000D02*
X50960000Y-62050000D01*
X50960000Y-61910000D01*
X52080000Y-61910000D01*
X52080000Y-62050000D01*
X69392018Y-35200019D02*
X69513262Y-35130019D01*
X69513262Y-35130019D02*
X68953262Y-34160070D01*
X68953262Y-34160070D02*
X68832018Y-34230070D01*
X68832018Y-34230070D02*
X69392018Y-35200019D01*
G36*
X69513262Y-35130019D02*
G01*
X69392018Y-35200019D01*
X68832018Y-34230070D01*
X68953262Y-34160070D01*
X69513262Y-35130019D01*
G37*
X69513262Y-35130019D02*
X69392018Y-35200019D01*
X68832018Y-34230070D01*
X68953262Y-34160070D01*
X69513262Y-35130019D01*
X69157018Y-34792987D02*
X69278262Y-34722987D01*
X69278262Y-34722987D02*
X68953262Y-34160070D01*
X68953262Y-34160070D02*
X68832018Y-34230070D01*
X68832018Y-34230070D02*
X69157018Y-34792987D01*
G36*
X69278262Y-34722987D02*
G01*
X69157018Y-34792987D01*
X68832018Y-34230070D01*
X68953262Y-34160070D01*
X69278262Y-34722987D01*
G37*
X69278262Y-34722987D02*
X69157018Y-34792987D01*
X68832018Y-34230070D01*
X68953262Y-34160070D01*
X69278262Y-34722987D01*
X68629916Y-35640019D02*
X69513262Y-35130019D01*
X69513262Y-35130019D02*
X69443262Y-35008775D01*
X69443262Y-35008775D02*
X68559916Y-35518775D01*
X68559916Y-35518775D02*
X68629916Y-35640019D01*
G36*
X69513262Y-35130019D02*
G01*
X68629916Y-35640019D01*
X68559916Y-35518775D01*
X69443262Y-35008775D01*
X69513262Y-35130019D01*
G37*
X69513262Y-35130019D02*
X68629916Y-35640019D01*
X68559916Y-35518775D01*
X69443262Y-35008775D01*
X69513262Y-35130019D01*
X35607982Y-51399981D02*
X35486738Y-51469981D01*
X35486738Y-51469981D02*
X36046738Y-52439930D01*
X36046738Y-52439930D02*
X36167982Y-52369930D01*
X36167982Y-52369930D02*
X35607982Y-51399981D01*
G36*
X36167982Y-52369930D02*
G01*
X36046738Y-52439930D01*
X35486738Y-51469981D01*
X35607982Y-51399981D01*
X36167982Y-52369930D01*
G37*
X36167982Y-52369930D02*
X36046738Y-52439930D01*
X35486738Y-51469981D01*
X35607982Y-51399981D01*
X36167982Y-52369930D01*
X35842982Y-51807013D02*
X35721738Y-51877013D01*
X35721738Y-51877013D02*
X36046738Y-52439930D01*
X36046738Y-52439930D02*
X36167982Y-52369930D01*
X36167982Y-52369930D02*
X35842982Y-51807013D01*
G36*
X36167982Y-52369930D02*
G01*
X36046738Y-52439930D01*
X35721738Y-51877013D01*
X35842982Y-51807013D01*
X36167982Y-52369930D01*
G37*
X36167982Y-52369930D02*
X36046738Y-52439930D01*
X35721738Y-51877013D01*
X35842982Y-51807013D01*
X36167982Y-52369930D01*
X36370084Y-50959981D02*
X35486738Y-51469981D01*
X35486738Y-51469981D02*
X35556738Y-51591225D01*
X35556738Y-51591225D02*
X36440084Y-51081225D01*
X36440084Y-51081225D02*
X36370084Y-50959981D01*
G36*
X36440084Y-51081225D02*
G01*
X35556738Y-51591225D01*
X35486738Y-51469981D01*
X36370084Y-50959981D01*
X36440084Y-51081225D01*
G37*
X36440084Y-51081225D02*
X35556738Y-51591225D01*
X35486738Y-51469981D01*
X36370084Y-50959981D01*
X36440084Y-51081225D01*
X67862018Y-54450019D02*
X67983262Y-54520019D01*
X67983262Y-54520019D02*
X68543262Y-53550070D01*
X68543262Y-53550070D02*
X68422018Y-53480070D01*
X68422018Y-53480070D02*
X67862018Y-54450019D01*
G36*
X68543262Y-53550070D02*
G01*
X67983262Y-54520019D01*
X67862018Y-54450019D01*
X68422018Y-53480070D01*
X68543262Y-53550070D01*
G37*
X68543262Y-53550070D02*
X67983262Y-54520019D01*
X67862018Y-54450019D01*
X68422018Y-53480070D01*
X68543262Y-53550070D01*
X68097018Y-54042987D02*
X68218262Y-54112987D01*
X68218262Y-54112987D02*
X68543262Y-53550070D01*
X68543262Y-53550070D02*
X68422018Y-53480070D01*
X68422018Y-53480070D02*
X68097018Y-54042987D01*
G36*
X68543262Y-53550070D02*
G01*
X68218262Y-54112987D01*
X68097018Y-54042987D01*
X68422018Y-53480070D01*
X68543262Y-53550070D01*
G37*
X68543262Y-53550070D02*
X68218262Y-54112987D01*
X68097018Y-54042987D01*
X68422018Y-53480070D01*
X68543262Y-53550070D01*
X67099916Y-54010019D02*
X67983262Y-54520019D01*
X67983262Y-54520019D02*
X68053262Y-54398775D01*
X68053262Y-54398775D02*
X67169916Y-53888775D01*
X67169916Y-53888775D02*
X67099916Y-54010019D01*
G36*
X68053262Y-54398775D02*
G01*
X67983262Y-54520019D01*
X67099916Y-54010019D01*
X67169916Y-53888775D01*
X68053262Y-54398775D01*
G37*
X68053262Y-54398775D02*
X67983262Y-54520019D01*
X67099916Y-54010019D01*
X67169916Y-53888775D01*
X68053262Y-54398775D01*
X36548982Y-33905013D02*
X36427738Y-33835013D01*
X36427738Y-33835013D02*
X36102738Y-34397930D01*
X36102738Y-34397930D02*
X36223982Y-34467930D01*
X36223982Y-34467930D02*
X36548982Y-33905013D01*
G36*
X36548982Y-33905013D02*
G01*
X36223982Y-34467930D01*
X36102738Y-34397930D01*
X36427738Y-33835013D01*
X36548982Y-33905013D01*
G37*
X36548982Y-33905013D02*
X36223982Y-34467930D01*
X36102738Y-34397930D01*
X36427738Y-33835013D01*
X36548982Y-33905013D01*
X37546084Y-33937981D02*
X36662738Y-33427981D01*
X36662738Y-33427981D02*
X36592738Y-33549225D01*
X36592738Y-33549225D02*
X37476084Y-34059225D01*
X37476084Y-34059225D02*
X37546084Y-33937981D01*
G36*
X37546084Y-33937981D02*
G01*
X37476084Y-34059225D01*
X36592738Y-33549225D01*
X36662738Y-33427981D01*
X37546084Y-33937981D01*
G37*
X37546084Y-33937981D02*
X37476084Y-34059225D01*
X36592738Y-33549225D01*
X36662738Y-33427981D01*
X37546084Y-33937981D01*
X36783982Y-33497981D02*
X36662738Y-33427981D01*
X36662738Y-33427981D02*
X36102738Y-34397930D01*
X36102738Y-34397930D02*
X36223982Y-34467930D01*
X36223982Y-34467930D02*
X36783982Y-33497981D01*
G36*
X36783982Y-33497981D02*
G01*
X36223982Y-34467930D01*
X36102738Y-34397930D01*
X36662738Y-33427981D01*
X36783982Y-33497981D01*
G37*
X36783982Y-33497981D02*
X36223982Y-34467930D01*
X36102738Y-34397930D01*
X36662738Y-33427981D01*
X36783982Y-33497981D01*
%TD*%
%LPC*%
D12*
%TO.C,SW1*%
X45000000Y-41100000D03*
D13*
X45000000Y-46100000D03*
X45000000Y-43600000D03*
D14*
X52500000Y-38000000D03*
X52500000Y-49200000D03*
D13*
X59500000Y-46100000D03*
X59500000Y-41100000D03*
%TD*%
D15*
%TO.C,J2*%
X74550000Y-37180000D03*
D16*
X74550000Y-39720000D03*
X74550000Y-42260000D03*
X74550000Y-44800000D03*
X74550000Y-47340000D03*
X74550000Y-49880000D03*
%TD*%
%TO.C,*%
X72381000Y-34420000D03*
%TD*%
D17*
%TO.C,*%
X64000000Y-55000000D03*
%TD*%
%TO.C,*%
X36750000Y-47750000D03*
%TD*%
%TO.C,*%
X64000000Y-32000000D03*
%TD*%
D18*
%TO.C,C*%
X70000000Y-37272500D03*
X70000000Y-40397500D03*
%TD*%
D19*
%TO.C,REF\u002A\u002A*%
X47249519Y-53150129D03*
D20*
X47849519Y-52110898D03*
D19*
X45950481Y-52400129D03*
X43150481Y-57249871D03*
D20*
X42550481Y-58289102D03*
D19*
X44449519Y-57999871D03*
%TD*%
D20*
%TO.C,REF\u002A\u002A*%
X58049519Y-51360898D03*
D21*
X58649519Y-52400129D03*
X57350481Y-53150129D03*
D20*
X60750481Y-59039102D03*
D21*
X60150481Y-57999871D03*
X61449519Y-57249871D03*
%TD*%
D22*
%TO.C,REF\u002A\u002A*%
X51740000Y-32955000D03*
D20*
X51740000Y-34155000D03*
D22*
X53240000Y-32955000D03*
D20*
X53240000Y-26155000D03*
D22*
X53240000Y-27355000D03*
X51740000Y-27355000D03*
%TD*%
D20*
%TO.C,REF\u002A\u002A*%
X46150481Y-36239102D03*
D23*
X45550481Y-35199871D03*
X46849519Y-34449871D03*
D20*
X43449519Y-28560898D03*
D23*
X44049519Y-29600129D03*
X42750481Y-30350129D03*
%TD*%
D20*
%TO.C,REF\u002A\u002A*%
X42870000Y-44310000D03*
D24*
X41670000Y-44310000D03*
X41670000Y-42810000D03*
D20*
X34870000Y-42810000D03*
D24*
X36070000Y-42810000D03*
X36070000Y-44310000D03*
%TD*%
D20*
%TO.C,REF\u002A\u002A*%
X62150000Y-42810000D03*
D24*
X63350000Y-42810000D03*
X63350000Y-44310000D03*
D20*
X70150000Y-44310000D03*
D24*
X68950000Y-44310000D03*
X68950000Y-42810000D03*
%TD*%
D25*
%TO.C,REF\u002A\u002A*%
X57150481Y-34049871D03*
D20*
X56550481Y-35089102D03*
D25*
X58449519Y-34799871D03*
D20*
X61849519Y-28910898D03*
D25*
X61249519Y-29950129D03*
X59950481Y-29200129D03*
%TD*%
D22*
%TO.C,REF\u002A\u002A*%
X53240000Y-54460000D03*
D20*
X53240000Y-53260000D03*
D22*
X51740000Y-54460000D03*
D20*
X51740000Y-61260000D03*
D22*
X51740000Y-60060000D03*
X53240000Y-60060000D03*
%TD*%
D20*
%TO.C,REF\u002A\u002A*%
X60760898Y-37550481D03*
D26*
X61800129Y-36950481D03*
X62550129Y-38249519D03*
D20*
X68439102Y-34849519D03*
D26*
X67399871Y-35449519D03*
X66649871Y-34150481D03*
%TD*%
D27*
%TO.C,REF\u002A\u002A*%
X43199871Y-49649519D03*
D20*
X44239102Y-49049519D03*
D27*
X42449871Y-48350481D03*
X37600129Y-51150481D03*
D20*
X36560898Y-51750481D03*
D27*
X38350129Y-52449519D03*
%TD*%
D28*
%TO.C,R*%
X70000000Y-46750000D03*
X70000000Y-49850000D03*
%TD*%
D20*
%TO.C,REF\u002A\u002A*%
X61510898Y-48150481D03*
D29*
X62550129Y-48750481D03*
X61800129Y-50049519D03*
D20*
X67689102Y-53449519D03*
D29*
X66649871Y-52849519D03*
X67399871Y-51550481D03*
%TD*%
D20*
%TO.C,REF\u002A\u002A*%
X43135102Y-39797519D03*
D30*
X42095871Y-39197519D03*
X42845871Y-37898481D03*
X37996129Y-35098481D03*
D20*
X36956898Y-34498481D03*
D30*
X37246129Y-36397519D03*
%TD*%
M02*
