%TF.GenerationSoftware,KiCad,Pcbnew,(6.0.2)*%
%TF.CreationDate,2022-04-19T06:21:28+10:00*%
%TF.ProjectId,adapter,61646170-7465-4722-9e6b-696361645f70,1.2*%
%TF.SameCoordinates,Original*%
%TF.FileFunction,Copper,L1,Top*%
%TF.FilePolarity,Positive*%
%FSLAX46Y46*%
G04 Gerber Fmt 4.6, Leading zero omitted, Abs format (unit mm)*
G04 Created by KiCad (PCBNEW (6.0.2)) date 2022-04-19 06:21:28*
%MOMM*%
%LPD*%
G01*
G04 APERTURE LIST*
%TA.AperFunction,ComponentPad*%
%ADD10R,2.000000X2.000000*%
%TD*%
%TA.AperFunction,ComponentPad*%
%ADD11C,2.000000*%
%TD*%
%TA.AperFunction,ComponentPad*%
%ADD12R,3.200000X2.000000*%
%TD*%
%TA.AperFunction,ComponentPad*%
%ADD13R,1.700000X1.700000*%
%TD*%
%TA.AperFunction,ComponentPad*%
%ADD14O,1.700000X1.700000*%
%TD*%
%TA.AperFunction,ComponentPad*%
%ADD15C,4.000000*%
%TD*%
%TA.AperFunction,ComponentPad*%
%ADD16C,0.800000*%
%TD*%
%TA.AperFunction,Conductor*%
%ADD17C,0.203200*%
%TD*%
%TA.AperFunction,Conductor*%
%ADD18C,0.500000*%
%TD*%
G04 APERTURE END LIST*
D10*
%TO.P,SW1,A,A*%
%TO.N,r2*%
X45000000Y-41100000D03*
D11*
%TO.P,SW1,B,B*%
%TO.N,r1*%
X45000000Y-46100000D03*
%TO.P,SW1,C,C*%
%TO.N,Gnd*%
X45000000Y-43600000D03*
D12*
%TO.P,SW1,MP*%
%TO.N,N/C*%
X52500000Y-38000000D03*
X52500000Y-49200000D03*
D11*
%TO.P,SW1,S1,S1*%
%TO.N,Vcc*%
X59500000Y-46100000D03*
%TO.P,SW1,S2,S2*%
%TO.N,button*%
X59500000Y-41100000D03*
%TD*%
D13*
%TO.P,J2,1,Pin_1*%
%TO.N,Vcc*%
X74550000Y-37180000D03*
D14*
%TO.P,J2,2,Pin_2*%
%TO.N,button*%
X74550000Y-39720000D03*
%TO.P,J2,3,Pin_3*%
%TO.N,r1*%
X74550000Y-42260000D03*
%TO.P,J2,4,Pin_4*%
%TO.N,r2*%
X74550000Y-44800000D03*
%TO.P,J2,5,Pin_5*%
%TO.N,DIN*%
X74550000Y-47340000D03*
%TO.P,J2,6,Pin_6*%
%TO.N,Gnd*%
X74550000Y-49880000D03*
%TD*%
%TO.P,,7,Pin_6*%
%TO.N,DO*%
X72381000Y-34420000D03*
%TD*%
D15*
%TO.P,,1*%
%TO.N,N/C*%
X64000000Y-55000000D03*
%TD*%
%TO.P,,1*%
%TO.N,N/C*%
X36750000Y-47750000D03*
%TD*%
%TO.P,,1*%
%TO.N,N/C*%
X64000000Y-32000000D03*
%TD*%
D16*
%TO.P,REF\u002A\u002A,1*%
%TO.N,Vcc*%
X47849519Y-52110898D03*
%TO.P,REF\u002A\u002A,3*%
%TO.N,Gnd*%
X42550481Y-58289102D03*
%TD*%
%TO.P,REF\u002A\u002A,1*%
%TO.N,Vcc*%
X58049519Y-51360898D03*
%TO.P,REF\u002A\u002A,3*%
%TO.N,Gnd*%
X60750481Y-59039102D03*
%TD*%
%TO.P,REF\u002A\u002A,1*%
%TO.N,Vcc*%
X51740000Y-34155000D03*
%TO.P,REF\u002A\u002A,3*%
%TO.N,Gnd*%
X53240000Y-26155000D03*
%TD*%
%TO.P,REF\u002A\u002A,1*%
%TO.N,Vcc*%
X46150481Y-36239102D03*
%TO.P,REF\u002A\u002A,3*%
%TO.N,Gnd*%
X43449519Y-28560898D03*
%TD*%
%TO.P,REF\u002A\u002A,1*%
%TO.N,Vcc*%
X42870000Y-44310000D03*
%TO.P,REF\u002A\u002A,3*%
%TO.N,Gnd*%
X34870000Y-42810000D03*
%TD*%
%TO.P,REF\u002A\u002A,1*%
%TO.N,Vcc*%
X62150000Y-42810000D03*
%TO.P,REF\u002A\u002A,3*%
%TO.N,Gnd*%
X70150000Y-44310000D03*
%TD*%
%TO.P,REF\u002A\u002A,1*%
%TO.N,Vcc*%
X56550481Y-35089102D03*
%TO.P,REF\u002A\u002A,3*%
%TO.N,Gnd*%
X61849519Y-28910898D03*
%TD*%
%TO.P,REF\u002A\u002A,1*%
%TO.N,Vcc*%
X53240000Y-53260000D03*
%TO.P,REF\u002A\u002A,3*%
%TO.N,Gnd*%
X51740000Y-61260000D03*
%TD*%
%TO.P,REF\u002A\u002A,1*%
%TO.N,Vcc*%
X60760898Y-37550481D03*
%TO.P,REF\u002A\u002A,3*%
%TO.N,Gnd*%
X68439102Y-34849519D03*
%TD*%
%TO.P,REF\u002A\u002A,1*%
%TO.N,Vcc*%
X44239102Y-49049519D03*
%TO.P,REF\u002A\u002A,3*%
%TO.N,Gnd*%
X36560898Y-51750481D03*
%TD*%
%TO.P,REF\u002A\u002A,1*%
%TO.N,Vcc*%
X61510898Y-48150481D03*
%TO.P,REF\u002A\u002A,3*%
%TO.N,Gnd*%
X67689102Y-53449519D03*
%TD*%
%TO.P,REF\u002A\u002A,1*%
%TO.N,Vcc*%
X43135102Y-39797519D03*
%TO.P,REF\u002A\u002A,3*%
%TO.N,Gnd*%
X36956898Y-34498481D03*
%TD*%
D17*
%TO.N,r1*%
X75785000Y-43356000D02*
X74550000Y-42260000D01*
X62311000Y-45749000D02*
X68740000Y-45749000D01*
X68740000Y-45749000D02*
X69489000Y-46048000D01*
X75050000Y-46044000D02*
X75785000Y-45332000D01*
X75785000Y-45332000D02*
X75785000Y-43356000D01*
X47112000Y-43719000D02*
X60364000Y-43719000D01*
X69489000Y-46048000D02*
X75050000Y-46044000D01*
X45000000Y-46100000D02*
X47112000Y-43719000D01*
X60364000Y-43719000D02*
X62311000Y-45749000D01*
%TO.N,button*%
X72218000Y-40369000D02*
X74550000Y-39720000D01*
X61131000Y-40414000D02*
X72218000Y-40369000D01*
X59500000Y-41100000D02*
X61131000Y-40414000D01*
D18*
%TO.N,Gnd*%
X34870000Y-42810000D02*
X34870000Y-41330000D01*
X42276000Y-41378000D02*
X42276000Y-42014000D01*
X41395000Y-40606000D02*
X42276000Y-41378000D01*
X42839000Y-42749000D02*
X45000000Y-43600000D01*
X35594000Y-40606000D02*
X41395000Y-40606000D01*
X42276000Y-42014000D02*
X42839000Y-42749000D01*
X34870000Y-41330000D02*
X35594000Y-40606000D01*
D17*
%TO.N,r2*%
X47026000Y-42681000D02*
X60380000Y-42674000D01*
X62654000Y-40821000D02*
X71720000Y-40819000D01*
X71720000Y-40819000D02*
X74550000Y-44800000D01*
X60380000Y-42674000D02*
X62654000Y-40821000D01*
X45000000Y-41100000D02*
X47026000Y-42681000D01*
%TD*%
%TA.AperFunction,Conductor*%
%TO.N,Vcc*%
G36*
X41240569Y-41575577D02*
G01*
X41249306Y-41582572D01*
X41311532Y-41637099D01*
X41388490Y-41704535D01*
X41402540Y-41716847D01*
X41440591Y-41776786D01*
X41445500Y-41811612D01*
X41445500Y-41923784D01*
X41445477Y-41924209D01*
X41445408Y-41924526D01*
X41445500Y-42026372D01*
X41445500Y-42059077D01*
X41445524Y-42059296D01*
X41445530Y-42059515D01*
X41445531Y-42060804D01*
X41445571Y-42104971D01*
X41447042Y-42111632D01*
X41447042Y-42111634D01*
X41453762Y-42142071D01*
X41455988Y-42155626D01*
X41460091Y-42193389D01*
X41462265Y-42199850D01*
X41462266Y-42199853D01*
X41472482Y-42230209D01*
X41476099Y-42243227D01*
X41484477Y-42281171D01*
X41487343Y-42287358D01*
X41500441Y-42315638D01*
X41505526Y-42328399D01*
X41517645Y-42364409D01*
X41521160Y-42370259D01*
X41521161Y-42370261D01*
X41537658Y-42397716D01*
X41543987Y-42409657D01*
X41560313Y-42444906D01*
X41563428Y-42449482D01*
X41564500Y-42450881D01*
X41564509Y-42450894D01*
X41583857Y-42476152D01*
X41591829Y-42487872D01*
X41610581Y-42519080D01*
X41615267Y-42524035D01*
X41615269Y-42524038D01*
X41638498Y-42548603D01*
X41646976Y-42558555D01*
X42147388Y-43211844D01*
X42155244Y-43223370D01*
X42165891Y-43241015D01*
X42174513Y-43255305D01*
X42179212Y-43260256D01*
X42179213Y-43260257D01*
X42205923Y-43288398D01*
X42206618Y-43289169D01*
X42207105Y-43289805D01*
X42208656Y-43291430D01*
X42208658Y-43291433D01*
X42237208Y-43321359D01*
X42237430Y-43321593D01*
X42258921Y-43344235D01*
X42298735Y-43386183D01*
X42299625Y-43386785D01*
X42300362Y-43387558D01*
X42305896Y-43391283D01*
X42305900Y-43391287D01*
X42374206Y-43437272D01*
X42374467Y-43437447D01*
X42386685Y-43445718D01*
X42431886Y-43500464D01*
X42437286Y-43515714D01*
X42438220Y-43519010D01*
X43653370Y-44734160D01*
X43665750Y-44740920D01*
X43675977Y-44733264D01*
X43723172Y-44688259D01*
X43792885Y-44674820D01*
X43858798Y-44701204D01*
X43872067Y-44713946D01*
X43872243Y-44713770D01*
X43875749Y-44717276D01*
X43878962Y-44721038D01*
X43882724Y-44724251D01*
X43882729Y-44724256D01*
X43917777Y-44754189D01*
X43956587Y-44813639D01*
X43957094Y-44884634D01*
X43917777Y-44945811D01*
X43878962Y-44978962D01*
X43875749Y-44982724D01*
X43720610Y-45164368D01*
X43720607Y-45164373D01*
X43717395Y-45168133D01*
X43587410Y-45380249D01*
X43585517Y-45384819D01*
X43585515Y-45384823D01*
X43509129Y-45569235D01*
X43492207Y-45610088D01*
X43434132Y-45851991D01*
X43414613Y-46100000D01*
X43434132Y-46348009D01*
X43435286Y-46352816D01*
X43435287Y-46352822D01*
X43463904Y-46472022D01*
X43492207Y-46589912D01*
X43494100Y-46594483D01*
X43494101Y-46594485D01*
X43550816Y-46731405D01*
X43587410Y-46819751D01*
X43717395Y-47031867D01*
X43720607Y-47035627D01*
X43720610Y-47035632D01*
X43746588Y-47066048D01*
X43878962Y-47221038D01*
X43882724Y-47224251D01*
X44064368Y-47379390D01*
X44064373Y-47379393D01*
X44068133Y-47382605D01*
X44280249Y-47512590D01*
X44284819Y-47514483D01*
X44284823Y-47514485D01*
X44505515Y-47605899D01*
X44505517Y-47605900D01*
X44510088Y-47607793D01*
X44558852Y-47619500D01*
X44747178Y-47664713D01*
X44747184Y-47664714D01*
X44751991Y-47665868D01*
X45000000Y-47685387D01*
X45248009Y-47665868D01*
X45252816Y-47664714D01*
X45252822Y-47664713D01*
X45441148Y-47619500D01*
X45489912Y-47607793D01*
X45494483Y-47605900D01*
X45494485Y-47605899D01*
X45715177Y-47514485D01*
X45715181Y-47514483D01*
X45719751Y-47512590D01*
X45931867Y-47382605D01*
X45935627Y-47379393D01*
X45935632Y-47379390D01*
X45990334Y-47332670D01*
X58632160Y-47332670D01*
X58637887Y-47340320D01*
X58809042Y-47445205D01*
X58817837Y-47449687D01*
X59027988Y-47536734D01*
X59037373Y-47539783D01*
X59258554Y-47592885D01*
X59268301Y-47594428D01*
X59495070Y-47612275D01*
X59504930Y-47612275D01*
X59731699Y-47594428D01*
X59741446Y-47592885D01*
X59962627Y-47539783D01*
X59972012Y-47536734D01*
X60182163Y-47449687D01*
X60190958Y-47445205D01*
X60340030Y-47353853D01*
X61077520Y-47353853D01*
X61079117Y-47359490D01*
X61498086Y-47778459D01*
X61512030Y-47786073D01*
X61513863Y-47785942D01*
X61520478Y-47781691D01*
X61937269Y-47364900D01*
X61944029Y-47352520D01*
X61940518Y-47347830D01*
X61799057Y-47284847D01*
X61786578Y-47280792D01*
X61612791Y-47243854D01*
X61599730Y-47242481D01*
X61422066Y-47242481D01*
X61409005Y-47243854D01*
X61235218Y-47280792D01*
X61222739Y-47284847D01*
X61088265Y-47344720D01*
X61077520Y-47353853D01*
X60340030Y-47353853D01*
X60358445Y-47342568D01*
X60367907Y-47332110D01*
X60364124Y-47323334D01*
X59512812Y-46472022D01*
X59498868Y-46464408D01*
X59497035Y-46464539D01*
X59490420Y-46468790D01*
X58638920Y-47320290D01*
X58632160Y-47332670D01*
X45990334Y-47332670D01*
X46117276Y-47224251D01*
X46121038Y-47221038D01*
X46253412Y-47066048D01*
X46279390Y-47035632D01*
X46279393Y-47035627D01*
X46282605Y-47031867D01*
X46412590Y-46819751D01*
X46449185Y-46731405D01*
X46505899Y-46594485D01*
X46505900Y-46594483D01*
X46507793Y-46589912D01*
X46536096Y-46472022D01*
X46564713Y-46352822D01*
X46564714Y-46352816D01*
X46565868Y-46348009D01*
X46584999Y-46104930D01*
X57987725Y-46104930D01*
X58005572Y-46331699D01*
X58007115Y-46341446D01*
X58060217Y-46562627D01*
X58063266Y-46572012D01*
X58150313Y-46782163D01*
X58154795Y-46790958D01*
X58257432Y-46958445D01*
X58267890Y-46967907D01*
X58276666Y-46964124D01*
X59127978Y-46112812D01*
X59135592Y-46098868D01*
X59135461Y-46097035D01*
X59131210Y-46090420D01*
X58279710Y-45238920D01*
X58267330Y-45232160D01*
X58259680Y-45237887D01*
X58154795Y-45409042D01*
X58150313Y-45417837D01*
X58063266Y-45627988D01*
X58060217Y-45637373D01*
X58007115Y-45858554D01*
X58005572Y-45868301D01*
X57987725Y-46095070D01*
X57987725Y-46104930D01*
X46584999Y-46104930D01*
X46585387Y-46100000D01*
X46565868Y-45851991D01*
X46542687Y-45755431D01*
X46508946Y-45614891D01*
X46507793Y-45610088D01*
X46493343Y-45575202D01*
X46486571Y-45558853D01*
X46478982Y-45488264D01*
X46508719Y-45427023D01*
X47381137Y-44443488D01*
X47441305Y-44405800D01*
X47475398Y-44401100D01*
X59052101Y-44401100D01*
X59120222Y-44421102D01*
X59166715Y-44474758D01*
X59176819Y-44545032D01*
X59147325Y-44609612D01*
X59081516Y-44649619D01*
X59037370Y-44660218D01*
X59027988Y-44663266D01*
X58817837Y-44750313D01*
X58809042Y-44754795D01*
X58641555Y-44857432D01*
X58632093Y-44867890D01*
X58635876Y-44876666D01*
X60720290Y-46961080D01*
X60732670Y-46967840D01*
X60740320Y-46962113D01*
X60845205Y-46790958D01*
X60849687Y-46782163D01*
X60936734Y-46572012D01*
X60939783Y-46562627D01*
X60992885Y-46341446D01*
X60994428Y-46331699D01*
X61012275Y-46104930D01*
X61012275Y-46095070D01*
X60994428Y-45868301D01*
X60992885Y-45858554D01*
X60941881Y-45646110D01*
X60945428Y-45575202D01*
X60986748Y-45517468D01*
X61052721Y-45491238D01*
X61122403Y-45504840D01*
X61155334Y-45529478D01*
X61796197Y-46197660D01*
X61805029Y-46206869D01*
X61809036Y-46211250D01*
X61851234Y-46259622D01*
X61857452Y-46263992D01*
X61894542Y-46290059D01*
X61901891Y-46295637D01*
X61936991Y-46324362D01*
X61936995Y-46324364D01*
X61942873Y-46329175D01*
X61956105Y-46335485D01*
X61974317Y-46346126D01*
X61980089Y-46350183D01*
X61980091Y-46350184D01*
X61986306Y-46354552D01*
X62019646Y-46367551D01*
X62035621Y-46373779D01*
X62044086Y-46377442D01*
X62085032Y-46396968D01*
X62085035Y-46396969D01*
X62091890Y-46400238D01*
X62099326Y-46401777D01*
X62099331Y-46401779D01*
X62106248Y-46403211D01*
X62126470Y-46409200D01*
X62140123Y-46414523D01*
X62192610Y-46421433D01*
X62201690Y-46422968D01*
X62253557Y-46433705D01*
X62261149Y-46433426D01*
X62322130Y-46431185D01*
X62326757Y-46431100D01*
X68584664Y-46431100D01*
X68631378Y-46440080D01*
X69160025Y-46651115D01*
X69162736Y-46652377D01*
X69164742Y-46653785D01*
X69170946Y-46656199D01*
X69170951Y-46656201D01*
X69241788Y-46683760D01*
X69242819Y-46684166D01*
X69271046Y-46695435D01*
X69271050Y-46695436D01*
X69274561Y-46696838D01*
X69276617Y-46697384D01*
X69279066Y-46698265D01*
X69308540Y-46709731D01*
X69318602Y-46713646D01*
X69348602Y-46717573D01*
X69364568Y-46720723D01*
X69386478Y-46726538D01*
X69386486Y-46726539D01*
X69393826Y-46728487D01*
X69401422Y-46728628D01*
X69401424Y-46728628D01*
X69423823Y-46729043D01*
X69432217Y-46729198D01*
X69438035Y-46729440D01*
X69440435Y-46729596D01*
X69444530Y-46730132D01*
X69458375Y-46730122D01*
X69479979Y-46730107D01*
X69482402Y-46730129D01*
X69514972Y-46730732D01*
X69558892Y-46731546D01*
X69563957Y-46730401D01*
X69570970Y-46730041D01*
X72418158Y-46727993D01*
X73069496Y-46727525D01*
X73137631Y-46747478D01*
X73184163Y-46801100D01*
X73194317Y-46871367D01*
X73191005Y-46887193D01*
X73140022Y-47071032D01*
X73139473Y-47076169D01*
X73116734Y-47288940D01*
X73115025Y-47304930D01*
X73115322Y-47310082D01*
X73115322Y-47310086D01*
X73122002Y-47425938D01*
X73128566Y-47539769D01*
X73129703Y-47544815D01*
X73129704Y-47544821D01*
X73146656Y-47620039D01*
X73180281Y-47769244D01*
X73182223Y-47774026D01*
X73182224Y-47774030D01*
X73266836Y-47982404D01*
X73268780Y-47987191D01*
X73391687Y-48187757D01*
X73545701Y-48365556D01*
X73726275Y-48515471D01*
X73765908Y-48574371D01*
X73767406Y-48645352D01*
X73730292Y-48705875D01*
X73721441Y-48713173D01*
X73601139Y-48803498D01*
X73601133Y-48803504D01*
X73596998Y-48806608D01*
X73434482Y-48976672D01*
X73431568Y-48980944D01*
X73431567Y-48980945D01*
X73385561Y-49048387D01*
X73301924Y-49170994D01*
X73202884Y-49384358D01*
X73140022Y-49611032D01*
X73139473Y-49616169D01*
X73116076Y-49835100D01*
X73115025Y-49844930D01*
X73115322Y-49850082D01*
X73115322Y-49850086D01*
X73119074Y-49915153D01*
X73128566Y-50079769D01*
X73129703Y-50084815D01*
X73129704Y-50084821D01*
X73147381Y-50163257D01*
X73180281Y-50309244D01*
X73182223Y-50314026D01*
X73182224Y-50314030D01*
X73257457Y-50499307D01*
X73268780Y-50527191D01*
X73298272Y-50575317D01*
X73379008Y-50707066D01*
X73391687Y-50727757D01*
X73545701Y-50905556D01*
X73726687Y-51055813D01*
X73731139Y-51058415D01*
X73731144Y-51058418D01*
X73925325Y-51171888D01*
X73929783Y-51174493D01*
X74149535Y-51258408D01*
X74154603Y-51259439D01*
X74154606Y-51259440D01*
X74268296Y-51282571D01*
X74380043Y-51305306D01*
X74385216Y-51305496D01*
X74385219Y-51305496D01*
X74609950Y-51313736D01*
X74609954Y-51313736D01*
X74615114Y-51313925D01*
X74620234Y-51313269D01*
X74620236Y-51313269D01*
X74811352Y-51288787D01*
X74881462Y-51299972D01*
X74934396Y-51347285D01*
X74953347Y-51415706D01*
X74934671Y-51479801D01*
X74889497Y-51553210D01*
X74746531Y-51785529D01*
X74741663Y-51792854D01*
X74460191Y-52185901D01*
X74454824Y-52192868D01*
X74146625Y-52565318D01*
X74140785Y-52571894D01*
X74075310Y-52640632D01*
X73807353Y-52921941D01*
X73801084Y-52928079D01*
X73587530Y-53123029D01*
X73444032Y-53254026D01*
X73437334Y-53259725D01*
X73058426Y-53559963D01*
X73051346Y-53565180D01*
X72652424Y-53838252D01*
X72645006Y-53842959D01*
X72458539Y-53952325D01*
X72259160Y-54069264D01*
X72240359Y-54078290D01*
X72221825Y-54085365D01*
X72215132Y-54090208D01*
X72215133Y-54090208D01*
X72197910Y-54102672D01*
X72183779Y-54111535D01*
X65956500Y-57464685D01*
X62492217Y-59330068D01*
X62485999Y-59333197D01*
X62434550Y-59357331D01*
X62428234Y-59362655D01*
X62428233Y-59362656D01*
X62416976Y-59372146D01*
X62401276Y-59383440D01*
X62017728Y-59616883D01*
X61711714Y-59803135D01*
X61706827Y-59805961D01*
X61705748Y-59806552D01*
X61636408Y-59821781D01*
X61569838Y-59797102D01*
X61527178Y-59740352D01*
X61521972Y-59669546D01*
X61548203Y-59616883D01*
X61547988Y-59616731D01*
X61548979Y-59615326D01*
X61549759Y-59613760D01*
X61551536Y-59611701D01*
X61551543Y-59611691D01*
X61555568Y-59607028D01*
X61650546Y-59439837D01*
X61711241Y-59257381D01*
X61735341Y-59066612D01*
X61735725Y-59039102D01*
X61716961Y-58847734D01*
X61714741Y-58840379D01*
X61669289Y-58689837D01*
X61661384Y-58663655D01*
X61571112Y-58493876D01*
X61561811Y-58482472D01*
X61453476Y-58349640D01*
X61453473Y-58349637D01*
X61449581Y-58344865D01*
X61443569Y-58339891D01*
X61365546Y-58275346D01*
X61301422Y-58222298D01*
X61132278Y-58130842D01*
X60948592Y-58073981D01*
X60942474Y-58073338D01*
X60942469Y-58073337D01*
X60763488Y-58054526D01*
X60763486Y-58054526D01*
X60757359Y-58053882D01*
X60639081Y-58064646D01*
X60572006Y-58070750D01*
X60572005Y-58070750D01*
X60565865Y-58071309D01*
X60381402Y-58125600D01*
X60210998Y-58214685D01*
X60061142Y-58335172D01*
X59937543Y-58482472D01*
X59934574Y-58487873D01*
X59934573Y-58487874D01*
X59923849Y-58507381D01*
X59844908Y-58650973D01*
X59786767Y-58834258D01*
X59786081Y-58840375D01*
X59786080Y-58840379D01*
X59767886Y-59002588D01*
X59765333Y-59025346D01*
X59765849Y-59031490D01*
X59779323Y-59191943D01*
X59781423Y-59216957D01*
X59791289Y-59251363D01*
X59829162Y-59383443D01*
X59834424Y-59401795D01*
X59837243Y-59407280D01*
X59919500Y-59567335D01*
X59919503Y-59567340D01*
X59922318Y-59572817D01*
X60041756Y-59723510D01*
X60046449Y-59727504D01*
X60046450Y-59727505D01*
X60075923Y-59752588D01*
X60188189Y-59848134D01*
X60356040Y-59941943D01*
X60361899Y-59943847D01*
X60361902Y-59943848D01*
X60404436Y-59957668D01*
X60538914Y-60001363D01*
X60545024Y-60002092D01*
X60545026Y-60002092D01*
X60606131Y-60009378D01*
X60729848Y-60024130D01*
X60735983Y-60023658D01*
X60735986Y-60023658D01*
X60809716Y-60017985D01*
X60879171Y-60032703D01*
X60929643Y-60082634D01*
X60945108Y-60151925D01*
X60920656Y-60218578D01*
X60874832Y-60256757D01*
X60199201Y-60587862D01*
X60194021Y-60590257D01*
X59944717Y-60698651D01*
X59417730Y-60927778D01*
X59412418Y-60929945D01*
X58869315Y-61137224D01*
X58668425Y-61213895D01*
X58621584Y-61231772D01*
X58616185Y-61233693D01*
X58180943Y-61377471D01*
X57812437Y-61499204D01*
X57806950Y-61500879D01*
X57581359Y-61564168D01*
X56991939Y-61729528D01*
X56986413Y-61730944D01*
X56568408Y-61827926D01*
X56161820Y-61922259D01*
X56156203Y-61923428D01*
X55323781Y-62077002D01*
X55318120Y-62077914D01*
X54479565Y-62193434D01*
X54473903Y-62194084D01*
X53630914Y-62271316D01*
X53625216Y-62271707D01*
X52779614Y-62310483D01*
X52773895Y-62310615D01*
X52520751Y-62310687D01*
X52353753Y-62310734D01*
X52285626Y-62290751D01*
X52239118Y-62237109D01*
X52228994Y-62166838D01*
X52258469Y-62102249D01*
X52276144Y-62085445D01*
X52414588Y-61977281D01*
X52414594Y-61977275D01*
X52419444Y-61973486D01*
X52444544Y-61944408D01*
X52541063Y-61832588D01*
X52541063Y-61832587D01*
X52545087Y-61827926D01*
X52640065Y-61660735D01*
X52700760Y-61478279D01*
X52724860Y-61287510D01*
X52725244Y-61260000D01*
X52706480Y-61068632D01*
X52704260Y-61061277D01*
X52665513Y-60932945D01*
X52650903Y-60884553D01*
X52560631Y-60714774D01*
X52551330Y-60703370D01*
X52442995Y-60570538D01*
X52442992Y-60570535D01*
X52439100Y-60565763D01*
X52433088Y-60560789D01*
X52380102Y-60516956D01*
X52290941Y-60443196D01*
X52121797Y-60351740D01*
X51938111Y-60294879D01*
X51931993Y-60294236D01*
X51931988Y-60294235D01*
X51753007Y-60275424D01*
X51753005Y-60275424D01*
X51746878Y-60274780D01*
X51628600Y-60285544D01*
X51561525Y-60291648D01*
X51561524Y-60291648D01*
X51555384Y-60292207D01*
X51370921Y-60346498D01*
X51200517Y-60435583D01*
X51050661Y-60556070D01*
X50927062Y-60703370D01*
X50924093Y-60708771D01*
X50924092Y-60708772D01*
X50917801Y-60720215D01*
X50834427Y-60871871D01*
X50776286Y-61055156D01*
X50775600Y-61061273D01*
X50775599Y-61061277D01*
X50755960Y-61236363D01*
X50754852Y-61246244D01*
X50770942Y-61437855D01*
X50789014Y-61500879D01*
X50817328Y-61599622D01*
X50823943Y-61622693D01*
X50826762Y-61628178D01*
X50909019Y-61788233D01*
X50909022Y-61788238D01*
X50911837Y-61793715D01*
X51031275Y-61944408D01*
X51035968Y-61948402D01*
X51035969Y-61948403D01*
X51155176Y-62049856D01*
X51194089Y-62109239D01*
X51194720Y-62180233D01*
X51156868Y-62240298D01*
X51092552Y-62270363D01*
X51062092Y-62271291D01*
X50227369Y-62195295D01*
X50221697Y-62194649D01*
X49875759Y-62147192D01*
X49383060Y-62079602D01*
X49377396Y-62078693D01*
X48544891Y-61925595D01*
X48539273Y-61924429D01*
X47714608Y-61733592D01*
X47709049Y-61732172D01*
X46893903Y-61503986D01*
X46888415Y-61502314D01*
X46878983Y-61499204D01*
X46563095Y-61395053D01*
X46084503Y-61237257D01*
X46079096Y-61235336D01*
X45288109Y-60933967D01*
X45282796Y-60931803D01*
X45273525Y-60927778D01*
X44506332Y-60594731D01*
X44501126Y-60592329D01*
X44494569Y-60589120D01*
X43740815Y-60220262D01*
X43735721Y-60217624D01*
X42993134Y-59811329D01*
X42988165Y-59808461D01*
X42490810Y-59506140D01*
X42442989Y-59453664D01*
X42431130Y-59383665D01*
X42458998Y-59318367D01*
X42517745Y-59278501D01*
X42546590Y-59272842D01*
X42715425Y-59259851D01*
X42715429Y-59259850D01*
X42721567Y-59259378D01*
X42808699Y-59235050D01*
X42900825Y-59209328D01*
X42900829Y-59209327D01*
X42906769Y-59207668D01*
X42912273Y-59204888D01*
X42912275Y-59204887D01*
X43072898Y-59123751D01*
X43072900Y-59123750D01*
X43078401Y-59120971D01*
X43229925Y-59002588D01*
X43255025Y-58973510D01*
X43266686Y-58960000D01*
X50404995Y-58960000D01*
X50410000Y-58998016D01*
X50424929Y-59111410D01*
X50483371Y-59252502D01*
X50499967Y-59274130D01*
X50567895Y-59362656D01*
X50576339Y-59373661D01*
X50697497Y-59466629D01*
X50838590Y-59525071D01*
X50990000Y-59545005D01*
X50998188Y-59543927D01*
X51019828Y-59541078D01*
X51036275Y-59540000D01*
X53943725Y-59540000D01*
X53960172Y-59541078D01*
X53990000Y-59545005D01*
X54141410Y-59525071D01*
X54282502Y-59466629D01*
X54390238Y-59383961D01*
X54397115Y-59378684D01*
X54403661Y-59373661D01*
X54465957Y-59292475D01*
X54481022Y-59272842D01*
X54491603Y-59259053D01*
X54496629Y-59252503D01*
X54555071Y-59111410D01*
X54575005Y-58960000D01*
X54571078Y-58930172D01*
X54570000Y-58913725D01*
X54570000Y-55606275D01*
X54571078Y-55589828D01*
X54573927Y-55568188D01*
X54575005Y-55560000D01*
X54555071Y-55408590D01*
X54496629Y-55267498D01*
X54450145Y-55206918D01*
X54408688Y-55152890D01*
X54408687Y-55152889D01*
X54403661Y-55146339D01*
X54282503Y-55053371D01*
X54141410Y-54994929D01*
X53990000Y-54974995D01*
X53981812Y-54976073D01*
X53960172Y-54978922D01*
X53943725Y-54980000D01*
X51036275Y-54980000D01*
X51019828Y-54978922D01*
X50998188Y-54976073D01*
X50990000Y-54974995D01*
X50951984Y-54980000D01*
X50838590Y-54994929D01*
X50697498Y-55053371D01*
X50690947Y-55058398D01*
X50582892Y-55141311D01*
X50576339Y-55146339D01*
X50483371Y-55267497D01*
X50424929Y-55408590D01*
X50404995Y-55560000D01*
X50406073Y-55568188D01*
X50408922Y-55589828D01*
X50410000Y-55606275D01*
X50410000Y-58913725D01*
X50408922Y-58930172D01*
X50404995Y-58960000D01*
X43266686Y-58960000D01*
X43351544Y-58861690D01*
X43351544Y-58861689D01*
X43355568Y-58857028D01*
X43450546Y-58689837D01*
X43511241Y-58507381D01*
X43535341Y-58316612D01*
X43535725Y-58289102D01*
X43516961Y-58097734D01*
X43514741Y-58090379D01*
X43493602Y-58020364D01*
X43461384Y-57913655D01*
X43371112Y-57743876D01*
X43361811Y-57732472D01*
X43253476Y-57599640D01*
X43253473Y-57599637D01*
X43249581Y-57594865D01*
X43243569Y-57589891D01*
X43181831Y-57538818D01*
X43101422Y-57472298D01*
X42932278Y-57380842D01*
X42748592Y-57323981D01*
X42742474Y-57323338D01*
X42742469Y-57323337D01*
X42563488Y-57304526D01*
X42563486Y-57304526D01*
X42557359Y-57303882D01*
X42439081Y-57314646D01*
X42372006Y-57320750D01*
X42372005Y-57320750D01*
X42365865Y-57321309D01*
X42181402Y-57375600D01*
X42010998Y-57464685D01*
X41861142Y-57585172D01*
X41737543Y-57732472D01*
X41734574Y-57737873D01*
X41734573Y-57737874D01*
X41730565Y-57745164D01*
X41644908Y-57900973D01*
X41586767Y-58084258D01*
X41586081Y-58090375D01*
X41586080Y-58090379D01*
X41581213Y-58133771D01*
X41565333Y-58275346D01*
X41581423Y-58466957D01*
X41593014Y-58507381D01*
X41632640Y-58645573D01*
X41634424Y-58651795D01*
X41637242Y-58657278D01*
X41639510Y-58663006D01*
X41637534Y-58663788D01*
X41649074Y-58724048D01*
X41622609Y-58789927D01*
X41564727Y-58831040D01*
X41493807Y-58834334D01*
X41448690Y-58813191D01*
X41254663Y-58669555D01*
X40872420Y-58386585D01*
X40867890Y-58383069D01*
X40864117Y-58380000D01*
X40657341Y-58211831D01*
X40211206Y-57848993D01*
X40206838Y-57845273D01*
X39793073Y-57476228D01*
X39575120Y-57281832D01*
X39570935Y-57277924D01*
X38965515Y-56686302D01*
X38961504Y-56682200D01*
X38383673Y-56063663D01*
X38379853Y-56059383D01*
X38262964Y-55922243D01*
X42465957Y-55922243D01*
X42467035Y-55930431D01*
X42484813Y-56065469D01*
X42484814Y-56065473D01*
X42485891Y-56073653D01*
X42489049Y-56081277D01*
X42489050Y-56081281D01*
X42513372Y-56140000D01*
X42544332Y-56214745D01*
X42544333Y-56214746D01*
X42637302Y-56335904D01*
X42643852Y-56340930D01*
X42643855Y-56340933D01*
X42708038Y-56390182D01*
X42758459Y-56428872D01*
X42786260Y-56440388D01*
X42801033Y-56447673D01*
X44422403Y-57383771D01*
X45318966Y-57901402D01*
X45332671Y-57910560D01*
X45356535Y-57928872D01*
X45497627Y-57987314D01*
X45649038Y-58007248D01*
X45657226Y-58006170D01*
X45792261Y-57988393D01*
X45800449Y-57987315D01*
X45941540Y-57928873D01*
X46062699Y-57835904D01*
X46155667Y-57714746D01*
X46167183Y-57686945D01*
X46174470Y-57672168D01*
X46221370Y-57590936D01*
X47012802Y-56220135D01*
X47828194Y-54807836D01*
X47837349Y-54794134D01*
X47850638Y-54776815D01*
X47850640Y-54776811D01*
X47855667Y-54770260D01*
X47914109Y-54629168D01*
X47934043Y-54477757D01*
X47934043Y-54477756D01*
X56665957Y-54477756D01*
X56685891Y-54629168D01*
X56689050Y-54636795D01*
X56689051Y-54636798D01*
X56731759Y-54739903D01*
X56744333Y-54770260D01*
X56749365Y-54776817D01*
X56762645Y-54794124D01*
X56771803Y-54807829D01*
X58378631Y-57590936D01*
X58425530Y-57672168D01*
X58432817Y-57686945D01*
X58444333Y-57714746D01*
X58467674Y-57745164D01*
X58467675Y-57745166D01*
X58537301Y-57835904D01*
X58605856Y-57888507D01*
X58658459Y-57928872D01*
X58666088Y-57932032D01*
X58666093Y-57932034D01*
X58693886Y-57943546D01*
X58799552Y-57987315D01*
X58807736Y-57988392D01*
X58807738Y-57988393D01*
X58942774Y-58006170D01*
X58950962Y-58007248D01*
X59102373Y-57987314D01*
X59243465Y-57928872D01*
X59250018Y-57923844D01*
X59250020Y-57923843D01*
X59267339Y-57910554D01*
X59281041Y-57901399D01*
X61240739Y-56769966D01*
X61740982Y-56481151D01*
X61809976Y-56464413D01*
X61877068Y-56487633D01*
X61905915Y-56516206D01*
X61906085Y-56516440D01*
X61908204Y-56519779D01*
X62115177Y-56769966D01*
X62351875Y-56992241D01*
X62614565Y-57183096D01*
X62618034Y-57185003D01*
X62618037Y-57185005D01*
X62874146Y-57325802D01*
X62899104Y-57339523D01*
X62990224Y-57375600D01*
X63197322Y-57457596D01*
X63197325Y-57457597D01*
X63201005Y-57459054D01*
X63204839Y-57460038D01*
X63204847Y-57460041D01*
X63399351Y-57509981D01*
X63515506Y-57539804D01*
X63519434Y-57540300D01*
X63519438Y-57540301D01*
X63647175Y-57556438D01*
X63837649Y-57580500D01*
X64162351Y-57580500D01*
X64352825Y-57556438D01*
X64480562Y-57540301D01*
X64480566Y-57540300D01*
X64484494Y-57539804D01*
X64600649Y-57509981D01*
X64795153Y-57460041D01*
X64795161Y-57460038D01*
X64798995Y-57459054D01*
X64802675Y-57457597D01*
X64802678Y-57457596D01*
X65009776Y-57375600D01*
X65100896Y-57339523D01*
X65125855Y-57325802D01*
X65381963Y-57185005D01*
X65381966Y-57185003D01*
X65385435Y-57183096D01*
X65648125Y-56992241D01*
X65884823Y-56769966D01*
X66091796Y-56519779D01*
X66265780Y-56245623D01*
X66267464Y-56242044D01*
X66267468Y-56242037D01*
X66402343Y-55955414D01*
X66402345Y-55955410D01*
X66404032Y-55951824D01*
X66413644Y-55922243D01*
X66465319Y-55763201D01*
X66504371Y-55643013D01*
X66565214Y-55324062D01*
X66585602Y-55000000D01*
X66565214Y-54675938D01*
X66504371Y-54356987D01*
X66417689Y-54090208D01*
X66405258Y-54051949D01*
X66405258Y-54051948D01*
X66404032Y-54048176D01*
X66401940Y-54043730D01*
X66267468Y-53757963D01*
X66267464Y-53757956D01*
X66265780Y-53754377D01*
X66091796Y-53480221D01*
X66055017Y-53435763D01*
X66703954Y-53435763D01*
X66704470Y-53441907D01*
X66714613Y-53562693D01*
X66720044Y-53627374D01*
X66773045Y-53812212D01*
X66775864Y-53817697D01*
X66858121Y-53977752D01*
X66858124Y-53977757D01*
X66860939Y-53983234D01*
X66980377Y-54133927D01*
X66985070Y-54137921D01*
X66985071Y-54137922D01*
X67049653Y-54192885D01*
X67126810Y-54258551D01*
X67294661Y-54352360D01*
X67300520Y-54354264D01*
X67300523Y-54354265D01*
X67320907Y-54360888D01*
X67477535Y-54411780D01*
X67483645Y-54412509D01*
X67483647Y-54412509D01*
X67544752Y-54419795D01*
X67668469Y-54434547D01*
X67674604Y-54434075D01*
X67674606Y-54434075D01*
X67854046Y-54420268D01*
X67854050Y-54420267D01*
X67860188Y-54419795D01*
X67947320Y-54395467D01*
X68039446Y-54369745D01*
X68039450Y-54369744D01*
X68045390Y-54368085D01*
X68050894Y-54365305D01*
X68050896Y-54365304D01*
X68211519Y-54284168D01*
X68211521Y-54284167D01*
X68217022Y-54281388D01*
X68368546Y-54163005D01*
X68393646Y-54133927D01*
X68490165Y-54022107D01*
X68490165Y-54022106D01*
X68494189Y-54017445D01*
X68507243Y-53994467D01*
X68586120Y-53855617D01*
X68589167Y-53850254D01*
X68649862Y-53667798D01*
X68673962Y-53477029D01*
X68674346Y-53449519D01*
X68655582Y-53258151D01*
X68653362Y-53250796D01*
X68612418Y-53115187D01*
X68600005Y-53074072D01*
X68509733Y-52904293D01*
X68499063Y-52891210D01*
X68392097Y-52760057D01*
X68392094Y-52760054D01*
X68388202Y-52755282D01*
X68382190Y-52750308D01*
X68295631Y-52678701D01*
X68240043Y-52632715D01*
X68070899Y-52541259D01*
X67887213Y-52484398D01*
X67881095Y-52483755D01*
X67881090Y-52483754D01*
X67702109Y-52464943D01*
X67702107Y-52464943D01*
X67695980Y-52464299D01*
X67584778Y-52474419D01*
X67510627Y-52481167D01*
X67510626Y-52481167D01*
X67504486Y-52481726D01*
X67320023Y-52536017D01*
X67149619Y-52625102D01*
X67144819Y-52628962D01*
X67144818Y-52628962D01*
X67114520Y-52653322D01*
X66999763Y-52745589D01*
X66876164Y-52892889D01*
X66873195Y-52898290D01*
X66873194Y-52898291D01*
X66841386Y-52956149D01*
X66783529Y-53061390D01*
X66725388Y-53244675D01*
X66724702Y-53250792D01*
X66724701Y-53250796D01*
X66716277Y-53325903D01*
X66703954Y-53435763D01*
X66055017Y-53435763D01*
X65908198Y-53258289D01*
X65880189Y-53193054D01*
X65891896Y-53123029D01*
X65896165Y-53114976D01*
X65952429Y-53017525D01*
X66241053Y-52517613D01*
X67301399Y-50681041D01*
X67310554Y-50667339D01*
X67323843Y-50650020D01*
X67323845Y-50650016D01*
X67328872Y-50643465D01*
X67387314Y-50502373D01*
X67407248Y-50350963D01*
X67398428Y-50283966D01*
X67387315Y-50199551D01*
X67328873Y-50058460D01*
X67235904Y-49937301D01*
X67114746Y-49844333D01*
X67086945Y-49832817D01*
X67072172Y-49825532D01*
X65717232Y-49043257D01*
X64207836Y-48171806D01*
X64194134Y-48162651D01*
X64176815Y-48149362D01*
X64176811Y-48149360D01*
X64170260Y-48144333D01*
X64029168Y-48085891D01*
X63877757Y-48065957D01*
X63726347Y-48085890D01*
X63659127Y-48113734D01*
X63592886Y-48141171D01*
X63592885Y-48141172D01*
X63585255Y-48144332D01*
X63578704Y-48149359D01*
X63578702Y-48149360D01*
X63534398Y-48183356D01*
X63528663Y-48187757D01*
X63464096Y-48237301D01*
X63394470Y-48328039D01*
X63371128Y-48358459D01*
X63359612Y-48386260D01*
X63352327Y-48401033D01*
X62461581Y-49943851D01*
X61898598Y-50918966D01*
X61889440Y-50932671D01*
X61871128Y-50956535D01*
X61856454Y-50991960D01*
X61852383Y-50990274D01*
X61852383Y-50990275D01*
X61856454Y-50991961D01*
X61812686Y-51097627D01*
X61792752Y-51249038D01*
X61793830Y-51257226D01*
X61811608Y-51392264D01*
X61811609Y-51392268D01*
X61812686Y-51400448D01*
X61815844Y-51408072D01*
X61815845Y-51408076D01*
X61867967Y-51533911D01*
X61871127Y-51541540D01*
X61964096Y-51662698D01*
X61964097Y-51662699D01*
X61993361Y-51685154D01*
X62045664Y-51725288D01*
X62078496Y-51750481D01*
X62085254Y-51755667D01*
X62113055Y-51767183D01*
X62127826Y-51774467D01*
X63126193Y-52350875D01*
X63175185Y-52402257D01*
X63188621Y-52471970D01*
X63162235Y-52537881D01*
X63109576Y-52577145D01*
X63082387Y-52587910D01*
X62899104Y-52660477D01*
X62895645Y-52662378D01*
X62895642Y-52662380D01*
X62618037Y-52814995D01*
X62614565Y-52816904D01*
X62351875Y-53007759D01*
X62115177Y-53230034D01*
X62033876Y-53328310D01*
X61910845Y-53477029D01*
X61908204Y-53480221D01*
X61734220Y-53754377D01*
X61732536Y-53757956D01*
X61732532Y-53757963D01*
X61598060Y-54043730D01*
X61595968Y-54048176D01*
X61594742Y-54051948D01*
X61594742Y-54051949D01*
X61518057Y-54287961D01*
X61477984Y-54346567D01*
X61412587Y-54374204D01*
X61342630Y-54362097D01*
X61289105Y-54312025D01*
X60899416Y-53637064D01*
X60374468Y-52727828D01*
X60367183Y-52713055D01*
X60355667Y-52685254D01*
X60262699Y-52564096D01*
X60141541Y-52471128D01*
X60000449Y-52412685D01*
X59992265Y-52411608D01*
X59992263Y-52411607D01*
X59857226Y-52393830D01*
X59849038Y-52392752D01*
X59697627Y-52412686D01*
X59556535Y-52471128D01*
X59542724Y-52481726D01*
X59532671Y-52489440D01*
X59518966Y-52498598D01*
X59454154Y-52536017D01*
X57001033Y-53952327D01*
X56986260Y-53959612D01*
X56971852Y-53965581D01*
X56966085Y-53967969D01*
X56966084Y-53967970D01*
X56958459Y-53971128D01*
X56928041Y-53994469D01*
X56928039Y-53994470D01*
X56837302Y-54064096D01*
X56832279Y-54070642D01*
X56820982Y-54085365D01*
X56744333Y-54185254D01*
X56685891Y-54326347D01*
X56665957Y-54477756D01*
X47934043Y-54477756D01*
X47931115Y-54455519D01*
X47916163Y-54341938D01*
X47916162Y-54341936D01*
X47914110Y-54326347D01*
X47914110Y-54326346D01*
X47855668Y-54185255D01*
X47762699Y-54064096D01*
X47754704Y-54057961D01*
X52806869Y-54057961D01*
X52810380Y-54062651D01*
X52951841Y-54125634D01*
X52964320Y-54129689D01*
X53138107Y-54166627D01*
X53151168Y-54168000D01*
X53328832Y-54168000D01*
X53341893Y-54166627D01*
X53515680Y-54129689D01*
X53528159Y-54125634D01*
X53662633Y-54065761D01*
X53673378Y-54056628D01*
X53671781Y-54050991D01*
X53252812Y-53632022D01*
X53238868Y-53624408D01*
X53237035Y-53624539D01*
X53230420Y-53628790D01*
X52813629Y-54045581D01*
X52806869Y-54057961D01*
X47754704Y-54057961D01*
X47641541Y-53971128D01*
X47613740Y-53959612D01*
X47598967Y-53952327D01*
X46411192Y-53266565D01*
X52327688Y-53266565D01*
X52346259Y-53443261D01*
X52348989Y-53456102D01*
X52403892Y-53625075D01*
X52409230Y-53637064D01*
X52434761Y-53681285D01*
X52444965Y-53691015D01*
X52452986Y-53687804D01*
X52867978Y-53272812D01*
X52874356Y-53261132D01*
X53604408Y-53261132D01*
X53604539Y-53262965D01*
X53608790Y-53269580D01*
X54023370Y-53684160D01*
X54035750Y-53690920D01*
X54042665Y-53685744D01*
X54070770Y-53637064D01*
X54076108Y-53625075D01*
X54131011Y-53456102D01*
X54133741Y-53443261D01*
X54152312Y-53266565D01*
X54152312Y-53253435D01*
X54133741Y-53076739D01*
X54131011Y-53063898D01*
X54076108Y-52894925D01*
X54070770Y-52882936D01*
X54045239Y-52838715D01*
X54035035Y-52828985D01*
X54027014Y-52832196D01*
X53612022Y-53247188D01*
X53604408Y-53261132D01*
X52874356Y-53261132D01*
X52875592Y-53258868D01*
X52875461Y-53257035D01*
X52871210Y-53250420D01*
X52456630Y-52835840D01*
X52444250Y-52829080D01*
X52437335Y-52834256D01*
X52409230Y-52882936D01*
X52403892Y-52894925D01*
X52348989Y-53063898D01*
X52346259Y-53076739D01*
X52327688Y-53253435D01*
X52327688Y-53266565D01*
X46411192Y-53266565D01*
X46394686Y-53257035D01*
X45791628Y-52908859D01*
X47416388Y-52908859D01*
X47419899Y-52913549D01*
X47561360Y-52976532D01*
X47573839Y-52980587D01*
X47747626Y-53017525D01*
X47760687Y-53018898D01*
X47938351Y-53018898D01*
X47951412Y-53017525D01*
X48125199Y-52980587D01*
X48137678Y-52976532D01*
X48272152Y-52916659D01*
X48282897Y-52907526D01*
X48281300Y-52901889D01*
X47862331Y-52482920D01*
X47848387Y-52475306D01*
X47846554Y-52475437D01*
X47839939Y-52479688D01*
X47423148Y-52896479D01*
X47416388Y-52908859D01*
X45791628Y-52908859D01*
X45081041Y-52498601D01*
X45067339Y-52489446D01*
X45050020Y-52476157D01*
X45050015Y-52476154D01*
X45043465Y-52471128D01*
X44902373Y-52412686D01*
X44750963Y-52392752D01*
X44750962Y-52392752D01*
X44746875Y-52393290D01*
X44746876Y-52393290D01*
X44733348Y-52395071D01*
X44607739Y-52411607D01*
X44607738Y-52411607D01*
X44599552Y-52412685D01*
X44545948Y-52434889D01*
X44458460Y-52471127D01*
X44451911Y-52476153D01*
X44451910Y-52476153D01*
X44426392Y-52495734D01*
X44397881Y-52517612D01*
X44337301Y-52564096D01*
X44267675Y-52654834D01*
X44244333Y-52685254D01*
X44232817Y-52713055D01*
X44225532Y-52727828D01*
X43132521Y-54620979D01*
X42571803Y-55592171D01*
X42562645Y-55605876D01*
X42544333Y-55629740D01*
X42529659Y-55665165D01*
X42525588Y-55663479D01*
X42525588Y-55663480D01*
X42529659Y-55665166D01*
X42485891Y-55770832D01*
X42465957Y-55922243D01*
X38262964Y-55922243D01*
X37830750Y-55415149D01*
X37827129Y-55410699D01*
X37307938Y-54742156D01*
X37304537Y-54737563D01*
X36816320Y-54046080D01*
X36813118Y-54041319D01*
X36356872Y-53328310D01*
X36353891Y-53323408D01*
X36322807Y-53269580D01*
X36085018Y-52857808D01*
X36068273Y-52788816D01*
X36091487Y-52721722D01*
X36147290Y-52677829D01*
X36217965Y-52671074D01*
X36233067Y-52674966D01*
X36343472Y-52710839D01*
X36343479Y-52710841D01*
X36349331Y-52712742D01*
X36355441Y-52713471D01*
X36355443Y-52713471D01*
X36416548Y-52720757D01*
X36540265Y-52735509D01*
X36546400Y-52735037D01*
X36546402Y-52735037D01*
X36725842Y-52721230D01*
X36725846Y-52721229D01*
X36731984Y-52720757D01*
X36859140Y-52685254D01*
X36911242Y-52670707D01*
X36911246Y-52670706D01*
X36917186Y-52669047D01*
X36922690Y-52666267D01*
X36922692Y-52666266D01*
X37083315Y-52585130D01*
X37083317Y-52585129D01*
X37088818Y-52582350D01*
X37240342Y-52463967D01*
X37246055Y-52457349D01*
X37361961Y-52323069D01*
X37361961Y-52323068D01*
X37365985Y-52318407D01*
X37460963Y-52151216D01*
X37521658Y-51968760D01*
X37545758Y-51777991D01*
X37546142Y-51750481D01*
X37527378Y-51559113D01*
X37523310Y-51545637D01*
X37503432Y-51479802D01*
X37471801Y-51375034D01*
X37381529Y-51205255D01*
X37372228Y-51193851D01*
X37263893Y-51061019D01*
X37263890Y-51061016D01*
X37259998Y-51056244D01*
X37253986Y-51051270D01*
X37180253Y-50990274D01*
X37111839Y-50933677D01*
X36942695Y-50842221D01*
X36759009Y-50785360D01*
X36752891Y-50784717D01*
X36752886Y-50784716D01*
X36573905Y-50765905D01*
X36573903Y-50765905D01*
X36567776Y-50765261D01*
X36449498Y-50776025D01*
X36382423Y-50782129D01*
X36382422Y-50782129D01*
X36376282Y-50782688D01*
X36191819Y-50836979D01*
X36021415Y-50926064D01*
X36016615Y-50929924D01*
X36016614Y-50929924D01*
X36012671Y-50933094D01*
X35871559Y-51046551D01*
X35747960Y-51193851D01*
X35744991Y-51199252D01*
X35744990Y-51199253D01*
X35738726Y-51210647D01*
X35655325Y-51362352D01*
X35645837Y-51392264D01*
X35617229Y-51482448D01*
X35577566Y-51541332D01*
X35512364Y-51569425D01*
X35442324Y-51557808D01*
X35389684Y-51510168D01*
X35382735Y-51497175D01*
X35274455Y-51262699D01*
X35180930Y-51060172D01*
X35178652Y-51054928D01*
X35175238Y-51046551D01*
X34952157Y-50499307D01*
X34859122Y-50271079D01*
X34857078Y-50265718D01*
X34625114Y-49613162D01*
X34621144Y-49542277D01*
X34656129Y-49480498D01*
X34718959Y-49447440D01*
X34789688Y-49453599D01*
X34840920Y-49490644D01*
X34865177Y-49519966D01*
X35101875Y-49742241D01*
X35364565Y-49933096D01*
X35368034Y-49935003D01*
X35368037Y-49935005D01*
X35631362Y-50079769D01*
X35649104Y-50089523D01*
X35813529Y-50154623D01*
X35947322Y-50207596D01*
X35947325Y-50207597D01*
X35951005Y-50209054D01*
X35954839Y-50210038D01*
X35954847Y-50210041D01*
X36085027Y-50243465D01*
X36265506Y-50289804D01*
X36269434Y-50290300D01*
X36269438Y-50290301D01*
X36379470Y-50304201D01*
X36587649Y-50330500D01*
X36912351Y-50330500D01*
X37120530Y-50304201D01*
X37230562Y-50290301D01*
X37230566Y-50290300D01*
X37234494Y-50289804D01*
X37548345Y-50209221D01*
X37619299Y-50211653D01*
X37679640Y-50254558D01*
X37689448Y-50267339D01*
X37698598Y-50281034D01*
X37738972Y-50350963D01*
X39146467Y-52788816D01*
X39152325Y-52798963D01*
X39159612Y-52813740D01*
X39161889Y-52819235D01*
X39165967Y-52829080D01*
X39171128Y-52841541D01*
X39194469Y-52871959D01*
X39194470Y-52871961D01*
X39264096Y-52962699D01*
X39322820Y-53007759D01*
X39347294Y-53026539D01*
X39378698Y-53050636D01*
X39385254Y-53055667D01*
X39420681Y-53070341D01*
X39526347Y-53114110D01*
X39534531Y-53115187D01*
X39534533Y-53115188D01*
X39669569Y-53132965D01*
X39677757Y-53134043D01*
X39829168Y-53114109D01*
X39862149Y-53100448D01*
X39934834Y-53070341D01*
X39935175Y-53071164D01*
X39935176Y-53071164D01*
X39934835Y-53070341D01*
X39942266Y-53067263D01*
X39962625Y-53058830D01*
X39962627Y-53058829D01*
X39970260Y-53055667D01*
X39976817Y-53050636D01*
X39994134Y-53037349D01*
X40007836Y-53028194D01*
X41585268Y-52117463D01*
X46937207Y-52117463D01*
X46955778Y-52294159D01*
X46958508Y-52307000D01*
X47013411Y-52475973D01*
X47018749Y-52487962D01*
X47044280Y-52532183D01*
X47054484Y-52541913D01*
X47062505Y-52538702D01*
X47477497Y-52123710D01*
X47483875Y-52112030D01*
X48213927Y-52112030D01*
X48214058Y-52113863D01*
X48218309Y-52120478D01*
X48632889Y-52535058D01*
X48645269Y-52541818D01*
X48652184Y-52536642D01*
X48680289Y-52487962D01*
X48685627Y-52475973D01*
X48689721Y-52463372D01*
X52806622Y-52463372D01*
X52808219Y-52469009D01*
X53227188Y-52887978D01*
X53241132Y-52895592D01*
X53242965Y-52895461D01*
X53249580Y-52891210D01*
X53666371Y-52474419D01*
X53673131Y-52462039D01*
X53669620Y-52457349D01*
X53528159Y-52394366D01*
X53515680Y-52390311D01*
X53341893Y-52353373D01*
X53328832Y-52352000D01*
X53151168Y-52352000D01*
X53138107Y-52353373D01*
X52964320Y-52390311D01*
X52951841Y-52394366D01*
X52817367Y-52454239D01*
X52806622Y-52463372D01*
X48689721Y-52463372D01*
X48740530Y-52307000D01*
X48743260Y-52294159D01*
X48757480Y-52158859D01*
X57616388Y-52158859D01*
X57619899Y-52163549D01*
X57761360Y-52226532D01*
X57773839Y-52230587D01*
X57947626Y-52267525D01*
X57960687Y-52268898D01*
X58138351Y-52268898D01*
X58151412Y-52267525D01*
X58325199Y-52230587D01*
X58337678Y-52226532D01*
X58472152Y-52166659D01*
X58482897Y-52157526D01*
X58481300Y-52151889D01*
X58062331Y-51732920D01*
X58048387Y-51725306D01*
X58046554Y-51725437D01*
X58039939Y-51729688D01*
X57623148Y-52146479D01*
X57616388Y-52158859D01*
X48757480Y-52158859D01*
X48761831Y-52117463D01*
X48761831Y-52104333D01*
X48743260Y-51927637D01*
X48740530Y-51914796D01*
X48685627Y-51745823D01*
X48680289Y-51733834D01*
X48654758Y-51689613D01*
X48644554Y-51679883D01*
X48636533Y-51683094D01*
X48221541Y-52098086D01*
X48213927Y-52112030D01*
X47483875Y-52112030D01*
X47485111Y-52109766D01*
X47484980Y-52107933D01*
X47480729Y-52101318D01*
X47066149Y-51686738D01*
X47053769Y-51679978D01*
X47046854Y-51685154D01*
X47018749Y-51733834D01*
X47013411Y-51745823D01*
X46958508Y-51914796D01*
X46955778Y-51927637D01*
X46937207Y-52104333D01*
X46937207Y-52117463D01*
X41585268Y-52117463D01*
X42158266Y-51786642D01*
X42872172Y-51374468D01*
X42886945Y-51367183D01*
X42914746Y-51355667D01*
X42968696Y-51314270D01*
X47416141Y-51314270D01*
X47417738Y-51319907D01*
X47836707Y-51738876D01*
X47850651Y-51746490D01*
X47852484Y-51746359D01*
X47859099Y-51742108D01*
X48233744Y-51367463D01*
X57137207Y-51367463D01*
X57155778Y-51544159D01*
X57158508Y-51557000D01*
X57213411Y-51725973D01*
X57218749Y-51737962D01*
X57244280Y-51782183D01*
X57254484Y-51791913D01*
X57262505Y-51788702D01*
X57677497Y-51373710D01*
X57683875Y-51362030D01*
X58413927Y-51362030D01*
X58414058Y-51363863D01*
X58418309Y-51370478D01*
X58832889Y-51785058D01*
X58845269Y-51791818D01*
X58852184Y-51786642D01*
X58880289Y-51737962D01*
X58885627Y-51725973D01*
X58940530Y-51557000D01*
X58943260Y-51544159D01*
X58961831Y-51367463D01*
X58961831Y-51354333D01*
X58943260Y-51177637D01*
X58940530Y-51164796D01*
X58885627Y-50995823D01*
X58880289Y-50983834D01*
X58854758Y-50939613D01*
X58844554Y-50929883D01*
X58836533Y-50933094D01*
X58421541Y-51348086D01*
X58413927Y-51362030D01*
X57683875Y-51362030D01*
X57685111Y-51359766D01*
X57684980Y-51357933D01*
X57680729Y-51351318D01*
X57266149Y-50936738D01*
X57253769Y-50929978D01*
X57246854Y-50935154D01*
X57218749Y-50983834D01*
X57213411Y-50995823D01*
X57158508Y-51164796D01*
X57155778Y-51177637D01*
X57137207Y-51354333D01*
X57137207Y-51367463D01*
X48233744Y-51367463D01*
X48275890Y-51325317D01*
X48282650Y-51312937D01*
X48279139Y-51308247D01*
X48137678Y-51245264D01*
X48125199Y-51241209D01*
X47951412Y-51204271D01*
X47938351Y-51202898D01*
X47760687Y-51202898D01*
X47747626Y-51204271D01*
X47573839Y-51241209D01*
X47561360Y-51245264D01*
X47426886Y-51305137D01*
X47416141Y-51314270D01*
X42968696Y-51314270D01*
X43035904Y-51262699D01*
X43128872Y-51141541D01*
X43187315Y-51000449D01*
X43188433Y-50991961D01*
X43206170Y-50857226D01*
X43207248Y-50849038D01*
X43198225Y-50780500D01*
X43187314Y-50697627D01*
X43128872Y-50556535D01*
X43123845Y-50549984D01*
X43123843Y-50549980D01*
X43110554Y-50532661D01*
X43101399Y-50518959D01*
X42713720Y-49847480D01*
X43805971Y-49847480D01*
X43809482Y-49852170D01*
X43950943Y-49915153D01*
X43963422Y-49919208D01*
X44137209Y-49956146D01*
X44150270Y-49957519D01*
X44327934Y-49957519D01*
X44340995Y-49956146D01*
X44514782Y-49919208D01*
X44527261Y-49915153D01*
X44661735Y-49855280D01*
X44672480Y-49846147D01*
X44670883Y-49840510D01*
X44251914Y-49421541D01*
X44237970Y-49413927D01*
X44236137Y-49414058D01*
X44229522Y-49418309D01*
X43812731Y-49835100D01*
X43805971Y-49847480D01*
X42713720Y-49847480D01*
X42256807Y-49056084D01*
X43326790Y-49056084D01*
X43345361Y-49232780D01*
X43348091Y-49245621D01*
X43402994Y-49414594D01*
X43408332Y-49426583D01*
X43433863Y-49470804D01*
X43444067Y-49480534D01*
X43452088Y-49477323D01*
X43867080Y-49062331D01*
X43873458Y-49050651D01*
X44603510Y-49050651D01*
X44603641Y-49052484D01*
X44607892Y-49059099D01*
X45022472Y-49473679D01*
X45034852Y-49480439D01*
X45041767Y-49475263D01*
X45069872Y-49426583D01*
X45075210Y-49414594D01*
X45130113Y-49245621D01*
X45132843Y-49232780D01*
X45151414Y-49056084D01*
X45151414Y-49042954D01*
X45132843Y-48866258D01*
X45130113Y-48853417D01*
X45075210Y-48684444D01*
X45069872Y-48672455D01*
X45044341Y-48628234D01*
X45034137Y-48618504D01*
X45026116Y-48621715D01*
X44611124Y-49036707D01*
X44603510Y-49050651D01*
X43873458Y-49050651D01*
X43874694Y-49048387D01*
X43874563Y-49046554D01*
X43870312Y-49039939D01*
X43455732Y-48625359D01*
X43443352Y-48618599D01*
X43436437Y-48623775D01*
X43408332Y-48672455D01*
X43402994Y-48684444D01*
X43348091Y-48853417D01*
X43345361Y-48866258D01*
X43326790Y-49042954D01*
X43326790Y-49056084D01*
X42256807Y-49056084D01*
X42110976Y-48803498D01*
X41793083Y-48252891D01*
X43805724Y-48252891D01*
X43807321Y-48258528D01*
X44226290Y-48677497D01*
X44240234Y-48685111D01*
X44242067Y-48684980D01*
X44248682Y-48680729D01*
X44665473Y-48263938D01*
X44672233Y-48251558D01*
X44668722Y-48246868D01*
X44527261Y-48183885D01*
X44514782Y-48179830D01*
X44430674Y-48161953D01*
X50319500Y-48161953D01*
X50319501Y-50238046D01*
X50320039Y-50242131D01*
X50320039Y-50242135D01*
X50331672Y-50330500D01*
X50334442Y-50351541D01*
X50392934Y-50492755D01*
X50397960Y-50499305D01*
X50480955Y-50607464D01*
X50485983Y-50614017D01*
X50492533Y-50619043D01*
X50492536Y-50619046D01*
X50546614Y-50660541D01*
X50607246Y-50707066D01*
X50748459Y-50765558D01*
X50861953Y-50780500D01*
X52499801Y-50780500D01*
X54138046Y-50780499D01*
X54142131Y-50779961D01*
X54142135Y-50779961D01*
X54243354Y-50766636D01*
X54243356Y-50766636D01*
X54251541Y-50765558D01*
X54392755Y-50707066D01*
X54435997Y-50673885D01*
X54507466Y-50619044D01*
X54507467Y-50619043D01*
X54514017Y-50614017D01*
X54519044Y-50607466D01*
X54519046Y-50607464D01*
X54552190Y-50564270D01*
X57616141Y-50564270D01*
X57617738Y-50569907D01*
X58036707Y-50988876D01*
X58050651Y-50996490D01*
X58052484Y-50996359D01*
X58059099Y-50992108D01*
X58475890Y-50575317D01*
X58482650Y-50562937D01*
X58479139Y-50558247D01*
X58337678Y-50495264D01*
X58325199Y-50491209D01*
X58151412Y-50454271D01*
X58138351Y-50452898D01*
X57960687Y-50452898D01*
X57947626Y-50454271D01*
X57773839Y-50491209D01*
X57761360Y-50495264D01*
X57626886Y-50555137D01*
X57616141Y-50564270D01*
X54552190Y-50564270D01*
X54581467Y-50526115D01*
X54607066Y-50492754D01*
X54665558Y-50351541D01*
X54680500Y-50238047D01*
X54680499Y-48948442D01*
X61077767Y-48948442D01*
X61081278Y-48953132D01*
X61222739Y-49016115D01*
X61235218Y-49020170D01*
X61409005Y-49057108D01*
X61422066Y-49058481D01*
X61599730Y-49058481D01*
X61612791Y-49057108D01*
X61786578Y-49020170D01*
X61799057Y-49016115D01*
X61933531Y-48956242D01*
X61944276Y-48947109D01*
X61942679Y-48941472D01*
X61523710Y-48522503D01*
X61509766Y-48514889D01*
X61507933Y-48515020D01*
X61501318Y-48519271D01*
X61084527Y-48936062D01*
X61077767Y-48948442D01*
X54680499Y-48948442D01*
X54680499Y-48161954D01*
X54679853Y-48157046D01*
X60598586Y-48157046D01*
X60617157Y-48333742D01*
X60619887Y-48346583D01*
X60674790Y-48515556D01*
X60680128Y-48527545D01*
X60705659Y-48571766D01*
X60715863Y-48581496D01*
X60723884Y-48578285D01*
X61138876Y-48163293D01*
X61145254Y-48151613D01*
X61875306Y-48151613D01*
X61875437Y-48153446D01*
X61879688Y-48160061D01*
X62294268Y-48574641D01*
X62306648Y-48581401D01*
X62313563Y-48576225D01*
X62341668Y-48527545D01*
X62347006Y-48515556D01*
X62401909Y-48346583D01*
X62404639Y-48333742D01*
X62423210Y-48157046D01*
X62423210Y-48143916D01*
X62404639Y-47967220D01*
X62401909Y-47954379D01*
X62347006Y-47785406D01*
X62341668Y-47773417D01*
X62316137Y-47729196D01*
X62305933Y-47719466D01*
X62297912Y-47722677D01*
X61882920Y-48137669D01*
X61875306Y-48151613D01*
X61145254Y-48151613D01*
X61146490Y-48149349D01*
X61146359Y-48147516D01*
X61142108Y-48140901D01*
X60727528Y-47726321D01*
X60715148Y-47719561D01*
X60708233Y-47724737D01*
X60680128Y-47773417D01*
X60674790Y-47785406D01*
X60619887Y-47954379D01*
X60617157Y-47967220D01*
X60598586Y-48143916D01*
X60598586Y-48157046D01*
X54679853Y-48157046D01*
X54678842Y-48149362D01*
X54666636Y-48056646D01*
X54666636Y-48056644D01*
X54665558Y-48048459D01*
X54607066Y-47907245D01*
X54543711Y-47824680D01*
X54519044Y-47792534D01*
X54519043Y-47792533D01*
X54514017Y-47785983D01*
X54507466Y-47780956D01*
X54507464Y-47780954D01*
X54434200Y-47724737D01*
X54392754Y-47692934D01*
X54251541Y-47634442D01*
X54138047Y-47619500D01*
X52500199Y-47619500D01*
X50861954Y-47619501D01*
X50857869Y-47620039D01*
X50857865Y-47620039D01*
X50756646Y-47633364D01*
X50756644Y-47633364D01*
X50748459Y-47634442D01*
X50607245Y-47692934D01*
X50600695Y-47697960D01*
X50530394Y-47751905D01*
X50485983Y-47785983D01*
X50480957Y-47792533D01*
X50480954Y-47792536D01*
X50446605Y-47837301D01*
X50392934Y-47907246D01*
X50334442Y-48048459D01*
X50319500Y-48161953D01*
X44430674Y-48161953D01*
X44340995Y-48142892D01*
X44327934Y-48141519D01*
X44150270Y-48141519D01*
X44137209Y-48142892D01*
X43963422Y-48179830D01*
X43950943Y-48183885D01*
X43816469Y-48243758D01*
X43805724Y-48252891D01*
X41793083Y-48252891D01*
X41647673Y-48001033D01*
X41640388Y-47986260D01*
X41628872Y-47958459D01*
X41535904Y-47837301D01*
X41414746Y-47744333D01*
X41273654Y-47685890D01*
X41265470Y-47684813D01*
X41265468Y-47684812D01*
X41138022Y-47668034D01*
X41126334Y-47666495D01*
X41126328Y-47666495D01*
X41122244Y-47665957D01*
X41122243Y-47665957D01*
X41054331Y-47674898D01*
X40970832Y-47685891D01*
X40829740Y-47744333D01*
X40817197Y-47753958D01*
X40805876Y-47762645D01*
X40792171Y-47771803D01*
X40768610Y-47785406D01*
X39431994Y-48557101D01*
X39363000Y-48573839D01*
X39295908Y-48550619D01*
X39252021Y-48494811D01*
X39245272Y-48424136D01*
X39249161Y-48409049D01*
X39253144Y-48396790D01*
X39253145Y-48396787D01*
X39254371Y-48393013D01*
X39315214Y-48074062D01*
X39335602Y-47750000D01*
X39315214Y-47425938D01*
X39254371Y-47106987D01*
X39177813Y-46871367D01*
X39155258Y-46801949D01*
X39155258Y-46801948D01*
X39154032Y-46798176D01*
X39152343Y-46794586D01*
X39017468Y-46507963D01*
X39017464Y-46507956D01*
X39015780Y-46504377D01*
X38841796Y-46230221D01*
X38634823Y-45980034D01*
X38515840Y-45868301D01*
X38504711Y-45857850D01*
X38468745Y-45796637D01*
X38471584Y-45725697D01*
X38512324Y-45667553D01*
X38578032Y-45640665D01*
X38590964Y-45640000D01*
X40523725Y-45640000D01*
X40540172Y-45641078D01*
X40570000Y-45645005D01*
X40721410Y-45625071D01*
X40862502Y-45566629D01*
X40983661Y-45473661D01*
X41003972Y-45447191D01*
X41076629Y-45352503D01*
X41135071Y-45211410D01*
X41148691Y-45107961D01*
X42436869Y-45107961D01*
X42440380Y-45112651D01*
X42581841Y-45175634D01*
X42594320Y-45179689D01*
X42768107Y-45216627D01*
X42781168Y-45218000D01*
X42958832Y-45218000D01*
X42971893Y-45216627D01*
X43145680Y-45179689D01*
X43158159Y-45175634D01*
X43292633Y-45115761D01*
X43303378Y-45106628D01*
X43301781Y-45100991D01*
X42882812Y-44682022D01*
X42868868Y-44674408D01*
X42867035Y-44674539D01*
X42860420Y-44678790D01*
X42443629Y-45095581D01*
X42436869Y-45107961D01*
X41148691Y-45107961D01*
X41155005Y-45060000D01*
X41151078Y-45030172D01*
X41150000Y-45013725D01*
X41150000Y-44316565D01*
X41957688Y-44316565D01*
X41976259Y-44493261D01*
X41978989Y-44506102D01*
X42033892Y-44675075D01*
X42039230Y-44687064D01*
X42064761Y-44731285D01*
X42074965Y-44741015D01*
X42082986Y-44737804D01*
X42497978Y-44322812D01*
X42505592Y-44308868D01*
X42505461Y-44307035D01*
X42501210Y-44300420D01*
X42086630Y-43885840D01*
X42074250Y-43879080D01*
X42067335Y-43884256D01*
X42039230Y-43932936D01*
X42033892Y-43944925D01*
X41978989Y-44113898D01*
X41976259Y-44126739D01*
X41957688Y-44303435D01*
X41957688Y-44316565D01*
X41150000Y-44316565D01*
X41150000Y-42106275D01*
X41151078Y-42089828D01*
X41153927Y-42068188D01*
X41155005Y-42060000D01*
X41135071Y-41908590D01*
X41076629Y-41767498D01*
X41071600Y-41760944D01*
X41071599Y-41760942D01*
X41066304Y-41754041D01*
X41040703Y-41687821D01*
X41054967Y-41618272D01*
X41104569Y-41567476D01*
X41173758Y-41551560D01*
X41240569Y-41575577D01*
G37*
%TD.AperFunction*%
%TA.AperFunction,Conductor*%
G36*
X63959054Y-41522814D02*
G01*
X64005559Y-41576459D01*
X64015678Y-41646731D01*
X63990921Y-41705529D01*
X63943371Y-41767497D01*
X63884929Y-41908590D01*
X63864995Y-42060000D01*
X63866073Y-42068188D01*
X63868922Y-42089828D01*
X63870000Y-42106275D01*
X63870000Y-44940900D01*
X63849998Y-45009021D01*
X63796342Y-45055514D01*
X63744000Y-45066900D01*
X62655647Y-45066900D01*
X62587526Y-45046898D01*
X62564712Y-45028117D01*
X61687872Y-44113898D01*
X61202621Y-43607961D01*
X61716869Y-43607961D01*
X61720380Y-43612651D01*
X61861841Y-43675634D01*
X61874320Y-43679689D01*
X62048107Y-43716627D01*
X62061168Y-43718000D01*
X62238832Y-43718000D01*
X62251893Y-43716627D01*
X62425680Y-43679689D01*
X62438159Y-43675634D01*
X62572633Y-43615761D01*
X62583378Y-43606628D01*
X62581781Y-43600991D01*
X62162812Y-43182022D01*
X62148868Y-43174408D01*
X62147035Y-43174539D01*
X62140420Y-43178790D01*
X61723629Y-43595581D01*
X61716869Y-43607961D01*
X61202621Y-43607961D01*
X60907196Y-43299942D01*
X60874478Y-43236934D01*
X60881020Y-43166240D01*
X60918537Y-43115049D01*
X61067996Y-42993261D01*
X61073119Y-42989086D01*
X61138563Y-42961560D01*
X61208499Y-42973786D01*
X61260723Y-43021881D01*
X61272546Y-43047827D01*
X61313892Y-43175074D01*
X61319230Y-43187064D01*
X61344761Y-43231285D01*
X61354965Y-43241015D01*
X61362986Y-43237804D01*
X61789658Y-42811132D01*
X62514408Y-42811132D01*
X62514539Y-42812965D01*
X62518790Y-42819580D01*
X62933370Y-43234160D01*
X62945750Y-43240920D01*
X62952665Y-43235744D01*
X62980770Y-43187064D01*
X62986108Y-43175075D01*
X63041011Y-43006102D01*
X63043741Y-42993261D01*
X63062312Y-42816565D01*
X63062312Y-42803435D01*
X63043741Y-42626739D01*
X63041011Y-42613898D01*
X62986108Y-42444925D01*
X62980770Y-42432936D01*
X62955239Y-42388715D01*
X62945035Y-42378985D01*
X62937014Y-42382196D01*
X62522022Y-42797188D01*
X62514408Y-42811132D01*
X61789658Y-42811132D01*
X62576371Y-42024419D01*
X62583131Y-42012039D01*
X62579620Y-42007349D01*
X62571705Y-42003825D01*
X62517609Y-41957846D01*
X62496959Y-41889918D01*
X62516311Y-41821610D01*
X62543359Y-41791041D01*
X62720937Y-41646339D01*
X62862040Y-41531360D01*
X62927483Y-41503834D01*
X62941604Y-41503037D01*
X63890929Y-41502827D01*
X63959054Y-41522814D01*
G37*
%TD.AperFunction*%
%TA.AperFunction,Conductor*%
G36*
X52352610Y-24889266D02*
G01*
X52773895Y-24889385D01*
X52779614Y-24889517D01*
X53625216Y-24928293D01*
X53630914Y-24928684D01*
X54473903Y-25005916D01*
X54479565Y-25006566D01*
X55312462Y-25121307D01*
X55318117Y-25122086D01*
X55323778Y-25122997D01*
X55868080Y-25223416D01*
X56156203Y-25276572D01*
X56161820Y-25277741D01*
X56986413Y-25469056D01*
X56991939Y-25470472D01*
X57507871Y-25615215D01*
X57806950Y-25699121D01*
X57812437Y-25700796D01*
X58616185Y-25966307D01*
X58621578Y-25968226D01*
X58869315Y-26062776D01*
X59412418Y-26270055D01*
X59417730Y-26272222D01*
X59805868Y-26440979D01*
X60194021Y-26609743D01*
X60199201Y-26612138D01*
X60414335Y-26717568D01*
X60959322Y-26984650D01*
X60964415Y-26987292D01*
X61706746Y-27393995D01*
X61711714Y-27396865D01*
X62330663Y-27773582D01*
X62378453Y-27826084D01*
X62390272Y-27896090D01*
X62362366Y-27961373D01*
X62303596Y-28001205D01*
X62227894Y-28001578D01*
X62053515Y-27947598D01*
X62053508Y-27947597D01*
X62047630Y-27945777D01*
X62041512Y-27945134D01*
X62041507Y-27945133D01*
X61862526Y-27926322D01*
X61862524Y-27926322D01*
X61856397Y-27925678D01*
X61738119Y-27936442D01*
X61671044Y-27942546D01*
X61671043Y-27942546D01*
X61664903Y-27943105D01*
X61480440Y-27997396D01*
X61310036Y-28086481D01*
X61160180Y-28206968D01*
X61036581Y-28354268D01*
X61033612Y-28359669D01*
X61033611Y-28359670D01*
X61027320Y-28371113D01*
X60943946Y-28522769D01*
X60885805Y-28706054D01*
X60885119Y-28712171D01*
X60885118Y-28712175D01*
X60873763Y-28813413D01*
X60864371Y-28897142D01*
X60880461Y-29088753D01*
X60890415Y-29123466D01*
X60924377Y-29241907D01*
X60933462Y-29273591D01*
X60936281Y-29279076D01*
X61018538Y-29439131D01*
X61018541Y-29439136D01*
X61021356Y-29444613D01*
X61140794Y-29595306D01*
X61145487Y-29599300D01*
X61145488Y-29599301D01*
X61257312Y-29694470D01*
X61287227Y-29719930D01*
X61292605Y-29722936D01*
X61292607Y-29722937D01*
X61377972Y-29770646D01*
X61455078Y-29813739D01*
X61460937Y-29815643D01*
X61460940Y-29815644D01*
X61503474Y-29829464D01*
X61637952Y-29873159D01*
X61644062Y-29873888D01*
X61644064Y-29873888D01*
X61705169Y-29881174D01*
X61828886Y-29895926D01*
X61835021Y-29895454D01*
X61835023Y-29895454D01*
X62014463Y-29881647D01*
X62014467Y-29881646D01*
X62020605Y-29881174D01*
X62029463Y-29878701D01*
X62056127Y-29871256D01*
X62189801Y-29833933D01*
X62260790Y-29834879D01*
X62319999Y-29874055D01*
X62348629Y-29939022D01*
X62337590Y-30009156D01*
X62309937Y-30047141D01*
X62192486Y-30157436D01*
X62115177Y-30230034D01*
X61908204Y-30480221D01*
X61906082Y-30483565D01*
X61763648Y-30708006D01*
X61710259Y-30754805D01*
X61640044Y-30765310D01*
X61594263Y-30749611D01*
X59081041Y-29298601D01*
X59067339Y-29289446D01*
X59050020Y-29276157D01*
X59050016Y-29276155D01*
X59043465Y-29271128D01*
X58902373Y-29212686D01*
X58750963Y-29192752D01*
X58750962Y-29192752D01*
X58746875Y-29193290D01*
X58746876Y-29193290D01*
X58733348Y-29195071D01*
X58607739Y-29211607D01*
X58607738Y-29211607D01*
X58599552Y-29212685D01*
X58580018Y-29220777D01*
X58529008Y-29241906D01*
X58529006Y-29241907D01*
X58466091Y-29267966D01*
X58466089Y-29267967D01*
X58458460Y-29271127D01*
X58451909Y-29276154D01*
X58451907Y-29276155D01*
X58434586Y-29289446D01*
X58397880Y-29317612D01*
X58337301Y-29364096D01*
X58294788Y-29419500D01*
X58244333Y-29485254D01*
X58232817Y-29513055D01*
X58225532Y-29527828D01*
X57071687Y-31526347D01*
X56571803Y-32392171D01*
X56562645Y-32405876D01*
X56544333Y-32429740D01*
X56529659Y-32465165D01*
X56525588Y-32463479D01*
X56525588Y-32463480D01*
X56529659Y-32465166D01*
X56485891Y-32570832D01*
X56465957Y-32722243D01*
X56467035Y-32730431D01*
X56484813Y-32865469D01*
X56484814Y-32865473D01*
X56485891Y-32873653D01*
X56489049Y-32881277D01*
X56489050Y-32881281D01*
X56539892Y-33004025D01*
X56544332Y-33014745D01*
X56549359Y-33021296D01*
X56549360Y-33021298D01*
X56607261Y-33096755D01*
X56626819Y-33122243D01*
X56637302Y-33135904D01*
X56727834Y-33205372D01*
X56758459Y-33228872D01*
X56766084Y-33232030D01*
X56766085Y-33232031D01*
X56771852Y-33234419D01*
X56786260Y-33240388D01*
X56801033Y-33247673D01*
X58770820Y-34384930D01*
X59318966Y-34701402D01*
X59332671Y-34710560D01*
X59356535Y-34728872D01*
X59497627Y-34787314D01*
X59649038Y-34807248D01*
X59657226Y-34806170D01*
X59792261Y-34788393D01*
X59800449Y-34787315D01*
X59941540Y-34728873D01*
X60062699Y-34635904D01*
X60155667Y-34514746D01*
X60167183Y-34486945D01*
X60174470Y-34472168D01*
X60177463Y-34466985D01*
X60862030Y-33281280D01*
X61260391Y-32591298D01*
X61311773Y-32542305D01*
X61381487Y-32528869D01*
X61447398Y-32555255D01*
X61488580Y-32613087D01*
X61493278Y-32630689D01*
X61495629Y-32643013D01*
X61595968Y-32951824D01*
X61597655Y-32955410D01*
X61597657Y-32955414D01*
X61732532Y-33242037D01*
X61732536Y-33242044D01*
X61734220Y-33245623D01*
X61736344Y-33248969D01*
X61736344Y-33248970D01*
X61759407Y-33285311D01*
X61908204Y-33519779D01*
X61910720Y-33522820D01*
X61910726Y-33522828D01*
X61962142Y-33584979D01*
X62115177Y-33769966D01*
X62351875Y-33992241D01*
X62614565Y-34183096D01*
X62618034Y-34185003D01*
X62618037Y-34185005D01*
X62840151Y-34307113D01*
X62899104Y-34339523D01*
X62998239Y-34378773D01*
X63109576Y-34422855D01*
X63165550Y-34466530D01*
X63189026Y-34533533D01*
X63172550Y-34602591D01*
X63126193Y-34649125D01*
X62127828Y-35225532D01*
X62113055Y-35232817D01*
X62098647Y-35238786D01*
X62092880Y-35241174D01*
X62092879Y-35241175D01*
X62085254Y-35244333D01*
X62054836Y-35267674D01*
X62054834Y-35267675D01*
X62023831Y-35291465D01*
X61964097Y-35337301D01*
X61959074Y-35343847D01*
X61888016Y-35436451D01*
X61871128Y-35458459D01*
X61812686Y-35599552D01*
X61792752Y-35750962D01*
X61793830Y-35759150D01*
X61808040Y-35867080D01*
X61812686Y-35902373D01*
X61815845Y-35909998D01*
X61815845Y-35910000D01*
X61846673Y-35984424D01*
X61871128Y-36043465D01*
X61876156Y-36050017D01*
X61889440Y-36067329D01*
X61898598Y-36081034D01*
X63332447Y-38564533D01*
X63352325Y-38598963D01*
X63359612Y-38613740D01*
X63371128Y-38641541D01*
X63394469Y-38671959D01*
X63394470Y-38671961D01*
X63464096Y-38762699D01*
X63522479Y-38807497D01*
X63522480Y-38807498D01*
X63576609Y-38849033D01*
X63585254Y-38855667D01*
X63620681Y-38870341D01*
X63726347Y-38914110D01*
X63734531Y-38915187D01*
X63734533Y-38915188D01*
X63869569Y-38932965D01*
X63877757Y-38934043D01*
X64029168Y-38914109D01*
X64170260Y-38855667D01*
X64176811Y-38850640D01*
X64176815Y-38850638D01*
X64194134Y-38837349D01*
X64207836Y-38828194D01*
X66239967Y-37654942D01*
X67072172Y-37174468D01*
X67086945Y-37167183D01*
X67114746Y-37155667D01*
X67235904Y-37062699D01*
X67328872Y-36941541D01*
X67342813Y-36907885D01*
X73192000Y-36907885D01*
X73196475Y-36923124D01*
X73197865Y-36924329D01*
X73205548Y-36926000D01*
X74277885Y-36926000D01*
X74293124Y-36921525D01*
X74294329Y-36920135D01*
X74296000Y-36912452D01*
X74296000Y-35840116D01*
X74291525Y-35824877D01*
X74290135Y-35823672D01*
X74282452Y-35822001D01*
X73655331Y-35822001D01*
X73648510Y-35822371D01*
X73597648Y-35827895D01*
X73582396Y-35831521D01*
X73461946Y-35876676D01*
X73446351Y-35885214D01*
X73344276Y-35961715D01*
X73331715Y-35974276D01*
X73255214Y-36076351D01*
X73246676Y-36091946D01*
X73201522Y-36212394D01*
X73197895Y-36227649D01*
X73192369Y-36278514D01*
X73192000Y-36285328D01*
X73192000Y-36907885D01*
X67342813Y-36907885D01*
X67387315Y-36800449D01*
X67400448Y-36700695D01*
X67406170Y-36657226D01*
X67407248Y-36649038D01*
X67387314Y-36497627D01*
X67328872Y-36356535D01*
X67323845Y-36349984D01*
X67323843Y-36349980D01*
X67310554Y-36332661D01*
X67301399Y-36318959D01*
X66445075Y-34835763D01*
X67453954Y-34835763D01*
X67454470Y-34841907D01*
X67463141Y-34945164D01*
X67470044Y-35027374D01*
X67488069Y-35090234D01*
X67516215Y-35188392D01*
X67523045Y-35212212D01*
X67525864Y-35217697D01*
X67608121Y-35377752D01*
X67608124Y-35377757D01*
X67610939Y-35383234D01*
X67730377Y-35533927D01*
X67735070Y-35537921D01*
X67735071Y-35537922D01*
X67870234Y-35652954D01*
X67876810Y-35658551D01*
X68044661Y-35752360D01*
X68050520Y-35754264D01*
X68050523Y-35754265D01*
X68065558Y-35759150D01*
X68227535Y-35811780D01*
X68233645Y-35812509D01*
X68233647Y-35812509D01*
X68294752Y-35819795D01*
X68418469Y-35834547D01*
X68424604Y-35834075D01*
X68424606Y-35834075D01*
X68604046Y-35820268D01*
X68604050Y-35820267D01*
X68610188Y-35819795D01*
X68697320Y-35795467D01*
X68789446Y-35769745D01*
X68789450Y-35769744D01*
X68795390Y-35768085D01*
X68800894Y-35765305D01*
X68800896Y-35765304D01*
X68961519Y-35684168D01*
X68961521Y-35684167D01*
X68967022Y-35681388D01*
X69118546Y-35563005D01*
X69143646Y-35533927D01*
X69240165Y-35422107D01*
X69240165Y-35422106D01*
X69244189Y-35417445D01*
X69269172Y-35373468D01*
X69306639Y-35307513D01*
X69339167Y-35250254D01*
X69399862Y-35067798D01*
X69423962Y-34877029D01*
X69424346Y-34849519D01*
X69405582Y-34658151D01*
X69403362Y-34650796D01*
X69379526Y-34571849D01*
X69350005Y-34474072D01*
X69259733Y-34304293D01*
X69250094Y-34292474D01*
X69142097Y-34160057D01*
X69142094Y-34160054D01*
X69138202Y-34155282D01*
X69132190Y-34150308D01*
X69079204Y-34106475D01*
X68990043Y-34032715D01*
X68820899Y-33941259D01*
X68637213Y-33884398D01*
X68631095Y-33883755D01*
X68631090Y-33883754D01*
X68452109Y-33864943D01*
X68452107Y-33864943D01*
X68445980Y-33864299D01*
X68327702Y-33875063D01*
X68260627Y-33881167D01*
X68260626Y-33881167D01*
X68254486Y-33881726D01*
X68070023Y-33936017D01*
X67899619Y-34025102D01*
X67749763Y-34145589D01*
X67626164Y-34292889D01*
X67623195Y-34298290D01*
X67623194Y-34298291D01*
X67599727Y-34340977D01*
X67533529Y-34461390D01*
X67475388Y-34644675D01*
X67474702Y-34650792D01*
X67474701Y-34650796D01*
X67459267Y-34788393D01*
X67453954Y-34835763D01*
X66445075Y-34835763D01*
X66055826Y-34161565D01*
X65896165Y-33885024D01*
X65879427Y-33816029D01*
X65902647Y-33748937D01*
X65908185Y-33741726D01*
X66091796Y-33519779D01*
X66240593Y-33285311D01*
X66263656Y-33248970D01*
X66263656Y-33248969D01*
X66265780Y-33245623D01*
X66267464Y-33242044D01*
X66267468Y-33242037D01*
X66402343Y-32955414D01*
X66402345Y-32955410D01*
X66404032Y-32951824D01*
X66504371Y-32643013D01*
X66565214Y-32324062D01*
X66585602Y-32000000D01*
X66565214Y-31675938D01*
X66504371Y-31356987D01*
X66404032Y-31048176D01*
X66402343Y-31044586D01*
X66267468Y-30757963D01*
X66267464Y-30757956D01*
X66265780Y-30754377D01*
X66091796Y-30480221D01*
X65884823Y-30230034D01*
X65648125Y-30007759D01*
X65385435Y-29816904D01*
X65379678Y-29813739D01*
X65104358Y-29662380D01*
X65104355Y-29662378D01*
X65100896Y-29660477D01*
X64822406Y-29550215D01*
X64802678Y-29542404D01*
X64802675Y-29542403D01*
X64798995Y-29540946D01*
X64795161Y-29539962D01*
X64795153Y-29539959D01*
X64600649Y-29490019D01*
X64484494Y-29460196D01*
X64480566Y-29459700D01*
X64480562Y-29459699D01*
X64352825Y-29443562D01*
X64162351Y-29419500D01*
X63837649Y-29419500D01*
X63647175Y-29443562D01*
X63519438Y-29459699D01*
X63519434Y-29459700D01*
X63515506Y-29460196D01*
X63399351Y-29490019D01*
X63204847Y-29539959D01*
X63204839Y-29539962D01*
X63201005Y-29540946D01*
X63197325Y-29542403D01*
X63197322Y-29542404D01*
X63177594Y-29550215D01*
X62899104Y-29660477D01*
X62895645Y-29662378D01*
X62895642Y-29662380D01*
X62749066Y-29742961D01*
X62679735Y-29758250D01*
X62613144Y-29733629D01*
X62570436Y-29676915D01*
X62565169Y-29606114D01*
X62592984Y-29550215D01*
X62650577Y-29483493D01*
X62650582Y-29483486D01*
X62654606Y-29478824D01*
X62663176Y-29463739D01*
X62716059Y-29370647D01*
X62749584Y-29311633D01*
X62810279Y-29129177D01*
X62834379Y-28938408D01*
X62834763Y-28910898D01*
X62815999Y-28719530D01*
X62813779Y-28712175D01*
X62775347Y-28584884D01*
X62760422Y-28535451D01*
X62670150Y-28365672D01*
X62665255Y-28359670D01*
X62552514Y-28221436D01*
X62552511Y-28221433D01*
X62548619Y-28216661D01*
X62542607Y-28211687D01*
X62434624Y-28122357D01*
X62394886Y-28063524D01*
X62393263Y-27992545D01*
X62430272Y-27931958D01*
X62494162Y-27900997D01*
X62564649Y-27909492D01*
X62574676Y-27914333D01*
X71805607Y-32884834D01*
X71856102Y-32934741D01*
X71871599Y-33004025D01*
X71847179Y-33070690D01*
X71804052Y-33107535D01*
X71616108Y-33205372D01*
X71427998Y-33346608D01*
X71265482Y-33516672D01*
X71262568Y-33520944D01*
X71262567Y-33520945D01*
X71256831Y-33529354D01*
X71132924Y-33710994D01*
X71106967Y-33766914D01*
X71052732Y-33883754D01*
X71033884Y-33924358D01*
X71014413Y-33994569D01*
X70973475Y-34142188D01*
X70971022Y-34151032D01*
X70970473Y-34156169D01*
X70950878Y-34339523D01*
X70946025Y-34384930D01*
X70946322Y-34390082D01*
X70946322Y-34390086D01*
X70956083Y-34559368D01*
X70959566Y-34619769D01*
X70960703Y-34624815D01*
X70960704Y-34624821D01*
X70968925Y-34661298D01*
X71011281Y-34849244D01*
X71013223Y-34854026D01*
X71013224Y-34854030D01*
X71097541Y-35061678D01*
X71099780Y-35067191D01*
X71222687Y-35267757D01*
X71376701Y-35445556D01*
X71557687Y-35595813D01*
X71562139Y-35598415D01*
X71562144Y-35598418D01*
X71708888Y-35684168D01*
X71760783Y-35714493D01*
X71980535Y-35798408D01*
X71985603Y-35799439D01*
X71985606Y-35799440D01*
X72061801Y-35814942D01*
X72211043Y-35845306D01*
X72216216Y-35845496D01*
X72216219Y-35845496D01*
X72440950Y-35853736D01*
X72440954Y-35853736D01*
X72446114Y-35853925D01*
X72451234Y-35853269D01*
X72451236Y-35853269D01*
X72674309Y-35824693D01*
X72674310Y-35824693D01*
X72679437Y-35824036D01*
X72691997Y-35820268D01*
X72899792Y-35757926D01*
X72904745Y-35756440D01*
X73115988Y-35652954D01*
X73190855Y-35599552D01*
X73303280Y-35519360D01*
X73303285Y-35519356D01*
X73307492Y-35516355D01*
X73340927Y-35483037D01*
X73405481Y-35418707D01*
X73474114Y-35350313D01*
X73611381Y-35159287D01*
X73715604Y-34948407D01*
X73740442Y-34866656D01*
X73782482Y-34728288D01*
X73782483Y-34728282D01*
X73783986Y-34723336D01*
X73803929Y-34571848D01*
X73832651Y-34506922D01*
X73891916Y-34467830D01*
X73962908Y-34466985D01*
X74020083Y-34501389D01*
X74140797Y-34628118D01*
X74146625Y-34634682D01*
X74454824Y-35007132D01*
X74460191Y-35014099D01*
X74511780Y-35086137D01*
X74741671Y-35407156D01*
X74746524Y-35414459D01*
X74822501Y-35537922D01*
X74884065Y-35637964D01*
X74902732Y-35706463D01*
X74881402Y-35774179D01*
X74826848Y-35819615D01*
X74812253Y-35824897D01*
X74806875Y-35826476D01*
X74805671Y-35827865D01*
X74804000Y-35835548D01*
X74804000Y-37308000D01*
X74783998Y-37376121D01*
X74730342Y-37422614D01*
X74678000Y-37434000D01*
X73210116Y-37434000D01*
X73194877Y-37438475D01*
X73193672Y-37439865D01*
X73192001Y-37447548D01*
X73192001Y-38074669D01*
X73192371Y-38081490D01*
X73197895Y-38132352D01*
X73201521Y-38147604D01*
X73246676Y-38268054D01*
X73255214Y-38283649D01*
X73331715Y-38385724D01*
X73344276Y-38398285D01*
X73446351Y-38474786D01*
X73461948Y-38483325D01*
X73497500Y-38496653D01*
X73554265Y-38539294D01*
X73578965Y-38605856D01*
X73563758Y-38675205D01*
X73544366Y-38701684D01*
X73434482Y-38816672D01*
X73301924Y-39010994D01*
X73287671Y-39041699D01*
X73233144Y-39159169D01*
X73202884Y-39224358D01*
X73201503Y-39229336D01*
X73201498Y-39229351D01*
X73173072Y-39331853D01*
X73135593Y-39392151D01*
X73085437Y-39419568D01*
X72724427Y-39520038D01*
X72139820Y-39682735D01*
X72106553Y-39687347D01*
X61209721Y-39731576D01*
X61201364Y-39731199D01*
X61195524Y-39729927D01*
X61120513Y-39731906D01*
X61117759Y-39731949D01*
X61086832Y-39732074D01*
X61083068Y-39732545D01*
X61079276Y-39732789D01*
X61079271Y-39732704D01*
X61073340Y-39733151D01*
X61058187Y-39733551D01*
X61030487Y-39734282D01*
X61023161Y-39736288D01*
X61023159Y-39736288D01*
X61006599Y-39740822D01*
X60988968Y-39744320D01*
X60971936Y-39746451D01*
X60971934Y-39746451D01*
X60964394Y-39747395D01*
X60924343Y-39762715D01*
X60912602Y-39766557D01*
X60911969Y-39766730D01*
X60911966Y-39766731D01*
X60907992Y-39767819D01*
X60879664Y-39779733D01*
X60875870Y-39781256D01*
X60810196Y-39806378D01*
X60803952Y-39810707D01*
X60800723Y-39812412D01*
X60790744Y-39817134D01*
X60766383Y-39827380D01*
X60621687Y-39888239D01*
X60551140Y-39896212D01*
X60491006Y-39867905D01*
X60435626Y-39820605D01*
X60435622Y-39820602D01*
X60431867Y-39817395D01*
X60219751Y-39687410D01*
X60215181Y-39685517D01*
X60215177Y-39685515D01*
X59994485Y-39594101D01*
X59994483Y-39594100D01*
X59989912Y-39592207D01*
X59883400Y-39566636D01*
X59752822Y-39535287D01*
X59752816Y-39535286D01*
X59748009Y-39534132D01*
X59500000Y-39514613D01*
X59251991Y-39534132D01*
X59247184Y-39535286D01*
X59247178Y-39535287D01*
X59116600Y-39566636D01*
X59010088Y-39592207D01*
X59005517Y-39594100D01*
X59005515Y-39594101D01*
X58784823Y-39685515D01*
X58784819Y-39685517D01*
X58780249Y-39687410D01*
X58568133Y-39817395D01*
X58564375Y-39820605D01*
X58564368Y-39820610D01*
X58429510Y-39935790D01*
X58378962Y-39978962D01*
X58375749Y-39982724D01*
X58220610Y-40164368D01*
X58220607Y-40164373D01*
X58217395Y-40168133D01*
X58087410Y-40380249D01*
X57992207Y-40610088D01*
X57991052Y-40614900D01*
X57939960Y-40827717D01*
X57934132Y-40851991D01*
X57914613Y-41100000D01*
X57934132Y-41348009D01*
X57935286Y-41352816D01*
X57935287Y-41352822D01*
X57962974Y-41468145D01*
X57992207Y-41589912D01*
X57994100Y-41594483D01*
X57994101Y-41594485D01*
X58087076Y-41818945D01*
X58094665Y-41889535D01*
X58062886Y-41953022D01*
X58001828Y-41989249D01*
X57970734Y-41993163D01*
X53713664Y-41995394D01*
X47303869Y-41998754D01*
X47235738Y-41978788D01*
X47226287Y-41972088D01*
X46955716Y-41760947D01*
X46628984Y-41505979D01*
X46587585Y-41448303D01*
X46580500Y-41406646D01*
X46580499Y-40066077D01*
X46580499Y-40061954D01*
X46573698Y-40010288D01*
X46566636Y-39956646D01*
X46566636Y-39956644D01*
X46565558Y-39948459D01*
X46507066Y-39807245D01*
X46496064Y-39792907D01*
X46419044Y-39692534D01*
X46419043Y-39692533D01*
X46414017Y-39685983D01*
X46407466Y-39680956D01*
X46407464Y-39680954D01*
X46321018Y-39614622D01*
X46292754Y-39592934D01*
X46151541Y-39534442D01*
X46038047Y-39519500D01*
X45973805Y-39519500D01*
X44091041Y-39519501D01*
X44022920Y-39499499D01*
X43976427Y-39445843D01*
X43971212Y-39432447D01*
X43965872Y-39420455D01*
X43940341Y-39376234D01*
X43930137Y-39366504D01*
X43922116Y-39369715D01*
X43677209Y-39614622D01*
X43664819Y-39625489D01*
X43651119Y-39636002D01*
X43585983Y-39685983D01*
X43580957Y-39692533D01*
X43580954Y-39692536D01*
X43525495Y-39764812D01*
X43514628Y-39777203D01*
X43224197Y-40067634D01*
X43161885Y-40101660D01*
X43091070Y-40096595D01*
X43046007Y-40067634D01*
X42351732Y-39373359D01*
X42339352Y-39366599D01*
X42332437Y-39371775D01*
X42304332Y-39420455D01*
X42298994Y-39432444D01*
X42244091Y-39601417D01*
X42241361Y-39614258D01*
X42222790Y-39790954D01*
X42222790Y-39804083D01*
X42238134Y-39950071D01*
X42225362Y-40019910D01*
X42176860Y-40071756D01*
X42108027Y-40089151D01*
X42040717Y-40066570D01*
X42029783Y-40058006D01*
X41996310Y-40028674D01*
X41983113Y-40015238D01*
X41977872Y-40009036D01*
X41971106Y-40001029D01*
X41965692Y-39996890D01*
X41965684Y-39996882D01*
X41924688Y-39965538D01*
X41918182Y-39960211D01*
X41911004Y-39953922D01*
X41911000Y-39953919D01*
X41908437Y-39951673D01*
X41903852Y-39948459D01*
X41887913Y-39937286D01*
X41883706Y-39934206D01*
X41833175Y-39895572D01*
X41833172Y-39895570D01*
X41827758Y-39891431D01*
X41821576Y-39888548D01*
X41819713Y-39887420D01*
X41805293Y-39879090D01*
X41803390Y-39878043D01*
X41797805Y-39874128D01*
X41791510Y-39871504D01*
X41791508Y-39871503D01*
X41732796Y-39847030D01*
X41728025Y-39844924D01*
X41692835Y-39828515D01*
X41664220Y-39815172D01*
X41657567Y-39813685D01*
X41655544Y-39812996D01*
X41639599Y-39807934D01*
X41637550Y-39807330D01*
X41631250Y-39804704D01*
X41624537Y-39803493D01*
X41624534Y-39803492D01*
X41575895Y-39794717D01*
X41561937Y-39792199D01*
X41556833Y-39791168D01*
X41544594Y-39788432D01*
X41493165Y-39776936D01*
X41493159Y-39776935D01*
X41488121Y-39775809D01*
X41482594Y-39775500D01*
X41480655Y-39775500D01*
X41480570Y-39775492D01*
X41479084Y-39775451D01*
X41479087Y-39775360D01*
X41467200Y-39774296D01*
X41467196Y-39774357D01*
X41460390Y-39773878D01*
X41453672Y-39772666D01*
X41429306Y-39773590D01*
X41389455Y-39775102D01*
X41320625Y-39757697D01*
X41272132Y-39705842D01*
X41259371Y-39636002D01*
X41274179Y-39590444D01*
X41274872Y-39589541D01*
X41286388Y-39561740D01*
X41293675Y-39546963D01*
X41300417Y-39535287D01*
X41608951Y-39000891D01*
X42701724Y-39000891D01*
X42703321Y-39006528D01*
X43122290Y-39425497D01*
X43136234Y-39433111D01*
X43138067Y-39432980D01*
X43144682Y-39428729D01*
X43561473Y-39011938D01*
X43568233Y-38999558D01*
X43564722Y-38994868D01*
X43423261Y-38931885D01*
X43410782Y-38927830D01*
X43236995Y-38890892D01*
X43223934Y-38889519D01*
X43046270Y-38889519D01*
X43033209Y-38890892D01*
X42859422Y-38927830D01*
X42846943Y-38931885D01*
X42712469Y-38991758D01*
X42701724Y-39000891D01*
X41608951Y-39000891D01*
X41985642Y-38348442D01*
X42742767Y-37037063D01*
X45717350Y-37037063D01*
X45720861Y-37041753D01*
X45862322Y-37104736D01*
X45874801Y-37108791D01*
X46048588Y-37145729D01*
X46061649Y-37147102D01*
X46239313Y-37147102D01*
X46252374Y-37145729D01*
X46426161Y-37108791D01*
X46438640Y-37104736D01*
X46573114Y-37044863D01*
X46583859Y-37035730D01*
X46582262Y-37030093D01*
X46514122Y-36961953D01*
X50319500Y-36961953D01*
X50319501Y-39038046D01*
X50320039Y-39042131D01*
X50320039Y-39042135D01*
X50325496Y-39083589D01*
X50334442Y-39151541D01*
X50392934Y-39292755D01*
X50397960Y-39299305D01*
X50480955Y-39407464D01*
X50485983Y-39414017D01*
X50492533Y-39419043D01*
X50492536Y-39419046D01*
X50527459Y-39445843D01*
X50607246Y-39507066D01*
X50748459Y-39565558D01*
X50861953Y-39580500D01*
X52499801Y-39580500D01*
X54138046Y-39580499D01*
X54142131Y-39579961D01*
X54142135Y-39579961D01*
X54243354Y-39566636D01*
X54243356Y-39566636D01*
X54251541Y-39565558D01*
X54392755Y-39507066D01*
X54489134Y-39433111D01*
X54507466Y-39419044D01*
X54507467Y-39419043D01*
X54514017Y-39414017D01*
X54519044Y-39407466D01*
X54519046Y-39407464D01*
X54577064Y-39331853D01*
X54607066Y-39292754D01*
X54665558Y-39151541D01*
X54680500Y-39038047D01*
X54680500Y-38348442D01*
X60327767Y-38348442D01*
X60331278Y-38353132D01*
X60472739Y-38416115D01*
X60485218Y-38420170D01*
X60659005Y-38457108D01*
X60672066Y-38458481D01*
X60849730Y-38458481D01*
X60862791Y-38457108D01*
X61036578Y-38420170D01*
X61049057Y-38416115D01*
X61183531Y-38356242D01*
X61194276Y-38347109D01*
X61192679Y-38341472D01*
X60773710Y-37922503D01*
X60759766Y-37914889D01*
X60757933Y-37915020D01*
X60751318Y-37919271D01*
X60334527Y-38336062D01*
X60327767Y-38348442D01*
X54680500Y-38348442D01*
X54680499Y-37557046D01*
X59848586Y-37557046D01*
X59867157Y-37733742D01*
X59869887Y-37746583D01*
X59924790Y-37915556D01*
X59930128Y-37927545D01*
X59955659Y-37971766D01*
X59965863Y-37981496D01*
X59973884Y-37978285D01*
X60388876Y-37563293D01*
X60395254Y-37551613D01*
X61125306Y-37551613D01*
X61125437Y-37553446D01*
X61129688Y-37560061D01*
X61544268Y-37974641D01*
X61556648Y-37981401D01*
X61563563Y-37976225D01*
X61591668Y-37927545D01*
X61597006Y-37915556D01*
X61651909Y-37746583D01*
X61654639Y-37733742D01*
X61673210Y-37557046D01*
X61673210Y-37543916D01*
X61654639Y-37367220D01*
X61651909Y-37354379D01*
X61597006Y-37185406D01*
X61591668Y-37173417D01*
X61566137Y-37129196D01*
X61555933Y-37119466D01*
X61547912Y-37122677D01*
X61132920Y-37537669D01*
X61125306Y-37551613D01*
X60395254Y-37551613D01*
X60396490Y-37549349D01*
X60396359Y-37547516D01*
X60392108Y-37540901D01*
X59977528Y-37126321D01*
X59965148Y-37119561D01*
X59958233Y-37124737D01*
X59930128Y-37173417D01*
X59924790Y-37185406D01*
X59869887Y-37354379D01*
X59867157Y-37367220D01*
X59848586Y-37543916D01*
X59848586Y-37557046D01*
X54680499Y-37557046D01*
X54680499Y-36961954D01*
X54676500Y-36931572D01*
X54666636Y-36856646D01*
X54666636Y-36856644D01*
X54665558Y-36848459D01*
X54626371Y-36753853D01*
X60327520Y-36753853D01*
X60329117Y-36759490D01*
X60748086Y-37178459D01*
X60762030Y-37186073D01*
X60763863Y-37185942D01*
X60770478Y-37181691D01*
X61187269Y-36764900D01*
X61194029Y-36752520D01*
X61190518Y-36747830D01*
X61049057Y-36684847D01*
X61036578Y-36680792D01*
X60862791Y-36643854D01*
X60849730Y-36642481D01*
X60672066Y-36642481D01*
X60659005Y-36643854D01*
X60485218Y-36680792D01*
X60472739Y-36684847D01*
X60338265Y-36744720D01*
X60327520Y-36753853D01*
X54626371Y-36753853D01*
X54607066Y-36707245D01*
X54571110Y-36660387D01*
X54519044Y-36592534D01*
X54519043Y-36592533D01*
X54514017Y-36585983D01*
X54507466Y-36580956D01*
X54507464Y-36580954D01*
X54453386Y-36539459D01*
X54392754Y-36492934D01*
X54251541Y-36434442D01*
X54138047Y-36419500D01*
X52500199Y-36419500D01*
X50861954Y-36419501D01*
X50857869Y-36420039D01*
X50857865Y-36420039D01*
X50756646Y-36433364D01*
X50756644Y-36433364D01*
X50748459Y-36434442D01*
X50607245Y-36492934D01*
X50485983Y-36585983D01*
X50480957Y-36592533D01*
X50480954Y-36592536D01*
X50443882Y-36640850D01*
X50392934Y-36707246D01*
X50334442Y-36848459D01*
X50319500Y-36961953D01*
X46514122Y-36961953D01*
X46163293Y-36611124D01*
X46149349Y-36603510D01*
X46147516Y-36603641D01*
X46140901Y-36607892D01*
X45724110Y-37024683D01*
X45717350Y-37037063D01*
X42742767Y-37037063D01*
X42747399Y-37029041D01*
X42756554Y-37015339D01*
X42769843Y-36998020D01*
X42769845Y-36998016D01*
X42774872Y-36991465D01*
X42833314Y-36850373D01*
X42853248Y-36698963D01*
X42853248Y-36698962D01*
X42837713Y-36580956D01*
X42834393Y-36555739D01*
X42833315Y-36547551D01*
X42774873Y-36406460D01*
X42681904Y-36285301D01*
X42630252Y-36245667D01*
X45238169Y-36245667D01*
X45256740Y-36422363D01*
X45259470Y-36435204D01*
X45314373Y-36604177D01*
X45319711Y-36616166D01*
X45345242Y-36660387D01*
X45355446Y-36670117D01*
X45363467Y-36666906D01*
X45778459Y-36251914D01*
X45784837Y-36240234D01*
X46514889Y-36240234D01*
X46515020Y-36242067D01*
X46519271Y-36248682D01*
X46933851Y-36663262D01*
X46946231Y-36670022D01*
X46953146Y-36664846D01*
X46981251Y-36616166D01*
X46986589Y-36604177D01*
X47041492Y-36435204D01*
X47044222Y-36422363D01*
X47062793Y-36245667D01*
X47062793Y-36232537D01*
X47044222Y-36055841D01*
X47041492Y-36043000D01*
X46990825Y-35887063D01*
X56117350Y-35887063D01*
X56120861Y-35891753D01*
X56262322Y-35954736D01*
X56274801Y-35958791D01*
X56448588Y-35995729D01*
X56461649Y-35997102D01*
X56639313Y-35997102D01*
X56652374Y-35995729D01*
X56826161Y-35958791D01*
X56838640Y-35954736D01*
X56973114Y-35894863D01*
X56983859Y-35885730D01*
X56982262Y-35880093D01*
X56563293Y-35461124D01*
X56549349Y-35453510D01*
X56547516Y-35453641D01*
X56540901Y-35457892D01*
X56124110Y-35874683D01*
X56117350Y-35887063D01*
X46990825Y-35887063D01*
X46986589Y-35874027D01*
X46981251Y-35862038D01*
X46955720Y-35817817D01*
X46945516Y-35808087D01*
X46937495Y-35811298D01*
X46522503Y-36226290D01*
X46514889Y-36240234D01*
X45784837Y-36240234D01*
X45786073Y-36237970D01*
X45785942Y-36236137D01*
X45781691Y-36229522D01*
X45367111Y-35814942D01*
X45354731Y-35808182D01*
X45347816Y-35813358D01*
X45319711Y-35862038D01*
X45314373Y-35874027D01*
X45259470Y-36043000D01*
X45256740Y-36055841D01*
X45238169Y-36232537D01*
X45238169Y-36245667D01*
X42630252Y-36245667D01*
X42560746Y-36192333D01*
X42532945Y-36180817D01*
X42518172Y-36173532D01*
X41251943Y-35442474D01*
X45717103Y-35442474D01*
X45718700Y-35448111D01*
X46137669Y-35867080D01*
X46151613Y-35874694D01*
X46153446Y-35874563D01*
X46160061Y-35870312D01*
X46576852Y-35453521D01*
X46583612Y-35441141D01*
X46580101Y-35436451D01*
X46438640Y-35373468D01*
X46426161Y-35369413D01*
X46252374Y-35332475D01*
X46239313Y-35331102D01*
X46061649Y-35331102D01*
X46048588Y-35332475D01*
X45874801Y-35369413D01*
X45862322Y-35373468D01*
X45727848Y-35433341D01*
X45717103Y-35442474D01*
X41251943Y-35442474D01*
X41092315Y-35350313D01*
X39653836Y-34519806D01*
X39640134Y-34510651D01*
X39622815Y-34497362D01*
X39622811Y-34497360D01*
X39616260Y-34492333D01*
X39608634Y-34489174D01*
X39608632Y-34489173D01*
X39574217Y-34474918D01*
X39567578Y-34472168D01*
X39475168Y-34433891D01*
X39323757Y-34413957D01*
X39172347Y-34433890D01*
X39111597Y-34459054D01*
X39075340Y-34474072D01*
X39031255Y-34492332D01*
X39024706Y-34497358D01*
X39024705Y-34497358D01*
X38993505Y-34521299D01*
X38983162Y-34529236D01*
X38910096Y-34585301D01*
X38847294Y-34667146D01*
X38817128Y-34706459D01*
X38805612Y-34734260D01*
X38798327Y-34749033D01*
X37723249Y-36611124D01*
X37344598Y-37266966D01*
X37335440Y-37280671D01*
X37317128Y-37304535D01*
X37302454Y-37339960D01*
X37298383Y-37338274D01*
X37298383Y-37338275D01*
X37302454Y-37339961D01*
X37258686Y-37445627D01*
X37238752Y-37597038D01*
X37239830Y-37605226D01*
X37257608Y-37740264D01*
X37257609Y-37740268D01*
X37258686Y-37748448D01*
X37261844Y-37756072D01*
X37261845Y-37756076D01*
X37313967Y-37881911D01*
X37317127Y-37889540D01*
X37322153Y-37896090D01*
X37387616Y-37981401D01*
X37410097Y-38010699D01*
X37416647Y-38015725D01*
X37416650Y-38015728D01*
X37524701Y-38098639D01*
X37531254Y-38103667D01*
X37559055Y-38115183D01*
X37573828Y-38122468D01*
X39810856Y-39414017D01*
X40029725Y-39540381D01*
X40078718Y-39591763D01*
X40092154Y-39661477D01*
X40065768Y-39727388D01*
X40007936Y-39768570D01*
X39966725Y-39775500D01*
X35634221Y-39775500D01*
X35623678Y-39775058D01*
X35573590Y-39770852D01*
X35566830Y-39771754D01*
X35566829Y-39771754D01*
X35558054Y-39772925D01*
X35495698Y-39781245D01*
X35492697Y-39781608D01*
X35414611Y-39790091D01*
X35408145Y-39792267D01*
X35405676Y-39792810D01*
X35405129Y-39792907D01*
X35404487Y-39793056D01*
X35403967Y-39793207D01*
X35401492Y-39793815D01*
X35394730Y-39794717D01*
X35388319Y-39797051D01*
X35388317Y-39797051D01*
X35320921Y-39821582D01*
X35318013Y-39822600D01*
X35243591Y-39847645D01*
X35237741Y-39851160D01*
X35235425Y-39852230D01*
X35234925Y-39852436D01*
X35234347Y-39852712D01*
X35233850Y-39852983D01*
X35231587Y-39854097D01*
X35225168Y-39856433D01*
X35219403Y-39860091D01*
X35219404Y-39860091D01*
X35158860Y-39898512D01*
X35156243Y-39900128D01*
X35130873Y-39915373D01*
X35088920Y-39940581D01*
X35083961Y-39945270D01*
X35081943Y-39946802D01*
X35081025Y-39947440D01*
X35077172Y-39950354D01*
X35072813Y-39953120D01*
X35068686Y-39956809D01*
X35016459Y-40009036D01*
X35013937Y-40011489D01*
X34964747Y-40058006D01*
X34957813Y-40064563D01*
X34953979Y-40070204D01*
X34949764Y-40075157D01*
X34942908Y-40082587D01*
X34311188Y-40714308D01*
X34303420Y-40721451D01*
X34265029Y-40753894D01*
X34260886Y-40759313D01*
X34260884Y-40759315D01*
X34217306Y-40816312D01*
X34215427Y-40818708D01*
X34166218Y-40879912D01*
X34163183Y-40886027D01*
X34161815Y-40888165D01*
X34161499Y-40888616D01*
X34161149Y-40889179D01*
X34160893Y-40889644D01*
X34159571Y-40891827D01*
X34155431Y-40897242D01*
X34143560Y-40922699D01*
X34122237Y-40968426D01*
X34120902Y-40971200D01*
X34085985Y-41041539D01*
X34084334Y-41048160D01*
X34083459Y-41050539D01*
X34083250Y-41051041D01*
X34083026Y-41051673D01*
X34082874Y-41052191D01*
X34082054Y-41054599D01*
X34079172Y-41060780D01*
X34071507Y-41095070D01*
X34062036Y-41137442D01*
X34061327Y-41140438D01*
X34042332Y-41216623D01*
X34042142Y-41223444D01*
X34041797Y-41225960D01*
X34041602Y-41227044D01*
X34040938Y-41231831D01*
X34039809Y-41236879D01*
X34039500Y-41242406D01*
X34039500Y-41316253D01*
X34039451Y-41319771D01*
X34037568Y-41387203D01*
X34037294Y-41396998D01*
X34038572Y-41403699D01*
X34039094Y-41410180D01*
X34039500Y-41420286D01*
X34039500Y-42252965D01*
X34023915Y-42313664D01*
X33964427Y-42421871D01*
X33962564Y-42427744D01*
X33908371Y-42598583D01*
X33868708Y-42657467D01*
X33803506Y-42685560D01*
X33733466Y-42673943D01*
X33680826Y-42626303D01*
X33662563Y-42551885D01*
X33664468Y-42524038D01*
X33707118Y-41900639D01*
X33707639Y-41894939D01*
X33708889Y-41884012D01*
X33803798Y-41053957D01*
X33804578Y-41048277D01*
X33807565Y-41029699D01*
X33874243Y-40614900D01*
X33938923Y-40212534D01*
X33939962Y-40206892D01*
X34112212Y-39378130D01*
X34113507Y-39372541D01*
X34168095Y-39159169D01*
X34323314Y-38552453D01*
X34324859Y-38546943D01*
X34324866Y-38546922D01*
X34571770Y-37737293D01*
X34573565Y-37731853D01*
X34635812Y-37556743D01*
X34771698Y-37174470D01*
X34857078Y-36934282D01*
X34859122Y-36928921D01*
X35014585Y-36547551D01*
X35178660Y-36145054D01*
X35180930Y-36139828D01*
X35498606Y-35451909D01*
X35535815Y-35371333D01*
X35538338Y-35366180D01*
X35809699Y-34842588D01*
X35858803Y-34791311D01*
X35927835Y-34774722D01*
X35994876Y-34798087D01*
X36038720Y-34854183D01*
X36039142Y-34855249D01*
X36040841Y-34861174D01*
X36043657Y-34866653D01*
X36043658Y-34866656D01*
X36125917Y-35026714D01*
X36125920Y-35026719D01*
X36128735Y-35032196D01*
X36248173Y-35182889D01*
X36252866Y-35186883D01*
X36252867Y-35186884D01*
X36375750Y-35291465D01*
X36394606Y-35307513D01*
X36399984Y-35310519D01*
X36399986Y-35310520D01*
X36439270Y-35332475D01*
X36562457Y-35401322D01*
X36568316Y-35403226D01*
X36568319Y-35403227D01*
X36602294Y-35414266D01*
X36745331Y-35460742D01*
X36751441Y-35461471D01*
X36751443Y-35461471D01*
X36812548Y-35468757D01*
X36936265Y-35483509D01*
X36942400Y-35483037D01*
X36942402Y-35483037D01*
X37121842Y-35469230D01*
X37121846Y-35469229D01*
X37127984Y-35468757D01*
X37243690Y-35436451D01*
X37307242Y-35418707D01*
X37307246Y-35418706D01*
X37313186Y-35417047D01*
X37318690Y-35414267D01*
X37318692Y-35414266D01*
X37479315Y-35333130D01*
X37479317Y-35333129D01*
X37484818Y-35330350D01*
X37636342Y-35211967D01*
X37640416Y-35207248D01*
X37757961Y-35071069D01*
X37757961Y-35071068D01*
X37761985Y-35066407D01*
X37787648Y-35021233D01*
X37827189Y-34951628D01*
X37856963Y-34899216D01*
X37917658Y-34716760D01*
X37941758Y-34525991D01*
X37941972Y-34510651D01*
X37942093Y-34502004D01*
X37942093Y-34502001D01*
X37942142Y-34498481D01*
X37923378Y-34307113D01*
X37920715Y-34298291D01*
X37881320Y-34167812D01*
X37867801Y-34123034D01*
X37777529Y-33953255D01*
X37770134Y-33944188D01*
X37659893Y-33809019D01*
X37659890Y-33809016D01*
X37655998Y-33804244D01*
X37639496Y-33790592D01*
X37580404Y-33741708D01*
X37507839Y-33681677D01*
X37338695Y-33590221D01*
X37155009Y-33533360D01*
X37148891Y-33532717D01*
X37148886Y-33532716D01*
X36969905Y-33513905D01*
X36969903Y-33513905D01*
X36963776Y-33513261D01*
X36879342Y-33520945D01*
X36819102Y-33526427D01*
X36749449Y-33512682D01*
X36698285Y-33463460D01*
X36681854Y-33394391D01*
X36701552Y-33333033D01*
X36813119Y-33158680D01*
X36816320Y-33153920D01*
X37304537Y-32462437D01*
X37307938Y-32457844D01*
X37827137Y-31789292D01*
X37830750Y-31784851D01*
X37922031Y-31677756D01*
X42065957Y-31677756D01*
X42085891Y-31829168D01*
X42089050Y-31836795D01*
X42089051Y-31836798D01*
X42131920Y-31940291D01*
X42144333Y-31970260D01*
X42149365Y-31976817D01*
X42162645Y-31994124D01*
X42171803Y-32007829D01*
X42256227Y-32154056D01*
X43822348Y-34866656D01*
X43825530Y-34872168D01*
X43832817Y-34886945D01*
X43844333Y-34914746D01*
X43867674Y-34945164D01*
X43867675Y-34945166D01*
X43937301Y-35035904D01*
X43978076Y-35067191D01*
X43981760Y-35070018D01*
X43981761Y-35070019D01*
X44051903Y-35123841D01*
X44058459Y-35128872D01*
X44066089Y-35132032D01*
X44066090Y-35132033D01*
X44066095Y-35132035D01*
X44093886Y-35143546D01*
X44199552Y-35187315D01*
X44207736Y-35188392D01*
X44207738Y-35188393D01*
X44342774Y-35206170D01*
X44350962Y-35207248D01*
X44502373Y-35187314D01*
X44608039Y-35143546D01*
X44608380Y-35144369D01*
X44608381Y-35144369D01*
X44608040Y-35143546D01*
X44608042Y-35143545D01*
X44635830Y-35132035D01*
X44635832Y-35132034D01*
X44643465Y-35128872D01*
X44650022Y-35123841D01*
X44667339Y-35110554D01*
X44681041Y-35101399D01*
X44690969Y-35095667D01*
X55638169Y-35095667D01*
X55656740Y-35272363D01*
X55659470Y-35285204D01*
X55714373Y-35454177D01*
X55719711Y-35466166D01*
X55745242Y-35510387D01*
X55755446Y-35520117D01*
X55763467Y-35516906D01*
X56178459Y-35101914D01*
X56184837Y-35090234D01*
X56914889Y-35090234D01*
X56915020Y-35092067D01*
X56919271Y-35098682D01*
X57333851Y-35513262D01*
X57346231Y-35520022D01*
X57353146Y-35514846D01*
X57381251Y-35466166D01*
X57386589Y-35454177D01*
X57441492Y-35285204D01*
X57444222Y-35272363D01*
X57462793Y-35095667D01*
X57462793Y-35082537D01*
X57444222Y-34905841D01*
X57441492Y-34893000D01*
X57386589Y-34724027D01*
X57381251Y-34712038D01*
X57355720Y-34667817D01*
X57345516Y-34658087D01*
X57337495Y-34661298D01*
X56922503Y-35076290D01*
X56914889Y-35090234D01*
X56184837Y-35090234D01*
X56186073Y-35087970D01*
X56185942Y-35086137D01*
X56181691Y-35079522D01*
X55767111Y-34664942D01*
X55754731Y-34658182D01*
X55747816Y-34663358D01*
X55719711Y-34712038D01*
X55714373Y-34724027D01*
X55659470Y-34893000D01*
X55656740Y-34905841D01*
X55638169Y-35082537D01*
X55638169Y-35095667D01*
X44690969Y-35095667D01*
X44938143Y-34952961D01*
X51306869Y-34952961D01*
X51310380Y-34957651D01*
X51451841Y-35020634D01*
X51464320Y-35024689D01*
X51638107Y-35061627D01*
X51651168Y-35063000D01*
X51828832Y-35063000D01*
X51841893Y-35061627D01*
X52015680Y-35024689D01*
X52028159Y-35020634D01*
X52162633Y-34960761D01*
X52173378Y-34951628D01*
X52171781Y-34945991D01*
X51752812Y-34527022D01*
X51738868Y-34519408D01*
X51737035Y-34519539D01*
X51730420Y-34523790D01*
X51313629Y-34940581D01*
X51306869Y-34952961D01*
X44938143Y-34952961D01*
X46308880Y-34161565D01*
X50827688Y-34161565D01*
X50846259Y-34338261D01*
X50848989Y-34351102D01*
X50903892Y-34520075D01*
X50909230Y-34532064D01*
X50934761Y-34576285D01*
X50944965Y-34586015D01*
X50952986Y-34582804D01*
X51367978Y-34167812D01*
X51374356Y-34156132D01*
X52104408Y-34156132D01*
X52104539Y-34157965D01*
X52108790Y-34164580D01*
X52523370Y-34579160D01*
X52535750Y-34585920D01*
X52542665Y-34580744D01*
X52570770Y-34532064D01*
X52576108Y-34520075D01*
X52631011Y-34351102D01*
X52633741Y-34338261D01*
X52638553Y-34292474D01*
X56117103Y-34292474D01*
X56118700Y-34298111D01*
X56537669Y-34717080D01*
X56551613Y-34724694D01*
X56553446Y-34724563D01*
X56560061Y-34720312D01*
X56976852Y-34303521D01*
X56983612Y-34291141D01*
X56980101Y-34286451D01*
X56838640Y-34223468D01*
X56826161Y-34219413D01*
X56652374Y-34182475D01*
X56639313Y-34181102D01*
X56461649Y-34181102D01*
X56448588Y-34182475D01*
X56274801Y-34219413D01*
X56262322Y-34223468D01*
X56127848Y-34283341D01*
X56117103Y-34292474D01*
X52638553Y-34292474D01*
X52652312Y-34161565D01*
X52652312Y-34148435D01*
X52633741Y-33971739D01*
X52631011Y-33958898D01*
X52576108Y-33789925D01*
X52570770Y-33777936D01*
X52545239Y-33733715D01*
X52535035Y-33723985D01*
X52527014Y-33727196D01*
X52112022Y-34142188D01*
X52104408Y-34156132D01*
X51374356Y-34156132D01*
X51375592Y-34153868D01*
X51375461Y-34152035D01*
X51371210Y-34145420D01*
X50956630Y-33730840D01*
X50944250Y-33724080D01*
X50937335Y-33729256D01*
X50909230Y-33777936D01*
X50903892Y-33789925D01*
X50848989Y-33958898D01*
X50846259Y-33971739D01*
X50827688Y-34148435D01*
X50827688Y-34161565D01*
X46308880Y-34161565D01*
X46311492Y-34160057D01*
X47198967Y-33647673D01*
X47213740Y-33640388D01*
X47241541Y-33628872D01*
X47362699Y-33535904D01*
X47455667Y-33414746D01*
X47479018Y-33358372D01*
X51306622Y-33358372D01*
X51308219Y-33364009D01*
X51727188Y-33782978D01*
X51741132Y-33790592D01*
X51742965Y-33790461D01*
X51749580Y-33786210D01*
X52166371Y-33369419D01*
X52173131Y-33357039D01*
X52169620Y-33352349D01*
X52028159Y-33289366D01*
X52015680Y-33285311D01*
X51841893Y-33248373D01*
X51828832Y-33247000D01*
X51651168Y-33247000D01*
X51638107Y-33248373D01*
X51464320Y-33285311D01*
X51451841Y-33289366D01*
X51317367Y-33349239D01*
X51306622Y-33358372D01*
X47479018Y-33358372D01*
X47514110Y-33273654D01*
X47517801Y-33245623D01*
X47532965Y-33130431D01*
X47534043Y-33122243D01*
X47514109Y-32970833D01*
X47506236Y-32951824D01*
X47455667Y-32829740D01*
X47450640Y-32823189D01*
X47450638Y-32823185D01*
X47437349Y-32805866D01*
X47428194Y-32792164D01*
X46887122Y-31855000D01*
X50404995Y-31855000D01*
X50410000Y-31893016D01*
X50424929Y-32006410D01*
X50483371Y-32147502D01*
X50488398Y-32154053D01*
X50571311Y-32262108D01*
X50576339Y-32268661D01*
X50697497Y-32361629D01*
X50838590Y-32420071D01*
X50912032Y-32429740D01*
X50990000Y-32440005D01*
X50998188Y-32438927D01*
X51019828Y-32436078D01*
X51036275Y-32435000D01*
X53943725Y-32435000D01*
X53960172Y-32436078D01*
X53990000Y-32440005D01*
X53998188Y-32438927D01*
X54067969Y-32429740D01*
X54141410Y-32420071D01*
X54282502Y-32361629D01*
X54372386Y-32292659D01*
X54397110Y-32273688D01*
X54397111Y-32273687D01*
X54403661Y-32268661D01*
X54496629Y-32147503D01*
X54555071Y-32006410D01*
X54575005Y-31855000D01*
X54571078Y-31825172D01*
X54570000Y-31808725D01*
X54570000Y-28501275D01*
X54571078Y-28484828D01*
X54573927Y-28463188D01*
X54575005Y-28455000D01*
X54555071Y-28303590D01*
X54496629Y-28162498D01*
X54403661Y-28041339D01*
X54346393Y-27997396D01*
X54282503Y-27948371D01*
X54141410Y-27889929D01*
X53990000Y-27869995D01*
X53981812Y-27871073D01*
X53960172Y-27873922D01*
X53943725Y-27875000D01*
X51036275Y-27875000D01*
X51019828Y-27873922D01*
X50998188Y-27871073D01*
X50990000Y-27869995D01*
X50951984Y-27875000D01*
X50838590Y-27889929D01*
X50697498Y-27948371D01*
X50576339Y-28041339D01*
X50483371Y-28162497D01*
X50424929Y-28303590D01*
X50404995Y-28455000D01*
X50406073Y-28463188D01*
X50408922Y-28484828D01*
X50410000Y-28501275D01*
X50410000Y-31808725D01*
X50408922Y-31825172D01*
X50404995Y-31855000D01*
X46887122Y-31855000D01*
X46261348Y-30771128D01*
X45774468Y-29927828D01*
X45767183Y-29913055D01*
X45755667Y-29885254D01*
X45662699Y-29764096D01*
X45541541Y-29671128D01*
X45400449Y-29612685D01*
X45392265Y-29611608D01*
X45392263Y-29611607D01*
X45257226Y-29593830D01*
X45249038Y-29592752D01*
X45097627Y-29612686D01*
X44956535Y-29671128D01*
X44933510Y-29688796D01*
X44932671Y-29689440D01*
X44918966Y-29698598D01*
X44716236Y-29815644D01*
X42401033Y-31152327D01*
X42386260Y-31159612D01*
X42371852Y-31165581D01*
X42366085Y-31167969D01*
X42366084Y-31167970D01*
X42358459Y-31171128D01*
X42328041Y-31194469D01*
X42328039Y-31194470D01*
X42237302Y-31264096D01*
X42144333Y-31385254D01*
X42085891Y-31526347D01*
X42065957Y-31677756D01*
X37922031Y-31677756D01*
X38379853Y-31140617D01*
X38383673Y-31136337D01*
X38961504Y-30517800D01*
X38965515Y-30513698D01*
X39570935Y-29922076D01*
X39575129Y-29918160D01*
X39580861Y-29913048D01*
X39993287Y-29545197D01*
X40206838Y-29354727D01*
X40211206Y-29351007D01*
X40867890Y-28816931D01*
X40872422Y-28813413D01*
X40965273Y-28744677D01*
X41232108Y-28547142D01*
X42464371Y-28547142D01*
X42480461Y-28738753D01*
X42492052Y-28779177D01*
X42530833Y-28914421D01*
X42533462Y-28923591D01*
X42536281Y-28929076D01*
X42618538Y-29089131D01*
X42618541Y-29089136D01*
X42621356Y-29094613D01*
X42740794Y-29245306D01*
X42745487Y-29249300D01*
X42745488Y-29249301D01*
X42864993Y-29351007D01*
X42887227Y-29369930D01*
X43055078Y-29463739D01*
X43060937Y-29465643D01*
X43060940Y-29465644D01*
X43085014Y-29473466D01*
X43237952Y-29523159D01*
X43244062Y-29523888D01*
X43244064Y-29523888D01*
X43305169Y-29531174D01*
X43428886Y-29545926D01*
X43435021Y-29545454D01*
X43435023Y-29545454D01*
X43614463Y-29531647D01*
X43614467Y-29531646D01*
X43620605Y-29531174D01*
X43757750Y-29492882D01*
X43799863Y-29481124D01*
X43799867Y-29481123D01*
X43805807Y-29479464D01*
X43811311Y-29476684D01*
X43811313Y-29476683D01*
X43971936Y-29395547D01*
X43971938Y-29395546D01*
X43977439Y-29392767D01*
X44128963Y-29274384D01*
X44154063Y-29245306D01*
X44250582Y-29133486D01*
X44250582Y-29133485D01*
X44254606Y-29128824D01*
X44349584Y-28961633D01*
X44410279Y-28779177D01*
X44434379Y-28588408D01*
X44434763Y-28560898D01*
X44415999Y-28369530D01*
X44413779Y-28362175D01*
X44392640Y-28292160D01*
X44360422Y-28185451D01*
X44270150Y-28015672D01*
X44257575Y-28000253D01*
X44152514Y-27871436D01*
X44152511Y-27871433D01*
X44148619Y-27866661D01*
X44142607Y-27861687D01*
X44036104Y-27773581D01*
X44000460Y-27744094D01*
X43831316Y-27652638D01*
X43647630Y-27595777D01*
X43641512Y-27595134D01*
X43641507Y-27595133D01*
X43462526Y-27576322D01*
X43462524Y-27576322D01*
X43456397Y-27575678D01*
X43338119Y-27586442D01*
X43271044Y-27592546D01*
X43271043Y-27592546D01*
X43264903Y-27593105D01*
X43080440Y-27647396D01*
X42910036Y-27736481D01*
X42760180Y-27856968D01*
X42636581Y-28004268D01*
X42633612Y-28009669D01*
X42633611Y-28009670D01*
X42618962Y-28036316D01*
X42543946Y-28172769D01*
X42485805Y-28356054D01*
X42485119Y-28362171D01*
X42485118Y-28362175D01*
X42470442Y-28493016D01*
X42464371Y-28547142D01*
X41232108Y-28547142D01*
X41305223Y-28493016D01*
X41552762Y-28309766D01*
X41557450Y-28306458D01*
X42178847Y-27888851D01*
X42260006Y-27834309D01*
X42264834Y-27831221D01*
X42408169Y-27744094D01*
X42653699Y-27594846D01*
X42988164Y-27391539D01*
X42993134Y-27388671D01*
X43735721Y-26982376D01*
X43740815Y-26979738D01*
X44491986Y-26612144D01*
X44501130Y-26607669D01*
X44506336Y-26605267D01*
X44966665Y-26405433D01*
X45282801Y-26268195D01*
X45288109Y-26266033D01*
X45615636Y-26141244D01*
X52254852Y-26141244D01*
X52255368Y-26147388D01*
X52265851Y-26272222D01*
X52270942Y-26332855D01*
X52323943Y-26517693D01*
X52326762Y-26523178D01*
X52409019Y-26683233D01*
X52409022Y-26683238D01*
X52411837Y-26688715D01*
X52531275Y-26839408D01*
X52535968Y-26843402D01*
X52535969Y-26843403D01*
X52565442Y-26868486D01*
X52677708Y-26964032D01*
X52683086Y-26967038D01*
X52683088Y-26967039D01*
X52718570Y-26986869D01*
X52845559Y-27057841D01*
X52851418Y-27059745D01*
X52851421Y-27059746D01*
X52885396Y-27070785D01*
X53028433Y-27117261D01*
X53034543Y-27117990D01*
X53034545Y-27117990D01*
X53095650Y-27125276D01*
X53219367Y-27140028D01*
X53225502Y-27139556D01*
X53225504Y-27139556D01*
X53404944Y-27125749D01*
X53404948Y-27125748D01*
X53411086Y-27125276D01*
X53498218Y-27100948D01*
X53590344Y-27075226D01*
X53590348Y-27075225D01*
X53596288Y-27073566D01*
X53601792Y-27070786D01*
X53601794Y-27070785D01*
X53762417Y-26989649D01*
X53762419Y-26989648D01*
X53767920Y-26986869D01*
X53919444Y-26868486D01*
X53929997Y-26856261D01*
X54041063Y-26727588D01*
X54041063Y-26727587D01*
X54045087Y-26722926D01*
X54140065Y-26555735D01*
X54200760Y-26373279D01*
X54224860Y-26182510D01*
X54225244Y-26155000D01*
X54206480Y-25963632D01*
X54204260Y-25956277D01*
X54152684Y-25785453D01*
X54150903Y-25779553D01*
X54060631Y-25609774D01*
X54051330Y-25598370D01*
X53942995Y-25465538D01*
X53942992Y-25465535D01*
X53939100Y-25460763D01*
X53933088Y-25455789D01*
X53880102Y-25411956D01*
X53790941Y-25338196D01*
X53621797Y-25246740D01*
X53438111Y-25189879D01*
X53431993Y-25189236D01*
X53431988Y-25189235D01*
X53253007Y-25170424D01*
X53253005Y-25170424D01*
X53246878Y-25169780D01*
X53128600Y-25180544D01*
X53061525Y-25186648D01*
X53061524Y-25186648D01*
X53055384Y-25187207D01*
X52870921Y-25241498D01*
X52700517Y-25330583D01*
X52550661Y-25451070D01*
X52427062Y-25598370D01*
X52424093Y-25603771D01*
X52424092Y-25603772D01*
X52417801Y-25615215D01*
X52334427Y-25766871D01*
X52276286Y-25950156D01*
X52275600Y-25956273D01*
X52275599Y-25956277D01*
X52255539Y-26135119D01*
X52254852Y-26141244D01*
X45615636Y-26141244D01*
X46079096Y-25964664D01*
X46084503Y-25962743D01*
X46660766Y-25772744D01*
X46888420Y-25697685D01*
X46893903Y-25696014D01*
X47709049Y-25467828D01*
X47714608Y-25466408D01*
X48539273Y-25275571D01*
X48544891Y-25274405D01*
X49377396Y-25121307D01*
X49383060Y-25120398D01*
X49875759Y-25052808D01*
X50221697Y-25005351D01*
X50227369Y-25004705D01*
X51070370Y-24927955D01*
X51076076Y-24927567D01*
X51548507Y-24906173D01*
X51921687Y-24889274D01*
X51927423Y-24889145D01*
X52352610Y-24889266D01*
G37*
%TD.AperFunction*%
%TD*%
%TA.AperFunction,NonConductor*%
G36*
X75813468Y-38447056D02*
G01*
X75863698Y-38497230D01*
X75878035Y-38540996D01*
X75879567Y-38552468D01*
X75888674Y-38620657D01*
X75889533Y-38629409D01*
X75896561Y-38740877D01*
X75880885Y-38810121D01*
X75830262Y-38859898D01*
X75760763Y-38874404D01*
X75694454Y-38849033D01*
X75677618Y-38833605D01*
X75607138Y-38756149D01*
X75555024Y-38698876D01*
X75523972Y-38635031D01*
X75532366Y-38564533D01*
X75577543Y-38509764D01*
X75603988Y-38496095D01*
X75638052Y-38483325D01*
X75653648Y-38474786D01*
X75677579Y-38456851D01*
X75744085Y-38432003D01*
X75813468Y-38447056D01*
G37*
%TD.AperFunction*%
%TA.AperFunction,NonConductor*%
G36*
X75881340Y-40565439D02*
G01*
X75916574Y-40627075D01*
X75920000Y-40656256D01*
X75920000Y-41317229D01*
X75899998Y-41385350D01*
X75846342Y-41431843D01*
X75776068Y-41441947D01*
X75711488Y-41412453D01*
X75693844Y-41392154D01*
X75693219Y-41392635D01*
X75690064Y-41388538D01*
X75687255Y-41384196D01*
X75654328Y-41348009D01*
X75532417Y-41214032D01*
X75528942Y-41210213D01*
X75524891Y-41207014D01*
X75524886Y-41207009D01*
X75373710Y-41087616D01*
X75332648Y-41029699D01*
X75329416Y-40958776D01*
X75365042Y-40897365D01*
X75378634Y-40886157D01*
X75472279Y-40819360D01*
X75476492Y-40816355D01*
X75480300Y-40812561D01*
X75558382Y-40734750D01*
X75643114Y-40650313D01*
X75691678Y-40582729D01*
X75747672Y-40539082D01*
X75818375Y-40532636D01*
X75881340Y-40565439D01*
G37*
%TD.AperFunction*%
%TA.AperFunction,NonConductor*%
G36*
X73518849Y-40735756D02*
G01*
X73562123Y-40759190D01*
X73726275Y-40895471D01*
X73765908Y-40954371D01*
X73767406Y-41025352D01*
X73730292Y-41085875D01*
X73721441Y-41093173D01*
X73601139Y-41183498D01*
X73601133Y-41183504D01*
X73596998Y-41186608D01*
X73434482Y-41356672D01*
X73431568Y-41360944D01*
X73431567Y-41360945D01*
X73324452Y-41517970D01*
X73301924Y-41550994D01*
X73299965Y-41555214D01*
X73249035Y-41604459D01*
X73179417Y-41618382D01*
X73113323Y-41592456D01*
X73087822Y-41565876D01*
X73079513Y-41554188D01*
X72758023Y-41101943D01*
X72734858Y-41034834D01*
X72751652Y-40965853D01*
X72803074Y-40916901D01*
X72826938Y-40907554D01*
X73288372Y-40779136D01*
X73447861Y-40734750D01*
X73518849Y-40735756D01*
G37*
%TD.AperFunction*%
%TA.AperFunction,NonConductor*%
G36*
X43338094Y-40703106D02*
G01*
X43394727Y-40745923D01*
X43419220Y-40812561D01*
X43419500Y-40820951D01*
X43419501Y-41769398D01*
X43399499Y-41837519D01*
X43345843Y-41884012D01*
X43275569Y-41894116D01*
X43210989Y-41864623D01*
X43193474Y-41846018D01*
X43132473Y-41766382D01*
X43106928Y-41700141D01*
X43106500Y-41689762D01*
X43106500Y-41387203D01*
X43106520Y-41384944D01*
X43107873Y-41309506D01*
X43107873Y-41309503D01*
X43107995Y-41302683D01*
X43098721Y-41256577D01*
X43096986Y-41245349D01*
X43096667Y-41242406D01*
X43091909Y-41198611D01*
X43089732Y-41192141D01*
X43082398Y-41170347D01*
X43078291Y-41155005D01*
X43073759Y-41132473D01*
X43072413Y-41125781D01*
X43053464Y-41082763D01*
X43049355Y-41072162D01*
X43036533Y-41034062D01*
X43036532Y-41034060D01*
X43034355Y-41027591D01*
X43018995Y-41002028D01*
X43011692Y-40987931D01*
X43002423Y-40966887D01*
X43002421Y-40966884D01*
X42999674Y-40960647D01*
X42971924Y-40922694D01*
X42965643Y-40913235D01*
X42955534Y-40896411D01*
X42937596Y-40827717D01*
X42959645Y-40760231D01*
X43014679Y-40715378D01*
X43063539Y-40705519D01*
X43223934Y-40705519D01*
X43236993Y-40704147D01*
X43267303Y-40697704D01*
X43338094Y-40703106D01*
G37*
%TD.AperFunction*%
%TA.AperFunction,NonConductor*%
G36*
X60087474Y-44421102D02*
G01*
X60110287Y-44439882D01*
X60141149Y-44472059D01*
X60173867Y-44535067D01*
X60167327Y-44605762D01*
X60123604Y-44661698D01*
X60056581Y-44685116D01*
X60001998Y-44675686D01*
X59972018Y-44663268D01*
X59962630Y-44660218D01*
X59918484Y-44649619D01*
X59856915Y-44614266D01*
X59824233Y-44551240D01*
X59830814Y-44480549D01*
X59874568Y-44424637D01*
X59947899Y-44401100D01*
X60019353Y-44401100D01*
X60087474Y-44421102D01*
G37*
%TD.AperFunction*%
%TA.AperFunction,NonConductor*%
G36*
X71371144Y-41521179D02*
G01*
X71405742Y-41554187D01*
X72588075Y-43217391D01*
X73222844Y-44110330D01*
X73246010Y-44177441D01*
X73234436Y-44236384D01*
X73202884Y-44304358D01*
X73140022Y-44531032D01*
X73139473Y-44536169D01*
X73116173Y-44754189D01*
X73115025Y-44764930D01*
X73115322Y-44770082D01*
X73115322Y-44770086D01*
X73119252Y-44838233D01*
X73128566Y-44999769D01*
X73129703Y-45004815D01*
X73129704Y-45004821D01*
X73175862Y-45209636D01*
X73171326Y-45280488D01*
X73129204Y-45337639D01*
X73062871Y-45362945D01*
X73053045Y-45363337D01*
X71369982Y-45364547D01*
X70758364Y-45364987D01*
X70690228Y-45345034D01*
X70643697Y-45291412D01*
X70633543Y-45221145D01*
X70662989Y-45156543D01*
X70680700Y-45139697D01*
X70732947Y-45098877D01*
X70829444Y-45023486D01*
X70837870Y-45013725D01*
X70951063Y-44882588D01*
X70951063Y-44882587D01*
X70955087Y-44877926D01*
X71050065Y-44710735D01*
X71110760Y-44528279D01*
X71134860Y-44337510D01*
X71135244Y-44310000D01*
X71116480Y-44118632D01*
X71114260Y-44111277D01*
X71093121Y-44041262D01*
X71060903Y-43934553D01*
X70970631Y-43764774D01*
X70961330Y-43753370D01*
X70852995Y-43620538D01*
X70852992Y-43620535D01*
X70849100Y-43615763D01*
X70843088Y-43610789D01*
X70775254Y-43554673D01*
X70700941Y-43493196D01*
X70531797Y-43401740D01*
X70348111Y-43344879D01*
X70341993Y-43344236D01*
X70341988Y-43344235D01*
X70163007Y-43325424D01*
X70163005Y-43325424D01*
X70156878Y-43324780D01*
X70038600Y-43335544D01*
X69971525Y-43341648D01*
X69971524Y-43341648D01*
X69965384Y-43342207D01*
X69780921Y-43396498D01*
X69610517Y-43485583D01*
X69460661Y-43606070D01*
X69337062Y-43753370D01*
X69334093Y-43758771D01*
X69334092Y-43758772D01*
X69327801Y-43770215D01*
X69244427Y-43921871D01*
X69186286Y-44105156D01*
X69185600Y-44111273D01*
X69185599Y-44111277D01*
X69178178Y-44177441D01*
X69164852Y-44296244D01*
X69165368Y-44302388D01*
X69179616Y-44472059D01*
X69180942Y-44487855D01*
X69191894Y-44526048D01*
X69231240Y-44663266D01*
X69233943Y-44672693D01*
X69240328Y-44685116D01*
X69319019Y-44838233D01*
X69319022Y-44838238D01*
X69321837Y-44843715D01*
X69441275Y-44994408D01*
X69518346Y-45060000D01*
X69520670Y-45061978D01*
X69559583Y-45121361D01*
X69560214Y-45192354D01*
X69522363Y-45252419D01*
X69458047Y-45282485D01*
X69392293Y-45274952D01*
X69069031Y-45145906D01*
X69066544Y-45144748D01*
X69064694Y-45143448D01*
X68987020Y-45113164D01*
X68986117Y-45112808D01*
X68976329Y-45108900D01*
X68957957Y-45101566D01*
X68957951Y-45101564D01*
X68954439Y-45100162D01*
X68952553Y-45099661D01*
X68950395Y-45098884D01*
X68910877Y-45083477D01*
X68880584Y-45079489D01*
X68864715Y-45076352D01*
X68842520Y-45070462D01*
X68842517Y-45070462D01*
X68835174Y-45068513D01*
X68827575Y-45068372D01*
X68827574Y-45068372D01*
X68817642Y-45068188D01*
X68796685Y-45067800D01*
X68790792Y-45067552D01*
X68789045Y-45067438D01*
X68784961Y-45066900D01*
X68749283Y-45066900D01*
X68746948Y-45066878D01*
X68745734Y-45066856D01*
X68670108Y-45065454D01*
X68665223Y-45066558D01*
X68658515Y-45066900D01*
X68556000Y-45066900D01*
X68487879Y-45046898D01*
X68441386Y-44993242D01*
X68430000Y-44940900D01*
X68430000Y-42106275D01*
X68431078Y-42089828D01*
X68433927Y-42068188D01*
X68435005Y-42060000D01*
X68415071Y-41908590D01*
X68356629Y-41767498D01*
X68308316Y-41704535D01*
X68282716Y-41638314D01*
X68296981Y-41568766D01*
X68346582Y-41517970D01*
X68408251Y-41501831D01*
X68652446Y-41501777D01*
X71303020Y-41501192D01*
X71371144Y-41521179D01*
G37*
%TD.AperFunction*%
%TA.AperFunction,NonConductor*%
G36*
X36731633Y-41456502D02*
G01*
X36778126Y-41510158D01*
X36788230Y-41580432D01*
X36759096Y-41644223D01*
X36756339Y-41646339D01*
X36663371Y-41767497D01*
X36604929Y-41908590D01*
X36584995Y-42060000D01*
X36586073Y-42068188D01*
X36588922Y-42089828D01*
X36590000Y-42106275D01*
X36590000Y-45013725D01*
X36588922Y-45030172D01*
X36584995Y-45060000D01*
X36585203Y-45061579D01*
X36566071Y-45126737D01*
X36512415Y-45173230D01*
X36475868Y-45183621D01*
X36348714Y-45199684D01*
X36269438Y-45209699D01*
X36269434Y-45209700D01*
X36265506Y-45210196D01*
X36153633Y-45238920D01*
X35954847Y-45289959D01*
X35954839Y-45289962D01*
X35951005Y-45290946D01*
X35947325Y-45292403D01*
X35947322Y-45292404D01*
X35840922Y-45334531D01*
X35649104Y-45410477D01*
X35645645Y-45412378D01*
X35645642Y-45412380D01*
X35374209Y-45561602D01*
X35364565Y-45566904D01*
X35101875Y-45757759D01*
X34865177Y-45980034D01*
X34658204Y-46230221D01*
X34484220Y-46504377D01*
X34482536Y-46507956D01*
X34482532Y-46507963D01*
X34347657Y-46794586D01*
X34345968Y-46798176D01*
X34344742Y-46801948D01*
X34344742Y-46801949D01*
X34322187Y-46871367D01*
X34245629Y-47106987D01*
X34244885Y-47110886D01*
X34244885Y-47110887D01*
X34229145Y-47193401D01*
X34196733Y-47256567D01*
X34135316Y-47292182D01*
X34064394Y-47288940D01*
X34006483Y-47247868D01*
X33982013Y-47195431D01*
X33939962Y-46993108D01*
X33938923Y-46987466D01*
X33848030Y-46422035D01*
X33804577Y-46151718D01*
X33803797Y-46146039D01*
X33798533Y-46100000D01*
X33707638Y-45305047D01*
X33707117Y-45299347D01*
X33706543Y-45290946D01*
X33668919Y-44741015D01*
X33649341Y-44454846D01*
X33649080Y-44449115D01*
X33630702Y-43642111D01*
X33631747Y-43622796D01*
X33633670Y-43608189D01*
X33633670Y-43608188D01*
X33634748Y-43600000D01*
X33631747Y-43577204D01*
X33630702Y-43557889D01*
X33644769Y-42940176D01*
X33666316Y-42872529D01*
X33721017Y-42827269D01*
X33791502Y-42818768D01*
X33855395Y-42849724D01*
X33892409Y-42910308D01*
X33896294Y-42932502D01*
X33899761Y-42973786D01*
X33900942Y-42987855D01*
X33912533Y-43028279D01*
X33952093Y-43166240D01*
X33953943Y-43172693D01*
X33961329Y-43187064D01*
X34039019Y-43338233D01*
X34039022Y-43338238D01*
X34041837Y-43343715D01*
X34161275Y-43494408D01*
X34165968Y-43498402D01*
X34165969Y-43498403D01*
X34294700Y-43607961D01*
X34307708Y-43619032D01*
X34313086Y-43622038D01*
X34313088Y-43622039D01*
X34331645Y-43632410D01*
X34475559Y-43712841D01*
X34481418Y-43714745D01*
X34481421Y-43714746D01*
X34515396Y-43725785D01*
X34658433Y-43772261D01*
X34664543Y-43772990D01*
X34664545Y-43772990D01*
X34725650Y-43780276D01*
X34849367Y-43795028D01*
X34855502Y-43794556D01*
X34855504Y-43794556D01*
X35034944Y-43780749D01*
X35034948Y-43780748D01*
X35041086Y-43780276D01*
X35154353Y-43748651D01*
X35220344Y-43730226D01*
X35220348Y-43730225D01*
X35226288Y-43728566D01*
X35231792Y-43725786D01*
X35231794Y-43725785D01*
X35392417Y-43644649D01*
X35392419Y-43644648D01*
X35397920Y-43641869D01*
X35549444Y-43523486D01*
X35574544Y-43494408D01*
X35671063Y-43382588D01*
X35671063Y-43382587D01*
X35675087Y-43377926D01*
X35770065Y-43210735D01*
X35830760Y-43028279D01*
X35854860Y-42837510D01*
X35855244Y-42810000D01*
X35836480Y-42618632D01*
X35832412Y-42605156D01*
X35797003Y-42487878D01*
X35780903Y-42434553D01*
X35715248Y-42311072D01*
X35700500Y-42251919D01*
X35700500Y-41726195D01*
X35720502Y-41658074D01*
X35737405Y-41637099D01*
X35901101Y-41473404D01*
X35963413Y-41439379D01*
X35990196Y-41436500D01*
X36663512Y-41436500D01*
X36731633Y-41456502D01*
G37*
%TD.AperFunction*%
%TA.AperFunction,NonConductor*%
G36*
X75868010Y-48203990D02*
G01*
X75903244Y-48265627D01*
X75906420Y-48302735D01*
X75889533Y-48570591D01*
X75888674Y-48579343D01*
X75871542Y-48707616D01*
X75850354Y-48866258D01*
X75849260Y-48874446D01*
X75820416Y-48939320D01*
X75761078Y-48978300D01*
X75690084Y-48979012D01*
X75631176Y-48942566D01*
X75532418Y-48834033D01*
X75528942Y-48830213D01*
X75524891Y-48827014D01*
X75524886Y-48827009D01*
X75373710Y-48707616D01*
X75332648Y-48649699D01*
X75329416Y-48578776D01*
X75365042Y-48517365D01*
X75378634Y-48506157D01*
X75472279Y-48439360D01*
X75476492Y-48436355D01*
X75503894Y-48409049D01*
X75639458Y-48273956D01*
X75643114Y-48270313D01*
X75646124Y-48266125D01*
X75646131Y-48266116D01*
X75678348Y-48221281D01*
X75734342Y-48177633D01*
X75805046Y-48171187D01*
X75868010Y-48203990D01*
G37*
%TD.AperFunction*%
M02*
