M48
; DRILL file {KiCad (6.0.2)} date Tue Apr 26 09:31:43 2022
; FORMAT={-:-/ absolute / metric / decimal}
; #@! TF.CreationDate,2022-04-26T09:31:43+10:00
; #@! TF.GenerationSoftware,Kicad,Pcbnew,(6.0.2)
; #@! TF.FileFunction,Plated,1,2,PTH
FMAT,2
METRIC
; #@! TA.AperFunction,Plated,PTH,ViaDrill
T1C0.305
; #@! TA.AperFunction,Plated,PTH,ComponentDrill
T2C0.400
; #@! TA.AperFunction,Plated,PTH,ComponentDrill
T3C1.000
; #@! TA.AperFunction,Plated,PTH,ComponentDrill
T4C1.500
; #@! TA.AperFunction,Plated,PTH,ComponentDrill
T5C3.200
%
G90
G05
T1
X57.118Y-45.991
X57.123Y-41.857
T2
X34.639Y-42.808
X36.575Y-51.958
X37.297Y-34.05
X42.55Y-58.289
X42.639Y-44.308
X43.475Y-39.35
X44.099Y-27.822
X44.253Y-49.258
X46.8Y-35.5
X47.85Y-52.111
X51.572Y-33.9
X51.572Y-61.39
X53.072Y-25.9
X53.072Y-53.39
X56.55Y-34.739
X58.03Y-51.661
X60.536Y-37.85
X60.73Y-59.339
X61.375Y-47.95
X61.85Y-28.561
X62.25Y-43.0
X67.553Y-53.25
X68.214Y-35.15
X70.25Y-44.5
T3
X45.0Y-41.1
X45.0Y-43.6
X45.0Y-46.1
X59.5Y-41.1
X59.5Y-46.1
X72.067Y-34.482
X72.067Y-52.59
X74.55Y-37.18
X74.55Y-39.72
X74.55Y-42.26
X74.55Y-44.8
X74.55Y-47.34
X74.55Y-49.88
T5
X36.75Y-47.75
X64.0Y-32.0
X64.0Y-55.0
T4
X51.85Y-38.0G85X53.15Y-38.0
G05
X51.85Y-49.2G85X53.15Y-49.2
G05
T0
M30
