M48
; DRILL file {KiCad (6.0.2)} date Tue Apr 19 05:13:54 2022
; FORMAT={-:-/ absolute / metric / decimal}
; #@! TF.CreationDate,2022-04-19T05:13:54+10:00
; #@! TF.GenerationSoftware,Kicad,Pcbnew,(6.0.2)
; #@! TF.FileFunction,Plated,1,2,PTH
FMAT,2
METRIC
; #@! TA.AperFunction,Plated,PTH,ComponentDrill
T1C0.400
; #@! TA.AperFunction,Plated,PTH,ComponentDrill
T2C1.000
; #@! TA.AperFunction,Plated,PTH,ComponentDrill
T3C1.500
; #@! TA.AperFunction,Plated,PTH,ComponentDrill
T4C3.200
%
G90
G05
T1
X34.87Y-42.81
X36.561Y-51.75
X36.957Y-34.498
X42.55Y-58.289
X42.87Y-44.31
X43.135Y-39.798
X43.45Y-28.561
X44.239Y-49.05
X46.15Y-36.239
X47.85Y-52.111
X51.74Y-34.155
X51.74Y-61.26
X53.24Y-26.155
X53.24Y-53.26
X56.55Y-35.089
X58.05Y-51.361
X60.75Y-59.039
X60.761Y-37.55
X61.511Y-48.15
X61.85Y-28.911
X62.15Y-42.81
X67.689Y-53.45
X68.439Y-34.85
X70.15Y-44.31
T2
X45.0Y-41.1
X45.0Y-43.6
X45.0Y-46.1
X59.5Y-41.1
X59.5Y-46.1
X72.381Y-34.42
X74.55Y-37.18
X74.55Y-39.72
X74.55Y-42.26
X74.55Y-44.8
X74.55Y-47.34
X74.55Y-49.88
T4
X36.75Y-47.75
X64.0Y-32.0
X64.0Y-55.0
T3
X51.85Y-38.0G85X53.15Y-38.0
G05
X51.85Y-49.2G85X53.15Y-49.2
G05
T0
M30
