%TF.GenerationSoftware,KiCad,Pcbnew,(6.0.2)*%
%TF.CreationDate,2022-04-21T21:08:16+10:00*%
%TF.ProjectId,adapter,61646170-7465-4722-9e6b-696361645f70,1.2*%
%TF.SameCoordinates,Original*%
%TF.FileFunction,Legend,Bot*%
%TF.FilePolarity,Positive*%
%FSLAX46Y46*%
G04 Gerber Fmt 4.6, Leading zero omitted, Abs format (unit mm)*
G04 Created by KiCad (PCBNEW (6.0.2)) date 2022-04-21 21:08:16*
%MOMM*%
%LPD*%
G01*
G04 APERTURE LIST*
G04 Aperture macros list*
%AMRoundRect*
0 Rectangle with rounded corners*
0 $1 Rounding radius*
0 $2 $3 $4 $5 $6 $7 $8 $9 X,Y pos of 4 corners*
0 Add a 4 corners polygon primitive as box body*
4,1,4,$2,$3,$4,$5,$6,$7,$8,$9,$2,$3,0*
0 Add four circle primitives for the rounded corners*
1,1,$1+$1,$2,$3*
1,1,$1+$1,$4,$5*
1,1,$1+$1,$6,$7*
1,1,$1+$1,$8,$9*
0 Add four rect primitives between the rounded corners*
20,1,$1+$1,$2,$3,$4,$5,0*
20,1,$1+$1,$4,$5,$6,$7,0*
20,1,$1+$1,$6,$7,$8,$9,0*
20,1,$1+$1,$8,$9,$2,$3,0*%
%AMRotRect*
0 Rectangle, with rotation*
0 The origin of the aperture is its center*
0 $1 length*
0 $2 width*
0 $3 Rotation angle, in degrees counterclockwise*
0 Add horizontal line*
21,1,$1,$2,0,0,$3*%
%AMFreePoly0*
4,1,22,0.550000,-0.750000,0.000000,-0.750000,0.000000,-0.745033,-0.079941,-0.743568,-0.215256,-0.701293,-0.333266,-0.622738,-0.424486,-0.514219,-0.481581,-0.384460,-0.499164,-0.250000,-0.500000,-0.250000,-0.500000,0.250000,-0.499164,0.250000,-0.499963,0.256109,-0.478152,0.396186,-0.417904,0.524511,-0.324060,0.630769,-0.204165,0.706417,-0.067858,0.745374,0.000000,0.744960,0.000000,0.750000,
0.550000,0.750000,0.550000,-0.750000,0.550000,-0.750000,$1*%
%AMFreePoly1*
4,1,20,0.000000,0.744960,0.073905,0.744508,0.209726,0.703889,0.328688,0.626782,0.421226,0.519385,0.479903,0.390333,0.500000,0.250000,0.500000,-0.250000,0.499851,-0.262216,0.476331,-0.402017,0.414519,-0.529596,0.319384,-0.634700,0.198574,-0.708877,0.061801,-0.746166,0.000000,-0.745033,0.000000,-0.750000,-0.550000,-0.750000,-0.550000,0.750000,0.000000,0.750000,0.000000,0.744960,
0.000000,0.744960,$1*%
G04 Aperture macros list end*
%ADD10C,0.100000*%
%ADD11C,0.120000*%
%ADD12R,2.000000X2.000000*%
%ADD13C,2.000000*%
%ADD14R,3.200000X2.000000*%
%ADD15O,1.700000X1.700000*%
%ADD16R,1.700000X1.700000*%
%ADD17C,4.000000*%
%ADD18RotRect,2.400000X0.820000X210.000000*%
%ADD19C,0.800000*%
%ADD20FreePoly0,315.000000*%
%ADD21RotRect,1.000000X1.500000X315.000000*%
%ADD22FreePoly1,315.000000*%
%ADD23RotRect,2.400000X0.820000X30.000000*%
%ADD24RotRect,2.400000X0.820000X240.000000*%
%ADD25RoundRect,0.250000X-0.650000X0.412500X-0.650000X-0.412500X0.650000X-0.412500X0.650000X0.412500X0*%
%ADD26RotRect,2.400000X0.820000X150.000000*%
%ADD27RotRect,2.400000X0.820000X120.000000*%
%ADD28RotRect,2.400000X0.820000X60.000000*%
%ADD29R,2.400000X0.820000*%
%ADD30RoundRect,0.250001X0.462499X0.624999X-0.462499X0.624999X-0.462499X-0.624999X0.462499X-0.624999X0*%
%ADD31R,0.820000X2.400000*%
%ADD32RotRect,2.400000X0.820000X300.000000*%
%ADD33FreePoly0,45.000000*%
%ADD34RotRect,1.000000X1.500000X45.000000*%
%ADD35FreePoly1,45.000000*%
%ADD36RoundRect,0.250000X-0.625000X0.400000X-0.625000X-0.400000X0.625000X-0.400000X0.625000X0.400000X0*%
%ADD37RotRect,2.400000X0.820000X330.000000*%
G04 APERTURE END LIST*
D10*
X68835883Y-32494924D02*
X69085883Y-32137781D01*
X69264455Y-32494924D02*
X69264455Y-31744924D01*
X68978740Y-31744924D01*
X68907312Y-31780639D01*
X68871598Y-31816353D01*
X68835883Y-31887781D01*
X68835883Y-31994924D01*
X68871598Y-32066353D01*
X68907312Y-32102067D01*
X68978740Y-32137781D01*
X69264455Y-32137781D01*
X68371598Y-31744924D02*
X68228740Y-31744924D01*
X68157312Y-31780639D01*
X68085883Y-31852067D01*
X68050169Y-31994924D01*
X68050169Y-32244924D01*
X68085883Y-32387781D01*
X68157312Y-32459210D01*
X68228740Y-32494924D01*
X68371598Y-32494924D01*
X68443026Y-32459210D01*
X68514455Y-32387781D01*
X68550169Y-32244924D01*
X68550169Y-31994924D01*
X68514455Y-31852067D01*
X68443026Y-31780639D01*
X68371598Y-31744924D01*
X67800169Y-31744924D02*
X67621598Y-32494924D01*
X67478740Y-31959210D01*
X67335883Y-32494924D01*
X67157312Y-31744924D01*
X73214771Y-42384718D02*
X72684441Y-41854388D01*
X72558172Y-41980657D01*
X72507664Y-42081672D01*
X72507664Y-42182687D01*
X72532918Y-42258449D01*
X72608679Y-42384718D01*
X72684441Y-42460479D01*
X72810710Y-42536241D01*
X72886471Y-42561494D01*
X72987486Y-42561494D01*
X73088502Y-42510987D01*
X73214771Y-42384718D01*
X72684441Y-42915048D02*
X72154111Y-42384718D01*
X72431903Y-43167586D02*
X71901572Y-42637256D01*
X72128857Y-43470632D01*
X71598527Y-42940302D01*
X72431902Y-49638538D02*
X72457156Y-49562777D01*
X72532918Y-49487016D01*
X72633933Y-49436508D01*
X72734948Y-49436508D01*
X72810710Y-49461762D01*
X72936979Y-49537523D01*
X73012740Y-49613285D01*
X73088502Y-49739554D01*
X73113755Y-49815315D01*
X73113755Y-49916330D01*
X73063248Y-50017346D01*
X73012740Y-50067853D01*
X72911725Y-50118361D01*
X72861217Y-50118361D01*
X72684441Y-49941584D01*
X72785456Y-49840569D01*
X72684441Y-50396153D02*
X72154111Y-49865823D01*
X72381395Y-50699199D01*
X71851065Y-50168869D01*
X72128857Y-50951737D02*
X71598527Y-50421407D01*
X71472258Y-50547676D01*
X71421750Y-50648691D01*
X71421750Y-50749706D01*
X71447004Y-50825468D01*
X71522765Y-50951737D01*
X71598527Y-51027498D01*
X71724796Y-51103260D01*
X71800557Y-51128513D01*
X71901572Y-51128513D01*
X72002588Y-51078006D01*
X72128857Y-50951737D01*
X72760202Y-39667942D02*
X72709694Y-39768957D01*
X72709694Y-39819465D01*
X72734948Y-39895226D01*
X72810709Y-39970988D01*
X72886471Y-39996242D01*
X72936978Y-39996242D01*
X73012740Y-39970988D01*
X73214770Y-39768957D01*
X72684440Y-39238627D01*
X72507663Y-39415404D01*
X72482410Y-39491165D01*
X72482410Y-39541673D01*
X72507663Y-39617434D01*
X72558171Y-39667942D01*
X72633932Y-39693196D01*
X72684440Y-39693196D01*
X72760202Y-39667942D01*
X72936978Y-39491165D01*
X72229871Y-39693196D02*
X71926826Y-39996242D01*
X72608679Y-40375049D02*
X72078349Y-39844719D01*
X72280379Y-40703348D02*
X71750049Y-40173018D01*
X71977333Y-41006394D01*
X71447003Y-40476064D01*
X72911725Y-45379286D02*
X72835964Y-44949972D01*
X73214771Y-45076241D02*
X72684441Y-44545911D01*
X72482410Y-44747941D01*
X72457156Y-44823702D01*
X72457156Y-44874210D01*
X72482410Y-44949972D01*
X72558172Y-45025733D01*
X72633933Y-45050987D01*
X72684441Y-45050987D01*
X72760202Y-45025733D01*
X72962233Y-44823702D01*
X72229872Y-45101494D02*
X72179364Y-45101494D01*
X72103603Y-45126748D01*
X71977334Y-45253017D01*
X71952080Y-45328779D01*
X71952080Y-45379286D01*
X71977334Y-45455048D01*
X72027842Y-45505555D01*
X72128857Y-45556063D01*
X72734948Y-45556063D01*
X72406649Y-45884363D01*
X71087371Y-52602207D02*
X71087371Y-51852207D01*
X70908799Y-51852207D01*
X70801656Y-51887922D01*
X70730228Y-51959350D01*
X70694514Y-52030779D01*
X70658799Y-52173636D01*
X70658799Y-52280779D01*
X70694514Y-52423636D01*
X70730228Y-52495064D01*
X70801656Y-52566493D01*
X70908799Y-52602207D01*
X71087371Y-52602207D01*
X70337371Y-52602207D02*
X70337371Y-51852207D01*
X69980228Y-52602207D02*
X69980228Y-51852207D01*
X69551656Y-52602207D01*
X69551656Y-51852207D01*
X70783799Y-35325578D02*
X70819514Y-35361292D01*
X70926656Y-35397006D01*
X70998085Y-35397006D01*
X71105228Y-35361292D01*
X71176656Y-35289863D01*
X71212371Y-35218435D01*
X71248085Y-35075578D01*
X71248085Y-34968435D01*
X71212371Y-34825578D01*
X71176656Y-34754149D01*
X71105228Y-34682721D01*
X70998085Y-34647006D01*
X70926656Y-34647006D01*
X70819514Y-34682721D01*
X70783799Y-34718435D01*
X70319514Y-34647006D02*
X70176656Y-34647006D01*
X70105228Y-34682721D01*
X70033799Y-34754149D01*
X69998085Y-34897006D01*
X69998085Y-35147006D01*
X70033799Y-35289863D01*
X70105228Y-35361292D01*
X70176656Y-35397006D01*
X70319514Y-35397006D01*
X70390942Y-35361292D01*
X70462371Y-35289863D01*
X70498085Y-35147006D01*
X70498085Y-34897006D01*
X70462371Y-34754149D01*
X70390942Y-34682721D01*
X70319514Y-34647006D01*
X69319514Y-35397006D02*
X69676656Y-35397006D01*
X69676656Y-34647006D01*
X68359285Y-47406714D02*
X68359285Y-47871000D01*
X68645000Y-47621000D01*
X68645000Y-47728142D01*
X68680714Y-47799571D01*
X68716428Y-47835285D01*
X68787857Y-47871000D01*
X68966428Y-47871000D01*
X69037857Y-47835285D01*
X69073571Y-47799571D01*
X69109285Y-47728142D01*
X69109285Y-47513857D01*
X69073571Y-47442428D01*
X69037857Y-47406714D01*
X68359285Y-48121000D02*
X68359285Y-48585285D01*
X68645000Y-48335285D01*
X68645000Y-48442428D01*
X68680714Y-48513857D01*
X68716428Y-48549571D01*
X68787857Y-48585285D01*
X68966428Y-48585285D01*
X69037857Y-48549571D01*
X69073571Y-48513857D01*
X69109285Y-48442428D01*
X69109285Y-48228142D01*
X69073571Y-48156714D01*
X69037857Y-48121000D01*
X68359285Y-49049571D02*
X68359285Y-49121000D01*
X68395000Y-49192428D01*
X68430714Y-49228142D01*
X68502142Y-49263857D01*
X68645000Y-49299571D01*
X68823571Y-49299571D01*
X68966428Y-49263857D01*
X69037857Y-49228142D01*
X69073571Y-49192428D01*
X69109285Y-49121000D01*
X69109285Y-49049571D01*
X69073571Y-48978142D01*
X69037857Y-48942428D01*
X68966428Y-48906714D01*
X68823571Y-48871000D01*
X68645000Y-48871000D01*
X68502142Y-48906714D01*
X68430714Y-48942428D01*
X68395000Y-48978142D01*
X68359285Y-49049571D01*
X69109285Y-38484571D02*
X69109285Y-38056000D01*
X69109285Y-38270285D02*
X68359285Y-38270285D01*
X68466428Y-38198857D01*
X68537857Y-38127428D01*
X68573571Y-38056000D01*
X68609285Y-39127428D02*
X69109285Y-39127428D01*
X68609285Y-38806000D02*
X69002142Y-38806000D01*
X69073571Y-38841714D01*
X69109285Y-38913142D01*
X69109285Y-39020285D01*
X69073571Y-39091714D01*
X69037857Y-39127428D01*
X68716428Y-39734571D02*
X68716428Y-39484571D01*
X69109285Y-39484571D02*
X68359285Y-39484571D01*
X68359285Y-39841714D01*
X72760201Y-36610239D02*
X73113755Y-37317346D01*
X72406648Y-36963792D01*
X72406648Y-37923437D02*
X72457156Y-37923437D01*
X72558171Y-37872930D01*
X72608679Y-37822422D01*
X72659186Y-37721407D01*
X72659186Y-37620391D01*
X72633932Y-37544630D01*
X72558171Y-37418361D01*
X72482409Y-37342599D01*
X72356140Y-37266838D01*
X72280379Y-37241584D01*
X72179364Y-37241584D01*
X72078348Y-37292092D01*
X72027841Y-37342599D01*
X71977333Y-37443615D01*
X71977333Y-37494122D01*
X71876318Y-38453767D02*
X71926826Y-38453767D01*
X72027841Y-38403260D01*
X72078348Y-38352752D01*
X72128856Y-38251737D01*
X72128856Y-38150721D01*
X72103602Y-38074960D01*
X72027841Y-37948691D01*
X71952079Y-37872930D01*
X71825810Y-37797168D01*
X71750049Y-37771914D01*
X71649034Y-37771914D01*
X71548018Y-37822422D01*
X71497511Y-37872930D01*
X71447003Y-37973945D01*
X71447003Y-38024452D01*
X68954335Y-55148932D02*
X68954335Y-54398932D01*
X68775764Y-54398932D01*
X68668621Y-54434647D01*
X68597192Y-54506075D01*
X68561478Y-54577504D01*
X68525764Y-54720361D01*
X68525764Y-54827504D01*
X68561478Y-54970361D01*
X68597192Y-55041789D01*
X68668621Y-55113218D01*
X68775764Y-55148932D01*
X68954335Y-55148932D01*
X68061478Y-54398932D02*
X67918621Y-54398932D01*
X67847192Y-54434647D01*
X67775764Y-54506075D01*
X67740050Y-54648932D01*
X67740050Y-54898932D01*
X67775764Y-55041789D01*
X67847192Y-55113218D01*
X67918621Y-55148932D01*
X68061478Y-55148932D01*
X68132907Y-55113218D01*
X68204335Y-55041789D01*
X68240050Y-54898932D01*
X68240050Y-54648932D01*
X68204335Y-54506075D01*
X68132907Y-54434647D01*
X68061478Y-54398932D01*
X72911725Y-47919286D02*
X72835964Y-47489972D01*
X73214771Y-47616241D02*
X72684441Y-47085911D01*
X72482410Y-47287941D01*
X72457156Y-47363702D01*
X72457156Y-47414210D01*
X72482410Y-47489972D01*
X72558172Y-47565733D01*
X72633933Y-47590987D01*
X72684441Y-47590987D01*
X72760202Y-47565733D01*
X72962233Y-47363702D01*
X72406649Y-48424363D02*
X72709695Y-48121317D01*
X72558172Y-48272840D02*
X72027842Y-47742510D01*
X72154111Y-47767763D01*
X72255126Y-47767763D01*
X72330887Y-47742510D01*
%TO.C,C1*%
X70556857Y-38729000D02*
X70592571Y-38693285D01*
X70628285Y-38586142D01*
X70628285Y-38514714D01*
X70592571Y-38407571D01*
X70521142Y-38336142D01*
X70449714Y-38300428D01*
X70306857Y-38264714D01*
X70199714Y-38264714D01*
X70056857Y-38300428D01*
X69985428Y-38336142D01*
X69914000Y-38407571D01*
X69878285Y-38514714D01*
X69878285Y-38586142D01*
X69914000Y-38693285D01*
X69949714Y-38729000D01*
X70628285Y-39443285D02*
X70628285Y-39014714D01*
X70628285Y-39229000D02*
X69878285Y-39229000D01*
X69985428Y-39157571D01*
X70056857Y-39086142D01*
X70092571Y-39014714D01*
%TO.C,R1*%
X70628285Y-48172000D02*
X70271142Y-47922000D01*
X70628285Y-47743428D02*
X69878285Y-47743428D01*
X69878285Y-48029142D01*
X69914000Y-48100571D01*
X69949714Y-48136285D01*
X70021142Y-48172000D01*
X70128285Y-48172000D01*
X70199714Y-48136285D01*
X70235428Y-48100571D01*
X70271142Y-48029142D01*
X70271142Y-47743428D01*
X70628285Y-48886285D02*
X70628285Y-48457714D01*
X70628285Y-48672000D02*
X69878285Y-48672000D01*
X69985428Y-48600571D01*
X70056857Y-48529142D01*
X70092571Y-48457714D01*
%TO.C,D12*%
X36752174Y-54165532D02*
X37055283Y-53990532D01*
X37055283Y-53990532D02*
X36530283Y-53081205D01*
X36530283Y-53081205D02*
X36227174Y-53256205D01*
X36227174Y-53256205D02*
X36752174Y-54165532D01*
G36*
X37055283Y-53990532D02*
G01*
X36752174Y-54165532D01*
X36227174Y-53256205D01*
X36530283Y-53081205D01*
X37055283Y-53990532D01*
G37*
X37055283Y-53990532D02*
X36752174Y-54165532D01*
X36227174Y-53256205D01*
X36530283Y-53081205D01*
X37055283Y-53990532D01*
D11*
%TO.C,JP1*%
X57130326Y-46797618D02*
X57130326Y-46373354D01*
X57130326Y-46373354D02*
X57554590Y-46797618D01*
X57130326Y-46797618D02*
X57554590Y-46797618D01*
D10*
%TO.C,D3*%
X68036826Y-32942468D02*
X67733717Y-33117468D01*
X67733717Y-33117468D02*
X68258717Y-34026795D01*
X68258717Y-34026795D02*
X68561826Y-33851795D01*
X68561826Y-33851795D02*
X68036826Y-32942468D01*
G36*
X68561826Y-33851795D02*
G01*
X68258717Y-34026795D01*
X67733717Y-33117468D01*
X68036826Y-32942468D01*
X68561826Y-33851795D01*
G37*
X68561826Y-33851795D02*
X68258717Y-34026795D01*
X67733717Y-33117468D01*
X68036826Y-32942468D01*
X68561826Y-33851795D01*
%TO.C,D7*%
X43807532Y-60111826D02*
X43982532Y-59808717D01*
X43982532Y-59808717D02*
X43073205Y-59283717D01*
X43073205Y-59283717D02*
X42898205Y-59586826D01*
X42898205Y-59586826D02*
X43807532Y-60111826D01*
G36*
X43982532Y-59808717D02*
G01*
X43807532Y-60111826D01*
X42898205Y-59586826D01*
X43073205Y-59283717D01*
X43982532Y-59808717D01*
G37*
X43982532Y-59808717D02*
X43807532Y-60111826D01*
X42898205Y-59586826D01*
X43073205Y-59283717D01*
X43982532Y-59808717D01*
%TO.C,D6*%
X35474536Y-35307532D02*
X35777645Y-35482532D01*
X35777645Y-35482532D02*
X36302645Y-34573205D01*
X36302645Y-34573205D02*
X35999536Y-34398205D01*
X35999536Y-34398205D02*
X35474536Y-35307532D01*
G36*
X36302645Y-34573205D02*
G01*
X35777645Y-35482532D01*
X35474536Y-35307532D01*
X35999536Y-34398205D01*
X36302645Y-34573205D01*
G37*
X36302645Y-34573205D02*
X35777645Y-35482532D01*
X35474536Y-35307532D01*
X35999536Y-34398205D01*
X36302645Y-34573205D01*
%TO.C,D4*%
X41891715Y-27999174D02*
X42066715Y-28302283D01*
X42066715Y-28302283D02*
X42976042Y-27777283D01*
X42976042Y-27777283D02*
X42801042Y-27474174D01*
X42801042Y-27474174D02*
X41891715Y-27999174D01*
G36*
X42976042Y-27777283D02*
G01*
X42066715Y-28302283D01*
X41891715Y-27999174D01*
X42801042Y-27474174D01*
X42976042Y-27777283D01*
G37*
X42976042Y-27777283D02*
X42066715Y-28302283D01*
X41891715Y-27999174D01*
X42801042Y-27474174D01*
X42976042Y-27777283D01*
%TO.C,D5*%
X60592468Y-26738174D02*
X60417468Y-27041283D01*
X60417468Y-27041283D02*
X61326795Y-27566283D01*
X61326795Y-27566283D02*
X61501795Y-27263174D01*
X61501795Y-27263174D02*
X60592468Y-26738174D01*
G36*
X61501795Y-27263174D02*
G01*
X61326795Y-27566283D01*
X60417468Y-27041283D01*
X60592468Y-26738174D01*
X61501795Y-27263174D01*
G37*
X61501795Y-27263174D02*
X61326795Y-27566283D01*
X60417468Y-27041283D01*
X60592468Y-26738174D01*
X61501795Y-27263174D01*
%TO.C,D10*%
X33689000Y-44808000D02*
X34039000Y-44808000D01*
X34039000Y-44808000D02*
X34039000Y-43758000D01*
X34039000Y-43758000D02*
X33689000Y-43758000D01*
X33689000Y-43758000D02*
X33689000Y-44808000D01*
G36*
X34039000Y-44808000D02*
G01*
X33689000Y-44808000D01*
X33689000Y-43758000D01*
X34039000Y-43758000D01*
X34039000Y-44808000D01*
G37*
X34039000Y-44808000D02*
X33689000Y-44808000D01*
X33689000Y-43758000D01*
X34039000Y-43758000D01*
X34039000Y-44808000D01*
D11*
%TO.C,Dcol1*%
X64022500Y-45422000D02*
X68082500Y-45422000D01*
X68082500Y-47692000D02*
X64022500Y-47692000D01*
X65190700Y-45769600D02*
X65190700Y-47344400D01*
X68082500Y-45422000D02*
X68082500Y-47692000D01*
X66105100Y-46557000D02*
X65190700Y-45769600D01*
X66181300Y-47344400D02*
X66181300Y-46531600D01*
X66181300Y-46582400D02*
X66181300Y-45769600D01*
X65190700Y-47344400D02*
X66105100Y-46557000D01*
D10*
%TO.C,D2*%
X51072000Y-24950000D02*
X51072000Y-25300000D01*
X51072000Y-25300000D02*
X52122000Y-25300000D01*
X52122000Y-25300000D02*
X52122000Y-24950000D01*
X52122000Y-24950000D02*
X51072000Y-24950000D01*
G36*
X52122000Y-25300000D02*
G01*
X51072000Y-25300000D01*
X51072000Y-24950000D01*
X52122000Y-24950000D01*
X52122000Y-25300000D01*
G37*
X52122000Y-25300000D02*
X51072000Y-25300000D01*
X51072000Y-24950000D01*
X52122000Y-24950000D01*
X52122000Y-25300000D01*
%TO.C,D9*%
X63182532Y-59011826D02*
X63007532Y-58708717D01*
X63007532Y-58708717D02*
X62098205Y-59233717D01*
X62098205Y-59233717D02*
X62273205Y-59536826D01*
X62273205Y-59536826D02*
X63182532Y-59011826D01*
G36*
X63182532Y-59011826D02*
G01*
X62273205Y-59536826D01*
X62098205Y-59233717D01*
X63007532Y-58708717D01*
X63182532Y-59011826D01*
G37*
X63182532Y-59011826D02*
X62273205Y-59536826D01*
X62098205Y-59233717D01*
X63007532Y-58708717D01*
X63182532Y-59011826D01*
%TO.C,G\u002A\u002A\u002A*%
G36*
X49761741Y-45063783D02*
G01*
X49788724Y-45095214D01*
X49830054Y-45193898D01*
X49819090Y-45287404D01*
X49761545Y-45357142D01*
X49663138Y-45384519D01*
X49612919Y-45375870D01*
X49529115Y-45326055D01*
X49471098Y-45250913D01*
X49459903Y-45172400D01*
X49499352Y-45087828D01*
X49577881Y-45023826D01*
X49671447Y-45013615D01*
X49761741Y-45063783D01*
G37*
G36*
X48179618Y-45685807D02*
G01*
X48157781Y-45624751D01*
X48028919Y-45264456D01*
X48011214Y-45194621D01*
X49095113Y-45194621D01*
X49133125Y-45386668D01*
X49145352Y-45419191D01*
X49242577Y-45574228D01*
X49378971Y-45682584D01*
X49540535Y-45741153D01*
X49713273Y-45746831D01*
X49883188Y-45696508D01*
X50036279Y-45587082D01*
X50070492Y-45549504D01*
X50163450Y-45386980D01*
X50197471Y-45205525D01*
X50171439Y-45022220D01*
X50084236Y-44854144D01*
X50031254Y-44797045D01*
X49884624Y-44703086D01*
X49711648Y-44652809D01*
X49537588Y-44655399D01*
X49498584Y-44664508D01*
X49382334Y-44717376D01*
X49263232Y-44817813D01*
X49217833Y-44867019D01*
X49122722Y-45024147D01*
X49095113Y-45194621D01*
X48011214Y-45194621D01*
X47918837Y-44830253D01*
X47902301Y-44739319D01*
X47865436Y-44443065D01*
X47858343Y-44332122D01*
X47844207Y-44111030D01*
X47839709Y-43803922D01*
X49373997Y-43803922D01*
X49380061Y-43975865D01*
X49428637Y-44140018D01*
X49513882Y-44268651D01*
X49589683Y-44326542D01*
X49744014Y-44389263D01*
X49916318Y-44411618D01*
X50078864Y-44387760D01*
X50131395Y-44368499D01*
X50238405Y-44317870D01*
X50309916Y-44268651D01*
X50367807Y-44192850D01*
X50430528Y-44038519D01*
X50452883Y-43866215D01*
X50429025Y-43703668D01*
X50409764Y-43651138D01*
X50359135Y-43544126D01*
X50309916Y-43472617D01*
X50234115Y-43414725D01*
X50079784Y-43352004D01*
X49907480Y-43329650D01*
X49744933Y-43353507D01*
X49692403Y-43372768D01*
X49585392Y-43423398D01*
X49513882Y-43472617D01*
X49492338Y-43499239D01*
X49440385Y-43591220D01*
X49394773Y-43703668D01*
X49373997Y-43803922D01*
X47839709Y-43803922D01*
X47839177Y-43767635D01*
X47850908Y-43437300D01*
X47879966Y-43144444D01*
X47911077Y-42957855D01*
X47999554Y-42595032D01*
X49096586Y-42595032D01*
X49146461Y-42766739D01*
X49265121Y-42925344D01*
X49308953Y-42966050D01*
X49469238Y-43064613D01*
X49643202Y-43094735D01*
X49836176Y-43057650D01*
X49858321Y-43049515D01*
X50016807Y-42955506D01*
X50131295Y-42820784D01*
X50189135Y-42659614D01*
X50195070Y-42508392D01*
X50150672Y-42323003D01*
X50053264Y-42171093D01*
X49911420Y-42061202D01*
X49733712Y-42001871D01*
X49528713Y-42001640D01*
X49478072Y-42012907D01*
X49330558Y-42087701D01*
X49207217Y-42210401D01*
X49126783Y-42364112D01*
X49114515Y-42406242D01*
X49096586Y-42595032D01*
X47999554Y-42595032D01*
X48020238Y-42510210D01*
X48173164Y-42071533D01*
X48362525Y-41661137D01*
X48580984Y-41298336D01*
X48650413Y-41201152D01*
X48794599Y-41019332D01*
X48923917Y-40883851D01*
X49032762Y-40800207D01*
X49115535Y-40773894D01*
X49116718Y-40773978D01*
X49182816Y-40787492D01*
X49298829Y-40819239D01*
X49448730Y-40864581D01*
X49616497Y-40918881D01*
X50035450Y-41058811D01*
X51828303Y-42851663D01*
X51740763Y-42900941D01*
X51684508Y-42940443D01*
X51591437Y-43019531D01*
X51492830Y-43114124D01*
X51416513Y-43201026D01*
X51281045Y-43425385D01*
X51204853Y-43670798D01*
X51187935Y-43925472D01*
X51230292Y-44177616D01*
X51331923Y-44415437D01*
X51492830Y-44627143D01*
X51573939Y-44705751D01*
X51669645Y-44788983D01*
X51740763Y-44840326D01*
X51828303Y-44889604D01*
X49729188Y-46988719D01*
X49389501Y-46988719D01*
X49327317Y-46988671D01*
X49190168Y-46986406D01*
X49098492Y-46976814D01*
X49033855Y-46954575D01*
X48977824Y-46914367D01*
X48911966Y-46850870D01*
X48812558Y-46744861D01*
X48577723Y-46438797D01*
X48503112Y-46313693D01*
X48364647Y-46081517D01*
X48179618Y-45685807D01*
G37*
G36*
X50036279Y-43746254D02*
G01*
X50081869Y-43806939D01*
X50094243Y-43901200D01*
X50036279Y-43995014D01*
X49981402Y-44036162D01*
X49911899Y-44059691D01*
X49899593Y-44058798D01*
X49819971Y-44021469D01*
X49751767Y-43949461D01*
X49722841Y-43870634D01*
X49737714Y-43817777D01*
X49787518Y-43746253D01*
X49848204Y-43700664D01*
X49942465Y-43688290D01*
X50036279Y-43746254D01*
G37*
G36*
X53576999Y-39937329D02*
G01*
X53598823Y-39988824D01*
X53639850Y-40091953D01*
X53696066Y-40236154D01*
X53763455Y-40410864D01*
X53838003Y-40605519D01*
X53915694Y-40809554D01*
X53992514Y-41012407D01*
X54064446Y-41203514D01*
X54127476Y-41372312D01*
X54177588Y-41508238D01*
X54210768Y-41600727D01*
X54223000Y-41639217D01*
X54203560Y-41650492D01*
X54129632Y-41680385D01*
X54013325Y-41722922D01*
X53868333Y-41772941D01*
X53512917Y-41892442D01*
X53289493Y-42448622D01*
X53230405Y-42592921D01*
X53159545Y-42758326D01*
X53099161Y-42890787D01*
X53054256Y-42979423D01*
X53029831Y-43013357D01*
X52988495Y-43002107D01*
X52926106Y-42955517D01*
X52878816Y-42917551D01*
X52742990Y-42847794D01*
X52574323Y-42794946D01*
X52397866Y-42767904D01*
X52335253Y-42762638D01*
X52265715Y-42747651D01*
X52202743Y-42714171D01*
X52127922Y-42651435D01*
X52022832Y-42548671D01*
X51814421Y-42340260D01*
X52102156Y-41471259D01*
X52172768Y-41260041D01*
X52246921Y-41042791D01*
X52312589Y-40855163D01*
X52366452Y-40706477D01*
X52405192Y-40606058D01*
X52425488Y-40563227D01*
X52426713Y-40562071D01*
X52469930Y-40534244D01*
X52561564Y-40480816D01*
X52689421Y-40408466D01*
X52841311Y-40323878D01*
X53005043Y-40233731D01*
X53168426Y-40144706D01*
X53319268Y-40063487D01*
X53445378Y-39996751D01*
X53534565Y-39951182D01*
X53574638Y-39933459D01*
X53576999Y-39937329D01*
G37*
G36*
X49783196Y-42398624D02*
G01*
X49786747Y-42402355D01*
X49821720Y-42485926D01*
X49813287Y-42587939D01*
X49763762Y-42675463D01*
X49697557Y-42723099D01*
X49603502Y-42734626D01*
X49521224Y-42683700D01*
X49463370Y-42574568D01*
X49462167Y-42570292D01*
X49471694Y-42489137D01*
X49529532Y-42419856D01*
X49614709Y-42373986D01*
X49706255Y-42363063D01*
X49783196Y-42398624D01*
G37*
G36*
X52517669Y-43155444D02*
G01*
X52562694Y-43169999D01*
X52660029Y-43213579D01*
X52746282Y-43278717D01*
X52847361Y-43383318D01*
X52915956Y-43468227D01*
X53017750Y-43662821D01*
X53050575Y-43868453D01*
X53015189Y-44088302D01*
X53000635Y-44133328D01*
X52957054Y-44230663D01*
X52891917Y-44316916D01*
X52787315Y-44417994D01*
X52702406Y-44486589D01*
X52507812Y-44588383D01*
X52302181Y-44621208D01*
X52082332Y-44585823D01*
X52037306Y-44571268D01*
X51939971Y-44527688D01*
X51853717Y-44462550D01*
X51752639Y-44357948D01*
X51684044Y-44273040D01*
X51582251Y-44078445D01*
X51549425Y-43872814D01*
X51584810Y-43652965D01*
X51599365Y-43607939D01*
X51642946Y-43510605D01*
X51708084Y-43424351D01*
X51812685Y-43323272D01*
X51897593Y-43254677D01*
X52092188Y-43152884D01*
X52297820Y-43120058D01*
X52517669Y-43155444D01*
G37*
G36*
X51589954Y-41254957D02*
G01*
X51589836Y-41280714D01*
X51586594Y-41493905D01*
X51579872Y-41682728D01*
X51570361Y-41835687D01*
X51558756Y-41941284D01*
X51545749Y-41988022D01*
X51527991Y-41998151D01*
X51501396Y-41992938D01*
X51459552Y-41966237D01*
X51395659Y-41912296D01*
X51302916Y-41825363D01*
X51174521Y-41699687D01*
X51003677Y-41529516D01*
X50503387Y-41029226D01*
X50613974Y-40953243D01*
X50627513Y-40944290D01*
X50742415Y-40880879D01*
X50900051Y-40807126D01*
X51079418Y-40731913D01*
X51259515Y-40664122D01*
X51419337Y-40612636D01*
X51592376Y-40563676D01*
X51589954Y-41254957D01*
G37*
G36*
X56731078Y-44207306D02*
G01*
X56896915Y-44208880D01*
X57134596Y-44215435D01*
X57307421Y-44227054D01*
X57418802Y-44244010D01*
X57472147Y-44266577D01*
X57490551Y-44299942D01*
X57513392Y-44396626D01*
X57528582Y-44529908D01*
X57535407Y-44679426D01*
X57533157Y-44824813D01*
X57521115Y-44945707D01*
X57498572Y-45021743D01*
X57466263Y-45050276D01*
X57370321Y-45110731D01*
X57214667Y-45197896D01*
X57001714Y-45310471D01*
X56733868Y-45447157D01*
X56413543Y-45606655D01*
X56249742Y-45687381D01*
X56008791Y-45806003D01*
X55791730Y-45912716D01*
X55606398Y-46003672D01*
X55460636Y-46075026D01*
X55362285Y-46122930D01*
X55319185Y-46143538D01*
X55311878Y-46142224D01*
X55323469Y-46102116D01*
X55366359Y-46021149D01*
X55434802Y-45910889D01*
X55466025Y-45862101D01*
X55624535Y-45578390D01*
X55765478Y-45267541D01*
X55881458Y-44949393D01*
X55965079Y-44643789D01*
X56008945Y-44370568D01*
X56011460Y-44343814D01*
X56022614Y-44259729D01*
X56033450Y-44218646D01*
X56034399Y-44218107D01*
X56079321Y-44213883D01*
X56182388Y-44210512D01*
X56332663Y-44208175D01*
X56519206Y-44207046D01*
X56731078Y-44207306D01*
G37*
G36*
X51574491Y-45685840D02*
G01*
X51579915Y-45744808D01*
X51584539Y-45860208D01*
X51588105Y-46021408D01*
X51590358Y-46217776D01*
X51591038Y-46438684D01*
X51590422Y-47177723D01*
X51382327Y-47119418D01*
X51317445Y-47100145D01*
X51122163Y-47031944D01*
X50924017Y-46950396D01*
X50746697Y-46865712D01*
X50613891Y-46788107D01*
X50503387Y-46712041D01*
X51028553Y-46186876D01*
X51082940Y-46132691D01*
X51234532Y-45983906D01*
X51366814Y-45857327D01*
X51472272Y-45759937D01*
X51543400Y-45698726D01*
X51572686Y-45680677D01*
X51574491Y-45685840D01*
G37*
G36*
X55670245Y-43535213D02*
G01*
X55670245Y-44206055D01*
X54526379Y-44206461D01*
X54353367Y-44206365D01*
X54090462Y-44205587D01*
X53856052Y-44204119D01*
X53658511Y-44202057D01*
X53506213Y-44199498D01*
X53407529Y-44196536D01*
X53370832Y-44193267D01*
X53369293Y-44189202D01*
X53372218Y-44137639D01*
X53388314Y-44050998D01*
X53395457Y-44006651D01*
X53400176Y-43876762D01*
X53388876Y-43742526D01*
X53379073Y-43674892D01*
X53370155Y-43588357D01*
X53371393Y-43548562D01*
X53386221Y-43546425D01*
X53462088Y-43543206D01*
X53594775Y-43540367D01*
X53775915Y-43538008D01*
X53997140Y-43536229D01*
X54250085Y-43535128D01*
X54526379Y-43534807D01*
X55670245Y-43535213D01*
G37*
G36*
X54298881Y-39768557D02*
G01*
X54419922Y-39790727D01*
X54507734Y-39820810D01*
X54690778Y-39923788D01*
X54856776Y-40066302D01*
X54981438Y-40229375D01*
X55007607Y-40280402D01*
X55069720Y-40481967D01*
X55088780Y-40708348D01*
X55061823Y-40933612D01*
X55060396Y-40939635D01*
X55029996Y-41047305D01*
X54989816Y-41131523D01*
X54925529Y-41215626D01*
X54822810Y-41322947D01*
X54802442Y-41343158D01*
X54710042Y-41430775D01*
X54638355Y-41492359D01*
X54601478Y-41515636D01*
X54584388Y-41489165D01*
X54545532Y-41404889D01*
X54489073Y-41271246D01*
X54418580Y-41096907D01*
X54337625Y-40890551D01*
X54249776Y-40660851D01*
X54170682Y-40449482D01*
X54093600Y-40238989D01*
X54029379Y-40058729D01*
X53981113Y-39917562D01*
X53951898Y-39824349D01*
X53944829Y-39787952D01*
X53965512Y-39776250D01*
X54048835Y-39761184D01*
X54167571Y-39758664D01*
X54298881Y-39768557D01*
G37*
G36*
X52659038Y-46070650D02*
G01*
X52659432Y-46218648D01*
X52658893Y-46481616D01*
X52656827Y-46717366D01*
X52653403Y-46917268D01*
X52648789Y-47072698D01*
X52643153Y-47175026D01*
X52636665Y-47215626D01*
X52622487Y-47221640D01*
X52549486Y-47232186D01*
X52431900Y-47239177D01*
X52287076Y-47241337D01*
X51964639Y-47239898D01*
X51963707Y-45251721D01*
X52101819Y-45115731D01*
X52156655Y-45063879D01*
X52235054Y-45007406D01*
X52321481Y-44979369D01*
X52447096Y-44966283D01*
X52654260Y-44952826D01*
X52659038Y-46070650D01*
G37*
G36*
X55193191Y-44579532D02*
G01*
X55352576Y-44585508D01*
X55464123Y-44598984D01*
X55534180Y-44622690D01*
X55569093Y-44659355D01*
X55575210Y-44711707D01*
X55558879Y-44782476D01*
X55526448Y-44874393D01*
X55484264Y-44990185D01*
X55414328Y-45169805D01*
X55257996Y-45490376D01*
X55071695Y-45796283D01*
X54871375Y-46059691D01*
X54780071Y-46163867D01*
X54714375Y-46233327D01*
X54674567Y-46263477D01*
X54650419Y-46261838D01*
X54631702Y-46235933D01*
X54606678Y-46197748D01*
X54544858Y-46108952D01*
X54452782Y-45979078D01*
X54336325Y-45816364D01*
X54201362Y-45629052D01*
X54053768Y-45425380D01*
X53917690Y-45237639D01*
X53782732Y-45050415D01*
X53666288Y-44887795D01*
X53574102Y-44757837D01*
X53511916Y-44668596D01*
X53485473Y-44628127D01*
X53494093Y-44618056D01*
X53564589Y-44604422D01*
X53704120Y-44593714D01*
X53911907Y-44585967D01*
X54187173Y-44581217D01*
X54529140Y-44579502D01*
X54705514Y-44579162D01*
X54979619Y-44578327D01*
X55193191Y-44579532D01*
G37*
G36*
X53132429Y-44767090D02*
G01*
X53138896Y-44776489D01*
X53184680Y-44841225D01*
X53264308Y-44952654D01*
X53372132Y-45102916D01*
X53502509Y-45284154D01*
X53649795Y-45488507D01*
X53808344Y-45708119D01*
X53930614Y-45878094D01*
X54109000Y-46129893D01*
X54244653Y-46327165D01*
X54337954Y-46470485D01*
X54389285Y-46560425D01*
X54399027Y-46597562D01*
X54383264Y-46608442D01*
X54312084Y-46647280D01*
X54198551Y-46704514D01*
X54056892Y-46773363D01*
X53901327Y-46847045D01*
X53746081Y-46918779D01*
X53605377Y-46981785D01*
X53493440Y-47029283D01*
X53455275Y-47044014D01*
X53317908Y-47091012D01*
X53180513Y-47131434D01*
X53009344Y-47176336D01*
X53008965Y-45965225D01*
X53009511Y-45736262D01*
X53011830Y-45467335D01*
X53015757Y-45227098D01*
X53021063Y-45023884D01*
X53027522Y-44866027D01*
X53034903Y-44761860D01*
X53042982Y-44719719D01*
X53081379Y-44712331D01*
X53132429Y-44767090D01*
G37*
G36*
X55030026Y-41877093D02*
G01*
X55038074Y-41888224D01*
X55242643Y-42215780D01*
X55417224Y-42580962D01*
X55547407Y-42953785D01*
X55605791Y-43161248D01*
X54520899Y-43161669D01*
X54397146Y-43161575D01*
X54138804Y-43160423D01*
X53908413Y-43158101D01*
X53714458Y-43154777D01*
X53565416Y-43150617D01*
X53469772Y-43145785D01*
X53436007Y-43140448D01*
X53442214Y-43125690D01*
X53478270Y-43059178D01*
X53541092Y-42949712D01*
X53624468Y-42808037D01*
X53722195Y-42644903D01*
X53778837Y-42551552D01*
X53875249Y-42394765D01*
X53957496Y-42263644D01*
X54018275Y-42169771D01*
X54050282Y-42124726D01*
X54061805Y-42115342D01*
X54132558Y-42078221D01*
X54245587Y-42031279D01*
X54382461Y-41982411D01*
X54418395Y-41970294D01*
X54570199Y-41914699D01*
X54706365Y-41858606D01*
X54801054Y-41812500D01*
X54929365Y-41738630D01*
X55030026Y-41877093D01*
G37*
G36*
X55335712Y-41612010D02*
G01*
X55425877Y-41652293D01*
X55561804Y-41716213D01*
X55734433Y-41799256D01*
X55934705Y-41896908D01*
X56153559Y-42004652D01*
X56381936Y-42117976D01*
X56610775Y-42232366D01*
X56831017Y-42343305D01*
X57033603Y-42446280D01*
X57209471Y-42536777D01*
X57349563Y-42610281D01*
X57444819Y-42662277D01*
X57486179Y-42688251D01*
X57511742Y-42745403D01*
X57529569Y-42855950D01*
X57537389Y-42997491D01*
X57535500Y-43149959D01*
X57524200Y-43293290D01*
X57503785Y-43407420D01*
X57474554Y-43472283D01*
X57460654Y-43483022D01*
X57405381Y-43503659D01*
X57311804Y-43518493D01*
X57171928Y-43528187D01*
X56977755Y-43533406D01*
X56721290Y-43534812D01*
X56031217Y-43534151D01*
X55998172Y-43300202D01*
X55975997Y-43169578D01*
X55900821Y-42865054D01*
X55795489Y-42550349D01*
X55668025Y-42245593D01*
X55526453Y-41970914D01*
X55378795Y-41746440D01*
X55334749Y-41684953D01*
X55299854Y-41622715D01*
X55301641Y-41599711D01*
X55335712Y-41612010D01*
G37*
D11*
%TO.C,JP2*%
X57138104Y-40194604D02*
X57138104Y-40618868D01*
X57138104Y-40194604D02*
X57562368Y-40194604D01*
X57562368Y-40194604D02*
X57138104Y-40618868D01*
D10*
%TO.C,D1*%
X71200000Y-42500000D02*
X70850000Y-42500000D01*
X70850000Y-42500000D02*
X70850000Y-43550000D01*
X70850000Y-43550000D02*
X71200000Y-43550000D01*
X71200000Y-43550000D02*
X71200000Y-42500000D01*
G36*
X71200000Y-43550000D02*
G01*
X70850000Y-43550000D01*
X70850000Y-42500000D01*
X71200000Y-42500000D01*
X71200000Y-43550000D01*
G37*
X71200000Y-43550000D02*
X70850000Y-43550000D01*
X70850000Y-42500000D01*
X71200000Y-42500000D01*
X71200000Y-43550000D01*
%TO.C,D8*%
X53572000Y-62340000D02*
X53572000Y-61990000D01*
X53572000Y-61990000D02*
X52522000Y-61990000D01*
X52522000Y-61990000D02*
X52522000Y-62340000D01*
X52522000Y-62340000D02*
X53572000Y-62340000D01*
G36*
X53572000Y-62340000D02*
G01*
X52522000Y-62340000D01*
X52522000Y-61990000D01*
X53572000Y-61990000D01*
X53572000Y-62340000D01*
G37*
X53572000Y-62340000D02*
X52522000Y-62340000D01*
X52522000Y-61990000D01*
X53572000Y-61990000D01*
X53572000Y-62340000D01*
%TO.C,D11*%
X69375464Y-51992468D02*
X69072355Y-51817468D01*
X69072355Y-51817468D02*
X68547355Y-52726795D01*
X68547355Y-52726795D02*
X68850464Y-52901795D01*
X68850464Y-52901795D02*
X69375464Y-51992468D01*
G36*
X69375464Y-51992468D02*
G01*
X68850464Y-52901795D01*
X68547355Y-52726795D01*
X69072355Y-51817468D01*
X69375464Y-51992468D01*
G37*
X69375464Y-51992468D02*
X68850464Y-52901795D01*
X68547355Y-52726795D01*
X69072355Y-51817468D01*
X69375464Y-51992468D01*
%TD*%
%LPC*%
D12*
%TO.C,SW1*%
X45000000Y-41100000D03*
D13*
X45000000Y-46100000D03*
X45000000Y-43600000D03*
D14*
X52500000Y-38000000D03*
X52500000Y-49200000D03*
D13*
X59500000Y-46100000D03*
X59500000Y-41100000D03*
%TD*%
D15*
%TO.C,J3*%
X70200000Y-33225000D03*
%TD*%
%TO.C,J2*%
X72308000Y-34345000D03*
%TD*%
D16*
%TO.C,J1*%
X74550000Y-37180000D03*
D15*
X74550000Y-39720000D03*
X74550000Y-42260000D03*
X74550000Y-44800000D03*
X74550000Y-47340000D03*
X74550000Y-49880000D03*
%TD*%
%TO.C,J5*%
X70200000Y-53950000D03*
%TD*%
%TO.C,J4*%
X72313000Y-52750000D03*
%TD*%
D17*
%TO.C,*%
X64000000Y-55000000D03*
%TD*%
%TO.C,*%
X36750000Y-47750000D03*
%TD*%
%TO.C,*%
X64000000Y-32000000D03*
%TD*%
D18*
%TO.C,D12*%
X43213871Y-49857519D03*
D19*
X37324898Y-53257519D03*
D18*
X38364129Y-52657519D03*
X37614129Y-51358481D03*
X42463871Y-48558481D03*
D19*
X43503102Y-47958481D03*
%TD*%
D20*
%TO.C,JP1*%
X56355761Y-47430761D03*
D21*
X57275000Y-48350000D03*
D22*
X58194239Y-49269239D03*
%TD*%
D23*
%TO.C,D3*%
X61575129Y-37250481D03*
D19*
X67464102Y-33850481D03*
D23*
X66424871Y-34450481D03*
X67174871Y-35749519D03*
D19*
X61285898Y-39149519D03*
D23*
X62325129Y-38549519D03*
%TD*%
D24*
%TO.C,D7*%
X47249519Y-53150129D03*
D19*
X43849519Y-59039102D03*
D24*
X44449519Y-57999871D03*
X43150481Y-57249871D03*
X45950481Y-52400129D03*
D19*
X46550481Y-51360898D03*
%TD*%
D25*
%TO.C,C1*%
X70289000Y-37291500D03*
X70289000Y-40416500D03*
%TD*%
D26*
%TO.C,D6*%
X42436233Y-38749519D03*
D19*
X36547260Y-35349519D03*
D26*
X37586491Y-35949519D03*
X38336491Y-34650481D03*
X43186233Y-37450481D03*
D19*
X44225464Y-38050481D03*
%TD*%
D27*
%TO.C,D4*%
X46199728Y-34460871D03*
X43399728Y-29611129D03*
D19*
X42799728Y-28571898D03*
D27*
X44698766Y-28861129D03*
X47498766Y-33710871D03*
D19*
X48098766Y-34750102D03*
%TD*%
D28*
%TO.C,D5*%
X57150481Y-33699871D03*
X59950481Y-28850129D03*
D19*
X60550481Y-27810898D03*
D28*
X61249519Y-29600129D03*
X58449519Y-34449871D03*
D19*
X57849519Y-35489102D03*
%TD*%
D29*
%TO.C,D10*%
X41439000Y-44308000D03*
D19*
X34639000Y-44308000D03*
D29*
X35839000Y-44308000D03*
X35839000Y-42808000D03*
D19*
X42639000Y-42808000D03*
D29*
X41439000Y-42808000D03*
%TD*%
D30*
%TO.C,Dcol1*%
X67110000Y-46557000D03*
X64135000Y-46557000D03*
%TD*%
D31*
%TO.C,D2*%
X51572000Y-32700000D03*
X51572000Y-27100000D03*
D19*
X51572000Y-25900000D03*
D31*
X53072000Y-27100000D03*
D19*
X53072000Y-33900000D03*
D31*
X53072000Y-32700000D03*
%TD*%
D32*
%TO.C,D9*%
X58874519Y-52550129D03*
X61674519Y-57399871D03*
D19*
X62274519Y-58439102D03*
D32*
X60375481Y-58149871D03*
D19*
X56975481Y-52260898D03*
D32*
X57575481Y-53300129D03*
%TD*%
D33*
%TO.C,JP2*%
X56355761Y-39569239D03*
D34*
X57275000Y-38650000D03*
D35*
X58194239Y-37730761D03*
%TD*%
D29*
%TO.C,D1*%
X63450000Y-43000000D03*
X69050000Y-43000000D03*
D19*
X70250000Y-43000000D03*
D29*
X69050000Y-44500000D03*
D19*
X62250000Y-44500000D03*
D29*
X63450000Y-44500000D03*
%TD*%
D31*
%TO.C,D8*%
X53072000Y-54590000D03*
X53072000Y-60190000D03*
D19*
X53072000Y-61390000D03*
D31*
X51572000Y-60190000D03*
D19*
X51572000Y-53390000D03*
D31*
X51572000Y-54590000D03*
%TD*%
D36*
%TO.C,R1*%
X70289000Y-46747000D03*
X70289000Y-49847000D03*
%TD*%
D37*
%TO.C,D11*%
X62413767Y-48550481D03*
D19*
X68302740Y-51950481D03*
D37*
X67263509Y-51350481D03*
X66513509Y-52649519D03*
D19*
X60624536Y-49249519D03*
D37*
X61663767Y-49849519D03*
%TD*%
M02*
