M48
; DRILL file {KiCad 6.0.0-rc1-bf2b03b42f~115~ubuntu21.10.1} date Fr 10 Dez 2021 15:53:47 CET
; FORMAT={-:-/ absolute / metric / decimal}
; #@! TF.CreationDate,2021-12-10T15:53:47+01:00
; #@! TF.GenerationSoftware,Kicad,Pcbnew,6.0.0-rc1-bf2b03b42f~115~ubuntu21.10.1
; #@! TF.FileFunction,Plated,1,2,PTH
FMAT,2
METRIC
; #@! TA.AperFunction,Plated,PTH,ViaDrill
T1C0.305
; #@! TA.AperFunction,Plated,PTH,ComponentDrill
T2C0.600
; #@! TA.AperFunction,Plated,PTH,ComponentDrill
T3C1.000
; #@! TA.AperFunction,Plated,PTH,ComponentDrill
T4C4.000
%
G90
G05
T1
X89.822Y-49.821
X90.951Y-39.661
X91.967Y-67.728
X91.967Y-77.247
X91.967Y-79.787
X91.967Y-82.327
X94.888Y-67.728
X96.666Y-39.407
X97.162Y-44.868
X97.682Y-39.407
X99.206Y-77.253
X99.206Y-79.793
X99.206Y-82.333
X101.238Y-39.534
X103.142Y-82.333
X103.143Y-77.253
X103.143Y-79.92
X105.175Y-42.074
X106.699Y-45.274
X108.731Y-77.253
X108.731Y-79.793
X108.731Y-82.333
X109.747Y-57.314
X110.382Y-84.873
X111.271Y-51.345
X138.322Y-67.474
X138.322Y-70.014
X141.199Y-70.432
X141.727Y-69.633
X142.284Y-68.871
X143.783Y-46.265
X143.783Y-49.186
X144.145Y-61.849
X145.415Y-62.992
X145.415Y-66.548
X147.339Y-39.624
X147.466Y-47.535
X149.987Y-61.849
X149.987Y-67.945
X151.276Y-42.074
X152.982Y-47.064
X157.626Y-30.39
X159.023Y-24.294
X159.023Y-25.31
X159.023Y-26.326
T3
X86.341Y-39.0
X86.341Y-41.54
X86.341Y-44.08
X92.856Y-73.482
X92.856Y-76.022
X92.856Y-78.562
X92.856Y-81.102
X92.856Y-83.642
X92.856Y-86.182
X93.54Y-23.09
X93.54Y-25.63
X93.54Y-28.17
X93.54Y-30.71
X93.54Y-33.25
X93.54Y-35.79
X93.54Y-38.33
X93.54Y-40.87
X93.54Y-43.41
X93.54Y-45.95
X93.54Y-48.49
X93.54Y-51.03
X93.54Y-53.57
X93.54Y-56.11
X93.54Y-58.65
X93.54Y-61.19
X93.54Y-63.73
X93.54Y-66.27
X93.54Y-68.81
X98.444Y-73.482
X98.444Y-76.022
X98.444Y-78.562
X98.444Y-81.102
X98.444Y-83.642
X98.444Y-86.182
X104.032Y-73.482
X104.032Y-76.022
X104.032Y-78.562
X104.032Y-81.102
X104.032Y-83.642
X108.78Y-23.09
X108.78Y-25.63
X108.78Y-28.17
X108.78Y-30.71
X108.78Y-33.25
X108.78Y-35.79
X108.78Y-38.33
X108.78Y-40.87
X108.78Y-43.41
X108.78Y-45.95
X108.78Y-48.49
X108.78Y-51.03
X108.78Y-53.57
X108.78Y-56.11
X108.78Y-58.65
X108.78Y-61.19
X108.78Y-63.73
X108.78Y-66.27
X108.78Y-68.81
X109.62Y-73.482
X109.62Y-76.022
X109.62Y-78.562
X109.62Y-81.102
X109.62Y-83.642
X109.62Y-86.182
X138.684Y-73.482
X138.684Y-76.022
X138.684Y-78.562
X138.684Y-81.102
X138.684Y-83.642
X138.684Y-86.182
X139.62Y-23.08
X139.62Y-25.62
X139.62Y-28.16
X139.62Y-30.7
X139.62Y-33.24
X139.62Y-35.78
X139.62Y-38.32
X139.62Y-40.86
X139.62Y-43.4
X139.62Y-45.94
X139.62Y-48.48
X139.62Y-51.02
X139.62Y-53.56
X139.62Y-56.1
X139.62Y-58.64
X139.62Y-61.18
X139.62Y-63.72
X139.62Y-66.26
X139.62Y-68.8
X144.314Y-73.482
X144.314Y-76.022
X144.314Y-78.562
X144.314Y-81.102
X144.314Y-83.642
X149.945Y-73.5
X149.945Y-76.04
X149.945Y-78.58
X149.945Y-81.12
X149.945Y-83.66
X149.945Y-86.2
X154.86Y-23.08
X154.86Y-25.62
X154.86Y-28.16
X154.86Y-30.7
X154.86Y-33.24
X154.86Y-35.78
X154.86Y-38.32
X154.86Y-40.86
X154.86Y-43.4
X154.86Y-45.94
X154.86Y-48.48
X154.86Y-51.02
X154.86Y-53.56
X154.86Y-56.1
X154.86Y-58.64
X154.86Y-61.18
X154.86Y-63.72
X154.86Y-66.26
X154.86Y-68.8
X155.575Y-73.5
X155.575Y-76.04
X155.575Y-78.58
X155.575Y-81.12
X155.575Y-83.66
X155.575Y-86.2
X161.786Y-39.0
X161.786Y-41.54
X161.786Y-44.08
T4
X81.376Y-53.08
X115.951Y-25.18
X132.216Y-25.23
X166.8Y-53.15
T2
X83.566Y-22.025G85X83.566Y-22.625
G05
X84.566Y-29.025G85X84.566Y-31.125
G05
X89.066Y-22.025G85X89.066Y-22.625
G05
X89.066Y-25.025G85X89.066Y-25.625
G05
X89.066Y-29.025G85X89.066Y-29.625
G05
X159.011Y-22.15G85X159.011Y-22.75
G05
X160.011Y-29.15G85X160.011Y-31.25
G05
X164.511Y-22.15G85X164.511Y-22.75
G05
X164.511Y-25.15G85X164.511Y-25.75
G05
X164.511Y-29.15G85X164.511Y-29.75
G05
T0
M30
