%TF.GenerationSoftware,KiCad,Pcbnew,(6.0.2)*%
%TF.CreationDate,2022-04-19T05:13:53+10:00*%
%TF.ProjectId,adapter,61646170-7465-4722-9e6b-696361645f70,1.2*%
%TF.SameCoordinates,Original*%
%TF.FileFunction,Soldermask,Top*%
%TF.FilePolarity,Negative*%
%FSLAX46Y46*%
G04 Gerber Fmt 4.6, Leading zero omitted, Abs format (unit mm)*
G04 Created by KiCad (PCBNEW (6.0.2)) date 2022-04-19 05:13:53*
%MOMM*%
%LPD*%
G01*
G04 APERTURE LIST*
%ADD10R,2.000000X2.000000*%
%ADD11C,2.000000*%
%ADD12R,3.200000X2.000000*%
%ADD13R,1.700000X1.700000*%
%ADD14O,1.700000X1.700000*%
%ADD15C,4.000000*%
%ADD16C,0.800000*%
G04 APERTURE END LIST*
%TO.C,G\u002A\u002A\u002A*%
G36*
X48392480Y-43521094D02*
G01*
X48393991Y-43439711D01*
X48396466Y-43364345D01*
X48400048Y-43293199D01*
X48404876Y-43224479D01*
X48411092Y-43156391D01*
X48418836Y-43087139D01*
X48428248Y-43014929D01*
X48436807Y-42955603D01*
X48467030Y-42779836D01*
X48504755Y-42606106D01*
X48549846Y-42434629D01*
X48602165Y-42265621D01*
X48661575Y-42099299D01*
X48727938Y-41935880D01*
X48801116Y-41775580D01*
X48880973Y-41618616D01*
X48967371Y-41465204D01*
X49060172Y-41315562D01*
X49159239Y-41169905D01*
X49264435Y-41028450D01*
X49375622Y-40891414D01*
X49492663Y-40759014D01*
X49615420Y-40631466D01*
X49743756Y-40508986D01*
X49877533Y-40391792D01*
X50016614Y-40280099D01*
X50160862Y-40174126D01*
X50233055Y-40124575D01*
X50385036Y-40027312D01*
X50540973Y-39936785D01*
X50700589Y-39853137D01*
X50863607Y-39776510D01*
X51029751Y-39707045D01*
X51098964Y-39680572D01*
X51256020Y-39625552D01*
X51413622Y-39577290D01*
X51572576Y-39535613D01*
X51733687Y-39500345D01*
X51897760Y-39471309D01*
X52065600Y-39448330D01*
X52238012Y-39431233D01*
X52243692Y-39430775D01*
X52297379Y-39427218D01*
X52357441Y-39424555D01*
X52422450Y-39422777D01*
X52490980Y-39421875D01*
X52561604Y-39421837D01*
X52632894Y-39422656D01*
X52703422Y-39424321D01*
X52771763Y-39426823D01*
X52836489Y-39430153D01*
X52896172Y-39434300D01*
X52907359Y-39435225D01*
X53085810Y-39454336D01*
X53262779Y-39481108D01*
X53438047Y-39515448D01*
X53611395Y-39557266D01*
X53782605Y-39606470D01*
X53951456Y-39662969D01*
X54117730Y-39726671D01*
X54281208Y-39797485D01*
X54441671Y-39875319D01*
X54598899Y-39960082D01*
X54752674Y-40051683D01*
X54902775Y-40150029D01*
X55048985Y-40255030D01*
X55191084Y-40366594D01*
X55243469Y-40410275D01*
X55323807Y-40480631D01*
X55405778Y-40556721D01*
X55487924Y-40637059D01*
X55568793Y-40720156D01*
X55646929Y-40804525D01*
X55720876Y-40888678D01*
X55775991Y-40954783D01*
X55887030Y-41097589D01*
X55991305Y-41244268D01*
X56088758Y-41394608D01*
X56179331Y-41548394D01*
X56262967Y-41705412D01*
X56339606Y-41865449D01*
X56409192Y-42028291D01*
X56471667Y-42193724D01*
X56526973Y-42361535D01*
X56575052Y-42531508D01*
X56615846Y-42703432D01*
X56649297Y-42877091D01*
X56675348Y-43052272D01*
X56693941Y-43228762D01*
X56705017Y-43406346D01*
X56708520Y-43584810D01*
X56704390Y-43763941D01*
X56692571Y-43943525D01*
X56673005Y-44123348D01*
X56659254Y-44220105D01*
X56628282Y-44395876D01*
X56589851Y-44569464D01*
X56544103Y-44740663D01*
X56491183Y-44909268D01*
X56431231Y-45075075D01*
X56364389Y-45237878D01*
X56290802Y-45397472D01*
X56210609Y-45553652D01*
X56123955Y-45706213D01*
X56030982Y-45854950D01*
X55931831Y-45999658D01*
X55826645Y-46140133D01*
X55715566Y-46276168D01*
X55598738Y-46407559D01*
X55476301Y-46534101D01*
X55348399Y-46655589D01*
X55215173Y-46771818D01*
X55076767Y-46882583D01*
X54933322Y-46987678D01*
X54784981Y-47086900D01*
X54631886Y-47180042D01*
X54586162Y-47206144D01*
X54426849Y-47291283D01*
X54264544Y-47369175D01*
X54099382Y-47439776D01*
X53931495Y-47503045D01*
X53761020Y-47558938D01*
X53588088Y-47607413D01*
X53412836Y-47648428D01*
X53235396Y-47681940D01*
X53055903Y-47707906D01*
X52976082Y-47716953D01*
X52921137Y-47722009D01*
X52860394Y-47726445D01*
X52795379Y-47730217D01*
X52727618Y-47733282D01*
X52658638Y-47735596D01*
X52589965Y-47737117D01*
X52523125Y-47737801D01*
X52459645Y-47737604D01*
X52401050Y-47736483D01*
X52353648Y-47734644D01*
X52171100Y-47721568D01*
X51990398Y-47700915D01*
X51811704Y-47672744D01*
X51635174Y-47637117D01*
X51460968Y-47594094D01*
X51289244Y-47543736D01*
X51120160Y-47486103D01*
X50953877Y-47421257D01*
X50790551Y-47349256D01*
X50630342Y-47270164D01*
X50473409Y-47184039D01*
X50319909Y-47090943D01*
X50170003Y-46990936D01*
X50023847Y-46884080D01*
X49924783Y-46805991D01*
X49841872Y-46736437D01*
X49757556Y-46661531D01*
X49673324Y-46582730D01*
X49590661Y-46501488D01*
X49511057Y-46419260D01*
X49435998Y-46337501D01*
X49380275Y-46273469D01*
X49265438Y-46131966D01*
X49157242Y-45986276D01*
X49055730Y-45836476D01*
X48960949Y-45682645D01*
X48872944Y-45524862D01*
X48791761Y-45363206D01*
X48717445Y-45197754D01*
X48650042Y-45028586D01*
X48633622Y-44983911D01*
X48580683Y-44826791D01*
X48533762Y-44665450D01*
X48493098Y-44500992D01*
X48458932Y-44334517D01*
X48431505Y-44167128D01*
X48411057Y-43999924D01*
X48405225Y-43937359D01*
X48400826Y-43881593D01*
X48397361Y-43827904D01*
X48394779Y-43774693D01*
X48393034Y-43720359D01*
X48392074Y-43663300D01*
X48391852Y-43601916D01*
X48392031Y-43576073D01*
X49022504Y-43576073D01*
X49022818Y-43641015D01*
X49023920Y-43700300D01*
X49025910Y-43756093D01*
X49028892Y-43810559D01*
X49032968Y-43865865D01*
X49038239Y-43924177D01*
X49039543Y-43937359D01*
X49059941Y-44101746D01*
X49087956Y-44264414D01*
X49123499Y-44425143D01*
X49166476Y-44583714D01*
X49216797Y-44739908D01*
X49274370Y-44893505D01*
X49339104Y-45044286D01*
X49410906Y-45192031D01*
X49489687Y-45336521D01*
X49575353Y-45477537D01*
X49667814Y-45614859D01*
X49766977Y-45748267D01*
X49824815Y-45820470D01*
X49912655Y-45922828D01*
X50006748Y-46024122D01*
X50105508Y-46122774D01*
X50207352Y-46217205D01*
X50310695Y-46305835D01*
X50317486Y-46311406D01*
X50446758Y-46412188D01*
X50580383Y-46506671D01*
X50718044Y-46594731D01*
X50859427Y-46676242D01*
X51004217Y-46751079D01*
X51152098Y-46819118D01*
X51302757Y-46880233D01*
X51455877Y-46934299D01*
X51611144Y-46981192D01*
X51768242Y-47020786D01*
X51926858Y-47052956D01*
X52086674Y-47077578D01*
X52247378Y-47094525D01*
X52300633Y-47098418D01*
X52324391Y-47099970D01*
X52346930Y-47101454D01*
X52366431Y-47102750D01*
X52381074Y-47103736D01*
X52387028Y-47104148D01*
X52399182Y-47104648D01*
X52418138Y-47104967D01*
X52442844Y-47105119D01*
X52472250Y-47105116D01*
X52505306Y-47104973D01*
X52540960Y-47104702D01*
X52578163Y-47104316D01*
X52615864Y-47103830D01*
X52653013Y-47103255D01*
X52688558Y-47102606D01*
X52721449Y-47101896D01*
X52750636Y-47101137D01*
X52775069Y-47100343D01*
X52793696Y-47099527D01*
X52803293Y-47098904D01*
X52897298Y-47090237D01*
X52985345Y-47080357D01*
X53069272Y-47069018D01*
X53150915Y-47055970D01*
X53230059Y-47041369D01*
X53393211Y-47005403D01*
X53553479Y-46962142D01*
X53710770Y-46911637D01*
X53864993Y-46853933D01*
X54016056Y-46789079D01*
X54163866Y-46717123D01*
X54308333Y-46638112D01*
X54449363Y-46552093D01*
X54586865Y-46459114D01*
X54720748Y-46359224D01*
X54850918Y-46252469D01*
X54977285Y-46138897D01*
X54984313Y-46132274D01*
X55029032Y-46090028D01*
X54531326Y-45057872D01*
X54490326Y-44972856D01*
X54450201Y-44889670D01*
X54411084Y-44808594D01*
X54373110Y-44729906D01*
X54336415Y-44653884D01*
X54301132Y-44580807D01*
X54267396Y-44510953D01*
X54235341Y-44444600D01*
X54205103Y-44382026D01*
X54176816Y-44323511D01*
X54150614Y-44269332D01*
X54126632Y-44219768D01*
X54105004Y-44175096D01*
X54085866Y-44135597D01*
X54069351Y-44101547D01*
X54055595Y-44073225D01*
X54044732Y-44050909D01*
X54036896Y-44034878D01*
X54032222Y-44025411D01*
X54030838Y-44022734D01*
X54028010Y-44025214D01*
X54020834Y-44033401D01*
X54009737Y-44046763D01*
X53995142Y-44064769D01*
X53977474Y-44086887D01*
X53957158Y-44112586D01*
X53934619Y-44141333D01*
X53910281Y-44172597D01*
X53885936Y-44204075D01*
X53743815Y-44388401D01*
X53743815Y-45146883D01*
X53017316Y-45146883D01*
X53017316Y-41369084D01*
X53743815Y-41369084D01*
X53743815Y-42414546D01*
X53743816Y-42521662D01*
X53743820Y-42621201D01*
X53743830Y-42713436D01*
X53743846Y-42798644D01*
X53743872Y-42877101D01*
X53743908Y-42949081D01*
X53743958Y-43014861D01*
X53744022Y-43074715D01*
X53744104Y-43128921D01*
X53744204Y-43177752D01*
X53744325Y-43221485D01*
X53744469Y-43260396D01*
X53744637Y-43294760D01*
X53744833Y-43324852D01*
X53745057Y-43350948D01*
X53745311Y-43373324D01*
X53745599Y-43392255D01*
X53745920Y-43408017D01*
X53746279Y-43420886D01*
X53746675Y-43431136D01*
X53747113Y-43439044D01*
X53747592Y-43444886D01*
X53748116Y-43448936D01*
X53748686Y-43451470D01*
X53749305Y-43452764D01*
X53749973Y-43453094D01*
X53750694Y-43452735D01*
X53751192Y-43452262D01*
X53754249Y-43448254D01*
X53761609Y-43438186D01*
X53773028Y-43422400D01*
X53788260Y-43401241D01*
X53807061Y-43375050D01*
X53829184Y-43344172D01*
X53854386Y-43308947D01*
X53882421Y-43269721D01*
X53913044Y-43226834D01*
X53946010Y-43180631D01*
X53981074Y-43131455D01*
X54017990Y-43079647D01*
X54056514Y-43025551D01*
X54096401Y-42969510D01*
X54128643Y-42924186D01*
X54169387Y-42866909D01*
X54208931Y-42811337D01*
X54247032Y-42757811D01*
X54283448Y-42706671D01*
X54317935Y-42658257D01*
X54350252Y-42612910D01*
X54380154Y-42570970D01*
X54407400Y-42532777D01*
X54431746Y-42498672D01*
X54452950Y-42468996D01*
X54470769Y-42444088D01*
X54484960Y-42424288D01*
X54495281Y-42409939D01*
X54501488Y-42401378D01*
X54503328Y-42398928D01*
X54505562Y-42398110D01*
X54510895Y-42397391D01*
X54519706Y-42396765D01*
X54532377Y-42396231D01*
X54549288Y-42395784D01*
X54570821Y-42395421D01*
X54597357Y-42395139D01*
X54629277Y-42394932D01*
X54666962Y-42394799D01*
X54710792Y-42394735D01*
X54761149Y-42394737D01*
X54818414Y-42394800D01*
X54882968Y-42394922D01*
X54916885Y-42395001D01*
X55325832Y-42396001D01*
X54935116Y-42898661D01*
X54892070Y-42954052D01*
X54850328Y-43007788D01*
X54810145Y-43059539D01*
X54771778Y-43108976D01*
X54735480Y-43155769D01*
X54701508Y-43199588D01*
X54670116Y-43240103D01*
X54641561Y-43276985D01*
X54616096Y-43309904D01*
X54593978Y-43338531D01*
X54575463Y-43362535D01*
X54560804Y-43381587D01*
X54550257Y-43395357D01*
X54544079Y-43403516D01*
X54542455Y-43405773D01*
X54543918Y-43409729D01*
X54548608Y-43420408D01*
X54556355Y-43437449D01*
X54566990Y-43460493D01*
X54580344Y-43489182D01*
X54596247Y-43523155D01*
X54614530Y-43562054D01*
X54635022Y-43605518D01*
X54657555Y-43653189D01*
X54681959Y-43704707D01*
X54708063Y-43759713D01*
X54735700Y-43817847D01*
X54764699Y-43878750D01*
X54794890Y-43942063D01*
X54826105Y-44007426D01*
X54840732Y-44038024D01*
X54874460Y-44108554D01*
X54908509Y-44179755D01*
X54942609Y-44251065D01*
X54976492Y-44321922D01*
X55009889Y-44391764D01*
X55042532Y-44460028D01*
X55074151Y-44526153D01*
X55104477Y-44589575D01*
X55133242Y-44649734D01*
X55160177Y-44706066D01*
X55185013Y-44758009D01*
X55207482Y-44805002D01*
X55227313Y-44846482D01*
X55244239Y-44881886D01*
X55255466Y-44905371D01*
X55277724Y-44951931D01*
X55301200Y-45001038D01*
X55325303Y-45051456D01*
X55349444Y-45101953D01*
X55373033Y-45151294D01*
X55395481Y-45198247D01*
X55416197Y-45241577D01*
X55434592Y-45280050D01*
X55447350Y-45306734D01*
X55463242Y-45339860D01*
X55478143Y-45370713D01*
X55491707Y-45398588D01*
X55503587Y-45422780D01*
X55513434Y-45442587D01*
X55520902Y-45457302D01*
X55525643Y-45466223D01*
X55527267Y-45468724D01*
X55530128Y-45465534D01*
X55536330Y-45456435D01*
X55545325Y-45442344D01*
X55556565Y-45424175D01*
X55569503Y-45402844D01*
X55583590Y-45379267D01*
X55598279Y-45354359D01*
X55613021Y-45329035D01*
X55627270Y-45304211D01*
X55640477Y-45280803D01*
X55649762Y-45264008D01*
X55723714Y-45120639D01*
X55791142Y-44973210D01*
X55851848Y-44822315D01*
X55905635Y-44668547D01*
X55952305Y-44512501D01*
X55991661Y-44354769D01*
X56023506Y-44195945D01*
X56040637Y-44088549D01*
X56048465Y-44031958D01*
X56055048Y-43979911D01*
X56060482Y-43930971D01*
X56064862Y-43883696D01*
X56068286Y-43836648D01*
X56070848Y-43788387D01*
X56072645Y-43737474D01*
X56073773Y-43682469D01*
X56074328Y-43621933D01*
X56074426Y-43581963D01*
X56074359Y-43529077D01*
X56074066Y-43482742D01*
X56073484Y-43441657D01*
X56072549Y-43404520D01*
X56071198Y-43370029D01*
X56069366Y-43336883D01*
X56066990Y-43303780D01*
X56064007Y-43269420D01*
X56060352Y-43232501D01*
X56055961Y-43191720D01*
X56054813Y-43181406D01*
X56032526Y-43017374D01*
X56002629Y-42855070D01*
X55965219Y-42694730D01*
X55920398Y-42536591D01*
X55868265Y-42380890D01*
X55808919Y-42227863D01*
X55742461Y-42077747D01*
X55668990Y-41930778D01*
X55588606Y-41787193D01*
X55501409Y-41647228D01*
X55407498Y-41511121D01*
X55306974Y-41379107D01*
X55281406Y-41347486D01*
X55193211Y-41244100D01*
X55099112Y-41142109D01*
X55000689Y-41043097D01*
X54899519Y-40948650D01*
X54797183Y-40860352D01*
X54790470Y-40854815D01*
X54659326Y-40751974D01*
X54524147Y-40655785D01*
X54385152Y-40566341D01*
X54242561Y-40483731D01*
X54096594Y-40408048D01*
X53947469Y-40339384D01*
X53795406Y-40277829D01*
X53640625Y-40223476D01*
X53483345Y-40176416D01*
X53323785Y-40136740D01*
X53162165Y-40104539D01*
X52998704Y-40079906D01*
X52907359Y-40069543D01*
X52849016Y-40064076D01*
X52794137Y-40059794D01*
X52740611Y-40056599D01*
X52686323Y-40054392D01*
X52629161Y-40053073D01*
X52567012Y-40052545D01*
X52544109Y-40052528D01*
X52488803Y-40052791D01*
X52439351Y-40053534D01*
X52393761Y-40054853D01*
X52350043Y-40056844D01*
X52306206Y-40059603D01*
X52260259Y-40063226D01*
X52210210Y-40067810D01*
X52192640Y-40069532D01*
X52028450Y-40089763D01*
X51865799Y-40117664D01*
X51704910Y-40153159D01*
X51546009Y-40196175D01*
X51389319Y-40246637D01*
X51235064Y-40304470D01*
X51083468Y-40369602D01*
X50934756Y-40441956D01*
X50789151Y-40521460D01*
X50737677Y-40551733D01*
X50704814Y-40571849D01*
X50668165Y-40594993D01*
X50629315Y-40620114D01*
X50589850Y-40646158D01*
X50551355Y-40672072D01*
X50515416Y-40696802D01*
X50483618Y-40719296D01*
X50465731Y-40732361D01*
X50417625Y-40768090D01*
X50417625Y-41744035D01*
X50417631Y-41831022D01*
X50417650Y-41915929D01*
X50417680Y-41998425D01*
X50417721Y-42078174D01*
X50417773Y-42154844D01*
X50417835Y-42228101D01*
X50417907Y-42297612D01*
X50417987Y-42363043D01*
X50418076Y-42424061D01*
X50418173Y-42480332D01*
X50418277Y-42531522D01*
X50418388Y-42577298D01*
X50418505Y-42617327D01*
X50418628Y-42651275D01*
X50418756Y-42678809D01*
X50418889Y-42699595D01*
X50419026Y-42713299D01*
X50419166Y-42719589D01*
X50419211Y-42719981D01*
X50423148Y-42718185D01*
X50432062Y-42713446D01*
X50444124Y-42706742D01*
X50445718Y-42705839D01*
X50531019Y-42661830D01*
X50620884Y-42623920D01*
X50714697Y-42592304D01*
X50811839Y-42567181D01*
X50911694Y-42548747D01*
X50957591Y-42542657D01*
X50982754Y-42540470D01*
X51013984Y-42538928D01*
X51049522Y-42538020D01*
X51087606Y-42537733D01*
X51126479Y-42538057D01*
X51164380Y-42538979D01*
X51199549Y-42540488D01*
X51230227Y-42542573D01*
X51250015Y-42544603D01*
X51352435Y-42561266D01*
X51452259Y-42585196D01*
X51549198Y-42616259D01*
X51642961Y-42654316D01*
X51733258Y-42699233D01*
X51819799Y-42750873D01*
X51902293Y-42809099D01*
X51980451Y-42873775D01*
X52011622Y-42902550D01*
X52082038Y-42975043D01*
X52146521Y-43052518D01*
X52204848Y-43134562D01*
X52256795Y-43220763D01*
X52302138Y-43310710D01*
X52340654Y-43403991D01*
X52372121Y-43500193D01*
X52396314Y-43598906D01*
X52400327Y-43619270D01*
X52412980Y-43703174D01*
X52420151Y-43790702D01*
X52421842Y-43879848D01*
X52418052Y-43968611D01*
X52408782Y-44054988D01*
X52400327Y-44106221D01*
X52377763Y-44204962D01*
X52348041Y-44301008D01*
X52311426Y-44394005D01*
X52268179Y-44483602D01*
X52218562Y-44569448D01*
X52162837Y-44651190D01*
X52101267Y-44728478D01*
X52034114Y-44800959D01*
X51961640Y-44868282D01*
X51884108Y-44930094D01*
X51801779Y-44986045D01*
X51714916Y-45035782D01*
X51702468Y-45042200D01*
X51626501Y-45078387D01*
X51551694Y-45108840D01*
X51476370Y-45134065D01*
X51398849Y-45154566D01*
X51317454Y-45170846D01*
X51234446Y-45182934D01*
X51213662Y-45184807D01*
X51186695Y-45186227D01*
X51155205Y-45187195D01*
X51120850Y-45187712D01*
X51085289Y-45187778D01*
X51050181Y-45187393D01*
X51017184Y-45186559D01*
X50987957Y-45185275D01*
X50964160Y-45183542D01*
X50957591Y-45182850D01*
X50862063Y-45168789D01*
X50771344Y-45149386D01*
X50684156Y-45124260D01*
X50599221Y-45093035D01*
X50515262Y-45055332D01*
X50498129Y-45046806D01*
X50409061Y-44997449D01*
X50324710Y-44941989D01*
X50245321Y-44880750D01*
X50171143Y-44814057D01*
X50102422Y-44742234D01*
X50039407Y-44665605D01*
X49982345Y-44584494D01*
X49931482Y-44499227D01*
X49887068Y-44410127D01*
X49849348Y-44317518D01*
X49818571Y-44221725D01*
X49795541Y-44125856D01*
X49793375Y-44115334D01*
X49791345Y-44105803D01*
X49789447Y-44096998D01*
X49787676Y-44088652D01*
X49786027Y-44080500D01*
X49784496Y-44072276D01*
X49783077Y-44063716D01*
X49781766Y-44054553D01*
X49780558Y-44044522D01*
X49779448Y-44033358D01*
X49778432Y-44020794D01*
X49777505Y-44006565D01*
X49776662Y-43990406D01*
X49775897Y-43972051D01*
X49775207Y-43951234D01*
X49774587Y-43927691D01*
X49774031Y-43901155D01*
X49773536Y-43871360D01*
X49773095Y-43838042D01*
X49773084Y-43836995D01*
X50418040Y-43836995D01*
X50418203Y-43872108D01*
X50419497Y-43907963D01*
X50421846Y-43942415D01*
X50425172Y-43973318D01*
X50429335Y-43998228D01*
X50448382Y-44069352D01*
X50474226Y-44136936D01*
X50506488Y-44200620D01*
X50544790Y-44260049D01*
X50588753Y-44314866D01*
X50637998Y-44364712D01*
X50692147Y-44409231D01*
X50750823Y-44448066D01*
X50813645Y-44480860D01*
X50880237Y-44507256D01*
X50950218Y-44526896D01*
X50999467Y-44536198D01*
X51029172Y-44539369D01*
X51064283Y-44540910D01*
X51102540Y-44540893D01*
X51141683Y-44539390D01*
X51179450Y-44536473D01*
X51213581Y-44532215D01*
X51232924Y-44528725D01*
X51302725Y-44510209D01*
X51368956Y-44485031D01*
X51431314Y-44453637D01*
X51489496Y-44416470D01*
X51543197Y-44373975D01*
X51592114Y-44326597D01*
X51635944Y-44274780D01*
X51674382Y-44218968D01*
X51707125Y-44159606D01*
X51733870Y-44097138D01*
X51754312Y-44032009D01*
X51768148Y-43964663D01*
X51775075Y-43895546D01*
X51774788Y-43825100D01*
X51766984Y-43753771D01*
X51766081Y-43748359D01*
X51750247Y-43678576D01*
X51727290Y-43611441D01*
X51697620Y-43547431D01*
X51661652Y-43487024D01*
X51619796Y-43430700D01*
X51572466Y-43378937D01*
X51520074Y-43332213D01*
X51463032Y-43291008D01*
X51401753Y-43255799D01*
X51336648Y-43227065D01*
X51308191Y-43217018D01*
X51241899Y-43199175D01*
X51173201Y-43188028D01*
X51103488Y-43183644D01*
X51034150Y-43186088D01*
X50966579Y-43195427D01*
X50945810Y-43199824D01*
X50876473Y-43219695D01*
X50810468Y-43246367D01*
X50748187Y-43279407D01*
X50690020Y-43318384D01*
X50636359Y-43362869D01*
X50587595Y-43412429D01*
X50544118Y-43466633D01*
X50506321Y-43525052D01*
X50474594Y-43587253D01*
X50449328Y-43652807D01*
X50430914Y-43721281D01*
X50421417Y-43777578D01*
X50419086Y-43804770D01*
X50418040Y-43836995D01*
X49773084Y-43836995D01*
X49772706Y-43800935D01*
X49772361Y-43759772D01*
X49772058Y-43714290D01*
X49771791Y-43664221D01*
X49771555Y-43609301D01*
X49771345Y-43549263D01*
X49771158Y-43483843D01*
X49770987Y-43412775D01*
X49770828Y-43335793D01*
X49770677Y-43252631D01*
X49770529Y-43163025D01*
X49770378Y-43066708D01*
X49770220Y-42963415D01*
X49770051Y-42852880D01*
X49769865Y-42734838D01*
X49769804Y-42697172D01*
X49767702Y-41407897D01*
X49718614Y-41473828D01*
X49622302Y-41609691D01*
X49532824Y-41749319D01*
X49450261Y-41892496D01*
X49374697Y-42039010D01*
X49306216Y-42188645D01*
X49244901Y-42341187D01*
X49190834Y-42496422D01*
X49144100Y-42654136D01*
X49104781Y-42814114D01*
X49072961Y-42976142D01*
X49048723Y-43140006D01*
X49039465Y-43222640D01*
X49034257Y-43277761D01*
X49030145Y-43328902D01*
X49027029Y-43378148D01*
X49024808Y-43427587D01*
X49023383Y-43479303D01*
X49022654Y-43535384D01*
X49022504Y-43576073D01*
X48392031Y-43576073D01*
X48392318Y-43534606D01*
X48392480Y-43521094D01*
G37*
%TD*%
D10*
%TO.C,SW1*%
X45000000Y-41100000D03*
D11*
X45000000Y-46100000D03*
X45000000Y-43600000D03*
D12*
X52500000Y-38000000D03*
X52500000Y-49200000D03*
D11*
X59500000Y-46100000D03*
X59500000Y-41100000D03*
%TD*%
D13*
%TO.C,J2*%
X74550000Y-37180000D03*
D14*
X74550000Y-39720000D03*
X74550000Y-42260000D03*
X74550000Y-44800000D03*
X74550000Y-47340000D03*
X74550000Y-49880000D03*
%TD*%
%TO.C,*%
X72381000Y-34420000D03*
%TD*%
D15*
%TO.C,*%
X64000000Y-55000000D03*
%TD*%
%TO.C,*%
X36750000Y-47750000D03*
%TD*%
%TO.C,*%
X64000000Y-32000000D03*
%TD*%
D16*
%TO.C,REF\u002A\u002A*%
X47849519Y-52110898D03*
X42550481Y-58289102D03*
%TD*%
%TO.C,REF\u002A\u002A*%
X58049519Y-51360898D03*
X60750481Y-59039102D03*
%TD*%
%TO.C,REF\u002A\u002A*%
X51740000Y-34155000D03*
X53240000Y-26155000D03*
%TD*%
%TO.C,REF\u002A\u002A*%
X46150481Y-36239102D03*
X43449519Y-28560898D03*
%TD*%
%TO.C,REF\u002A\u002A*%
X42870000Y-44310000D03*
X34870000Y-42810000D03*
%TD*%
%TO.C,REF\u002A\u002A*%
X70150000Y-44310000D03*
X62150000Y-42810000D03*
%TD*%
%TO.C,REF\u002A\u002A*%
X56550481Y-35089102D03*
X61849519Y-28910898D03*
%TD*%
%TO.C,REF\u002A\u002A*%
X53240000Y-53260000D03*
X51740000Y-61260000D03*
%TD*%
%TO.C,REF\u002A\u002A*%
X60760898Y-37550481D03*
X68439102Y-34849519D03*
%TD*%
%TO.C,REF\u002A\u002A*%
X44239102Y-49049519D03*
X36560898Y-51750481D03*
%TD*%
%TO.C,REF\u002A\u002A*%
X61510898Y-48150481D03*
X67689102Y-53449519D03*
%TD*%
%TO.C,REF\u002A\u002A*%
X43135102Y-39797519D03*
X36956898Y-34498481D03*
%TD*%
M02*
