%TF.GenerationSoftware,KiCad,Pcbnew,(6.0.2)*%
%TF.CreationDate,2022-04-21T21:08:16+10:00*%
%TF.ProjectId,adapter,61646170-7465-4722-9e6b-696361645f70,1.2*%
%TF.SameCoordinates,Original*%
%TF.FileFunction,Soldermask,Top*%
%TF.FilePolarity,Negative*%
%FSLAX46Y46*%
G04 Gerber Fmt 4.6, Leading zero omitted, Abs format (unit mm)*
G04 Created by KiCad (PCBNEW (6.0.2)) date 2022-04-21 21:08:16*
%MOMM*%
%LPD*%
G01*
G04 APERTURE LIST*
%ADD10R,2.000000X2.000000*%
%ADD11C,2.000000*%
%ADD12R,3.200000X2.000000*%
%ADD13O,1.700000X1.700000*%
%ADD14R,1.700000X1.700000*%
%ADD15C,4.000000*%
%ADD16C,0.800000*%
G04 APERTURE END LIST*
D10*
%TO.C,SW1*%
X45000000Y-41100000D03*
D11*
X45000000Y-46100000D03*
X45000000Y-43600000D03*
D12*
X52500000Y-38000000D03*
X52500000Y-49200000D03*
D11*
X59500000Y-46100000D03*
X59500000Y-41100000D03*
%TD*%
D13*
%TO.C,J3*%
X70200000Y-33225000D03*
%TD*%
%TO.C,J2*%
X72308000Y-34345000D03*
%TD*%
D14*
%TO.C,J1*%
X74550000Y-37180000D03*
D13*
X74550000Y-39720000D03*
X74550000Y-42260000D03*
X74550000Y-44800000D03*
X74550000Y-47340000D03*
X74550000Y-49880000D03*
%TD*%
%TO.C,J5*%
X70200000Y-53950000D03*
%TD*%
%TO.C,J4*%
X72313000Y-52750000D03*
%TD*%
D15*
%TO.C,*%
X64000000Y-55000000D03*
%TD*%
%TO.C,*%
X36750000Y-47750000D03*
%TD*%
%TO.C,*%
X64000000Y-32000000D03*
%TD*%
D16*
%TO.C,D12*%
X37324898Y-53257519D03*
X43503102Y-47958481D03*
%TD*%
%TO.C,D3*%
X67464102Y-33850481D03*
X61285898Y-39149519D03*
%TD*%
%TO.C,D7*%
X43849519Y-59039102D03*
X46550481Y-51360898D03*
%TD*%
%TO.C,D6*%
X36547260Y-35349519D03*
X44225464Y-38050481D03*
%TD*%
%TO.C,D4*%
X42799728Y-28571898D03*
X48098766Y-34750102D03*
%TD*%
%TO.C,D5*%
X60550481Y-27810898D03*
X57849519Y-35489102D03*
%TD*%
%TO.C,D10*%
X34639000Y-44308000D03*
X42639000Y-42808000D03*
%TD*%
%TO.C,D2*%
X51572000Y-25900000D03*
X53072000Y-33900000D03*
%TD*%
%TO.C,D9*%
X62274519Y-58439102D03*
X56975481Y-52260898D03*
%TD*%
%TO.C,D1*%
X70250000Y-43000000D03*
X62250000Y-44500000D03*
%TD*%
%TO.C,D8*%
X53072000Y-61390000D03*
X51572000Y-53390000D03*
%TD*%
%TO.C,D11*%
X68302740Y-51950481D03*
X60624536Y-49249519D03*
%TD*%
M02*
